%TF.GenerationSoftware,KiCad,Pcbnew,(6.0.10)*%
%TF.CreationDate,2024-01-08T08:39:50-08:00*%
%TF.ProjectId,windchargecontroller,77696e64-6368-4617-9267-65636f6e7472,rev?*%
%TF.SameCoordinates,Original*%
%TF.FileFunction,Legend,Bot*%
%TF.FilePolarity,Positive*%
%FSLAX46Y46*%
G04 Gerber Fmt 4.6, Leading zero omitted, Abs format (unit mm)*
G04 Created by KiCad (PCBNEW (6.0.10)) date 2024-01-08 08:39:50*
%MOMM*%
%LPD*%
G01*
G04 APERTURE LIST*
%ADD10C,0.150000*%
%ADD11C,0.508000*%
G04 APERTURE END LIST*
D10*
X163671733Y-70911980D02*
X163671733Y-69911980D01*
X163433638Y-69911980D01*
X163290780Y-69959600D01*
X163195542Y-70054838D01*
X163147923Y-70150076D01*
X163100304Y-70340552D01*
X163100304Y-70483409D01*
X163147923Y-70673885D01*
X163195542Y-70769123D01*
X163290780Y-70864361D01*
X163433638Y-70911980D01*
X163671733Y-70911980D01*
X162528876Y-70911980D02*
X162624114Y-70864361D01*
X162671733Y-70816742D01*
X162719352Y-70721504D01*
X162719352Y-70435790D01*
X162671733Y-70340552D01*
X162624114Y-70292933D01*
X162528876Y-70245314D01*
X162386019Y-70245314D01*
X162290780Y-70292933D01*
X162243161Y-70340552D01*
X162195542Y-70435790D01*
X162195542Y-70721504D01*
X162243161Y-70816742D01*
X162290780Y-70864361D01*
X162386019Y-70911980D01*
X162528876Y-70911980D01*
X161766971Y-70245314D02*
X161766971Y-70911980D01*
X161766971Y-70340552D02*
X161719352Y-70292933D01*
X161624114Y-70245314D01*
X161481257Y-70245314D01*
X161386019Y-70292933D01*
X161338400Y-70388171D01*
X161338400Y-70911980D01*
X160814590Y-69911980D02*
X160909828Y-70102457D01*
X160528876Y-70245314D02*
X160147923Y-70245314D01*
X160386019Y-69911980D02*
X160386019Y-70769123D01*
X160338400Y-70864361D01*
X160243161Y-70911980D01*
X160147923Y-70911980D01*
X158624114Y-70245314D02*
X158624114Y-71054838D01*
X158671733Y-71150076D01*
X158719352Y-71197695D01*
X158814590Y-71245314D01*
X158957447Y-71245314D01*
X159052685Y-71197695D01*
X158624114Y-70864361D02*
X158719352Y-70911980D01*
X158909828Y-70911980D01*
X159005066Y-70864361D01*
X159052685Y-70816742D01*
X159100304Y-70721504D01*
X159100304Y-70435790D01*
X159052685Y-70340552D01*
X159005066Y-70292933D01*
X158909828Y-70245314D01*
X158719352Y-70245314D01*
X158624114Y-70292933D01*
X158147923Y-70911980D02*
X158147923Y-70245314D01*
X158147923Y-69911980D02*
X158195542Y-69959600D01*
X158147923Y-70007219D01*
X158100304Y-69959600D01*
X158147923Y-69911980D01*
X158147923Y-70007219D01*
X157766971Y-70245314D02*
X157528876Y-70911980D01*
X157290780Y-70245314D01*
X156528876Y-70864361D02*
X156624114Y-70911980D01*
X156814590Y-70911980D01*
X156909828Y-70864361D01*
X156957447Y-70769123D01*
X156957447Y-70388171D01*
X156909828Y-70292933D01*
X156814590Y-70245314D01*
X156624114Y-70245314D01*
X156528876Y-70292933D01*
X156481257Y-70388171D01*
X156481257Y-70483409D01*
X156957447Y-70578647D01*
X154862209Y-70245314D02*
X154862209Y-70911980D01*
X155290780Y-70245314D02*
X155290780Y-70769123D01*
X155243161Y-70864361D01*
X155147923Y-70911980D01*
X155005066Y-70911980D01*
X154909828Y-70864361D01*
X154862209Y-70816742D01*
X154386019Y-70245314D02*
X154386019Y-71245314D01*
X154386019Y-70292933D02*
X154290780Y-70245314D01*
X154100304Y-70245314D01*
X154005066Y-70292933D01*
X153957447Y-70340552D01*
X153909828Y-70435790D01*
X153909828Y-70721504D01*
X153957447Y-70816742D01*
X154005066Y-70864361D01*
X154100304Y-70911980D01*
X154290780Y-70911980D01*
X154386019Y-70864361D01*
X153433638Y-70864361D02*
X153433638Y-70911980D01*
X153481257Y-71007219D01*
X153528876Y-71054838D01*
X152290780Y-70864361D02*
X152195542Y-70911980D01*
X152005066Y-70911980D01*
X151909828Y-70864361D01*
X151862209Y-70769123D01*
X151862209Y-70721504D01*
X151909828Y-70626266D01*
X152005066Y-70578647D01*
X152147923Y-70578647D01*
X152243161Y-70531028D01*
X152290780Y-70435790D01*
X152290780Y-70388171D01*
X152243161Y-70292933D01*
X152147923Y-70245314D01*
X152005066Y-70245314D01*
X151909828Y-70292933D01*
X151433638Y-70911980D02*
X151433638Y-69911980D01*
X151338400Y-70531028D02*
X151052685Y-70911980D01*
X151052685Y-70245314D02*
X151433638Y-70626266D01*
X150243161Y-70864361D02*
X150338400Y-70911980D01*
X150528876Y-70911980D01*
X150624114Y-70864361D01*
X150671733Y-70769123D01*
X150671733Y-70388171D01*
X150624114Y-70292933D01*
X150528876Y-70245314D01*
X150338400Y-70245314D01*
X150243161Y-70292933D01*
X150195542Y-70388171D01*
X150195542Y-70483409D01*
X150671733Y-70578647D01*
X149624114Y-70911980D02*
X149719352Y-70864361D01*
X149766971Y-70769123D01*
X149766971Y-69911980D01*
X148862209Y-70864361D02*
X148957447Y-70911980D01*
X149147923Y-70911980D01*
X149243161Y-70864361D01*
X149290780Y-70769123D01*
X149290780Y-70388171D01*
X149243161Y-70292933D01*
X149147923Y-70245314D01*
X148957447Y-70245314D01*
X148862209Y-70292933D01*
X148814590Y-70388171D01*
X148814590Y-70483409D01*
X149290780Y-70578647D01*
X148528876Y-70245314D02*
X148147923Y-70245314D01*
X148386019Y-69911980D02*
X148386019Y-70769123D01*
X148338400Y-70864361D01*
X148243161Y-70911980D01*
X148147923Y-70911980D01*
X147671733Y-70911980D02*
X147766971Y-70864361D01*
X147814590Y-70816742D01*
X147862209Y-70721504D01*
X147862209Y-70435790D01*
X147814590Y-70340552D01*
X147766971Y-70292933D01*
X147671733Y-70245314D01*
X147528876Y-70245314D01*
X147433638Y-70292933D01*
X147386019Y-70340552D01*
X147338400Y-70435790D01*
X147338400Y-70721504D01*
X147386019Y-70816742D01*
X147433638Y-70864361D01*
X147528876Y-70911980D01*
X147671733Y-70911980D01*
X146909828Y-70245314D02*
X146909828Y-70911980D01*
X146909828Y-70340552D02*
X146862209Y-70292933D01*
X146766971Y-70245314D01*
X146624114Y-70245314D01*
X146528876Y-70292933D01*
X146481257Y-70388171D01*
X146481257Y-70911980D01*
X146005066Y-70816742D02*
X145957447Y-70864361D01*
X146005066Y-70911980D01*
X146052685Y-70864361D01*
X146005066Y-70816742D01*
X146005066Y-70911980D01*
X146005066Y-70531028D02*
X146052685Y-69959600D01*
X146005066Y-69911980D01*
X145957447Y-69959600D01*
X146005066Y-70531028D01*
X146005066Y-69911980D01*
D11*
%TO.C,J4*%
X219582999Y-45801899D02*
G75*
G03*
X219582999Y-45801899I-381000J0D01*
G01*
%TO.C,J2*%
X124505101Y-39115999D02*
G75*
G03*
X124505101Y-39115999I-381000J0D01*
G01*
%TO.C,J6*%
X210103101Y-39623999D02*
G75*
G03*
X210103101Y-39623999I-381000J0D01*
G01*
%TO.C,G\u002A\u002A\u002A*%
G36*
X139328648Y-66724241D02*
G01*
X139322052Y-66740252D01*
X139290734Y-66862822D01*
X139300285Y-66994504D01*
X139351267Y-67142132D01*
X139355943Y-67152260D01*
X139394586Y-67240382D01*
X139411226Y-67295164D01*
X139407894Y-67324836D01*
X139400351Y-67332231D01*
X139329396Y-67352203D01*
X139260752Y-67330104D01*
X139222509Y-67291062D01*
X139180356Y-67186662D01*
X139170867Y-67061413D01*
X139194356Y-66929948D01*
X139213619Y-66877586D01*
X139250015Y-66802885D01*
X139286155Y-66744300D01*
X139304759Y-66723003D01*
X139330891Y-66705488D01*
X139328648Y-66724241D01*
G37*
G36*
X141325851Y-68524516D02*
G01*
X141316991Y-68589375D01*
X141298097Y-68673776D01*
X141272412Y-68764948D01*
X141243175Y-68850119D01*
X141213775Y-68916247D01*
X141177273Y-68973513D01*
X141127421Y-69038959D01*
X141071840Y-69104309D01*
X141018155Y-69161288D01*
X140973990Y-69201621D01*
X140946967Y-69217031D01*
X140942151Y-69211102D01*
X140952319Y-69176351D01*
X140977801Y-69117966D01*
X140989256Y-69094779D01*
X141022670Y-69000426D01*
X141022340Y-68900101D01*
X141022162Y-68898798D01*
X141016915Y-68848260D01*
X141021441Y-68808750D01*
X141041568Y-68769157D01*
X141083123Y-68718371D01*
X141151936Y-68645280D01*
X141159016Y-68637905D01*
X141226405Y-68570091D01*
X141280973Y-68519603D01*
X141314782Y-68493572D01*
X141321437Y-68491971D01*
X141325851Y-68524516D01*
G37*
G36*
X141294850Y-62719479D02*
G01*
X141360200Y-62775712D01*
X141380794Y-62841425D01*
X141355114Y-62911057D01*
X141349290Y-62918855D01*
X141332661Y-62950651D01*
X141313554Y-63008720D01*
X141291117Y-63096861D01*
X141264500Y-63218873D01*
X141232852Y-63378555D01*
X141195321Y-63579707D01*
X141170574Y-63716586D01*
X141138032Y-63898381D01*
X141108392Y-64064329D01*
X141082671Y-64208707D01*
X141061884Y-64325796D01*
X141047050Y-64409875D01*
X141039184Y-64455224D01*
X141038181Y-64461575D01*
X141058692Y-64470397D01*
X141108106Y-64483080D01*
X141108951Y-64483266D01*
X141177253Y-64514890D01*
X141250656Y-64572825D01*
X141311683Y-64641153D01*
X141340302Y-64693991D01*
X141345884Y-64747117D01*
X141340029Y-64814887D01*
X141325968Y-64876882D01*
X141306931Y-64912683D01*
X141305547Y-64913649D01*
X141273787Y-64914774D01*
X141210454Y-64905869D01*
X141144624Y-64892286D01*
X141069098Y-64875710D01*
X141015571Y-64865817D01*
X140997282Y-64864548D01*
X140991213Y-64888480D01*
X140976734Y-64953370D01*
X140955146Y-65053153D01*
X140927749Y-65181762D01*
X140895843Y-65333132D01*
X140860727Y-65501198D01*
X140857451Y-65516951D01*
X140798587Y-65790579D01*
X140745161Y-66018411D01*
X140696583Y-66202290D01*
X140652263Y-66344054D01*
X140611608Y-66445546D01*
X140574029Y-66508606D01*
X140538935Y-66535073D01*
X140530329Y-66536188D01*
X140504091Y-66516971D01*
X140493725Y-66497663D01*
X140486394Y-66450607D01*
X140488101Y-66369606D01*
X140499104Y-66252958D01*
X140519663Y-66098961D01*
X140550037Y-65905912D01*
X140590487Y-65672111D01*
X140641271Y-65395853D01*
X140702650Y-65075439D01*
X140738669Y-64891670D01*
X140742855Y-64843077D01*
X140724290Y-64810153D01*
X140672871Y-64776804D01*
X140663310Y-64771632D01*
X140575270Y-64703172D01*
X140518123Y-64614559D01*
X140498184Y-64517903D01*
X140504828Y-64467679D01*
X140526131Y-64387511D01*
X140674122Y-64393240D01*
X140751221Y-64394417D01*
X140804753Y-64391779D01*
X140822113Y-64386704D01*
X140826854Y-64360981D01*
X140840261Y-64294216D01*
X140861110Y-64192352D01*
X140888176Y-64061332D01*
X140920234Y-63907100D01*
X140956062Y-63735600D01*
X140966715Y-63684756D01*
X141006257Y-63491455D01*
X141040620Y-63314169D01*
X141068722Y-63159106D01*
X141089487Y-63032475D01*
X141101835Y-62940484D01*
X141104758Y-62890348D01*
X141105140Y-62819032D01*
X141123187Y-62773748D01*
X141165321Y-62734792D01*
X141214667Y-62702381D01*
X141251746Y-62699202D01*
X141294850Y-62719479D01*
G37*
G36*
X141359183Y-67702561D02*
G01*
X141403786Y-67738609D01*
X141455824Y-67787778D01*
X141540443Y-67891153D01*
X141580719Y-67992303D01*
X141578942Y-68100429D01*
X141554448Y-68183774D01*
X141497515Y-68281745D01*
X141417481Y-68351232D01*
X141325283Y-68383461D01*
X141304082Y-68384681D01*
X141245880Y-68384770D01*
X141295080Y-68330753D01*
X141342793Y-68269610D01*
X141374349Y-68218576D01*
X141395201Y-68143084D01*
X141400415Y-68039797D01*
X141390505Y-67926136D01*
X141365986Y-67819524D01*
X141362223Y-67808418D01*
X141342820Y-67744399D01*
X141335734Y-67701479D01*
X141337598Y-67693230D01*
X141359183Y-67702561D01*
G37*
G36*
X140259241Y-69509539D02*
G01*
X140326701Y-69522176D01*
X140357506Y-69547720D01*
X140361249Y-69599393D01*
X140355496Y-69642181D01*
X140343062Y-69696505D01*
X140318486Y-69784084D01*
X140284077Y-69898025D01*
X140242142Y-70031436D01*
X140194991Y-70177425D01*
X140144931Y-70329099D01*
X140094271Y-70479567D01*
X140045319Y-70621935D01*
X140000384Y-70749313D01*
X139961774Y-70854806D01*
X139931798Y-70931525D01*
X139912764Y-70972575D01*
X139908233Y-70977587D01*
X139897732Y-70955513D01*
X139889999Y-70896982D01*
X139886395Y-70813533D01*
X139886294Y-70791528D01*
X139890004Y-70653297D01*
X139901790Y-70522861D01*
X139923753Y-70389460D01*
X139957993Y-70242335D01*
X140006612Y-70070727D01*
X140060919Y-69897247D01*
X140188524Y-69501122D01*
X140259241Y-69509539D01*
G37*
G36*
X140686780Y-69625906D02*
G01*
X140697441Y-69733089D01*
X140709441Y-69869326D01*
X140722104Y-70025144D01*
X140734753Y-70191073D01*
X140746709Y-70357641D01*
X140757296Y-70515376D01*
X140765835Y-70654807D01*
X140771651Y-70766462D01*
X140774064Y-70840871D01*
X140774093Y-70846746D01*
X140766246Y-70957038D01*
X140743226Y-71023969D01*
X140705829Y-71046647D01*
X140654850Y-71024179D01*
X140633165Y-71004707D01*
X140605549Y-70960225D01*
X140585938Y-70885660D01*
X140572015Y-70772154D01*
X140571882Y-70770633D01*
X140560231Y-70648859D01*
X140545225Y-70509126D01*
X140530049Y-70381043D01*
X140529587Y-70377398D01*
X140519406Y-70272983D01*
X140510622Y-70137711D01*
X140504147Y-69988742D01*
X140500895Y-69843230D01*
X140500841Y-69837228D01*
X140498011Y-69501122D01*
X140584797Y-69493864D01*
X140671582Y-69486606D01*
X140686780Y-69625906D01*
G37*
G36*
X141437021Y-69409356D02*
G01*
X141543968Y-69461262D01*
X141555646Y-69468559D01*
X141608702Y-69497780D01*
X141699003Y-69542465D01*
X141819570Y-69599379D01*
X141963425Y-69665286D01*
X142123589Y-69736949D01*
X142293083Y-69811130D01*
X142310582Y-69818694D01*
X142529372Y-69913484D01*
X142707257Y-69991755D01*
X142847569Y-70055656D01*
X142953640Y-70107339D01*
X143028802Y-70148952D01*
X143076388Y-70182645D01*
X143099728Y-70210569D01*
X143102156Y-70234874D01*
X143087003Y-70257710D01*
X143057601Y-70281226D01*
X143042813Y-70291164D01*
X143000827Y-70330959D01*
X142984290Y-70388027D01*
X142982794Y-70425967D01*
X142978188Y-70489429D01*
X142961046Y-70516666D01*
X142940781Y-70520244D01*
X142907322Y-70508054D01*
X142840257Y-70474952D01*
X142747039Y-70424922D01*
X142635115Y-70361952D01*
X142525674Y-70298174D01*
X142393342Y-70220806D01*
X142230821Y-70127315D01*
X142050107Y-70024511D01*
X141863194Y-69919203D01*
X141682078Y-69818200D01*
X141607917Y-69777209D01*
X141461303Y-69695814D01*
X141329583Y-69621511D01*
X141218321Y-69557534D01*
X141133078Y-69507115D01*
X141079418Y-69473490D01*
X141062721Y-69460237D01*
X141083764Y-69441816D01*
X141138597Y-69422590D01*
X141213180Y-69405957D01*
X141293472Y-69395318D01*
X141339578Y-69393222D01*
X141437021Y-69409356D01*
G37*
G36*
X139370692Y-68282519D02*
G01*
X139366264Y-68300925D01*
X139359181Y-68385563D01*
X139396171Y-68484408D01*
X139476218Y-68595164D01*
X139515851Y-68637995D01*
X139579830Y-68709278D01*
X139623978Y-68769926D01*
X139641054Y-68809783D01*
X139640839Y-68813307D01*
X139613487Y-68843399D01*
X139556175Y-68857809D01*
X139484670Y-68855500D01*
X139414741Y-68835432D01*
X139402037Y-68829034D01*
X139346274Y-68778321D01*
X139293844Y-68698288D01*
X139254422Y-68607211D01*
X139237686Y-68523364D01*
X139237614Y-68518503D01*
X139247572Y-68464505D01*
X139272505Y-68396945D01*
X139305003Y-68331024D01*
X139337656Y-68281945D01*
X139361319Y-68264733D01*
X139370692Y-68282519D01*
G37*
G36*
X140294221Y-64891449D02*
G01*
X140316030Y-64946016D01*
X140339694Y-65024887D01*
X140342518Y-65035716D01*
X140374947Y-65145289D01*
X140415312Y-65258937D01*
X140447588Y-65335810D01*
X140488651Y-65431361D01*
X140506909Y-65499756D01*
X140504962Y-65554582D01*
X140495443Y-65585926D01*
X140476462Y-65617043D01*
X140451610Y-65615064D01*
X140415436Y-65576636D01*
X140368489Y-65507789D01*
X140304342Y-65383433D01*
X140258084Y-65244897D01*
X140233780Y-65108604D01*
X140235496Y-64990976D01*
X140237611Y-64979055D01*
X140254385Y-64915811D01*
X140272517Y-64877272D01*
X140278670Y-64872441D01*
X140294221Y-64891449D01*
G37*
G36*
X141035875Y-66463369D02*
G01*
X141026015Y-66510879D01*
X141001910Y-66594021D01*
X140976095Y-66720532D01*
X140969494Y-66853775D01*
X140982283Y-66974013D01*
X140997995Y-67028343D01*
X141023703Y-67084539D01*
X141065230Y-67165608D01*
X141114074Y-67255024D01*
X141119378Y-67264394D01*
X141192217Y-67414144D01*
X141225450Y-67537691D01*
X141219188Y-67635818D01*
X141181278Y-67701565D01*
X141135049Y-67744149D01*
X141094613Y-67756467D01*
X141044681Y-67738507D01*
X140986302Y-67701434D01*
X140918003Y-67638135D01*
X140856784Y-67553046D01*
X140843028Y-67527379D01*
X140800644Y-67393709D01*
X140786557Y-67230802D01*
X140799941Y-67047592D01*
X140839970Y-66853015D01*
X140905817Y-66656008D01*
X140928586Y-66602039D01*
X140963981Y-66528450D01*
X140995563Y-66473748D01*
X141012895Y-66452952D01*
X141031308Y-66446544D01*
X141035875Y-66463369D01*
G37*
G36*
X140379122Y-66054162D02*
G01*
X140381853Y-66113104D01*
X140382280Y-66197675D01*
X140381830Y-66230092D01*
X140380615Y-66308619D01*
X140382780Y-66368809D01*
X140392009Y-66420577D01*
X140411986Y-66473837D01*
X140446393Y-66538503D01*
X140498915Y-66624491D01*
X140570034Y-66736675D01*
X140596414Y-66788296D01*
X140609008Y-66846653D01*
X140610354Y-66928153D01*
X140607750Y-66980328D01*
X140602626Y-67087162D01*
X140598435Y-67216971D01*
X140595957Y-67344717D01*
X140595746Y-67366376D01*
X140595996Y-67472100D01*
X140600696Y-67543330D01*
X140612788Y-67593560D01*
X140635208Y-67636289D01*
X140662843Y-67674517D01*
X140758486Y-67774197D01*
X140860975Y-67835662D01*
X140963681Y-67856342D01*
X141059976Y-67833669D01*
X141065823Y-67830651D01*
X141110232Y-67814219D01*
X141126988Y-67828754D01*
X141115935Y-67876591D01*
X141076915Y-67960064D01*
X141054276Y-68002430D01*
X140999647Y-68117849D01*
X140971866Y-68212422D01*
X140971376Y-68281127D01*
X140998620Y-68318940D01*
X141025854Y-68324751D01*
X141072747Y-68303286D01*
X141105189Y-68258731D01*
X141138931Y-68203852D01*
X141163738Y-68194709D01*
X141177617Y-68229528D01*
X141178576Y-68306532D01*
X141177366Y-68323020D01*
X141155772Y-68437741D01*
X141107976Y-68529871D01*
X141100844Y-68539488D01*
X141004094Y-68701418D01*
X140946356Y-68884983D01*
X140931219Y-68987066D01*
X140902460Y-69136194D01*
X140848380Y-69249024D01*
X140765657Y-69331939D01*
X140744308Y-69346164D01*
X140693548Y-69371792D01*
X140635217Y-69385679D01*
X140554575Y-69390153D01*
X140474004Y-69388839D01*
X140367698Y-69388046D01*
X140266703Y-69391547D01*
X140191308Y-69398593D01*
X140185913Y-69399472D01*
X140056078Y-69398122D01*
X139993852Y-69380947D01*
X139907011Y-69358622D01*
X139808877Y-69346272D01*
X139783015Y-69345434D01*
X139637959Y-69326867D01*
X139523809Y-69272510D01*
X139454299Y-69201894D01*
X139422570Y-69149797D01*
X139421504Y-69115015D01*
X139456422Y-69089012D01*
X139532643Y-69063252D01*
X139542450Y-69060443D01*
X139645570Y-69013109D01*
X139731257Y-68940289D01*
X139786885Y-68853991D01*
X139798110Y-68817311D01*
X139797469Y-68733416D01*
X139770141Y-68619767D01*
X139762591Y-68597116D01*
X139724588Y-68441478D01*
X139727303Y-68302776D01*
X139771889Y-68170739D01*
X139819593Y-68089891D01*
X139875078Y-67995482D01*
X139924899Y-67890131D01*
X139946414Y-67832596D01*
X139971369Y-67762529D01*
X140011052Y-67660583D01*
X140060648Y-67538737D01*
X140115343Y-67408970D01*
X140134561Y-67364449D01*
X140280604Y-67028343D01*
X140281930Y-66620215D01*
X140283384Y-66459264D01*
X140286997Y-66338366D01*
X140293428Y-66249579D01*
X140303339Y-66184964D01*
X140317390Y-66136580D01*
X140323387Y-66122058D01*
X140350769Y-66066021D01*
X140370817Y-66034532D01*
X140374501Y-66032029D01*
X140379122Y-66054162D01*
G37*
G36*
X139927418Y-67553760D02*
G01*
X139930333Y-67595205D01*
X139915772Y-67670646D01*
X139882505Y-67777548D01*
X139830073Y-67911573D01*
X139791721Y-67983610D01*
X139736637Y-68066679D01*
X139703631Y-68109716D01*
X139628445Y-68229893D01*
X139599554Y-68348901D01*
X139617375Y-68463950D01*
X139642741Y-68517116D01*
X139680993Y-68589350D01*
X139688590Y-68624663D01*
X139665407Y-68623192D01*
X139611319Y-68585074D01*
X139593987Y-68570710D01*
X139528296Y-68503192D01*
X139492577Y-68430103D01*
X139482049Y-68336997D01*
X139487444Y-68248854D01*
X139495051Y-68166507D01*
X139494364Y-68120987D01*
X139482209Y-68101379D01*
X139455413Y-68096770D01*
X139443192Y-68096680D01*
X139382433Y-68075235D01*
X139342860Y-68012830D01*
X139326110Y-67912360D01*
X139325642Y-67888610D01*
X139335243Y-67814175D01*
X139359558Y-67742048D01*
X139391857Y-67687191D01*
X139425409Y-67664568D01*
X139426428Y-67664544D01*
X139444834Y-67685246D01*
X139467251Y-67737083D01*
X139474593Y-67759705D01*
X139505670Y-67830167D01*
X139546522Y-67884213D01*
X139555758Y-67891747D01*
X139615725Y-67924261D01*
X139663669Y-67923249D01*
X139707002Y-67884713D01*
X139753137Y-67804654D01*
X139765561Y-67778579D01*
X139826097Y-67658719D01*
X139874072Y-67582984D01*
X139908255Y-67548842D01*
X139927418Y-67553760D01*
G37*
G36*
X142219730Y-69129602D02*
G01*
X142414321Y-69205942D01*
X142585358Y-69316020D01*
X142661854Y-69385619D01*
X142742537Y-69473673D01*
X142790056Y-69537175D01*
X142803077Y-69574003D01*
X142785576Y-69582715D01*
X142755484Y-69573814D01*
X142686952Y-69550041D01*
X142586369Y-69513726D01*
X142460125Y-69467199D01*
X142314608Y-69412788D01*
X142184919Y-69363745D01*
X142030878Y-69304314D01*
X141893554Y-69249617D01*
X141778771Y-69202115D01*
X141692354Y-69164269D01*
X141640127Y-69138541D01*
X141626996Y-69127986D01*
X141655223Y-69115879D01*
X141717682Y-69102734D01*
X141799316Y-69091583D01*
X142011442Y-69090363D01*
X142219730Y-69129602D01*
G37*
G36*
X139892164Y-69460410D02*
G01*
X139937637Y-69487371D01*
X139991802Y-69531231D01*
X139945045Y-69636214D01*
X139876659Y-69766615D01*
X139781215Y-69916627D01*
X139667600Y-70074027D01*
X139544701Y-70226591D01*
X139421403Y-70362094D01*
X139406203Y-70377425D01*
X139291993Y-70488425D01*
X139168591Y-70603366D01*
X139042941Y-70716258D01*
X138921988Y-70821113D01*
X138812676Y-70911940D01*
X138721948Y-70982751D01*
X138656749Y-71027554D01*
X138644619Y-71034316D01*
X138565286Y-71066602D01*
X138513139Y-71069995D01*
X138493421Y-71044218D01*
X138493380Y-71042306D01*
X138510700Y-70986973D01*
X138558011Y-70910005D01*
X138628342Y-70820414D01*
X138714719Y-70727211D01*
X138795328Y-70652071D01*
X139012813Y-70457759D01*
X139210931Y-70268655D01*
X139385853Y-70088915D01*
X139533749Y-69922696D01*
X139650791Y-69774155D01*
X139733150Y-69647447D01*
X139749595Y-69616200D01*
X139790677Y-69539597D01*
X139827856Y-69481794D01*
X139853178Y-69455139D01*
X139853427Y-69455040D01*
X139892164Y-69460410D01*
G37*
G36*
X141237376Y-65886058D02*
G01*
X141360954Y-66031401D01*
X141451386Y-66205037D01*
X141503802Y-66396456D01*
X141513477Y-66482178D01*
X141517459Y-66579566D01*
X141511484Y-66650719D01*
X141491329Y-66717075D01*
X141452765Y-66800071D01*
X141449536Y-66806522D01*
X141403330Y-66889014D01*
X141349344Y-66971254D01*
X141295418Y-67042834D01*
X141249392Y-67093342D01*
X141219193Y-67112370D01*
X141201416Y-67093398D01*
X141173783Y-67047160D01*
X141170839Y-67041539D01*
X141140256Y-66965153D01*
X141142884Y-66903306D01*
X141181336Y-66838256D01*
X141204925Y-66810099D01*
X141267088Y-66724409D01*
X141301488Y-66635447D01*
X141307824Y-66535883D01*
X141285796Y-66418388D01*
X141235101Y-66275633D01*
X141177687Y-66146732D01*
X141131192Y-66044819D01*
X141104122Y-65973976D01*
X141093451Y-65922828D01*
X141096156Y-65880001D01*
X141101254Y-65859277D01*
X141123640Y-65781221D01*
X141237376Y-65886058D01*
G37*
G36*
X139181038Y-69134482D02*
G01*
X139212134Y-69146657D01*
X139213607Y-69150935D01*
X139193049Y-69182931D01*
X139136408Y-69230003D01*
X139051232Y-69287181D01*
X138945069Y-69349499D01*
X138825467Y-69411987D01*
X138793474Y-69427471D01*
X138672702Y-69484400D01*
X138588669Y-69522339D01*
X138535108Y-69543648D01*
X138505753Y-69550687D01*
X138494336Y-69545818D01*
X138493380Y-69540496D01*
X138505684Y-69511272D01*
X138537318Y-69456564D01*
X138565668Y-69412222D01*
X138676461Y-69286551D01*
X138818281Y-69191208D01*
X138899089Y-69157098D01*
X138965127Y-69141297D01*
X139043492Y-69132077D01*
X139120143Y-69129713D01*
X139181038Y-69134482D01*
G37*
G36*
X141524600Y-69211716D02*
G01*
X141602633Y-69233123D01*
X141712043Y-69267728D01*
X141846239Y-69313182D01*
X141998632Y-69367133D01*
X142162634Y-69427232D01*
X142331654Y-69491129D01*
X142499104Y-69556473D01*
X142658394Y-69620915D01*
X142718234Y-69645864D01*
X142943915Y-69743176D01*
X143125876Y-69826807D01*
X143266100Y-69897799D01*
X143366572Y-69957190D01*
X143429273Y-70006019D01*
X143448083Y-70028296D01*
X143472755Y-70083692D01*
X143470054Y-70123683D01*
X143443523Y-70135806D01*
X143418302Y-70126720D01*
X143353555Y-70101474D01*
X143254212Y-70062046D01*
X143125206Y-70010409D01*
X142971469Y-69948539D01*
X142797934Y-69878411D01*
X142609530Y-69802001D01*
X142574665Y-69787832D01*
X142317983Y-69683535D01*
X142102219Y-69595848D01*
X141923864Y-69523171D01*
X141779411Y-69463900D01*
X141665350Y-69416435D01*
X141578174Y-69379172D01*
X141514373Y-69350510D01*
X141470440Y-69328846D01*
X141442864Y-69312579D01*
X141428139Y-69300107D01*
X141422756Y-69289827D01*
X141423205Y-69280138D01*
X141425979Y-69269438D01*
X141427058Y-69263817D01*
X141454530Y-69218000D01*
X141484531Y-69205857D01*
X141524600Y-69211716D01*
G37*
G36*
X141370418Y-68814418D02*
G01*
X141386723Y-68869022D01*
X141398720Y-68941785D01*
X141404079Y-69017777D01*
X141400470Y-69082071D01*
X141398699Y-69091202D01*
X141348652Y-69211197D01*
X141262529Y-69305022D01*
X141147522Y-69367328D01*
X141010820Y-69392767D01*
X140992899Y-69393088D01*
X140923510Y-69391572D01*
X140878999Y-69387686D01*
X140870128Y-69384483D01*
X140888497Y-69367894D01*
X140936537Y-69332897D01*
X141000357Y-69289411D01*
X141138145Y-69172999D01*
X141243630Y-69031682D01*
X141303468Y-68894380D01*
X141325574Y-68833064D01*
X141345810Y-68796963D01*
X141352135Y-68792899D01*
X141370418Y-68814418D01*
G37*
G36*
X139179415Y-67626097D02*
G01*
X139166761Y-67684831D01*
X139151953Y-67734606D01*
X139121914Y-67885256D01*
X139130869Y-68026177D01*
X139177841Y-68148163D01*
X139199203Y-68179694D01*
X139264065Y-68264733D01*
X139208827Y-68263771D01*
X139147005Y-68251539D01*
X139087869Y-68227151D01*
X139016214Y-68163034D01*
X138968709Y-68069715D01*
X138948712Y-67961273D01*
X138959586Y-67851789D01*
X138983392Y-67789391D01*
X139018412Y-67736507D01*
X139066380Y-67680414D01*
X139116478Y-67631734D01*
X139157887Y-67601091D01*
X139178699Y-67597625D01*
X139179415Y-67626097D01*
G37*
G36*
X139739495Y-69464896D02*
G01*
X139718088Y-69512073D01*
X139672824Y-69584955D01*
X139667800Y-69592565D01*
X139590431Y-69693163D01*
X139488244Y-69796529D01*
X139355945Y-69907241D01*
X139188237Y-70029873D01*
X139065272Y-70113158D01*
X138961449Y-70179771D01*
X138845294Y-70250854D01*
X138724786Y-70321920D01*
X138607904Y-70388480D01*
X138502626Y-70446045D01*
X138416932Y-70490126D01*
X138358799Y-70516236D01*
X138339519Y-70521443D01*
X138325510Y-70503236D01*
X138325327Y-70499770D01*
X138342631Y-70474483D01*
X138390062Y-70424520D01*
X138460897Y-70355985D01*
X138548413Y-70274987D01*
X138645889Y-70187631D01*
X138746601Y-70100024D01*
X138843828Y-70018271D01*
X138930846Y-69948479D01*
X138940181Y-69941276D01*
X139027431Y-69877069D01*
X139141143Y-69797347D01*
X139267011Y-69711957D01*
X139390728Y-69630749D01*
X139398654Y-69625658D01*
X139535111Y-69539565D01*
X139634852Y-69480759D01*
X139700448Y-69448923D01*
X139734472Y-69443740D01*
X139739495Y-69464896D01*
G37*
G36*
X139862389Y-64588813D02*
G01*
X139848726Y-64646766D01*
X139824028Y-64732754D01*
X139790622Y-64838107D01*
X139788019Y-64845977D01*
X139719482Y-65059334D01*
X139668137Y-65235968D01*
X139632397Y-65383347D01*
X139610678Y-65508939D01*
X139601394Y-65620214D01*
X139602644Y-65719368D01*
X139619285Y-65857628D01*
X139655411Y-65983867D01*
X139715997Y-66108722D01*
X139806016Y-66242826D01*
X139906110Y-66368135D01*
X139982140Y-66462251D01*
X140051013Y-66554159D01*
X140103608Y-66631334D01*
X140125817Y-66669808D01*
X140168537Y-66808050D01*
X140170932Y-66957470D01*
X140133426Y-67103850D01*
X140111445Y-67150807D01*
X140024124Y-67297709D01*
X139931119Y-67423457D01*
X139840352Y-67517875D01*
X139802835Y-67547100D01*
X139736988Y-67604475D01*
X139683332Y-67671480D01*
X139676881Y-67682549D01*
X139645249Y-67733471D01*
X139620816Y-67759642D01*
X139617671Y-67760574D01*
X139601897Y-67739622D01*
X139580656Y-67686169D01*
X139568429Y-67646538D01*
X139536339Y-67532502D01*
X139301763Y-67517546D01*
X139419911Y-67462807D01*
X139558170Y-67375544D01*
X139657909Y-67260085D01*
X139719027Y-67117037D01*
X139741423Y-66947006D01*
X139724994Y-66750597D01*
X139669641Y-66528416D01*
X139605821Y-66353308D01*
X139489694Y-66068041D01*
X139490975Y-65755942D01*
X139492742Y-65617819D01*
X139498005Y-65513239D01*
X139508675Y-65427761D01*
X139526664Y-65346938D01*
X139553882Y-65256328D01*
X139559280Y-65239780D01*
X139593730Y-65142724D01*
X139637055Y-65032158D01*
X139685353Y-64916726D01*
X139734722Y-64805073D01*
X139781262Y-64705841D01*
X139821071Y-64627675D01*
X139850247Y-64579217D01*
X139862692Y-64567568D01*
X139862389Y-64588813D01*
G37*
G36*
X140873444Y-69478952D02*
G01*
X140934901Y-69518363D01*
X141025793Y-69580174D01*
X141141604Y-69661214D01*
X141277819Y-69758312D01*
X141429922Y-69868299D01*
X141593400Y-69988005D01*
X141647506Y-70027940D01*
X141786716Y-70135274D01*
X141907115Y-70236740D01*
X142003454Y-70327372D01*
X142070483Y-70402203D01*
X142102953Y-70456267D01*
X142103964Y-70459798D01*
X142106647Y-70527679D01*
X142095147Y-70579796D01*
X142055871Y-70629708D01*
X141993135Y-70639139D01*
X141909644Y-70607870D01*
X141890450Y-70596560D01*
X141840438Y-70558065D01*
X141771348Y-70495411D01*
X141695958Y-70420359D01*
X141675332Y-70398588D01*
X141613556Y-70333205D01*
X141526099Y-70241698D01*
X141420854Y-70132270D01*
X141305712Y-70013123D01*
X141188565Y-69892462D01*
X141177175Y-69880764D01*
X141049438Y-69748618D01*
X140953291Y-69646530D01*
X140885961Y-69571021D01*
X140844676Y-69518610D01*
X140826663Y-69485820D01*
X140829150Y-69469172D01*
X140845935Y-69465111D01*
X140873444Y-69478952D01*
G37*
G36*
X141996254Y-68744869D02*
G01*
X142043750Y-68766195D01*
X142125028Y-68809500D01*
X142043750Y-68869907D01*
X141926268Y-68938708D01*
X141795919Y-68975457D01*
X141658795Y-68984959D01*
X141578927Y-68982839D01*
X141536222Y-68974256D01*
X141519932Y-68955880D01*
X141518333Y-68941436D01*
X141538602Y-68889867D01*
X141590983Y-68832339D01*
X141662833Y-68780291D01*
X141731981Y-68748150D01*
X141869539Y-68723311D01*
X141996254Y-68744869D01*
G37*
G36*
X139525407Y-69362314D02*
G01*
X139550194Y-69381664D01*
X139570988Y-69414839D01*
X139571139Y-69426046D01*
X139543561Y-69444557D01*
X139482076Y-69483539D01*
X139393851Y-69538590D01*
X139286051Y-69605311D01*
X139165841Y-69679302D01*
X139040388Y-69756162D01*
X138916858Y-69831491D01*
X138802415Y-69900889D01*
X138704226Y-69959955D01*
X138629752Y-70004118D01*
X138524236Y-70063614D01*
X138398051Y-70131215D01*
X138259526Y-70202832D01*
X138116988Y-70274379D01*
X137978765Y-70341768D01*
X137853186Y-70400912D01*
X137748579Y-70447722D01*
X137673271Y-70478112D01*
X137647113Y-70486406D01*
X137600330Y-70491788D01*
X137582029Y-70482033D01*
X137602509Y-70453913D01*
X137658996Y-70404547D01*
X137746288Y-70337332D01*
X137859184Y-70255669D01*
X137992483Y-70162955D01*
X138140984Y-70062589D01*
X138299485Y-69957970D01*
X138462787Y-69852496D01*
X138625687Y-69749568D01*
X138782985Y-69652582D01*
X138929479Y-69564938D01*
X139059969Y-69490035D01*
X139169253Y-69431271D01*
X139246203Y-69394552D01*
X139357641Y-69357747D01*
X139453938Y-69346865D01*
X139525407Y-69362314D01*
G37*
%TO.C,J1*%
X80518001Y-101010101D02*
G75*
G03*
X80518001Y-101010101I-381000J0D01*
G01*
%TO.C,J3*%
X219582999Y-78313899D02*
G75*
G03*
X219582999Y-78313899I-381000J0D01*
G01*
%TD*%
M02*
