%TF.GenerationSoftware,KiCad,Pcbnew,(6.0.10)*%
%TF.CreationDate,2024-01-08T08:39:51-08:00*%
%TF.ProjectId,windchargecontroller,77696e64-6368-4617-9267-65636f6e7472,rev?*%
%TF.SameCoordinates,Original*%
%TF.FileFunction,Soldermask,Bot*%
%TF.FilePolarity,Negative*%
%FSLAX46Y46*%
G04 Gerber Fmt 4.6, Leading zero omitted, Abs format (unit mm)*
G04 Created by KiCad (PCBNEW (6.0.10)) date 2024-01-08 08:39:51*
%MOMM*%
%LPD*%
G01*
G04 APERTURE LIST*
G04 Aperture macros list*
%AMRoundRect*
0 Rectangle with rounded corners*
0 $1 Rounding radius*
0 $2 $3 $4 $5 $6 $7 $8 $9 X,Y pos of 4 corners*
0 Add a 4 corners polygon primitive as box body*
4,1,4,$2,$3,$4,$5,$6,$7,$8,$9,$2,$3,0*
0 Add four circle primitives for the rounded corners*
1,1,$1+$1,$2,$3*
1,1,$1+$1,$4,$5*
1,1,$1+$1,$6,$7*
1,1,$1+$1,$8,$9*
0 Add four rect primitives between the rounded corners*
20,1,$1+$1,$2,$3,$4,$5,0*
20,1,$1+$1,$4,$5,$6,$7,0*
20,1,$1+$1,$6,$7,$8,$9,0*
20,1,$1+$1,$8,$9,$2,$3,0*%
%AMRotRect*
0 Rectangle, with rotation*
0 The origin of the aperture is its center*
0 $1 length*
0 $2 width*
0 $3 Rotation angle, in degrees counterclockwise*
0 Add horizontal line*
21,1,$1,$2,0,0,$3*%
G04 Aperture macros list end*
%ADD10R,1.422400X1.422400*%
%ADD11C,1.422400*%
%ADD12R,1.050000X1.500000*%
%ADD13O,1.050000X1.500000*%
%ADD14C,1.803400*%
%ADD15R,1.500000X1.050000*%
%ADD16O,1.500000X1.050000*%
%ADD17RotRect,1.397000X1.397000X45.000000*%
%ADD18C,1.397000*%
%ADD19RotRect,1.422400X1.422400X45.000000*%
%ADD20R,1.397000X1.397000*%
%ADD21RoundRect,0.102000X0.765000X0.765000X-0.765000X0.765000X-0.765000X-0.765000X0.765000X-0.765000X0*%
%ADD22C,1.734000*%
%ADD23R,1.803400X1.803400*%
G04 APERTURE END LIST*
D10*
%TO.C,C14*%
X153670000Y-48082200D03*
D11*
X153670000Y-43002200D03*
%TD*%
D12*
%TO.C,Q13*%
X221132400Y-67153200D03*
D13*
X219862400Y-67153200D03*
X218592400Y-67153200D03*
%TD*%
D10*
%TO.C,C1*%
X116713000Y-51562000D03*
D11*
X121793000Y-51562000D03*
%TD*%
D14*
%TO.C,J4*%
X219201999Y-50206899D03*
X219201999Y-55206899D03*
X219201999Y-60206899D03*
%TD*%
D15*
%TO.C,Q7*%
X182727600Y-79044800D03*
D16*
X182727600Y-80314800D03*
X182727600Y-81584800D03*
%TD*%
D15*
%TO.C,Q10*%
X205901200Y-75298613D03*
D16*
X205901200Y-76568613D03*
X205901200Y-77838613D03*
%TD*%
D14*
%TO.C,J2*%
X119719101Y-39115999D03*
X114719101Y-39115999D03*
X109719101Y-39115999D03*
%TD*%
D12*
%TO.C,Q12*%
X221132400Y-73355200D03*
D13*
X219862400Y-73355200D03*
X218592400Y-73355200D03*
%TD*%
D15*
%TO.C,Q8*%
X174599600Y-79044800D03*
D16*
X174599600Y-80314800D03*
X174599600Y-81584800D03*
%TD*%
D15*
%TO.C,Q11*%
X199445200Y-75284000D03*
D16*
X199445200Y-76554000D03*
X199445200Y-77824000D03*
%TD*%
D14*
%TO.C,J6*%
X205317101Y-39623999D03*
X200317101Y-39623999D03*
X195317101Y-39623999D03*
%TD*%
D17*
%TO.C,Jumper2*%
X115229098Y-86370703D03*
D18*
X122413303Y-79186498D03*
%TD*%
D14*
%TO.C,J1*%
X80137001Y-96605101D03*
X80137001Y-91605101D03*
X80137001Y-86605101D03*
%TD*%
D10*
%TO.C,C13*%
X173278800Y-61036200D03*
D11*
X173278800Y-66116200D03*
%TD*%
D19*
%TO.C,C15*%
X171094400Y-46583600D03*
D11*
X174686502Y-42991498D03*
%TD*%
D14*
%TO.C,J3*%
X219201999Y-82718899D03*
X219201999Y-87718899D03*
X219201999Y-92718899D03*
%TD*%
D20*
%TO.C,Jumper1*%
X187401200Y-83820000D03*
D18*
X187401200Y-73660000D03*
%TD*%
D21*
%TO.C,J5*%
X114046000Y-93472000D03*
D22*
X114046000Y-96012000D03*
X116586000Y-93472000D03*
X116586000Y-96012000D03*
X119126000Y-93472000D03*
X119126000Y-96012000D03*
X121666000Y-93472000D03*
X121666000Y-96012000D03*
X124206000Y-93472000D03*
X124206000Y-96012000D03*
X126746000Y-93472000D03*
X126746000Y-96012000D03*
X129286000Y-93472000D03*
X129286000Y-96012000D03*
X131826000Y-93472000D03*
X131826000Y-96012000D03*
X134366000Y-93472000D03*
X134366000Y-96012000D03*
X136906000Y-93472000D03*
X136906000Y-96012000D03*
X139446000Y-93472000D03*
X139446000Y-96012000D03*
X141986000Y-93472000D03*
X141986000Y-96012000D03*
X144526000Y-93472000D03*
X144526000Y-96012000D03*
X147066000Y-93472000D03*
X147066000Y-96012000D03*
X149606000Y-93472000D03*
X149606000Y-96012000D03*
X152146000Y-93472000D03*
X152146000Y-96012000D03*
X154686000Y-93472000D03*
X154686000Y-96012000D03*
X157226000Y-93472000D03*
X157226000Y-96012000D03*
X159766000Y-93472000D03*
X159766000Y-96012000D03*
X162306000Y-93472000D03*
X162306000Y-96012000D03*
%TD*%
D23*
%TO.C,FL1*%
X152104400Y-84496401D03*
D14*
X159604400Y-84496401D03*
X159604400Y-73796400D03*
X152104400Y-73796400D03*
%TD*%
M02*
