%TF.GenerationSoftware,KiCad,Pcbnew,(6.0.10)*%
%TF.CreationDate,2024-01-08T08:39:50-08:00*%
%TF.ProjectId,windchargecontroller,77696e64-6368-4617-9267-65636f6e7472,rev?*%
%TF.SameCoordinates,Original*%
%TF.FileFunction,Legend,Top*%
%TF.FilePolarity,Positive*%
%FSLAX46Y46*%
G04 Gerber Fmt 4.6, Leading zero omitted, Abs format (unit mm)*
G04 Created by KiCad (PCBNEW (6.0.10)) date 2024-01-08 08:39:50*
%MOMM*%
%LPD*%
G01*
G04 APERTURE LIST*
%ADD10C,0.150000*%
%ADD11C,0.120000*%
%ADD12C,0.250000*%
%ADD13C,0.098425*%
%ADD14C,0.140000*%
%ADD15C,0.152400*%
%ADD16C,0.127000*%
%ADD17C,0.508000*%
%ADD18C,0.200000*%
G04 APERTURE END LIST*
D10*
X110781961Y-44748495D02*
X110781961Y-45548495D01*
X110591485Y-45548495D01*
X110477200Y-45510400D01*
X110401009Y-45434209D01*
X110362914Y-45358019D01*
X110324819Y-45205638D01*
X110324819Y-45091352D01*
X110362914Y-44938971D01*
X110401009Y-44862780D01*
X110477200Y-44786590D01*
X110591485Y-44748495D01*
X110781961Y-44748495D01*
X109524819Y-44824685D02*
X109562914Y-44786590D01*
X109677200Y-44748495D01*
X109753390Y-44748495D01*
X109867676Y-44786590D01*
X109943866Y-44862780D01*
X109981961Y-44938971D01*
X110020057Y-45091352D01*
X110020057Y-45205638D01*
X109981961Y-45358019D01*
X109943866Y-45434209D01*
X109867676Y-45510400D01*
X109753390Y-45548495D01*
X109677200Y-45548495D01*
X109562914Y-45510400D01*
X109524819Y-45472304D01*
X109181961Y-45053257D02*
X108572438Y-45053257D01*
X108877200Y-44748495D02*
X108877200Y-45358019D01*
X85420495Y-97593104D02*
X85420495Y-96793104D01*
X85725257Y-96793104D01*
X85801447Y-96831200D01*
X85839542Y-96869295D01*
X85877638Y-96945485D01*
X85877638Y-97059771D01*
X85839542Y-97135961D01*
X85801447Y-97174057D01*
X85725257Y-97212152D01*
X85420495Y-97212152D01*
X86220495Y-97593104D02*
X86220495Y-96793104D01*
X86220495Y-97174057D02*
X86677638Y-97174057D01*
X86677638Y-97593104D02*
X86677638Y-96793104D01*
X87020495Y-97364533D02*
X87401447Y-97364533D01*
X86944304Y-97593104D02*
X87210971Y-96793104D01*
X87477638Y-97593104D01*
X87706209Y-97555009D02*
X87820495Y-97593104D01*
X88010971Y-97593104D01*
X88087161Y-97555009D01*
X88125257Y-97516914D01*
X88163352Y-97440723D01*
X88163352Y-97364533D01*
X88125257Y-97288342D01*
X88087161Y-97250247D01*
X88010971Y-97212152D01*
X87858590Y-97174057D01*
X87782400Y-97135961D01*
X87744304Y-97097866D01*
X87706209Y-97021676D01*
X87706209Y-96945485D01*
X87744304Y-96869295D01*
X87782400Y-96831200D01*
X87858590Y-96793104D01*
X88049066Y-96793104D01*
X88163352Y-96831200D01*
X88506209Y-97174057D02*
X88772876Y-97174057D01*
X88887161Y-97593104D02*
X88506209Y-97593104D01*
X88506209Y-96793104D01*
X88887161Y-96793104D01*
X89801447Y-97364533D02*
X90182400Y-97364533D01*
X89725257Y-97593104D02*
X89991923Y-96793104D01*
X90258590Y-97593104D01*
X161956800Y-91287523D02*
X161918704Y-91363714D01*
X161918704Y-91478000D01*
X161956800Y-91592285D01*
X162032990Y-91668476D01*
X162109180Y-91706571D01*
X162261561Y-91744666D01*
X162375847Y-91744666D01*
X162528228Y-91706571D01*
X162604419Y-91668476D01*
X162680609Y-91592285D01*
X162718704Y-91478000D01*
X162718704Y-91401809D01*
X162680609Y-91287523D01*
X162642514Y-91249428D01*
X162375847Y-91249428D01*
X162375847Y-91401809D01*
X162718704Y-90906571D02*
X161918704Y-90906571D01*
X162718704Y-90449428D01*
X161918704Y-90449428D01*
X162718704Y-90068476D02*
X161918704Y-90068476D01*
X161918704Y-89878000D01*
X161956800Y-89763714D01*
X162032990Y-89687523D01*
X162109180Y-89649428D01*
X162261561Y-89611333D01*
X162375847Y-89611333D01*
X162528228Y-89649428D01*
X162604419Y-89687523D01*
X162680609Y-89763714D01*
X162718704Y-89878000D01*
X162718704Y-90068476D01*
X155149504Y-91801809D02*
X154349504Y-91801809D01*
X154349504Y-91497047D01*
X154387600Y-91420857D01*
X154425695Y-91382761D01*
X154501885Y-91344666D01*
X154616171Y-91344666D01*
X154692361Y-91382761D01*
X154730457Y-91420857D01*
X154768552Y-91497047D01*
X154768552Y-91801809D01*
X154349504Y-91078000D02*
X155149504Y-90887523D01*
X154578076Y-90735142D01*
X155149504Y-90582761D01*
X154349504Y-90392285D01*
X155149504Y-90087523D02*
X154349504Y-90087523D01*
X154920933Y-89820857D01*
X154349504Y-89554190D01*
X155149504Y-89554190D01*
D11*
X121962828Y-101574371D02*
X121362828Y-101574371D01*
X121362828Y-101345800D01*
X121391400Y-101288657D01*
X121419971Y-101260085D01*
X121477114Y-101231514D01*
X121562828Y-101231514D01*
X121619971Y-101260085D01*
X121648542Y-101288657D01*
X121677114Y-101345800D01*
X121677114Y-101574371D01*
X121962828Y-100974371D02*
X121362828Y-100974371D01*
X121962828Y-100717228D02*
X121648542Y-100717228D01*
X121591400Y-100745800D01*
X121562828Y-100802942D01*
X121562828Y-100888657D01*
X121591400Y-100945800D01*
X121619971Y-100974371D01*
X121962828Y-100174371D02*
X121648542Y-100174371D01*
X121591400Y-100202942D01*
X121562828Y-100260085D01*
X121562828Y-100374371D01*
X121591400Y-100431514D01*
X121934257Y-100174371D02*
X121962828Y-100231514D01*
X121962828Y-100374371D01*
X121934257Y-100431514D01*
X121877114Y-100460085D01*
X121819971Y-100460085D01*
X121762828Y-100431514D01*
X121734257Y-100374371D01*
X121734257Y-100231514D01*
X121705685Y-100174371D01*
X121934257Y-99917228D02*
X121962828Y-99860085D01*
X121962828Y-99745800D01*
X121934257Y-99688657D01*
X121877114Y-99660085D01*
X121848542Y-99660085D01*
X121791400Y-99688657D01*
X121762828Y-99745800D01*
X121762828Y-99831514D01*
X121734257Y-99888657D01*
X121677114Y-99917228D01*
X121648542Y-99917228D01*
X121591400Y-99888657D01*
X121562828Y-99831514D01*
X121562828Y-99745800D01*
X121591400Y-99688657D01*
X121934257Y-99174371D02*
X121962828Y-99231514D01*
X121962828Y-99345800D01*
X121934257Y-99402942D01*
X121877114Y-99431514D01*
X121648542Y-99431514D01*
X121591400Y-99402942D01*
X121562828Y-99345800D01*
X121562828Y-99231514D01*
X121591400Y-99174371D01*
X121648542Y-99145800D01*
X121705685Y-99145800D01*
X121762828Y-99431514D01*
X121791400Y-98917228D02*
X121791400Y-98631514D01*
X121962828Y-98974371D02*
X121362828Y-98774371D01*
X121962828Y-98574371D01*
X121734257Y-98374371D02*
X121734257Y-97917228D01*
D10*
X200558323Y-45662800D02*
X200634514Y-45700895D01*
X200748800Y-45700895D01*
X200863085Y-45662800D01*
X200939276Y-45586609D01*
X200977371Y-45510419D01*
X201015466Y-45358038D01*
X201015466Y-45243752D01*
X200977371Y-45091371D01*
X200939276Y-45015180D01*
X200863085Y-44938990D01*
X200748800Y-44900895D01*
X200672609Y-44900895D01*
X200558323Y-44938990D01*
X200520228Y-44977085D01*
X200520228Y-45243752D01*
X200672609Y-45243752D01*
X200177371Y-44900895D02*
X200177371Y-45700895D01*
X199720228Y-44900895D01*
X199720228Y-45700895D01*
X199339276Y-44900895D02*
X199339276Y-45700895D01*
X199148800Y-45700895D01*
X199034514Y-45662800D01*
X198958323Y-45586609D01*
X198920228Y-45510419D01*
X198882133Y-45358038D01*
X198882133Y-45243752D01*
X198920228Y-45091371D01*
X198958323Y-45015180D01*
X199034514Y-44938990D01*
X199148800Y-44900895D01*
X199339276Y-44900895D01*
X160039009Y-101542609D02*
X160077104Y-101428323D01*
X160077104Y-101237847D01*
X160039009Y-101161657D01*
X160000914Y-101123561D01*
X159924723Y-101085466D01*
X159848533Y-101085466D01*
X159772342Y-101123561D01*
X159734247Y-101161657D01*
X159696152Y-101237847D01*
X159658057Y-101390228D01*
X159619961Y-101466419D01*
X159581866Y-101504514D01*
X159505676Y-101542609D01*
X159429485Y-101542609D01*
X159353295Y-101504514D01*
X159315200Y-101466419D01*
X159277104Y-101390228D01*
X159277104Y-101199752D01*
X159315200Y-101085466D01*
X160077104Y-100742609D02*
X159277104Y-100742609D01*
X160077104Y-100399752D02*
X159658057Y-100399752D01*
X159581866Y-100437847D01*
X159543771Y-100514038D01*
X159543771Y-100628323D01*
X159581866Y-100704514D01*
X159619961Y-100742609D01*
X159543771Y-99675942D02*
X160077104Y-99675942D01*
X159543771Y-100018800D02*
X159962819Y-100018800D01*
X160039009Y-99980704D01*
X160077104Y-99904514D01*
X160077104Y-99790228D01*
X160039009Y-99714038D01*
X160000914Y-99675942D01*
X159543771Y-99294990D02*
X160077104Y-99294990D01*
X159619961Y-99294990D02*
X159581866Y-99256895D01*
X159543771Y-99180704D01*
X159543771Y-99066419D01*
X159581866Y-98990228D01*
X159658057Y-98952133D01*
X160077104Y-98952133D01*
X159543771Y-98685466D02*
X159543771Y-98380704D01*
X159277104Y-98571180D02*
X159962819Y-98571180D01*
X160039009Y-98533085D01*
X160077104Y-98456895D01*
X160077104Y-98380704D01*
X159277104Y-97733085D02*
X159277104Y-98114038D01*
X159658057Y-98152133D01*
X159619961Y-98114038D01*
X159581866Y-98037847D01*
X159581866Y-97847371D01*
X159619961Y-97771180D01*
X159658057Y-97733085D01*
X159734247Y-97694990D01*
X159924723Y-97694990D01*
X160000914Y-97733085D01*
X160039009Y-97771180D01*
X160077104Y-97847371D01*
X160077104Y-98037847D01*
X160039009Y-98114038D01*
X160000914Y-98152133D01*
X142856190Y-90595409D02*
X142970476Y-90633504D01*
X143160952Y-90633504D01*
X143237142Y-90595409D01*
X143275238Y-90557314D01*
X143313333Y-90481123D01*
X143313333Y-90404933D01*
X143275238Y-90328742D01*
X143237142Y-90290647D01*
X143160952Y-90252552D01*
X143008571Y-90214457D01*
X142932380Y-90176361D01*
X142894285Y-90138266D01*
X142856190Y-90062076D01*
X142856190Y-89985885D01*
X142894285Y-89909695D01*
X142932380Y-89871600D01*
X143008571Y-89833504D01*
X143199047Y-89833504D01*
X143313333Y-89871600D01*
X143656190Y-90633504D02*
X143656190Y-89833504D01*
X143999047Y-90633504D02*
X143999047Y-90214457D01*
X143960952Y-90138266D01*
X143884761Y-90100171D01*
X143770476Y-90100171D01*
X143694285Y-90138266D01*
X143656190Y-90176361D01*
X144722857Y-90100171D02*
X144722857Y-90633504D01*
X144380000Y-90100171D02*
X144380000Y-90519219D01*
X144418095Y-90595409D01*
X144494285Y-90633504D01*
X144608571Y-90633504D01*
X144684761Y-90595409D01*
X144722857Y-90557314D01*
X145103809Y-90100171D02*
X145103809Y-90633504D01*
X145103809Y-90176361D02*
X145141904Y-90138266D01*
X145218095Y-90100171D01*
X145332380Y-90100171D01*
X145408571Y-90138266D01*
X145446666Y-90214457D01*
X145446666Y-90633504D01*
X145713333Y-90100171D02*
X146018095Y-90100171D01*
X145827619Y-89833504D02*
X145827619Y-90519219D01*
X145865714Y-90595409D01*
X145941904Y-90633504D01*
X146018095Y-90633504D01*
X146703809Y-90633504D02*
X146246666Y-90633504D01*
X146475238Y-90633504D02*
X146475238Y-89833504D01*
X146399047Y-89947790D01*
X146322857Y-90023980D01*
X146246666Y-90062076D01*
X115061923Y-45408800D02*
X115138114Y-45446895D01*
X115252400Y-45446895D01*
X115366685Y-45408800D01*
X115442876Y-45332609D01*
X115480971Y-45256419D01*
X115519066Y-45104038D01*
X115519066Y-44989752D01*
X115480971Y-44837371D01*
X115442876Y-44761180D01*
X115366685Y-44684990D01*
X115252400Y-44646895D01*
X115176209Y-44646895D01*
X115061923Y-44684990D01*
X115023828Y-44723085D01*
X115023828Y-44989752D01*
X115176209Y-44989752D01*
X114680971Y-44646895D02*
X114680971Y-45446895D01*
X114223828Y-44646895D01*
X114223828Y-45446895D01*
X113842876Y-44646895D02*
X113842876Y-45446895D01*
X113652400Y-45446895D01*
X113538114Y-45408800D01*
X113461923Y-45332609D01*
X113423828Y-45256419D01*
X113385733Y-45104038D01*
X113385733Y-44989752D01*
X113423828Y-44837371D01*
X113461923Y-44761180D01*
X113538114Y-44684990D01*
X113652400Y-44646895D01*
X113842876Y-44646895D01*
X147326304Y-101352133D02*
X146526304Y-101352133D01*
X146526304Y-101047371D01*
X146564400Y-100971180D01*
X146602495Y-100933085D01*
X146678685Y-100894990D01*
X146792971Y-100894990D01*
X146869161Y-100933085D01*
X146907257Y-100971180D01*
X146945352Y-101047371D01*
X146945352Y-101352133D01*
X147402495Y-100742609D02*
X147402495Y-100133085D01*
X147288209Y-99980704D02*
X147326304Y-99866419D01*
X147326304Y-99675942D01*
X147288209Y-99599752D01*
X147250114Y-99561657D01*
X147173923Y-99523561D01*
X147097733Y-99523561D01*
X147021542Y-99561657D01*
X146983447Y-99599752D01*
X146945352Y-99675942D01*
X146907257Y-99828323D01*
X146869161Y-99904514D01*
X146831066Y-99942609D01*
X146754876Y-99980704D01*
X146678685Y-99980704D01*
X146602495Y-99942609D01*
X146564400Y-99904514D01*
X146526304Y-99828323D01*
X146526304Y-99637847D01*
X146564400Y-99523561D01*
X146526304Y-99256895D02*
X147326304Y-99066419D01*
X146754876Y-98914038D01*
X147326304Y-98761657D01*
X146526304Y-98571180D01*
X146602495Y-98304514D02*
X146564400Y-98266419D01*
X146526304Y-98190228D01*
X146526304Y-97999752D01*
X146564400Y-97923561D01*
X146602495Y-97885466D01*
X146678685Y-97847371D01*
X146754876Y-97847371D01*
X146869161Y-97885466D01*
X147326304Y-98342609D01*
X147326304Y-97847371D01*
X193287409Y-44735790D02*
X193173123Y-44697695D01*
X192982647Y-44697695D01*
X192906457Y-44735790D01*
X192868361Y-44773885D01*
X192830266Y-44850076D01*
X192830266Y-44926266D01*
X192868361Y-45002457D01*
X192906457Y-45040552D01*
X192982647Y-45078647D01*
X193135028Y-45116742D01*
X193211219Y-45154838D01*
X193249314Y-45192933D01*
X193287409Y-45269123D01*
X193287409Y-45345314D01*
X193249314Y-45421504D01*
X193211219Y-45459600D01*
X193135028Y-45497695D01*
X192944552Y-45497695D01*
X192830266Y-45459600D01*
X192487409Y-44697695D02*
X192487409Y-45497695D01*
X192144552Y-44697695D02*
X192144552Y-45116742D01*
X192182647Y-45192933D01*
X192258838Y-45231028D01*
X192373123Y-45231028D01*
X192449314Y-45192933D01*
X192487409Y-45154838D01*
X191420742Y-45231028D02*
X191420742Y-44697695D01*
X191763600Y-45231028D02*
X191763600Y-44811980D01*
X191725504Y-44735790D01*
X191649314Y-44697695D01*
X191535028Y-44697695D01*
X191458838Y-44735790D01*
X191420742Y-44773885D01*
X191039790Y-45231028D02*
X191039790Y-44697695D01*
X191039790Y-45154838D02*
X191001695Y-45192933D01*
X190925504Y-45231028D01*
X190811219Y-45231028D01*
X190735028Y-45192933D01*
X190696933Y-45116742D01*
X190696933Y-44697695D01*
X190430266Y-45231028D02*
X190125504Y-45231028D01*
X190315980Y-45497695D02*
X190315980Y-44811980D01*
X190277885Y-44735790D01*
X190201695Y-44697695D01*
X190125504Y-44697695D01*
X189515980Y-45231028D02*
X189515980Y-44697695D01*
X189706457Y-45535790D02*
X189896933Y-44964361D01*
X189401695Y-44964361D01*
X145192990Y-89223809D02*
X145307276Y-89261904D01*
X145497752Y-89261904D01*
X145573942Y-89223809D01*
X145612038Y-89185714D01*
X145650133Y-89109523D01*
X145650133Y-89033333D01*
X145612038Y-88957142D01*
X145573942Y-88919047D01*
X145497752Y-88880952D01*
X145345371Y-88842857D01*
X145269180Y-88804761D01*
X145231085Y-88766666D01*
X145192990Y-88690476D01*
X145192990Y-88614285D01*
X145231085Y-88538095D01*
X145269180Y-88500000D01*
X145345371Y-88461904D01*
X145535847Y-88461904D01*
X145650133Y-88500000D01*
X145992990Y-89261904D02*
X145992990Y-88461904D01*
X146335847Y-89261904D02*
X146335847Y-88842857D01*
X146297752Y-88766666D01*
X146221561Y-88728571D01*
X146107276Y-88728571D01*
X146031085Y-88766666D01*
X145992990Y-88804761D01*
X147059657Y-88728571D02*
X147059657Y-89261904D01*
X146716800Y-88728571D02*
X146716800Y-89147619D01*
X146754895Y-89223809D01*
X146831085Y-89261904D01*
X146945371Y-89261904D01*
X147021561Y-89223809D01*
X147059657Y-89185714D01*
X147440609Y-88728571D02*
X147440609Y-89261904D01*
X147440609Y-88804761D02*
X147478704Y-88766666D01*
X147554895Y-88728571D01*
X147669180Y-88728571D01*
X147745371Y-88766666D01*
X147783466Y-88842857D01*
X147783466Y-89261904D01*
X148050133Y-88728571D02*
X148354895Y-88728571D01*
X148164419Y-88461904D02*
X148164419Y-89147619D01*
X148202514Y-89223809D01*
X148278704Y-89261904D01*
X148354895Y-89261904D01*
X148583466Y-88538095D02*
X148621561Y-88500000D01*
X148697752Y-88461904D01*
X148888228Y-88461904D01*
X148964419Y-88500000D01*
X149002514Y-88538095D01*
X149040609Y-88614285D01*
X149040609Y-88690476D01*
X149002514Y-88804761D01*
X148545371Y-89261904D01*
X149040609Y-89261904D01*
X139757104Y-91046019D02*
X138957104Y-91046019D01*
X139261866Y-91046019D02*
X139223771Y-90969828D01*
X139223771Y-90817447D01*
X139261866Y-90741257D01*
X139299961Y-90703161D01*
X139376152Y-90665066D01*
X139604723Y-90665066D01*
X139680914Y-90703161D01*
X139719009Y-90741257D01*
X139757104Y-90817447D01*
X139757104Y-90969828D01*
X139719009Y-91046019D01*
X139757104Y-90322209D02*
X139223771Y-90322209D01*
X139376152Y-90322209D02*
X139299961Y-90284114D01*
X139261866Y-90246019D01*
X139223771Y-90169828D01*
X139223771Y-90093638D01*
X139757104Y-89484114D02*
X139338057Y-89484114D01*
X139261866Y-89522209D01*
X139223771Y-89598400D01*
X139223771Y-89750780D01*
X139261866Y-89826971D01*
X139719009Y-89484114D02*
X139757104Y-89560304D01*
X139757104Y-89750780D01*
X139719009Y-89826971D01*
X139642819Y-89865066D01*
X139566628Y-89865066D01*
X139490438Y-89826971D01*
X139452342Y-89750780D01*
X139452342Y-89560304D01*
X139414247Y-89484114D01*
X139757104Y-89103161D02*
X138957104Y-89103161D01*
X139452342Y-89026971D02*
X139757104Y-88798400D01*
X139223771Y-88798400D02*
X139528533Y-89103161D01*
X139719009Y-88150780D02*
X139757104Y-88226971D01*
X139757104Y-88379352D01*
X139719009Y-88455542D01*
X139642819Y-88493638D01*
X139338057Y-88493638D01*
X139261866Y-88455542D01*
X139223771Y-88379352D01*
X139223771Y-88226971D01*
X139261866Y-88150780D01*
X139338057Y-88112685D01*
X139414247Y-88112685D01*
X139490438Y-88493638D01*
X139833295Y-87236495D02*
X139795200Y-87312685D01*
X139719009Y-87388876D01*
X139604723Y-87503161D01*
X139566628Y-87579352D01*
X139566628Y-87655542D01*
X139757104Y-87617447D02*
X139719009Y-87693638D01*
X139642819Y-87769828D01*
X139490438Y-87807923D01*
X139223771Y-87807923D01*
X139071390Y-87769828D01*
X138995200Y-87693638D01*
X138957104Y-87617447D01*
X138957104Y-87465066D01*
X138995200Y-87388876D01*
X139071390Y-87312685D01*
X139223771Y-87274590D01*
X139490438Y-87274590D01*
X139642819Y-87312685D01*
X139719009Y-87388876D01*
X139757104Y-87465066D01*
X139757104Y-87617447D01*
X138957104Y-86550780D02*
X138957104Y-86931733D01*
X139338057Y-86969828D01*
X139299961Y-86931733D01*
X139261866Y-86855542D01*
X139261866Y-86665066D01*
X139299961Y-86588876D01*
X139338057Y-86550780D01*
X139414247Y-86512685D01*
X139604723Y-86512685D01*
X139680914Y-86550780D01*
X139719009Y-86588876D01*
X139757104Y-86665066D01*
X139757104Y-86855542D01*
X139719009Y-86931733D01*
X139680914Y-86969828D01*
X152114304Y-91731885D02*
X152914304Y-91465219D01*
X152114304Y-91198552D01*
X152914304Y-90589028D02*
X152114304Y-90589028D01*
X152876209Y-90589028D02*
X152914304Y-90665219D01*
X152914304Y-90817600D01*
X152876209Y-90893790D01*
X152838114Y-90931885D01*
X152761923Y-90969980D01*
X152533352Y-90969980D01*
X152457161Y-90931885D01*
X152419066Y-90893790D01*
X152380971Y-90817600D01*
X152380971Y-90665219D01*
X152419066Y-90589028D01*
X152914304Y-90208076D02*
X152380971Y-90208076D01*
X152533352Y-90208076D02*
X152457161Y-90169980D01*
X152419066Y-90131885D01*
X152380971Y-90055695D01*
X152380971Y-89979504D01*
X152914304Y-89712838D02*
X152380971Y-89712838D01*
X152114304Y-89712838D02*
X152152400Y-89750933D01*
X152190495Y-89712838D01*
X152152400Y-89674742D01*
X152114304Y-89712838D01*
X152190495Y-89712838D01*
X152380971Y-89408076D02*
X152914304Y-89217600D01*
X152380971Y-89027123D01*
X152876209Y-88417600D02*
X152914304Y-88493790D01*
X152914304Y-88646171D01*
X152876209Y-88722361D01*
X152800019Y-88760457D01*
X152495257Y-88760457D01*
X152419066Y-88722361D01*
X152380971Y-88646171D01*
X152380971Y-88493790D01*
X152419066Y-88417600D01*
X152495257Y-88379504D01*
X152571447Y-88379504D01*
X152647638Y-88760457D01*
X213163104Y-62185333D02*
X212363104Y-62185333D01*
X212363104Y-61880571D01*
X212401200Y-61804380D01*
X212439295Y-61766285D01*
X212515485Y-61728190D01*
X212629771Y-61728190D01*
X212705961Y-61766285D01*
X212744057Y-61804380D01*
X212782152Y-61880571D01*
X212782152Y-62185333D01*
X212439295Y-61423428D02*
X212401200Y-61385333D01*
X212363104Y-61309142D01*
X212363104Y-61118666D01*
X212401200Y-61042476D01*
X212439295Y-61004380D01*
X212515485Y-60966285D01*
X212591676Y-60966285D01*
X212705961Y-61004380D01*
X213163104Y-61461523D01*
X213163104Y-60966285D01*
X212363104Y-60471047D02*
X212363104Y-60318666D01*
X212401200Y-60242476D01*
X212477390Y-60166285D01*
X212629771Y-60128190D01*
X212896438Y-60128190D01*
X213048819Y-60166285D01*
X213125009Y-60242476D01*
X213163104Y-60318666D01*
X213163104Y-60471047D01*
X213125009Y-60547238D01*
X213048819Y-60623428D01*
X212896438Y-60661523D01*
X212629771Y-60661523D01*
X212477390Y-60623428D01*
X212401200Y-60547238D01*
X212363104Y-60471047D01*
X212363104Y-59785333D02*
X213010723Y-59785333D01*
X213086914Y-59747238D01*
X213125009Y-59709142D01*
X213163104Y-59632952D01*
X213163104Y-59480571D01*
X213125009Y-59404380D01*
X213086914Y-59366285D01*
X213010723Y-59328190D01*
X212363104Y-59328190D01*
X212363104Y-59061523D02*
X212363104Y-58604380D01*
X213163104Y-58832952D02*
X212363104Y-58832952D01*
X211639200Y-83159523D02*
X211601104Y-83235714D01*
X211601104Y-83350000D01*
X211639200Y-83464285D01*
X211715390Y-83540476D01*
X211791580Y-83578571D01*
X211943961Y-83616666D01*
X212058247Y-83616666D01*
X212210628Y-83578571D01*
X212286819Y-83540476D01*
X212363009Y-83464285D01*
X212401104Y-83350000D01*
X212401104Y-83273809D01*
X212363009Y-83159523D01*
X212324914Y-83121428D01*
X212058247Y-83121428D01*
X212058247Y-83273809D01*
X212401104Y-82778571D02*
X211601104Y-82778571D01*
X212401104Y-82321428D01*
X211601104Y-82321428D01*
X212401104Y-81940476D02*
X211601104Y-81940476D01*
X211601104Y-81750000D01*
X211639200Y-81635714D01*
X211715390Y-81559523D01*
X211791580Y-81521428D01*
X211943961Y-81483333D01*
X212058247Y-81483333D01*
X212210628Y-81521428D01*
X212286819Y-81559523D01*
X212363009Y-81635714D01*
X212401104Y-81750000D01*
X212401104Y-81940476D01*
X212248800Y-50545923D02*
X212210704Y-50622114D01*
X212210704Y-50736400D01*
X212248800Y-50850685D01*
X212324990Y-50926876D01*
X212401180Y-50964971D01*
X212553561Y-51003066D01*
X212667847Y-51003066D01*
X212820228Y-50964971D01*
X212896419Y-50926876D01*
X212972609Y-50850685D01*
X213010704Y-50736400D01*
X213010704Y-50660209D01*
X212972609Y-50545923D01*
X212934514Y-50507828D01*
X212667847Y-50507828D01*
X212667847Y-50660209D01*
X213010704Y-50164971D02*
X212210704Y-50164971D01*
X213010704Y-49707828D01*
X212210704Y-49707828D01*
X213010704Y-49326876D02*
X212210704Y-49326876D01*
X212210704Y-49136400D01*
X212248800Y-49022114D01*
X212324990Y-48945923D01*
X212401180Y-48907828D01*
X212553561Y-48869733D01*
X212667847Y-48869733D01*
X212820228Y-48907828D01*
X212896419Y-48945923D01*
X212972609Y-49022114D01*
X213010704Y-49136400D01*
X213010704Y-49326876D01*
D11*
X116755828Y-101541028D02*
X116155828Y-101541028D01*
X116155828Y-101312457D01*
X116184400Y-101255314D01*
X116212971Y-101226742D01*
X116270114Y-101198171D01*
X116355828Y-101198171D01*
X116412971Y-101226742D01*
X116441542Y-101255314D01*
X116470114Y-101312457D01*
X116470114Y-101541028D01*
X116755828Y-100941028D02*
X116155828Y-100941028D01*
X116755828Y-100683885D02*
X116441542Y-100683885D01*
X116384400Y-100712457D01*
X116355828Y-100769600D01*
X116355828Y-100855314D01*
X116384400Y-100912457D01*
X116412971Y-100941028D01*
X116755828Y-100141028D02*
X116441542Y-100141028D01*
X116384400Y-100169600D01*
X116355828Y-100226742D01*
X116355828Y-100341028D01*
X116384400Y-100398171D01*
X116727257Y-100141028D02*
X116755828Y-100198171D01*
X116755828Y-100341028D01*
X116727257Y-100398171D01*
X116670114Y-100426742D01*
X116612971Y-100426742D01*
X116555828Y-100398171D01*
X116527257Y-100341028D01*
X116527257Y-100198171D01*
X116498685Y-100141028D01*
X116727257Y-99883885D02*
X116755828Y-99826742D01*
X116755828Y-99712457D01*
X116727257Y-99655314D01*
X116670114Y-99626742D01*
X116641542Y-99626742D01*
X116584400Y-99655314D01*
X116555828Y-99712457D01*
X116555828Y-99798171D01*
X116527257Y-99855314D01*
X116470114Y-99883885D01*
X116441542Y-99883885D01*
X116384400Y-99855314D01*
X116355828Y-99798171D01*
X116355828Y-99712457D01*
X116384400Y-99655314D01*
X116727257Y-99141028D02*
X116755828Y-99198171D01*
X116755828Y-99312457D01*
X116727257Y-99369600D01*
X116670114Y-99398171D01*
X116441542Y-99398171D01*
X116384400Y-99369600D01*
X116355828Y-99312457D01*
X116355828Y-99198171D01*
X116384400Y-99141028D01*
X116441542Y-99112457D01*
X116498685Y-99112457D01*
X116555828Y-99398171D01*
X116698685Y-98512457D02*
X116727257Y-98541028D01*
X116755828Y-98626742D01*
X116755828Y-98683885D01*
X116727257Y-98769600D01*
X116670114Y-98826742D01*
X116612971Y-98855314D01*
X116498685Y-98883885D01*
X116412971Y-98883885D01*
X116298685Y-98855314D01*
X116241542Y-98826742D01*
X116184400Y-98769600D01*
X116155828Y-98683885D01*
X116155828Y-98626742D01*
X116184400Y-98541028D01*
X116212971Y-98512457D01*
X116527257Y-98255314D02*
X116527257Y-97798171D01*
D10*
X132289504Y-91046019D02*
X131489504Y-91046019D01*
X131794266Y-91046019D02*
X131756171Y-90969828D01*
X131756171Y-90817447D01*
X131794266Y-90741257D01*
X131832361Y-90703161D01*
X131908552Y-90665066D01*
X132137123Y-90665066D01*
X132213314Y-90703161D01*
X132251409Y-90741257D01*
X132289504Y-90817447D01*
X132289504Y-90969828D01*
X132251409Y-91046019D01*
X132289504Y-90322209D02*
X131756171Y-90322209D01*
X131908552Y-90322209D02*
X131832361Y-90284114D01*
X131794266Y-90246019D01*
X131756171Y-90169828D01*
X131756171Y-90093638D01*
X132289504Y-89484114D02*
X131870457Y-89484114D01*
X131794266Y-89522209D01*
X131756171Y-89598400D01*
X131756171Y-89750780D01*
X131794266Y-89826971D01*
X132251409Y-89484114D02*
X132289504Y-89560304D01*
X132289504Y-89750780D01*
X132251409Y-89826971D01*
X132175219Y-89865066D01*
X132099028Y-89865066D01*
X132022838Y-89826971D01*
X131984742Y-89750780D01*
X131984742Y-89560304D01*
X131946647Y-89484114D01*
X132289504Y-89103161D02*
X131489504Y-89103161D01*
X131984742Y-89026971D02*
X132289504Y-88798400D01*
X131756171Y-88798400D02*
X132060933Y-89103161D01*
X132251409Y-88150780D02*
X132289504Y-88226971D01*
X132289504Y-88379352D01*
X132251409Y-88455542D01*
X132175219Y-88493638D01*
X131870457Y-88493638D01*
X131794266Y-88455542D01*
X131756171Y-88379352D01*
X131756171Y-88226971D01*
X131794266Y-88150780D01*
X131870457Y-88112685D01*
X131946647Y-88112685D01*
X132022838Y-88493638D01*
X132365695Y-87236495D02*
X132327600Y-87312685D01*
X132251409Y-87388876D01*
X132137123Y-87503161D01*
X132099028Y-87579352D01*
X132099028Y-87655542D01*
X132289504Y-87617447D02*
X132251409Y-87693638D01*
X132175219Y-87769828D01*
X132022838Y-87807923D01*
X131756171Y-87807923D01*
X131603790Y-87769828D01*
X131527600Y-87693638D01*
X131489504Y-87617447D01*
X131489504Y-87465066D01*
X131527600Y-87388876D01*
X131603790Y-87312685D01*
X131756171Y-87274590D01*
X132022838Y-87274590D01*
X132175219Y-87312685D01*
X132251409Y-87388876D01*
X132289504Y-87465066D01*
X132289504Y-87617447D01*
X131489504Y-87007923D02*
X131489504Y-86512685D01*
X131794266Y-86779352D01*
X131794266Y-86665066D01*
X131832361Y-86588876D01*
X131870457Y-86550780D01*
X131946647Y-86512685D01*
X132137123Y-86512685D01*
X132213314Y-86550780D01*
X132251409Y-86588876D01*
X132289504Y-86665066D01*
X132289504Y-86893638D01*
X132251409Y-86969828D01*
X132213314Y-87007923D01*
X137318704Y-91046019D02*
X136518704Y-91046019D01*
X136823466Y-91046019D02*
X136785371Y-90969828D01*
X136785371Y-90817447D01*
X136823466Y-90741257D01*
X136861561Y-90703161D01*
X136937752Y-90665066D01*
X137166323Y-90665066D01*
X137242514Y-90703161D01*
X137280609Y-90741257D01*
X137318704Y-90817447D01*
X137318704Y-90969828D01*
X137280609Y-91046019D01*
X137318704Y-90322209D02*
X136785371Y-90322209D01*
X136937752Y-90322209D02*
X136861561Y-90284114D01*
X136823466Y-90246019D01*
X136785371Y-90169828D01*
X136785371Y-90093638D01*
X137318704Y-89484114D02*
X136899657Y-89484114D01*
X136823466Y-89522209D01*
X136785371Y-89598400D01*
X136785371Y-89750780D01*
X136823466Y-89826971D01*
X137280609Y-89484114D02*
X137318704Y-89560304D01*
X137318704Y-89750780D01*
X137280609Y-89826971D01*
X137204419Y-89865066D01*
X137128228Y-89865066D01*
X137052038Y-89826971D01*
X137013942Y-89750780D01*
X137013942Y-89560304D01*
X136975847Y-89484114D01*
X137318704Y-89103161D02*
X136518704Y-89103161D01*
X137013942Y-89026971D02*
X137318704Y-88798400D01*
X136785371Y-88798400D02*
X137090133Y-89103161D01*
X137280609Y-88150780D02*
X137318704Y-88226971D01*
X137318704Y-88379352D01*
X137280609Y-88455542D01*
X137204419Y-88493638D01*
X136899657Y-88493638D01*
X136823466Y-88455542D01*
X136785371Y-88379352D01*
X136785371Y-88226971D01*
X136823466Y-88150780D01*
X136899657Y-88112685D01*
X136975847Y-88112685D01*
X137052038Y-88493638D01*
X137394895Y-87236495D02*
X137356800Y-87312685D01*
X137280609Y-87388876D01*
X137166323Y-87503161D01*
X137128228Y-87579352D01*
X137128228Y-87655542D01*
X137318704Y-87617447D02*
X137280609Y-87693638D01*
X137204419Y-87769828D01*
X137052038Y-87807923D01*
X136785371Y-87807923D01*
X136632990Y-87769828D01*
X136556800Y-87693638D01*
X136518704Y-87617447D01*
X136518704Y-87465066D01*
X136556800Y-87388876D01*
X136632990Y-87312685D01*
X136785371Y-87274590D01*
X137052038Y-87274590D01*
X137204419Y-87312685D01*
X137280609Y-87388876D01*
X137318704Y-87465066D01*
X137318704Y-87617447D01*
X136785371Y-86588876D02*
X137318704Y-86588876D01*
X136480609Y-86779352D02*
X137052038Y-86969828D01*
X137052038Y-86474590D01*
X157841904Y-101168000D02*
X157041904Y-101168000D01*
X157041904Y-100863238D01*
X157080000Y-100787047D01*
X157118095Y-100748952D01*
X157194285Y-100710857D01*
X157308571Y-100710857D01*
X157384761Y-100748952D01*
X157422857Y-100787047D01*
X157460952Y-100863238D01*
X157460952Y-101168000D01*
X157841904Y-99948952D02*
X157841904Y-100406095D01*
X157841904Y-100177523D02*
X157041904Y-100177523D01*
X157156190Y-100253714D01*
X157232380Y-100329904D01*
X157270476Y-100406095D01*
X157041904Y-99453714D02*
X157041904Y-99301333D01*
X157080000Y-99225142D01*
X157156190Y-99148952D01*
X157308571Y-99110857D01*
X157575238Y-99110857D01*
X157727619Y-99148952D01*
X157803809Y-99225142D01*
X157841904Y-99301333D01*
X157841904Y-99453714D01*
X157803809Y-99529904D01*
X157727619Y-99606095D01*
X157575238Y-99644190D01*
X157308571Y-99644190D01*
X157156190Y-99606095D01*
X157080000Y-99529904D01*
X157041904Y-99453714D01*
X157308571Y-98425142D02*
X157841904Y-98425142D01*
X157308571Y-98768000D02*
X157727619Y-98768000D01*
X157803809Y-98729904D01*
X157841904Y-98653714D01*
X157841904Y-98539428D01*
X157803809Y-98463238D01*
X157765714Y-98425142D01*
X157308571Y-98158476D02*
X157308571Y-97853714D01*
X157041904Y-98044190D02*
X157727619Y-98044190D01*
X157803809Y-98006095D01*
X157841904Y-97929904D01*
X157841904Y-97853714D01*
X160242209Y-91966809D02*
X160280304Y-91852523D01*
X160280304Y-91662047D01*
X160242209Y-91585857D01*
X160204114Y-91547761D01*
X160127923Y-91509666D01*
X160051733Y-91509666D01*
X159975542Y-91547761D01*
X159937447Y-91585857D01*
X159899352Y-91662047D01*
X159861257Y-91814428D01*
X159823161Y-91890619D01*
X159785066Y-91928714D01*
X159708876Y-91966809D01*
X159632685Y-91966809D01*
X159556495Y-91928714D01*
X159518400Y-91890619D01*
X159480304Y-91814428D01*
X159480304Y-91623952D01*
X159518400Y-91509666D01*
X160280304Y-91166809D02*
X159480304Y-91166809D01*
X160280304Y-90823952D02*
X159861257Y-90823952D01*
X159785066Y-90862047D01*
X159746971Y-90938238D01*
X159746971Y-91052523D01*
X159785066Y-91128714D01*
X159823161Y-91166809D01*
X159746971Y-90100142D02*
X160280304Y-90100142D01*
X159746971Y-90443000D02*
X160166019Y-90443000D01*
X160242209Y-90404904D01*
X160280304Y-90328714D01*
X160280304Y-90214428D01*
X160242209Y-90138238D01*
X160204114Y-90100142D01*
X159746971Y-89719190D02*
X160280304Y-89719190D01*
X159823161Y-89719190D02*
X159785066Y-89681095D01*
X159746971Y-89604904D01*
X159746971Y-89490619D01*
X159785066Y-89414428D01*
X159861257Y-89376333D01*
X160280304Y-89376333D01*
X159746971Y-89109666D02*
X159746971Y-88804904D01*
X159480304Y-88995380D02*
X160166019Y-88995380D01*
X160242209Y-88957285D01*
X160280304Y-88881095D01*
X160280304Y-88804904D01*
X159746971Y-88195380D02*
X160280304Y-88195380D01*
X159442209Y-88385857D02*
X160013638Y-88576333D01*
X160013638Y-88081095D01*
X142297104Y-91046019D02*
X141497104Y-91046019D01*
X141801866Y-91046019D02*
X141763771Y-90969828D01*
X141763771Y-90817447D01*
X141801866Y-90741257D01*
X141839961Y-90703161D01*
X141916152Y-90665066D01*
X142144723Y-90665066D01*
X142220914Y-90703161D01*
X142259009Y-90741257D01*
X142297104Y-90817447D01*
X142297104Y-90969828D01*
X142259009Y-91046019D01*
X142297104Y-90322209D02*
X141763771Y-90322209D01*
X141916152Y-90322209D02*
X141839961Y-90284114D01*
X141801866Y-90246019D01*
X141763771Y-90169828D01*
X141763771Y-90093638D01*
X142297104Y-89484114D02*
X141878057Y-89484114D01*
X141801866Y-89522209D01*
X141763771Y-89598400D01*
X141763771Y-89750780D01*
X141801866Y-89826971D01*
X142259009Y-89484114D02*
X142297104Y-89560304D01*
X142297104Y-89750780D01*
X142259009Y-89826971D01*
X142182819Y-89865066D01*
X142106628Y-89865066D01*
X142030438Y-89826971D01*
X141992342Y-89750780D01*
X141992342Y-89560304D01*
X141954247Y-89484114D01*
X142297104Y-89103161D02*
X141497104Y-89103161D01*
X141992342Y-89026971D02*
X142297104Y-88798400D01*
X141763771Y-88798400D02*
X142068533Y-89103161D01*
X142259009Y-88150780D02*
X142297104Y-88226971D01*
X142297104Y-88379352D01*
X142259009Y-88455542D01*
X142182819Y-88493638D01*
X141878057Y-88493638D01*
X141801866Y-88455542D01*
X141763771Y-88379352D01*
X141763771Y-88226971D01*
X141801866Y-88150780D01*
X141878057Y-88112685D01*
X141954247Y-88112685D01*
X142030438Y-88493638D01*
X142373295Y-87236495D02*
X142335200Y-87312685D01*
X142259009Y-87388876D01*
X142144723Y-87503161D01*
X142106628Y-87579352D01*
X142106628Y-87655542D01*
X142297104Y-87617447D02*
X142259009Y-87693638D01*
X142182819Y-87769828D01*
X142030438Y-87807923D01*
X141763771Y-87807923D01*
X141611390Y-87769828D01*
X141535200Y-87693638D01*
X141497104Y-87617447D01*
X141497104Y-87465066D01*
X141535200Y-87388876D01*
X141611390Y-87312685D01*
X141763771Y-87274590D01*
X142030438Y-87274590D01*
X142182819Y-87312685D01*
X142259009Y-87388876D01*
X142297104Y-87465066D01*
X142297104Y-87617447D01*
X141497104Y-86588876D02*
X141497104Y-86741257D01*
X141535200Y-86817447D01*
X141573295Y-86855542D01*
X141687580Y-86931733D01*
X141839961Y-86969828D01*
X142144723Y-86969828D01*
X142220914Y-86931733D01*
X142259009Y-86893638D01*
X142297104Y-86817447D01*
X142297104Y-86665066D01*
X142259009Y-86588876D01*
X142220914Y-86550780D01*
X142144723Y-86512685D01*
X141954247Y-86512685D01*
X141878057Y-86550780D01*
X141839961Y-86588876D01*
X141801866Y-86665066D01*
X141801866Y-86817447D01*
X141839961Y-86893638D01*
X141878057Y-86931733D01*
X141954247Y-86969828D01*
X212350304Y-93884533D02*
X211550304Y-93884533D01*
X211550304Y-93579771D01*
X211588400Y-93503580D01*
X211626495Y-93465485D01*
X211702685Y-93427390D01*
X211816971Y-93427390D01*
X211893161Y-93465485D01*
X211931257Y-93503580D01*
X211969352Y-93579771D01*
X211969352Y-93884533D01*
X212350304Y-92665485D02*
X212350304Y-93122628D01*
X212350304Y-92894057D02*
X211550304Y-92894057D01*
X211664590Y-92970247D01*
X211740780Y-93046438D01*
X211778876Y-93122628D01*
X211550304Y-92170247D02*
X211550304Y-92017866D01*
X211588400Y-91941676D01*
X211664590Y-91865485D01*
X211816971Y-91827390D01*
X212083638Y-91827390D01*
X212236019Y-91865485D01*
X212312209Y-91941676D01*
X212350304Y-92017866D01*
X212350304Y-92170247D01*
X212312209Y-92246438D01*
X212236019Y-92322628D01*
X212083638Y-92360723D01*
X211816971Y-92360723D01*
X211664590Y-92322628D01*
X211588400Y-92246438D01*
X211550304Y-92170247D01*
X211550304Y-91484533D02*
X212197923Y-91484533D01*
X212274114Y-91446438D01*
X212312209Y-91408342D01*
X212350304Y-91332152D01*
X212350304Y-91179771D01*
X212312209Y-91103580D01*
X212274114Y-91065485D01*
X212197923Y-91027390D01*
X211550304Y-91027390D01*
X211550304Y-90760723D02*
X211550304Y-90303580D01*
X212350304Y-90532152D02*
X211550304Y-90532152D01*
X211639200Y-87629923D02*
X211601104Y-87706114D01*
X211601104Y-87820400D01*
X211639200Y-87934685D01*
X211715390Y-88010876D01*
X211791580Y-88048971D01*
X211943961Y-88087066D01*
X212058247Y-88087066D01*
X212210628Y-88048971D01*
X212286819Y-88010876D01*
X212363009Y-87934685D01*
X212401104Y-87820400D01*
X212401104Y-87744209D01*
X212363009Y-87629923D01*
X212324914Y-87591828D01*
X212058247Y-87591828D01*
X212058247Y-87744209D01*
X212401104Y-87248971D02*
X211601104Y-87248971D01*
X212401104Y-86791828D01*
X211601104Y-86791828D01*
X212401104Y-86410876D02*
X211601104Y-86410876D01*
X211601104Y-86220400D01*
X211639200Y-86106114D01*
X211715390Y-86029923D01*
X211791580Y-85991828D01*
X211943961Y-85953733D01*
X212058247Y-85953733D01*
X212210628Y-85991828D01*
X212286819Y-86029923D01*
X212363009Y-86106114D01*
X212401104Y-86220400D01*
X212401104Y-86410876D01*
D11*
X119295828Y-101566428D02*
X118695828Y-101566428D01*
X118695828Y-101337857D01*
X118724400Y-101280714D01*
X118752971Y-101252142D01*
X118810114Y-101223571D01*
X118895828Y-101223571D01*
X118952971Y-101252142D01*
X118981542Y-101280714D01*
X119010114Y-101337857D01*
X119010114Y-101566428D01*
X119295828Y-100966428D02*
X118695828Y-100966428D01*
X119295828Y-100709285D02*
X118981542Y-100709285D01*
X118924400Y-100737857D01*
X118895828Y-100795000D01*
X118895828Y-100880714D01*
X118924400Y-100937857D01*
X118952971Y-100966428D01*
X119295828Y-100166428D02*
X118981542Y-100166428D01*
X118924400Y-100195000D01*
X118895828Y-100252142D01*
X118895828Y-100366428D01*
X118924400Y-100423571D01*
X119267257Y-100166428D02*
X119295828Y-100223571D01*
X119295828Y-100366428D01*
X119267257Y-100423571D01*
X119210114Y-100452142D01*
X119152971Y-100452142D01*
X119095828Y-100423571D01*
X119067257Y-100366428D01*
X119067257Y-100223571D01*
X119038685Y-100166428D01*
X119267257Y-99909285D02*
X119295828Y-99852142D01*
X119295828Y-99737857D01*
X119267257Y-99680714D01*
X119210114Y-99652142D01*
X119181542Y-99652142D01*
X119124400Y-99680714D01*
X119095828Y-99737857D01*
X119095828Y-99823571D01*
X119067257Y-99880714D01*
X119010114Y-99909285D01*
X118981542Y-99909285D01*
X118924400Y-99880714D01*
X118895828Y-99823571D01*
X118895828Y-99737857D01*
X118924400Y-99680714D01*
X119267257Y-99166428D02*
X119295828Y-99223571D01*
X119295828Y-99337857D01*
X119267257Y-99395000D01*
X119210114Y-99423571D01*
X118981542Y-99423571D01*
X118924400Y-99395000D01*
X118895828Y-99337857D01*
X118895828Y-99223571D01*
X118924400Y-99166428D01*
X118981542Y-99137857D01*
X119038685Y-99137857D01*
X119095828Y-99423571D01*
X118981542Y-98680714D02*
X119010114Y-98595000D01*
X119038685Y-98566428D01*
X119095828Y-98537857D01*
X119181542Y-98537857D01*
X119238685Y-98566428D01*
X119267257Y-98595000D01*
X119295828Y-98652142D01*
X119295828Y-98880714D01*
X118695828Y-98880714D01*
X118695828Y-98680714D01*
X118724400Y-98623571D01*
X118752971Y-98595000D01*
X118810114Y-98566428D01*
X118867257Y-98566428D01*
X118924400Y-98595000D01*
X118952971Y-98623571D01*
X118981542Y-98680714D01*
X118981542Y-98880714D01*
X119067257Y-98280714D02*
X119067257Y-97823571D01*
D10*
X127247409Y-41840190D02*
X127133123Y-41802095D01*
X126942647Y-41802095D01*
X126866457Y-41840190D01*
X126828361Y-41878285D01*
X126790266Y-41954476D01*
X126790266Y-42030666D01*
X126828361Y-42106857D01*
X126866457Y-42144952D01*
X126942647Y-42183047D01*
X127095028Y-42221142D01*
X127171219Y-42259238D01*
X127209314Y-42297333D01*
X127247409Y-42373523D01*
X127247409Y-42449714D01*
X127209314Y-42525904D01*
X127171219Y-42564000D01*
X127095028Y-42602095D01*
X126904552Y-42602095D01*
X126790266Y-42564000D01*
X126447409Y-41802095D02*
X126447409Y-42602095D01*
X126104552Y-41802095D02*
X126104552Y-42221142D01*
X126142647Y-42297333D01*
X126218838Y-42335428D01*
X126333123Y-42335428D01*
X126409314Y-42297333D01*
X126447409Y-42259238D01*
X125380742Y-42335428D02*
X125380742Y-41802095D01*
X125723600Y-42335428D02*
X125723600Y-41916380D01*
X125685504Y-41840190D01*
X125609314Y-41802095D01*
X125495028Y-41802095D01*
X125418838Y-41840190D01*
X125380742Y-41878285D01*
X124999790Y-42335428D02*
X124999790Y-41802095D01*
X124999790Y-42259238D02*
X124961695Y-42297333D01*
X124885504Y-42335428D01*
X124771219Y-42335428D01*
X124695028Y-42297333D01*
X124656933Y-42221142D01*
X124656933Y-41802095D01*
X124390266Y-42335428D02*
X124085504Y-42335428D01*
X124275980Y-42602095D02*
X124275980Y-41916380D01*
X124237885Y-41840190D01*
X124161695Y-41802095D01*
X124085504Y-41802095D01*
X123399790Y-41802095D02*
X123856933Y-41802095D01*
X123628361Y-41802095D02*
X123628361Y-42602095D01*
X123704552Y-42487809D01*
X123780742Y-42411619D01*
X123856933Y-42373523D01*
X162007600Y-99415523D02*
X161969504Y-99491714D01*
X161969504Y-99606000D01*
X162007600Y-99720285D01*
X162083790Y-99796476D01*
X162159980Y-99834571D01*
X162312361Y-99872666D01*
X162426647Y-99872666D01*
X162579028Y-99834571D01*
X162655219Y-99796476D01*
X162731409Y-99720285D01*
X162769504Y-99606000D01*
X162769504Y-99529809D01*
X162731409Y-99415523D01*
X162693314Y-99377428D01*
X162426647Y-99377428D01*
X162426647Y-99529809D01*
X162769504Y-99034571D02*
X161969504Y-99034571D01*
X162769504Y-98577428D01*
X161969504Y-98577428D01*
X162769504Y-98196476D02*
X161969504Y-98196476D01*
X161969504Y-98006000D01*
X162007600Y-97891714D01*
X162083790Y-97815523D01*
X162159980Y-97777428D01*
X162312361Y-97739333D01*
X162426647Y-97739333D01*
X162579028Y-97777428D01*
X162655219Y-97815523D01*
X162731409Y-97891714D01*
X162769504Y-98006000D01*
X162769504Y-98196476D01*
D12*
X75866761Y-79452761D02*
X77866761Y-78976571D01*
X76438190Y-78595619D01*
X77866761Y-78214666D01*
X75866761Y-77738476D01*
X77676285Y-75833714D02*
X77771523Y-75928952D01*
X77866761Y-76214666D01*
X77866761Y-76405142D01*
X77771523Y-76690857D01*
X77581047Y-76881333D01*
X77390571Y-76976571D01*
X77009619Y-77071809D01*
X76723904Y-77071809D01*
X76342952Y-76976571D01*
X76152476Y-76881333D01*
X75962000Y-76690857D01*
X75866761Y-76405142D01*
X75866761Y-76214666D01*
X75962000Y-75928952D01*
X76057238Y-75833714D01*
X77676285Y-73833714D02*
X77771523Y-73928952D01*
X77866761Y-74214666D01*
X77866761Y-74405142D01*
X77771523Y-74690857D01*
X77581047Y-74881333D01*
X77390571Y-74976571D01*
X77009619Y-75071809D01*
X76723904Y-75071809D01*
X76342952Y-74976571D01*
X76152476Y-74881333D01*
X75962000Y-74690857D01*
X75866761Y-74405142D01*
X75866761Y-74214666D01*
X75962000Y-73928952D01*
X76057238Y-73833714D01*
X75866761Y-71738476D02*
X77866761Y-71071809D01*
X75866761Y-70405142D01*
X77676285Y-69738476D02*
X77771523Y-69643238D01*
X77866761Y-69738476D01*
X77771523Y-69833714D01*
X77676285Y-69738476D01*
X77866761Y-69738476D01*
X77866761Y-67738476D02*
X77866761Y-68881333D01*
X77866761Y-68309904D02*
X75866761Y-68309904D01*
X76152476Y-68500380D01*
X76342952Y-68690857D01*
X76438190Y-68881333D01*
X77676285Y-66881333D02*
X77771523Y-66786095D01*
X77866761Y-66881333D01*
X77771523Y-66976571D01*
X77676285Y-66881333D01*
X77866761Y-66881333D01*
X77866761Y-64881333D02*
X77866761Y-66024190D01*
X77866761Y-65452761D02*
X75866761Y-65452761D01*
X76152476Y-65643238D01*
X76342952Y-65833714D01*
X76438190Y-66024190D01*
X77866761Y-57928952D02*
X75866761Y-57928952D01*
X77866761Y-56786095D02*
X76723904Y-57643238D01*
X75866761Y-56786095D02*
X77009619Y-57928952D01*
X77676285Y-55928952D02*
X77771523Y-55833714D01*
X77866761Y-55928952D01*
X77771523Y-56024190D01*
X77676285Y-55928952D01*
X77866761Y-55928952D01*
X78057238Y-53643238D02*
X77962000Y-53833714D01*
X77771523Y-54024190D01*
X77485809Y-54309904D01*
X77390571Y-54500380D01*
X77390571Y-54690857D01*
X77866761Y-54595619D02*
X77771523Y-54786095D01*
X77581047Y-54976571D01*
X77200095Y-55071809D01*
X76533428Y-55071809D01*
X76152476Y-54976571D01*
X75962000Y-54786095D01*
X75866761Y-54595619D01*
X75866761Y-54214666D01*
X75962000Y-54024190D01*
X76152476Y-53833714D01*
X76533428Y-53738476D01*
X77200095Y-53738476D01*
X77581047Y-53833714D01*
X77771523Y-54024190D01*
X77866761Y-54214666D01*
X77866761Y-54595619D01*
D10*
X152660304Y-101066400D02*
X151860304Y-101066400D01*
X151860304Y-100761638D01*
X151898400Y-100685447D01*
X151936495Y-100647352D01*
X152012685Y-100609257D01*
X152126971Y-100609257D01*
X152203161Y-100647352D01*
X152241257Y-100685447D01*
X152279352Y-100761638D01*
X152279352Y-101066400D01*
X151936495Y-100304495D02*
X151898400Y-100266400D01*
X151860304Y-100190209D01*
X151860304Y-99999733D01*
X151898400Y-99923542D01*
X151936495Y-99885447D01*
X152012685Y-99847352D01*
X152088876Y-99847352D01*
X152203161Y-99885447D01*
X152660304Y-100342590D01*
X152660304Y-99847352D01*
X151860304Y-99352114D02*
X151860304Y-99199733D01*
X151898400Y-99123542D01*
X151974590Y-99047352D01*
X152126971Y-99009257D01*
X152393638Y-99009257D01*
X152546019Y-99047352D01*
X152622209Y-99123542D01*
X152660304Y-99199733D01*
X152660304Y-99352114D01*
X152622209Y-99428304D01*
X152546019Y-99504495D01*
X152393638Y-99542590D01*
X152126971Y-99542590D01*
X151974590Y-99504495D01*
X151898400Y-99428304D01*
X151860304Y-99352114D01*
X152126971Y-98323542D02*
X152660304Y-98323542D01*
X152126971Y-98666400D02*
X152546019Y-98666400D01*
X152622209Y-98628304D01*
X152660304Y-98552114D01*
X152660304Y-98437828D01*
X152622209Y-98361638D01*
X152584114Y-98323542D01*
X152126971Y-98056876D02*
X152126971Y-97752114D01*
X151860304Y-97942590D02*
X152546019Y-97942590D01*
X152622209Y-97904495D01*
X152660304Y-97828304D01*
X152660304Y-97752114D01*
X134677104Y-90995219D02*
X133877104Y-90995219D01*
X134181866Y-90995219D02*
X134143771Y-90919028D01*
X134143771Y-90766647D01*
X134181866Y-90690457D01*
X134219961Y-90652361D01*
X134296152Y-90614266D01*
X134524723Y-90614266D01*
X134600914Y-90652361D01*
X134639009Y-90690457D01*
X134677104Y-90766647D01*
X134677104Y-90919028D01*
X134639009Y-90995219D01*
X134677104Y-90271409D02*
X134143771Y-90271409D01*
X134296152Y-90271409D02*
X134219961Y-90233314D01*
X134181866Y-90195219D01*
X134143771Y-90119028D01*
X134143771Y-90042838D01*
X134677104Y-89433314D02*
X134258057Y-89433314D01*
X134181866Y-89471409D01*
X134143771Y-89547600D01*
X134143771Y-89699980D01*
X134181866Y-89776171D01*
X134639009Y-89433314D02*
X134677104Y-89509504D01*
X134677104Y-89699980D01*
X134639009Y-89776171D01*
X134562819Y-89814266D01*
X134486628Y-89814266D01*
X134410438Y-89776171D01*
X134372342Y-89699980D01*
X134372342Y-89509504D01*
X134334247Y-89433314D01*
X134677104Y-89052361D02*
X133877104Y-89052361D01*
X134372342Y-88976171D02*
X134677104Y-88747600D01*
X134143771Y-88747600D02*
X134448533Y-89052361D01*
X134639009Y-88099980D02*
X134677104Y-88176171D01*
X134677104Y-88328552D01*
X134639009Y-88404742D01*
X134562819Y-88442838D01*
X134258057Y-88442838D01*
X134181866Y-88404742D01*
X134143771Y-88328552D01*
X134143771Y-88176171D01*
X134181866Y-88099980D01*
X134258057Y-88061885D01*
X134334247Y-88061885D01*
X134410438Y-88442838D01*
X134753295Y-87185695D02*
X134715200Y-87261885D01*
X134639009Y-87338076D01*
X134524723Y-87452361D01*
X134486628Y-87528552D01*
X134486628Y-87604742D01*
X134677104Y-87566647D02*
X134639009Y-87642838D01*
X134562819Y-87719028D01*
X134410438Y-87757123D01*
X134143771Y-87757123D01*
X133991390Y-87719028D01*
X133915200Y-87642838D01*
X133877104Y-87566647D01*
X133877104Y-87414266D01*
X133915200Y-87338076D01*
X133991390Y-87261885D01*
X134143771Y-87223790D01*
X134410438Y-87223790D01*
X134562819Y-87261885D01*
X134639009Y-87338076D01*
X134677104Y-87414266D01*
X134677104Y-87566647D01*
X133953295Y-86919028D02*
X133915200Y-86880933D01*
X133877104Y-86804742D01*
X133877104Y-86614266D01*
X133915200Y-86538076D01*
X133953295Y-86499980D01*
X134029485Y-86461885D01*
X134105676Y-86461885D01*
X134219961Y-86499980D01*
X134677104Y-86957123D01*
X134677104Y-86461885D01*
X212350400Y-55676723D02*
X212312304Y-55752914D01*
X212312304Y-55867200D01*
X212350400Y-55981485D01*
X212426590Y-56057676D01*
X212502780Y-56095771D01*
X212655161Y-56133866D01*
X212769447Y-56133866D01*
X212921828Y-56095771D01*
X212998019Y-56057676D01*
X213074209Y-55981485D01*
X213112304Y-55867200D01*
X213112304Y-55791009D01*
X213074209Y-55676723D01*
X213036114Y-55638628D01*
X212769447Y-55638628D01*
X212769447Y-55791009D01*
X213112304Y-55295771D02*
X212312304Y-55295771D01*
X213112304Y-54838628D01*
X212312304Y-54838628D01*
X213112304Y-54457676D02*
X212312304Y-54457676D01*
X212312304Y-54267200D01*
X212350400Y-54152914D01*
X212426590Y-54076723D01*
X212502780Y-54038628D01*
X212655161Y-54000533D01*
X212769447Y-54000533D01*
X212921828Y-54038628D01*
X212998019Y-54076723D01*
X213074209Y-54152914D01*
X213112304Y-54267200D01*
X213112304Y-54457676D01*
X150018704Y-101402933D02*
X149218704Y-101402933D01*
X149218704Y-101098171D01*
X149256800Y-101021980D01*
X149294895Y-100983885D01*
X149371085Y-100945790D01*
X149485371Y-100945790D01*
X149561561Y-100983885D01*
X149599657Y-101021980D01*
X149637752Y-101098171D01*
X149637752Y-101402933D01*
X150094895Y-100793409D02*
X150094895Y-100183885D01*
X149980609Y-100031504D02*
X150018704Y-99917219D01*
X150018704Y-99726742D01*
X149980609Y-99650552D01*
X149942514Y-99612457D01*
X149866323Y-99574361D01*
X149790133Y-99574361D01*
X149713942Y-99612457D01*
X149675847Y-99650552D01*
X149637752Y-99726742D01*
X149599657Y-99879123D01*
X149561561Y-99955314D01*
X149523466Y-99993409D01*
X149447276Y-100031504D01*
X149371085Y-100031504D01*
X149294895Y-99993409D01*
X149256800Y-99955314D01*
X149218704Y-99879123D01*
X149218704Y-99688647D01*
X149256800Y-99574361D01*
X149218704Y-99307695D02*
X150018704Y-99117219D01*
X149447276Y-98964838D01*
X150018704Y-98812457D01*
X149218704Y-98621980D01*
X150018704Y-97898171D02*
X150018704Y-98355314D01*
X150018704Y-98126742D02*
X149218704Y-98126742D01*
X149332990Y-98202933D01*
X149409180Y-98279123D01*
X149447276Y-98355314D01*
X112122000Y-85699523D02*
X112083904Y-85775714D01*
X112083904Y-85890000D01*
X112122000Y-86004285D01*
X112198190Y-86080476D01*
X112274380Y-86118571D01*
X112426761Y-86156666D01*
X112541047Y-86156666D01*
X112693428Y-86118571D01*
X112769619Y-86080476D01*
X112845809Y-86004285D01*
X112883904Y-85890000D01*
X112883904Y-85813809D01*
X112845809Y-85699523D01*
X112807714Y-85661428D01*
X112541047Y-85661428D01*
X112541047Y-85813809D01*
X112883904Y-85318571D02*
X112083904Y-85318571D01*
X112883904Y-84861428D01*
X112083904Y-84861428D01*
X112883904Y-84480476D02*
X112083904Y-84480476D01*
X112083904Y-84290000D01*
X112122000Y-84175714D01*
X112198190Y-84099523D01*
X112274380Y-84061428D01*
X112426761Y-84023333D01*
X112541047Y-84023333D01*
X112693428Y-84061428D01*
X112769619Y-84099523D01*
X112845809Y-84175714D01*
X112883904Y-84290000D01*
X112883904Y-84480476D01*
X113595200Y-99364723D02*
X113557104Y-99440914D01*
X113557104Y-99555200D01*
X113595200Y-99669485D01*
X113671390Y-99745676D01*
X113747580Y-99783771D01*
X113899961Y-99821866D01*
X114014247Y-99821866D01*
X114166628Y-99783771D01*
X114242819Y-99745676D01*
X114319009Y-99669485D01*
X114357104Y-99555200D01*
X114357104Y-99479009D01*
X114319009Y-99364723D01*
X114280914Y-99326628D01*
X114014247Y-99326628D01*
X114014247Y-99479009D01*
X114357104Y-98983771D02*
X113557104Y-98983771D01*
X114357104Y-98526628D01*
X113557104Y-98526628D01*
X114357104Y-98145676D02*
X113557104Y-98145676D01*
X113557104Y-97955200D01*
X113595200Y-97840914D01*
X113671390Y-97764723D01*
X113747580Y-97726628D01*
X113899961Y-97688533D01*
X114014247Y-97688533D01*
X114166628Y-97726628D01*
X114242819Y-97764723D01*
X114319009Y-97840914D01*
X114357104Y-97955200D01*
X114357104Y-98145676D01*
X85363352Y-86213904D02*
X85363352Y-85413904D01*
X85668114Y-85413904D01*
X85744304Y-85452000D01*
X85782400Y-85490095D01*
X85820495Y-85566285D01*
X85820495Y-85680571D01*
X85782400Y-85756761D01*
X85744304Y-85794857D01*
X85668114Y-85832952D01*
X85363352Y-85832952D01*
X86163352Y-86213904D02*
X86163352Y-85413904D01*
X86163352Y-85794857D02*
X86620495Y-85794857D01*
X86620495Y-86213904D02*
X86620495Y-85413904D01*
X86963352Y-85985333D02*
X87344304Y-85985333D01*
X86887161Y-86213904D02*
X87153828Y-85413904D01*
X87420495Y-86213904D01*
X87649066Y-86175809D02*
X87763352Y-86213904D01*
X87953828Y-86213904D01*
X88030019Y-86175809D01*
X88068114Y-86137714D01*
X88106209Y-86061523D01*
X88106209Y-85985333D01*
X88068114Y-85909142D01*
X88030019Y-85871047D01*
X87953828Y-85832952D01*
X87801447Y-85794857D01*
X87725257Y-85756761D01*
X87687161Y-85718666D01*
X87649066Y-85642476D01*
X87649066Y-85566285D01*
X87687161Y-85490095D01*
X87725257Y-85452000D01*
X87801447Y-85413904D01*
X87991923Y-85413904D01*
X88106209Y-85452000D01*
X88449066Y-85794857D02*
X88715733Y-85794857D01*
X88830019Y-86213904D02*
X88449066Y-86213904D01*
X88449066Y-85413904D01*
X88830019Y-85413904D01*
X90239542Y-86137714D02*
X90201447Y-86175809D01*
X90087161Y-86213904D01*
X90010971Y-86213904D01*
X89896685Y-86175809D01*
X89820495Y-86099619D01*
X89782400Y-86023428D01*
X89744304Y-85871047D01*
X89744304Y-85756761D01*
X89782400Y-85604380D01*
X89820495Y-85528190D01*
X89896685Y-85452000D01*
X90010971Y-85413904D01*
X90087161Y-85413904D01*
X90201447Y-85452000D01*
X90239542Y-85490095D01*
X127209504Y-91103200D02*
X126409504Y-91103200D01*
X126409504Y-90798438D01*
X126447600Y-90722247D01*
X126485695Y-90684152D01*
X126561885Y-90646057D01*
X126676171Y-90646057D01*
X126752361Y-90684152D01*
X126790457Y-90722247D01*
X126828552Y-90798438D01*
X126828552Y-91103200D01*
X127209504Y-90303200D02*
X126409504Y-90303200D01*
X127209504Y-89960342D02*
X126790457Y-89960342D01*
X126714266Y-89998438D01*
X126676171Y-90074628D01*
X126676171Y-90188914D01*
X126714266Y-90265104D01*
X126752361Y-90303200D01*
X127209504Y-89236533D02*
X126790457Y-89236533D01*
X126714266Y-89274628D01*
X126676171Y-89350819D01*
X126676171Y-89503200D01*
X126714266Y-89579390D01*
X127171409Y-89236533D02*
X127209504Y-89312723D01*
X127209504Y-89503200D01*
X127171409Y-89579390D01*
X127095219Y-89617485D01*
X127019028Y-89617485D01*
X126942838Y-89579390D01*
X126904742Y-89503200D01*
X126904742Y-89312723D01*
X126866647Y-89236533D01*
X127171409Y-88893676D02*
X127209504Y-88817485D01*
X127209504Y-88665104D01*
X127171409Y-88588914D01*
X127095219Y-88550819D01*
X127057123Y-88550819D01*
X126980933Y-88588914D01*
X126942838Y-88665104D01*
X126942838Y-88779390D01*
X126904742Y-88855580D01*
X126828552Y-88893676D01*
X126790457Y-88893676D01*
X126714266Y-88855580D01*
X126676171Y-88779390D01*
X126676171Y-88665104D01*
X126714266Y-88588914D01*
X127171409Y-87903200D02*
X127209504Y-87979390D01*
X127209504Y-88131771D01*
X127171409Y-88207961D01*
X127095219Y-88246057D01*
X126790457Y-88246057D01*
X126714266Y-88207961D01*
X126676171Y-88131771D01*
X126676171Y-87979390D01*
X126714266Y-87903200D01*
X126790457Y-87865104D01*
X126866647Y-87865104D01*
X126942838Y-88246057D01*
X126790457Y-87255580D02*
X126828552Y-87141295D01*
X126866647Y-87103200D01*
X126942838Y-87065104D01*
X127057123Y-87065104D01*
X127133314Y-87103200D01*
X127171409Y-87141295D01*
X127209504Y-87217485D01*
X127209504Y-87522247D01*
X126409504Y-87522247D01*
X126409504Y-87255580D01*
X126447600Y-87179390D01*
X126485695Y-87141295D01*
X126561885Y-87103200D01*
X126638076Y-87103200D01*
X126714266Y-87141295D01*
X126752361Y-87179390D01*
X126790457Y-87255580D01*
X126790457Y-87522247D01*
X155111409Y-101593409D02*
X155149504Y-101479123D01*
X155149504Y-101288647D01*
X155111409Y-101212457D01*
X155073314Y-101174361D01*
X154997123Y-101136266D01*
X154920933Y-101136266D01*
X154844742Y-101174361D01*
X154806647Y-101212457D01*
X154768552Y-101288647D01*
X154730457Y-101441028D01*
X154692361Y-101517219D01*
X154654266Y-101555314D01*
X154578076Y-101593409D01*
X154501885Y-101593409D01*
X154425695Y-101555314D01*
X154387600Y-101517219D01*
X154349504Y-101441028D01*
X154349504Y-101250552D01*
X154387600Y-101136266D01*
X155149504Y-100793409D02*
X154349504Y-100793409D01*
X155149504Y-100450552D02*
X154730457Y-100450552D01*
X154654266Y-100488647D01*
X154616171Y-100564838D01*
X154616171Y-100679123D01*
X154654266Y-100755314D01*
X154692361Y-100793409D01*
X154616171Y-99726742D02*
X155149504Y-99726742D01*
X154616171Y-100069600D02*
X155035219Y-100069600D01*
X155111409Y-100031504D01*
X155149504Y-99955314D01*
X155149504Y-99841028D01*
X155111409Y-99764838D01*
X155073314Y-99726742D01*
X154616171Y-99345790D02*
X155149504Y-99345790D01*
X154692361Y-99345790D02*
X154654266Y-99307695D01*
X154616171Y-99231504D01*
X154616171Y-99117219D01*
X154654266Y-99041028D01*
X154730457Y-99002933D01*
X155149504Y-99002933D01*
X154616171Y-98736266D02*
X154616171Y-98431504D01*
X154349504Y-98621980D02*
X155035219Y-98621980D01*
X155111409Y-98583885D01*
X155149504Y-98507695D01*
X155149504Y-98431504D01*
X154349504Y-98241028D02*
X154349504Y-97707695D01*
X155149504Y-98050552D01*
X129647904Y-90995219D02*
X128847904Y-90995219D01*
X129152666Y-90995219D02*
X129114571Y-90919028D01*
X129114571Y-90766647D01*
X129152666Y-90690457D01*
X129190761Y-90652361D01*
X129266952Y-90614266D01*
X129495523Y-90614266D01*
X129571714Y-90652361D01*
X129609809Y-90690457D01*
X129647904Y-90766647D01*
X129647904Y-90919028D01*
X129609809Y-90995219D01*
X129647904Y-90271409D02*
X129114571Y-90271409D01*
X129266952Y-90271409D02*
X129190761Y-90233314D01*
X129152666Y-90195219D01*
X129114571Y-90119028D01*
X129114571Y-90042838D01*
X129647904Y-89433314D02*
X129228857Y-89433314D01*
X129152666Y-89471409D01*
X129114571Y-89547600D01*
X129114571Y-89699980D01*
X129152666Y-89776171D01*
X129609809Y-89433314D02*
X129647904Y-89509504D01*
X129647904Y-89699980D01*
X129609809Y-89776171D01*
X129533619Y-89814266D01*
X129457428Y-89814266D01*
X129381238Y-89776171D01*
X129343142Y-89699980D01*
X129343142Y-89509504D01*
X129305047Y-89433314D01*
X129647904Y-89052361D02*
X128847904Y-89052361D01*
X129343142Y-88976171D02*
X129647904Y-88747600D01*
X129114571Y-88747600D02*
X129419333Y-89052361D01*
X129609809Y-88099980D02*
X129647904Y-88176171D01*
X129647904Y-88328552D01*
X129609809Y-88404742D01*
X129533619Y-88442838D01*
X129228857Y-88442838D01*
X129152666Y-88404742D01*
X129114571Y-88328552D01*
X129114571Y-88176171D01*
X129152666Y-88099980D01*
X129228857Y-88061885D01*
X129305047Y-88061885D01*
X129381238Y-88442838D01*
X129724095Y-87185695D02*
X129686000Y-87261885D01*
X129609809Y-87338076D01*
X129495523Y-87452361D01*
X129457428Y-87528552D01*
X129457428Y-87604742D01*
X129647904Y-87566647D02*
X129609809Y-87642838D01*
X129533619Y-87719028D01*
X129381238Y-87757123D01*
X129114571Y-87757123D01*
X128962190Y-87719028D01*
X128886000Y-87642838D01*
X128847904Y-87566647D01*
X128847904Y-87414266D01*
X128886000Y-87338076D01*
X128962190Y-87261885D01*
X129114571Y-87223790D01*
X129381238Y-87223790D01*
X129533619Y-87261885D01*
X129609809Y-87338076D01*
X129647904Y-87414266D01*
X129647904Y-87566647D01*
X129647904Y-86461885D02*
X129647904Y-86919028D01*
X129647904Y-86690457D02*
X128847904Y-86690457D01*
X128962190Y-86766647D01*
X129038380Y-86842838D01*
X129076476Y-86919028D01*
X158515009Y-91941409D02*
X158553104Y-91827123D01*
X158553104Y-91636647D01*
X158515009Y-91560457D01*
X158476914Y-91522361D01*
X158400723Y-91484266D01*
X158324533Y-91484266D01*
X158248342Y-91522361D01*
X158210247Y-91560457D01*
X158172152Y-91636647D01*
X158134057Y-91789028D01*
X158095961Y-91865219D01*
X158057866Y-91903314D01*
X157981676Y-91941409D01*
X157905485Y-91941409D01*
X157829295Y-91903314D01*
X157791200Y-91865219D01*
X157753104Y-91789028D01*
X157753104Y-91598552D01*
X157791200Y-91484266D01*
X158553104Y-91141409D02*
X157753104Y-91141409D01*
X158553104Y-90798552D02*
X158134057Y-90798552D01*
X158057866Y-90836647D01*
X158019771Y-90912838D01*
X158019771Y-91027123D01*
X158057866Y-91103314D01*
X158095961Y-91141409D01*
X158019771Y-90074742D02*
X158553104Y-90074742D01*
X158019771Y-90417600D02*
X158438819Y-90417600D01*
X158515009Y-90379504D01*
X158553104Y-90303314D01*
X158553104Y-90189028D01*
X158515009Y-90112838D01*
X158476914Y-90074742D01*
X158019771Y-89693790D02*
X158553104Y-89693790D01*
X158095961Y-89693790D02*
X158057866Y-89655695D01*
X158019771Y-89579504D01*
X158019771Y-89465219D01*
X158057866Y-89389028D01*
X158134057Y-89350933D01*
X158553104Y-89350933D01*
X158019771Y-89084266D02*
X158019771Y-88779504D01*
X157753104Y-88969980D02*
X158438819Y-88969980D01*
X158515009Y-88931885D01*
X158553104Y-88855695D01*
X158553104Y-88779504D01*
X157753104Y-88589028D02*
X157753104Y-88093790D01*
X158057866Y-88360457D01*
X158057866Y-88246171D01*
X158095961Y-88169980D01*
X158134057Y-88131885D01*
X158210247Y-88093790D01*
X158400723Y-88093790D01*
X158476914Y-88131885D01*
X158515009Y-88169980D01*
X158553104Y-88246171D01*
X158553104Y-88474742D01*
X158515009Y-88550933D01*
X158476914Y-88589028D01*
X85312552Y-92157504D02*
X85312552Y-91357504D01*
X85617314Y-91357504D01*
X85693504Y-91395600D01*
X85731600Y-91433695D01*
X85769695Y-91509885D01*
X85769695Y-91624171D01*
X85731600Y-91700361D01*
X85693504Y-91738457D01*
X85617314Y-91776552D01*
X85312552Y-91776552D01*
X86112552Y-92157504D02*
X86112552Y-91357504D01*
X86112552Y-91738457D02*
X86569695Y-91738457D01*
X86569695Y-92157504D02*
X86569695Y-91357504D01*
X86912552Y-91928933D02*
X87293504Y-91928933D01*
X86836361Y-92157504D02*
X87103028Y-91357504D01*
X87369695Y-92157504D01*
X87598266Y-92119409D02*
X87712552Y-92157504D01*
X87903028Y-92157504D01*
X87979219Y-92119409D01*
X88017314Y-92081314D01*
X88055409Y-92005123D01*
X88055409Y-91928933D01*
X88017314Y-91852742D01*
X87979219Y-91814647D01*
X87903028Y-91776552D01*
X87750647Y-91738457D01*
X87674457Y-91700361D01*
X87636361Y-91662266D01*
X87598266Y-91586076D01*
X87598266Y-91509885D01*
X87636361Y-91433695D01*
X87674457Y-91395600D01*
X87750647Y-91357504D01*
X87941123Y-91357504D01*
X88055409Y-91395600D01*
X88398266Y-91738457D02*
X88664933Y-91738457D01*
X88779219Y-92157504D02*
X88398266Y-92157504D01*
X88398266Y-91357504D01*
X88779219Y-91357504D01*
X89998266Y-91738457D02*
X90112552Y-91776552D01*
X90150647Y-91814647D01*
X90188742Y-91890838D01*
X90188742Y-92005123D01*
X90150647Y-92081314D01*
X90112552Y-92119409D01*
X90036361Y-92157504D01*
X89731600Y-92157504D01*
X89731600Y-91357504D01*
X89998266Y-91357504D01*
X90074457Y-91395600D01*
X90112552Y-91433695D01*
X90150647Y-91509885D01*
X90150647Y-91586076D01*
X90112552Y-91662266D01*
X90074457Y-91700361D01*
X89998266Y-91738457D01*
X89731600Y-91738457D01*
X122129504Y-91046057D02*
X121329504Y-91046057D01*
X121329504Y-90741295D01*
X121367600Y-90665104D01*
X121405695Y-90627009D01*
X121481885Y-90588914D01*
X121596171Y-90588914D01*
X121672361Y-90627009D01*
X121710457Y-90665104D01*
X121748552Y-90741295D01*
X121748552Y-91046057D01*
X122129504Y-90246057D02*
X121329504Y-90246057D01*
X122129504Y-89903200D02*
X121710457Y-89903200D01*
X121634266Y-89941295D01*
X121596171Y-90017485D01*
X121596171Y-90131771D01*
X121634266Y-90207961D01*
X121672361Y-90246057D01*
X122129504Y-89179390D02*
X121710457Y-89179390D01*
X121634266Y-89217485D01*
X121596171Y-89293676D01*
X121596171Y-89446057D01*
X121634266Y-89522247D01*
X122091409Y-89179390D02*
X122129504Y-89255580D01*
X122129504Y-89446057D01*
X122091409Y-89522247D01*
X122015219Y-89560342D01*
X121939028Y-89560342D01*
X121862838Y-89522247D01*
X121824742Y-89446057D01*
X121824742Y-89255580D01*
X121786647Y-89179390D01*
X122091409Y-88836533D02*
X122129504Y-88760342D01*
X122129504Y-88607961D01*
X122091409Y-88531771D01*
X122015219Y-88493676D01*
X121977123Y-88493676D01*
X121900933Y-88531771D01*
X121862838Y-88607961D01*
X121862838Y-88722247D01*
X121824742Y-88798438D01*
X121748552Y-88836533D01*
X121710457Y-88836533D01*
X121634266Y-88798438D01*
X121596171Y-88722247D01*
X121596171Y-88607961D01*
X121634266Y-88531771D01*
X122091409Y-87846057D02*
X122129504Y-87922247D01*
X122129504Y-88074628D01*
X122091409Y-88150819D01*
X122015219Y-88188914D01*
X121710457Y-88188914D01*
X121634266Y-88150819D01*
X121596171Y-88074628D01*
X121596171Y-87922247D01*
X121634266Y-87846057D01*
X121710457Y-87807961D01*
X121786647Y-87807961D01*
X121862838Y-88188914D01*
X121900933Y-87503200D02*
X121900933Y-87122247D01*
X122129504Y-87579390D02*
X121329504Y-87312723D01*
X122129504Y-87046057D01*
X211695961Y-44850095D02*
X212076914Y-44850095D01*
X212076914Y-45650095D01*
X211315009Y-44850095D02*
X211391200Y-44888190D01*
X211429295Y-44926285D01*
X211467390Y-45002476D01*
X211467390Y-45231047D01*
X211429295Y-45307238D01*
X211391200Y-45345333D01*
X211315009Y-45383428D01*
X211200723Y-45383428D01*
X211124533Y-45345333D01*
X211086438Y-45307238D01*
X211048342Y-45231047D01*
X211048342Y-45002476D01*
X211086438Y-44926285D01*
X211124533Y-44888190D01*
X211200723Y-44850095D01*
X211315009Y-44850095D01*
X210362628Y-44850095D02*
X210362628Y-45269142D01*
X210400723Y-45345333D01*
X210476914Y-45383428D01*
X210629295Y-45383428D01*
X210705485Y-45345333D01*
X210362628Y-44888190D02*
X210438819Y-44850095D01*
X210629295Y-44850095D01*
X210705485Y-44888190D01*
X210743580Y-44964380D01*
X210743580Y-45040571D01*
X210705485Y-45116761D01*
X210629295Y-45154857D01*
X210438819Y-45154857D01*
X210362628Y-45192952D01*
X209638819Y-44850095D02*
X209638819Y-45650095D01*
X209638819Y-44888190D02*
X209715009Y-44850095D01*
X209867390Y-44850095D01*
X209943580Y-44888190D01*
X209981676Y-44926285D01*
X210019771Y-45002476D01*
X210019771Y-45231047D01*
X209981676Y-45307238D01*
X209943580Y-45345333D01*
X209867390Y-45383428D01*
X209715009Y-45383428D01*
X209638819Y-45345333D01*
X209295961Y-44888190D02*
X209219771Y-44850095D01*
X209067390Y-44850095D01*
X208991200Y-44888190D01*
X208953104Y-44964380D01*
X208953104Y-45002476D01*
X208991200Y-45078666D01*
X209067390Y-45116761D01*
X209181676Y-45116761D01*
X209257866Y-45154857D01*
X209295961Y-45231047D01*
X209295961Y-45269142D01*
X209257866Y-45345333D01*
X209181676Y-45383428D01*
X209067390Y-45383428D01*
X208991200Y-45345333D01*
X208686438Y-45383428D02*
X208534057Y-44850095D01*
X208381676Y-45231047D01*
X208229295Y-44850095D01*
X208076914Y-45383428D01*
X207772152Y-44850095D02*
X207772152Y-45383428D01*
X207772152Y-45650095D02*
X207810247Y-45612000D01*
X207772152Y-45573904D01*
X207734057Y-45612000D01*
X207772152Y-45650095D01*
X207772152Y-45573904D01*
X207505485Y-45383428D02*
X207200723Y-45383428D01*
X207391200Y-45650095D02*
X207391200Y-44964380D01*
X207353104Y-44888190D01*
X207276914Y-44850095D01*
X207200723Y-44850095D01*
X206591200Y-44888190D02*
X206667390Y-44850095D01*
X206819771Y-44850095D01*
X206895961Y-44888190D01*
X206934057Y-44926285D01*
X206972152Y-45002476D01*
X206972152Y-45231047D01*
X206934057Y-45307238D01*
X206895961Y-45345333D01*
X206819771Y-45383428D01*
X206667390Y-45383428D01*
X206591200Y-45345333D01*
X206248342Y-44850095D02*
X206248342Y-45650095D01*
X205905485Y-44850095D02*
X205905485Y-45269142D01*
X205943580Y-45345333D01*
X206019771Y-45383428D01*
X206134057Y-45383428D01*
X206210247Y-45345333D01*
X206248342Y-45307238D01*
X124669504Y-91103200D02*
X123869504Y-91103200D01*
X123869504Y-90798438D01*
X123907600Y-90722247D01*
X123945695Y-90684152D01*
X124021885Y-90646057D01*
X124136171Y-90646057D01*
X124212361Y-90684152D01*
X124250457Y-90722247D01*
X124288552Y-90798438D01*
X124288552Y-91103200D01*
X124669504Y-90303200D02*
X123869504Y-90303200D01*
X124669504Y-89960342D02*
X124250457Y-89960342D01*
X124174266Y-89998438D01*
X124136171Y-90074628D01*
X124136171Y-90188914D01*
X124174266Y-90265104D01*
X124212361Y-90303200D01*
X124669504Y-89236533D02*
X124250457Y-89236533D01*
X124174266Y-89274628D01*
X124136171Y-89350819D01*
X124136171Y-89503200D01*
X124174266Y-89579390D01*
X124631409Y-89236533D02*
X124669504Y-89312723D01*
X124669504Y-89503200D01*
X124631409Y-89579390D01*
X124555219Y-89617485D01*
X124479028Y-89617485D01*
X124402838Y-89579390D01*
X124364742Y-89503200D01*
X124364742Y-89312723D01*
X124326647Y-89236533D01*
X124631409Y-88893676D02*
X124669504Y-88817485D01*
X124669504Y-88665104D01*
X124631409Y-88588914D01*
X124555219Y-88550819D01*
X124517123Y-88550819D01*
X124440933Y-88588914D01*
X124402838Y-88665104D01*
X124402838Y-88779390D01*
X124364742Y-88855580D01*
X124288552Y-88893676D01*
X124250457Y-88893676D01*
X124174266Y-88855580D01*
X124136171Y-88779390D01*
X124136171Y-88665104D01*
X124174266Y-88588914D01*
X124631409Y-87903200D02*
X124669504Y-87979390D01*
X124669504Y-88131771D01*
X124631409Y-88207961D01*
X124555219Y-88246057D01*
X124250457Y-88246057D01*
X124174266Y-88207961D01*
X124136171Y-88131771D01*
X124136171Y-87979390D01*
X124174266Y-87903200D01*
X124250457Y-87865104D01*
X124326647Y-87865104D01*
X124402838Y-88246057D01*
X124593314Y-87065104D02*
X124631409Y-87103200D01*
X124669504Y-87217485D01*
X124669504Y-87293676D01*
X124631409Y-87407961D01*
X124555219Y-87484152D01*
X124479028Y-87522247D01*
X124326647Y-87560342D01*
X124212361Y-87560342D01*
X124059980Y-87522247D01*
X123983790Y-87484152D01*
X123907600Y-87407961D01*
X123869504Y-87293676D01*
X123869504Y-87217485D01*
X123907600Y-87103200D01*
X123945695Y-87065104D01*
%TO.C,C14*%
X149687942Y-49216057D02*
X149735561Y-49263676D01*
X149783180Y-49406533D01*
X149783180Y-49501771D01*
X149735561Y-49644628D01*
X149640323Y-49739866D01*
X149545085Y-49787485D01*
X149354609Y-49835104D01*
X149211752Y-49835104D01*
X149021276Y-49787485D01*
X148926038Y-49739866D01*
X148830800Y-49644628D01*
X148783180Y-49501771D01*
X148783180Y-49406533D01*
X148830800Y-49263676D01*
X148878419Y-49216057D01*
X149783180Y-48263676D02*
X149783180Y-48835104D01*
X149783180Y-48549390D02*
X148783180Y-48549390D01*
X148926038Y-48644628D01*
X149021276Y-48739866D01*
X149068895Y-48835104D01*
X149116514Y-47406533D02*
X149783180Y-47406533D01*
X148735561Y-47644628D02*
X149449847Y-47882723D01*
X149449847Y-47263676D01*
D13*
%TO.C,C8*%
X138351783Y-50967807D02*
X138333035Y-50986555D01*
X138276792Y-51005302D01*
X138239297Y-51005302D01*
X138183054Y-50986555D01*
X138145558Y-50949059D01*
X138126811Y-50911564D01*
X138108063Y-50836573D01*
X138108063Y-50780330D01*
X138126811Y-50705340D01*
X138145558Y-50667844D01*
X138183054Y-50630349D01*
X138239297Y-50611601D01*
X138276792Y-50611601D01*
X138333035Y-50630349D01*
X138351783Y-50649097D01*
X138576755Y-50780330D02*
X138539259Y-50761583D01*
X138520512Y-50742835D01*
X138501764Y-50705340D01*
X138501764Y-50686592D01*
X138520512Y-50649097D01*
X138539259Y-50630349D01*
X138576755Y-50611601D01*
X138651745Y-50611601D01*
X138689241Y-50630349D01*
X138707988Y-50649097D01*
X138726736Y-50686592D01*
X138726736Y-50705340D01*
X138707988Y-50742835D01*
X138689241Y-50761583D01*
X138651745Y-50780330D01*
X138576755Y-50780330D01*
X138539259Y-50799078D01*
X138520512Y-50817826D01*
X138501764Y-50855321D01*
X138501764Y-50930312D01*
X138520512Y-50967807D01*
X138539259Y-50986555D01*
X138576755Y-51005302D01*
X138651745Y-51005302D01*
X138689241Y-50986555D01*
X138707988Y-50967807D01*
X138726736Y-50930312D01*
X138726736Y-50855321D01*
X138707988Y-50817826D01*
X138689241Y-50799078D01*
X138651745Y-50780330D01*
D10*
%TO.C,Q13*%
X219290971Y-71260819D02*
X219195733Y-71213200D01*
X219100495Y-71117961D01*
X218957638Y-70975104D01*
X218862400Y-70927485D01*
X218767161Y-70927485D01*
X218814780Y-71165580D02*
X218719542Y-71117961D01*
X218624304Y-71022723D01*
X218576685Y-70832247D01*
X218576685Y-70498914D01*
X218624304Y-70308438D01*
X218719542Y-70213200D01*
X218814780Y-70165580D01*
X219005257Y-70165580D01*
X219100495Y-70213200D01*
X219195733Y-70308438D01*
X219243352Y-70498914D01*
X219243352Y-70832247D01*
X219195733Y-71022723D01*
X219100495Y-71117961D01*
X219005257Y-71165580D01*
X218814780Y-71165580D01*
X220195733Y-71165580D02*
X219624304Y-71165580D01*
X219910019Y-71165580D02*
X219910019Y-70165580D01*
X219814780Y-70308438D01*
X219719542Y-70403676D01*
X219624304Y-70451295D01*
X220529066Y-70165580D02*
X221148114Y-70165580D01*
X220814780Y-70546533D01*
X220957638Y-70546533D01*
X221052876Y-70594152D01*
X221100495Y-70641771D01*
X221148114Y-70737009D01*
X221148114Y-70975104D01*
X221100495Y-71070342D01*
X221052876Y-71117961D01*
X220957638Y-71165580D01*
X220671923Y-71165580D01*
X220576685Y-71117961D01*
X220529066Y-71070342D01*
%TO.C,C1*%
X111339333Y-48007542D02*
X111291714Y-48055161D01*
X111148857Y-48102780D01*
X111053619Y-48102780D01*
X110910761Y-48055161D01*
X110815523Y-47959923D01*
X110767904Y-47864685D01*
X110720285Y-47674209D01*
X110720285Y-47531352D01*
X110767904Y-47340876D01*
X110815523Y-47245638D01*
X110910761Y-47150400D01*
X111053619Y-47102780D01*
X111148857Y-47102780D01*
X111291714Y-47150400D01*
X111339333Y-47198019D01*
X112291714Y-48102780D02*
X111720285Y-48102780D01*
X112006000Y-48102780D02*
X112006000Y-47102780D01*
X111910761Y-47245638D01*
X111815523Y-47340876D01*
X111720285Y-47388495D01*
D13*
%TO.C,C7*%
X138351783Y-45887807D02*
X138333035Y-45906555D01*
X138276792Y-45925302D01*
X138239297Y-45925302D01*
X138183054Y-45906555D01*
X138145558Y-45869059D01*
X138126811Y-45831564D01*
X138108063Y-45756573D01*
X138108063Y-45700330D01*
X138126811Y-45625340D01*
X138145558Y-45587844D01*
X138183054Y-45550349D01*
X138239297Y-45531601D01*
X138276792Y-45531601D01*
X138333035Y-45550349D01*
X138351783Y-45569097D01*
X138483016Y-45531601D02*
X138745484Y-45531601D01*
X138576755Y-45925302D01*
D10*
%TO.C,D1*%
X156691104Y-67939875D02*
X156691104Y-66939875D01*
X156929200Y-66939875D01*
X157072057Y-66987495D01*
X157167295Y-67082733D01*
X157214914Y-67177971D01*
X157262533Y-67368447D01*
X157262533Y-67511304D01*
X157214914Y-67701780D01*
X157167295Y-67797018D01*
X157072057Y-67892256D01*
X156929200Y-67939875D01*
X156691104Y-67939875D01*
X158214914Y-67939875D02*
X157643485Y-67939875D01*
X157929200Y-67939875D02*
X157929200Y-66939875D01*
X157833961Y-67082733D01*
X157738723Y-67177971D01*
X157643485Y-67225590D01*
D13*
%TO.C,C4*%
X138402583Y-61538207D02*
X138383835Y-61556955D01*
X138327592Y-61575702D01*
X138290097Y-61575702D01*
X138233854Y-61556955D01*
X138196358Y-61519459D01*
X138177611Y-61481964D01*
X138158863Y-61406973D01*
X138158863Y-61350730D01*
X138177611Y-61275740D01*
X138196358Y-61238244D01*
X138233854Y-61200749D01*
X138290097Y-61182001D01*
X138327592Y-61182001D01*
X138383835Y-61200749D01*
X138402583Y-61219497D01*
X138740041Y-61313235D02*
X138740041Y-61575702D01*
X138646302Y-61163254D02*
X138552564Y-61444469D01*
X138796284Y-61444469D01*
D10*
%TO.C,Q3*%
X81832819Y-66520438D02*
X81785200Y-66615676D01*
X81689961Y-66710914D01*
X81547104Y-66853771D01*
X81499485Y-66949009D01*
X81499485Y-67044247D01*
X81737580Y-66996628D02*
X81689961Y-67091866D01*
X81594723Y-67187104D01*
X81404247Y-67234723D01*
X81070914Y-67234723D01*
X80880438Y-67187104D01*
X80785200Y-67091866D01*
X80737580Y-66996628D01*
X80737580Y-66806152D01*
X80785200Y-66710914D01*
X80880438Y-66615676D01*
X81070914Y-66568057D01*
X81404247Y-66568057D01*
X81594723Y-66615676D01*
X81689961Y-66710914D01*
X81737580Y-66806152D01*
X81737580Y-66996628D01*
X80737580Y-66234723D02*
X80737580Y-65615676D01*
X81118533Y-65949009D01*
X81118533Y-65806152D01*
X81166152Y-65710914D01*
X81213771Y-65663295D01*
X81309009Y-65615676D01*
X81547104Y-65615676D01*
X81642342Y-65663295D01*
X81689961Y-65710914D01*
X81737580Y-65806152D01*
X81737580Y-66091866D01*
X81689961Y-66187104D01*
X81642342Y-66234723D01*
%TO.C,J4*%
X222543619Y-45894666D02*
X221829333Y-45894666D01*
X221686476Y-45847047D01*
X221591238Y-45751809D01*
X221543619Y-45608952D01*
X221543619Y-45513714D01*
X222210285Y-46799428D02*
X221543619Y-46799428D01*
X222591238Y-46561333D02*
X221876952Y-46323238D01*
X221876952Y-46942285D01*
D13*
%TO.C,C11*%
X203273106Y-83978607D02*
X203254358Y-83997355D01*
X203198115Y-84016102D01*
X203160620Y-84016102D01*
X203104377Y-83997355D01*
X203066882Y-83959859D01*
X203048134Y-83922364D01*
X203029386Y-83847373D01*
X203029386Y-83791130D01*
X203048134Y-83716140D01*
X203066882Y-83678644D01*
X203104377Y-83641149D01*
X203160620Y-83622401D01*
X203198115Y-83622401D01*
X203254358Y-83641149D01*
X203273106Y-83659897D01*
X203648059Y-84016102D02*
X203423087Y-84016102D01*
X203535573Y-84016102D02*
X203535573Y-83622401D01*
X203498078Y-83678644D01*
X203460583Y-83716140D01*
X203423087Y-83734887D01*
X204023013Y-84016102D02*
X203798041Y-84016102D01*
X203910527Y-84016102D02*
X203910527Y-83622401D01*
X203873031Y-83678644D01*
X203835536Y-83716140D01*
X203798041Y-83734887D01*
D10*
%TO.C,D2*%
X196419695Y-47312319D02*
X196419695Y-48312319D01*
X196181600Y-48312319D01*
X196038742Y-48264700D01*
X195943504Y-48169461D01*
X195895885Y-48074223D01*
X195848266Y-47883747D01*
X195848266Y-47740890D01*
X195895885Y-47550414D01*
X195943504Y-47455176D01*
X196038742Y-47359938D01*
X196181600Y-47312319D01*
X196419695Y-47312319D01*
X195467314Y-48217080D02*
X195419695Y-48264700D01*
X195324457Y-48312319D01*
X195086361Y-48312319D01*
X194991123Y-48264700D01*
X194943504Y-48217080D01*
X194895885Y-48121842D01*
X194895885Y-48026604D01*
X194943504Y-47883747D01*
X195514933Y-47312319D01*
X194895885Y-47312319D01*
X200888600Y-47880519D02*
X200888600Y-47642423D01*
X201126695Y-47737661D02*
X200888600Y-47642423D01*
X200650504Y-47737661D01*
X201031457Y-47451947D02*
X200888600Y-47642423D01*
X200745742Y-47451947D01*
X200888600Y-46785280D02*
X200888600Y-47023376D01*
X200650504Y-46928138D02*
X200888600Y-47023376D01*
X201126695Y-46928138D01*
X200745742Y-47213852D02*
X200888600Y-47023376D01*
X201031457Y-47213852D01*
%TO.C,Q7*%
X183249819Y-75990438D02*
X183202200Y-76085676D01*
X183106961Y-76180914D01*
X182964104Y-76323771D01*
X182916485Y-76419009D01*
X182916485Y-76514247D01*
X183154580Y-76466628D02*
X183106961Y-76561866D01*
X183011723Y-76657104D01*
X182821247Y-76704723D01*
X182487914Y-76704723D01*
X182297438Y-76657104D01*
X182202200Y-76561866D01*
X182154580Y-76466628D01*
X182154580Y-76276152D01*
X182202200Y-76180914D01*
X182297438Y-76085676D01*
X182487914Y-76038057D01*
X182821247Y-76038057D01*
X183011723Y-76085676D01*
X183106961Y-76180914D01*
X183154580Y-76276152D01*
X183154580Y-76466628D01*
X182154580Y-75704723D02*
X182154580Y-75038057D01*
X183154580Y-75466628D01*
D13*
%TO.C,C12*%
X213176207Y-75307693D02*
X213194955Y-75326441D01*
X213213702Y-75382684D01*
X213213702Y-75420179D01*
X213194955Y-75476422D01*
X213157459Y-75513917D01*
X213119964Y-75532665D01*
X213044973Y-75551413D01*
X212988730Y-75551413D01*
X212913740Y-75532665D01*
X212876244Y-75513917D01*
X212838749Y-75476422D01*
X212820001Y-75420179D01*
X212820001Y-75382684D01*
X212838749Y-75326441D01*
X212857497Y-75307693D01*
X213213702Y-74932740D02*
X213213702Y-75157712D01*
X213213702Y-75045226D02*
X212820001Y-75045226D01*
X212876244Y-75082721D01*
X212913740Y-75120216D01*
X212932487Y-75157712D01*
X212857497Y-74782758D02*
X212838749Y-74764011D01*
X212820001Y-74726515D01*
X212820001Y-74632777D01*
X212838749Y-74595282D01*
X212857497Y-74576534D01*
X212894992Y-74557786D01*
X212932487Y-74557786D01*
X212988730Y-74576534D01*
X213213702Y-74801506D01*
X213213702Y-74557786D01*
D10*
%TO.C,Q10*%
X210008819Y-77140041D02*
X209961200Y-77235279D01*
X209865961Y-77330517D01*
X209723104Y-77473374D01*
X209675485Y-77568613D01*
X209675485Y-77663851D01*
X209913580Y-77616232D02*
X209865961Y-77711470D01*
X209770723Y-77806708D01*
X209580247Y-77854327D01*
X209246914Y-77854327D01*
X209056438Y-77806708D01*
X208961200Y-77711470D01*
X208913580Y-77616232D01*
X208913580Y-77425755D01*
X208961200Y-77330517D01*
X209056438Y-77235279D01*
X209246914Y-77187660D01*
X209580247Y-77187660D01*
X209770723Y-77235279D01*
X209865961Y-77330517D01*
X209913580Y-77425755D01*
X209913580Y-77616232D01*
X209913580Y-76235279D02*
X209913580Y-76806708D01*
X209913580Y-76520993D02*
X208913580Y-76520993D01*
X209056438Y-76616232D01*
X209151676Y-76711470D01*
X209199295Y-76806708D01*
X208913580Y-75616232D02*
X208913580Y-75520993D01*
X208961200Y-75425755D01*
X209008819Y-75378136D01*
X209104057Y-75330517D01*
X209294533Y-75282898D01*
X209532628Y-75282898D01*
X209723104Y-75330517D01*
X209818342Y-75378136D01*
X209865961Y-75425755D01*
X209913580Y-75520993D01*
X209913580Y-75616232D01*
X209865961Y-75711470D01*
X209818342Y-75759089D01*
X209723104Y-75806708D01*
X209532628Y-75854327D01*
X209294533Y-75854327D01*
X209104057Y-75806708D01*
X209008819Y-75759089D01*
X208961200Y-75711470D01*
X208913580Y-75616232D01*
%TO.C,Q4*%
X109610019Y-88559238D02*
X109562400Y-88654476D01*
X109467161Y-88749714D01*
X109324304Y-88892571D01*
X109276685Y-88987809D01*
X109276685Y-89083047D01*
X109514780Y-89035428D02*
X109467161Y-89130666D01*
X109371923Y-89225904D01*
X109181447Y-89273523D01*
X108848114Y-89273523D01*
X108657638Y-89225904D01*
X108562400Y-89130666D01*
X108514780Y-89035428D01*
X108514780Y-88844952D01*
X108562400Y-88749714D01*
X108657638Y-88654476D01*
X108848114Y-88606857D01*
X109181447Y-88606857D01*
X109371923Y-88654476D01*
X109467161Y-88749714D01*
X109514780Y-88844952D01*
X109514780Y-89035428D01*
X108848114Y-87749714D02*
X109514780Y-87749714D01*
X108467161Y-87987809D02*
X109181447Y-88225904D01*
X109181447Y-87606857D01*
%TO.C,J2*%
X124457434Y-44743618D02*
X124457434Y-44029332D01*
X124505053Y-43886475D01*
X124600291Y-43791237D01*
X124743148Y-43743618D01*
X124838386Y-43743618D01*
X124028862Y-44648379D02*
X123981243Y-44695999D01*
X123886005Y-44743618D01*
X123647910Y-44743618D01*
X123552672Y-44695999D01*
X123505053Y-44648379D01*
X123457434Y-44553141D01*
X123457434Y-44457903D01*
X123505053Y-44315046D01*
X124076481Y-43743618D01*
X123457434Y-43743618D01*
%TO.C,Q12*%
X219290971Y-77462819D02*
X219195733Y-77415200D01*
X219100495Y-77319961D01*
X218957638Y-77177104D01*
X218862400Y-77129485D01*
X218767161Y-77129485D01*
X218814780Y-77367580D02*
X218719542Y-77319961D01*
X218624304Y-77224723D01*
X218576685Y-77034247D01*
X218576685Y-76700914D01*
X218624304Y-76510438D01*
X218719542Y-76415200D01*
X218814780Y-76367580D01*
X219005257Y-76367580D01*
X219100495Y-76415200D01*
X219195733Y-76510438D01*
X219243352Y-76700914D01*
X219243352Y-77034247D01*
X219195733Y-77224723D01*
X219100495Y-77319961D01*
X219005257Y-77367580D01*
X218814780Y-77367580D01*
X220195733Y-77367580D02*
X219624304Y-77367580D01*
X219910019Y-77367580D02*
X219910019Y-76367580D01*
X219814780Y-76510438D01*
X219719542Y-76605676D01*
X219624304Y-76653295D01*
X220576685Y-76462819D02*
X220624304Y-76415200D01*
X220719542Y-76367580D01*
X220957638Y-76367580D01*
X221052876Y-76415200D01*
X221100495Y-76462819D01*
X221148114Y-76558057D01*
X221148114Y-76653295D01*
X221100495Y-76796152D01*
X220529066Y-77367580D01*
X221148114Y-77367580D01*
%TO.C,R7*%
X184389733Y-40076380D02*
X184056400Y-39600190D01*
X183818304Y-40076380D02*
X183818304Y-39076380D01*
X184199257Y-39076380D01*
X184294495Y-39124000D01*
X184342114Y-39171619D01*
X184389733Y-39266857D01*
X184389733Y-39409714D01*
X184342114Y-39504952D01*
X184294495Y-39552571D01*
X184199257Y-39600190D01*
X183818304Y-39600190D01*
X184723066Y-39076380D02*
X185389733Y-39076380D01*
X184961161Y-40076380D01*
D13*
%TO.C,C6*%
X138351783Y-40807807D02*
X138333035Y-40826555D01*
X138276792Y-40845302D01*
X138239297Y-40845302D01*
X138183054Y-40826555D01*
X138145558Y-40789059D01*
X138126811Y-40751564D01*
X138108063Y-40676573D01*
X138108063Y-40620330D01*
X138126811Y-40545340D01*
X138145558Y-40507844D01*
X138183054Y-40470349D01*
X138239297Y-40451601D01*
X138276792Y-40451601D01*
X138333035Y-40470349D01*
X138351783Y-40489097D01*
X138689241Y-40451601D02*
X138614250Y-40451601D01*
X138576755Y-40470349D01*
X138558007Y-40489097D01*
X138520512Y-40545340D01*
X138501764Y-40620330D01*
X138501764Y-40770312D01*
X138520512Y-40807807D01*
X138539259Y-40826555D01*
X138576755Y-40845302D01*
X138651745Y-40845302D01*
X138689241Y-40826555D01*
X138707988Y-40807807D01*
X138726736Y-40770312D01*
X138726736Y-40676573D01*
X138707988Y-40639078D01*
X138689241Y-40620330D01*
X138651745Y-40601583D01*
X138576755Y-40601583D01*
X138539259Y-40620330D01*
X138520512Y-40639078D01*
X138501764Y-40676573D01*
%TO.C,C9*%
X146042783Y-56458207D02*
X146024035Y-56476955D01*
X145967792Y-56495702D01*
X145930297Y-56495702D01*
X145874054Y-56476955D01*
X145836558Y-56439459D01*
X145817811Y-56401964D01*
X145799063Y-56326973D01*
X145799063Y-56270730D01*
X145817811Y-56195740D01*
X145836558Y-56158244D01*
X145874054Y-56120749D01*
X145930297Y-56102001D01*
X145967792Y-56102001D01*
X146024035Y-56120749D01*
X146042783Y-56139497D01*
X146230259Y-56495702D02*
X146305250Y-56495702D01*
X146342745Y-56476955D01*
X146361493Y-56458207D01*
X146398988Y-56401964D01*
X146417736Y-56326973D01*
X146417736Y-56176992D01*
X146398988Y-56139497D01*
X146380241Y-56120749D01*
X146342745Y-56102001D01*
X146267755Y-56102001D01*
X146230259Y-56120749D01*
X146211512Y-56139497D01*
X146192764Y-56176992D01*
X146192764Y-56270730D01*
X146211512Y-56308226D01*
X146230259Y-56326973D01*
X146267755Y-56345721D01*
X146342745Y-56345721D01*
X146380241Y-56326973D01*
X146398988Y-56308226D01*
X146417736Y-56270730D01*
D10*
%TO.C,Q8*%
X175147219Y-75787238D02*
X175099600Y-75882476D01*
X175004361Y-75977714D01*
X174861504Y-76120571D01*
X174813885Y-76215809D01*
X174813885Y-76311047D01*
X175051980Y-76263428D02*
X175004361Y-76358666D01*
X174909123Y-76453904D01*
X174718647Y-76501523D01*
X174385314Y-76501523D01*
X174194838Y-76453904D01*
X174099600Y-76358666D01*
X174051980Y-76263428D01*
X174051980Y-76072952D01*
X174099600Y-75977714D01*
X174194838Y-75882476D01*
X174385314Y-75834857D01*
X174718647Y-75834857D01*
X174909123Y-75882476D01*
X175004361Y-75977714D01*
X175051980Y-76072952D01*
X175051980Y-76263428D01*
X174480552Y-75263428D02*
X174432933Y-75358666D01*
X174385314Y-75406285D01*
X174290076Y-75453904D01*
X174242457Y-75453904D01*
X174147219Y-75406285D01*
X174099600Y-75358666D01*
X174051980Y-75263428D01*
X174051980Y-75072952D01*
X174099600Y-74977714D01*
X174147219Y-74930095D01*
X174242457Y-74882476D01*
X174290076Y-74882476D01*
X174385314Y-74930095D01*
X174432933Y-74977714D01*
X174480552Y-75072952D01*
X174480552Y-75263428D01*
X174528171Y-75358666D01*
X174575790Y-75406285D01*
X174671028Y-75453904D01*
X174861504Y-75453904D01*
X174956742Y-75406285D01*
X175004361Y-75358666D01*
X175051980Y-75263428D01*
X175051980Y-75072952D01*
X175004361Y-74977714D01*
X174956742Y-74930095D01*
X174861504Y-74882476D01*
X174671028Y-74882476D01*
X174575790Y-74930095D01*
X174528171Y-74977714D01*
X174480552Y-75072952D01*
%TO.C,Q11*%
X203552819Y-77125428D02*
X203505200Y-77220666D01*
X203409961Y-77315904D01*
X203267104Y-77458761D01*
X203219485Y-77554000D01*
X203219485Y-77649238D01*
X203457580Y-77601619D02*
X203409961Y-77696857D01*
X203314723Y-77792095D01*
X203124247Y-77839714D01*
X202790914Y-77839714D01*
X202600438Y-77792095D01*
X202505200Y-77696857D01*
X202457580Y-77601619D01*
X202457580Y-77411142D01*
X202505200Y-77315904D01*
X202600438Y-77220666D01*
X202790914Y-77173047D01*
X203124247Y-77173047D01*
X203314723Y-77220666D01*
X203409961Y-77315904D01*
X203457580Y-77411142D01*
X203457580Y-77601619D01*
X203457580Y-76220666D02*
X203457580Y-76792095D01*
X203457580Y-76506380D02*
X202457580Y-76506380D01*
X202600438Y-76601619D01*
X202695676Y-76696857D01*
X202743295Y-76792095D01*
X203457580Y-75268285D02*
X203457580Y-75839714D01*
X203457580Y-75554000D02*
X202457580Y-75554000D01*
X202600438Y-75649238D01*
X202695676Y-75744476D01*
X202743295Y-75839714D01*
%TO.C,J6*%
X210055434Y-43211618D02*
X210055434Y-42497332D01*
X210103053Y-42354475D01*
X210198291Y-42259237D01*
X210341148Y-42211618D01*
X210436386Y-42211618D01*
X209150672Y-43211618D02*
X209341148Y-43211618D01*
X209436386Y-43163999D01*
X209484005Y-43116379D01*
X209579243Y-42973522D01*
X209626862Y-42783046D01*
X209626862Y-42402094D01*
X209579243Y-42306856D01*
X209531624Y-42259237D01*
X209436386Y-42211618D01*
X209245910Y-42211618D01*
X209150672Y-42259237D01*
X209103053Y-42306856D01*
X209055434Y-42402094D01*
X209055434Y-42640189D01*
X209103053Y-42735427D01*
X209150672Y-42783046D01*
X209245910Y-42830665D01*
X209436386Y-42830665D01*
X209531624Y-42783046D01*
X209579243Y-42735427D01*
X209626862Y-42640189D01*
%TO.C,Q5*%
X112759619Y-70296638D02*
X112712000Y-70391876D01*
X112616761Y-70487114D01*
X112473904Y-70629971D01*
X112426285Y-70725209D01*
X112426285Y-70820447D01*
X112664380Y-70772828D02*
X112616761Y-70868066D01*
X112521523Y-70963304D01*
X112331047Y-71010923D01*
X111997714Y-71010923D01*
X111807238Y-70963304D01*
X111712000Y-70868066D01*
X111664380Y-70772828D01*
X111664380Y-70582352D01*
X111712000Y-70487114D01*
X111807238Y-70391876D01*
X111997714Y-70344257D01*
X112331047Y-70344257D01*
X112521523Y-70391876D01*
X112616761Y-70487114D01*
X112664380Y-70582352D01*
X112664380Y-70772828D01*
X111664380Y-69439495D02*
X111664380Y-69915685D01*
X112140571Y-69963304D01*
X112092952Y-69915685D01*
X112045333Y-69820447D01*
X112045333Y-69582352D01*
X112092952Y-69487114D01*
X112140571Y-69439495D01*
X112235809Y-69391876D01*
X112473904Y-69391876D01*
X112569142Y-69439495D01*
X112616761Y-69487114D01*
X112664380Y-69582352D01*
X112664380Y-69820447D01*
X112616761Y-69915685D01*
X112569142Y-69963304D01*
%TO.C,J1*%
X73364636Y-91844959D02*
X74078922Y-91844959D01*
X74221779Y-91892578D01*
X74317017Y-91987816D01*
X74364636Y-92130673D01*
X74364636Y-92225911D01*
X74364636Y-90844959D02*
X74364636Y-91416387D01*
X74364636Y-91130673D02*
X73364636Y-91130673D01*
X73507494Y-91225911D01*
X73602732Y-91321149D01*
X73650351Y-91416387D01*
%TO.C,C13*%
X178571257Y-56567743D02*
X178523638Y-56520124D01*
X178476019Y-56377267D01*
X178476019Y-56282029D01*
X178523638Y-56139172D01*
X178618876Y-56043934D01*
X178714114Y-55996315D01*
X178904590Y-55948696D01*
X179047447Y-55948696D01*
X179237923Y-55996315D01*
X179333161Y-56043934D01*
X179428400Y-56139172D01*
X179476019Y-56282029D01*
X179476019Y-56377267D01*
X179428400Y-56520124D01*
X179380780Y-56567743D01*
X178476019Y-57520124D02*
X178476019Y-56948696D01*
X178476019Y-57234410D02*
X179476019Y-57234410D01*
X179333161Y-57139172D01*
X179237923Y-57043934D01*
X179190304Y-56948696D01*
X179476019Y-57853458D02*
X179476019Y-58472505D01*
X179095066Y-58139172D01*
X179095066Y-58282029D01*
X179047447Y-58377267D01*
X178999828Y-58424886D01*
X178904590Y-58472505D01*
X178666495Y-58472505D01*
X178571257Y-58424886D01*
X178523638Y-58377267D01*
X178476019Y-58282029D01*
X178476019Y-57996315D01*
X178523638Y-57901077D01*
X178571257Y-57853458D01*
%TO.C,R4*%
X128706619Y-43267333D02*
X129182809Y-42934000D01*
X128706619Y-42695904D02*
X129706619Y-42695904D01*
X129706619Y-43076857D01*
X129659000Y-43172095D01*
X129611380Y-43219714D01*
X129516142Y-43267333D01*
X129373285Y-43267333D01*
X129278047Y-43219714D01*
X129230428Y-43172095D01*
X129182809Y-43076857D01*
X129182809Y-42695904D01*
X129373285Y-44124476D02*
X128706619Y-44124476D01*
X129754238Y-43886380D02*
X129039952Y-43648285D01*
X129039952Y-44267333D01*
%TO.C,C15*%
X163444979Y-46748355D02*
X163444979Y-46815699D01*
X163377635Y-46950386D01*
X163310292Y-47017729D01*
X163175605Y-47085073D01*
X163040918Y-47085073D01*
X162939903Y-47051401D01*
X162771544Y-46950386D01*
X162670529Y-46849371D01*
X162569513Y-46681012D01*
X162535842Y-46579997D01*
X162535842Y-46445310D01*
X162603185Y-46310623D01*
X162670529Y-46243279D01*
X162805216Y-46175936D01*
X162872559Y-46175936D01*
X164185758Y-46142264D02*
X163781697Y-46546325D01*
X163983727Y-46344294D02*
X163276620Y-45637187D01*
X163310292Y-45805546D01*
X163310292Y-45940233D01*
X163276620Y-46041249D01*
X164118414Y-44795394D02*
X163781697Y-45132111D01*
X164084742Y-45502500D01*
X164084742Y-45435157D01*
X164118414Y-45334142D01*
X164286773Y-45165783D01*
X164387788Y-45132111D01*
X164455132Y-45132111D01*
X164556147Y-45165783D01*
X164724506Y-45334142D01*
X164758177Y-45435157D01*
X164758177Y-45502500D01*
X164724506Y-45603516D01*
X164556147Y-45771874D01*
X164455132Y-45805546D01*
X164387788Y-45805546D01*
%TO.C,R2*%
X95715733Y-76906380D02*
X95382400Y-76430190D01*
X95144304Y-76906380D02*
X95144304Y-75906380D01*
X95525257Y-75906380D01*
X95620495Y-75954000D01*
X95668114Y-76001619D01*
X95715733Y-76096857D01*
X95715733Y-76239714D01*
X95668114Y-76334952D01*
X95620495Y-76382571D01*
X95525257Y-76430190D01*
X95144304Y-76430190D01*
X96096685Y-76001619D02*
X96144304Y-75954000D01*
X96239542Y-75906380D01*
X96477638Y-75906380D01*
X96572876Y-75954000D01*
X96620495Y-76001619D01*
X96668114Y-76096857D01*
X96668114Y-76192095D01*
X96620495Y-76334952D01*
X96049066Y-76906380D01*
X96668114Y-76906380D01*
%TO.C,J3*%
X223559619Y-77898666D02*
X222845333Y-77898666D01*
X222702476Y-77851047D01*
X222607238Y-77755809D01*
X222559619Y-77612952D01*
X222559619Y-77517714D01*
X223559619Y-78279619D02*
X223559619Y-78898666D01*
X223178666Y-78565333D01*
X223178666Y-78708190D01*
X223131047Y-78803428D01*
X223083428Y-78851047D01*
X222988190Y-78898666D01*
X222750095Y-78898666D01*
X222654857Y-78851047D01*
X222607238Y-78803428D01*
X222559619Y-78708190D01*
X222559619Y-78422476D01*
X222607238Y-78327238D01*
X222654857Y-78279619D01*
%TO.C,J5*%
X165681066Y-94448380D02*
X165681066Y-95162666D01*
X165633447Y-95305523D01*
X165538209Y-95400761D01*
X165395352Y-95448380D01*
X165300114Y-95448380D01*
X166633447Y-94448380D02*
X166157257Y-94448380D01*
X166109638Y-94924571D01*
X166157257Y-94876952D01*
X166252495Y-94829333D01*
X166490590Y-94829333D01*
X166585828Y-94876952D01*
X166633447Y-94924571D01*
X166681066Y-95019809D01*
X166681066Y-95257904D01*
X166633447Y-95353142D01*
X166585828Y-95400761D01*
X166490590Y-95448380D01*
X166252495Y-95448380D01*
X166157257Y-95400761D01*
X166109638Y-95353142D01*
%TO.C,R1*%
X94813380Y-96940666D02*
X94337190Y-97274000D01*
X94813380Y-97512095D02*
X93813380Y-97512095D01*
X93813380Y-97131142D01*
X93861000Y-97035904D01*
X93908619Y-96988285D01*
X94003857Y-96940666D01*
X94146714Y-96940666D01*
X94241952Y-96988285D01*
X94289571Y-97035904D01*
X94337190Y-97131142D01*
X94337190Y-97512095D01*
X94813380Y-95988285D02*
X94813380Y-96559714D01*
X94813380Y-96274000D02*
X93813380Y-96274000D01*
X93956238Y-96369238D01*
X94051476Y-96464476D01*
X94099095Y-96559714D01*
%TO.C,R8*%
X194467219Y-76287333D02*
X194943409Y-75954000D01*
X194467219Y-75715904D02*
X195467219Y-75715904D01*
X195467219Y-76096857D01*
X195419600Y-76192095D01*
X195371980Y-76239714D01*
X195276742Y-76287333D01*
X195133885Y-76287333D01*
X195038647Y-76239714D01*
X194991028Y-76192095D01*
X194943409Y-76096857D01*
X194943409Y-75715904D01*
X195038647Y-76858761D02*
X195086266Y-76763523D01*
X195133885Y-76715904D01*
X195229123Y-76668285D01*
X195276742Y-76668285D01*
X195371980Y-76715904D01*
X195419600Y-76763523D01*
X195467219Y-76858761D01*
X195467219Y-77049238D01*
X195419600Y-77144476D01*
X195371980Y-77192095D01*
X195276742Y-77239714D01*
X195229123Y-77239714D01*
X195133885Y-77192095D01*
X195086266Y-77144476D01*
X195038647Y-77049238D01*
X195038647Y-76858761D01*
X194991028Y-76763523D01*
X194943409Y-76715904D01*
X194848171Y-76668285D01*
X194657695Y-76668285D01*
X194562457Y-76715904D01*
X194514838Y-76763523D01*
X194467219Y-76858761D01*
X194467219Y-77049238D01*
X194514838Y-77144476D01*
X194562457Y-77192095D01*
X194657695Y-77239714D01*
X194848171Y-77239714D01*
X194943409Y-77192095D01*
X194991028Y-77144476D01*
X195038647Y-77049238D01*
%TO.C,Q6*%
X96630619Y-67032738D02*
X96583000Y-67127976D01*
X96487761Y-67223214D01*
X96344904Y-67366071D01*
X96297285Y-67461309D01*
X96297285Y-67556547D01*
X96535380Y-67508928D02*
X96487761Y-67604166D01*
X96392523Y-67699404D01*
X96202047Y-67747023D01*
X95868714Y-67747023D01*
X95678238Y-67699404D01*
X95583000Y-67604166D01*
X95535380Y-67508928D01*
X95535380Y-67318452D01*
X95583000Y-67223214D01*
X95678238Y-67127976D01*
X95868714Y-67080357D01*
X96202047Y-67080357D01*
X96392523Y-67127976D01*
X96487761Y-67223214D01*
X96535380Y-67318452D01*
X96535380Y-67508928D01*
X95535380Y-66223214D02*
X95535380Y-66413690D01*
X95583000Y-66508928D01*
X95630619Y-66556547D01*
X95773476Y-66651785D01*
X95963952Y-66699404D01*
X96344904Y-66699404D01*
X96440142Y-66651785D01*
X96487761Y-66604166D01*
X96535380Y-66508928D01*
X96535380Y-66318452D01*
X96487761Y-66223214D01*
X96440142Y-66175595D01*
X96344904Y-66127976D01*
X96106809Y-66127976D01*
X96011571Y-66175595D01*
X95963952Y-66223214D01*
X95916333Y-66318452D01*
X95916333Y-66508928D01*
X95963952Y-66604166D01*
X96011571Y-66651785D01*
X96106809Y-66699404D01*
%TO.C,R3*%
X83510380Y-75858666D02*
X83034190Y-76192000D01*
X83510380Y-76430095D02*
X82510380Y-76430095D01*
X82510380Y-76049142D01*
X82558000Y-75953904D01*
X82605619Y-75906285D01*
X82700857Y-75858666D01*
X82843714Y-75858666D01*
X82938952Y-75906285D01*
X82986571Y-75953904D01*
X83034190Y-76049142D01*
X83034190Y-76430095D01*
X82510380Y-75525333D02*
X82510380Y-74906285D01*
X82891333Y-75239619D01*
X82891333Y-75096761D01*
X82938952Y-75001523D01*
X82986571Y-74953904D01*
X83081809Y-74906285D01*
X83319904Y-74906285D01*
X83415142Y-74953904D01*
X83462761Y-75001523D01*
X83510380Y-75096761D01*
X83510380Y-75382476D01*
X83462761Y-75477714D01*
X83415142Y-75525333D01*
D13*
%TO.C,C3*%
X138402583Y-56458207D02*
X138383835Y-56476955D01*
X138327592Y-56495702D01*
X138290097Y-56495702D01*
X138233854Y-56476955D01*
X138196358Y-56439459D01*
X138177611Y-56401964D01*
X138158863Y-56326973D01*
X138158863Y-56270730D01*
X138177611Y-56195740D01*
X138196358Y-56158244D01*
X138233854Y-56120749D01*
X138290097Y-56102001D01*
X138327592Y-56102001D01*
X138383835Y-56120749D01*
X138402583Y-56139497D01*
X138533816Y-56102001D02*
X138777536Y-56102001D01*
X138646302Y-56251983D01*
X138702545Y-56251983D01*
X138740041Y-56270730D01*
X138758788Y-56289478D01*
X138777536Y-56326973D01*
X138777536Y-56420712D01*
X138758788Y-56458207D01*
X138740041Y-56476955D01*
X138702545Y-56495702D01*
X138590059Y-56495702D01*
X138552564Y-56476955D01*
X138533816Y-56458207D01*
D14*
%TO.C,R5*%
X169066057Y-80063200D02*
X169494628Y-79763200D01*
X169066057Y-79548914D02*
X169966057Y-79548914D01*
X169966057Y-79891771D01*
X169923200Y-79977485D01*
X169880342Y-80020342D01*
X169794628Y-80063200D01*
X169666057Y-80063200D01*
X169580342Y-80020342D01*
X169537485Y-79977485D01*
X169494628Y-79891771D01*
X169494628Y-79548914D01*
X169966057Y-80877485D02*
X169966057Y-80448914D01*
X169537485Y-80406057D01*
X169580342Y-80448914D01*
X169623200Y-80534628D01*
X169623200Y-80748914D01*
X169580342Y-80834628D01*
X169537485Y-80877485D01*
X169451771Y-80920342D01*
X169237485Y-80920342D01*
X169151771Y-80877485D01*
X169108914Y-80834628D01*
X169066057Y-80748914D01*
X169066057Y-80534628D01*
X169108914Y-80448914D01*
X169151771Y-80406057D01*
D13*
%TO.C,C2*%
X171681583Y-86977407D02*
X171662835Y-86996155D01*
X171606592Y-87014902D01*
X171569097Y-87014902D01*
X171512854Y-86996155D01*
X171475358Y-86958659D01*
X171456611Y-86921164D01*
X171437863Y-86846173D01*
X171437863Y-86789930D01*
X171456611Y-86714940D01*
X171475358Y-86677444D01*
X171512854Y-86639949D01*
X171569097Y-86621201D01*
X171606592Y-86621201D01*
X171662835Y-86639949D01*
X171681583Y-86658697D01*
X171831564Y-86658697D02*
X171850312Y-86639949D01*
X171887807Y-86621201D01*
X171981545Y-86621201D01*
X172019041Y-86639949D01*
X172037788Y-86658697D01*
X172056536Y-86696192D01*
X172056536Y-86733687D01*
X172037788Y-86789930D01*
X171812816Y-87014902D01*
X172056536Y-87014902D01*
D10*
%TO.C,Q2*%
X98063419Y-69670038D02*
X98015800Y-69765276D01*
X97920561Y-69860514D01*
X97777704Y-70003371D01*
X97730085Y-70098609D01*
X97730085Y-70193847D01*
X97968180Y-70146228D02*
X97920561Y-70241466D01*
X97825323Y-70336704D01*
X97634847Y-70384323D01*
X97301514Y-70384323D01*
X97111038Y-70336704D01*
X97015800Y-70241466D01*
X96968180Y-70146228D01*
X96968180Y-69955752D01*
X97015800Y-69860514D01*
X97111038Y-69765276D01*
X97301514Y-69717657D01*
X97634847Y-69717657D01*
X97825323Y-69765276D01*
X97920561Y-69860514D01*
X97968180Y-69955752D01*
X97968180Y-70146228D01*
X97063419Y-69336704D02*
X97015800Y-69289085D01*
X96968180Y-69193847D01*
X96968180Y-68955752D01*
X97015800Y-68860514D01*
X97063419Y-68812895D01*
X97158657Y-68765276D01*
X97253895Y-68765276D01*
X97396752Y-68812895D01*
X97968180Y-69384323D01*
X97968180Y-68765276D01*
%TO.C,Q9*%
X139278761Y-79993619D02*
X139183523Y-79946000D01*
X139088285Y-79850761D01*
X138945428Y-79707904D01*
X138850190Y-79660285D01*
X138754952Y-79660285D01*
X138802571Y-79898380D02*
X138707333Y-79850761D01*
X138612095Y-79755523D01*
X138564476Y-79565047D01*
X138564476Y-79231714D01*
X138612095Y-79041238D01*
X138707333Y-78946000D01*
X138802571Y-78898380D01*
X138993047Y-78898380D01*
X139088285Y-78946000D01*
X139183523Y-79041238D01*
X139231142Y-79231714D01*
X139231142Y-79565047D01*
X139183523Y-79755523D01*
X139088285Y-79850761D01*
X138993047Y-79898380D01*
X138802571Y-79898380D01*
X139707333Y-79898380D02*
X139897809Y-79898380D01*
X139993047Y-79850761D01*
X140040666Y-79803142D01*
X140135904Y-79660285D01*
X140183523Y-79469809D01*
X140183523Y-79088857D01*
X140135904Y-78993619D01*
X140088285Y-78946000D01*
X139993047Y-78898380D01*
X139802571Y-78898380D01*
X139707333Y-78946000D01*
X139659714Y-78993619D01*
X139612095Y-79088857D01*
X139612095Y-79326952D01*
X139659714Y-79422190D01*
X139707333Y-79469809D01*
X139802571Y-79517428D01*
X139993047Y-79517428D01*
X140088285Y-79469809D01*
X140135904Y-79422190D01*
X140183523Y-79326952D01*
%TO.C,FL1*%
X155782971Y-79884495D02*
X155782971Y-80217828D01*
X156306780Y-80217828D02*
X155306780Y-80217828D01*
X155306780Y-79741638D01*
X156306780Y-78884495D02*
X156306780Y-79360685D01*
X155306780Y-79360685D01*
X156306780Y-78027352D02*
X156306780Y-78598780D01*
X156306780Y-78313066D02*
X155306780Y-78313066D01*
X155449638Y-78408304D01*
X155544876Y-78503542D01*
X155592495Y-78598780D01*
D13*
%TO.C,C10*%
X145855306Y-61538207D02*
X145836558Y-61556955D01*
X145780315Y-61575702D01*
X145742820Y-61575702D01*
X145686577Y-61556955D01*
X145649082Y-61519459D01*
X145630334Y-61481964D01*
X145611586Y-61406973D01*
X145611586Y-61350730D01*
X145630334Y-61275740D01*
X145649082Y-61238244D01*
X145686577Y-61200749D01*
X145742820Y-61182001D01*
X145780315Y-61182001D01*
X145836558Y-61200749D01*
X145855306Y-61219497D01*
X146230259Y-61575702D02*
X146005287Y-61575702D01*
X146117773Y-61575702D02*
X146117773Y-61182001D01*
X146080278Y-61238244D01*
X146042783Y-61275740D01*
X146005287Y-61294487D01*
X146473979Y-61182001D02*
X146511474Y-61182001D01*
X146548970Y-61200749D01*
X146567717Y-61219497D01*
X146586465Y-61256992D01*
X146605213Y-61331983D01*
X146605213Y-61425721D01*
X146586465Y-61500712D01*
X146567717Y-61538207D01*
X146548970Y-61556955D01*
X146511474Y-61575702D01*
X146473979Y-61575702D01*
X146436484Y-61556955D01*
X146417736Y-61538207D01*
X146398988Y-61500712D01*
X146380241Y-61425721D01*
X146380241Y-61331983D01*
X146398988Y-61256992D01*
X146417736Y-61219497D01*
X146436484Y-61200749D01*
X146473979Y-61182001D01*
%TO.C,C5*%
X138351783Y-35985807D02*
X138333035Y-36004555D01*
X138276792Y-36023302D01*
X138239297Y-36023302D01*
X138183054Y-36004555D01*
X138145558Y-35967059D01*
X138126811Y-35929564D01*
X138108063Y-35854573D01*
X138108063Y-35798330D01*
X138126811Y-35723340D01*
X138145558Y-35685844D01*
X138183054Y-35648349D01*
X138239297Y-35629601D01*
X138276792Y-35629601D01*
X138333035Y-35648349D01*
X138351783Y-35667097D01*
X138707988Y-35629601D02*
X138520512Y-35629601D01*
X138501764Y-35817078D01*
X138520512Y-35798330D01*
X138558007Y-35779583D01*
X138651745Y-35779583D01*
X138689241Y-35798330D01*
X138707988Y-35817078D01*
X138726736Y-35854573D01*
X138726736Y-35948312D01*
X138707988Y-35985807D01*
X138689241Y-36004555D01*
X138651745Y-36023302D01*
X138558007Y-36023302D01*
X138520512Y-36004555D01*
X138501764Y-35985807D01*
D10*
%TO.C,Q14*%
X192780019Y-65625028D02*
X192732400Y-65720266D01*
X192637161Y-65815504D01*
X192494304Y-65958361D01*
X192446685Y-66053600D01*
X192446685Y-66148838D01*
X192684780Y-66101219D02*
X192637161Y-66196457D01*
X192541923Y-66291695D01*
X192351447Y-66339314D01*
X192018114Y-66339314D01*
X191827638Y-66291695D01*
X191732400Y-66196457D01*
X191684780Y-66101219D01*
X191684780Y-65910742D01*
X191732400Y-65815504D01*
X191827638Y-65720266D01*
X192018114Y-65672647D01*
X192351447Y-65672647D01*
X192541923Y-65720266D01*
X192637161Y-65815504D01*
X192684780Y-65910742D01*
X192684780Y-66101219D01*
X192684780Y-64720266D02*
X192684780Y-65291695D01*
X192684780Y-65005980D02*
X191684780Y-65005980D01*
X191827638Y-65101219D01*
X191922876Y-65196457D01*
X191970495Y-65291695D01*
X192018114Y-63863123D02*
X192684780Y-63863123D01*
X191637161Y-64101219D02*
X192351447Y-64339314D01*
X192351447Y-63720266D01*
%TO.C,Q1*%
X93491419Y-85418038D02*
X93443800Y-85513276D01*
X93348561Y-85608514D01*
X93205704Y-85751371D01*
X93158085Y-85846609D01*
X93158085Y-85941847D01*
X93396180Y-85894228D02*
X93348561Y-85989466D01*
X93253323Y-86084704D01*
X93062847Y-86132323D01*
X92729514Y-86132323D01*
X92539038Y-86084704D01*
X92443800Y-85989466D01*
X92396180Y-85894228D01*
X92396180Y-85703752D01*
X92443800Y-85608514D01*
X92539038Y-85513276D01*
X92729514Y-85465657D01*
X93062847Y-85465657D01*
X93253323Y-85513276D01*
X93348561Y-85608514D01*
X93396180Y-85703752D01*
X93396180Y-85894228D01*
X93396180Y-84513276D02*
X93396180Y-85084704D01*
X93396180Y-84798990D02*
X92396180Y-84798990D01*
X92539038Y-84894228D01*
X92634276Y-84989466D01*
X92681895Y-85084704D01*
%TO.C,Q15*%
X201162019Y-65697028D02*
X201114400Y-65792266D01*
X201019161Y-65887504D01*
X200876304Y-66030361D01*
X200828685Y-66125600D01*
X200828685Y-66220838D01*
X201066780Y-66173219D02*
X201019161Y-66268457D01*
X200923923Y-66363695D01*
X200733447Y-66411314D01*
X200400114Y-66411314D01*
X200209638Y-66363695D01*
X200114400Y-66268457D01*
X200066780Y-66173219D01*
X200066780Y-65982742D01*
X200114400Y-65887504D01*
X200209638Y-65792266D01*
X200400114Y-65744647D01*
X200733447Y-65744647D01*
X200923923Y-65792266D01*
X201019161Y-65887504D01*
X201066780Y-65982742D01*
X201066780Y-66173219D01*
X201066780Y-64792266D02*
X201066780Y-65363695D01*
X201066780Y-65077980D02*
X200066780Y-65077980D01*
X200209638Y-65173219D01*
X200304876Y-65268457D01*
X200352495Y-65363695D01*
X200066780Y-63887504D02*
X200066780Y-64363695D01*
X200542971Y-64411314D01*
X200495352Y-64363695D01*
X200447733Y-64268457D01*
X200447733Y-64030361D01*
X200495352Y-63935123D01*
X200542971Y-63887504D01*
X200638209Y-63839885D01*
X200876304Y-63839885D01*
X200971542Y-63887504D01*
X201019161Y-63935123D01*
X201066780Y-64030361D01*
X201066780Y-64268457D01*
X201019161Y-64363695D01*
X200971542Y-64411314D01*
%TO.C,R9*%
X211272380Y-62904666D02*
X210796190Y-63238000D01*
X211272380Y-63476095D02*
X210272380Y-63476095D01*
X210272380Y-63095142D01*
X210320000Y-62999904D01*
X210367619Y-62952285D01*
X210462857Y-62904666D01*
X210605714Y-62904666D01*
X210700952Y-62952285D01*
X210748571Y-62999904D01*
X210796190Y-63095142D01*
X210796190Y-63476095D01*
X211272380Y-62428476D02*
X211272380Y-62238000D01*
X211224761Y-62142761D01*
X211177142Y-62095142D01*
X211034285Y-61999904D01*
X210843809Y-61952285D01*
X210462857Y-61952285D01*
X210367619Y-61999904D01*
X210320000Y-62047523D01*
X210272380Y-62142761D01*
X210272380Y-62333238D01*
X210320000Y-62428476D01*
X210367619Y-62476095D01*
X210462857Y-62523714D01*
X210700952Y-62523714D01*
X210796190Y-62476095D01*
X210843809Y-62428476D01*
X210891428Y-62333238D01*
X210891428Y-62142761D01*
X210843809Y-62047523D01*
X210796190Y-61999904D01*
X210700952Y-61952285D01*
%TO.C,R6*%
X147283466Y-52328819D02*
X147616800Y-52805009D01*
X147854895Y-52328819D02*
X147854895Y-53328819D01*
X147473942Y-53328819D01*
X147378704Y-53281200D01*
X147331085Y-53233580D01*
X147283466Y-53138342D01*
X147283466Y-52995485D01*
X147331085Y-52900247D01*
X147378704Y-52852628D01*
X147473942Y-52805009D01*
X147854895Y-52805009D01*
X146426323Y-53328819D02*
X146616800Y-53328819D01*
X146712038Y-53281200D01*
X146759657Y-53233580D01*
X146854895Y-53090723D01*
X146902514Y-52900247D01*
X146902514Y-52519295D01*
X146854895Y-52424057D01*
X146807276Y-52376438D01*
X146712038Y-52328819D01*
X146521561Y-52328819D01*
X146426323Y-52376438D01*
X146378704Y-52424057D01*
X146331085Y-52519295D01*
X146331085Y-52757390D01*
X146378704Y-52852628D01*
X146426323Y-52900247D01*
X146521561Y-52947866D01*
X146712038Y-52947866D01*
X146807276Y-52900247D01*
X146854895Y-52852628D01*
X146902514Y-52757390D01*
D15*
%TO.C,C14*%
X153670000Y-53568600D02*
X153670000Y-52298600D01*
X153035000Y-52933600D02*
X154305000Y-52933600D01*
X160299400Y-45542200D02*
G75*
G03*
X160299400Y-45542200I-6629400J0D01*
G01*
D16*
%TO.C,C8*%
X139267400Y-54127200D02*
X139787400Y-54127200D01*
X139267400Y-51427200D02*
X139787400Y-51427200D01*
D11*
%TO.C,Q13*%
X221662400Y-65303200D02*
X218062400Y-65303200D01*
X219862400Y-69753201D02*
G75*
G03*
X221700878Y-65314722I0J2600001D01*
G01*
X218023922Y-65314722D02*
G75*
G03*
X219862400Y-69753200I1838478J-1838478D01*
G01*
D15*
%TO.C,C1*%
X111861600Y-50927000D02*
X111861600Y-52197000D01*
X111226600Y-51562000D02*
X112496600Y-51562000D01*
X125882400Y-51562000D02*
G75*
G03*
X125882400Y-51562000I-6629400J0D01*
G01*
D16*
%TO.C,C7*%
X139267400Y-46347200D02*
X139787400Y-46347200D01*
X139267400Y-49047200D02*
X139787400Y-49047200D01*
D15*
%TO.C,D1*%
X155575000Y-65062100D02*
X155575000Y-66332100D01*
X154000200Y-64579500D02*
X156921200Y-64579500D01*
X154416760Y-58229500D02*
X154000200Y-58229500D01*
X160858200Y-64579500D02*
X160858200Y-58229500D01*
X156921200Y-64579500D02*
X156921200Y-65392300D01*
X159283400Y-65062100D02*
X159283400Y-66332100D01*
X160858200Y-58229500D02*
X160441640Y-58229500D01*
X156921200Y-65392300D02*
X157937200Y-65392300D01*
X157937200Y-65392300D02*
X157937200Y-64579500D01*
X154711400Y-65062100D02*
X154711400Y-66332100D01*
X154000200Y-58229500D02*
X154000200Y-64579500D01*
X157937200Y-64579500D02*
X160858200Y-64579500D01*
X160147000Y-65062100D02*
X160147000Y-66332100D01*
D16*
%TO.C,C4*%
X139318200Y-64697600D02*
X139838200Y-64697600D01*
X139318200Y-61997600D02*
X139838200Y-61997600D01*
D11*
%TO.C,Q3*%
X87355200Y-69370200D02*
X87355200Y-63480200D01*
X82215200Y-69825200D02*
X82215200Y-63480200D01*
D15*
%TO.C,J4*%
X223829000Y-62833900D02*
X223829000Y-47579899D01*
X223829000Y-47579899D02*
X214575000Y-47579899D01*
X214575000Y-47579899D02*
X214575000Y-62833900D01*
X214575000Y-62833900D02*
X223829000Y-62833900D01*
D17*
X219582999Y-45801899D02*
G75*
G03*
X219582999Y-45801899I-381000J0D01*
G01*
D16*
%TO.C,C11*%
X202676200Y-80538000D02*
X202156200Y-80538000D01*
X202676200Y-83238000D02*
X202156200Y-83238000D01*
D15*
%TO.C,D2*%
X196189600Y-49834800D02*
X195173600Y-49834800D01*
X192252600Y-56997600D02*
X192669160Y-56997600D01*
X195173600Y-50647600D02*
X192252600Y-50647600D01*
X199110600Y-50647600D02*
X196189600Y-50647600D01*
X196189600Y-50647600D02*
X196189600Y-49834800D01*
X199110600Y-56997600D02*
X199110600Y-50647600D01*
X195173600Y-49834800D02*
X195173600Y-50647600D01*
X198399400Y-50165000D02*
X198399400Y-48895000D01*
X193827400Y-50165000D02*
X193827400Y-48895000D01*
X197535800Y-50165000D02*
X197535800Y-48895000D01*
X192252600Y-50647600D02*
X192252600Y-56997600D01*
X198694040Y-56997600D02*
X199110600Y-56997600D01*
X192963800Y-50165000D02*
X192963800Y-48895000D01*
D11*
%TO.C,Q7*%
X180877600Y-78514800D02*
X180877600Y-82114800D01*
X180889122Y-82153278D02*
G75*
G03*
X185327600Y-80314800I1838478J1838478D01*
G01*
X185327601Y-80314800D02*
G75*
G03*
X180889122Y-78476322I-2600001J0D01*
G01*
D16*
%TO.C,C12*%
X213635600Y-74204600D02*
X213635600Y-73684600D01*
X216335600Y-74204600D02*
X216335600Y-73684600D01*
D11*
%TO.C,Q10*%
X204051200Y-74768613D02*
X204051200Y-78368613D01*
X204062722Y-78407091D02*
G75*
G03*
X208501200Y-76568613I1838478J1838478D01*
G01*
X208501201Y-76568613D02*
G75*
G03*
X204062722Y-74730135I-2600001J0D01*
G01*
%TO.C,Q4*%
X108132400Y-85064000D02*
X108132400Y-91409000D01*
X102992400Y-85519000D02*
X102992400Y-91409000D01*
D15*
%TO.C,J2*%
X107092100Y-34489000D02*
X107092100Y-43743000D01*
X107092100Y-43743000D02*
X122346101Y-43743000D01*
X122346101Y-43743000D02*
X122346101Y-34489000D01*
X122346101Y-34489000D02*
X107092100Y-34489000D01*
D17*
X124505101Y-39115999D02*
G75*
G03*
X124505101Y-39115999I-381000J0D01*
G01*
D11*
%TO.C,Q12*%
X221662400Y-71505200D02*
X218062400Y-71505200D01*
X219862400Y-75955201D02*
G75*
G03*
X221700878Y-71516722I0J2600001D01*
G01*
X218023922Y-71516722D02*
G75*
G03*
X219862400Y-75955200I1838478J-1838478D01*
G01*
D15*
%TO.C,R7*%
X183688949Y-40601000D02*
X185423851Y-40601000D01*
X185423851Y-38647000D02*
X183688949Y-38647000D01*
D16*
%TO.C,C6*%
X139267400Y-43967200D02*
X139787400Y-43967200D01*
X139267400Y-41267200D02*
X139787400Y-41267200D01*
%TO.C,C9*%
X146958400Y-59617600D02*
X147478400Y-59617600D01*
X146958400Y-56917600D02*
X147478400Y-56917600D01*
D11*
%TO.C,Q8*%
X172749600Y-78514800D02*
X172749600Y-82114800D01*
X177199601Y-80314800D02*
G75*
G03*
X172761122Y-78476322I-2600001J0D01*
G01*
X172761122Y-82153278D02*
G75*
G03*
X177199600Y-80314800I1838478J1838478D01*
G01*
%TO.C,Q11*%
X197595200Y-74754000D02*
X197595200Y-78354000D01*
X202045201Y-76554000D02*
G75*
G03*
X197606722Y-74715522I-2600001J0D01*
G01*
X197606722Y-78392478D02*
G75*
G03*
X202045200Y-76554000I1838478J1838478D01*
G01*
D15*
%TO.C,J6*%
X207944101Y-44251000D02*
X207944101Y-34997000D01*
X192690100Y-44251000D02*
X207944101Y-44251000D01*
X192690100Y-34997000D02*
X192690100Y-44251000D01*
X207944101Y-34997000D02*
X192690100Y-34997000D01*
D17*
X210103101Y-39623999D02*
G75*
G03*
X210103101Y-39623999I-381000J0D01*
G01*
D11*
%TO.C,Q5*%
X111282000Y-66801400D02*
X111282000Y-73146400D01*
X106142000Y-67256400D02*
X106142000Y-73146400D01*
D15*
%TO.C,Jumper2*%
X116362406Y-86045618D02*
X122166346Y-80241678D01*
X121358123Y-79433455D02*
X115554183Y-85237395D01*
%TO.C,J1*%
X84764000Y-99232101D02*
X84764000Y-83978100D01*
X75510000Y-83978100D02*
X75510000Y-99232101D01*
X84764000Y-83978100D02*
X75510000Y-83978100D01*
X75510000Y-99232101D02*
X84764000Y-99232101D01*
D17*
X80518001Y-101010101D02*
G75*
G03*
X80518001Y-101010101I-381000J0D01*
G01*
D15*
%TO.C,C13*%
X173278800Y-55549800D02*
X173278800Y-56819800D01*
X173913800Y-56184800D02*
X172643800Y-56184800D01*
X179908200Y-63576200D02*
G75*
G03*
X179908200Y-63576200I-6629400J0D01*
G01*
%TO.C,R4*%
X130136000Y-44301451D02*
X130136000Y-42566549D01*
X128182000Y-42566549D02*
X128182000Y-44301451D01*
%TO.C,C15*%
X167214929Y-49565045D02*
X168112955Y-50463071D01*
X167214929Y-50463071D02*
X168112955Y-49565045D01*
X179519851Y-44787549D02*
G75*
G03*
X179519851Y-44787549I-6629400J0D01*
G01*
%TO.C,R2*%
X95014949Y-77431000D02*
X96749851Y-77431000D01*
X96749851Y-75477000D02*
X95014949Y-75477000D01*
%TO.C,J3*%
X223829000Y-80091899D02*
X214575000Y-80091899D01*
X223829000Y-95345900D02*
X223829000Y-80091899D01*
X214575000Y-80091899D02*
X214575000Y-95345900D01*
X214575000Y-95345900D02*
X223829000Y-95345900D01*
D17*
X219582999Y-78313899D02*
G75*
G03*
X219582999Y-78313899I-381000J0D01*
G01*
D15*
%TO.C,Jumper1*%
X187972700Y-82788760D02*
X187972700Y-74580750D01*
X186829700Y-74580750D02*
X186829700Y-82788760D01*
D18*
%TO.C,J5*%
X112521000Y-92267000D02*
X163831000Y-92267000D01*
X112521000Y-97217000D02*
X112521000Y-92267000D01*
X163831000Y-92267000D02*
X163831000Y-97217000D01*
X163831000Y-97217000D02*
X112521000Y-97217000D01*
X111871000Y-93472000D02*
G75*
G03*
X111871000Y-93472000I-100000J0D01*
G01*
D15*
%TO.C,R1*%
X95338000Y-97641451D02*
X95338000Y-95906549D01*
X93384000Y-95906549D02*
X93384000Y-97641451D01*
%TO.C,R8*%
X193942600Y-75586549D02*
X193942600Y-77321451D01*
X195896600Y-77321451D02*
X195896600Y-75586549D01*
D11*
%TO.C,Q6*%
X95153000Y-63537500D02*
X95153000Y-69882500D01*
X90013000Y-63992500D02*
X90013000Y-69882500D01*
D15*
%TO.C,R3*%
X82081000Y-74824549D02*
X82081000Y-76559451D01*
X84035000Y-76559451D02*
X84035000Y-74824549D01*
D16*
%TO.C,C3*%
X139318200Y-59617600D02*
X139838200Y-59617600D01*
X139318200Y-56917600D02*
X139838200Y-56917600D01*
D15*
%TO.C,R5*%
X170400198Y-80755648D02*
X170400198Y-79670752D01*
X168546202Y-79670752D02*
X168546202Y-80755648D01*
D16*
%TO.C,C2*%
X170897200Y-83536800D02*
X170377200Y-83536800D01*
X170897200Y-86236800D02*
X170377200Y-86236800D01*
D11*
%TO.C,Q2*%
X98445800Y-72974800D02*
X98445800Y-66629800D01*
X103585800Y-72519800D02*
X103585800Y-66629800D01*
%TO.C,Q9*%
X142319000Y-73376000D02*
X136429000Y-73376000D01*
X142774000Y-78516000D02*
X136429000Y-78516000D01*
D15*
%TO.C,FL1*%
X144221200Y-87769700D02*
X167487600Y-87769700D01*
X144221200Y-70523100D02*
X167487600Y-70523100D01*
X144221200Y-70523100D02*
X144221200Y-87769700D01*
X167487600Y-70523100D02*
X167487600Y-87769700D01*
X152180600Y-88531700D02*
G75*
G03*
X152180600Y-88531700I-76200J0D01*
G01*
D16*
%TO.C,C10*%
X146958400Y-61997600D02*
X147478400Y-61997600D01*
X146958400Y-64697600D02*
X147478400Y-64697600D01*
%TO.C,C5*%
X139267400Y-39145200D02*
X139787400Y-39145200D01*
X139267400Y-36445200D02*
X139787400Y-36445200D01*
D11*
%TO.C,Q14*%
X193162400Y-68453600D02*
X193162400Y-62108600D01*
X198302400Y-67998600D02*
X198302400Y-62108600D01*
%TO.C,Q1*%
X93873800Y-88722800D02*
X93873800Y-82377800D01*
X99013800Y-88267800D02*
X99013800Y-82377800D01*
%TO.C,Q15*%
X206684400Y-68070600D02*
X206684400Y-62180600D01*
X201544400Y-68525600D02*
X201544400Y-62180600D01*
D15*
%TO.C,R9*%
X211797000Y-63605451D02*
X211797000Y-61870549D01*
X209843000Y-61870549D02*
X209843000Y-63605451D01*
%TO.C,R6*%
X147809251Y-51779200D02*
X146424349Y-51779200D01*
X146424349Y-53783200D02*
X147809251Y-53783200D01*
%TD*%
M02*
