  0
SECTION
  2
HEADER
  9
$ANGBASE
  50
0.0
  9
$ANGDIR
  70
1
  9
$MEASUREMENT
  70
0
  0
ENDSEC
  0
SECTION
  2
TABLES
  0
TABLE
  2
LTYPE
  70
4
  0
LTYPE
  5
40F
  2
CONTINUOUS
  70
0
  3
Solid line
  72
65
  73
0
  40
0.0
  0
LTYPE
  5
410
  2
DASHDOT
 70
0
  3
Dash Dot ____ _ ____ _
 72
65
 73
4
 40
2.0
 49
1.25
 49
-0.25
 49
0.25
 49
-0.25
  0
LTYPE
  5
411
  2
DASHED
 70
0
  3
Dashed __ __ __ __ __
 72
65
 73
2
 40
0.75
 49
0.5
 49
-0.25
  0
LTYPE
  5
43B
  2
DOTTED
 70
0
  3
Dotted .  .  .  .
 72
65
 73
2
 40
0.2
 49
0.0
 49
-0.2
  0
ENDTAB
  0
TABLE
  2
STYLE
  70
4
  0
STYLE
  2
KICAD
  70
0
  40
0
  41
1
  42
1
  50
0
  71
0
  3
isocp.shx
  0
STYLE
  2
KICADB
  70
0
  40
0
  41
1
  42
1
  50
0
  71
0
  3
isocp.shx
  0
STYLE
  2
KICADI
  70
0
  40
0
  41
1
  42
1
  50
15
  71
0
  3
isocp.shx
  0
STYLE
  2
KICADBI
  70
0
  40
0
  41
1
  42
1
  50
15
  71
0
  3
isocp.shx
  0
ENDTAB
  0
TABLE
  2
LAYER
  70
1
  0
LAYER
  2
BLACK
  70
0
  62
7
  6
CONTINUOUS
  0
ENDTAB
  0
ENDSEC
  0
SECTION
  2
ENTITIES
0
LINE
8
BLACK
6
CONTINUOUS
10
4.0673866929133862
20
-3.6823845669291337
11
4.0795981496062987
21
-3.6855199212598424
0
LINE
8
BLACK
6
CONTINUOUS
10
4.0795981496062987
20
-3.6855199212598424
11
4.0913203543307084
21
-3.690161062992126
0
LINE
8
BLACK
6
CONTINUOUS
10
4.0913203543307084
20
-3.690161062992126
11
4.1023684251968504
21
-3.6962348031496064
0
LINE
8
BLACK
6
CONTINUOUS
10
4.1023684251968504
20
-3.6962348031496064
11
4.1125681496062994
21
-3.7036453149606299
0
LINE
8
BLACK
6
CONTINUOUS
10
4.1125681496062994
20
-3.7036453149606299
11
4.1217586614173225
21
-3.7122757874015746
0
LINE
8
BLACK
6
CONTINUOUS
10
4.1217586614173225
20
-3.7122757874015746
11
4.1297949999999997
21
-3.7219900787401574
0
LINE
8
BLACK
6
CONTINUOUS
10
4.1297949999999997
20
-3.7219900787401574
11
4.1365504724409448
21
-3.7326349606299214
0
LINE
8
BLACK
6
CONTINUOUS
10
4.1365504724409448
20
-3.7326349606299214
11
4.1419185039370081
21
-3.7440425984251968
0
LINE
8
BLACK
6
CONTINUOUS
10
4.1419185039370081
20
-3.7440425984251968
11
4.1458144488188973
21
-3.7560331102362206
0
LINE
8
BLACK
6
CONTINUOUS
10
4.1458144488188973
20
-3.7560331102362206
11
4.1481768503937007
21
-3.7684173228346456
0
LINE
8
BLACK
6
CONTINUOUS
10
4.1481768503937007
20
-3.7684173228346456
11
4.1489685039370077
21
-3.7809999999999997
0
LINE
8
BLACK
6
CONTINUOUS
10
4.1489685039370077
20
-3.7809999999999997
11
4.1481768503937007
21
-3.7935826771653542
0
LINE
8
BLACK
6
CONTINUOUS
10
4.1481768503937007
20
-3.7935826771653542
11
4.1458144488188973
21
-3.8059668897637793
0
LINE
8
BLACK
6
CONTINUOUS
10
4.1458144488188973
20
-3.8059668897637793
11
4.1419185039370081
21
-3.817957401574803
0
LINE
8
BLACK
6
CONTINUOUS
10
4.1419185039370081
20
-3.817957401574803
11
4.1365504724409448
21
-3.8293650393700784
0
LINE
8
BLACK
6
CONTINUOUS
10
4.1365504724409448
20
-3.8293650393700784
11
4.1297949999999997
21
-3.8400099212598424
0
LINE
8
BLACK
6
CONTINUOUS
10
4.1297949999999997
20
-3.8400099212598424
11
4.1217586614173225
21
-3.8497242125984252
0
LINE
8
BLACK
6
CONTINUOUS
10
4.1217586614173225
20
-3.8497242125984252
11
4.1125681496062994
21
-3.85835468503937
0
LINE
8
BLACK
6
CONTINUOUS
10
4.1125681496062994
20
-3.85835468503937
11
4.1023684251968504
21
-3.8657651968503934
0
LINE
8
BLACK
6
CONTINUOUS
10
4.1023684251968504
20
-3.8657651968503934
11
4.0913203543307084
21
-3.8718389370078738
0
LINE
8
BLACK
6
CONTINUOUS
10
4.0913203543307084
20
-3.8718389370078738
11
4.0795981496062987
21
-3.8764800787401574
0
LINE
8
BLACK
6
CONTINUOUS
10
4.0795981496062987
20
-3.8764800787401574
11
4.0673866929133862
21
-3.8796154330708661
0
LINE
8
BLACK
6
CONTINUOUS
10
4.0673866929133862
20
-3.8796154330708661
11
4.0548785826771656
21
-3.8811955905511808
0
LINE
8
BLACK
6
CONTINUOUS
10
4.0548785826771656
20
-3.8811955905511808
11
4.0422710236220469
21
-3.8811955905511808
0
LINE
8
BLACK
6
CONTINUOUS
10
4.0422710236220469
20
-3.8811955905511808
11
4.0297629133858264
21
-3.8796154330708661
0
LINE
8
BLACK
6
CONTINUOUS
10
4.0297629133858264
20
-3.8796154330708661
11
4.0175514566929129
21
-3.8764800787401574
0
LINE
8
BLACK
6
CONTINUOUS
10
4.0175514566929129
20
-3.8764800787401574
11
4.0058292519685041
21
-3.8718389370078738
0
LINE
8
BLACK
6
CONTINUOUS
10
4.0058292519685041
20
-3.8718389370078738
11
3.9947811811023621
21
-3.8657651968503934
0
LINE
8
BLACK
6
CONTINUOUS
10
3.9947811811023621
20
-3.8657651968503934
11
3.9845814566929132
21
-3.85835468503937
0
LINE
8
BLACK
6
CONTINUOUS
10
3.9845814566929132
20
-3.85835468503937
11
3.9753909448818896
21
-3.8497242125984252
0
LINE
8
BLACK
6
CONTINUOUS
10
3.9753909448818896
20
-3.8497242125984252
11
3.9673546062992124
21
-3.8400099212598424
0
LINE
8
BLACK
6
CONTINUOUS
10
3.9673546062992124
20
-3.8400099212598424
11
3.9605991338582678
21
-3.8293650393700784
0
LINE
8
BLACK
6
CONTINUOUS
10
3.9605991338582678
20
-3.8293650393700784
11
3.9552311023622044
21
-3.817957401574803
0
LINE
8
BLACK
6
CONTINUOUS
10
3.9552311023622044
20
-3.817957401574803
11
3.9513351574803148
21
-3.8059668897637793
0
LINE
8
BLACK
6
CONTINUOUS
10
3.9513351574803148
20
-3.8059668897637793
11
3.9489727559055119
21
-3.7935826771653542
0
LINE
8
BLACK
6
CONTINUOUS
10
3.9489727559055119
20
-3.7935826771653542
11
3.9481811023622044
21
-3.7809999999999997
0
LINE
8
BLACK
6
CONTINUOUS
10
3.9481811023622044
20
-3.7809999999999997
11
3.9489727559055119
21
-3.7684173228346456
0
LINE
8
BLACK
6
CONTINUOUS
10
3.9489727559055119
20
-3.7684173228346456
11
3.9513351574803148
21
-3.7560331102362206
0
LINE
8
BLACK
6
CONTINUOUS
10
3.9513351574803148
20
-3.7560331102362206
11
3.9552311023622044
21
-3.7440425984251968
0
LINE
8
BLACK
6
CONTINUOUS
10
3.9552311023622044
20
-3.7440425984251968
11
3.9605991338582678
21
-3.7326349606299214
0
LINE
8
BLACK
6
CONTINUOUS
10
3.9605991338582678
20
-3.7326349606299214
11
3.9673546062992124
21
-3.7219900787401574
0
LINE
8
BLACK
6
CONTINUOUS
10
3.9673546062992124
20
-3.7219900787401574
11
3.9753909448818896
21
-3.7122757874015746
0
LINE
8
BLACK
6
CONTINUOUS
10
3.9753909448818896
20
-3.7122757874015746
11
3.9845814566929132
21
-3.7036453149606299
0
LINE
8
BLACK
6
CONTINUOUS
10
3.9845814566929132
20
-3.7036453149606299
11
3.9947811811023621
21
-3.6962348031496064
0
LINE
8
BLACK
6
CONTINUOUS
10
3.9947811811023621
20
-3.6962348031496064
11
4.0058292519685041
21
-3.690161062992126
0
LINE
8
BLACK
6
CONTINUOUS
10
4.0058292519685041
20
-3.690161062992126
11
4.0175514566929129
21
-3.6855199212598424
0
LINE
8
BLACK
6
CONTINUOUS
10
4.0175514566929129
20
-3.6855199212598424
11
4.0297629133858264
21
-3.6823845669291337
0
LINE
8
BLACK
6
CONTINUOUS
10
4.0297629133858264
20
-3.6823845669291337
11
4.0422710236220469
21
-3.6808044094488186
0
LINE
8
BLACK
6
CONTINUOUS
10
4.0422710236220469
20
-3.6808044094488186
11
4.0548785826771656
21
-3.6808044094488186
0
LINE
8
BLACK
6
CONTINUOUS
10
4.0548785826771656
20
-3.6808044094488186
11
4.0673866929133862
21
-3.6823845669291337
0
LINE
8
BLACK
6
CONTINUOUS
10
3.9526894881889763
20
-3.7931131496062993
11
3.9549637401574804
21
-3.8050352362204722
0
LINE
8
BLACK
6
CONTINUOUS
10
3.9549637401574804
20
-3.8050352362204722
11
3.9587143307086614
21
-3.8165782677165354
0
LINE
8
BLACK
6
CONTINUOUS
10
3.9587143307086614
20
-3.8165782677165354
11
3.9638820472440943
21
-3.8275602362204721
0
LINE
8
BLACK
6
CONTINUOUS
10
3.9638820472440943
20
-3.8275602362204721
11
3.9703853937007874
21
-3.8378079133858267
0
LINE
8
BLACK
6
CONTINUOUS
10
3.9703853937007874
20
-3.8378079133858267
11
3.9781218897637793
21
-3.8471596850393701
0
LINE
8
BLACK
6
CONTINUOUS
10
3.9781218897637793
20
-3.8471596850393701
11
3.9869694488188974
21
-3.8554681102362203
0
LINE
8
BLACK
6
CONTINUOUS
10
3.9869694488188974
20
-3.8554681102362203
11
3.9967885433070864
21
-3.862602086614173
0
LINE
8
BLACK
6
CONTINUOUS
10
3.9967885433070864
20
-3.862602086614173
11
4.0074243307086617
21
-3.8684491732283464
0
LINE
8
BLACK
6
CONTINUOUS
10
4.0074243307086617
20
-3.8684491732283464
11
4.0187090944881891
21
-3.8729171259842521
0
LINE
8
BLACK
6
CONTINUOUS
10
4.0187090944881891
20
-3.8729171259842521
11
4.0304648818897633
21
-3.8759355118110235
0
LINE
8
BLACK
6
CONTINUOUS
10
4.0304648818897633
20
-3.8759355118110235
11
4.0425062598425194
21
-3.8774566929133858
0
LINE
8
BLACK
6
CONTINUOUS
10
4.0425062598425194
20
-3.8774566929133858
11
4.0546433464566931
21
-3.8774566929133858
0
LINE
8
BLACK
6
CONTINUOUS
10
4.0546433464566931
20
-3.8774566929133858
11
4.0666847244094484
21
-3.8759355118110235
0
LINE
8
BLACK
6
CONTINUOUS
10
4.0666847244094484
20
-3.8759355118110235
11
4.0784405118110234
21
-3.8729171259842521
0
LINE
8
BLACK
6
CONTINUOUS
10
4.0784405118110234
20
-3.8729171259842521
11
4.0897252755905509
21
-3.8684491732283464
0
LINE
8
BLACK
6
CONTINUOUS
10
4.0897252755905509
20
-3.8684491732283464
11
4.1003610629921257
21
-3.862602086614173
0
LINE
8
BLACK
6
CONTINUOUS
10
4.1003610629921257
20
-3.862602086614173
11
4.1101801574803147
21
-3.8554681102362203
0
LINE
8
BLACK
6
CONTINUOUS
10
4.1101801574803147
20
-3.8554681102362203
11
4.1190277165354328
21
-3.8471596850393701
0
LINE
8
BLACK
6
CONTINUOUS
10
4.1190277165354328
20
-3.8471596850393701
11
4.1267642125984247
21
-3.8378079133858267
0
LINE
8
BLACK
6
CONTINUOUS
10
4.1267642125984247
20
-3.8378079133858267
11
4.1332675590551178
21
-3.8275602362204721
0
LINE
8
BLACK
6
CONTINUOUS
10
4.1332675590551178
20
-3.8275602362204721
11
4.1384352755905507
21
-3.8165782677165354
0
LINE
8
BLACK
6
CONTINUOUS
10
4.1384352755905507
20
-3.8165782677165354
11
4.1421858661417321
21
-3.8050352362204722
0
LINE
8
BLACK
6
CONTINUOUS
10
4.1421858661417321
20
-3.8050352362204722
11
4.1444601181102358
21
-3.7931131496062993
0
LINE
8
BLACK
6
CONTINUOUS
10
4.1444601181102358
20
-3.7931131496062993
11
4.1452222047244094
21
-3.7809999999999997
0
LINE
8
BLACK
6
CONTINUOUS
10
4.1452222047244094
20
-3.7809999999999997
11
4.1444601181102358
21
-3.7688868503937005
0
LINE
8
BLACK
6
CONTINUOUS
10
4.1444601181102358
20
-3.7688868503937005
11
4.1421858661417321
21
-3.7569647637795276
0
LINE
8
BLACK
6
CONTINUOUS
10
4.1421858661417321
20
-3.7569647637795276
11
4.1384352755905507
21
-3.7454217322834644
0
LINE
8
BLACK
6
CONTINUOUS
10
4.1384352755905507
20
-3.7454217322834644
11
4.1332675590551178
21
-3.7344397637795277
0
LINE
8
BLACK
6
CONTINUOUS
10
4.1332675590551178
20
-3.7344397637795277
11
4.1267642125984247
21
-3.7241920866141731
0
LINE
8
BLACK
6
CONTINUOUS
10
4.1267642125984247
20
-3.7241920866141731
11
4.1190277165354328
21
-3.7148403149606297
0
LINE
8
BLACK
6
CONTINUOUS
10
4.1190277165354328
20
-3.7148403149606297
11
4.1101801574803147
21
-3.7065318897637796
0
LINE
8
BLACK
6
CONTINUOUS
10
4.1101801574803147
20
-3.7065318897637796
11
4.1003610629921257
21
-3.6993979133858268
0
LINE
8
BLACK
6
CONTINUOUS
10
4.1003610629921257
20
-3.6993979133858268
11
4.0897252755905509
21
-3.6935508267716535
0
LINE
8
BLACK
6
CONTINUOUS
10
4.0897252755905509
20
-3.6935508267716535
11
4.0784405118110234
21
-3.6890828740157477
0
LINE
8
BLACK
6
CONTINUOUS
10
4.0784405118110234
20
-3.6890828740157477
11
4.0666847244094484
21
-3.6860644881889764
0
LINE
8
BLACK
6
CONTINUOUS
10
4.0666847244094484
20
-3.6860644881889764
11
4.0546433464566931
21
-3.684543307086614
0
LINE
8
BLACK
6
CONTINUOUS
10
4.0546433464566931
20
-3.684543307086614
11
4.0425062598425194
21
-3.684543307086614
0
LINE
8
BLACK
6
CONTINUOUS
10
4.0425062598425194
20
-3.684543307086614
11
4.0304648818897633
21
-3.6860644881889764
0
LINE
8
BLACK
6
CONTINUOUS
10
4.0304648818897633
20
-3.6860644881889764
11
4.0187090944881891
21
-3.6890828740157477
0
LINE
8
BLACK
6
CONTINUOUS
10
4.0187090944881891
20
-3.6890828740157477
11
4.0074243307086617
21
-3.6935508267716535
0
LINE
8
BLACK
6
CONTINUOUS
10
4.0074243307086617
20
-3.6935508267716535
11
3.9967885433070864
21
-3.6993979133858268
0
LINE
8
BLACK
6
CONTINUOUS
10
3.9967885433070864
20
-3.6993979133858268
11
3.9869694488188974
21
-3.7065318897637796
0
LINE
8
BLACK
6
CONTINUOUS
10
3.9869694488188974
20
-3.7065318897637796
11
3.9781218897637793
21
-3.7148403149606297
0
LINE
8
BLACK
6
CONTINUOUS
10
3.9781218897637793
20
-3.7148403149606297
11
3.9703853937007874
21
-3.7241920866141731
0
LINE
8
BLACK
6
CONTINUOUS
10
3.9703853937007874
20
-3.7241920866141731
11
3.9638820472440943
21
-3.7344397637795277
0
LINE
8
BLACK
6
CONTINUOUS
10
3.9638820472440943
20
-3.7344397637795277
11
3.9587143307086614
21
-3.7454217322834644
0
LINE
8
BLACK
6
CONTINUOUS
10
3.9587143307086614
20
-3.7454217322834644
11
3.9549637401574804
21
-3.7569647637795276
0
LINE
8
BLACK
6
CONTINUOUS
10
3.9549637401574804
20
-3.7569647637795276
11
3.9526894881889763
21
-3.7688868503937005
0
LINE
8
BLACK
6
CONTINUOUS
10
3.9526894881889763
20
-3.7688868503937005
11
3.9519274015748032
21
-3.7809999999999997
0
LINE
8
BLACK
6
CONTINUOUS
10
3.9519274015748032
20
-3.7809999999999997
11
3.9526894881889763
21
-3.7931131496062993
0
LINE
8
BLACK
6
CONTINUOUS
10
7.3523866929133854
20
-3.6743845669291337
11
7.3645981496062989
21
-3.6775199212598424
0
LINE
8
BLACK
6
CONTINUOUS
10
7.3645981496062989
20
-3.6775199212598424
11
7.3763203543307085
21
-3.682161062992126
0
LINE
8
BLACK
6
CONTINUOUS
10
7.3763203543307085
20
-3.682161062992126
11
7.3873684251968506
21
-3.6882348031496064
0
LINE
8
BLACK
6
CONTINUOUS
10
7.3873684251968506
20
-3.6882348031496064
11
7.3975681496062986
21
-3.6956453149606299
0
LINE
8
BLACK
6
CONTINUOUS
10
7.3975681496062986
20
-3.6956453149606299
11
7.4067586614173226
21
-3.7042757874015746
0
LINE
8
BLACK
6
CONTINUOUS
10
7.4067586614173226
20
-3.7042757874015746
11
7.4147949999999998
21
-3.7139900787401574
0
LINE
8
BLACK
6
CONTINUOUS
10
7.4147949999999998
20
-3.7139900787401574
11
7.4215504724409449
21
-3.7246349606299214
0
LINE
8
BLACK
6
CONTINUOUS
10
7.4215504724409449
20
-3.7246349606299214
11
7.4269185039370074
21
-3.7360425984251968
0
LINE
8
BLACK
6
CONTINUOUS
10
7.4269185039370074
20
-3.7360425984251968
11
7.4308144488188974
21
-3.7480331102362205
0
LINE
8
BLACK
6
CONTINUOUS
10
7.4308144488188974
20
-3.7480331102362205
11
7.4331768503937008
21
-3.7604173228346456
0
LINE
8
BLACK
6
CONTINUOUS
10
7.4331768503937008
20
-3.7604173228346456
11
7.4339685039370078
21
-3.7730000000000001
0
LINE
8
BLACK
6
CONTINUOUS
10
7.4339685039370078
20
-3.7730000000000001
11
7.4331768503937008
21
-3.7855826771653542
0
LINE
8
BLACK
6
CONTINUOUS
10
7.4331768503937008
20
-3.7855826771653542
11
7.4308144488188974
21
-3.7979668897637793
0
LINE
8
BLACK
6
CONTINUOUS
10
7.4308144488188974
20
-3.7979668897637793
11
7.4269185039370074
21
-3.809957401574803
0
LINE
8
BLACK
6
CONTINUOUS
10
7.4269185039370074
20
-3.809957401574803
11
7.4215504724409449
21
-3.8213650393700784
0
LINE
8
BLACK
6
CONTINUOUS
10
7.4215504724409449
20
-3.8213650393700784
11
7.4147949999999998
21
-3.8320099212598424
0
LINE
8
BLACK
6
CONTINUOUS
10
7.4147949999999998
20
-3.8320099212598424
11
7.4067586614173226
21
-3.8417242125984252
0
LINE
8
BLACK
6
CONTINUOUS
10
7.4067586614173226
20
-3.8417242125984252
11
7.3975681496062986
21
-3.85035468503937
0
LINE
8
BLACK
6
CONTINUOUS
10
7.3975681496062986
20
-3.85035468503937
11
7.3873684251968506
21
-3.8577651968503934
0
LINE
8
BLACK
6
CONTINUOUS
10
7.3873684251968506
20
-3.8577651968503934
11
7.3763203543307085
21
-3.8638389370078738
0
LINE
8
BLACK
6
CONTINUOUS
10
7.3763203543307085
20
-3.8638389370078738
11
7.3645981496062989
21
-3.8684800787401574
0
LINE
8
BLACK
6
CONTINUOUS
10
7.3645981496062989
20
-3.8684800787401574
11
7.3523866929133854
21
-3.8716154330708661
0
LINE
8
BLACK
6
CONTINUOUS
10
7.3523866929133854
20
-3.8716154330708661
11
7.3398785826771649
21
-3.8731955905511812
0
LINE
8
BLACK
6
CONTINUOUS
10
7.3398785826771649
20
-3.8731955905511812
11
7.3272710236220471
21
-3.8731955905511812
0
LINE
8
BLACK
6
CONTINUOUS
10
7.3272710236220471
20
-3.8731955905511812
11
7.3147629133858265
21
-3.8716154330708661
0
LINE
8
BLACK
6
CONTINUOUS
10
7.3147629133858265
20
-3.8716154330708661
11
7.3025514566929131
21
-3.8684800787401574
0
LINE
8
BLACK
6
CONTINUOUS
10
7.3025514566929131
20
-3.8684800787401574
11
7.2908292519685034
21
-3.8638389370078738
0
LINE
8
BLACK
6
CONTINUOUS
10
7.2908292519685034
20
-3.8638389370078738
11
7.2797811811023623
21
-3.8577651968503934
0
LINE
8
BLACK
6
CONTINUOUS
10
7.2797811811023623
20
-3.8577651968503934
11
7.2695814566929133
21
-3.85035468503937
0
LINE
8
BLACK
6
CONTINUOUS
10
7.2695814566929133
20
-3.85035468503937
11
7.2603909448818893
21
-3.8417242125984252
0
LINE
8
BLACK
6
CONTINUOUS
10
7.2603909448818893
20
-3.8417242125984252
11
7.2523546062992121
21
-3.8320099212598424
0
LINE
8
BLACK
6
CONTINUOUS
10
7.2523546062992121
20
-3.8320099212598424
11
7.2455991338582679
21
-3.8213650393700784
0
LINE
8
BLACK
6
CONTINUOUS
10
7.2455991338582679
20
-3.8213650393700784
11
7.2402311023622046
21
-3.809957401574803
0
LINE
8
BLACK
6
CONTINUOUS
10
7.2402311023622046
20
-3.809957401574803
11
7.2363351574803145
21
-3.7979668897637793
0
LINE
8
BLACK
6
CONTINUOUS
10
7.2363351574803145
20
-3.7979668897637793
11
7.233972755905512
21
-3.7855826771653542
0
LINE
8
BLACK
6
CONTINUOUS
10
7.233972755905512
20
-3.7855826771653542
11
7.2331811023622041
21
-3.7730000000000001
0
LINE
8
BLACK
6
CONTINUOUS
10
7.2331811023622041
20
-3.7730000000000001
11
7.233972755905512
21
-3.7604173228346456
0
LINE
8
BLACK
6
CONTINUOUS
10
7.233972755905512
20
-3.7604173228346456
11
7.2363351574803145
21
-3.7480331102362205
0
LINE
8
BLACK
6
CONTINUOUS
10
7.2363351574803145
20
-3.7480331102362205
11
7.2402311023622046
21
-3.7360425984251968
0
LINE
8
BLACK
6
CONTINUOUS
10
7.2402311023622046
20
-3.7360425984251968
11
7.2455991338582679
21
-3.7246349606299214
0
LINE
8
BLACK
6
CONTINUOUS
10
7.2455991338582679
20
-3.7246349606299214
11
7.2523546062992121
21
-3.7139900787401574
0
LINE
8
BLACK
6
CONTINUOUS
10
7.2523546062992121
20
-3.7139900787401574
11
7.2603909448818893
21
-3.7042757874015746
0
LINE
8
BLACK
6
CONTINUOUS
10
7.2603909448818893
20
-3.7042757874015746
11
7.2695814566929133
21
-3.6956453149606299
0
LINE
8
BLACK
6
CONTINUOUS
10
7.2695814566929133
20
-3.6956453149606299
11
7.2797811811023623
21
-3.6882348031496064
0
LINE
8
BLACK
6
CONTINUOUS
10
7.2797811811023623
20
-3.6882348031496064
11
7.2908292519685034
21
-3.682161062992126
0
LINE
8
BLACK
6
CONTINUOUS
10
7.2908292519685034
20
-3.682161062992126
11
7.3025514566929131
21
-3.6775199212598424
0
LINE
8
BLACK
6
CONTINUOUS
10
7.3025514566929131
20
-3.6775199212598424
11
7.3147629133858265
21
-3.6743845669291337
0
LINE
8
BLACK
6
CONTINUOUS
10
7.3147629133858265
20
-3.6743845669291337
11
7.3272710236220471
21
-3.672804409448819
0
LINE
8
BLACK
6
CONTINUOUS
10
7.3272710236220471
20
-3.672804409448819
11
7.3398785826771649
21
-3.672804409448819
0
LINE
8
BLACK
6
CONTINUOUS
10
7.3398785826771649
20
-3.672804409448819
11
7.3523866929133854
21
-3.6743845669291337
0
LINE
8
BLACK
6
CONTINUOUS
10
7.237689488188976
20
-3.7851131496062993
11
7.2399637401574806
21
-3.7970352362204722
0
LINE
8
BLACK
6
CONTINUOUS
10
7.2399637401574806
20
-3.7970352362204722
11
7.2437143307086611
21
-3.8085782677165354
0
LINE
8
BLACK
6
CONTINUOUS
10
7.2437143307086611
20
-3.8085782677165354
11
7.248882047244094
21
-3.8195602362204721
0
LINE
8
BLACK
6
CONTINUOUS
10
7.248882047244094
20
-3.8195602362204721
11
7.2553853937007871
21
-3.8298079133858267
0
LINE
8
BLACK
6
CONTINUOUS
10
7.2553853937007871
20
-3.8298079133858267
11
7.263121889763779
21
-3.8391596850393701
0
LINE
8
BLACK
6
CONTINUOUS
10
7.263121889763779
20
-3.8391596850393701
11
7.2719694488188971
21
-3.8474681102362203
0
LINE
8
BLACK
6
CONTINUOUS
10
7.2719694488188971
20
-3.8474681102362203
11
7.2817885433070861
21
-3.854602086614173
0
LINE
8
BLACK
6
CONTINUOUS
10
7.2817885433070861
20
-3.854602086614173
11
7.2924243307086609
21
-3.8604491732283464
0
LINE
8
BLACK
6
CONTINUOUS
10
7.2924243307086609
20
-3.8604491732283464
11
7.3037090944881884
21
-3.8649171259842521
0
LINE
8
BLACK
6
CONTINUOUS
10
7.3037090944881884
20
-3.8649171259842521
11
7.3154648818897634
21
-3.8679355118110235
0
LINE
8
BLACK
6
CONTINUOUS
10
7.3154648818897634
20
-3.8679355118110235
11
7.3275062598425196
21
-3.8694566929133858
0
LINE
8
BLACK
6
CONTINUOUS
10
7.3275062598425196
20
-3.8694566929133858
11
7.3396433464566924
21
-3.8694566929133858
0
LINE
8
BLACK
6
CONTINUOUS
10
7.3396433464566924
20
-3.8694566929133858
11
7.3516847244094485
21
-3.8679355118110235
0
LINE
8
BLACK
6
CONTINUOUS
10
7.3516847244094485
20
-3.8679355118110235
11
7.3634405118110235
21
-3.8649171259842521
0
LINE
8
BLACK
6
CONTINUOUS
10
7.3634405118110235
20
-3.8649171259842521
11
7.374725275590551
21
-3.8604491732283464
0
LINE
8
BLACK
6
CONTINUOUS
10
7.374725275590551
20
-3.8604491732283464
11
7.3853610629921258
21
-3.854602086614173
0
LINE
8
BLACK
6
CONTINUOUS
10
7.3853610629921258
20
-3.854602086614173
11
7.3951801574803149
21
-3.8474681102362203
0
LINE
8
BLACK
6
CONTINUOUS
10
7.3951801574803149
20
-3.8474681102362203
11
7.4040277165354329
21
-3.8391596850393701
0
LINE
8
BLACK
6
CONTINUOUS
10
7.4040277165354329
20
-3.8391596850393701
11
7.4117642125984249
21
-3.8298079133858267
0
LINE
8
BLACK
6
CONTINUOUS
10
7.4117642125984249
20
-3.8298079133858267
11
7.4182675590551179
21
-3.8195602362204721
0
LINE
8
BLACK
6
CONTINUOUS
10
7.4182675590551179
20
-3.8195602362204721
11
7.4234352755905508
21
-3.8085782677165354
0
LINE
8
BLACK
6
CONTINUOUS
10
7.4234352755905508
20
-3.8085782677165354
11
7.4271858661417323
21
-3.7970352362204722
0
LINE
8
BLACK
6
CONTINUOUS
10
7.4271858661417323
20
-3.7970352362204722
11
7.429460118110236
21
-3.7851131496062993
0
LINE
8
BLACK
6
CONTINUOUS
10
7.429460118110236
20
-3.7851131496062993
11
7.4302222047244095
21
-3.7730000000000001
0
LINE
8
BLACK
6
CONTINUOUS
10
7.4302222047244095
20
-3.7730000000000001
11
7.429460118110236
21
-3.7608868503937005
0
LINE
8
BLACK
6
CONTINUOUS
10
7.429460118110236
20
-3.7608868503937005
11
7.4271858661417323
21
-3.7489647637795276
0
LINE
8
BLACK
6
CONTINUOUS
10
7.4271858661417323
20
-3.7489647637795276
11
7.4234352755905508
21
-3.7374217322834644
0
LINE
8
BLACK
6
CONTINUOUS
10
7.4234352755905508
20
-3.7374217322834644
11
7.4182675590551179
21
-3.7264397637795277
0
LINE
8
BLACK
6
CONTINUOUS
10
7.4182675590551179
20
-3.7264397637795277
11
7.4117642125984249
21
-3.7161920866141731
0
LINE
8
BLACK
6
CONTINUOUS
10
7.4117642125984249
20
-3.7161920866141731
11
7.4040277165354329
21
-3.7068403149606297
0
LINE
8
BLACK
6
CONTINUOUS
10
7.4040277165354329
20
-3.7068403149606297
11
7.3951801574803149
21
-3.6985318897637796
0
LINE
8
BLACK
6
CONTINUOUS
10
7.3951801574803149
20
-3.6985318897637796
11
7.3853610629921258
21
-3.6913979133858268
0
LINE
8
BLACK
6
CONTINUOUS
10
7.3853610629921258
20
-3.6913979133858268
11
7.374725275590551
21
-3.6855508267716535
0
LINE
8
BLACK
6
CONTINUOUS
10
7.374725275590551
20
-3.6855508267716535
11
7.3634405118110235
21
-3.6810828740157477
0
LINE
8
BLACK
6
CONTINUOUS
10
7.3634405118110235
20
-3.6810828740157477
11
7.3516847244094485
21
-3.6780644881889764
0
LINE
8
BLACK
6
CONTINUOUS
10
7.3516847244094485
20
-3.6780644881889764
11
7.3396433464566924
21
-3.676543307086614
0
LINE
8
BLACK
6
CONTINUOUS
10
7.3396433464566924
20
-3.676543307086614
11
7.3275062598425196
21
-3.676543307086614
0
LINE
8
BLACK
6
CONTINUOUS
10
7.3275062598425196
20
-3.676543307086614
11
7.3154648818897634
21
-3.6780644881889764
0
LINE
8
BLACK
6
CONTINUOUS
10
7.3154648818897634
20
-3.6780644881889764
11
7.3037090944881884
21
-3.6810828740157477
0
LINE
8
BLACK
6
CONTINUOUS
10
7.3037090944881884
20
-3.6810828740157477
11
7.2924243307086609
21
-3.6855508267716535
0
LINE
8
BLACK
6
CONTINUOUS
10
7.2924243307086609
20
-3.6855508267716535
11
7.2817885433070861
21
-3.6913979133858268
0
LINE
8
BLACK
6
CONTINUOUS
10
7.2817885433070861
20
-3.6913979133858268
11
7.2719694488188971
21
-3.6985318897637796
0
LINE
8
BLACK
6
CONTINUOUS
10
7.2719694488188971
20
-3.6985318897637796
11
7.263121889763779
21
-3.7068403149606297
0
LINE
8
BLACK
6
CONTINUOUS
10
7.263121889763779
20
-3.7068403149606297
11
7.2553853937007871
21
-3.7161920866141731
0
LINE
8
BLACK
6
CONTINUOUS
10
7.2553853937007871
20
-3.7161920866141731
11
7.248882047244094
21
-3.7264397637795277
0
LINE
8
BLACK
6
CONTINUOUS
10
7.248882047244094
20
-3.7264397637795277
11
7.2437143307086611
21
-3.7374217322834644
0
LINE
8
BLACK
6
CONTINUOUS
10
7.2437143307086611
20
-3.7374217322834644
11
7.2399637401574806
21
-3.7489647637795276
0
LINE
8
BLACK
6
CONTINUOUS
10
7.2399637401574806
20
-3.7489647637795276
11
7.237689488188976
21
-3.7608868503937005
0
LINE
8
BLACK
6
CONTINUOUS
10
7.237689488188976
20
-3.7608868503937005
11
7.2369274015748033
21
-3.7730000000000001
0
LINE
8
BLACK
6
CONTINUOUS
10
7.2369274015748033
20
-3.7730000000000001
11
7.237689488188976
21
-3.7851131496062993
0
LINE
8
BLACK
6
CONTINUOUS
10
3.7388118897637797
20
-1.9143845669291337
11
3.7510233464566927
21
-1.9175199212598424
0
LINE
8
BLACK
6
CONTINUOUS
10
3.7510233464566927
20
-1.9175199212598424
11
3.7627455511811023
21
-1.922161062992126
0
LINE
8
BLACK
6
CONTINUOUS
10
3.7627455511811023
20
-1.922161062992126
11
3.7737936220472439
21
-1.9282348031496062
0
LINE
8
BLACK
6
CONTINUOUS
10
3.7737936220472439
20
-1.9282348031496062
11
3.7839933464566928
21
-1.9356453149606299
0
LINE
8
BLACK
6
CONTINUOUS
10
3.7839933464566928
20
-1.9356453149606299
11
3.7931838582677164
21
-1.9442757874015748
0
LINE
8
BLACK
6
CONTINUOUS
10
3.7931838582677164
20
-1.9442757874015748
11
3.8012201968503936
21
-1.9539900787401574
0
LINE
8
BLACK
6
CONTINUOUS
10
3.8012201968503936
20
-1.9539900787401574
11
3.8079756692913387
21
-1.9646349606299212
0
LINE
8
BLACK
6
CONTINUOUS
10
3.8079756692913387
20
-1.9646349606299212
11
3.8133437007874016
21
-1.9760425984251968
0
LINE
8
BLACK
6
CONTINUOUS
10
3.8133437007874016
20
-1.9760425984251968
11
3.8172396456692912
21
-1.9880331102362205
0
LINE
8
BLACK
6
CONTINUOUS
10
3.8172396456692912
20
-1.9880331102362205
11
3.8196020472440946
21
-2.0004173228346458
0
LINE
8
BLACK
6
CONTINUOUS
10
3.8196020472440946
20
-2.0004173228346458
11
3.8203937007874016
21
-2.0129999999999999
0
LINE
8
BLACK
6
CONTINUOUS
10
3.8203937007874016
20
-2.0129999999999999
11
3.8196020472440946
21
-2.0255826771653545
0
LINE
8
BLACK
6
CONTINUOUS
10
3.8196020472440946
20
-2.0255826771653545
11
3.8172396456692912
21
-2.0379668897637795
0
LINE
8
BLACK
6
CONTINUOUS
10
3.8172396456692912
20
-2.0379668897637795
11
3.8133437007874016
21
-2.0499574015748032
0
LINE
8
BLACK
6
CONTINUOUS
10
3.8133437007874016
20
-2.0499574015748032
11
3.8079756692913387
21
-2.0613650393700786
0
LINE
8
BLACK
6
CONTINUOUS
10
3.8079756692913387
20
-2.0613650393700786
11
3.8012201968503936
21
-2.0720099212598426
0
LINE
8
BLACK
6
CONTINUOUS
10
3.8012201968503936
20
-2.0720099212598426
11
3.7931838582677164
21
-2.081724212598425
0
LINE
8
BLACK
6
CONTINUOUS
10
3.7931838582677164
20
-2.081724212598425
11
3.7839933464566928
21
-2.0903546850393702
0
LINE
8
BLACK
6
CONTINUOUS
10
3.7839933464566928
20
-2.0903546850393702
11
3.7737936220472439
21
-2.0977651968503936
0
LINE
8
BLACK
6
CONTINUOUS
10
3.7737936220472439
20
-2.0977651968503936
11
3.7627455511811023
21
-2.1038389370078741
0
LINE
8
BLACK
6
CONTINUOUS
10
3.7627455511811023
20
-2.1038389370078741
11
3.7510233464566927
21
-2.1084800787401576
0
LINE
8
BLACK
6
CONTINUOUS
10
3.7510233464566927
20
-2.1084800787401576
11
3.7388118897637797
21
-2.1116154330708663
0
LINE
8
BLACK
6
CONTINUOUS
10
3.7388118897637797
20
-2.1116154330708663
11
3.7263037795275591
21
-2.113195590551181
0
LINE
8
BLACK
6
CONTINUOUS
10
3.7263037795275591
20
-2.113195590551181
11
3.7136962204724409
21
-2.113195590551181
0
LINE
8
BLACK
6
CONTINUOUS
10
3.7136962204724409
20
-2.113195590551181
11
3.7011881102362203
21
-2.1116154330708663
0
LINE
8
BLACK
6
CONTINUOUS
10
3.7011881102362203
20
-2.1116154330708663
11
3.6889766535433068
21
-2.1084800787401576
0
LINE
8
BLACK
6
CONTINUOUS
10
3.6889766535433068
20
-2.1084800787401576
11
3.6772544488188976
21
-2.1038389370078741
0
LINE
8
BLACK
6
CONTINUOUS
10
3.6772544488188976
20
-2.1038389370078741
11
3.6662063779527556
21
-2.0977651968503936
0
LINE
8
BLACK
6
CONTINUOUS
10
3.6662063779527556
20
-2.0977651968503936
11
3.6560066535433071
21
-2.0903546850393702
0
LINE
8
BLACK
6
CONTINUOUS
10
3.6560066535433071
20
-2.0903546850393702
11
3.6468161417322835
21
-2.081724212598425
0
LINE
8
BLACK
6
CONTINUOUS
10
3.6468161417322835
20
-2.081724212598425
11
3.6387798031496064
21
-2.0720099212598426
0
LINE
8
BLACK
6
CONTINUOUS
10
3.6387798031496064
20
-2.0720099212598426
11
3.6320243307086613
21
-2.0613650393700786
0
LINE
8
BLACK
6
CONTINUOUS
10
3.6320243307086613
20
-2.0613650393700786
11
3.6266562992125984
21
-2.0499574015748032
0
LINE
8
BLACK
6
CONTINUOUS
10
3.6266562992125984
20
-2.0499574015748032
11
3.6227603543307088
21
-2.0379668897637795
0
LINE
8
BLACK
6
CONTINUOUS
10
3.6227603543307088
20
-2.0379668897637795
11
3.6203979527559054
21
-2.0255826771653545
0
LINE
8
BLACK
6
CONTINUOUS
10
3.6203979527559054
20
-2.0255826771653545
11
3.6196062992125984
21
-2.0129999999999999
0
LINE
8
BLACK
6
CONTINUOUS
10
3.6196062992125984
20
-2.0129999999999999
11
3.6203979527559054
21
-2.0004173228346458
0
LINE
8
BLACK
6
CONTINUOUS
10
3.6203979527559054
20
-2.0004173228346458
11
3.6227603543307088
21
-1.9880331102362205
0
LINE
8
BLACK
6
CONTINUOUS
10
3.6227603543307088
20
-1.9880331102362205
11
3.6266562992125984
21
-1.9760425984251968
0
LINE
8
BLACK
6
CONTINUOUS
10
3.6266562992125984
20
-1.9760425984251968
11
3.6320243307086613
21
-1.9646349606299212
0
LINE
8
BLACK
6
CONTINUOUS
10
3.6320243307086613
20
-1.9646349606299212
11
3.6387798031496064
21
-1.9539900787401574
0
LINE
8
BLACK
6
CONTINUOUS
10
3.6387798031496064
20
-1.9539900787401574
11
3.6468161417322835
21
-1.9442757874015748
0
LINE
8
BLACK
6
CONTINUOUS
10
3.6468161417322835
20
-1.9442757874015748
11
3.6560066535433071
21
-1.9356453149606299
0
LINE
8
BLACK
6
CONTINUOUS
10
3.6560066535433071
20
-1.9356453149606299
11
3.6662063779527556
21
-1.9282348031496062
0
LINE
8
BLACK
6
CONTINUOUS
10
3.6662063779527556
20
-1.9282348031496062
11
3.6772544488188976
21
-1.922161062992126
0
LINE
8
BLACK
6
CONTINUOUS
10
3.6772544488188976
20
-1.922161062992126
11
3.6889766535433068
21
-1.9175199212598424
0
LINE
8
BLACK
6
CONTINUOUS
10
3.6889766535433068
20
-1.9175199212598424
11
3.7011881102362203
21
-1.9143845669291337
0
LINE
8
BLACK
6
CONTINUOUS
10
3.7011881102362203
20
-1.9143845669291337
11
3.7136962204724409
21
-1.9128044094488188
0
LINE
8
BLACK
6
CONTINUOUS
10
3.7136962204724409
20
-1.9128044094488188
11
3.7263037795275591
21
-1.9128044094488188
0
LINE
8
BLACK
6
CONTINUOUS
10
3.7263037795275591
20
-1.9128044094488188
11
3.7388118897637797
21
-1.9143845669291337
0
LINE
8
BLACK
6
CONTINUOUS
10
3.6241146850393702
20
-2.0251131496062991
11
3.6263889370078739
21
-2.0370352362204724
0
LINE
8
BLACK
6
CONTINUOUS
10
3.6263889370078739
20
-2.0370352362204724
11
3.6301395275590549
21
-2.0485782677165352
0
LINE
8
BLACK
6
CONTINUOUS
10
3.6301395275590549
20
-2.0485782677165352
11
3.6353072440944882
21
-2.0595602362204724
0
LINE
8
BLACK
6
CONTINUOUS
10
3.6353072440944882
20
-2.0595602362204724
11
3.6418105905511808
21
-2.0698079133858269
0
LINE
8
BLACK
6
CONTINUOUS
10
3.6418105905511808
20
-2.0698079133858269
11
3.6495470866141733
21
-2.0791596850393699
0
LINE
8
BLACK
6
CONTINUOUS
10
3.6495470866141733
20
-2.0791596850393699
11
3.6583946456692913
21
-2.0874681102362205
0
LINE
8
BLACK
6
CONTINUOUS
10
3.6583946456692913
20
-2.0874681102362205
11
3.6682137401574804
21
-2.0946020866141732
0
LINE
8
BLACK
6
CONTINUOUS
10
3.6682137401574804
20
-2.0946020866141732
11
3.6788495275590551
21
-2.1004491732283466
0
LINE
8
BLACK
6
CONTINUOUS
10
3.6788495275590551
20
-2.1004491732283466
11
3.6901342913385826
21
-2.1049171259842518
0
LINE
8
BLACK
6
CONTINUOUS
10
3.6901342913385826
20
-2.1049171259842518
11
3.7018900787401572
21
-2.1079355118110237
0
LINE
8
BLACK
6
CONTINUOUS
10
3.7018900787401572
20
-2.1079355118110237
11
3.7139314566929134
21
-2.109456692913386
0
LINE
8
BLACK
6
CONTINUOUS
10
3.7139314566929134
20
-2.109456692913386
11
3.7260685433070866
21
-2.109456692913386
0
LINE
8
BLACK
6
CONTINUOUS
10
3.7260685433070866
20
-2.109456692913386
11
3.7381099212598423
21
-2.1079355118110237
0
LINE
8
BLACK
6
CONTINUOUS
10
3.7381099212598423
20
-2.1079355118110237
11
3.7498657086614173
21
-2.1049171259842518
0
LINE
8
BLACK
6
CONTINUOUS
10
3.7498657086614173
20
-2.1049171259842518
11
3.7611504724409448
21
-2.1004491732283466
0
LINE
8
BLACK
6
CONTINUOUS
10
3.7611504724409448
20
-2.1004491732283466
11
3.7717862598425196
21
-2.0946020866141732
0
LINE
8
BLACK
6
CONTINUOUS
10
3.7717862598425196
20
-2.0946020866141732
11
3.7816053543307087
21
-2.0874681102362205
0
LINE
8
BLACK
6
CONTINUOUS
10
3.7816053543307087
20
-2.0874681102362205
11
3.7904529133858267
21
-2.0791596850393699
0
LINE
8
BLACK
6
CONTINUOUS
10
3.7904529133858267
20
-2.0791596850393699
11
3.7981894094488187
21
-2.0698079133858269
0
LINE
8
BLACK
6
CONTINUOUS
10
3.7981894094488187
20
-2.0698079133858269
11
3.8046927559055117
21
-2.0595602362204724
0
LINE
8
BLACK
6
CONTINUOUS
10
3.8046927559055117
20
-2.0595602362204724
11
3.8098604724409446
21
-2.0485782677165352
0
LINE
8
BLACK
6
CONTINUOUS
10
3.8098604724409446
20
-2.0485782677165352
11
3.813611062992126
21
-2.0370352362204724
0
LINE
8
BLACK
6
CONTINUOUS
10
3.813611062992126
20
-2.0370352362204724
11
3.8158853149606298
21
-2.0251131496062991
0
LINE
8
BLACK
6
CONTINUOUS
10
3.8158853149606298
20
-2.0251131496062991
11
3.8166474015748029
21
-2.0129999999999999
0
LINE
8
BLACK
6
CONTINUOUS
10
3.8166474015748029
20
-2.0129999999999999
11
3.8158853149606298
21
-2.0008868503937007
0
LINE
8
BLACK
6
CONTINUOUS
10
3.8158853149606298
20
-2.0008868503937007
11
3.813611062992126
21
-1.9889647637795276
0
LINE
8
BLACK
6
CONTINUOUS
10
3.813611062992126
20
-1.9889647637795276
11
3.8098604724409446
21
-1.9774217322834646
0
LINE
8
BLACK
6
CONTINUOUS
10
3.8098604724409446
20
-1.9774217322834646
11
3.8046927559055117
21
-1.9664397637795274
0
LINE
8
BLACK
6
CONTINUOUS
10
3.8046927559055117
20
-1.9664397637795274
11
3.7981894094488187
21
-1.9561920866141731
0
LINE
8
BLACK
6
CONTINUOUS
10
3.7981894094488187
20
-1.9561920866141731
11
3.7904529133858267
21
-1.9468403149606299
0
LINE
8
BLACK
6
CONTINUOUS
10
3.7904529133858267
20
-1.9468403149606299
11
3.7816053543307087
21
-1.9385318897637795
0
LINE
8
BLACK
6
CONTINUOUS
10
3.7816053543307087
20
-1.9385318897637795
11
3.7717862598425196
21
-1.9313979133858268
0
LINE
8
BLACK
6
CONTINUOUS
10
3.7717862598425196
20
-1.9313979133858268
11
3.7611504724409448
21
-1.9255508267716535
0
LINE
8
BLACK
6
CONTINUOUS
10
3.7611504724409448
20
-1.9255508267716535
11
3.7498657086614173
21
-1.921082874015748
0
LINE
8
BLACK
6
CONTINUOUS
10
3.7498657086614173
20
-1.921082874015748
11
3.7381099212598423
21
-1.9180644881889763
0
LINE
8
BLACK
6
CONTINUOUS
10
3.7381099212598423
20
-1.9180644881889763
11
3.7260685433070866
21
-1.916543307086614
0
LINE
8
BLACK
6
CONTINUOUS
10
3.7260685433070866
20
-1.916543307086614
11
3.7139314566929134
21
-1.916543307086614
0
LINE
8
BLACK
6
CONTINUOUS
10
3.7139314566929134
20
-1.916543307086614
11
3.7018900787401572
21
-1.9180644881889763
0
LINE
8
BLACK
6
CONTINUOUS
10
3.7018900787401572
20
-1.9180644881889763
11
3.6901342913385826
21
-1.921082874015748
0
LINE
8
BLACK
6
CONTINUOUS
10
3.6901342913385826
20
-1.921082874015748
11
3.6788495275590551
21
-1.9255508267716535
0
LINE
8
BLACK
6
CONTINUOUS
10
3.6788495275590551
20
-1.9255508267716535
11
3.6682137401574804
21
-1.9313979133858268
0
LINE
8
BLACK
6
CONTINUOUS
10
3.6682137401574804
20
-1.9313979133858268
11
3.6583946456692913
21
-1.9385318897637795
0
LINE
8
BLACK
6
CONTINUOUS
10
3.6583946456692913
20
-1.9385318897637795
11
3.6495470866141733
21
-1.9468403149606299
0
LINE
8
BLACK
6
CONTINUOUS
10
3.6495470866141733
20
-1.9468403149606299
11
3.6418105905511808
21
-1.9561920866141731
0
LINE
8
BLACK
6
CONTINUOUS
10
3.6418105905511808
20
-1.9561920866141731
11
3.6353072440944882
21
-1.9664397637795274
0
LINE
8
BLACK
6
CONTINUOUS
10
3.6353072440944882
20
-1.9664397637795274
11
3.6301395275590549
21
-1.9774217322834646
0
LINE
8
BLACK
6
CONTINUOUS
10
3.6301395275590549
20
-1.9774217322834646
11
3.6263889370078739
21
-1.9889647637795276
0
LINE
8
BLACK
6
CONTINUOUS
10
3.6263889370078739
20
-1.9889647637795276
11
3.6241146850393702
21
-2.0008868503937007
0
LINE
8
BLACK
6
CONTINUOUS
10
3.6241146850393702
20
-2.0008868503937007
11
3.6233525984251966
21
-2.0129999999999999
0
LINE
8
BLACK
6
CONTINUOUS
10
3.6233525984251966
20
-2.0129999999999999
11
3.6241146850393702
21
-2.0251131496062991
0
LINE
8
BLACK
6
CONTINUOUS
10
7.3583866929133857
20
-1.7753845669291337
11
7.3705981496062991
21
-1.7785199212598424
0
LINE
8
BLACK
6
CONTINUOUS
10
7.3705981496062991
20
-1.7785199212598424
11
7.3823203543307088
21
-1.783161062992126
0
LINE
8
BLACK
6
CONTINUOUS
10
7.3823203543307088
20
-1.783161062992126
11
7.3933684251968499
21
-1.7892348031496064
0
LINE
8
BLACK
6
CONTINUOUS
10
7.3933684251968499
20
-1.7892348031496064
11
7.4035681496062988
21
-1.7966453149606298
0
LINE
8
BLACK
6
CONTINUOUS
10
7.4035681496062988
20
-1.7966453149606298
11
7.4127586614173229
21
-1.8052757874015748
0
LINE
8
BLACK
6
CONTINUOUS
10
7.4127586614173229
20
-1.8052757874015748
11
7.420795
21
-1.8149900787401574
0
LINE
8
BLACK
6
CONTINUOUS
10
7.420795
20
-1.8149900787401574
11
7.4275504724409451
21
-1.8256349606299211
0
LINE
8
BLACK
6
CONTINUOUS
10
7.4275504724409451
20
-1.8256349606299211
11
7.4329185039370076
21
-1.8370425984251968
0
LINE
8
BLACK
6
CONTINUOUS
10
7.4329185039370076
20
-1.8370425984251968
11
7.4368144488188976
21
-1.8490331102362205
0
LINE
8
BLACK
6
CONTINUOUS
10
7.4368144488188976
20
-1.8490331102362205
11
7.439176850393701
21
-1.8614173228346456
0
LINE
8
BLACK
6
CONTINUOUS
10
7.439176850393701
20
-1.8614173228346456
11
7.439968503937008
21
-1.8739999999999999
0
LINE
8
BLACK
6
CONTINUOUS
10
7.439968503937008
20
-1.8739999999999999
11
7.439176850393701
21
-1.8865826771653542
0
LINE
8
BLACK
6
CONTINUOUS
10
7.439176850393701
20
-1.8865826771653542
11
7.4368144488188976
21
-1.8989668897637795
0
LINE
8
BLACK
6
CONTINUOUS
10
7.4368144488188976
20
-1.8989668897637795
11
7.4329185039370076
21
-1.9109574015748032
0
LINE
8
BLACK
6
CONTINUOUS
10
7.4329185039370076
20
-1.9109574015748032
11
7.4275504724409451
21
-1.9223650393700786
0
LINE
8
BLACK
6
CONTINUOUS
10
7.4275504724409451
20
-1.9223650393700786
11
7.420795
21
-1.9330099212598424
0
LINE
8
BLACK
6
CONTINUOUS
10
7.420795
20
-1.9330099212598424
11
7.4127586614173229
21
-1.9427242125984252
0
LINE
8
BLACK
6
CONTINUOUS
10
7.4127586614173229
20
-1.9427242125984252
11
7.4035681496062988
21
-1.9513546850393699
0
LINE
8
BLACK
6
CONTINUOUS
10
7.4035681496062988
20
-1.9513546850393699
11
7.3933684251968499
21
-1.9587651968503936
0
LINE
8
BLACK
6
CONTINUOUS
10
7.3933684251968499
20
-1.9587651968503936
11
7.3823203543307088
21
-1.964838937007874
0
LINE
8
BLACK
6
CONTINUOUS
10
7.3823203543307088
20
-1.964838937007874
11
7.3705981496062991
21
-1.9694800787401574
0
LINE
8
BLACK
6
CONTINUOUS
10
7.3705981496062991
20
-1.9694800787401574
11
7.3583866929133857
21
-1.9726154330708661
0
LINE
8
BLACK
6
CONTINUOUS
10
7.3583866929133857
20
-1.9726154330708661
11
7.3458785826771651
21
-1.974195590551181
0
LINE
8
BLACK
6
CONTINUOUS
10
7.3458785826771651
20
-1.974195590551181
11
7.3332710236220473
21
-1.974195590551181
0
LINE
8
BLACK
6
CONTINUOUS
10
7.3332710236220473
20
-1.974195590551181
11
7.3207629133858267
21
-1.9726154330708661
0
LINE
8
BLACK
6
CONTINUOUS
10
7.3207629133858267
20
-1.9726154330708661
11
7.3085514566929133
21
-1.9694800787401574
0
LINE
8
BLACK
6
CONTINUOUS
10
7.3085514566929133
20
-1.9694800787401574
11
7.2968292519685036
21
-1.964838937007874
0
LINE
8
BLACK
6
CONTINUOUS
10
7.2968292519685036
20
-1.964838937007874
11
7.2857811811023616
21
-1.9587651968503936
0
LINE
8
BLACK
6
CONTINUOUS
10
7.2857811811023616
20
-1.9587651968503936
11
7.2755814566929136
21
-1.9513546850393699
0
LINE
8
BLACK
6
CONTINUOUS
10
7.2755814566929136
20
-1.9513546850393699
11
7.2663909448818895
21
-1.9427242125984252
0
LINE
8
BLACK
6
CONTINUOUS
10
7.2663909448818895
20
-1.9427242125984252
11
7.2583546062992124
21
-1.9330099212598424
0
LINE
8
BLACK
6
CONTINUOUS
10
7.2583546062992124
20
-1.9330099212598424
11
7.2515991338582673
21
-1.9223650393700786
0
LINE
8
BLACK
6
CONTINUOUS
10
7.2515991338582673
20
-1.9223650393700786
11
7.2462311023622048
21
-1.9109574015748032
0
LINE
8
BLACK
6
CONTINUOUS
10
7.2462311023622048
20
-1.9109574015748032
11
7.2423351574803148
21
-1.8989668897637795
0
LINE
8
BLACK
6
CONTINUOUS
10
7.2423351574803148
20
-1.8989668897637795
11
7.2399727559055114
21
-1.8865826771653542
0
LINE
8
BLACK
6
CONTINUOUS
10
7.2399727559055114
20
-1.8865826771653542
11
7.2391811023622044
21
-1.8739999999999999
0
LINE
8
BLACK
6
CONTINUOUS
10
7.2391811023622044
20
-1.8739999999999999
11
7.2399727559055114
21
-1.8614173228346456
0
LINE
8
BLACK
6
CONTINUOUS
10
7.2399727559055114
20
-1.8614173228346456
11
7.2423351574803148
21
-1.8490331102362205
0
LINE
8
BLACK
6
CONTINUOUS
10
7.2423351574803148
20
-1.8490331102362205
11
7.2462311023622048
21
-1.8370425984251968
0
LINE
8
BLACK
6
CONTINUOUS
10
7.2462311023622048
20
-1.8370425984251968
11
7.2515991338582673
21
-1.8256349606299211
0
LINE
8
BLACK
6
CONTINUOUS
10
7.2515991338582673
20
-1.8256349606299211
11
7.2583546062992124
21
-1.8149900787401574
0
LINE
8
BLACK
6
CONTINUOUS
10
7.2583546062992124
20
-1.8149900787401574
11
7.2663909448818895
21
-1.8052757874015748
0
LINE
8
BLACK
6
CONTINUOUS
10
7.2663909448818895
20
-1.8052757874015748
11
7.2755814566929136
21
-1.7966453149606298
0
LINE
8
BLACK
6
CONTINUOUS
10
7.2755814566929136
20
-1.7966453149606298
11
7.2857811811023616
21
-1.7892348031496064
0
LINE
8
BLACK
6
CONTINUOUS
10
7.2857811811023616
20
-1.7892348031496064
11
7.2968292519685036
21
-1.783161062992126
0
LINE
8
BLACK
6
CONTINUOUS
10
7.2968292519685036
20
-1.783161062992126
11
7.3085514566929133
21
-1.7785199212598424
0
LINE
8
BLACK
6
CONTINUOUS
10
7.3085514566929133
20
-1.7785199212598424
11
7.3207629133858267
21
-1.7753845669291337
0
LINE
8
BLACK
6
CONTINUOUS
10
7.3207629133858267
20
-1.7753845669291337
11
7.3332710236220473
21
-1.7738044094488188
0
LINE
8
BLACK
6
CONTINUOUS
10
7.3332710236220473
20
-1.7738044094488188
11
7.3458785826771651
21
-1.7738044094488188
0
LINE
8
BLACK
6
CONTINUOUS
10
7.3458785826771651
20
-1.7738044094488188
11
7.3583866929133857
21
-1.7753845669291337
0
LINE
8
BLACK
6
CONTINUOUS
10
7.2436894881889762
20
-1.8861131496062993
11
7.2459637401574799
21
-1.8980352362204724
0
LINE
8
BLACK
6
CONTINUOUS
10
7.2459637401574799
20
-1.8980352362204724
11
7.2497143307086613
21
-1.9095782677165354
0
LINE
8
BLACK
6
CONTINUOUS
10
7.2497143307086613
20
-1.9095782677165354
11
7.2548820472440942
21
-1.9205602362204723
0
LINE
8
BLACK
6
CONTINUOUS
10
7.2548820472440942
20
-1.9205602362204723
11
7.2613853937007873
21
-1.9308079133858267
0
LINE
8
BLACK
6
CONTINUOUS
10
7.2613853937007873
20
-1.9308079133858267
11
7.2691218897637793
21
-1.9401596850393701
0
LINE
8
BLACK
6
CONTINUOUS
10
7.2691218897637793
20
-1.9401596850393701
11
7.2779694488188973
21
-1.9484681102362205
0
LINE
8
BLACK
6
CONTINUOUS
10
7.2779694488188973
20
-1.9484681102362205
11
7.2877885433070864
21
-1.9556020866141732
0
LINE
8
BLACK
6
CONTINUOUS
10
7.2877885433070864
20
-1.9556020866141732
11
7.2984243307086611
21
-1.9614491732283463
0
LINE
8
BLACK
6
CONTINUOUS
10
7.2984243307086611
20
-1.9614491732283463
11
7.3097090944881886
21
-1.9659171259842518
0
LINE
8
BLACK
6
CONTINUOUS
10
7.3097090944881886
20
-1.9659171259842518
11
7.3214648818897636
21
-1.9689355118110237
0
LINE
8
BLACK
6
CONTINUOUS
10
7.3214648818897636
20
-1.9689355118110237
11
7.3335062598425198
21
-1.9704566929133858
0
LINE
8
BLACK
6
CONTINUOUS
10
7.3335062598425198
20
-1.9704566929133858
11
7.3456433464566926
21
-1.9704566929133858
0
LINE
8
BLACK
6
CONTINUOUS
10
7.3456433464566926
20
-1.9704566929133858
11
7.3576847244094488
21
-1.9689355118110237
0
LINE
8
BLACK
6
CONTINUOUS
10
7.3576847244094488
20
-1.9689355118110237
11
7.3694405118110238
21
-1.9659171259842518
0
LINE
8
BLACK
6
CONTINUOUS
10
7.3694405118110238
20
-1.9659171259842518
11
7.3807252755905512
21
-1.9614491732283463
0
LINE
8
BLACK
6
CONTINUOUS
10
7.3807252755905512
20
-1.9614491732283463
11
7.391361062992126
21
-1.9556020866141732
0
LINE
8
BLACK
6
CONTINUOUS
10
7.391361062992126
20
-1.9556020866141732
11
7.4011801574803151
21
-1.9484681102362205
0
LINE
8
BLACK
6
CONTINUOUS
10
7.4011801574803151
20
-1.9484681102362205
11
7.4100277165354331
21
-1.9401596850393701
0
LINE
8
BLACK
6
CONTINUOUS
10
7.4100277165354331
20
-1.9401596850393701
11
7.4177642125984251
21
-1.9308079133858267
0
LINE
8
BLACK
6
CONTINUOUS
10
7.4177642125984251
20
-1.9308079133858267
11
7.4242675590551181
21
-1.9205602362204723
0
LINE
8
BLACK
6
CONTINUOUS
10
7.4242675590551181
20
-1.9205602362204723
11
7.4294352755905511
21
-1.9095782677165354
0
LINE
8
BLACK
6
CONTINUOUS
10
7.4294352755905511
20
-1.9095782677165354
11
7.4331858661417325
21
-1.8980352362204724
0
LINE
8
BLACK
6
CONTINUOUS
10
7.4331858661417325
20
-1.8980352362204724
11
7.4354601181102362
21
-1.8861131496062993
0
LINE
8
BLACK
6
CONTINUOUS
10
7.4354601181102362
20
-1.8861131496062993
11
7.4362222047244089
21
-1.8739999999999999
0
LINE
8
BLACK
6
CONTINUOUS
10
7.4362222047244089
20
-1.8739999999999999
11
7.4354601181102362
21
-1.8618868503937007
0
LINE
8
BLACK
6
CONTINUOUS
10
7.4354601181102362
20
-1.8618868503937007
11
7.4331858661417325
21
-1.8499647637795276
0
LINE
8
BLACK
6
CONTINUOUS
10
7.4331858661417325
20
-1.8499647637795276
11
7.4294352755905511
21
-1.8384217322834646
0
LINE
8
BLACK
6
CONTINUOUS
10
7.4294352755905511
20
-1.8384217322834646
11
7.4242675590551181
21
-1.8274397637795274
0
LINE
8
BLACK
6
CONTINUOUS
10
7.4242675590551181
20
-1.8274397637795274
11
7.4177642125984251
21
-1.8171920866141731
0
LINE
8
BLACK
6
CONTINUOUS
10
7.4177642125984251
20
-1.8171920866141731
11
7.4100277165354331
21
-1.8078403149606299
0
LINE
8
BLACK
6
CONTINUOUS
10
7.4100277165354331
20
-1.8078403149606299
11
7.4011801574803151
21
-1.7995318897637795
0
LINE
8
BLACK
6
CONTINUOUS
10
7.4011801574803151
20
-1.7995318897637795
11
7.391361062992126
21
-1.7923979133858268
0
LINE
8
BLACK
6
CONTINUOUS
10
7.391361062992126
20
-1.7923979133858268
11
7.3807252755905512
21
-1.7865508267716534
0
LINE
8
BLACK
6
CONTINUOUS
10
7.3807252755905512
20
-1.7865508267716534
11
7.3694405118110238
21
-1.7820828740157479
0
LINE
8
BLACK
6
CONTINUOUS
10
7.3694405118110238
20
-1.7820828740157479
11
7.3576847244094488
21
-1.7790644881889763
0
LINE
8
BLACK
6
CONTINUOUS
10
7.3576847244094488
20
-1.7790644881889763
11
7.3456433464566926
21
-1.7775433070866142
0
LINE
8
BLACK
6
CONTINUOUS
10
7.3456433464566926
20
-1.7775433070866142
11
7.3335062598425198
21
-1.7775433070866142
0
LINE
8
BLACK
6
CONTINUOUS
10
7.3335062598425198
20
-1.7775433070866142
11
7.3214648818897636
21
-1.7790644881889763
0
LINE
8
BLACK
6
CONTINUOUS
10
7.3214648818897636
20
-1.7790644881889763
11
7.3097090944881886
21
-1.7820828740157479
0
LINE
8
BLACK
6
CONTINUOUS
10
7.3097090944881886
20
-1.7820828740157479
11
7.2984243307086611
21
-1.7865508267716534
0
LINE
8
BLACK
6
CONTINUOUS
10
7.2984243307086611
20
-1.7865508267716534
11
7.2877885433070864
21
-1.7923979133858268
0
LINE
8
BLACK
6
CONTINUOUS
10
7.2877885433070864
20
-1.7923979133858268
11
7.2779694488188973
21
-1.7995318897637795
0
LINE
8
BLACK
6
CONTINUOUS
10
7.2779694488188973
20
-1.7995318897637795
11
7.2691218897637793
21
-1.8078403149606299
0
LINE
8
BLACK
6
CONTINUOUS
10
7.2691218897637793
20
-1.8078403149606299
11
7.2613853937007873
21
-1.8171920866141731
0
LINE
8
BLACK
6
CONTINUOUS
10
7.2613853937007873
20
-1.8171920866141731
11
7.2548820472440942
21
-1.8274397637795274
0
LINE
8
BLACK
6
CONTINUOUS
10
7.2548820472440942
20
-1.8274397637795274
11
7.2497143307086613
21
-1.8384217322834646
0
LINE
8
BLACK
6
CONTINUOUS
10
7.2497143307086613
20
-1.8384217322834646
11
7.2459637401574799
21
-1.8499647637795276
0
LINE
8
BLACK
6
CONTINUOUS
10
7.2459637401574799
20
-1.8499647637795276
11
7.2436894881889762
21
-1.8618868503937007
0
LINE
8
BLACK
6
CONTINUOUS
10
7.2436894881889762
20
-1.8618868503937007
11
7.2429274015748026
21
-1.8739999999999999
0
LINE
8
BLACK
6
CONTINUOUS
10
7.2429274015748026
20
-1.8739999999999999
11
7.2436894881889762
21
-1.8861131496062993
0
LINE
8
BLACK
6
CONTINUOUS
10
8.2219934251968496
20
-1.3186268503937009
11
8.2338357086614167
21
-1.3203743307086613
0
LINE
8
BLACK
6
CONTINUOUS
10
8.2338357086614167
20
-1.3203743307086613
11
8.2454511811023625
21
-1.3232682283464567
0
LINE
8
BLACK
6
CONTINUOUS
10
8.2454511811023625
20
-1.3232682283464567
11
8.2567290944881879
21
-1.3272809448818896
0
LINE
8
BLACK
6
CONTINUOUS
10
8.2567290944881879
20
-1.3272809448818896
11
8.267562007874016
21
-1.3323741732283465
0
LINE
8
BLACK
6
CONTINUOUS
10
8.267562007874016
20
-1.3323741732283465
11
8.2778466929133856
21
-1.3384994488188977
0
LINE
8
BLACK
6
CONTINUOUS
10
8.2778466929133856
20
-1.3384994488188977
11
8.2874850787401577
21
-1.3455983858267717
0
LINE
8
BLACK
6
CONTINUOUS
10
8.2874850787401577
20
-1.3455983858267717
11
8.2962559448818904
21
-1.3534868503937008
0
LINE
8
BLACK
6
CONTINUOUS
10
8.2962559448818904
20
-1.3534868503937008
11
8.2962610236220478
21
-1.3534884645669292
0
LINE
8
BLACK
6
CONTINUOUS
10
8.2962610236220478
20
-1.3534884645669292
11
8.8201597244094483
21
-1.790557874015748
0
LINE
8
BLACK
6
CONTINUOUS
10
8.8201597244094483
20
-1.790557874015748
11
8.8201975590551172
21
-1.7906300787401574
0
LINE
8
BLACK
6
CONTINUOUS
10
8.8201975590551172
20
-1.7906300787401574
11
8.8202905905511813
21
-1.7906774803149605
0
LINE
8
BLACK
6
CONTINUOUS
10
8.8202905905511813
20
-1.7906774803149605
11
8.8276772440944882
21
-1.7988273622047244
0
LINE
8
BLACK
6
CONTINUOUS
10
8.8276772440944882
20
-1.7988273622047244
11
8.8342295275590548
21
-1.8076620078740158
0
LINE
8
BLACK
6
CONTINUOUS
10
8.8342295275590548
20
-1.8076620078740158
11
8.8398843307086619
21
-1.8170962992125983
0
LINE
8
BLACK
6
CONTINUOUS
10
8.8398843307086619
20
-1.8170962992125983
11
8.8445872047244087
21
-1.8270394881889764
0
LINE
8
BLACK
6
CONTINUOUS
10
8.8445872047244087
20
-1.8270394881889764
11
8.8482928346456688
21
-1.8373957086614172
0
LINE
8
BLACK
6
CONTINUOUS
10
8.8482928346456688
20
-1.8373957086614172
11
8.8509655118110242
21
-1.8480652755905511
0
LINE
8
BLACK
6
CONTINUOUS
10
8.8509655118110242
20
-1.8480652755905511
11
8.8525796062992121
21
-1.8589454330708661
0
LINE
8
BLACK
6
CONTINUOUS
10
8.8525796062992121
20
-1.8589454330708661
11
8.853119448818898
21
-1.8699314173228345
0
LINE
8
BLACK
6
CONTINUOUS
10
8.853119448818898
20
-1.8699314173228345
11
8.853118661417323
21
-1.8699314173228345
0
LINE
8
BLACK
6
CONTINUOUS
10
8.853118661417323
20
-1.8699314173228345
11
8.8531186220472442
21
-1.8699314566929133
0
LINE
8
BLACK
6
CONTINUOUS
10
8.8531186220472442
20
-1.8699314566929133
11
8.853118661417323
21
-1.8699315354330708
0
LINE
8
BLACK
6
CONTINUOUS
10
8.853118661417323
20
-1.8699315354330708
11
8.8530378740157474
21
-3.9100058267716533
0
LINE
8
BLACK
6
CONTINUOUS
10
8.8530378740157474
20
-3.9100058267716533
11
8.8523329133858262
21
-3.922554842519685
0
LINE
8
BLACK
6
CONTINUOUS
10
8.8523329133858262
20
-3.922554842519685
11
8.8502273622047234
21
-3.934946023622047
0
LINE
8
BLACK
6
CONTINUOUS
10
8.8502273622047234
20
-3.934946023622047
11
8.8467477165354325
21
-3.9470235826771654
0
LINE
8
BLACK
6
CONTINUOUS
10
8.8467477165354325
20
-3.9470235826771654
11
8.8419376377952759
21
-3.958635590551181
0
LINE
8
BLACK
6
CONTINUOUS
10
8.8419376377952759
20
-3.958635590551181
11
8.8358577165354326
21
-3.9696360236220474
0
LINE
8
BLACK
6
CONTINUOUS
10
8.8358577165354326
20
-3.9696360236220474
11
8.8285843700787403
21
-3.9798865354330708
0
LINE
8
BLACK
6
CONTINUOUS
10
8.8285843700787403
20
-3.9798865354330708
11
8.8202090944881881
21
-3.9892582677165351
0
LINE
8
BLACK
6
CONTINUOUS
10
8.8202090944881881
20
-3.9892582677165351
11
8.8108371259842517
21
-3.9976333464566927
0
LINE
8
BLACK
6
CONTINUOUS
10
8.8108371259842517
20
-3.9976333464566927
11
8.800586417322835
21
-4.0049064566929129
0
LINE
8
BLACK
6
CONTINUOUS
10
8.800586417322835
20
-4.0049064566929129
11
8.7895858267716527
21
-4.0109861023622049
0
LINE
8
BLACK
6
CONTINUOUS
10
8.7895858267716527
20
-4.0109861023622049
11
8.7779737401574796
21
-4.0157958661417323
0
LINE
8
BLACK
6
CONTINUOUS
10
8.7779737401574796
20
-4.0157958661417323
11
8.7658961023622037
21
-4.019275236220472
0
LINE
8
BLACK
6
CONTINUOUS
10
8.7658961023622037
20
-4.019275236220472
11
8.7535048425196855
21
-4.0213804724409448
0
LINE
8
BLACK
6
CONTINUOUS
10
8.7535048425196855
20
-4.0213804724409448
11
8.7409633070866146
21
-4.0220846850393697
0
LINE
8
BLACK
6
CONTINUOUS
10
8.7409633070866146
20
-4.0220846850393697
11
8.7409558267716534
21
-4.0220877952755902
0
LINE
8
BLACK
6
CONTINUOUS
10
8.7409558267716534
20
-4.0220877952755902
11
8.7409558267716534
21
-4.022087834645669
0
LINE
8
BLACK
6
CONTINUOUS
10
8.7409558267716534
20
-4.022087834645669
11
8.7409557480314959
21
-4.0220877952755902
0
LINE
8
BLACK
6
CONTINUOUS
10
8.7409557480314959
20
-4.0220877952755902
11
8.7409557480314959
21
-4.022087834645669
0
LINE
8
BLACK
6
CONTINUOUS
10
8.7409557480314959
20
-4.022087834645669
11
2.9800435433070867
21
-4.0218863779527556
0
LINE
8
BLACK
6
CONTINUOUS
10
2.9800435433070867
20
-4.0218863779527556
11
2.9800435039370079
21
-4.0218863385826769
0
LINE
8
BLACK
6
CONTINUOUS
10
2.9800435039370079
20
-4.0218863385826769
11
2.9674943307086612
21
-4.0211816535433069
0
LINE
8
BLACK
6
CONTINUOUS
10
2.9674943307086612
20
-4.0211816535433069
11
2.9551028740157479
21
-4.0190762992125979
0
LINE
8
BLACK
6
CONTINUOUS
10
2.9551028740157479
20
-4.0190762992125979
11
2.9430250393700788
21
-4.015596811023622
0
LINE
8
BLACK
6
CONTINUOUS
10
2.9430250393700788
20
-4.015596811023622
11
2.9314127165354331
21
-4.0107868897637795
0
LINE
8
BLACK
6
CONTINUOUS
10
2.9314127165354331
20
-4.0107868897637795
11
2.9204119685039371
21
-4.0047070866141734
0
LINE
8
BLACK
6
CONTINUOUS
10
2.9204119685039371
20
-4.0047070866141734
11
2.9101611023622045
21
-3.997433779527559
0
LINE
8
BLACK
6
CONTINUOUS
10
2.9101611023622045
20
-3.997433779527559
11
2.9007890157480314
21
-3.9890585039370077
0
LINE
8
BLACK
6
CONTINUOUS
10
2.9007890157480314
20
-3.9890585039370077
11
2.8924136220472438
21
-3.9796865354330708
0
LINE
8
BLACK
6
CONTINUOUS
10
2.8924136220472438
20
-3.9796865354330708
11
2.8851401968503936
21
-3.9694357874015749
0
LINE
8
BLACK
6
CONTINUOUS
10
2.8851401968503936
20
-3.9694357874015749
11
2.8790602362204725
21
-3.9584350787401572
0
LINE
8
BLACK
6
CONTINUOUS
10
2.8790602362204725
20
-3.9584350787401572
11
2.874250157480315
21
-3.9468228346456691
0
LINE
8
BLACK
6
CONTINUOUS
10
2.874250157480315
20
-3.9468228346456691
11
2.8707704724409449
21
-3.9347450787401574
0
LINE
8
BLACK
6
CONTINUOUS
10
2.8707704724409449
20
-3.9347450787401574
11
2.8686649606299213
21
-3.9223536220472441
0
LINE
8
BLACK
6
CONTINUOUS
10
2.8686649606299213
20
-3.9223536220472441
11
2.8679600787401576
21
-3.9098043700787399
0
LINE
8
BLACK
6
CONTINUOUS
10
2.8679600787401576
20
-3.9098043700787399
11
2.8679615748031497
21
-3.9098043700787399
0
LINE
8
BLACK
6
CONTINUOUS
10
2.8679615748031497
20
-3.9098043700787399
11
2.8679179527559056
21
-2.0550000393700789
0
LINE
8
BLACK
6
CONTINUOUS
10
2.8679179527559056
20
-2.0550000393700789
11
2.8679179527559056
21
-2.0550000000000002
0
LINE
8
BLACK
6
CONTINUOUS
10
2.8679179527559056
20
-2.0550000000000002
11
2.868622716535433
21
-2.0424507874015747
0
LINE
8
BLACK
6
CONTINUOUS
10
2.868622716535433
20
-2.0424507874015747
11
2.8707280708661416
21
-2.0300594094488189
0
LINE
8
BLACK
6
CONTINUOUS
10
2.8707280708661416
20
-2.0300594094488189
11
2.8742076377952754
21
-2.0179816535433068
0
LINE
8
BLACK
6
CONTINUOUS
10
2.8742076377952754
20
-2.0179816535433068
11
2.8790175590551179
21
-2.0063694094488187
0
LINE
8
BLACK
6
CONTINUOUS
10
2.8790175590551179
20
-2.0063694094488187
11
2.8850974015748032
21
-1.9953687401574802
0
LINE
8
BLACK
6
CONTINUOUS
10
2.8850974015748032
20
-1.9953687401574802
11
2.8923707086614172
21
-1.9851179921259843
0
LINE
8
BLACK
6
CONTINUOUS
10
2.8923707086614172
20
-1.9851179921259843
11
2.9007460236220473
21
-1.9757460236220472
0
LINE
8
BLACK
6
CONTINUOUS
10
2.9007460236220473
20
-1.9757460236220472
11
2.9101179921259841
21
-1.9673707086614174
0
LINE
8
BLACK
6
CONTINUOUS
10
2.9101179921259841
20
-1.9673707086614174
11
2.92036874015748
21
-1.9600974015748032
0
LINE
8
BLACK
6
CONTINUOUS
10
2.92036874015748
20
-1.9600974015748032
11
2.931369409448819
21
-1.9540175590551181
0
LINE
8
BLACK
6
CONTINUOUS
10
2.931369409448819
20
-1.9540175590551181
11
2.9429816535433071
21
-1.9492076377952756
0
LINE
8
BLACK
6
CONTINUOUS
10
2.9429816535433071
20
-1.9492076377952756
11
2.9550594094488187
21
-1.9457280708661417
0
LINE
8
BLACK
6
CONTINUOUS
10
2.9550594094488187
20
-1.9457280708661417
11
2.9674507874015745
21
-1.9436227165354329
0
LINE
8
BLACK
6
CONTINUOUS
10
2.9674507874015745
20
-1.9436227165354329
11
2.98
21
-1.9429179527559055
0
LINE
8
BLACK
6
CONTINUOUS
10
2.98
20
-1.9429179527559055
11
2.98000031496063
21
-1.942918031496063
0
LINE
8
BLACK
6
CONTINUOUS
10
2.98000031496063
20
-1.942918031496063
11
2.9800005905511808
21
-1.9429179527559055
0
LINE
8
BLACK
6
CONTINUOUS
10
2.9800005905511808
20
-1.9429179527559055
11
3.4742679921259843
21
-1.9430648818897638
0
LINE
8
BLACK
6
CONTINUOUS
10
3.4742679921259843
20
-1.9430648818897638
11
3.4742684645669288
21
-1.9430650787401573
0
LINE
8
BLACK
6
CONTINUOUS
10
3.4742684645669288
20
-1.9430650787401573
11
3.4798287401574801
21
-1.9430668897637795
0
LINE
8
BLACK
6
CONTINUOUS
10
3.4798287401574801
20
-1.9430668897637795
11
3.4908931889763779
21
-1.941930433070866
0
LINE
8
BLACK
6
CONTINUOUS
10
3.4908931889763779
20
-1.941930433070866
11
3.5017835826771653
21
-1.9396693700787402
0
LINE
8
BLACK
6
CONTINUOUS
10
3.5017835826771653
20
-1.9396693700787402
11
3.5123859842519685
21
-1.9363074015748032
0
LINE
8
BLACK
6
CONTINUOUS
10
3.5123859842519685
20
-1.9363074015748032
11
3.5225893307086613
21
-1.93187968503937
0
LINE
8
BLACK
6
CONTINUOUS
10
3.5225893307086613
20
-1.93187968503937
11
3.5322868897637796
21
-1.9264325984251969
0
LINE
8
BLACK
6
CONTINUOUS
10
3.5322868897637796
20
-1.9264325984251969
11
3.5413771259842517
21
-1.9200231102362204
0
LINE
8
BLACK
6
CONTINUOUS
10
3.5413771259842517
20
-1.9200231102362204
11
3.5497648425196848
21
-1.9127183858267716
0
LINE
8
BLACK
6
CONTINUOUS
10
3.5497648425196848
20
-1.9127183858267716
11
3.5535622834645668
21
-1.9086553937007873
0
LINE
8
BLACK
6
CONTINUOUS
10
3.5535622834645668
20
-1.9086553937007873
11
3.5535916141732282
21
-1.9086391732283463
0
LINE
8
BLACK
6
CONTINUOUS
10
3.5535916141732282
20
-1.9086391732283463
11
3.5536017716535433
21
-1.9086143700787401
0
LINE
8
BLACK
6
CONTINUOUS
10
3.5536017716535433
20
-1.9086143700787401
11
4.1036017716535431
21
-1.3536143700787402
0
LINE
8
BLACK
6
CONTINUOUS
10
4.1036017716535431
20
-1.3536143700787402
11
4.1036068897637792
21
-1.3536122047244095
0
LINE
8
BLACK
6
CONTINUOUS
10
4.1036068897637792
20
-1.3536122047244095
11
4.1118616929133855
21
-1.3456762204724408
0
LINE
8
BLACK
6
CONTINUOUS
10
4.1118616929133855
20
-1.3456762204724408
11
4.120927992125984
21
-1.3385871259842519
0
LINE
8
BLACK
6
CONTINUOUS
10
4.120927992125984
20
-1.3385871259842519
11
4.1306696062992128
21
-1.3324589370078739
0
LINE
8
BLACK
6
CONTINUOUS
10
4.1306696062992128
20
-1.3324589370078739
11
4.1409850393700784
21
-1.3273555118110236
0
LINE
8
BLACK
6
CONTINUOUS
10
4.1409850393700784
20
-1.3273555118110236
11
4.1517668503937006
21
-1.3233299606299211
0
LINE
8
BLACK
6
CONTINUOUS
10
4.1517668503937006
20
-1.3233299606299211
11
4.1629028346456689
21
-1.3204242125984251
0
LINE
8
BLACK
6
CONTINUOUS
10
4.1629028346456689
20
-1.3204242125984251
11
4.1742769291338586
21
-1.3186685433070866
0
LINE
8
BLACK
6
CONTINUOUS
10
4.1742769291338586
20
-1.3186685433070866
11
4.1857707874015748
21
-1.3180812204724408
0
LINE
8
BLACK
6
CONTINUOUS
10
4.1857707874015748
20
-1.3180812204724408
11
4.1857707874015748
21
-1.318082716535433
0
LINE
8
BLACK
6
CONTINUOUS
10
4.1857707874015748
20
-1.318082716535433
11
8.2100371259842522
21
-1.3180423622047244
0
LINE
8
BLACK
6
CONTINUOUS
10
8.2100371259842522
20
-1.3180423622047244
11
8.2100372047244097
21
-1.3180423622047244
0
LINE
8
BLACK
6
CONTINUOUS
10
8.2100372047244097
20
-1.3180423622047244
11
8.2219934251968496
21
-1.3186268503937009
0
LINE
8
BLACK
6
CONTINUOUS
10
8.2100371653543309
20
-1.3219793307086614
11
8.2100371653543309
21
-1.3219793700787401
0
LINE
8
BLACK
6
CONTINUOUS
10
8.2100371653543309
20
-1.3219793700787401
11
4.1857708267716536
21
-1.3220197637795275
0
LINE
8
BLACK
6
CONTINUOUS
10
4.1857708267716536
20
-1.3220197637795275
11
4.1857707874015748
21
-1.3220197244094487
0
LINE
8
BLACK
6
CONTINUOUS
10
4.1857707874015748
20
-1.3220197244094487
11
4.185767086614173
21
-1.3220182283464568
0
LINE
8
BLACK
6
CONTINUOUS
10
4.185767086614173
20
-1.3220182283464568
11
4.180210118110236
21
-1.3220203543307085
0
LINE
8
BLACK
6
CONTINUOUS
10
4.180210118110236
20
-1.3220203543307085
11
4.1691467322834646
21
-1.3231538976377952
0
LINE
8
BLACK
6
CONTINUOUS
10
4.1691467322834646
20
-1.3231538976377952
11
4.1582564566929134
21
-1.3254090551181101
0
LINE
8
BLACK
6
CONTINUOUS
10
4.1582564566929134
20
-1.3254090551181101
11
4.1476527165354327
21
-1.3287624015748032
0
LINE
8
BLACK
6
CONTINUOUS
10
4.1476527165354327
20
-1.3287624015748032
11
4.1374459448818897
21
-1.3331789370078739
0
LINE
8
BLACK
6
CONTINUOUS
10
4.1374459448818897
20
-1.3331789370078739
11
4.127742440944882
21
-1.3386127559055119
0
LINE
8
BLACK
6
CONTINUOUS
10
4.127742440944882
20
-1.3386127559055119
11
4.1186432677165357
21
-1.3450072047244095
0
LINE
8
BLACK
6
CONTINUOUS
10
4.1186432677165357
20
-1.3450072047244095
11
4.1102431889763782
21
-1.3522957086614174
0
LINE
8
BLACK
6
CONTINUOUS
10
4.1102431889763782
20
-1.3522957086614174
11
4.1064349212598428
21
-1.3563476377952755
0
LINE
8
BLACK
6
CONTINUOUS
10
4.1064349212598428
20
-1.3563476377952755
11
4.106434881889764
21
-1.3563475984251969
0
LINE
8
BLACK
6
CONTINUOUS
10
4.106434881889764
20
-1.3563475984251969
11
4.1064076377952752
21
-1.356362559055118
0
LINE
8
BLACK
6
CONTINUOUS
10
4.1064076377952752
20
-1.356362559055118
11
4.1063982283464568
21
-1.3563856299212598
0
LINE
8
BLACK
6
CONTINUOUS
10
4.1063982283464568
20
-1.3563856299212598
11
3.5563982283464566
21
-1.9113856299212597
0
LINE
8
BLACK
6
CONTINUOUS
10
3.5563982283464566
20
-1.9113856299212597
11
3.556392874015748
21
-1.9113878346456692
0
LINE
8
BLACK
6
CONTINUOUS
10
3.556392874015748
20
-1.9113878346456692
11
3.5481554330708662
21
-1.9193383464566929
0
LINE
8
BLACK
6
CONTINUOUS
10
3.5481554330708662
20
-1.9193383464566929
11
3.5390996850393699
21
-1.9264439763779526
0
LINE
8
BLACK
6
CONTINUOUS
10
3.5390996850393699
20
-1.9264439763779526
11
3.5293653149606299
21
-1.9325871653543307
0
LINE
8
BLACK
6
CONTINUOUS
10
3.5293653149606299
20
-1.9325871653543307
11
3.5190541732283465
21
-1.9377035039370079
0
LINE
8
BLACK
6
CONTINUOUS
10
3.5190541732283465
20
-1.9377035039370079
11
3.508274251968504
21
-1.941739527559055
0
LINE
8
BLACK
6
CONTINUOUS
10
3.508274251968504
20
-1.941739527559055
11
3.4971383464566927
21
-1.9446529527559056
0
LINE
8
BLACK
6
CONTINUOUS
10
3.4971383464566927
20
-1.9446529527559056
11
3.485763031496063
21
-1.9464132677165353
0
LINE
8
BLACK
6
CONTINUOUS
10
3.485763031496063
20
-1.9464132677165353
11
3.474267401574803
21
-1.9470020866141733
0
LINE
8
BLACK
6
CONTINUOUS
10
3.474267401574803
20
-1.9470020866141733
11
3.474267401574803
21
-1.9470018897637795
0
LINE
8
BLACK
6
CONTINUOUS
10
3.474267401574803
20
-1.9470018897637795
11
3.4742670866141729
21
-1.9470017716535433
0
LINE
8
BLACK
6
CONTINUOUS
10
3.4742670866141729
20
-1.9470017716535433
11
3.4742668503937009
21
-1.9470018897637795
0
LINE
8
BLACK
6
CONTINUOUS
10
3.4742668503937009
20
-1.9470018897637795
11
2.9799994094488187
21
-1.9468549606299212
0
LINE
8
BLACK
6
CONTINUOUS
10
2.9799994094488187
20
-1.9468549606299212
11
2.9739266929133858
21
-1.9468549606299212
0
LINE
8
BLACK
6
CONTINUOUS
10
2.9739266929133858
20
-1.9468549606299212
11
2.9618564960629921
21
-1.9482149606299213
0
LINE
8
BLACK
6
CONTINUOUS
10
2.9618564960629921
20
-1.9482149606299213
11
2.9500144488188975
21
-1.9509178346456693
0
LINE
8
BLACK
6
CONTINUOUS
10
2.9500144488188975
20
-1.9509178346456693
11
2.9385494881889764
21
-1.9549296062992125
0
LINE
8
BLACK
6
CONTINUOUS
10
2.9385494881889764
20
-1.9549296062992125
11
2.9276057874015748
21
-1.9601998031496062
0
LINE
8
BLACK
6
CONTINUOUS
10
2.9276057874015748
20
-1.9601998031496062
11
2.9173209842519685
21
-1.9666621653543306
0
LINE
8
BLACK
6
CONTINUOUS
10
2.9173209842519685
20
-1.9666621653543306
11
2.9078243700787403
21
-1.974235433070866
0
LINE
8
BLACK
6
CONTINUOUS
10
2.9078243700787403
20
-1.974235433070866
11
2.8992354330708663
21
-1.98282437007874
0
LINE
8
BLACK
6
CONTINUOUS
10
2.8992354330708663
20
-1.98282437007874
11
2.8916621653543308
21
-1.9923209842519685
0
LINE
8
BLACK
6
CONTINUOUS
10
2.8916621653543308
20
-1.9923209842519685
11
2.8851998031496064
21
-2.0026057874015746
0
LINE
8
BLACK
6
CONTINUOUS
10
2.8851998031496064
20
-2.0026057874015746
11
2.8799296062992124
21
-2.0135494881889762
0
LINE
8
BLACK
6
CONTINUOUS
10
2.8799296062992124
20
-2.0135494881889762
11
2.8759178346456693
21
-2.0250144488188977
0
LINE
8
BLACK
6
CONTINUOUS
10
2.8759178346456693
20
-2.0250144488188977
11
2.8732149606299213
21
-2.0368564960629922
0
LINE
8
BLACK
6
CONTINUOUS
10
2.8732149606299213
20
-2.0368564960629922
11
2.8718549606299213
21
-2.0489266929133856
0
LINE
8
BLACK
6
CONTINUOUS
10
2.8718549606299213
20
-2.0489266929133856
11
2.8718549606299213
21
-2.0549999606299214
0
LINE
8
BLACK
6
CONTINUOUS
10
2.8718549606299213
20
-2.0549999606299214
11
2.8718985826771655
21
-3.9098042913385824
0
LINE
8
BLACK
6
CONTINUOUS
10
2.8718985826771655
20
-3.9098042913385824
11
2.8718970866141733
21
-3.909807874015748
0
LINE
8
BLACK
6
CONTINUOUS
10
2.8718970866141733
20
-3.909807874015748
11
2.8718971653543308
21
-3.9158776377952753
0
LINE
8
BLACK
6
CONTINUOUS
10
2.8718971653543308
20
-3.9158776377952753
11
2.8732572834645667
21
-3.9279479133858266
0
LINE
8
BLACK
6
CONTINUOUS
10
2.8732572834645667
20
-3.9279479133858266
11
2.8759602755905509
21
-3.9397899999999999
0
LINE
8
BLACK
6
CONTINUOUS
10
2.8759602755905509
20
-3.9397899999999999
11
2.8799721653543306
21
-3.9512549999999997
0
LINE
8
BLACK
6
CONTINUOUS
10
2.8799721653543306
20
-3.9512549999999997
11
2.8852424803149606
21
-3.9621987007874013
0
LINE
8
BLACK
6
CONTINUOUS
10
2.8852424803149606
20
-3.9621987007874013
11
2.891705
21
-3.9724835433070864
0
LINE
8
BLACK
6
CONTINUOUS
10
2.891705
20
-3.9724835433070864
11
2.8992783858267717
21
-3.9819801181102363
0
LINE
8
BLACK
6
CONTINUOUS
10
2.8992783858267717
20
-3.9819801181102363
11
2.9078674409448819
21
-3.9905690551181103
0
LINE
8
BLACK
6
CONTINUOUS
10
2.9078674409448819
20
-3.9905690551181103
11
2.9173641338582676
21
-3.9981423228346458
0
LINE
8
BLACK
6
CONTINUOUS
10
2.9173641338582676
20
-3.9981423228346458
11
2.9276490157480315
21
-4.0046046850393697
0
LINE
8
BLACK
6
CONTINUOUS
10
2.9276490157480315
20
-4.0046046850393697
11
2.9385928346456693
21
-4.0098748425196851
0
LINE
8
BLACK
6
CONTINUOUS
10
2.9385928346456693
20
-4.0098748425196851
11
2.9500578740157479
21
-4.0138865748031494
0
LINE
8
BLACK
6
CONTINUOUS
10
2.9500578740157479
20
-4.0138865748031494
11
2.9619
21
-4.0165894094488186
0
LINE
8
BLACK
6
CONTINUOUS
10
2.9619
20
-4.0165894094488186
11
2.9739702755905513
21
-4.0179493700787399
0
LINE
8
BLACK
6
CONTINUOUS
10
2.9739702755905513
20
-4.0179493700787399
11
2.9800436220472442
21
-4.0179493700787399
0
LINE
8
BLACK
6
CONTINUOUS
10
2.9800436220472442
20
-4.0179493700787399
11
2.9800436614173229
21
-4.0179493700787399
0
LINE
8
BLACK
6
CONTINUOUS
10
2.9800436614173229
20
-4.0179493700787399
11
2.9800437007874017
21
-4.0179493700787399
0
LINE
8
BLACK
6
CONTINUOUS
10
2.9800437007874017
20
-4.0179493700787399
11
8.7409558267716534
21
-4.0181507874015745
0
LINE
8
BLACK
6
CONTINUOUS
10
8.7409558267716534
20
-4.0181507874015745
11
8.7409558267716534
21
-4.0181481102362202
0
LINE
8
BLACK
6
CONTINUOUS
10
8.7409558267716534
20
-4.0181481102362202
11
8.7470290551181105
21
-4.018148149606299
0
LINE
8
BLACK
6
CONTINUOUS
10
8.7470290551181105
20
-4.018148149606299
11
8.7590991338582675
21
-4.0167883070866139
0
LINE
8
BLACK
6
CONTINUOUS
10
8.7590991338582675
20
-4.0167883070866139
11
8.7709410236220471
21
-4.0140855511811022
0
LINE
8
BLACK
6
CONTINUOUS
10
8.7709410236220471
20
-4.0140855511811022
11
8.7824058661417315
21
-4.0100739763779529
0
LINE
8
BLACK
6
CONTINUOUS
10
8.7824058661417315
20
-4.0100739763779529
11
8.7933494881889764
21
-4.0048039370078738
0
LINE
8
BLACK
6
CONTINUOUS
10
8.7933494881889764
20
-4.0048039370078738
11
8.8036342125984248
21
-3.9983417716535432
0
LINE
8
BLACK
6
CONTINUOUS
10
8.8036342125984248
20
-3.9983417716535432
11
8.8131307480314955
21
-3.9907687007874015
0
LINE
8
BLACK
6
CONTINUOUS
10
8.8131307480314955
20
-3.9907687007874015
11
8.8217196850393691
21
-3.9821800000000001
0
LINE
8
BLACK
6
CONTINUOUS
10
8.8217196850393691
20
-3.9821800000000001
11
8.8292929921259837
21
-3.9726836614173227
0
LINE
8
BLACK
6
CONTINUOUS
10
8.8292929921259837
20
-3.9726836614173227
11
8.8357553937007864
21
-3.9623990551181101
0
LINE
8
BLACK
6
CONTINUOUS
10
8.8357553937007864
20
-3.9623990551181101
11
8.8410257086614177
21
-3.951455590551181
0
LINE
8
BLACK
6
CONTINUOUS
10
8.8410257086614177
20
-3.951455590551181
11
8.845037598425197
21
-3.9399908267716532
0
LINE
8
BLACK
6
CONTINUOUS
10
8.845037598425197
20
-3.9399908267716532
11
8.8477405905511812
21
-3.9281489763779525
0
LINE
8
BLACK
6
CONTINUOUS
10
8.8477405905511812
20
-3.9281489763779525
11
8.8491007480314963
21
-3.9160789763779529
0
LINE
8
BLACK
6
CONTINUOUS
10
8.8491007480314963
20
-3.9160789763779529
11
8.8491008661417325
21
-3.9100057480314958
0
LINE
8
BLACK
6
CONTINUOUS
10
8.8491008661417325
20
-3.9100057480314958
11
8.8491008661417325
21
-3.9100057086614171
0
LINE
8
BLACK
6
CONTINUOUS
10
8.8491008661417325
20
-3.9100057086614171
11
8.8491816535433063
21
-1.8699313779527558
0
LINE
8
BLACK
6
CONTINUOUS
10
8.8491816535433063
20
-1.8699313779527558
11
8.8491824015748026
21
-1.8699294488188976
0
LINE
8
BLACK
6
CONTINUOUS
10
8.8491824015748026
20
-1.8699294488188976
11
8.8491823622047239
21
-1.8646186614173228
0
LINE
8
BLACK
6
CONTINUOUS
10
8.8491823622047239
20
-1.8646186614173228
11
8.8481407480314953
21
-1.8540441338582676
0
LINE
8
BLACK
6
CONTINUOUS
10
8.8481407480314953
20
-1.8540441338582676
11
8.8460676377952758
21
-1.8436226377952756
0
LINE
8
BLACK
6
CONTINUOUS
10
8.8460676377952758
20
-1.8436226377952756
11
8.8429830708661417
21
-1.833454527559055
0
LINE
8
BLACK
6
CONTINUOUS
10
8.8429830708661417
20
-1.833454527559055
11
8.8389166929133864
21
-1.8236377165354329
0
LINE
8
BLACK
6
CONTINUOUS
10
8.8389166929133864
20
-1.8236377165354329
11
8.8339077165354336
21
-1.8142667322834645
0
LINE
8
BLACK
6
CONTINUOUS
10
8.8339077165354336
20
-1.8142667322834645
11
8.8280043700787392
21
-1.8054318503937008
0
LINE
8
BLACK
6
CONTINUOUS
10
8.8280043700787392
20
-1.8054318503937008
11
8.821263464566929
21
-1.7972181102362204
0
LINE
8
BLACK
6
CONTINUOUS
10
8.821263464566929
20
-1.7972181102362204
11
8.8175692125984249
21
-1.7935238976377952
0
LINE
8
BLACK
6
CONTINUOUS
10
8.8175692125984249
20
-1.7935238976377952
11
8.2937389763779521
21
-1.3565115354330708
0
LINE
8
BLACK
6
CONTINUOUS
10
8.2937389763779521
20
-1.3565115354330708
11
8.2937027952755908
21
-1.3564425196850394
0
LINE
8
BLACK
6
CONTINUOUS
10
8.2937027952755908
20
-1.3564425196850394
11
8.2936137401574808
21
-1.3563975984251968
0
LINE
8
BLACK
6
CONTINUOUS
10
8.2936137401574808
20
-1.3563975984251968
11
8.2936128740157482
21
-1.3563985039370079
0
LINE
8
BLACK
6
CONTINUOUS
10
8.2936128740157482
20
-1.3563985039370079
11
8.2894959448818888
21
-1.3523129527559055
0
LINE
8
BLACK
6
CONTINUOUS
10
8.2894959448818888
20
-1.3523129527559055
11
8.2805026771653534
21
-1.3449859448818897
0
LINE
8
BLACK
6
CONTINUOUS
10
8.2805026771653534
20
-1.3449859448818897
11
8.2708378346456684
21
-1.3385707874015749
0
LINE
8
BLACK
6
CONTINUOUS
10
8.2708378346456684
20
-1.3385707874015749
11
8.2605935433070865
21
-1.3331285826771653
0
LINE
8
BLACK
6
CONTINUOUS
10
8.2605935433070865
20
-1.3331285826771653
11
8.2498673622047249
21
-1.3287112204724409
0
LINE
8
BLACK
6
CONTINUOUS
10
8.2498673622047249
20
-1.3287112204724409
11
8.2387616141732281
21
-1.3253607874015747
0
LINE
8
BLACK
6
CONTINUOUS
10
8.2387616141732281
20
-1.3253607874015747
11
8.2273820866141723
21
-1.3231092125984252
0
LINE
8
BLACK
6
CONTINUOUS
10
8.2273820866141723
20
-1.3231092125984252
11
8.2158372047244086
21
-1.3219779527559055
0
LINE
8
BLACK
6
CONTINUOUS
10
8.2158372047244086
20
-1.3219779527559055
11
8.2100371653543309
21
-1.3219793307086614
  0
ENDSEC
  0
EOF
