%TF.GenerationSoftware,KiCad,Pcbnew,(6.0.10)*%
%TF.CreationDate,2023-12-09T12:58:45-08:00*%
%TF.ProjectId,windchargecontroller,77696e64-6368-4617-9267-65636f6e7472,rev?*%
%TF.SameCoordinates,Original*%
%TF.FileFunction,Soldermask,Top*%
%TF.FilePolarity,Negative*%
%FSLAX46Y46*%
G04 Gerber Fmt 4.6, Leading zero omitted, Abs format (unit mm)*
G04 Created by KiCad (PCBNEW (6.0.10)) date 2023-12-09 12:58:45*
%MOMM*%
%LPD*%
G01*
G04 APERTURE LIST*
G04 Aperture macros list*
%AMRoundRect*
0 Rectangle with rounded corners*
0 $1 Rounding radius*
0 $2 $3 $4 $5 $6 $7 $8 $9 X,Y pos of 4 corners*
0 Add a 4 corners polygon primitive as box body*
4,1,4,$2,$3,$4,$5,$6,$7,$8,$9,$2,$3,0*
0 Add four circle primitives for the rounded corners*
1,1,$1+$1,$2,$3*
1,1,$1+$1,$4,$5*
1,1,$1+$1,$6,$7*
1,1,$1+$1,$8,$9*
0 Add four rect primitives between the rounded corners*
20,1,$1+$1,$2,$3,$4,$5,0*
20,1,$1+$1,$4,$5,$6,$7,0*
20,1,$1+$1,$6,$7,$8,$9,0*
20,1,$1+$1,$8,$9,$2,$3,0*%
%AMRotRect*
0 Rectangle, with rotation*
0 The origin of the aperture is its center*
0 $1 length*
0 $2 width*
0 $3 Rotation angle, in degrees counterclockwise*
0 Add horizontal line*
21,1,$1,$2,0,0,$3*%
G04 Aperture macros list end*
%ADD10R,1.422400X1.422400*%
%ADD11C,1.422400*%
%ADD12RoundRect,0.102000X-0.765000X-1.360000X0.765000X-1.360000X0.765000X1.360000X-0.765000X1.360000X0*%
%ADD13R,1.050000X1.500000*%
%ADD14O,1.050000X1.500000*%
%ADD15R,1.105598X1.599997*%
%ADD16R,0.914400X2.413000*%
%ADD17R,5.359400X6.070600*%
%ADD18C,1.803400*%
%ADD19RoundRect,0.102000X0.765000X1.360000X-0.765000X1.360000X-0.765000X-1.360000X0.765000X-1.360000X0*%
%ADD20R,1.500000X1.050000*%
%ADD21O,1.500000X1.050000*%
%ADD22RoundRect,0.102000X1.360000X-0.765000X1.360000X0.765000X-1.360000X0.765000X-1.360000X-0.765000X0*%
%ADD23R,0.610000X1.270000*%
%ADD24R,3.910000X3.810000*%
%ADD25R,0.610000X1.020000*%
%ADD26R,0.703200X1.700000*%
%ADD27R,1.700000X0.703200*%
%ADD28RotRect,1.422400X1.422400X45.000000*%
%ADD29RoundRect,0.102000X0.765000X0.765000X-0.765000X0.765000X-0.765000X-0.765000X0.765000X-0.765000X0*%
%ADD30C,1.734000*%
%ADD31R,1.599997X1.105598*%
%ADD32RoundRect,0.102000X-1.360000X0.765000X-1.360000X-0.765000X1.360000X-0.765000X1.360000X0.765000X0*%
%ADD33R,1.270000X0.610000*%
%ADD34R,3.810000X3.910000*%
%ADD35R,1.020000X0.610000*%
%ADD36R,1.803400X1.803400*%
%ADD37R,0.853200X1.750000*%
G04 APERTURE END LIST*
D10*
%TO.C,C15*%
X153670000Y-48082200D03*
D11*
X153670000Y-43002200D03*
%TD*%
D12*
%TO.C,C9*%
X138186400Y-52777200D03*
X140868400Y-52777200D03*
%TD*%
D13*
%TO.C,Q10*%
X221132400Y-67153200D03*
D14*
X219862400Y-67153200D03*
X218592400Y-67153200D03*
%TD*%
D10*
%TO.C,C2*%
X116713000Y-51562000D03*
D11*
X121793000Y-51562000D03*
%TD*%
D12*
%TO.C,C8*%
X138186400Y-47697200D03*
X140868400Y-47697200D03*
%TD*%
D15*
%TO.C,R6*%
X126725992Y-62940996D03*
X123920396Y-62940996D03*
%TD*%
D16*
%TO.C,D4*%
X155143200Y-67894200D03*
D17*
X157429200Y-59842400D03*
D16*
X159715200Y-67894200D03*
%TD*%
%TO.C,D1*%
X94361000Y-91372300D03*
D17*
X96647000Y-83320500D03*
D16*
X98933000Y-91372300D03*
%TD*%
D12*
%TO.C,C5*%
X138237200Y-63347600D03*
X140919200Y-63347600D03*
%TD*%
D18*
%TO.C,J4*%
X219201999Y-50206899D03*
X219201999Y-55206899D03*
X219201999Y-60206899D03*
%TD*%
D19*
%TO.C,C12*%
X203757200Y-81888000D03*
X201075200Y-81888000D03*
%TD*%
D16*
%TO.C,D5*%
X197967600Y-47332900D03*
D17*
X195681600Y-55384700D03*
D16*
X193395600Y-47332900D03*
%TD*%
D20*
%TO.C,Q4*%
X182727600Y-79044800D03*
D21*
X182727600Y-80314800D03*
X182727600Y-81584800D03*
%TD*%
D22*
%TO.C,C13*%
X214985600Y-75285600D03*
X214985600Y-72603600D03*
%TD*%
D20*
%TO.C,Q7*%
X205901200Y-75298613D03*
D21*
X205901200Y-76568613D03*
X205901200Y-77838613D03*
%TD*%
D23*
%TO.C,Q1*%
X106045000Y-85921000D03*
X104775000Y-85921000D03*
X103505000Y-85921000D03*
X102235000Y-85921000D03*
D24*
X104140000Y-89281000D03*
D25*
X104775000Y-91386000D03*
X102235000Y-91386000D03*
X103505000Y-91386000D03*
X106045000Y-91386000D03*
%TD*%
D18*
%TO.C,J5*%
X119719101Y-39115999D03*
X114719101Y-39115999D03*
X109719101Y-39115999D03*
%TD*%
D13*
%TO.C,Q9*%
X221132400Y-73355200D03*
D14*
X219862400Y-73355200D03*
X218592400Y-73355200D03*
%TD*%
D26*
%TO.C,R10*%
X183029800Y-39624000D03*
X186083000Y-39624000D03*
%TD*%
D12*
%TO.C,C7*%
X138186400Y-42617200D03*
X140868400Y-42617200D03*
%TD*%
%TO.C,C10*%
X145877400Y-58267600D03*
X148559400Y-58267600D03*
%TD*%
D20*
%TO.C,Q5*%
X174599600Y-79044800D03*
D21*
X174599600Y-80314800D03*
X174599600Y-81584800D03*
%TD*%
D20*
%TO.C,Q8*%
X199445200Y-75284000D03*
D21*
X199445200Y-76554000D03*
X199445200Y-77824000D03*
%TD*%
D18*
%TO.C,J6*%
X205317101Y-39623999D03*
X200317101Y-39623999D03*
X195317101Y-39623999D03*
%TD*%
D15*
%TO.C,R5*%
X126725992Y-67653002D03*
X123920396Y-67653002D03*
%TD*%
D23*
%TO.C,Q2*%
X110617000Y-67531400D03*
X109347000Y-67531400D03*
X108077000Y-67531400D03*
X106807000Y-67531400D03*
D25*
X106807000Y-72996400D03*
X108077000Y-72996400D03*
X110617000Y-72996400D03*
X109347000Y-72996400D03*
D24*
X108712000Y-70891400D03*
%TD*%
D15*
%TO.C,R4*%
X126725992Y-72557957D03*
X123920396Y-72557957D03*
%TD*%
D16*
%TO.C,D6*%
X206349600Y-47307500D03*
D17*
X204063600Y-55359300D03*
D16*
X201777600Y-47307500D03*
%TD*%
D18*
%TO.C,J1*%
X80137001Y-96605101D03*
X80137001Y-91605101D03*
X80137001Y-86605101D03*
%TD*%
D10*
%TO.C,C14*%
X173278800Y-61036200D03*
D11*
X173278800Y-66116200D03*
%TD*%
D27*
%TO.C,R7*%
X129159000Y-41907400D03*
X129159000Y-44960600D03*
%TD*%
D28*
%TO.C,C16*%
X171094400Y-46583600D03*
D11*
X174686502Y-42991498D03*
%TD*%
D26*
%TO.C,R2*%
X94355800Y-76454000D03*
X97409000Y-76454000D03*
%TD*%
D18*
%TO.C,J3*%
X219201999Y-82718899D03*
X219201999Y-87718899D03*
X219201999Y-92718899D03*
%TD*%
D29*
%TO.C,J2*%
X114046000Y-93472000D03*
D30*
X114046000Y-96012000D03*
X116586000Y-93472000D03*
X116586000Y-96012000D03*
X119126000Y-93472000D03*
X119126000Y-96012000D03*
X121666000Y-93472000D03*
X121666000Y-96012000D03*
X124206000Y-93472000D03*
X124206000Y-96012000D03*
X126746000Y-93472000D03*
X126746000Y-96012000D03*
X129286000Y-93472000D03*
X129286000Y-96012000D03*
X131826000Y-93472000D03*
X131826000Y-96012000D03*
X134366000Y-93472000D03*
X134366000Y-96012000D03*
X136906000Y-93472000D03*
X136906000Y-96012000D03*
X139446000Y-93472000D03*
X139446000Y-96012000D03*
X141986000Y-93472000D03*
X141986000Y-96012000D03*
X144526000Y-93472000D03*
X144526000Y-96012000D03*
X147066000Y-93472000D03*
X147066000Y-96012000D03*
X149606000Y-93472000D03*
X149606000Y-96012000D03*
X152146000Y-93472000D03*
X152146000Y-96012000D03*
X154686000Y-93472000D03*
X154686000Y-96012000D03*
X157226000Y-93472000D03*
X157226000Y-96012000D03*
X159766000Y-93472000D03*
X159766000Y-96012000D03*
X162306000Y-93472000D03*
X162306000Y-96012000D03*
%TD*%
D27*
%TO.C,R1*%
X94361000Y-98300600D03*
X94361000Y-95247400D03*
%TD*%
%TO.C,R11*%
X194919600Y-74927400D03*
X194919600Y-77980600D03*
%TD*%
D23*
%TO.C,Q3*%
X94488000Y-64267500D03*
X93218000Y-64267500D03*
X91948000Y-64267500D03*
X90678000Y-64267500D03*
D25*
X94488000Y-69732500D03*
X90678000Y-69732500D03*
X91948000Y-69732500D03*
X93218000Y-69732500D03*
D24*
X92583000Y-67627500D03*
%TD*%
D16*
%TO.C,D3*%
X83058000Y-69900800D03*
D17*
X85344000Y-61849000D03*
D16*
X87630000Y-69900800D03*
%TD*%
D27*
%TO.C,R3*%
X83058000Y-77218600D03*
X83058000Y-74165400D03*
%TD*%
D12*
%TO.C,C4*%
X138237200Y-58267600D03*
X140919200Y-58267600D03*
%TD*%
D31*
%TO.C,R8*%
X169473200Y-78810402D03*
X169473200Y-81615998D03*
%TD*%
D32*
%TO.C,C1*%
X155702000Y-85425400D03*
X155702000Y-88107400D03*
%TD*%
D19*
%TO.C,C3*%
X171978200Y-84886800D03*
X169296200Y-84886800D03*
%TD*%
D33*
%TO.C,Q6*%
X142044000Y-77851000D03*
X142044000Y-76581000D03*
X142044000Y-75311000D03*
X142044000Y-74041000D03*
D34*
X138684000Y-75946000D03*
D35*
X136579000Y-74041000D03*
X136579000Y-75311000D03*
X136579000Y-76581000D03*
X136579000Y-77851000D03*
%TD*%
D16*
%TO.C,D2*%
X98679000Y-73037700D03*
D17*
X100965000Y-64985900D03*
D16*
X103251000Y-73037700D03*
%TD*%
D36*
%TO.C,FL1*%
X152104400Y-84496401D03*
D18*
X159604400Y-84496401D03*
X159604400Y-73796400D03*
X152104400Y-73796400D03*
%TD*%
D12*
%TO.C,C11*%
X145877400Y-63347600D03*
X148559400Y-63347600D03*
%TD*%
%TO.C,C6*%
X138186400Y-37795200D03*
X140868400Y-37795200D03*
%TD*%
D23*
%TO.C,Q11*%
X193827400Y-67723600D03*
X195097400Y-67723600D03*
X196367400Y-67723600D03*
X197637400Y-67723600D03*
D25*
X196367400Y-62258600D03*
X195097400Y-62258600D03*
X197637400Y-62258600D03*
X193827400Y-62258600D03*
D24*
X195732400Y-64363600D03*
%TD*%
D23*
%TO.C,Q12*%
X202209400Y-67795600D03*
X203479400Y-67795600D03*
X204749400Y-67795600D03*
X206019400Y-67795600D03*
D25*
X204749400Y-62330600D03*
X206019400Y-62330600D03*
D24*
X204114400Y-64435600D03*
D25*
X203479400Y-62330600D03*
X202209400Y-62330600D03*
%TD*%
D27*
%TO.C,R12*%
X210820000Y-64264600D03*
X210820000Y-61211400D03*
%TD*%
D37*
%TO.C,R9*%
X148543400Y-52781200D03*
X145690200Y-52781200D03*
%TD*%
M02*
