%TF.GenerationSoftware,KiCad,Pcbnew,(6.0.10)*%
%TF.CreationDate,2024-01-08T08:39:40-08:00*%
%TF.ProjectId,windchargecontroller,77696e64-6368-4617-9267-65636f6e7472,rev?*%
%TF.SameCoordinates,Original*%
%TF.FileFunction,Drillmap*%
%TF.FilePolarity,Positive*%
%FSLAX45Y45*%
G04 Gerber Fmt 4.5, Leading zero omitted, Abs format (unit mm)*
G04 Created by KiCad (PCBNEW (6.0.10)) date 2024-01-08 08:39:40*
%MOMM*%
%LPD*%
G01*
G04 APERTURE LIST*
%ADD10C,0.100000*%
%ADD11C,0.200000*%
%ADD12C,0.040000*%
%ADD13C,0.075000*%
%ADD14C,0.088900*%
%ADD15C,0.091440*%
%ADD16C,0.102000*%
%ADD17C,0.129540*%
%ADD18C,0.300000*%
%ADD19C,0.440000*%
G04 APERTURE END LIST*
D10*
X7289619Y-9930903D02*
G75*
G03*
X7569311Y-10210591I279691J3D01*
G01*
X7289512Y-5219700D02*
X7289622Y-9930903D01*
X7569200Y-4940012D02*
G75*
G03*
X7289512Y-5219700I0J-279688D01*
G01*
X22481923Y-4749626D02*
G75*
G03*
X22400003Y-4551856I-279693J-4D01*
G01*
X7569311Y-10210591D02*
X22202028Y-10211103D01*
X21069298Y-3441702D02*
G75*
G03*
X20853494Y-3352828I-215808J-217578D01*
G01*
X10631858Y-3352926D02*
G75*
G03*
X10426700Y-3441700I2J-281454D01*
G01*
X8824639Y-4940385D02*
X7569200Y-4940012D01*
X22400003Y-4551856D02*
X21069300Y-3441700D01*
X8824639Y-4940385D02*
G75*
G03*
X9029700Y-4851400I1J280765D01*
G01*
X10426700Y-3441700D02*
X9029700Y-4851400D01*
X20853494Y-3352828D02*
X10631858Y-3352930D01*
X22202028Y-10211096D02*
G75*
G03*
X22481716Y-9931415I2J279686D01*
G01*
X22481716Y-9931415D02*
X22481921Y-4749626D01*
D11*
D12*
X8499160Y-7401880D02*
X8539160Y-7441880D01*
X8539160Y-7401880D02*
X8499160Y-7441880D01*
X8809040Y-6898960D02*
X8849040Y-6938960D01*
X8849040Y-6898960D02*
X8809040Y-6938960D01*
X9007160Y-6208080D02*
X9047160Y-6248080D01*
X9047160Y-6208080D02*
X9007160Y-6248080D01*
X9957120Y-7660960D02*
X9997120Y-7700960D01*
X9997120Y-7660960D02*
X9957120Y-7700960D01*
X10454960Y-7203760D02*
X10494960Y-7243760D01*
X10494960Y-7203760D02*
X10454960Y-7243760D01*
X10597200Y-6444300D02*
X10637200Y-6484300D01*
X10637200Y-6444300D02*
X10597200Y-6484300D01*
X10871520Y-9144320D02*
X10911520Y-9184320D01*
X10911520Y-9144320D02*
X10871520Y-9184320D01*
X11892600Y-5822000D02*
X11932600Y-5862000D01*
X11932600Y-5822000D02*
X11892600Y-5862000D01*
X11918000Y-7203760D02*
X11958000Y-7243760D01*
X11958000Y-7203760D02*
X11918000Y-7243760D01*
X11920078Y-6746790D02*
X11960078Y-6786790D01*
X11960078Y-6746790D02*
X11920078Y-6786790D01*
X11928160Y-7701600D02*
X11968160Y-7741600D01*
X11968160Y-7701600D02*
X11928160Y-7741600D01*
D13*
X17497460Y-7904480D02*
G75*
G03*
X17497460Y-7904480I-37500J0D01*
G01*
X17497460Y-8031480D02*
G75*
G03*
X17497460Y-8031480I-37500J0D01*
G01*
X17497460Y-8158480D02*
G75*
G03*
X17497460Y-8158480I-37500J0D01*
G01*
X18310260Y-7904480D02*
G75*
G03*
X18310260Y-7904480I-37500J0D01*
G01*
X18310260Y-8031480D02*
G75*
G03*
X18310260Y-8031480I-37500J0D01*
G01*
X18310260Y-8158480D02*
G75*
G03*
X18310260Y-8158480I-37500J0D01*
G01*
X19982020Y-7528400D02*
G75*
G03*
X19982020Y-7528400I-37500J0D01*
G01*
X19982020Y-7655400D02*
G75*
G03*
X19982020Y-7655400I-37500J0D01*
G01*
X19982020Y-7782400D02*
G75*
G03*
X19982020Y-7782400I-37500J0D01*
G01*
X20627620Y-7529861D02*
G75*
G03*
X20627620Y-7529861I-37500J0D01*
G01*
X20627620Y-7656861D02*
G75*
G03*
X20627620Y-7656861I-37500J0D01*
G01*
X20627620Y-7783861D02*
G75*
G03*
X20627620Y-7783861I-37500J0D01*
G01*
X21896740Y-6715320D02*
G75*
G03*
X21896740Y-6715320I-37500J0D01*
G01*
X21896740Y-7335520D02*
G75*
G03*
X21896740Y-7335520I-37500J0D01*
G01*
X22023740Y-6715320D02*
G75*
G03*
X22023740Y-6715320I-37500J0D01*
G01*
X22023740Y-7335520D02*
G75*
G03*
X22023740Y-7335520I-37500J0D01*
G01*
X22150740Y-6715320D02*
G75*
G03*
X22150740Y-6715320I-37500J0D01*
G01*
X22150740Y-7335520D02*
G75*
G03*
X22150740Y-7335520I-37500J0D01*
G01*
D14*
X11522910Y-8592620D02*
X11522910Y-8681520D01*
X11478460Y-8637070D02*
X11567360Y-8637070D01*
X12241330Y-7874200D02*
X12241330Y-7963100D01*
X12196880Y-7918650D02*
X12285780Y-7918650D01*
X18740120Y-7321550D02*
X18740120Y-7410450D01*
X18695670Y-7366000D02*
X18784570Y-7366000D01*
X18740120Y-8337550D02*
X18740120Y-8426450D01*
X18695670Y-8382000D02*
X18784570Y-8382000D01*
D15*
X11703629Y-5188529D02*
X11703629Y-5123871D01*
X11638971Y-5123871D01*
X11638971Y-5188529D01*
X11703629Y-5188529D01*
X12211629Y-5188529D02*
X12211629Y-5123871D01*
X12146971Y-5123871D01*
X12146971Y-5188529D01*
X12211629Y-5188529D01*
X15399329Y-4332549D02*
X15399329Y-4267891D01*
X15334671Y-4267891D01*
X15334671Y-4332549D01*
X15399329Y-4332549D01*
X15399329Y-4840549D02*
X15399329Y-4775891D01*
X15334671Y-4775891D01*
X15334671Y-4840549D01*
X15399329Y-4840549D01*
X17141769Y-4690689D02*
X17141769Y-4626031D01*
X17077111Y-4626031D01*
X17077111Y-4690689D01*
X17141769Y-4690689D01*
X17360209Y-6135949D02*
X17360209Y-6071291D01*
X17295551Y-6071291D01*
X17295551Y-6135949D01*
X17360209Y-6135949D01*
X17360209Y-6643949D02*
X17360209Y-6579291D01*
X17295551Y-6579291D01*
X17295551Y-6643949D01*
X17360209Y-6643949D01*
X17500979Y-4331479D02*
X17500979Y-4266821D01*
X17436321Y-4266821D01*
X17436321Y-4331479D01*
X17500979Y-4331479D01*
D16*
X11404600Y-9398200D02*
X11455600Y-9347200D01*
X11404600Y-9296200D01*
X11353600Y-9347200D01*
X11404600Y-9398200D01*
X11404600Y-9652200D02*
X11455600Y-9601200D01*
X11404600Y-9550200D01*
X11353600Y-9601200D01*
X11404600Y-9652200D01*
X11658600Y-9398200D02*
X11709600Y-9347200D01*
X11658600Y-9296200D01*
X11607600Y-9347200D01*
X11658600Y-9398200D01*
X11658600Y-9652200D02*
X11709600Y-9601200D01*
X11658600Y-9550200D01*
X11607600Y-9601200D01*
X11658600Y-9652200D01*
X11912600Y-9398200D02*
X11963600Y-9347200D01*
X11912600Y-9296200D01*
X11861600Y-9347200D01*
X11912600Y-9398200D01*
X11912600Y-9652200D02*
X11963600Y-9601200D01*
X11912600Y-9550200D01*
X11861600Y-9601200D01*
X11912600Y-9652200D01*
X12166600Y-9398200D02*
X12217600Y-9347200D01*
X12166600Y-9296200D01*
X12115600Y-9347200D01*
X12166600Y-9398200D01*
X12166600Y-9652200D02*
X12217600Y-9601200D01*
X12166600Y-9550200D01*
X12115600Y-9601200D01*
X12166600Y-9652200D01*
X12420600Y-9398200D02*
X12471600Y-9347200D01*
X12420600Y-9296200D01*
X12369600Y-9347200D01*
X12420600Y-9398200D01*
X12420600Y-9652200D02*
X12471600Y-9601200D01*
X12420600Y-9550200D01*
X12369600Y-9601200D01*
X12420600Y-9652200D01*
X12674600Y-9398200D02*
X12725600Y-9347200D01*
X12674600Y-9296200D01*
X12623600Y-9347200D01*
X12674600Y-9398200D01*
X12674600Y-9652200D02*
X12725600Y-9601200D01*
X12674600Y-9550200D01*
X12623600Y-9601200D01*
X12674600Y-9652200D01*
X12928600Y-9398200D02*
X12979600Y-9347200D01*
X12928600Y-9296200D01*
X12877600Y-9347200D01*
X12928600Y-9398200D01*
X12928600Y-9652200D02*
X12979600Y-9601200D01*
X12928600Y-9550200D01*
X12877600Y-9601200D01*
X12928600Y-9652200D01*
X13182600Y-9398200D02*
X13233600Y-9347200D01*
X13182600Y-9296200D01*
X13131600Y-9347200D01*
X13182600Y-9398200D01*
X13182600Y-9652200D02*
X13233600Y-9601200D01*
X13182600Y-9550200D01*
X13131600Y-9601200D01*
X13182600Y-9652200D01*
X13436600Y-9398200D02*
X13487600Y-9347200D01*
X13436600Y-9296200D01*
X13385600Y-9347200D01*
X13436600Y-9398200D01*
X13436600Y-9652200D02*
X13487600Y-9601200D01*
X13436600Y-9550200D01*
X13385600Y-9601200D01*
X13436600Y-9652200D01*
X13690600Y-9398200D02*
X13741600Y-9347200D01*
X13690600Y-9296200D01*
X13639600Y-9347200D01*
X13690600Y-9398200D01*
X13690600Y-9652200D02*
X13741600Y-9601200D01*
X13690600Y-9550200D01*
X13639600Y-9601200D01*
X13690600Y-9652200D01*
X13944600Y-9398200D02*
X13995600Y-9347200D01*
X13944600Y-9296200D01*
X13893600Y-9347200D01*
X13944600Y-9398200D01*
X13944600Y-9652200D02*
X13995600Y-9601200D01*
X13944600Y-9550200D01*
X13893600Y-9601200D01*
X13944600Y-9652200D01*
X14198600Y-9398200D02*
X14249600Y-9347200D01*
X14198600Y-9296200D01*
X14147600Y-9347200D01*
X14198600Y-9398200D01*
X14198600Y-9652200D02*
X14249600Y-9601200D01*
X14198600Y-9550200D01*
X14147600Y-9601200D01*
X14198600Y-9652200D01*
X14452600Y-9398200D02*
X14503600Y-9347200D01*
X14452600Y-9296200D01*
X14401600Y-9347200D01*
X14452600Y-9398200D01*
X14452600Y-9652200D02*
X14503600Y-9601200D01*
X14452600Y-9550200D01*
X14401600Y-9601200D01*
X14452600Y-9652200D01*
X14706600Y-9398200D02*
X14757600Y-9347200D01*
X14706600Y-9296200D01*
X14655600Y-9347200D01*
X14706600Y-9398200D01*
X14706600Y-9652200D02*
X14757600Y-9601200D01*
X14706600Y-9550200D01*
X14655600Y-9601200D01*
X14706600Y-9652200D01*
X14960600Y-9398200D02*
X15011600Y-9347200D01*
X14960600Y-9296200D01*
X14909600Y-9347200D01*
X14960600Y-9398200D01*
X14960600Y-9652200D02*
X15011600Y-9601200D01*
X14960600Y-9550200D01*
X14909600Y-9601200D01*
X14960600Y-9652200D01*
X15214600Y-9398200D02*
X15265600Y-9347200D01*
X15214600Y-9296200D01*
X15163600Y-9347200D01*
X15214600Y-9398200D01*
X15214600Y-9652200D02*
X15265600Y-9601200D01*
X15214600Y-9550200D01*
X15163600Y-9601200D01*
X15214600Y-9652200D01*
X15468600Y-9398200D02*
X15519600Y-9347200D01*
X15468600Y-9296200D01*
X15417600Y-9347200D01*
X15468600Y-9398200D01*
X15468600Y-9652200D02*
X15519600Y-9601200D01*
X15468600Y-9550200D01*
X15417600Y-9601200D01*
X15468600Y-9652200D01*
X15722600Y-9398200D02*
X15773600Y-9347200D01*
X15722600Y-9296200D01*
X15671600Y-9347200D01*
X15722600Y-9398200D01*
X15722600Y-9652200D02*
X15773600Y-9601200D01*
X15722600Y-9550200D01*
X15671600Y-9601200D01*
X15722600Y-9652200D01*
X15976600Y-9398200D02*
X16027600Y-9347200D01*
X15976600Y-9296200D01*
X15925600Y-9347200D01*
X15976600Y-9398200D01*
X15976600Y-9652200D02*
X16027600Y-9601200D01*
X15976600Y-9550200D01*
X15925600Y-9601200D01*
X15976600Y-9652200D01*
X16230600Y-9398200D02*
X16281600Y-9347200D01*
X16230600Y-9296200D01*
X16179600Y-9347200D01*
X16230600Y-9398200D01*
X16230600Y-9652200D02*
X16281600Y-9601200D01*
X16230600Y-9550200D01*
X16179600Y-9601200D01*
X16230600Y-9652200D01*
D17*
X7948930Y-8595740D02*
X8078470Y-8725280D01*
X8078470Y-8595740D02*
X7948930Y-8725280D01*
X8078470Y-8660510D02*
G75*
G03*
X8078470Y-8660510I-64770J0D01*
G01*
X7948930Y-9095740D02*
X8078470Y-9225280D01*
X8078470Y-9095740D02*
X7948930Y-9225280D01*
X8078470Y-9160510D02*
G75*
G03*
X8078470Y-9160510I-64770J0D01*
G01*
X7948930Y-9595740D02*
X8078470Y-9725280D01*
X8078470Y-9595740D02*
X7948930Y-9725280D01*
X8078470Y-9660510D02*
G75*
G03*
X8078470Y-9660510I-64770J0D01*
G01*
X10907140Y-3846830D02*
X11036680Y-3976370D01*
X11036680Y-3846830D02*
X10907140Y-3976370D01*
X11036680Y-3911600D02*
G75*
G03*
X11036680Y-3911600I-64770J0D01*
G01*
X11407140Y-3846830D02*
X11536680Y-3976370D01*
X11536680Y-3846830D02*
X11407140Y-3976370D01*
X11536680Y-3911600D02*
G75*
G03*
X11536680Y-3911600I-64770J0D01*
G01*
X11907140Y-3846830D02*
X12036680Y-3976370D01*
X12036680Y-3846830D02*
X11907140Y-3976370D01*
X12036680Y-3911600D02*
G75*
G03*
X12036680Y-3911600I-64770J0D01*
G01*
X15145670Y-7314870D02*
X15275210Y-7444410D01*
X15275210Y-7314870D02*
X15145670Y-7444410D01*
X15275210Y-7379640D02*
G75*
G03*
X15275210Y-7379640I-64770J0D01*
G01*
X15145670Y-8384870D02*
X15275210Y-8514410D01*
X15275210Y-8384870D02*
X15145670Y-8514410D01*
X15275210Y-8449640D02*
G75*
G03*
X15275210Y-8449640I-64770J0D01*
G01*
X15895670Y-7314870D02*
X16025210Y-7444410D01*
X16025210Y-7314870D02*
X15895670Y-7444410D01*
X16025210Y-7379640D02*
G75*
G03*
X16025210Y-7379640I-64770J0D01*
G01*
X15895670Y-8384870D02*
X16025210Y-8514410D01*
X16025210Y-8384870D02*
X15895670Y-8514410D01*
X16025210Y-8449640D02*
G75*
G03*
X16025210Y-8449640I-64770J0D01*
G01*
X19466940Y-3897630D02*
X19596480Y-4027170D01*
X19596480Y-3897630D02*
X19466940Y-4027170D01*
X19596480Y-3962400D02*
G75*
G03*
X19596480Y-3962400I-64770J0D01*
G01*
X19966940Y-3897630D02*
X20096480Y-4027170D01*
X20096480Y-3897630D02*
X19966940Y-4027170D01*
X20096480Y-3962400D02*
G75*
G03*
X20096480Y-3962400I-64770J0D01*
G01*
X20466940Y-3897630D02*
X20596480Y-4027170D01*
X20596480Y-3897630D02*
X20466940Y-4027170D01*
X20596480Y-3962400D02*
G75*
G03*
X20596480Y-3962400I-64770J0D01*
G01*
X21855430Y-4955920D02*
X21984970Y-5085460D01*
X21984970Y-4955920D02*
X21855430Y-5085460D01*
X21984970Y-5020690D02*
G75*
G03*
X21984970Y-5020690I-64770J0D01*
G01*
X21855430Y-5455920D02*
X21984970Y-5585460D01*
X21984970Y-5455920D02*
X21855430Y-5585460D01*
X21984970Y-5520690D02*
G75*
G03*
X21984970Y-5520690I-64770J0D01*
G01*
X21855430Y-5955920D02*
X21984970Y-6085460D01*
X21984970Y-5955920D02*
X21855430Y-6085460D01*
X21984970Y-6020690D02*
G75*
G03*
X21984970Y-6020690I-64770J0D01*
G01*
X21855430Y-8207120D02*
X21984970Y-8336660D01*
X21984970Y-8207120D02*
X21855430Y-8336660D01*
X21984970Y-8271890D02*
G75*
G03*
X21984970Y-8271890I-64770J0D01*
G01*
X21855430Y-8707120D02*
X21984970Y-8836660D01*
X21984970Y-8707120D02*
X21855430Y-8836660D01*
X21984970Y-8771890D02*
G75*
G03*
X21984970Y-8771890I-64770J0D01*
G01*
X21855430Y-9207120D02*
X21984970Y-9336660D01*
X21984970Y-9207120D02*
X21855430Y-9336660D01*
X21984970Y-9271890D02*
G75*
G03*
X21984970Y-9271890I-64770J0D01*
G01*
D18*
X9171800Y-5986640D02*
X9471800Y-6286640D01*
X9471800Y-5986640D02*
X9171800Y-6286640D01*
X9321800Y-5986640D02*
X9321800Y-6286640D01*
X9171800Y-6136640D02*
X9471800Y-6136640D01*
X10873600Y-6250800D02*
X11173600Y-6550800D01*
X11173600Y-6250800D02*
X10873600Y-6550800D01*
X11023600Y-6250800D02*
X11023600Y-6550800D01*
X10873600Y-6400800D02*
X11173600Y-6400800D01*
X10929480Y-8348840D02*
X11229480Y-8648840D01*
X11229480Y-8348840D02*
X10929480Y-8648840D01*
X11079480Y-8348840D02*
X11079480Y-8648840D01*
X10929480Y-8498840D02*
X11229480Y-8498840D01*
X16319360Y-8298040D02*
X16619360Y-8598040D01*
X16619360Y-8298040D02*
X16319360Y-8598040D01*
X16469360Y-8298040D02*
X16469360Y-8598040D01*
X16319360Y-8448040D02*
X16619360Y-8448040D01*
X20256360Y-5737720D02*
X20556360Y-6037720D01*
X20556360Y-5737720D02*
X20256360Y-6037720D01*
X20406360Y-5737720D02*
X20406360Y-6037720D01*
X20256360Y-5887720D02*
X20556360Y-5887720D01*
D19*
X9228800Y-4890480D02*
X9668800Y-5330480D01*
X9668800Y-4890480D02*
X9228800Y-5330480D01*
X9604365Y-5266045D02*
X9604365Y-4954915D01*
X9293235Y-4954915D01*
X9293235Y-5266045D01*
X9604365Y-5266045D01*
X10067000Y-9381200D02*
X10507000Y-9821200D01*
X10507000Y-9381200D02*
X10067000Y-9821200D01*
X10442565Y-9756765D02*
X10442565Y-9445635D01*
X10131435Y-9445635D01*
X10131435Y-9756765D01*
X10442565Y-9756765D01*
X18408360Y-9360880D02*
X18848360Y-9800880D01*
X18848360Y-9360880D02*
X18408360Y-9800880D01*
X18783925Y-9736445D02*
X18783925Y-9425315D01*
X18472795Y-9425315D01*
X18472795Y-9736445D01*
X18783925Y-9736445D01*
X18423600Y-4545040D02*
X18863600Y-4985040D01*
X18863600Y-4545040D02*
X18423600Y-4985040D01*
X18799165Y-4920605D02*
X18799165Y-4609475D01*
X18488035Y-4609475D01*
X18488035Y-4920605D01*
X18799165Y-4920605D01*
D11*
X7542131Y-10526579D02*
X7542131Y-10326579D01*
X7589750Y-10326579D01*
X7618321Y-10336103D01*
X7637369Y-10355151D01*
X7646892Y-10374198D01*
X7656416Y-10412294D01*
X7656416Y-10440865D01*
X7646892Y-10478960D01*
X7637369Y-10498008D01*
X7618321Y-10517055D01*
X7589750Y-10526579D01*
X7542131Y-10526579D01*
X7742131Y-10526579D02*
X7742131Y-10393246D01*
X7742131Y-10431341D02*
X7751654Y-10412294D01*
X7761178Y-10402770D01*
X7780226Y-10393246D01*
X7799273Y-10393246D01*
X7865940Y-10526579D02*
X7865940Y-10393246D01*
X7865940Y-10326579D02*
X7856416Y-10336103D01*
X7865940Y-10345627D01*
X7875464Y-10336103D01*
X7865940Y-10326579D01*
X7865940Y-10345627D01*
X7989750Y-10526579D02*
X7970702Y-10517055D01*
X7961178Y-10498008D01*
X7961178Y-10326579D01*
X8094512Y-10526579D02*
X8075464Y-10517055D01*
X8065940Y-10498008D01*
X8065940Y-10326579D01*
X8323083Y-10526579D02*
X8323083Y-10326579D01*
X8389750Y-10469436D01*
X8456416Y-10326579D01*
X8456416Y-10526579D01*
X8637369Y-10526579D02*
X8637369Y-10421817D01*
X8627845Y-10402770D01*
X8608797Y-10393246D01*
X8570702Y-10393246D01*
X8551654Y-10402770D01*
X8637369Y-10517055D02*
X8618321Y-10526579D01*
X8570702Y-10526579D01*
X8551654Y-10517055D01*
X8542131Y-10498008D01*
X8542131Y-10478960D01*
X8551654Y-10459913D01*
X8570702Y-10450389D01*
X8618321Y-10450389D01*
X8637369Y-10440865D01*
X8732607Y-10393246D02*
X8732607Y-10593246D01*
X8732607Y-10402770D02*
X8751654Y-10393246D01*
X8789750Y-10393246D01*
X8808797Y-10402770D01*
X8818321Y-10412294D01*
X8827845Y-10431341D01*
X8827845Y-10488484D01*
X8818321Y-10507532D01*
X8808797Y-10517055D01*
X8789750Y-10526579D01*
X8751654Y-10526579D01*
X8732607Y-10517055D01*
X8913559Y-10507532D02*
X8923083Y-10517055D01*
X8913559Y-10526579D01*
X8904035Y-10517055D01*
X8913559Y-10507532D01*
X8913559Y-10526579D01*
X8913559Y-10402770D02*
X8923083Y-10412294D01*
X8913559Y-10421817D01*
X8904035Y-10412294D01*
X8913559Y-10402770D01*
X8913559Y-10421817D01*
D12*
X7244512Y-10836103D02*
X7284512Y-10876103D01*
X7284512Y-10836103D02*
X7244512Y-10876103D01*
D11*
X7580226Y-10746579D02*
X7599273Y-10746579D01*
X7618321Y-10756103D01*
X7627845Y-10765627D01*
X7637369Y-10784675D01*
X7646892Y-10822770D01*
X7646892Y-10870389D01*
X7637369Y-10908484D01*
X7627845Y-10927532D01*
X7618321Y-10937055D01*
X7599273Y-10946579D01*
X7580226Y-10946579D01*
X7561178Y-10937055D01*
X7551654Y-10927532D01*
X7542131Y-10908484D01*
X7532607Y-10870389D01*
X7532607Y-10822770D01*
X7542131Y-10784675D01*
X7551654Y-10765627D01*
X7561178Y-10756103D01*
X7580226Y-10746579D01*
X7732607Y-10927532D02*
X7742131Y-10937055D01*
X7732607Y-10946579D01*
X7723083Y-10937055D01*
X7732607Y-10927532D01*
X7732607Y-10946579D01*
X7913559Y-10813246D02*
X7913559Y-10946579D01*
X7865940Y-10737055D02*
X7818321Y-10879913D01*
X7942131Y-10879913D01*
X8056416Y-10746579D02*
X8075464Y-10746579D01*
X8094512Y-10756103D01*
X8104035Y-10765627D01*
X8113559Y-10784675D01*
X8123083Y-10822770D01*
X8123083Y-10870389D01*
X8113559Y-10908484D01*
X8104035Y-10927532D01*
X8094512Y-10937055D01*
X8075464Y-10946579D01*
X8056416Y-10946579D01*
X8037369Y-10937055D01*
X8027845Y-10927532D01*
X8018321Y-10908484D01*
X8008797Y-10870389D01*
X8008797Y-10822770D01*
X8018321Y-10784675D01*
X8027845Y-10765627D01*
X8037369Y-10756103D01*
X8056416Y-10746579D01*
X8246892Y-10746579D02*
X8265940Y-10746579D01*
X8284988Y-10756103D01*
X8294512Y-10765627D01*
X8304035Y-10784675D01*
X8313559Y-10822770D01*
X8313559Y-10870389D01*
X8304035Y-10908484D01*
X8294512Y-10927532D01*
X8284988Y-10937055D01*
X8265940Y-10946579D01*
X8246892Y-10946579D01*
X8227845Y-10937055D01*
X8218321Y-10927532D01*
X8208797Y-10908484D01*
X8199273Y-10870389D01*
X8199273Y-10822770D01*
X8208797Y-10784675D01*
X8218321Y-10765627D01*
X8227845Y-10756103D01*
X8246892Y-10746579D01*
X8399274Y-10946579D02*
X8399274Y-10813246D01*
X8399274Y-10832294D02*
X8408797Y-10822770D01*
X8427845Y-10813246D01*
X8456416Y-10813246D01*
X8475464Y-10822770D01*
X8484988Y-10841817D01*
X8484988Y-10946579D01*
X8484988Y-10841817D02*
X8494512Y-10822770D01*
X8513559Y-10813246D01*
X8542131Y-10813246D01*
X8561178Y-10822770D01*
X8570702Y-10841817D01*
X8570702Y-10946579D01*
X8665940Y-10946579D02*
X8665940Y-10813246D01*
X8665940Y-10832294D02*
X8675464Y-10822770D01*
X8694512Y-10813246D01*
X8723083Y-10813246D01*
X8742131Y-10822770D01*
X8751654Y-10841817D01*
X8751654Y-10946579D01*
X8751654Y-10841817D02*
X8761178Y-10822770D01*
X8780226Y-10813246D01*
X8808797Y-10813246D01*
X8827845Y-10822770D01*
X8837369Y-10841817D01*
X8837369Y-10946579D01*
X9227845Y-10737055D02*
X9056416Y-10994198D01*
X9484988Y-10746579D02*
X9504035Y-10746579D01*
X9523083Y-10756103D01*
X9532607Y-10765627D01*
X9542131Y-10784675D01*
X9551654Y-10822770D01*
X9551654Y-10870389D01*
X9542131Y-10908484D01*
X9532607Y-10927532D01*
X9523083Y-10937055D01*
X9504035Y-10946579D01*
X9484988Y-10946579D01*
X9465940Y-10937055D01*
X9456416Y-10927532D01*
X9446893Y-10908484D01*
X9437369Y-10870389D01*
X9437369Y-10822770D01*
X9446893Y-10784675D01*
X9456416Y-10765627D01*
X9465940Y-10756103D01*
X9484988Y-10746579D01*
X9637369Y-10927532D02*
X9646893Y-10937055D01*
X9637369Y-10946579D01*
X9627845Y-10937055D01*
X9637369Y-10927532D01*
X9637369Y-10946579D01*
X9770702Y-10746579D02*
X9789750Y-10746579D01*
X9808797Y-10756103D01*
X9818321Y-10765627D01*
X9827845Y-10784675D01*
X9837369Y-10822770D01*
X9837369Y-10870389D01*
X9827845Y-10908484D01*
X9818321Y-10927532D01*
X9808797Y-10937055D01*
X9789750Y-10946579D01*
X9770702Y-10946579D01*
X9751654Y-10937055D01*
X9742131Y-10927532D01*
X9732607Y-10908484D01*
X9723083Y-10870389D01*
X9723083Y-10822770D01*
X9732607Y-10784675D01*
X9742131Y-10765627D01*
X9751654Y-10756103D01*
X9770702Y-10746579D01*
X10027845Y-10946579D02*
X9913559Y-10946579D01*
X9970702Y-10946579D02*
X9970702Y-10746579D01*
X9951654Y-10775151D01*
X9932607Y-10794198D01*
X9913559Y-10803722D01*
X10208797Y-10746579D02*
X10113559Y-10746579D01*
X10104035Y-10841817D01*
X10113559Y-10832294D01*
X10132607Y-10822770D01*
X10180226Y-10822770D01*
X10199274Y-10832294D01*
X10208797Y-10841817D01*
X10218321Y-10860865D01*
X10218321Y-10908484D01*
X10208797Y-10927532D01*
X10199274Y-10937055D01*
X10180226Y-10946579D01*
X10132607Y-10946579D01*
X10113559Y-10937055D01*
X10104035Y-10927532D01*
X10284988Y-10746579D02*
X10418321Y-10746579D01*
X10332607Y-10946579D01*
X10484988Y-10746579D02*
X10484988Y-10784675D01*
X10561178Y-10746579D02*
X10561178Y-10784675D01*
X10856416Y-11022770D02*
X10846893Y-11013246D01*
X10827845Y-10984675D01*
X10818321Y-10965627D01*
X10808797Y-10937055D01*
X10799274Y-10889436D01*
X10799274Y-10851341D01*
X10808797Y-10803722D01*
X10818321Y-10775151D01*
X10827845Y-10756103D01*
X10846893Y-10727532D01*
X10856416Y-10718008D01*
X11037369Y-10946579D02*
X10923083Y-10946579D01*
X10980226Y-10946579D02*
X10980226Y-10746579D01*
X10961178Y-10775151D01*
X10942131Y-10794198D01*
X10923083Y-10803722D01*
X11227845Y-10946579D02*
X11113559Y-10946579D01*
X11170702Y-10946579D02*
X11170702Y-10746579D01*
X11151654Y-10775151D01*
X11132607Y-10794198D01*
X11113559Y-10803722D01*
X11465940Y-10946579D02*
X11465940Y-10746579D01*
X11551654Y-10946579D02*
X11551654Y-10841817D01*
X11542131Y-10822770D01*
X11523083Y-10813246D01*
X11494511Y-10813246D01*
X11475464Y-10822770D01*
X11465940Y-10832294D01*
X11675464Y-10946579D02*
X11656416Y-10937055D01*
X11646892Y-10927532D01*
X11637369Y-10908484D01*
X11637369Y-10851341D01*
X11646892Y-10832294D01*
X11656416Y-10822770D01*
X11675464Y-10813246D01*
X11704035Y-10813246D01*
X11723083Y-10822770D01*
X11732607Y-10832294D01*
X11742131Y-10851341D01*
X11742131Y-10908484D01*
X11732607Y-10927532D01*
X11723083Y-10937055D01*
X11704035Y-10946579D01*
X11675464Y-10946579D01*
X11856416Y-10946579D02*
X11837369Y-10937055D01*
X11827845Y-10918008D01*
X11827845Y-10746579D01*
X12008797Y-10937055D02*
X11989750Y-10946579D01*
X11951654Y-10946579D01*
X11932607Y-10937055D01*
X11923083Y-10918008D01*
X11923083Y-10841817D01*
X11932607Y-10822770D01*
X11951654Y-10813246D01*
X11989750Y-10813246D01*
X12008797Y-10822770D01*
X12018321Y-10841817D01*
X12018321Y-10860865D01*
X11923083Y-10879913D01*
X12094511Y-10937055D02*
X12113559Y-10946579D01*
X12151654Y-10946579D01*
X12170702Y-10937055D01*
X12180226Y-10918008D01*
X12180226Y-10908484D01*
X12170702Y-10889436D01*
X12151654Y-10879913D01*
X12123083Y-10879913D01*
X12104035Y-10870389D01*
X12094511Y-10851341D01*
X12094511Y-10841817D01*
X12104035Y-10822770D01*
X12123083Y-10813246D01*
X12151654Y-10813246D01*
X12170702Y-10822770D01*
X12246892Y-11022770D02*
X12256416Y-11013246D01*
X12275464Y-10984675D01*
X12284988Y-10965627D01*
X12294511Y-10937055D01*
X12304035Y-10889436D01*
X12304035Y-10851341D01*
X12294511Y-10803722D01*
X12284988Y-10775151D01*
X12275464Y-10756103D01*
X12256416Y-10727532D01*
X12246892Y-10718008D01*
D13*
X7284512Y-11120103D02*
G75*
G03*
X7284512Y-11120103I-37500J0D01*
G01*
D11*
X7580226Y-11010579D02*
X7599273Y-11010579D01*
X7618321Y-11020103D01*
X7627845Y-11029627D01*
X7637369Y-11048675D01*
X7646892Y-11086770D01*
X7646892Y-11134389D01*
X7637369Y-11172484D01*
X7627845Y-11191532D01*
X7618321Y-11201055D01*
X7599273Y-11210579D01*
X7580226Y-11210579D01*
X7561178Y-11201055D01*
X7551654Y-11191532D01*
X7542131Y-11172484D01*
X7532607Y-11134389D01*
X7532607Y-11086770D01*
X7542131Y-11048675D01*
X7551654Y-11029627D01*
X7561178Y-11020103D01*
X7580226Y-11010579D01*
X7732607Y-11191532D02*
X7742131Y-11201055D01*
X7732607Y-11210579D01*
X7723083Y-11201055D01*
X7732607Y-11191532D01*
X7732607Y-11210579D01*
X7808797Y-11010579D02*
X7942131Y-11010579D01*
X7856416Y-11210579D01*
X8113559Y-11010579D02*
X8018321Y-11010579D01*
X8008797Y-11105817D01*
X8018321Y-11096294D01*
X8037369Y-11086770D01*
X8084988Y-11086770D01*
X8104035Y-11096294D01*
X8113559Y-11105817D01*
X8123083Y-11124865D01*
X8123083Y-11172484D01*
X8113559Y-11191532D01*
X8104035Y-11201055D01*
X8084988Y-11210579D01*
X8037369Y-11210579D01*
X8018321Y-11201055D01*
X8008797Y-11191532D01*
X8246892Y-11010579D02*
X8265940Y-11010579D01*
X8284988Y-11020103D01*
X8294512Y-11029627D01*
X8304035Y-11048675D01*
X8313559Y-11086770D01*
X8313559Y-11134389D01*
X8304035Y-11172484D01*
X8294512Y-11191532D01*
X8284988Y-11201055D01*
X8265940Y-11210579D01*
X8246892Y-11210579D01*
X8227845Y-11201055D01*
X8218321Y-11191532D01*
X8208797Y-11172484D01*
X8199273Y-11134389D01*
X8199273Y-11086770D01*
X8208797Y-11048675D01*
X8218321Y-11029627D01*
X8227845Y-11020103D01*
X8246892Y-11010579D01*
X8399274Y-11210579D02*
X8399274Y-11077246D01*
X8399274Y-11096294D02*
X8408797Y-11086770D01*
X8427845Y-11077246D01*
X8456416Y-11077246D01*
X8475464Y-11086770D01*
X8484988Y-11105817D01*
X8484988Y-11210579D01*
X8484988Y-11105817D02*
X8494512Y-11086770D01*
X8513559Y-11077246D01*
X8542131Y-11077246D01*
X8561178Y-11086770D01*
X8570702Y-11105817D01*
X8570702Y-11210579D01*
X8665940Y-11210579D02*
X8665940Y-11077246D01*
X8665940Y-11096294D02*
X8675464Y-11086770D01*
X8694512Y-11077246D01*
X8723083Y-11077246D01*
X8742131Y-11086770D01*
X8751654Y-11105817D01*
X8751654Y-11210579D01*
X8751654Y-11105817D02*
X8761178Y-11086770D01*
X8780226Y-11077246D01*
X8808797Y-11077246D01*
X8827845Y-11086770D01*
X8837369Y-11105817D01*
X8837369Y-11210579D01*
X9227845Y-11001055D02*
X9056416Y-11258198D01*
X9484988Y-11010579D02*
X9504035Y-11010579D01*
X9523083Y-11020103D01*
X9532607Y-11029627D01*
X9542131Y-11048675D01*
X9551654Y-11086770D01*
X9551654Y-11134389D01*
X9542131Y-11172484D01*
X9532607Y-11191532D01*
X9523083Y-11201055D01*
X9504035Y-11210579D01*
X9484988Y-11210579D01*
X9465940Y-11201055D01*
X9456416Y-11191532D01*
X9446893Y-11172484D01*
X9437369Y-11134389D01*
X9437369Y-11086770D01*
X9446893Y-11048675D01*
X9456416Y-11029627D01*
X9465940Y-11020103D01*
X9484988Y-11010579D01*
X9637369Y-11191532D02*
X9646893Y-11201055D01*
X9637369Y-11210579D01*
X9627845Y-11201055D01*
X9637369Y-11191532D01*
X9637369Y-11210579D01*
X9770702Y-11010579D02*
X9789750Y-11010579D01*
X9808797Y-11020103D01*
X9818321Y-11029627D01*
X9827845Y-11048675D01*
X9837369Y-11086770D01*
X9837369Y-11134389D01*
X9827845Y-11172484D01*
X9818321Y-11191532D01*
X9808797Y-11201055D01*
X9789750Y-11210579D01*
X9770702Y-11210579D01*
X9751654Y-11201055D01*
X9742131Y-11191532D01*
X9732607Y-11172484D01*
X9723083Y-11134389D01*
X9723083Y-11086770D01*
X9732607Y-11048675D01*
X9742131Y-11029627D01*
X9751654Y-11020103D01*
X9770702Y-11010579D01*
X9913559Y-11029627D02*
X9923083Y-11020103D01*
X9942131Y-11010579D01*
X9989750Y-11010579D01*
X10008797Y-11020103D01*
X10018321Y-11029627D01*
X10027845Y-11048675D01*
X10027845Y-11067722D01*
X10018321Y-11096294D01*
X9904035Y-11210579D01*
X10027845Y-11210579D01*
X10123083Y-11210579D02*
X10161178Y-11210579D01*
X10180226Y-11201055D01*
X10189750Y-11191532D01*
X10208797Y-11162960D01*
X10218321Y-11124865D01*
X10218321Y-11048675D01*
X10208797Y-11029627D01*
X10199274Y-11020103D01*
X10180226Y-11010579D01*
X10142131Y-11010579D01*
X10123083Y-11020103D01*
X10113559Y-11029627D01*
X10104035Y-11048675D01*
X10104035Y-11096294D01*
X10113559Y-11115341D01*
X10123083Y-11124865D01*
X10142131Y-11134389D01*
X10180226Y-11134389D01*
X10199274Y-11124865D01*
X10208797Y-11115341D01*
X10218321Y-11096294D01*
X10399274Y-11010579D02*
X10304035Y-11010579D01*
X10294512Y-11105817D01*
X10304035Y-11096294D01*
X10323083Y-11086770D01*
X10370702Y-11086770D01*
X10389750Y-11096294D01*
X10399274Y-11105817D01*
X10408797Y-11124865D01*
X10408797Y-11172484D01*
X10399274Y-11191532D01*
X10389750Y-11201055D01*
X10370702Y-11210579D01*
X10323083Y-11210579D01*
X10304035Y-11201055D01*
X10294512Y-11191532D01*
X10484988Y-11010579D02*
X10484988Y-11048675D01*
X10561178Y-11010579D02*
X10561178Y-11048675D01*
X10856416Y-11286770D02*
X10846893Y-11277246D01*
X10827845Y-11248674D01*
X10818321Y-11229627D01*
X10808797Y-11201055D01*
X10799274Y-11153436D01*
X10799274Y-11115341D01*
X10808797Y-11067722D01*
X10818321Y-11039151D01*
X10827845Y-11020103D01*
X10846893Y-10991532D01*
X10856416Y-10982008D01*
X11037369Y-11210579D02*
X10923083Y-11210579D01*
X10980226Y-11210579D02*
X10980226Y-11010579D01*
X10961178Y-11039151D01*
X10942131Y-11058198D01*
X10923083Y-11067722D01*
X11151654Y-11096294D02*
X11132607Y-11086770D01*
X11123083Y-11077246D01*
X11113559Y-11058198D01*
X11113559Y-11048675D01*
X11123083Y-11029627D01*
X11132607Y-11020103D01*
X11151654Y-11010579D01*
X11189750Y-11010579D01*
X11208797Y-11020103D01*
X11218321Y-11029627D01*
X11227845Y-11048675D01*
X11227845Y-11058198D01*
X11218321Y-11077246D01*
X11208797Y-11086770D01*
X11189750Y-11096294D01*
X11151654Y-11096294D01*
X11132607Y-11105817D01*
X11123083Y-11115341D01*
X11113559Y-11134389D01*
X11113559Y-11172484D01*
X11123083Y-11191532D01*
X11132607Y-11201055D01*
X11151654Y-11210579D01*
X11189750Y-11210579D01*
X11208797Y-11201055D01*
X11218321Y-11191532D01*
X11227845Y-11172484D01*
X11227845Y-11134389D01*
X11218321Y-11115341D01*
X11208797Y-11105817D01*
X11189750Y-11096294D01*
X11465940Y-11210579D02*
X11465940Y-11010579D01*
X11551654Y-11210579D02*
X11551654Y-11105817D01*
X11542131Y-11086770D01*
X11523083Y-11077246D01*
X11494511Y-11077246D01*
X11475464Y-11086770D01*
X11465940Y-11096294D01*
X11675464Y-11210579D02*
X11656416Y-11201055D01*
X11646892Y-11191532D01*
X11637369Y-11172484D01*
X11637369Y-11115341D01*
X11646892Y-11096294D01*
X11656416Y-11086770D01*
X11675464Y-11077246D01*
X11704035Y-11077246D01*
X11723083Y-11086770D01*
X11732607Y-11096294D01*
X11742131Y-11115341D01*
X11742131Y-11172484D01*
X11732607Y-11191532D01*
X11723083Y-11201055D01*
X11704035Y-11210579D01*
X11675464Y-11210579D01*
X11856416Y-11210579D02*
X11837369Y-11201055D01*
X11827845Y-11182008D01*
X11827845Y-11010579D01*
X12008797Y-11201055D02*
X11989750Y-11210579D01*
X11951654Y-11210579D01*
X11932607Y-11201055D01*
X11923083Y-11182008D01*
X11923083Y-11105817D01*
X11932607Y-11086770D01*
X11951654Y-11077246D01*
X11989750Y-11077246D01*
X12008797Y-11086770D01*
X12018321Y-11105817D01*
X12018321Y-11124865D01*
X11923083Y-11143913D01*
X12094511Y-11201055D02*
X12113559Y-11210579D01*
X12151654Y-11210579D01*
X12170702Y-11201055D01*
X12180226Y-11182008D01*
X12180226Y-11172484D01*
X12170702Y-11153436D01*
X12151654Y-11143913D01*
X12123083Y-11143913D01*
X12104035Y-11134389D01*
X12094511Y-11115341D01*
X12094511Y-11105817D01*
X12104035Y-11086770D01*
X12123083Y-11077246D01*
X12151654Y-11077246D01*
X12170702Y-11086770D01*
X12246892Y-11286770D02*
X12256416Y-11277246D01*
X12275464Y-11248674D01*
X12284988Y-11229627D01*
X12294511Y-11201055D01*
X12304035Y-11153436D01*
X12304035Y-11115341D01*
X12294511Y-11067722D01*
X12284988Y-11039151D01*
X12275464Y-11020103D01*
X12256416Y-10991532D01*
X12246892Y-10982008D01*
D14*
X7240062Y-11339653D02*
X7240062Y-11428553D01*
X7195612Y-11384103D02*
X7284512Y-11384103D01*
D11*
X7580226Y-11274579D02*
X7599273Y-11274579D01*
X7618321Y-11284103D01*
X7627845Y-11293627D01*
X7637369Y-11312674D01*
X7646892Y-11350770D01*
X7646892Y-11398389D01*
X7637369Y-11436484D01*
X7627845Y-11455532D01*
X7618321Y-11465055D01*
X7599273Y-11474579D01*
X7580226Y-11474579D01*
X7561178Y-11465055D01*
X7551654Y-11455532D01*
X7542131Y-11436484D01*
X7532607Y-11398389D01*
X7532607Y-11350770D01*
X7542131Y-11312674D01*
X7551654Y-11293627D01*
X7561178Y-11284103D01*
X7580226Y-11274579D01*
X7732607Y-11455532D02*
X7742131Y-11465055D01*
X7732607Y-11474579D01*
X7723083Y-11465055D01*
X7732607Y-11455532D01*
X7732607Y-11474579D01*
X7856416Y-11360293D02*
X7837369Y-11350770D01*
X7827845Y-11341246D01*
X7818321Y-11322198D01*
X7818321Y-11312674D01*
X7827845Y-11293627D01*
X7837369Y-11284103D01*
X7856416Y-11274579D01*
X7894512Y-11274579D01*
X7913559Y-11284103D01*
X7923083Y-11293627D01*
X7932607Y-11312674D01*
X7932607Y-11322198D01*
X7923083Y-11341246D01*
X7913559Y-11350770D01*
X7894512Y-11360293D01*
X7856416Y-11360293D01*
X7837369Y-11369817D01*
X7827845Y-11379341D01*
X7818321Y-11398389D01*
X7818321Y-11436484D01*
X7827845Y-11455532D01*
X7837369Y-11465055D01*
X7856416Y-11474579D01*
X7894512Y-11474579D01*
X7913559Y-11465055D01*
X7923083Y-11455532D01*
X7932607Y-11436484D01*
X7932607Y-11398389D01*
X7923083Y-11379341D01*
X7913559Y-11369817D01*
X7894512Y-11360293D01*
X8046892Y-11360293D02*
X8027845Y-11350770D01*
X8018321Y-11341246D01*
X8008797Y-11322198D01*
X8008797Y-11312674D01*
X8018321Y-11293627D01*
X8027845Y-11284103D01*
X8046892Y-11274579D01*
X8084988Y-11274579D01*
X8104035Y-11284103D01*
X8113559Y-11293627D01*
X8123083Y-11312674D01*
X8123083Y-11322198D01*
X8113559Y-11341246D01*
X8104035Y-11350770D01*
X8084988Y-11360293D01*
X8046892Y-11360293D01*
X8027845Y-11369817D01*
X8018321Y-11379341D01*
X8008797Y-11398389D01*
X8008797Y-11436484D01*
X8018321Y-11455532D01*
X8027845Y-11465055D01*
X8046892Y-11474579D01*
X8084988Y-11474579D01*
X8104035Y-11465055D01*
X8113559Y-11455532D01*
X8123083Y-11436484D01*
X8123083Y-11398389D01*
X8113559Y-11379341D01*
X8104035Y-11369817D01*
X8084988Y-11360293D01*
X8218321Y-11474579D02*
X8256416Y-11474579D01*
X8275464Y-11465055D01*
X8284988Y-11455532D01*
X8304035Y-11426960D01*
X8313559Y-11388865D01*
X8313559Y-11312674D01*
X8304035Y-11293627D01*
X8294512Y-11284103D01*
X8275464Y-11274579D01*
X8237369Y-11274579D01*
X8218321Y-11284103D01*
X8208797Y-11293627D01*
X8199273Y-11312674D01*
X8199273Y-11360293D01*
X8208797Y-11379341D01*
X8218321Y-11388865D01*
X8237369Y-11398389D01*
X8275464Y-11398389D01*
X8294512Y-11388865D01*
X8304035Y-11379341D01*
X8313559Y-11360293D01*
X8399274Y-11474579D02*
X8399274Y-11341246D01*
X8399274Y-11360293D02*
X8408797Y-11350770D01*
X8427845Y-11341246D01*
X8456416Y-11341246D01*
X8475464Y-11350770D01*
X8484988Y-11369817D01*
X8484988Y-11474579D01*
X8484988Y-11369817D02*
X8494512Y-11350770D01*
X8513559Y-11341246D01*
X8542131Y-11341246D01*
X8561178Y-11350770D01*
X8570702Y-11369817D01*
X8570702Y-11474579D01*
X8665940Y-11474579D02*
X8665940Y-11341246D01*
X8665940Y-11360293D02*
X8675464Y-11350770D01*
X8694512Y-11341246D01*
X8723083Y-11341246D01*
X8742131Y-11350770D01*
X8751654Y-11369817D01*
X8751654Y-11474579D01*
X8751654Y-11369817D02*
X8761178Y-11350770D01*
X8780226Y-11341246D01*
X8808797Y-11341246D01*
X8827845Y-11350770D01*
X8837369Y-11369817D01*
X8837369Y-11474579D01*
X9227845Y-11265055D02*
X9056416Y-11522198D01*
X9484988Y-11274579D02*
X9504035Y-11274579D01*
X9523083Y-11284103D01*
X9532607Y-11293627D01*
X9542131Y-11312674D01*
X9551654Y-11350770D01*
X9551654Y-11398389D01*
X9542131Y-11436484D01*
X9532607Y-11455532D01*
X9523083Y-11465055D01*
X9504035Y-11474579D01*
X9484988Y-11474579D01*
X9465940Y-11465055D01*
X9456416Y-11455532D01*
X9446893Y-11436484D01*
X9437369Y-11398389D01*
X9437369Y-11350770D01*
X9446893Y-11312674D01*
X9456416Y-11293627D01*
X9465940Y-11284103D01*
X9484988Y-11274579D01*
X9637369Y-11455532D02*
X9646893Y-11465055D01*
X9637369Y-11474579D01*
X9627845Y-11465055D01*
X9637369Y-11455532D01*
X9637369Y-11474579D01*
X9770702Y-11274579D02*
X9789750Y-11274579D01*
X9808797Y-11284103D01*
X9818321Y-11293627D01*
X9827845Y-11312674D01*
X9837369Y-11350770D01*
X9837369Y-11398389D01*
X9827845Y-11436484D01*
X9818321Y-11455532D01*
X9808797Y-11465055D01*
X9789750Y-11474579D01*
X9770702Y-11474579D01*
X9751654Y-11465055D01*
X9742131Y-11455532D01*
X9732607Y-11436484D01*
X9723083Y-11398389D01*
X9723083Y-11350770D01*
X9732607Y-11312674D01*
X9742131Y-11293627D01*
X9751654Y-11284103D01*
X9770702Y-11274579D01*
X9904035Y-11274579D02*
X10027845Y-11274579D01*
X9961178Y-11350770D01*
X9989750Y-11350770D01*
X10008797Y-11360293D01*
X10018321Y-11369817D01*
X10027845Y-11388865D01*
X10027845Y-11436484D01*
X10018321Y-11455532D01*
X10008797Y-11465055D01*
X9989750Y-11474579D01*
X9932607Y-11474579D01*
X9913559Y-11465055D01*
X9904035Y-11455532D01*
X10208797Y-11274579D02*
X10113559Y-11274579D01*
X10104035Y-11369817D01*
X10113559Y-11360293D01*
X10132607Y-11350770D01*
X10180226Y-11350770D01*
X10199274Y-11360293D01*
X10208797Y-11369817D01*
X10218321Y-11388865D01*
X10218321Y-11436484D01*
X10208797Y-11455532D01*
X10199274Y-11465055D01*
X10180226Y-11474579D01*
X10132607Y-11474579D01*
X10113559Y-11465055D01*
X10104035Y-11455532D01*
X10342131Y-11274579D02*
X10361178Y-11274579D01*
X10380226Y-11284103D01*
X10389750Y-11293627D01*
X10399274Y-11312674D01*
X10408797Y-11350770D01*
X10408797Y-11398389D01*
X10399274Y-11436484D01*
X10389750Y-11455532D01*
X10380226Y-11465055D01*
X10361178Y-11474579D01*
X10342131Y-11474579D01*
X10323083Y-11465055D01*
X10313559Y-11455532D01*
X10304035Y-11436484D01*
X10294512Y-11398389D01*
X10294512Y-11350770D01*
X10304035Y-11312674D01*
X10313559Y-11293627D01*
X10323083Y-11284103D01*
X10342131Y-11274579D01*
X10484988Y-11274579D02*
X10484988Y-11312674D01*
X10561178Y-11274579D02*
X10561178Y-11312674D01*
X10856416Y-11550770D02*
X10846893Y-11541246D01*
X10827845Y-11512674D01*
X10818321Y-11493627D01*
X10808797Y-11465055D01*
X10799274Y-11417436D01*
X10799274Y-11379341D01*
X10808797Y-11331722D01*
X10818321Y-11303151D01*
X10827845Y-11284103D01*
X10846893Y-11255532D01*
X10856416Y-11246008D01*
X11018321Y-11341246D02*
X11018321Y-11474579D01*
X10970702Y-11265055D02*
X10923083Y-11407913D01*
X11046893Y-11407913D01*
X11275464Y-11474579D02*
X11275464Y-11274579D01*
X11361178Y-11474579D02*
X11361178Y-11369817D01*
X11351654Y-11350770D01*
X11332607Y-11341246D01*
X11304035Y-11341246D01*
X11284988Y-11350770D01*
X11275464Y-11360293D01*
X11484988Y-11474579D02*
X11465940Y-11465055D01*
X11456416Y-11455532D01*
X11446892Y-11436484D01*
X11446892Y-11379341D01*
X11456416Y-11360293D01*
X11465940Y-11350770D01*
X11484988Y-11341246D01*
X11513559Y-11341246D01*
X11532607Y-11350770D01*
X11542131Y-11360293D01*
X11551654Y-11379341D01*
X11551654Y-11436484D01*
X11542131Y-11455532D01*
X11532607Y-11465055D01*
X11513559Y-11474579D01*
X11484988Y-11474579D01*
X11665940Y-11474579D02*
X11646892Y-11465055D01*
X11637369Y-11446008D01*
X11637369Y-11274579D01*
X11818321Y-11465055D02*
X11799273Y-11474579D01*
X11761178Y-11474579D01*
X11742131Y-11465055D01*
X11732607Y-11446008D01*
X11732607Y-11369817D01*
X11742131Y-11350770D01*
X11761178Y-11341246D01*
X11799273Y-11341246D01*
X11818321Y-11350770D01*
X11827845Y-11369817D01*
X11827845Y-11388865D01*
X11732607Y-11407913D01*
X11904035Y-11465055D02*
X11923083Y-11474579D01*
X11961178Y-11474579D01*
X11980226Y-11465055D01*
X11989750Y-11446008D01*
X11989750Y-11436484D01*
X11980226Y-11417436D01*
X11961178Y-11407913D01*
X11932607Y-11407913D01*
X11913559Y-11398389D01*
X11904035Y-11379341D01*
X11904035Y-11369817D01*
X11913559Y-11350770D01*
X11932607Y-11341246D01*
X11961178Y-11341246D01*
X11980226Y-11350770D01*
X12056416Y-11550770D02*
X12065940Y-11541246D01*
X12084988Y-11512674D01*
X12094511Y-11493627D01*
X12104035Y-11465055D01*
X12113559Y-11417436D01*
X12113559Y-11379341D01*
X12104035Y-11331722D01*
X12094511Y-11303151D01*
X12084988Y-11284103D01*
X12065940Y-11255532D01*
X12056416Y-11246008D01*
D15*
X7271121Y-11680432D02*
X7271121Y-11615774D01*
X7206462Y-11615774D01*
X7206462Y-11680432D01*
X7271121Y-11680432D01*
D11*
X7580226Y-11538579D02*
X7599273Y-11538579D01*
X7618321Y-11548103D01*
X7627845Y-11557627D01*
X7637369Y-11576674D01*
X7646892Y-11614770D01*
X7646892Y-11662389D01*
X7637369Y-11700484D01*
X7627845Y-11719532D01*
X7618321Y-11729055D01*
X7599273Y-11738579D01*
X7580226Y-11738579D01*
X7561178Y-11729055D01*
X7551654Y-11719532D01*
X7542131Y-11700484D01*
X7532607Y-11662389D01*
X7532607Y-11614770D01*
X7542131Y-11576674D01*
X7551654Y-11557627D01*
X7561178Y-11548103D01*
X7580226Y-11538579D01*
X7732607Y-11719532D02*
X7742131Y-11729055D01*
X7732607Y-11738579D01*
X7723083Y-11729055D01*
X7732607Y-11719532D01*
X7732607Y-11738579D01*
X7837369Y-11738579D02*
X7875464Y-11738579D01*
X7894512Y-11729055D01*
X7904035Y-11719532D01*
X7923083Y-11690960D01*
X7932607Y-11652865D01*
X7932607Y-11576674D01*
X7923083Y-11557627D01*
X7913559Y-11548103D01*
X7894512Y-11538579D01*
X7856416Y-11538579D01*
X7837369Y-11548103D01*
X7827845Y-11557627D01*
X7818321Y-11576674D01*
X7818321Y-11624293D01*
X7827845Y-11643341D01*
X7837369Y-11652865D01*
X7856416Y-11662389D01*
X7894512Y-11662389D01*
X7913559Y-11652865D01*
X7923083Y-11643341D01*
X7932607Y-11624293D01*
X8123083Y-11738579D02*
X8008797Y-11738579D01*
X8065940Y-11738579D02*
X8065940Y-11538579D01*
X8046892Y-11567151D01*
X8027845Y-11586198D01*
X8008797Y-11595722D01*
X8294512Y-11605246D02*
X8294512Y-11738579D01*
X8246892Y-11529055D02*
X8199273Y-11671913D01*
X8323083Y-11671913D01*
X8399274Y-11738579D02*
X8399274Y-11605246D01*
X8399274Y-11624293D02*
X8408797Y-11614770D01*
X8427845Y-11605246D01*
X8456416Y-11605246D01*
X8475464Y-11614770D01*
X8484988Y-11633817D01*
X8484988Y-11738579D01*
X8484988Y-11633817D02*
X8494512Y-11614770D01*
X8513559Y-11605246D01*
X8542131Y-11605246D01*
X8561178Y-11614770D01*
X8570702Y-11633817D01*
X8570702Y-11738579D01*
X8665940Y-11738579D02*
X8665940Y-11605246D01*
X8665940Y-11624293D02*
X8675464Y-11614770D01*
X8694512Y-11605246D01*
X8723083Y-11605246D01*
X8742131Y-11614770D01*
X8751654Y-11633817D01*
X8751654Y-11738579D01*
X8751654Y-11633817D02*
X8761178Y-11614770D01*
X8780226Y-11605246D01*
X8808797Y-11605246D01*
X8827845Y-11614770D01*
X8837369Y-11633817D01*
X8837369Y-11738579D01*
X9227845Y-11529055D02*
X9056416Y-11786198D01*
X9484988Y-11538579D02*
X9504035Y-11538579D01*
X9523083Y-11548103D01*
X9532607Y-11557627D01*
X9542131Y-11576674D01*
X9551654Y-11614770D01*
X9551654Y-11662389D01*
X9542131Y-11700484D01*
X9532607Y-11719532D01*
X9523083Y-11729055D01*
X9504035Y-11738579D01*
X9484988Y-11738579D01*
X9465940Y-11729055D01*
X9456416Y-11719532D01*
X9446893Y-11700484D01*
X9437369Y-11662389D01*
X9437369Y-11614770D01*
X9446893Y-11576674D01*
X9456416Y-11557627D01*
X9465940Y-11548103D01*
X9484988Y-11538579D01*
X9637369Y-11719532D02*
X9646893Y-11729055D01*
X9637369Y-11738579D01*
X9627845Y-11729055D01*
X9637369Y-11719532D01*
X9637369Y-11738579D01*
X9770702Y-11538579D02*
X9789750Y-11538579D01*
X9808797Y-11548103D01*
X9818321Y-11557627D01*
X9827845Y-11576674D01*
X9837369Y-11614770D01*
X9837369Y-11662389D01*
X9827845Y-11700484D01*
X9818321Y-11719532D01*
X9808797Y-11729055D01*
X9789750Y-11738579D01*
X9770702Y-11738579D01*
X9751654Y-11729055D01*
X9742131Y-11719532D01*
X9732607Y-11700484D01*
X9723083Y-11662389D01*
X9723083Y-11614770D01*
X9732607Y-11576674D01*
X9742131Y-11557627D01*
X9751654Y-11548103D01*
X9770702Y-11538579D01*
X9904035Y-11538579D02*
X10027845Y-11538579D01*
X9961178Y-11614770D01*
X9989750Y-11614770D01*
X10008797Y-11624293D01*
X10018321Y-11633817D01*
X10027845Y-11652865D01*
X10027845Y-11700484D01*
X10018321Y-11719532D01*
X10008797Y-11729055D01*
X9989750Y-11738579D01*
X9932607Y-11738579D01*
X9913559Y-11729055D01*
X9904035Y-11719532D01*
X10199274Y-11538579D02*
X10161178Y-11538579D01*
X10142131Y-11548103D01*
X10132607Y-11557627D01*
X10113559Y-11586198D01*
X10104035Y-11624293D01*
X10104035Y-11700484D01*
X10113559Y-11719532D01*
X10123083Y-11729055D01*
X10142131Y-11738579D01*
X10180226Y-11738579D01*
X10199274Y-11729055D01*
X10208797Y-11719532D01*
X10218321Y-11700484D01*
X10218321Y-11652865D01*
X10208797Y-11633817D01*
X10199274Y-11624293D01*
X10180226Y-11614770D01*
X10142131Y-11614770D01*
X10123083Y-11624293D01*
X10113559Y-11633817D01*
X10104035Y-11652865D01*
X10342131Y-11538579D02*
X10361178Y-11538579D01*
X10380226Y-11548103D01*
X10389750Y-11557627D01*
X10399274Y-11576674D01*
X10408797Y-11614770D01*
X10408797Y-11662389D01*
X10399274Y-11700484D01*
X10389750Y-11719532D01*
X10380226Y-11729055D01*
X10361178Y-11738579D01*
X10342131Y-11738579D01*
X10323083Y-11729055D01*
X10313559Y-11719532D01*
X10304035Y-11700484D01*
X10294512Y-11662389D01*
X10294512Y-11614770D01*
X10304035Y-11576674D01*
X10313559Y-11557627D01*
X10323083Y-11548103D01*
X10342131Y-11538579D01*
X10484988Y-11538579D02*
X10484988Y-11576674D01*
X10561178Y-11538579D02*
X10561178Y-11576674D01*
X10856416Y-11814770D02*
X10846893Y-11805246D01*
X10827845Y-11776674D01*
X10818321Y-11757627D01*
X10808797Y-11729055D01*
X10799274Y-11681436D01*
X10799274Y-11643341D01*
X10808797Y-11595722D01*
X10818321Y-11567151D01*
X10827845Y-11548103D01*
X10846893Y-11519532D01*
X10856416Y-11510008D01*
X10961178Y-11624293D02*
X10942131Y-11614770D01*
X10932607Y-11605246D01*
X10923083Y-11586198D01*
X10923083Y-11576674D01*
X10932607Y-11557627D01*
X10942131Y-11548103D01*
X10961178Y-11538579D01*
X10999274Y-11538579D01*
X11018321Y-11548103D01*
X11027845Y-11557627D01*
X11037369Y-11576674D01*
X11037369Y-11586198D01*
X11027845Y-11605246D01*
X11018321Y-11614770D01*
X10999274Y-11624293D01*
X10961178Y-11624293D01*
X10942131Y-11633817D01*
X10932607Y-11643341D01*
X10923083Y-11662389D01*
X10923083Y-11700484D01*
X10932607Y-11719532D01*
X10942131Y-11729055D01*
X10961178Y-11738579D01*
X10999274Y-11738579D01*
X11018321Y-11729055D01*
X11027845Y-11719532D01*
X11037369Y-11700484D01*
X11037369Y-11662389D01*
X11027845Y-11643341D01*
X11018321Y-11633817D01*
X10999274Y-11624293D01*
X11275464Y-11738579D02*
X11275464Y-11538579D01*
X11361178Y-11738579D02*
X11361178Y-11633817D01*
X11351654Y-11614770D01*
X11332607Y-11605246D01*
X11304035Y-11605246D01*
X11284988Y-11614770D01*
X11275464Y-11624293D01*
X11484988Y-11738579D02*
X11465940Y-11729055D01*
X11456416Y-11719532D01*
X11446892Y-11700484D01*
X11446892Y-11643341D01*
X11456416Y-11624293D01*
X11465940Y-11614770D01*
X11484988Y-11605246D01*
X11513559Y-11605246D01*
X11532607Y-11614770D01*
X11542131Y-11624293D01*
X11551654Y-11643341D01*
X11551654Y-11700484D01*
X11542131Y-11719532D01*
X11532607Y-11729055D01*
X11513559Y-11738579D01*
X11484988Y-11738579D01*
X11665940Y-11738579D02*
X11646892Y-11729055D01*
X11637369Y-11710008D01*
X11637369Y-11538579D01*
X11818321Y-11729055D02*
X11799273Y-11738579D01*
X11761178Y-11738579D01*
X11742131Y-11729055D01*
X11732607Y-11710008D01*
X11732607Y-11633817D01*
X11742131Y-11614770D01*
X11761178Y-11605246D01*
X11799273Y-11605246D01*
X11818321Y-11614770D01*
X11827845Y-11633817D01*
X11827845Y-11652865D01*
X11732607Y-11671913D01*
X11904035Y-11729055D02*
X11923083Y-11738579D01*
X11961178Y-11738579D01*
X11980226Y-11729055D01*
X11989750Y-11710008D01*
X11989750Y-11700484D01*
X11980226Y-11681436D01*
X11961178Y-11671913D01*
X11932607Y-11671913D01*
X11913559Y-11662389D01*
X11904035Y-11643341D01*
X11904035Y-11633817D01*
X11913559Y-11614770D01*
X11932607Y-11605246D01*
X11961178Y-11605246D01*
X11980226Y-11614770D01*
X12056416Y-11814770D02*
X12065940Y-11805246D01*
X12084988Y-11776674D01*
X12094511Y-11757627D01*
X12104035Y-11729055D01*
X12113559Y-11681436D01*
X12113559Y-11643341D01*
X12104035Y-11595722D01*
X12094511Y-11567151D01*
X12084988Y-11548103D01*
X12065940Y-11519532D01*
X12056416Y-11510008D01*
D16*
X7233512Y-11963103D02*
X7284512Y-11912103D01*
X7233512Y-11861103D01*
X7182512Y-11912103D01*
X7233512Y-11963103D01*
D11*
X7646892Y-12002579D02*
X7532607Y-12002579D01*
X7589750Y-12002579D02*
X7589750Y-11802579D01*
X7570702Y-11831151D01*
X7551654Y-11850198D01*
X7532607Y-11859722D01*
X7732607Y-11983532D02*
X7742131Y-11993055D01*
X7732607Y-12002579D01*
X7723083Y-11993055D01*
X7732607Y-11983532D01*
X7732607Y-12002579D01*
X7865940Y-11802579D02*
X7884988Y-11802579D01*
X7904035Y-11812103D01*
X7913559Y-11821627D01*
X7923083Y-11840674D01*
X7932607Y-11878770D01*
X7932607Y-11926389D01*
X7923083Y-11964484D01*
X7913559Y-11983532D01*
X7904035Y-11993055D01*
X7884988Y-12002579D01*
X7865940Y-12002579D01*
X7846892Y-11993055D01*
X7837369Y-11983532D01*
X7827845Y-11964484D01*
X7818321Y-11926389D01*
X7818321Y-11878770D01*
X7827845Y-11840674D01*
X7837369Y-11821627D01*
X7846892Y-11812103D01*
X7865940Y-11802579D01*
X8008797Y-11821627D02*
X8018321Y-11812103D01*
X8037369Y-11802579D01*
X8084988Y-11802579D01*
X8104035Y-11812103D01*
X8113559Y-11821627D01*
X8123083Y-11840674D01*
X8123083Y-11859722D01*
X8113559Y-11888293D01*
X7999273Y-12002579D01*
X8123083Y-12002579D01*
X8246892Y-11802579D02*
X8265940Y-11802579D01*
X8284988Y-11812103D01*
X8294512Y-11821627D01*
X8304035Y-11840674D01*
X8313559Y-11878770D01*
X8313559Y-11926389D01*
X8304035Y-11964484D01*
X8294512Y-11983532D01*
X8284988Y-11993055D01*
X8265940Y-12002579D01*
X8246892Y-12002579D01*
X8227845Y-11993055D01*
X8218321Y-11983532D01*
X8208797Y-11964484D01*
X8199273Y-11926389D01*
X8199273Y-11878770D01*
X8208797Y-11840674D01*
X8218321Y-11821627D01*
X8227845Y-11812103D01*
X8246892Y-11802579D01*
X8399274Y-12002579D02*
X8399274Y-11869246D01*
X8399274Y-11888293D02*
X8408797Y-11878770D01*
X8427845Y-11869246D01*
X8456416Y-11869246D01*
X8475464Y-11878770D01*
X8484988Y-11897817D01*
X8484988Y-12002579D01*
X8484988Y-11897817D02*
X8494512Y-11878770D01*
X8513559Y-11869246D01*
X8542131Y-11869246D01*
X8561178Y-11878770D01*
X8570702Y-11897817D01*
X8570702Y-12002579D01*
X8665940Y-12002579D02*
X8665940Y-11869246D01*
X8665940Y-11888293D02*
X8675464Y-11878770D01*
X8694512Y-11869246D01*
X8723083Y-11869246D01*
X8742131Y-11878770D01*
X8751654Y-11897817D01*
X8751654Y-12002579D01*
X8751654Y-11897817D02*
X8761178Y-11878770D01*
X8780226Y-11869246D01*
X8808797Y-11869246D01*
X8827845Y-11878770D01*
X8837369Y-11897817D01*
X8837369Y-12002579D01*
X9227845Y-11793055D02*
X9056416Y-12050198D01*
X9484988Y-11802579D02*
X9504035Y-11802579D01*
X9523083Y-11812103D01*
X9532607Y-11821627D01*
X9542131Y-11840674D01*
X9551654Y-11878770D01*
X9551654Y-11926389D01*
X9542131Y-11964484D01*
X9532607Y-11983532D01*
X9523083Y-11993055D01*
X9504035Y-12002579D01*
X9484988Y-12002579D01*
X9465940Y-11993055D01*
X9456416Y-11983532D01*
X9446893Y-11964484D01*
X9437369Y-11926389D01*
X9437369Y-11878770D01*
X9446893Y-11840674D01*
X9456416Y-11821627D01*
X9465940Y-11812103D01*
X9484988Y-11802579D01*
X9637369Y-11983532D02*
X9646893Y-11993055D01*
X9637369Y-12002579D01*
X9627845Y-11993055D01*
X9637369Y-11983532D01*
X9637369Y-12002579D01*
X9770702Y-11802579D02*
X9789750Y-11802579D01*
X9808797Y-11812103D01*
X9818321Y-11821627D01*
X9827845Y-11840674D01*
X9837369Y-11878770D01*
X9837369Y-11926389D01*
X9827845Y-11964484D01*
X9818321Y-11983532D01*
X9808797Y-11993055D01*
X9789750Y-12002579D01*
X9770702Y-12002579D01*
X9751654Y-11993055D01*
X9742131Y-11983532D01*
X9732607Y-11964484D01*
X9723083Y-11926389D01*
X9723083Y-11878770D01*
X9732607Y-11840674D01*
X9742131Y-11821627D01*
X9751654Y-11812103D01*
X9770702Y-11802579D01*
X10008797Y-11869246D02*
X10008797Y-12002579D01*
X9961178Y-11793055D02*
X9913559Y-11935913D01*
X10037369Y-11935913D01*
X10151654Y-11802579D02*
X10170702Y-11802579D01*
X10189750Y-11812103D01*
X10199274Y-11821627D01*
X10208797Y-11840674D01*
X10218321Y-11878770D01*
X10218321Y-11926389D01*
X10208797Y-11964484D01*
X10199274Y-11983532D01*
X10189750Y-11993055D01*
X10170702Y-12002579D01*
X10151654Y-12002579D01*
X10132607Y-11993055D01*
X10123083Y-11983532D01*
X10113559Y-11964484D01*
X10104035Y-11926389D01*
X10104035Y-11878770D01*
X10113559Y-11840674D01*
X10123083Y-11821627D01*
X10132607Y-11812103D01*
X10151654Y-11802579D01*
X10294512Y-11821627D02*
X10304035Y-11812103D01*
X10323083Y-11802579D01*
X10370702Y-11802579D01*
X10389750Y-11812103D01*
X10399274Y-11821627D01*
X10408797Y-11840674D01*
X10408797Y-11859722D01*
X10399274Y-11888293D01*
X10284988Y-12002579D01*
X10408797Y-12002579D01*
X10484988Y-11802579D02*
X10484988Y-11840674D01*
X10561178Y-11802579D02*
X10561178Y-11840674D01*
X10856416Y-12078770D02*
X10846893Y-12069246D01*
X10827845Y-12040674D01*
X10818321Y-12021627D01*
X10808797Y-11993055D01*
X10799274Y-11945436D01*
X10799274Y-11907341D01*
X10808797Y-11859722D01*
X10818321Y-11831151D01*
X10827845Y-11812103D01*
X10846893Y-11783532D01*
X10856416Y-11774008D01*
X11018321Y-11869246D02*
X11018321Y-12002579D01*
X10970702Y-11793055D02*
X10923083Y-11935913D01*
X11046893Y-11935913D01*
X11161178Y-11802579D02*
X11180226Y-11802579D01*
X11199273Y-11812103D01*
X11208797Y-11821627D01*
X11218321Y-11840674D01*
X11227845Y-11878770D01*
X11227845Y-11926389D01*
X11218321Y-11964484D01*
X11208797Y-11983532D01*
X11199273Y-11993055D01*
X11180226Y-12002579D01*
X11161178Y-12002579D01*
X11142131Y-11993055D01*
X11132607Y-11983532D01*
X11123083Y-11964484D01*
X11113559Y-11926389D01*
X11113559Y-11878770D01*
X11123083Y-11840674D01*
X11132607Y-11821627D01*
X11142131Y-11812103D01*
X11161178Y-11802579D01*
X11465940Y-12002579D02*
X11465940Y-11802579D01*
X11551654Y-12002579D02*
X11551654Y-11897817D01*
X11542131Y-11878770D01*
X11523083Y-11869246D01*
X11494511Y-11869246D01*
X11475464Y-11878770D01*
X11465940Y-11888293D01*
X11675464Y-12002579D02*
X11656416Y-11993055D01*
X11646892Y-11983532D01*
X11637369Y-11964484D01*
X11637369Y-11907341D01*
X11646892Y-11888293D01*
X11656416Y-11878770D01*
X11675464Y-11869246D01*
X11704035Y-11869246D01*
X11723083Y-11878770D01*
X11732607Y-11888293D01*
X11742131Y-11907341D01*
X11742131Y-11964484D01*
X11732607Y-11983532D01*
X11723083Y-11993055D01*
X11704035Y-12002579D01*
X11675464Y-12002579D01*
X11856416Y-12002579D02*
X11837369Y-11993055D01*
X11827845Y-11974008D01*
X11827845Y-11802579D01*
X12008797Y-11993055D02*
X11989750Y-12002579D01*
X11951654Y-12002579D01*
X11932607Y-11993055D01*
X11923083Y-11974008D01*
X11923083Y-11897817D01*
X11932607Y-11878770D01*
X11951654Y-11869246D01*
X11989750Y-11869246D01*
X12008797Y-11878770D01*
X12018321Y-11897817D01*
X12018321Y-11916865D01*
X11923083Y-11935913D01*
X12094511Y-11993055D02*
X12113559Y-12002579D01*
X12151654Y-12002579D01*
X12170702Y-11993055D01*
X12180226Y-11974008D01*
X12180226Y-11964484D01*
X12170702Y-11945436D01*
X12151654Y-11935913D01*
X12123083Y-11935913D01*
X12104035Y-11926389D01*
X12094511Y-11907341D01*
X12094511Y-11897817D01*
X12104035Y-11878770D01*
X12123083Y-11869246D01*
X12151654Y-11869246D01*
X12170702Y-11878770D01*
X12246892Y-12078770D02*
X12256416Y-12069246D01*
X12275464Y-12040674D01*
X12284988Y-12021627D01*
X12294511Y-11993055D01*
X12304035Y-11945436D01*
X12304035Y-11907341D01*
X12294511Y-11859722D01*
X12284988Y-11831151D01*
X12275464Y-11812103D01*
X12256416Y-11783532D01*
X12246892Y-11774008D01*
D17*
X7154972Y-12111333D02*
X7284512Y-12240873D01*
X7284512Y-12111333D02*
X7154972Y-12240873D01*
X7284512Y-12176103D02*
G75*
G03*
X7284512Y-12176103I-64770J0D01*
G01*
D11*
X7646892Y-12266579D02*
X7532607Y-12266579D01*
X7589750Y-12266579D02*
X7589750Y-12066579D01*
X7570702Y-12095151D01*
X7551654Y-12114198D01*
X7532607Y-12123722D01*
X7732607Y-12247532D02*
X7742131Y-12257055D01*
X7732607Y-12266579D01*
X7723083Y-12257055D01*
X7732607Y-12247532D01*
X7732607Y-12266579D01*
X7818321Y-12085627D02*
X7827845Y-12076103D01*
X7846892Y-12066579D01*
X7894512Y-12066579D01*
X7913559Y-12076103D01*
X7923083Y-12085627D01*
X7932607Y-12104674D01*
X7932607Y-12123722D01*
X7923083Y-12152293D01*
X7808797Y-12266579D01*
X7932607Y-12266579D01*
X8027845Y-12266579D02*
X8065940Y-12266579D01*
X8084988Y-12257055D01*
X8094512Y-12247532D01*
X8113559Y-12218960D01*
X8123083Y-12180865D01*
X8123083Y-12104674D01*
X8113559Y-12085627D01*
X8104035Y-12076103D01*
X8084988Y-12066579D01*
X8046892Y-12066579D01*
X8027845Y-12076103D01*
X8018321Y-12085627D01*
X8008797Y-12104674D01*
X8008797Y-12152293D01*
X8018321Y-12171341D01*
X8027845Y-12180865D01*
X8046892Y-12190389D01*
X8084988Y-12190389D01*
X8104035Y-12180865D01*
X8113559Y-12171341D01*
X8123083Y-12152293D01*
X8304035Y-12066579D02*
X8208797Y-12066579D01*
X8199273Y-12161817D01*
X8208797Y-12152293D01*
X8227845Y-12142770D01*
X8275464Y-12142770D01*
X8294512Y-12152293D01*
X8304035Y-12161817D01*
X8313559Y-12180865D01*
X8313559Y-12228484D01*
X8304035Y-12247532D01*
X8294512Y-12257055D01*
X8275464Y-12266579D01*
X8227845Y-12266579D01*
X8208797Y-12257055D01*
X8199273Y-12247532D01*
X8399274Y-12266579D02*
X8399274Y-12133246D01*
X8399274Y-12152293D02*
X8408797Y-12142770D01*
X8427845Y-12133246D01*
X8456416Y-12133246D01*
X8475464Y-12142770D01*
X8484988Y-12161817D01*
X8484988Y-12266579D01*
X8484988Y-12161817D02*
X8494512Y-12142770D01*
X8513559Y-12133246D01*
X8542131Y-12133246D01*
X8561178Y-12142770D01*
X8570702Y-12161817D01*
X8570702Y-12266579D01*
X8665940Y-12266579D02*
X8665940Y-12133246D01*
X8665940Y-12152293D02*
X8675464Y-12142770D01*
X8694512Y-12133246D01*
X8723083Y-12133246D01*
X8742131Y-12142770D01*
X8751654Y-12161817D01*
X8751654Y-12266579D01*
X8751654Y-12161817D02*
X8761178Y-12142770D01*
X8780226Y-12133246D01*
X8808797Y-12133246D01*
X8827845Y-12142770D01*
X8837369Y-12161817D01*
X8837369Y-12266579D01*
X9227845Y-12057055D02*
X9056416Y-12314198D01*
X9484988Y-12066579D02*
X9504035Y-12066579D01*
X9523083Y-12076103D01*
X9532607Y-12085627D01*
X9542131Y-12104674D01*
X9551654Y-12142770D01*
X9551654Y-12190389D01*
X9542131Y-12228484D01*
X9532607Y-12247532D01*
X9523083Y-12257055D01*
X9504035Y-12266579D01*
X9484988Y-12266579D01*
X9465940Y-12257055D01*
X9456416Y-12247532D01*
X9446893Y-12228484D01*
X9437369Y-12190389D01*
X9437369Y-12142770D01*
X9446893Y-12104674D01*
X9456416Y-12085627D01*
X9465940Y-12076103D01*
X9484988Y-12066579D01*
X9637369Y-12247532D02*
X9646893Y-12257055D01*
X9637369Y-12266579D01*
X9627845Y-12257055D01*
X9637369Y-12247532D01*
X9637369Y-12266579D01*
X9770702Y-12066579D02*
X9789750Y-12066579D01*
X9808797Y-12076103D01*
X9818321Y-12085627D01*
X9827845Y-12104674D01*
X9837369Y-12142770D01*
X9837369Y-12190389D01*
X9827845Y-12228484D01*
X9818321Y-12247532D01*
X9808797Y-12257055D01*
X9789750Y-12266579D01*
X9770702Y-12266579D01*
X9751654Y-12257055D01*
X9742131Y-12247532D01*
X9732607Y-12228484D01*
X9723083Y-12190389D01*
X9723083Y-12142770D01*
X9732607Y-12104674D01*
X9742131Y-12085627D01*
X9751654Y-12076103D01*
X9770702Y-12066579D01*
X10018321Y-12066579D02*
X9923083Y-12066579D01*
X9913559Y-12161817D01*
X9923083Y-12152293D01*
X9942131Y-12142770D01*
X9989750Y-12142770D01*
X10008797Y-12152293D01*
X10018321Y-12161817D01*
X10027845Y-12180865D01*
X10027845Y-12228484D01*
X10018321Y-12247532D01*
X10008797Y-12257055D01*
X9989750Y-12266579D01*
X9942131Y-12266579D01*
X9923083Y-12257055D01*
X9913559Y-12247532D01*
X10218321Y-12266579D02*
X10104035Y-12266579D01*
X10161178Y-12266579D02*
X10161178Y-12066579D01*
X10142131Y-12095151D01*
X10123083Y-12114198D01*
X10104035Y-12123722D01*
X10342131Y-12066579D02*
X10361178Y-12066579D01*
X10380226Y-12076103D01*
X10389750Y-12085627D01*
X10399274Y-12104674D01*
X10408797Y-12142770D01*
X10408797Y-12190389D01*
X10399274Y-12228484D01*
X10389750Y-12247532D01*
X10380226Y-12257055D01*
X10361178Y-12266579D01*
X10342131Y-12266579D01*
X10323083Y-12257055D01*
X10313559Y-12247532D01*
X10304035Y-12228484D01*
X10294512Y-12190389D01*
X10294512Y-12142770D01*
X10304035Y-12104674D01*
X10313559Y-12085627D01*
X10323083Y-12076103D01*
X10342131Y-12066579D01*
X10484988Y-12066579D02*
X10484988Y-12104674D01*
X10561178Y-12066579D02*
X10561178Y-12104674D01*
X10856416Y-12342770D02*
X10846893Y-12333246D01*
X10827845Y-12304674D01*
X10818321Y-12285627D01*
X10808797Y-12257055D01*
X10799274Y-12209436D01*
X10799274Y-12171341D01*
X10808797Y-12123722D01*
X10818321Y-12095151D01*
X10827845Y-12076103D01*
X10846893Y-12047532D01*
X10856416Y-12038008D01*
X11037369Y-12266579D02*
X10923083Y-12266579D01*
X10980226Y-12266579D02*
X10980226Y-12066579D01*
X10961178Y-12095151D01*
X10942131Y-12114198D01*
X10923083Y-12123722D01*
X11132607Y-12266579D02*
X11170702Y-12266579D01*
X11189750Y-12257055D01*
X11199273Y-12247532D01*
X11218321Y-12218960D01*
X11227845Y-12180865D01*
X11227845Y-12104674D01*
X11218321Y-12085627D01*
X11208797Y-12076103D01*
X11189750Y-12066579D01*
X11151654Y-12066579D01*
X11132607Y-12076103D01*
X11123083Y-12085627D01*
X11113559Y-12104674D01*
X11113559Y-12152293D01*
X11123083Y-12171341D01*
X11132607Y-12180865D01*
X11151654Y-12190389D01*
X11189750Y-12190389D01*
X11208797Y-12180865D01*
X11218321Y-12171341D01*
X11227845Y-12152293D01*
X11465940Y-12266579D02*
X11465940Y-12066579D01*
X11551654Y-12266579D02*
X11551654Y-12161817D01*
X11542131Y-12142770D01*
X11523083Y-12133246D01*
X11494511Y-12133246D01*
X11475464Y-12142770D01*
X11465940Y-12152293D01*
X11675464Y-12266579D02*
X11656416Y-12257055D01*
X11646892Y-12247532D01*
X11637369Y-12228484D01*
X11637369Y-12171341D01*
X11646892Y-12152293D01*
X11656416Y-12142770D01*
X11675464Y-12133246D01*
X11704035Y-12133246D01*
X11723083Y-12142770D01*
X11732607Y-12152293D01*
X11742131Y-12171341D01*
X11742131Y-12228484D01*
X11732607Y-12247532D01*
X11723083Y-12257055D01*
X11704035Y-12266579D01*
X11675464Y-12266579D01*
X11856416Y-12266579D02*
X11837369Y-12257055D01*
X11827845Y-12238008D01*
X11827845Y-12066579D01*
X12008797Y-12257055D02*
X11989750Y-12266579D01*
X11951654Y-12266579D01*
X11932607Y-12257055D01*
X11923083Y-12238008D01*
X11923083Y-12161817D01*
X11932607Y-12142770D01*
X11951654Y-12133246D01*
X11989750Y-12133246D01*
X12008797Y-12142770D01*
X12018321Y-12161817D01*
X12018321Y-12180865D01*
X11923083Y-12199913D01*
X12094511Y-12257055D02*
X12113559Y-12266579D01*
X12151654Y-12266579D01*
X12170702Y-12257055D01*
X12180226Y-12238008D01*
X12180226Y-12228484D01*
X12170702Y-12209436D01*
X12151654Y-12199913D01*
X12123083Y-12199913D01*
X12104035Y-12190389D01*
X12094511Y-12171341D01*
X12094511Y-12161817D01*
X12104035Y-12142770D01*
X12123083Y-12133246D01*
X12151654Y-12133246D01*
X12170702Y-12142770D01*
X12246892Y-12342770D02*
X12256416Y-12333246D01*
X12275464Y-12304674D01*
X12284988Y-12285627D01*
X12294511Y-12257055D01*
X12304035Y-12209436D01*
X12304035Y-12171341D01*
X12294511Y-12123722D01*
X12284988Y-12095151D01*
X12275464Y-12076103D01*
X12256416Y-12047532D01*
X12246892Y-12038008D01*
X7084512Y-12340103D02*
X7284512Y-12540103D01*
X7284512Y-12340103D02*
X7084512Y-12540103D01*
X7184512Y-12340103D02*
X7184512Y-12540103D01*
X7084512Y-12440103D02*
X7284512Y-12440103D01*
X7523083Y-12330579D02*
X7646892Y-12330579D01*
X7580226Y-12406770D01*
X7608797Y-12406770D01*
X7627845Y-12416293D01*
X7637369Y-12425817D01*
X7646892Y-12444865D01*
X7646892Y-12492484D01*
X7637369Y-12511532D01*
X7627845Y-12521055D01*
X7608797Y-12530579D01*
X7551654Y-12530579D01*
X7532607Y-12521055D01*
X7523083Y-12511532D01*
X7732607Y-12511532D02*
X7742131Y-12521055D01*
X7732607Y-12530579D01*
X7723083Y-12521055D01*
X7732607Y-12511532D01*
X7732607Y-12530579D01*
X7865940Y-12330579D02*
X7884988Y-12330579D01*
X7904035Y-12340103D01*
X7913559Y-12349627D01*
X7923083Y-12368674D01*
X7932607Y-12406770D01*
X7932607Y-12454389D01*
X7923083Y-12492484D01*
X7913559Y-12511532D01*
X7904035Y-12521055D01*
X7884988Y-12530579D01*
X7865940Y-12530579D01*
X7846892Y-12521055D01*
X7837369Y-12511532D01*
X7827845Y-12492484D01*
X7818321Y-12454389D01*
X7818321Y-12406770D01*
X7827845Y-12368674D01*
X7837369Y-12349627D01*
X7846892Y-12340103D01*
X7865940Y-12330579D01*
X8056416Y-12330579D02*
X8075464Y-12330579D01*
X8094512Y-12340103D01*
X8104035Y-12349627D01*
X8113559Y-12368674D01*
X8123083Y-12406770D01*
X8123083Y-12454389D01*
X8113559Y-12492484D01*
X8104035Y-12511532D01*
X8094512Y-12521055D01*
X8075464Y-12530579D01*
X8056416Y-12530579D01*
X8037369Y-12521055D01*
X8027845Y-12511532D01*
X8018321Y-12492484D01*
X8008797Y-12454389D01*
X8008797Y-12406770D01*
X8018321Y-12368674D01*
X8027845Y-12349627D01*
X8037369Y-12340103D01*
X8056416Y-12330579D01*
X8246892Y-12330579D02*
X8265940Y-12330579D01*
X8284988Y-12340103D01*
X8294512Y-12349627D01*
X8304035Y-12368674D01*
X8313559Y-12406770D01*
X8313559Y-12454389D01*
X8304035Y-12492484D01*
X8294512Y-12511532D01*
X8284988Y-12521055D01*
X8265940Y-12530579D01*
X8246892Y-12530579D01*
X8227845Y-12521055D01*
X8218321Y-12511532D01*
X8208797Y-12492484D01*
X8199273Y-12454389D01*
X8199273Y-12406770D01*
X8208797Y-12368674D01*
X8218321Y-12349627D01*
X8227845Y-12340103D01*
X8246892Y-12330579D01*
X8399274Y-12530579D02*
X8399274Y-12397246D01*
X8399274Y-12416293D02*
X8408797Y-12406770D01*
X8427845Y-12397246D01*
X8456416Y-12397246D01*
X8475464Y-12406770D01*
X8484988Y-12425817D01*
X8484988Y-12530579D01*
X8484988Y-12425817D02*
X8494512Y-12406770D01*
X8513559Y-12397246D01*
X8542131Y-12397246D01*
X8561178Y-12406770D01*
X8570702Y-12425817D01*
X8570702Y-12530579D01*
X8665940Y-12530579D02*
X8665940Y-12397246D01*
X8665940Y-12416293D02*
X8675464Y-12406770D01*
X8694512Y-12397246D01*
X8723083Y-12397246D01*
X8742131Y-12406770D01*
X8751654Y-12425817D01*
X8751654Y-12530579D01*
X8751654Y-12425817D02*
X8761178Y-12406770D01*
X8780226Y-12397246D01*
X8808797Y-12397246D01*
X8827845Y-12406770D01*
X8837369Y-12425817D01*
X8837369Y-12530579D01*
X9227845Y-12321055D02*
X9056416Y-12578198D01*
X9484988Y-12330579D02*
X9504035Y-12330579D01*
X9523083Y-12340103D01*
X9532607Y-12349627D01*
X9542131Y-12368674D01*
X9551654Y-12406770D01*
X9551654Y-12454389D01*
X9542131Y-12492484D01*
X9532607Y-12511532D01*
X9523083Y-12521055D01*
X9504035Y-12530579D01*
X9484988Y-12530579D01*
X9465940Y-12521055D01*
X9456416Y-12511532D01*
X9446893Y-12492484D01*
X9437369Y-12454389D01*
X9437369Y-12406770D01*
X9446893Y-12368674D01*
X9456416Y-12349627D01*
X9465940Y-12340103D01*
X9484988Y-12330579D01*
X9637369Y-12511532D02*
X9646893Y-12521055D01*
X9637369Y-12530579D01*
X9627845Y-12521055D01*
X9637369Y-12511532D01*
X9637369Y-12530579D01*
X9837369Y-12530579D02*
X9723083Y-12530579D01*
X9780226Y-12530579D02*
X9780226Y-12330579D01*
X9761178Y-12359151D01*
X9742131Y-12378198D01*
X9723083Y-12387722D01*
X10027845Y-12530579D02*
X9913559Y-12530579D01*
X9970702Y-12530579D02*
X9970702Y-12330579D01*
X9951654Y-12359151D01*
X9932607Y-12378198D01*
X9913559Y-12387722D01*
X10142131Y-12416293D02*
X10123083Y-12406770D01*
X10113559Y-12397246D01*
X10104035Y-12378198D01*
X10104035Y-12368674D01*
X10113559Y-12349627D01*
X10123083Y-12340103D01*
X10142131Y-12330579D01*
X10180226Y-12330579D01*
X10199274Y-12340103D01*
X10208797Y-12349627D01*
X10218321Y-12368674D01*
X10218321Y-12378198D01*
X10208797Y-12397246D01*
X10199274Y-12406770D01*
X10180226Y-12416293D01*
X10142131Y-12416293D01*
X10123083Y-12425817D01*
X10113559Y-12435341D01*
X10104035Y-12454389D01*
X10104035Y-12492484D01*
X10113559Y-12511532D01*
X10123083Y-12521055D01*
X10142131Y-12530579D01*
X10180226Y-12530579D01*
X10199274Y-12521055D01*
X10208797Y-12511532D01*
X10218321Y-12492484D01*
X10218321Y-12454389D01*
X10208797Y-12435341D01*
X10199274Y-12425817D01*
X10180226Y-12416293D01*
X10408797Y-12530579D02*
X10294512Y-12530579D01*
X10351654Y-12530579D02*
X10351654Y-12330579D01*
X10332607Y-12359151D01*
X10313559Y-12378198D01*
X10294512Y-12387722D01*
X10484988Y-12330579D02*
X10484988Y-12368674D01*
X10561178Y-12330579D02*
X10561178Y-12368674D01*
X10856416Y-12606770D02*
X10846893Y-12597246D01*
X10827845Y-12568674D01*
X10818321Y-12549627D01*
X10808797Y-12521055D01*
X10799274Y-12473436D01*
X10799274Y-12435341D01*
X10808797Y-12387722D01*
X10818321Y-12359151D01*
X10827845Y-12340103D01*
X10846893Y-12311532D01*
X10856416Y-12302008D01*
X11027845Y-12330579D02*
X10932607Y-12330579D01*
X10923083Y-12425817D01*
X10932607Y-12416293D01*
X10951654Y-12406770D01*
X10999274Y-12406770D01*
X11018321Y-12416293D01*
X11027845Y-12425817D01*
X11037369Y-12444865D01*
X11037369Y-12492484D01*
X11027845Y-12511532D01*
X11018321Y-12521055D01*
X10999274Y-12530579D01*
X10951654Y-12530579D01*
X10932607Y-12521055D01*
X10923083Y-12511532D01*
X11275464Y-12530579D02*
X11275464Y-12330579D01*
X11361178Y-12530579D02*
X11361178Y-12425817D01*
X11351654Y-12406770D01*
X11332607Y-12397246D01*
X11304035Y-12397246D01*
X11284988Y-12406770D01*
X11275464Y-12416293D01*
X11484988Y-12530579D02*
X11465940Y-12521055D01*
X11456416Y-12511532D01*
X11446892Y-12492484D01*
X11446892Y-12435341D01*
X11456416Y-12416293D01*
X11465940Y-12406770D01*
X11484988Y-12397246D01*
X11513559Y-12397246D01*
X11532607Y-12406770D01*
X11542131Y-12416293D01*
X11551654Y-12435341D01*
X11551654Y-12492484D01*
X11542131Y-12511532D01*
X11532607Y-12521055D01*
X11513559Y-12530579D01*
X11484988Y-12530579D01*
X11665940Y-12530579D02*
X11646892Y-12521055D01*
X11637369Y-12502008D01*
X11637369Y-12330579D01*
X11818321Y-12521055D02*
X11799273Y-12530579D01*
X11761178Y-12530579D01*
X11742131Y-12521055D01*
X11732607Y-12502008D01*
X11732607Y-12425817D01*
X11742131Y-12406770D01*
X11761178Y-12397246D01*
X11799273Y-12397246D01*
X11818321Y-12406770D01*
X11827845Y-12425817D01*
X11827845Y-12444865D01*
X11732607Y-12463913D01*
X11904035Y-12521055D02*
X11923083Y-12530579D01*
X11961178Y-12530579D01*
X11980226Y-12521055D01*
X11989750Y-12502008D01*
X11989750Y-12492484D01*
X11980226Y-12473436D01*
X11961178Y-12463913D01*
X11932607Y-12463913D01*
X11913559Y-12454389D01*
X11904035Y-12435341D01*
X11904035Y-12425817D01*
X11913559Y-12406770D01*
X11932607Y-12397246D01*
X11961178Y-12397246D01*
X11980226Y-12406770D01*
X12056416Y-12606770D02*
X12065940Y-12597246D01*
X12084988Y-12568674D01*
X12094511Y-12549627D01*
X12104035Y-12521055D01*
X12113559Y-12473436D01*
X12113559Y-12435341D01*
X12104035Y-12387722D01*
X12094511Y-12359151D01*
X12084988Y-12340103D01*
X12065940Y-12311532D01*
X12056416Y-12302008D01*
X7084512Y-12660103D02*
X7284512Y-12860103D01*
X7284512Y-12660103D02*
X7084512Y-12860103D01*
X7255223Y-12830814D02*
X7255223Y-12689392D01*
X7113800Y-12689392D01*
X7113800Y-12830814D01*
X7255223Y-12830814D01*
X7627845Y-12717246D02*
X7627845Y-12850579D01*
X7580226Y-12641055D02*
X7532607Y-12783913D01*
X7656416Y-12783913D01*
X7732607Y-12831532D02*
X7742131Y-12841055D01*
X7732607Y-12850579D01*
X7723083Y-12841055D01*
X7732607Y-12831532D01*
X7732607Y-12850579D01*
X7913559Y-12717246D02*
X7913559Y-12850579D01*
X7865940Y-12641055D02*
X7818321Y-12783913D01*
X7942131Y-12783913D01*
X8056416Y-12650579D02*
X8075464Y-12650579D01*
X8094512Y-12660103D01*
X8104035Y-12669627D01*
X8113559Y-12688674D01*
X8123083Y-12726770D01*
X8123083Y-12774389D01*
X8113559Y-12812484D01*
X8104035Y-12831532D01*
X8094512Y-12841055D01*
X8075464Y-12850579D01*
X8056416Y-12850579D01*
X8037369Y-12841055D01*
X8027845Y-12831532D01*
X8018321Y-12812484D01*
X8008797Y-12774389D01*
X8008797Y-12726770D01*
X8018321Y-12688674D01*
X8027845Y-12669627D01*
X8037369Y-12660103D01*
X8056416Y-12650579D01*
X8246892Y-12650579D02*
X8265940Y-12650579D01*
X8284988Y-12660103D01*
X8294512Y-12669627D01*
X8304035Y-12688674D01*
X8313559Y-12726770D01*
X8313559Y-12774389D01*
X8304035Y-12812484D01*
X8294512Y-12831532D01*
X8284988Y-12841055D01*
X8265940Y-12850579D01*
X8246892Y-12850579D01*
X8227845Y-12841055D01*
X8218321Y-12831532D01*
X8208797Y-12812484D01*
X8199273Y-12774389D01*
X8199273Y-12726770D01*
X8208797Y-12688674D01*
X8218321Y-12669627D01*
X8227845Y-12660103D01*
X8246892Y-12650579D01*
X8399274Y-12850579D02*
X8399274Y-12717246D01*
X8399274Y-12736293D02*
X8408797Y-12726770D01*
X8427845Y-12717246D01*
X8456416Y-12717246D01*
X8475464Y-12726770D01*
X8484988Y-12745817D01*
X8484988Y-12850579D01*
X8484988Y-12745817D02*
X8494512Y-12726770D01*
X8513559Y-12717246D01*
X8542131Y-12717246D01*
X8561178Y-12726770D01*
X8570702Y-12745817D01*
X8570702Y-12850579D01*
X8665940Y-12850579D02*
X8665940Y-12717246D01*
X8665940Y-12736293D02*
X8675464Y-12726770D01*
X8694512Y-12717246D01*
X8723083Y-12717246D01*
X8742131Y-12726770D01*
X8751654Y-12745817D01*
X8751654Y-12850579D01*
X8751654Y-12745817D02*
X8761178Y-12726770D01*
X8780226Y-12717246D01*
X8808797Y-12717246D01*
X8827845Y-12726770D01*
X8837369Y-12745817D01*
X8837369Y-12850579D01*
X9227845Y-12641055D02*
X9056416Y-12898198D01*
X9484988Y-12650579D02*
X9504035Y-12650579D01*
X9523083Y-12660103D01*
X9532607Y-12669627D01*
X9542131Y-12688674D01*
X9551654Y-12726770D01*
X9551654Y-12774389D01*
X9542131Y-12812484D01*
X9532607Y-12831532D01*
X9523083Y-12841055D01*
X9504035Y-12850579D01*
X9484988Y-12850579D01*
X9465940Y-12841055D01*
X9456416Y-12831532D01*
X9446893Y-12812484D01*
X9437369Y-12774389D01*
X9437369Y-12726770D01*
X9446893Y-12688674D01*
X9456416Y-12669627D01*
X9465940Y-12660103D01*
X9484988Y-12650579D01*
X9637369Y-12831532D02*
X9646893Y-12841055D01*
X9637369Y-12850579D01*
X9627845Y-12841055D01*
X9637369Y-12831532D01*
X9637369Y-12850579D01*
X9837369Y-12850579D02*
X9723083Y-12850579D01*
X9780226Y-12850579D02*
X9780226Y-12650579D01*
X9761178Y-12679151D01*
X9742131Y-12698198D01*
X9723083Y-12707722D01*
X9904035Y-12650579D02*
X10037369Y-12650579D01*
X9951654Y-12850579D01*
X10094512Y-12650579D02*
X10218321Y-12650579D01*
X10151654Y-12726770D01*
X10180226Y-12726770D01*
X10199274Y-12736293D01*
X10208797Y-12745817D01*
X10218321Y-12764865D01*
X10218321Y-12812484D01*
X10208797Y-12831532D01*
X10199274Y-12841055D01*
X10180226Y-12850579D01*
X10123083Y-12850579D01*
X10104035Y-12841055D01*
X10094512Y-12831532D01*
X10294512Y-12669627D02*
X10304035Y-12660103D01*
X10323083Y-12650579D01*
X10370702Y-12650579D01*
X10389750Y-12660103D01*
X10399274Y-12669627D01*
X10408797Y-12688674D01*
X10408797Y-12707722D01*
X10399274Y-12736293D01*
X10284988Y-12850579D01*
X10408797Y-12850579D01*
X10484988Y-12650579D02*
X10484988Y-12688674D01*
X10561178Y-12650579D02*
X10561178Y-12688674D01*
X10856416Y-12926770D02*
X10846893Y-12917246D01*
X10827845Y-12888674D01*
X10818321Y-12869627D01*
X10808797Y-12841055D01*
X10799274Y-12793436D01*
X10799274Y-12755341D01*
X10808797Y-12707722D01*
X10818321Y-12679151D01*
X10827845Y-12660103D01*
X10846893Y-12631532D01*
X10856416Y-12622008D01*
X11018321Y-12717246D02*
X11018321Y-12850579D01*
X10970702Y-12641055D02*
X10923083Y-12783913D01*
X11046893Y-12783913D01*
X11275464Y-12850579D02*
X11275464Y-12650579D01*
X11361178Y-12850579D02*
X11361178Y-12745817D01*
X11351654Y-12726770D01*
X11332607Y-12717246D01*
X11304035Y-12717246D01*
X11284988Y-12726770D01*
X11275464Y-12736293D01*
X11484988Y-12850579D02*
X11465940Y-12841055D01*
X11456416Y-12831532D01*
X11446892Y-12812484D01*
X11446892Y-12755341D01*
X11456416Y-12736293D01*
X11465940Y-12726770D01*
X11484988Y-12717246D01*
X11513559Y-12717246D01*
X11532607Y-12726770D01*
X11542131Y-12736293D01*
X11551654Y-12755341D01*
X11551654Y-12812484D01*
X11542131Y-12831532D01*
X11532607Y-12841055D01*
X11513559Y-12850579D01*
X11484988Y-12850579D01*
X11665940Y-12850579D02*
X11646892Y-12841055D01*
X11637369Y-12822008D01*
X11637369Y-12650579D01*
X11818321Y-12841055D02*
X11799273Y-12850579D01*
X11761178Y-12850579D01*
X11742131Y-12841055D01*
X11732607Y-12822008D01*
X11732607Y-12745817D01*
X11742131Y-12726770D01*
X11761178Y-12717246D01*
X11799273Y-12717246D01*
X11818321Y-12726770D01*
X11827845Y-12745817D01*
X11827845Y-12764865D01*
X11732607Y-12783913D01*
X11904035Y-12841055D02*
X11923083Y-12850579D01*
X11961178Y-12850579D01*
X11980226Y-12841055D01*
X11989750Y-12822008D01*
X11989750Y-12812484D01*
X11980226Y-12793436D01*
X11961178Y-12783913D01*
X11932607Y-12783913D01*
X11913559Y-12774389D01*
X11904035Y-12755341D01*
X11904035Y-12745817D01*
X11913559Y-12726770D01*
X11932607Y-12717246D01*
X11961178Y-12717246D01*
X11980226Y-12726770D01*
X12056416Y-12926770D02*
X12065940Y-12917246D01*
X12084988Y-12888674D01*
X12094511Y-12869627D01*
X12104035Y-12841055D01*
X12113559Y-12793436D01*
X12113559Y-12755341D01*
X12104035Y-12707722D01*
X12094511Y-12679151D01*
X12084988Y-12660103D01*
X12065940Y-12631532D01*
X12056416Y-12622008D01*
M02*
