M48
; DRILL file {KiCad (6.0.10)} date Mon Jan  8 08:39:42 2024
; FORMAT={-:-/ absolute / inch / decimal}
; #@! TF.CreationDate,2024-01-08T08:39:42-08:00
; #@! TF.GenerationSoftware,Kicad,Pcbnew,(6.0.10)
; #@! TF.FileFunction,Plated,1,2,PTH
FMAT,2
INCH
; #@! TA.AperFunction,Plated,PTH,ViaDrill
T1C0.0157
; #@! TA.AperFunction,Plated,PTH,ComponentDrill
T2C0.0295
; #@! TA.AperFunction,Plated,PTH,ComponentDrill
T3C0.0350
; #@! TA.AperFunction,Plated,PTH,ComponentDrill
T4C0.0360
; #@! TA.AperFunction,Plated,PTH,ComponentDrill
T5C0.0402
; #@! TA.AperFunction,Plated,PTH,ComponentDrill
T6C0.0510
; #@! TA.AperFunction,Plated,PTH,ViaDrill
T7C0.1181
; #@! TA.AperFunction,Plated,PTH,ViaDrill
T8C0.1732
%
G90
G05
T1
X3.354Y-2.922
X3.476Y-2.724
X3.554Y-2.452
X3.928Y-3.024
X4.124Y-2.844
X4.18Y-2.545
X4.288Y-3.608
X4.69Y-2.3
X4.7Y-2.844
X4.7008Y-2.6641
X4.704Y-3.04
T2
X6.874Y-3.112
X6.874Y-3.162
X6.874Y-3.212
X7.194Y-3.112
X7.194Y-3.162
X7.194Y-3.212
X7.8522Y-2.9639
X7.8522Y-3.0139
X7.8522Y-3.0639
X8.1063Y-2.9645
X8.1063Y-3.0145
X8.1063Y-3.0645
X8.606Y-2.6438
X8.606Y-2.888
X8.656Y-2.6438
X8.656Y-2.888
X8.706Y-2.6438
X8.706Y-2.888
T3
X4.5366Y-3.4004
X4.8194Y-3.1176
X7.378Y-2.9
X7.378Y-3.3
T4
X4.595Y-2.03
X4.795Y-2.03
X6.05Y-1.693
X6.05Y-1.893
X6.736Y-1.834
X6.822Y-2.403
X6.822Y-2.603
X6.8774Y-1.6926
T5
X4.49Y-3.68
X4.49Y-3.78
X4.59Y-3.68
X4.59Y-3.78
X4.69Y-3.68
X4.69Y-3.78
X4.79Y-3.68
X4.79Y-3.78
X4.89Y-3.68
X4.89Y-3.78
X4.99Y-3.68
X4.99Y-3.78
X5.09Y-3.68
X5.09Y-3.78
X5.19Y-3.68
X5.19Y-3.78
X5.29Y-3.68
X5.29Y-3.78
X5.39Y-3.68
X5.39Y-3.78
X5.49Y-3.68
X5.49Y-3.78
X5.59Y-3.68
X5.59Y-3.78
X5.69Y-3.68
X5.69Y-3.78
X5.79Y-3.68
X5.79Y-3.78
X5.89Y-3.68
X5.89Y-3.78
X5.99Y-3.68
X5.99Y-3.78
X6.09Y-3.68
X6.09Y-3.78
X6.19Y-3.68
X6.19Y-3.78
X6.29Y-3.68
X6.29Y-3.78
X6.39Y-3.68
X6.39Y-3.78
T6
X3.155Y-3.4096
X3.155Y-3.6065
X3.155Y-3.8034
X4.3196Y-1.54
X4.5165Y-1.54
X4.7134Y-1.54
X5.9884Y-2.9054
X5.9884Y-3.3266
X6.2836Y-2.9054
X6.2836Y-3.3266
X7.6896Y-1.56
X7.8865Y-1.56
X8.0834Y-1.56
X8.63Y-1.9766
X8.63Y-2.1735
X8.63Y-2.3704
X8.63Y-3.2566
X8.63Y-3.4535
X8.63Y-3.6504
T7
X3.67Y-2.416
X4.34Y-2.52
X4.362Y-3.346
X6.484Y-3.326
X8.034Y-2.318
T8
X3.72Y-2.012
X4.05Y-3.78
X7.334Y-3.772
X7.34Y-1.876
T0
M30
