%TF.GenerationSoftware,KiCad,Pcbnew,(6.0.10)*%
%TF.CreationDate,2023-12-09T12:58:45-08:00*%
%TF.ProjectId,windchargecontroller,77696e64-6368-4617-9267-65636f6e7472,rev?*%
%TF.SameCoordinates,Original*%
%TF.FileFunction,Paste,Top*%
%TF.FilePolarity,Positive*%
%FSLAX46Y46*%
G04 Gerber Fmt 4.6, Leading zero omitted, Abs format (unit mm)*
G04 Created by KiCad (PCBNEW (6.0.10)) date 2023-12-09 12:58:45*
%MOMM*%
%LPD*%
G01*
G04 APERTURE LIST*
%ADD10R,1.530000X2.720000*%
%ADD11R,1.105598X1.599997*%
%ADD12R,0.914400X2.413000*%
%ADD13R,5.359400X6.070600*%
%ADD14R,2.720000X1.530000*%
%ADD15R,0.610000X1.270000*%
%ADD16R,3.910000X3.810000*%
%ADD17R,0.610000X1.020000*%
%ADD18R,0.703200X1.700000*%
%ADD19R,1.700000X0.703200*%
%ADD20R,1.599997X1.105598*%
%ADD21R,1.270000X0.610000*%
%ADD22R,3.810000X3.910000*%
%ADD23R,1.020000X0.610000*%
%ADD24R,0.853200X1.750000*%
G04 APERTURE END LIST*
D10*
%TO.C,C9*%
X138186400Y-52777200D03*
X140868400Y-52777200D03*
%TD*%
%TO.C,C8*%
X138186400Y-47697200D03*
X140868400Y-47697200D03*
%TD*%
D11*
%TO.C,R6*%
X126725992Y-62940996D03*
X123920396Y-62940996D03*
%TD*%
D12*
%TO.C,D4*%
X155143200Y-67894200D03*
D13*
X157429200Y-59842400D03*
D12*
X159715200Y-67894200D03*
%TD*%
%TO.C,D1*%
X94361000Y-91372300D03*
D13*
X96647000Y-83320500D03*
D12*
X98933000Y-91372300D03*
%TD*%
D10*
%TO.C,C5*%
X138237200Y-63347600D03*
X140919200Y-63347600D03*
%TD*%
%TO.C,C12*%
X203757200Y-81888000D03*
X201075200Y-81888000D03*
%TD*%
D12*
%TO.C,D5*%
X197967600Y-47332900D03*
D13*
X195681600Y-55384700D03*
D12*
X193395600Y-47332900D03*
%TD*%
D14*
%TO.C,C13*%
X214985600Y-75285600D03*
X214985600Y-72603600D03*
%TD*%
D15*
%TO.C,Q1*%
X106045000Y-85921000D03*
X104775000Y-85921000D03*
X103505000Y-85921000D03*
X102235000Y-85921000D03*
D16*
X104140000Y-89281000D03*
D17*
X104775000Y-91386000D03*
X102235000Y-91386000D03*
X103505000Y-91386000D03*
X106045000Y-91386000D03*
%TD*%
D18*
%TO.C,R10*%
X183029800Y-39624000D03*
X186083000Y-39624000D03*
%TD*%
D10*
%TO.C,C7*%
X138186400Y-42617200D03*
X140868400Y-42617200D03*
%TD*%
%TO.C,C10*%
X145877400Y-58267600D03*
X148559400Y-58267600D03*
%TD*%
D11*
%TO.C,R5*%
X126725992Y-67653002D03*
X123920396Y-67653002D03*
%TD*%
D15*
%TO.C,Q2*%
X110617000Y-67531400D03*
X109347000Y-67531400D03*
X108077000Y-67531400D03*
X106807000Y-67531400D03*
D17*
X106807000Y-72996400D03*
X108077000Y-72996400D03*
X110617000Y-72996400D03*
X109347000Y-72996400D03*
D16*
X108712000Y-70891400D03*
%TD*%
D11*
%TO.C,R4*%
X126725992Y-72557957D03*
X123920396Y-72557957D03*
%TD*%
D12*
%TO.C,D6*%
X206349600Y-47307500D03*
D13*
X204063600Y-55359300D03*
D12*
X201777600Y-47307500D03*
%TD*%
D19*
%TO.C,R7*%
X129159000Y-41907400D03*
X129159000Y-44960600D03*
%TD*%
D18*
%TO.C,R2*%
X94355800Y-76454000D03*
X97409000Y-76454000D03*
%TD*%
D19*
%TO.C,R1*%
X94361000Y-98300600D03*
X94361000Y-95247400D03*
%TD*%
%TO.C,R11*%
X194919600Y-74927400D03*
X194919600Y-77980600D03*
%TD*%
D15*
%TO.C,Q3*%
X94488000Y-64267500D03*
X93218000Y-64267500D03*
X91948000Y-64267500D03*
X90678000Y-64267500D03*
D17*
X94488000Y-69732500D03*
X90678000Y-69732500D03*
X91948000Y-69732500D03*
X93218000Y-69732500D03*
D16*
X92583000Y-67627500D03*
%TD*%
D12*
%TO.C,D3*%
X83058000Y-69900800D03*
D13*
X85344000Y-61849000D03*
D12*
X87630000Y-69900800D03*
%TD*%
D19*
%TO.C,R3*%
X83058000Y-77218600D03*
X83058000Y-74165400D03*
%TD*%
D10*
%TO.C,C4*%
X138237200Y-58267600D03*
X140919200Y-58267600D03*
%TD*%
D20*
%TO.C,R8*%
X169473200Y-78810402D03*
X169473200Y-81615998D03*
%TD*%
D14*
%TO.C,C1*%
X155702000Y-85425400D03*
X155702000Y-88107400D03*
%TD*%
D10*
%TO.C,C3*%
X171978200Y-84886800D03*
X169296200Y-84886800D03*
%TD*%
D21*
%TO.C,Q6*%
X142044000Y-77851000D03*
X142044000Y-76581000D03*
X142044000Y-75311000D03*
X142044000Y-74041000D03*
D22*
X138684000Y-75946000D03*
D23*
X136579000Y-74041000D03*
X136579000Y-75311000D03*
X136579000Y-76581000D03*
X136579000Y-77851000D03*
%TD*%
D12*
%TO.C,D2*%
X98679000Y-73037700D03*
D13*
X100965000Y-64985900D03*
D12*
X103251000Y-73037700D03*
%TD*%
D10*
%TO.C,C11*%
X145877400Y-63347600D03*
X148559400Y-63347600D03*
%TD*%
%TO.C,C6*%
X138186400Y-37795200D03*
X140868400Y-37795200D03*
%TD*%
D15*
%TO.C,Q11*%
X193827400Y-67723600D03*
X195097400Y-67723600D03*
X196367400Y-67723600D03*
X197637400Y-67723600D03*
D17*
X196367400Y-62258600D03*
X195097400Y-62258600D03*
X197637400Y-62258600D03*
X193827400Y-62258600D03*
D16*
X195732400Y-64363600D03*
%TD*%
D15*
%TO.C,Q12*%
X202209400Y-67795600D03*
X203479400Y-67795600D03*
X204749400Y-67795600D03*
X206019400Y-67795600D03*
D17*
X204749400Y-62330600D03*
X206019400Y-62330600D03*
D16*
X204114400Y-64435600D03*
D17*
X203479400Y-62330600D03*
X202209400Y-62330600D03*
%TD*%
D19*
%TO.C,R12*%
X210820000Y-64264600D03*
X210820000Y-61211400D03*
%TD*%
D24*
%TO.C,R9*%
X148543400Y-52781200D03*
X145690200Y-52781200D03*
%TD*%
M02*
