  0
SECTION
  2
HEADER
  9
$ANGBASE
  50
0.0
  9
$ANGDIR
  70
1
  9
$MEASUREMENT
  70
0
  0
ENDSEC
  0
SECTION
  2
TABLES
  0
TABLE
  2
LTYPE
  70
4
  0
LTYPE
  5
40F
  2
CONTINUOUS
  70
0
  3
Solid line
  72
65
  73
0
  40
0.0
  0
LTYPE
  5
410
  2
DASHDOT
 70
0
  3
Dash Dot ____ _ ____ _
 72
65
 73
4
 40
2.0
 49
1.25
 49
-0.25
 49
0.25
 49
-0.25
  0
LTYPE
  5
411
  2
DASHED
 70
0
  3
Dashed __ __ __ __ __
 72
65
 73
2
 40
0.75
 49
0.5
 49
-0.25
  0
LTYPE
  5
43B
  2
DOTTED
 70
0
  3
Dotted .  .  .  .
 72
65
 73
2
 40
0.2
 49
0.0
 49
-0.2
  0
ENDTAB
  0
TABLE
  2
STYLE
  70
4
  0
STYLE
  2
KICAD
  70
0
  40
0
  41
1
  42
1
  50
0
  71
0
  3
isocp.shx
  0
STYLE
  2
KICADB
  70
0
  40
0
  41
1
  42
1
  50
0
  71
0
  3
isocp.shx
  0
STYLE
  2
KICADI
  70
0
  40
0
  41
1
  42
1
  50
15
  71
0
  3
isocp.shx
  0
STYLE
  2
KICADBI
  70
0
  40
0
  41
1
  42
1
  50
15
  71
0
  3
isocp.shx
  0
ENDTAB
  0
TABLE
  2
LAYER
  70
1
  0
LAYER
  2
BLACK
  70
0
  62
7
  6
CONTINUOUS
  0
ENDTAB
  0
ENDSEC
  0
SECTION
  2
ENTITIES
0
LINE
8
BLACK
6
CONTINUOUS
10
3.7484645669291337
20
-3.8839448818897635
11
3.6815354330708661
21
-3.8839448818897635
0
LINE
8
BLACK
6
CONTINUOUS
10
3.6815354330708661
20
-3.8839448818897635
11
3.6815354330708661
21
-3.8562598425196848
0
LINE
8
BLACK
6
CONTINUOUS
10
3.6815354330708661
20
-3.8562598425196848
11
3.7484645669291337
21
-3.8562598425196848
0
LINE
8
BLACK
6
CONTINUOUS
10
3.7484645669291337
20
-3.8562598425196848
11
3.7484645669291337
21
-3.8839448818897635
0
LINE
8
BLACK
6
CONTINUOUS
10
3.7484645669291337
20
-3.7637401574803149
11
3.6815354330708661
21
-3.7637401574803149
0
LINE
8
BLACK
6
CONTINUOUS
10
3.6815354330708661
20
-3.7637401574803149
11
3.6815354330708661
21
-3.7360551181102362
0
LINE
8
BLACK
6
CONTINUOUS
10
3.6815354330708661
20
-3.7360551181102362
11
3.7484645669291337
21
-3.7360551181102362
0
LINE
8
BLACK
6
CONTINUOUS
10
3.7484645669291337
20
-3.7360551181102362
11
3.7484645669291337
21
-3.7637401574803149
0
LINE
8
BLACK
6
CONTINUOUS
10
4.2329685039370082
20
-3.572795275590551
11
4.2430078740157482
21
-3.572795275590551
0
LINE
8
BLACK
6
CONTINUOUS
10
4.2430078740157482
20
-3.572795275590551
11
4.2430078740157482
21
-3.6129527559055119
0
LINE
8
BLACK
6
CONTINUOUS
10
4.2430078740157482
20
-3.6129527559055119
11
4.2189921259842516
21
-3.6129527559055119
0
LINE
8
BLACK
6
CONTINUOUS
10
4.2189921259842516
20
-3.6129527559055119
11
4.2189921259842516
21
-3.585
0
LINE
8
BLACK
6
CONTINUOUS
10
4.2189921259842516
20
-3.585
11
4.1930078740157484
21
-3.585
0
LINE
8
BLACK
6
CONTINUOUS
10
4.1930078740157484
20
-3.585
11
4.1930078740157484
21
-3.6129527559055119
0
LINE
8
BLACK
6
CONTINUOUS
10
4.1930078740157484
20
-3.6129527559055119
11
4.1689921259842517
21
-3.6129527559055119
0
LINE
8
BLACK
6
CONTINUOUS
10
4.1689921259842517
20
-3.6129527559055119
11
4.1689921259842517
21
-3.585
0
LINE
8
BLACK
6
CONTINUOUS
10
4.1689921259842517
20
-3.585
11
4.1430078740157477
21
-3.585
0
LINE
8
BLACK
6
CONTINUOUS
10
4.1430078740157477
20
-3.585
11
4.1430078740157477
21
-3.6129527559055119
0
LINE
8
BLACK
6
CONTINUOUS
10
4.1430078740157477
20
-3.6129527559055119
11
4.1189921259842519
21
-3.6129527559055119
0
LINE
8
BLACK
6
CONTINUOUS
10
4.1189921259842519
20
-3.6129527559055119
11
4.1189921259842519
21
-3.585
0
LINE
8
BLACK
6
CONTINUOUS
10
4.1189921259842519
20
-3.585
11
4.0930078740157478
21
-3.585
0
LINE
8
BLACK
6
CONTINUOUS
10
4.0930078740157478
20
-3.585
11
4.0930078740157478
21
-3.6129527559055119
0
LINE
8
BLACK
6
CONTINUOUS
10
4.0930078740157478
20
-3.6129527559055119
11
4.0689921259842521
21
-3.6129527559055119
0
LINE
8
BLACK
6
CONTINUOUS
10
4.0689921259842521
20
-3.6129527559055119
11
4.0689921259842521
21
-3.572795275590551
0
LINE
8
BLACK
6
CONTINUOUS
10
4.0689921259842521
20
-3.572795275590551
11
4.0790314960629921
21
-3.572795275590551
0
LINE
8
BLACK
6
CONTINUOUS
10
4.0790314960629921
20
-3.572795275590551
11
4.0790314960629921
21
-3.4350000000000001
0
LINE
8
BLACK
6
CONTINUOUS
10
4.0790314960629921
20
-3.4350000000000001
11
4.2329685039370082
21
-3.4350000000000001
0
LINE
8
BLACK
6
CONTINUOUS
10
4.2329685039370082
20
-3.4350000000000001
11
4.2329685039370082
21
-3.572795275590551
0
LINE
8
BLACK
6
CONTINUOUS
10
3.7340078740157479
20
-3.4892834645669288
11
3.7099921259842521
21
-3.4892834645669288
0
LINE
8
BLACK
6
CONTINUOUS
10
3.7099921259842521
20
-3.4892834645669288
11
3.7099921259842521
21
-3.439283464566929
0
LINE
8
BLACK
6
CONTINUOUS
10
3.7099921259842521
20
-3.439283464566929
11
3.7340078740157479
21
-3.439283464566929
0
LINE
8
BLACK
6
CONTINUOUS
10
3.7340078740157479
20
-3.439283464566929
11
3.7340078740157479
21
-3.4892834645669288
0
LINE
8
BLACK
6
CONTINUOUS
10
3.7840078740157481
20
-3.4892834645669288
11
3.7599921259842519
21
-3.4892834645669288
0
LINE
8
BLACK
6
CONTINUOUS
10
3.7599921259842519
20
-3.4892834645669288
11
3.7599921259842519
21
-3.439283464566929
0
LINE
8
BLACK
6
CONTINUOUS
10
3.7599921259842519
20
-3.439283464566929
11
3.7840078740157481
21
-3.439283464566929
0
LINE
8
BLACK
6
CONTINUOUS
10
3.7840078740157481
20
-3.439283464566929
11
3.7840078740157481
21
-3.4892834645669288
0
LINE
8
BLACK
6
CONTINUOUS
10
3.8340078740157479
20
-3.4892834645669288
11
3.8099921259842517
21
-3.4892834645669288
0
LINE
8
BLACK
6
CONTINUOUS
10
3.8099921259842517
20
-3.4892834645669288
11
3.8099921259842517
21
-3.439283464566929
0
LINE
8
BLACK
6
CONTINUOUS
10
3.8099921259842517
20
-3.439283464566929
11
3.8340078740157479
21
-3.439283464566929
0
LINE
8
BLACK
6
CONTINUOUS
10
3.8340078740157479
20
-3.439283464566929
11
3.8340078740157479
21
-3.4892834645669288
0
LINE
8
BLACK
6
CONTINUOUS
10
3.8840078740157478
20
-3.4892834645669288
11
3.859992125984252
21
-3.4892834645669288
0
LINE
8
BLACK
6
CONTINUOUS
10
3.859992125984252
20
-3.4892834645669288
11
3.859992125984252
21
-3.439283464566929
0
LINE
8
BLACK
6
CONTINUOUS
10
3.859992125984252
20
-3.439283464566929
11
3.8840078740157478
21
-3.439283464566929
0
LINE
8
BLACK
6
CONTINUOUS
10
3.8840078740157478
20
-3.439283464566929
11
3.8840078740157478
21
-3.4892834645669288
0
LINE
8
BLACK
6
CONTINUOUS
10
3.7340078740157479
20
-3.2570000000000001
11
3.7599921259842519
21
-3.2570000000000001
0
LINE
8
BLACK
6
CONTINUOUS
10
3.7599921259842519
20
-3.2570000000000001
11
3.7599921259842519
21
-3.2290472440944882
0
LINE
8
BLACK
6
CONTINUOUS
10
3.7599921259842519
20
-3.2290472440944882
11
3.7840078740157481
21
-3.2290472440944882
0
LINE
8
BLACK
6
CONTINUOUS
10
3.7840078740157481
20
-3.2290472440944882
11
3.7840078740157481
21
-3.2570000000000001
0
LINE
8
BLACK
6
CONTINUOUS
10
3.7840078740157481
20
-3.2570000000000001
11
3.8099921259842517
21
-3.2570000000000001
0
LINE
8
BLACK
6
CONTINUOUS
10
3.8099921259842517
20
-3.2570000000000001
11
3.8099921259842517
21
-3.2290472440944882
0
LINE
8
BLACK
6
CONTINUOUS
10
3.8099921259842517
20
-3.2290472440944882
11
3.8340078740157479
21
-3.2290472440944882
0
LINE
8
BLACK
6
CONTINUOUS
10
3.8340078740157479
20
-3.2290472440944882
11
3.8340078740157479
21
-3.2570000000000001
0
LINE
8
BLACK
6
CONTINUOUS
10
3.8340078740157479
20
-3.2570000000000001
11
3.859992125984252
21
-3.2570000000000001
0
LINE
8
BLACK
6
CONTINUOUS
10
3.859992125984252
20
-3.2570000000000001
11
3.859992125984252
21
-3.2290472440944882
0
LINE
8
BLACK
6
CONTINUOUS
10
3.859992125984252
20
-3.2290472440944882
11
3.8840078740157478
21
-3.2290472440944882
0
LINE
8
BLACK
6
CONTINUOUS
10
3.8840078740157478
20
-3.2290472440944882
11
3.8840078740157478
21
-3.2692047244094486
0
LINE
8
BLACK
6
CONTINUOUS
10
3.8840078740157478
20
-3.2692047244094486
11
3.8739685039370078
21
-3.2692047244094486
0
LINE
8
BLACK
6
CONTINUOUS
10
3.8739685039370078
20
-3.2692047244094486
11
3.8739685039370078
21
-3.407
0
LINE
8
BLACK
6
CONTINUOUS
10
3.8739685039370078
20
-3.407
11
3.7200314960629921
21
-3.407
0
LINE
8
BLACK
6
CONTINUOUS
10
3.7200314960629921
20
-3.407
11
3.7200314960629921
21
-3.2692047244094486
0
LINE
8
BLACK
6
CONTINUOUS
10
3.7200314960629921
20
-3.2692047244094486
11
3.7099921259842521
21
-3.2692047244094486
0
LINE
8
BLACK
6
CONTINUOUS
10
3.7099921259842521
20
-3.2692047244094486
11
3.7099921259842521
21
-3.2290472440944882
0
LINE
8
BLACK
6
CONTINUOUS
10
3.7099921259842521
20
-3.2290472440944882
11
3.7340078740157479
21
-3.2290472440944882
0
LINE
8
BLACK
6
CONTINUOUS
10
3.7340078740157479
20
-3.2290472440944882
11
3.7340078740157479
21
-3.2570000000000001
0
LINE
8
BLACK
6
CONTINUOUS
10
4.0930078740157478
20
-3.4027165354330706
11
4.0689921259842521
21
-3.4027165354330706
0
LINE
8
BLACK
6
CONTINUOUS
10
4.0689921259842521
20
-3.4027165354330706
11
4.0689921259842521
21
-3.3527165354330708
0
LINE
8
BLACK
6
CONTINUOUS
10
4.0689921259842521
20
-3.3527165354330708
11
4.0930078740157478
21
-3.3527165354330708
0
LINE
8
BLACK
6
CONTINUOUS
10
4.0930078740157478
20
-3.3527165354330708
11
4.0930078740157478
21
-3.4027165354330706
0
LINE
8
BLACK
6
CONTINUOUS
10
4.1430078740157477
20
-3.4027165354330706
11
4.1189921259842519
21
-3.4027165354330706
0
LINE
8
BLACK
6
CONTINUOUS
10
4.1189921259842519
20
-3.4027165354330706
11
4.1189921259842519
21
-3.3527165354330708
0
LINE
8
BLACK
6
CONTINUOUS
10
4.1189921259842519
20
-3.3527165354330708
11
4.1430078740157477
21
-3.3527165354330708
0
LINE
8
BLACK
6
CONTINUOUS
10
4.1430078740157477
20
-3.3527165354330708
11
4.1430078740157477
21
-3.4027165354330706
0
LINE
8
BLACK
6
CONTINUOUS
10
4.1930078740157484
20
-3.4027165354330706
11
4.1689921259842517
21
-3.4027165354330706
0
LINE
8
BLACK
6
CONTINUOUS
10
4.1689921259842517
20
-3.4027165354330706
11
4.1689921259842517
21
-3.3527165354330708
0
LINE
8
BLACK
6
CONTINUOUS
10
4.1689921259842517
20
-3.3527165354330708
11
4.1930078740157484
21
-3.3527165354330708
0
LINE
8
BLACK
6
CONTINUOUS
10
4.1930078740157484
20
-3.3527165354330708
11
4.1930078740157484
21
-3.4027165354330706
0
LINE
8
BLACK
6
CONTINUOUS
10
4.2430078740157482
20
-3.4027165354330706
11
4.2189921259842516
21
-3.4027165354330706
0
LINE
8
BLACK
6
CONTINUOUS
10
4.2189921259842516
20
-3.4027165354330706
11
4.2189921259842516
21
-3.3527165354330708
0
LINE
8
BLACK
6
CONTINUOUS
10
4.2189921259842516
20
-3.3527165354330708
11
4.2430078740157482
21
-3.3527165354330708
0
LINE
8
BLACK
6
CONTINUOUS
10
4.2430078740157482
20
-3.3527165354330708
11
4.2430078740157482
21
-3.4027165354330706
0
LINE
8
BLACK
6
CONTINUOUS
10
6.695322834645669
20
-3.3955433070866139
11
6.6350866141732281
21
-3.3955433070866139
0
LINE
8
BLACK
6
CONTINUOUS
10
6.6350866141732281
20
-3.3955433070866139
11
6.6350866141732281
21
-3.2884566929133858
0
LINE
8
BLACK
6
CONTINUOUS
10
6.6350866141732281
20
-3.2884566929133858
11
6.695322834645669
21
-3.2884566929133858
0
LINE
8
BLACK
6
CONTINUOUS
10
6.695322834645669
20
-3.2884566929133858
11
6.695322834645669
21
-3.3955433070866139
0
LINE
8
BLACK
6
CONTINUOUS
10
6.8009133858267719
20
-3.3955433070866139
11
6.7406771653543309
21
-3.3955433070866139
0
LINE
8
BLACK
6
CONTINUOUS
10
6.7406771653543309
20
-3.3955433070866139
11
6.7406771653543309
21
-3.2884566929133858
0
LINE
8
BLACK
6
CONTINUOUS
10
6.7406771653543309
20
-3.2884566929133858
11
6.8009133858267719
21
-3.2884566929133858
0
LINE
8
BLACK
6
CONTINUOUS
10
6.8009133858267719
20
-3.2884566929133858
11
6.8009133858267719
21
-3.3955433070866139
0
LINE
8
BLACK
6
CONTINUOUS
10
7.9464645669291336
20
-3.2774803149606297
11
7.8862283464566927
21
-3.2774803149606297
0
LINE
8
BLACK
6
CONTINUOUS
10
7.8862283464566927
20
-3.2774803149606297
11
7.8862283464566927
21
-3.1703937007874017
0
LINE
8
BLACK
6
CONTINUOUS
10
7.8862283464566927
20
-3.1703937007874017
11
7.9464645669291336
21
-3.1703937007874017
0
LINE
8
BLACK
6
CONTINUOUS
10
7.9464645669291336
20
-3.1703937007874017
11
7.9464645669291336
21
-3.2774803149606297
0
LINE
8
BLACK
6
CONTINUOUS
10
8.0520551181102356
20
-3.2774803149606297
11
7.9918188976377955
21
-3.2774803149606297
0
LINE
8
BLACK
6
CONTINUOUS
10
7.9918188976377955
20
-3.2774803149606297
11
7.9918188976377955
21
-3.1703937007874017
0
LINE
8
BLACK
6
CONTINUOUS
10
7.9918188976377955
20
-3.1703937007874017
11
8.0520551181102356
21
-3.1703937007874017
0
LINE
8
BLACK
6
CONTINUOUS
10
8.0520551181102356
20
-3.1703937007874017
11
8.0520551181102356
21
-3.2774803149606297
0
LINE
8
BLACK
6
CONTINUOUS
10
6.7036692519685035
20
-3.2349920078740158
11
6.6406772047244091
21
-3.2349920078740158
0
LINE
8
BLACK
6
CONTINUOUS
10
6.6406772047244091
20
-3.2349920078740158
11
6.6406772047244091
21
-3.191464527559055
0
LINE
8
BLACK
6
CONTINUOUS
10
6.6406772047244091
20
-3.191464527559055
11
6.7036692519685035
21
-3.191464527559055
0
LINE
8
BLACK
6
CONTINUOUS
10
6.7036692519685035
20
-3.191464527559055
11
6.7036692519685035
21
-3.2349920078740158
0
LINE
8
BLACK
6
CONTINUOUS
10
6.7036692519685035
20
-3.1245354724409449
11
6.6406772047244091
21
-3.1245354724409449
0
LINE
8
BLACK
6
CONTINUOUS
10
6.6406772047244091
20
-3.1245354724409449
11
6.6406772047244091
21
-3.0810079921259841
0
LINE
8
BLACK
6
CONTINUOUS
10
6.6406772047244091
20
-3.0810079921259841
11
6.7036692519685035
21
-3.0810079921259841
0
LINE
8
BLACK
6
CONTINUOUS
10
6.7036692519685035
20
-3.0810079921259841
11
6.7036692519685035
21
-3.1245354724409449
0
LINE
8
BLACK
6
CONTINUOUS
10
7.7074645669291337
20
-3.0839448818897637
11
7.6405354330708661
21
-3.0839448818897637
0
LINE
8
BLACK
6
CONTINUOUS
10
7.6405354330708661
20
-3.0839448818897637
11
7.6405354330708661
21
-3.056259842519685
0
LINE
8
BLACK
6
CONTINUOUS
10
7.6405354330708661
20
-3.056259842519685
11
7.7074645669291337
21
-3.056259842519685
0
LINE
8
BLACK
6
CONTINUOUS
10
7.7074645669291337
20
-3.056259842519685
11
7.7074645669291337
21
-3.0839448818897637
0
LINE
8
BLACK
6
CONTINUOUS
10
5.3972047244094483
20
-2.9130314960629922
11
5.5350000000000001
21
-2.9130314960629922
0
LINE
8
BLACK
6
CONTINUOUS
10
5.5350000000000001
20
-2.9130314960629922
11
5.5350000000000001
21
-3.0669685039370078
0
LINE
8
BLACK
6
CONTINUOUS
10
5.5350000000000001
20
-3.0669685039370078
11
5.3972047244094483
21
-3.0669685039370078
0
LINE
8
BLACK
6
CONTINUOUS
10
5.3972047244094483
20
-3.0669685039370078
11
5.3972047244094483
21
-3.0770078740157478
0
LINE
8
BLACK
6
CONTINUOUS
10
5.3972047244094483
20
-3.0770078740157478
11
5.3570472440944883
21
-3.0770078740157478
0
LINE
8
BLACK
6
CONTINUOUS
10
5.3570472440944883
20
-3.0770078740157478
11
5.3570472440944883
21
-3.0529921259842521
0
LINE
8
BLACK
6
CONTINUOUS
10
5.3570472440944883
20
-3.0529921259842521
11
5.3849999999999998
21
-3.0529921259842521
0
LINE
8
BLACK
6
CONTINUOUS
10
5.3849999999999998
20
-3.0529921259842521
11
5.3849999999999998
21
-3.027007874015748
0
LINE
8
BLACK
6
CONTINUOUS
10
5.3849999999999998
20
-3.027007874015748
11
5.3570472440944883
21
-3.027007874015748
0
LINE
8
BLACK
6
CONTINUOUS
10
5.3570472440944883
20
-3.027007874015748
11
5.3570472440944883
21
-3.0029921259842518
0
LINE
8
BLACK
6
CONTINUOUS
10
5.3570472440944883
20
-3.0029921259842518
11
5.3849999999999998
21
-3.0029921259842518
0
LINE
8
BLACK
6
CONTINUOUS
10
5.3849999999999998
20
-3.0029921259842518
11
5.3849999999999998
21
-2.9770078740157482
0
LINE
8
BLACK
6
CONTINUOUS
10
5.3849999999999998
20
-2.9770078740157482
11
5.3570472440944883
21
-2.9770078740157482
0
LINE
8
BLACK
6
CONTINUOUS
10
5.3570472440944883
20
-2.9770078740157482
11
5.3570472440944883
21
-2.952992125984252
0
LINE
8
BLACK
6
CONTINUOUS
10
5.3570472440944883
20
-2.952992125984252
11
5.3849999999999998
21
-2.952992125984252
0
LINE
8
BLACK
6
CONTINUOUS
10
5.3849999999999998
20
-2.952992125984252
11
5.3849999999999998
21
-2.9270078740157479
0
LINE
8
BLACK
6
CONTINUOUS
10
5.3849999999999998
20
-2.9270078740157479
11
5.3570472440944883
21
-2.9270078740157479
0
LINE
8
BLACK
6
CONTINUOUS
10
5.3570472440944883
20
-2.9270078740157479
11
5.3570472440944883
21
-2.9029921259842517
0
LINE
8
BLACK
6
CONTINUOUS
10
5.3570472440944883
20
-2.9029921259842517
11
5.3972047244094483
21
-2.9029921259842517
0
LINE
8
BLACK
6
CONTINUOUS
10
5.3972047244094483
20
-2.9029921259842517
11
5.3972047244094483
21
-2.9130314960629922
0
LINE
8
BLACK
6
CONTINUOUS
10
5.6172834645669294
20
-3.0770078740157478
11
5.5672834645669287
21
-3.0770078740157478
0
LINE
8
BLACK
6
CONTINUOUS
10
5.5672834645669287
20
-3.0770078740157478
11
5.5672834645669287
21
-3.0529921259842521
0
LINE
8
BLACK
6
CONTINUOUS
10
5.5672834645669287
20
-3.0529921259842521
11
5.6172834645669294
21
-3.0529921259842521
0
LINE
8
BLACK
6
CONTINUOUS
10
5.6172834645669294
20
-3.0529921259842521
11
5.6172834645669294
21
-3.0770078740157478
0
LINE
8
BLACK
6
CONTINUOUS
10
3.3034645669291338
20
-3.0539448818897639
11
3.2365354330708662
21
-3.0539448818897639
0
LINE
8
BLACK
6
CONTINUOUS
10
3.2365354330708662
20
-3.0539448818897639
11
3.2365354330708662
21
-3.0262598425196852
0
LINE
8
BLACK
6
CONTINUOUS
10
3.2365354330708662
20
-3.0262598425196852
11
3.3034645669291338
21
-3.0262598425196852
0
LINE
8
BLACK
6
CONTINUOUS
10
3.3034645669291338
20
-3.0262598425196852
11
3.3034645669291338
21
-3.0539448818897639
0
LINE
8
BLACK
6
CONTINUOUS
10
3.7286377952755902
20
-3.0434645669291336
11
3.7009527559055115
21
-3.0434645669291336
0
LINE
8
BLACK
6
CONTINUOUS
10
3.7009527559055115
20
-3.0434645669291336
11
3.7009527559055115
21
-2.976535433070866
0
LINE
8
BLACK
6
CONTINUOUS
10
3.7009527559055115
20
-2.976535433070866
11
3.7286377952755902
21
-2.976535433070866
0
LINE
8
BLACK
6
CONTINUOUS
10
3.7286377952755902
20
-2.976535433070866
11
3.7286377952755902
21
-3.0434645669291336
0
LINE
8
BLACK
6
CONTINUOUS
10
3.8488425196850393
20
-3.0434645669291336
11
3.8211574803149606
21
-3.0434645669291336
0
LINE
8
BLACK
6
CONTINUOUS
10
3.8211574803149606
20
-3.0434645669291336
11
3.8211574803149606
21
-2.976535433070866
0
LINE
8
BLACK
6
CONTINUOUS
10
3.8211574803149606
20
-2.976535433070866
11
3.8488425196850393
21
-2.976535433070866
0
LINE
8
BLACK
6
CONTINUOUS
10
3.8488425196850393
20
-2.976535433070866
11
3.8488425196850393
21
-3.0434645669291336
0
LINE
8
BLACK
6
CONTINUOUS
10
5.6172834645669294
20
-3.027007874015748
11
5.5672834645669287
21
-3.027007874015748
0
LINE
8
BLACK
6
CONTINUOUS
10
5.5672834645669287
20
-3.027007874015748
11
5.5672834645669287
21
-3.0029921259842518
0
LINE
8
BLACK
6
CONTINUOUS
10
5.5672834645669287
20
-3.0029921259842518
11
5.6172834645669294
21
-3.0029921259842518
0
LINE
8
BLACK
6
CONTINUOUS
10
5.6172834645669294
20
-3.0029921259842518
11
5.6172834645669294
21
-3.027007874015748
0
LINE
8
BLACK
6
CONTINUOUS
10
5.6172834645669294
20
-2.9770078740157482
11
5.5672834645669287
21
-2.9770078740157482
0
LINE
8
BLACK
6
CONTINUOUS
10
5.5672834645669287
20
-2.9770078740157482
11
5.5672834645669287
21
-2.952992125984252
0
LINE
8
BLACK
6
CONTINUOUS
10
5.5672834645669287
20
-2.952992125984252
11
5.6172834645669294
21
-2.952992125984252
0
LINE
8
BLACK
6
CONTINUOUS
10
5.6172834645669294
20
-2.952992125984252
11
5.6172834645669294
21
-2.9770078740157482
0
LINE
8
BLACK
6
CONTINUOUS
10
7.7074645669291337
20
-2.9637401574803151
11
7.6405354330708661
21
-2.9637401574803151
0
LINE
8
BLACK
6
CONTINUOUS
10
7.6405354330708661
20
-2.9637401574803151
11
7.6405354330708661
21
-2.9360551181102363
0
LINE
8
BLACK
6
CONTINUOUS
10
7.6405354330708661
20
-2.9360551181102363
11
7.7074645669291337
21
-2.9360551181102363
0
LINE
8
BLACK
6
CONTINUOUS
10
7.7074645669291337
20
-2.9360551181102363
11
7.7074645669291337
21
-2.9637401574803151
0
LINE
8
BLACK
6
CONTINUOUS
10
3.3034645669291338
20
-2.9337401574803148
11
3.2365354330708662
21
-2.9337401574803148
0
LINE
8
BLACK
6
CONTINUOUS
10
3.2365354330708662
20
-2.9337401574803148
11
3.2365354330708662
21
-2.9060551181102361
0
LINE
8
BLACK
6
CONTINUOUS
10
3.2365354330708662
20
-2.9060551181102361
11
3.3034645669291338
21
-2.9060551181102361
0
LINE
8
BLACK
6
CONTINUOUS
10
3.3034645669291338
20
-2.9060551181102361
11
3.3034645669291338
21
-2.9337401574803148
0
LINE
8
BLACK
6
CONTINUOUS
10
5.6172834645669294
20
-2.9270078740157479
11
5.5672834645669287
21
-2.9270078740157479
0
LINE
8
BLACK
6
CONTINUOUS
10
5.5672834645669287
20
-2.9270078740157479
11
5.5672834645669287
21
-2.9029921259842517
0
LINE
8
BLACK
6
CONTINUOUS
10
5.5672834645669287
20
-2.9029921259842517
11
5.6172834645669294
21
-2.9029921259842517
0
LINE
8
BLACK
6
CONTINUOUS
10
5.6172834645669294
20
-2.9029921259842517
11
5.6172834645669294
21
-2.9270078740157479
0
LINE
8
BLACK
6
CONTINUOUS
10
4.3569685039370079
20
-2.8537952755905511
11
4.3670078740157479
21
-2.8537952755905511
0
LINE
8
BLACK
6
CONTINUOUS
10
4.3670078740157479
20
-2.8537952755905511
11
4.3670078740157479
21
-2.8939527559055116
0
LINE
8
BLACK
6
CONTINUOUS
10
4.3670078740157479
20
-2.8939527559055116
11
4.3429921259842521
21
-2.8939527559055116
0
LINE
8
BLACK
6
CONTINUOUS
10
4.3429921259842521
20
-2.8939527559055116
11
4.3429921259842521
21
-2.8660000000000001
0
LINE
8
BLACK
6
CONTINUOUS
10
4.3429921259842521
20
-2.8660000000000001
11
4.317007874015748
21
-2.8660000000000001
0
LINE
8
BLACK
6
CONTINUOUS
10
4.317007874015748
20
-2.8660000000000001
11
4.317007874015748
21
-2.8939527559055116
0
LINE
8
BLACK
6
CONTINUOUS
10
4.317007874015748
20
-2.8939527559055116
11
4.2929921259842523
21
-2.8939527559055116
0
LINE
8
BLACK
6
CONTINUOUS
10
4.2929921259842523
20
-2.8939527559055116
11
4.2929921259842523
21
-2.8660000000000001
0
LINE
8
BLACK
6
CONTINUOUS
10
4.2929921259842523
20
-2.8660000000000001
11
4.2670078740157482
21
-2.8660000000000001
0
LINE
8
BLACK
6
CONTINUOUS
10
4.2670078740157482
20
-2.8660000000000001
11
4.2670078740157482
21
-2.8939527559055116
0
LINE
8
BLACK
6
CONTINUOUS
10
4.2670078740157482
20
-2.8939527559055116
11
4.2429921259842516
21
-2.8939527559055116
0
LINE
8
BLACK
6
CONTINUOUS
10
4.2429921259842516
20
-2.8939527559055116
11
4.2429921259842516
21
-2.8660000000000001
0
LINE
8
BLACK
6
CONTINUOUS
10
4.2429921259842516
20
-2.8660000000000001
11
4.2170078740157475
21
-2.8660000000000001
0
LINE
8
BLACK
6
CONTINUOUS
10
4.2170078740157475
20
-2.8660000000000001
11
4.2170078740157475
21
-2.8939527559055116
0
LINE
8
BLACK
6
CONTINUOUS
10
4.2170078740157475
20
-2.8939527559055116
11
4.1929921259842518
21
-2.8939527559055116
0
LINE
8
BLACK
6
CONTINUOUS
10
4.1929921259842518
20
-2.8939527559055116
11
4.1929921259842518
21
-2.8537952755905511
0
LINE
8
BLACK
6
CONTINUOUS
10
4.1929921259842518
20
-2.8537952755905511
11
4.2030314960629918
21
-2.8537952755905511
0
LINE
8
BLACK
6
CONTINUOUS
10
4.2030314960629918
20
-2.8537952755905511
11
4.2030314960629918
21
-2.7159999999999997
0
LINE
8
BLACK
6
CONTINUOUS
10
4.2030314960629918
20
-2.7159999999999997
11
4.3569685039370079
21
-2.7159999999999997
0
LINE
8
BLACK
6
CONTINUOUS
10
4.3569685039370079
20
-2.7159999999999997
11
4.3569685039370079
21
-2.8537952755905511
0
LINE
8
BLACK
6
CONTINUOUS
10
3.914007874015748
20
-2.8692834645669292
11
3.8899921259842518
21
-2.8692834645669292
0
LINE
8
BLACK
6
CONTINUOUS
10
3.8899921259842518
20
-2.8692834645669292
11
3.8899921259842518
21
-2.8192834645669289
0
LINE
8
BLACK
6
CONTINUOUS
10
3.8899921259842518
20
-2.8192834645669289
11
3.914007874015748
21
-2.8192834645669289
0
LINE
8
BLACK
6
CONTINUOUS
10
3.914007874015748
20
-2.8192834645669289
11
3.914007874015748
21
-2.8692834645669292
0
LINE
8
BLACK
6
CONTINUOUS
10
3.9640078740157478
20
-2.8692834645669292
11
3.9399921259842521
21
-2.8692834645669292
0
LINE
8
BLACK
6
CONTINUOUS
10
3.9399921259842521
20
-2.8692834645669292
11
3.9399921259842521
21
-2.8192834645669289
0
LINE
8
BLACK
6
CONTINUOUS
10
3.9399921259842521
20
-2.8192834645669289
11
3.9640078740157478
21
-2.8192834645669289
0
LINE
8
BLACK
6
CONTINUOUS
10
3.9640078740157478
20
-2.8192834645669289
11
3.9640078740157478
21
-2.8692834645669292
0
LINE
8
BLACK
6
CONTINUOUS
10
4.0140078740157481
20
-2.8692834645669292
11
3.9899921259842519
21
-2.8692834645669292
0
LINE
8
BLACK
6
CONTINUOUS
10
3.9899921259842519
20
-2.8692834645669292
11
3.9899921259842519
21
-2.8192834645669289
0
LINE
8
BLACK
6
CONTINUOUS
10
3.9899921259842519
20
-2.8192834645669289
11
4.0140078740157481
21
-2.8192834645669289
0
LINE
8
BLACK
6
CONTINUOUS
10
4.0140078740157481
20
-2.8192834645669289
11
4.0140078740157481
21
-2.8692834645669292
0
LINE
8
BLACK
6
CONTINUOUS
10
4.0640078740157479
20
-2.8692834645669292
11
4.0399921259842522
21
-2.8692834645669292
0
LINE
8
BLACK
6
CONTINUOUS
10
4.0399921259842522
20
-2.8692834645669292
11
4.0399921259842522
21
-2.8192834645669289
0
LINE
8
BLACK
6
CONTINUOUS
10
4.0399921259842522
20
-2.8192834645669289
11
4.0640078740157479
21
-2.8192834645669289
0
LINE
8
BLACK
6
CONTINUOUS
10
4.0640078740157479
20
-2.8192834645669289
11
4.0640078740157479
21
-2.8692834645669292
0
LINE
8
BLACK
6
CONTINUOUS
10
3.914007874015748
20
-2.637
11
3.9399921259842521
21
-2.637
0
LINE
8
BLACK
6
CONTINUOUS
10
3.9399921259842521
20
-2.637
11
3.9399921259842521
21
-2.6090472440944881
0
LINE
8
BLACK
6
CONTINUOUS
10
3.9399921259842521
20
-2.6090472440944881
11
3.9640078740157478
21
-2.6090472440944881
0
LINE
8
BLACK
6
CONTINUOUS
10
3.9640078740157478
20
-2.6090472440944881
11
3.9640078740157478
21
-2.637
0
LINE
8
BLACK
6
CONTINUOUS
10
3.9640078740157478
20
-2.637
11
3.9899921259842519
21
-2.637
0
LINE
8
BLACK
6
CONTINUOUS
10
3.9899921259842519
20
-2.637
11
3.9899921259842519
21
-2.6090472440944881
0
LINE
8
BLACK
6
CONTINUOUS
10
3.9899921259842519
20
-2.6090472440944881
11
4.0140078740157481
21
-2.6090472440944881
0
LINE
8
BLACK
6
CONTINUOUS
10
4.0140078740157481
20
-2.6090472440944881
11
4.0140078740157481
21
-2.637
0
LINE
8
BLACK
6
CONTINUOUS
10
4.0140078740157481
20
-2.637
11
4.0399921259842522
21
-2.637
0
LINE
8
BLACK
6
CONTINUOUS
10
4.0399921259842522
20
-2.637
11
4.0399921259842522
21
-2.6090472440944881
0
LINE
8
BLACK
6
CONTINUOUS
10
4.0399921259842522
20
-2.6090472440944881
11
4.0640078740157479
21
-2.6090472440944881
0
LINE
8
BLACK
6
CONTINUOUS
10
4.0640078740157479
20
-2.6090472440944881
11
4.0640078740157479
21
-2.6492047244094485
0
LINE
8
BLACK
6
CONTINUOUS
10
4.0640078740157479
20
-2.6492047244094485
11
4.0539685039370079
21
-2.6492047244094485
0
LINE
8
BLACK
6
CONTINUOUS
10
4.0539685039370079
20
-2.6492047244094485
11
4.0539685039370079
21
-2.7869999999999999
0
LINE
8
BLACK
6
CONTINUOUS
10
4.0539685039370079
20
-2.7869999999999999
11
3.9000314960629918
21
-2.7869999999999999
0
LINE
8
BLACK
6
CONTINUOUS
10
3.9000314960629918
20
-2.7869999999999999
11
3.9000314960629918
21
-2.6492047244094485
0
LINE
8
BLACK
6
CONTINUOUS
10
3.9000314960629918
20
-2.6492047244094485
11
3.8899921259842518
21
-2.6492047244094485
0
LINE
8
BLACK
6
CONTINUOUS
10
3.8899921259842518
20
-2.6492047244094485
11
3.8899921259842518
21
-2.6090472440944881
0
LINE
8
BLACK
6
CONTINUOUS
10
3.8899921259842518
20
-2.6090472440944881
11
3.914007874015748
21
-2.6090472440944881
0
LINE
8
BLACK
6
CONTINUOUS
10
3.914007874015748
20
-2.6090472440944881
11
3.914007874015748
21
-2.637
0
LINE
8
BLACK
6
CONTINUOUS
10
3.7219685039370076
20
-2.7252952755905513
11
3.7320078740157481
21
-2.7252952755905513
0
LINE
8
BLACK
6
CONTINUOUS
10
3.7320078740157481
20
-2.7252952755905513
11
3.7320078740157481
21
-2.7654527559055118
0
LINE
8
BLACK
6
CONTINUOUS
10
3.7320078740157481
20
-2.7654527559055118
11
3.7079921259842519
21
-2.7654527559055118
0
LINE
8
BLACK
6
CONTINUOUS
10
3.7079921259842519
20
-2.7654527559055118
11
3.7079921259842519
21
-2.7374999999999998
0
LINE
8
BLACK
6
CONTINUOUS
10
3.7079921259842519
20
-2.7374999999999998
11
3.6820078740157478
21
-2.7374999999999998
0
LINE
8
BLACK
6
CONTINUOUS
10
3.6820078740157478
20
-2.7374999999999998
11
3.6820078740157478
21
-2.7654527559055118
0
LINE
8
BLACK
6
CONTINUOUS
10
3.6820078740157478
20
-2.7654527559055118
11
3.6579921259842521
21
-2.7654527559055118
0
LINE
8
BLACK
6
CONTINUOUS
10
3.6579921259842521
20
-2.7654527559055118
11
3.6579921259842521
21
-2.7374999999999998
0
LINE
8
BLACK
6
CONTINUOUS
10
3.6579921259842521
20
-2.7374999999999998
11
3.632007874015748
21
-2.7374999999999998
0
LINE
8
BLACK
6
CONTINUOUS
10
3.632007874015748
20
-2.7374999999999998
11
3.632007874015748
21
-2.7654527559055118
0
LINE
8
BLACK
6
CONTINUOUS
10
3.632007874015748
20
-2.7654527559055118
11
3.6079921259842518
21
-2.7654527559055118
0
LINE
8
BLACK
6
CONTINUOUS
10
3.6079921259842518
20
-2.7654527559055118
11
3.6079921259842518
21
-2.7374999999999998
0
LINE
8
BLACK
6
CONTINUOUS
10
3.6079921259842518
20
-2.7374999999999998
11
3.5820078740157482
21
-2.7374999999999998
0
LINE
8
BLACK
6
CONTINUOUS
10
3.5820078740157482
20
-2.7374999999999998
11
3.5820078740157482
21
-2.7654527559055118
0
LINE
8
BLACK
6
CONTINUOUS
10
3.5820078740157482
20
-2.7654527559055118
11
3.557992125984252
21
-2.7654527559055118
0
LINE
8
BLACK
6
CONTINUOUS
10
3.557992125984252
20
-2.7654527559055118
11
3.557992125984252
21
-2.7252952755905513
0
LINE
8
BLACK
6
CONTINUOUS
10
3.557992125984252
20
-2.7252952755905513
11
3.568031496062992
21
-2.7252952755905513
0
LINE
8
BLACK
6
CONTINUOUS
10
3.568031496062992
20
-2.7252952755905513
11
3.568031496062992
21
-2.5874999999999999
0
LINE
8
BLACK
6
CONTINUOUS
10
3.568031496062992
20
-2.5874999999999999
11
3.7219685039370076
21
-2.5874999999999999
0
LINE
8
BLACK
6
CONTINUOUS
10
3.7219685039370076
20
-2.5874999999999999
11
3.7219685039370076
21
-2.7252952755905513
0
LINE
8
BLACK
6
CONTINUOUS
10
3.2750078740157478
20
-2.7452834645669291
11
3.250992125984252
21
-2.7452834645669291
0
LINE
8
BLACK
6
CONTINUOUS
10
3.250992125984252
20
-2.7452834645669291
11
3.250992125984252
21
-2.6952834645669292
0
LINE
8
BLACK
6
CONTINUOUS
10
3.250992125984252
20
-2.6952834645669292
11
3.2750078740157478
21
-2.6952834645669292
0
LINE
8
BLACK
6
CONTINUOUS
10
3.2750078740157478
20
-2.6952834645669292
11
3.2750078740157478
21
-2.7452834645669291
0
LINE
8
BLACK
6
CONTINUOUS
10
3.325007874015748
20
-2.7452834645669291
11
3.3009921259842518
21
-2.7452834645669291
0
LINE
8
BLACK
6
CONTINUOUS
10
3.3009921259842518
20
-2.7452834645669291
11
3.3009921259842518
21
-2.6952834645669292
0
LINE
8
BLACK
6
CONTINUOUS
10
3.3009921259842518
20
-2.6952834645669292
11
3.325007874015748
21
-2.6952834645669292
0
LINE
8
BLACK
6
CONTINUOUS
10
3.325007874015748
20
-2.6952834645669292
11
3.325007874015748
21
-2.7452834645669291
0
LINE
8
BLACK
6
CONTINUOUS
10
3.3750078740157479
20
-2.7452834645669291
11
3.3509921259842521
21
-2.7452834645669291
0
LINE
8
BLACK
6
CONTINUOUS
10
3.3509921259842521
20
-2.7452834645669291
11
3.3509921259842521
21
-2.6952834645669292
0
LINE
8
BLACK
6
CONTINUOUS
10
3.3509921259842521
20
-2.6952834645669292
11
3.3750078740157479
21
-2.6952834645669292
0
LINE
8
BLACK
6
CONTINUOUS
10
3.3750078740157479
20
-2.6952834645669292
11
3.3750078740157479
21
-2.7452834645669291
0
LINE
8
BLACK
6
CONTINUOUS
10
3.4250078740157481
20
-2.7452834645669291
11
3.4009921259842519
21
-2.7452834645669291
0
LINE
8
BLACK
6
CONTINUOUS
10
3.4009921259842519
20
-2.7452834645669291
11
3.4009921259842519
21
-2.6952834645669292
0
LINE
8
BLACK
6
CONTINUOUS
10
3.4009921259842519
20
-2.6952834645669292
11
3.4250078740157481
21
-2.6952834645669292
0
LINE
8
BLACK
6
CONTINUOUS
10
3.4250078740157481
20
-2.6952834645669292
11
3.4250078740157481
21
-2.7452834645669291
0
LINE
8
BLACK
6
CONTINUOUS
10
6.1259999999999994
20
-2.7204999999999999
11
6.0899999999999999
21
-2.7204999999999999
0
LINE
8
BLACK
6
CONTINUOUS
10
6.0899999999999999
20
-2.7204999999999999
11
6.0899999999999999
21
-2.6254999999999997
0
LINE
8
BLACK
6
CONTINUOUS
10
6.0899999999999999
20
-2.6254999999999997
11
6.1259999999999994
21
-2.6254999999999997
0
LINE
8
BLACK
6
CONTINUOUS
10
6.1259999999999994
20
-2.6254999999999997
11
6.1259999999999994
21
-2.7204999999999999
0
LINE
8
BLACK
6
CONTINUOUS
10
6.306
20
-2.7204999999999999
11
6.2699999999999996
21
-2.7204999999999999
0
LINE
8
BLACK
6
CONTINUOUS
10
6.2699999999999996
20
-2.7204999999999999
11
6.2699999999999996
21
-2.6254999999999997
0
LINE
8
BLACK
6
CONTINUOUS
10
6.2699999999999996
20
-2.6254999999999997
11
6.306
21
-2.6254999999999997
0
LINE
8
BLACK
6
CONTINUOUS
10
6.306
20
-2.6254999999999997
11
6.306
21
-2.7204999999999999
0
LINE
8
BLACK
6
CONTINUOUS
10
7.9730078740157477
20
-2.6941181102362206
11
7.948992125984252
21
-2.6941181102362206
0
LINE
8
BLACK
6
CONTINUOUS
10
7.948992125984252
20
-2.6941181102362206
11
7.948992125984252
21
-2.6441181102362203
0
LINE
8
BLACK
6
CONTINUOUS
10
7.948992125984252
20
-2.6441181102362203
11
7.9730078740157477
21
-2.6441181102362203
0
LINE
8
BLACK
6
CONTINUOUS
10
7.9730078740157477
20
-2.6441181102362203
11
7.9730078740157477
21
-2.6941181102362206
0
LINE
8
BLACK
6
CONTINUOUS
10
8.0230078740157484
20
-2.6941181102362206
11
7.9989921259842518
21
-2.6941181102362206
0
LINE
8
BLACK
6
CONTINUOUS
10
7.9989921259842518
20
-2.6941181102362206
11
7.9989921259842518
21
-2.6441181102362203
0
LINE
8
BLACK
6
CONTINUOUS
10
7.9989921259842518
20
-2.6441181102362203
11
8.0230078740157484
21
-2.6441181102362203
0
LINE
8
BLACK
6
CONTINUOUS
10
8.0230078740157484
20
-2.6441181102362203
11
8.0230078740157484
21
-2.6941181102362206
0
LINE
8
BLACK
6
CONTINUOUS
10
8.0730078740157474
20
-2.6941181102362206
11
8.0489921259842525
21
-2.6941181102362206
0
LINE
8
BLACK
6
CONTINUOUS
10
8.0489921259842525
20
-2.6941181102362206
11
8.0489921259842525
21
-2.6441181102362203
0
LINE
8
BLACK
6
CONTINUOUS
10
8.0489921259842525
20
-2.6441181102362203
11
8.0730078740157474
21
-2.6441181102362203
0
LINE
8
BLACK
6
CONTINUOUS
10
8.0730078740157474
20
-2.6441181102362203
11
8.0730078740157474
21
-2.6941181102362206
0
LINE
8
BLACK
6
CONTINUOUS
10
8.1230078740157481
20
-2.6941181102362206
11
8.0989921259842514
21
-2.6941181102362206
0
LINE
8
BLACK
6
CONTINUOUS
10
8.0989921259842514
20
-2.6941181102362206
11
8.0989921259842514
21
-2.6441181102362203
0
LINE
8
BLACK
6
CONTINUOUS
10
8.0989921259842514
20
-2.6441181102362203
11
8.1230078740157481
21
-2.6441181102362203
0
LINE
8
BLACK
6
CONTINUOUS
10
8.1230078740157481
20
-2.6441181102362203
11
8.1230078740157481
21
-2.6941181102362206
0
LINE
8
BLACK
6
CONTINUOUS
10
7.6430078740157477
20
-2.6912834645669292
11
7.6189921259842519
21
-2.6912834645669292
0
LINE
8
BLACK
6
CONTINUOUS
10
7.6189921259842519
20
-2.6912834645669292
11
7.6189921259842519
21
-2.641283464566929
0
LINE
8
BLACK
6
CONTINUOUS
10
7.6189921259842519
20
-2.641283464566929
11
7.6430078740157477
21
-2.641283464566929
0
LINE
8
BLACK
6
CONTINUOUS
10
7.6430078740157477
20
-2.641283464566929
11
7.6430078740157477
21
-2.6912834645669292
0
LINE
8
BLACK
6
CONTINUOUS
10
7.6930078740157475
20
-2.6912834645669292
11
7.6689921259842517
21
-2.6912834645669292
0
LINE
8
BLACK
6
CONTINUOUS
10
7.6689921259842517
20
-2.6912834645669292
11
7.6689921259842517
21
-2.641283464566929
0
LINE
8
BLACK
6
CONTINUOUS
10
7.6689921259842517
20
-2.641283464566929
11
7.6930078740157475
21
-2.641283464566929
0
LINE
8
BLACK
6
CONTINUOUS
10
7.6930078740157475
20
-2.641283464566929
11
7.6930078740157475
21
-2.6912834645669292
0
LINE
8
BLACK
6
CONTINUOUS
10
7.7430078740157482
20
-2.6912834645669292
11
7.7189921259842516
21
-2.6912834645669292
0
LINE
8
BLACK
6
CONTINUOUS
10
7.7189921259842516
20
-2.6912834645669292
11
7.7189921259842516
21
-2.641283464566929
0
LINE
8
BLACK
6
CONTINUOUS
10
7.7189921259842516
20
-2.641283464566929
11
7.7430078740157482
21
-2.641283464566929
0
LINE
8
BLACK
6
CONTINUOUS
10
7.7430078740157482
20
-2.641283464566929
11
7.7430078740157482
21
-2.6912834645669292
0
LINE
8
BLACK
6
CONTINUOUS
10
7.793007874015748
20
-2.6912834645669292
11
7.7689921259842514
21
-2.6912834645669292
0
LINE
8
BLACK
6
CONTINUOUS
10
7.7689921259842514
20
-2.6912834645669292
11
7.7689921259842514
21
-2.641283464566929
0
LINE
8
BLACK
6
CONTINUOUS
10
7.7689921259842514
20
-2.641283464566929
11
7.793007874015748
21
-2.641283464566929
0
LINE
8
BLACK
6
CONTINUOUS
10
7.793007874015748
20
-2.641283464566929
11
7.793007874015748
21
-2.6912834645669292
0
LINE
8
BLACK
6
CONTINUOUS
10
4.2170078740157475
20
-2.6837165354330708
11
4.1929921259842518
21
-2.6837165354330708
0
LINE
8
BLACK
6
CONTINUOUS
10
4.1929921259842518
20
-2.6837165354330708
11
4.1929921259842518
21
-2.6337165354330709
0
LINE
8
BLACK
6
CONTINUOUS
10
4.1929921259842518
20
-2.6337165354330709
11
4.2170078740157475
21
-2.6337165354330709
0
LINE
8
BLACK
6
CONTINUOUS
10
4.2170078740157475
20
-2.6337165354330709
11
4.2170078740157475
21
-2.6837165354330708
0
LINE
8
BLACK
6
CONTINUOUS
10
4.2670078740157482
20
-2.6837165354330708
11
4.2429921259842516
21
-2.6837165354330708
0
LINE
8
BLACK
6
CONTINUOUS
10
4.2429921259842516
20
-2.6837165354330708
11
4.2429921259842516
21
-2.6337165354330709
0
LINE
8
BLACK
6
CONTINUOUS
10
4.2429921259842516
20
-2.6337165354330709
11
4.2670078740157482
21
-2.6337165354330709
0
LINE
8
BLACK
6
CONTINUOUS
10
4.2670078740157482
20
-2.6337165354330709
11
4.2670078740157482
21
-2.6837165354330708
0
LINE
8
BLACK
6
CONTINUOUS
10
4.317007874015748
20
-2.6837165354330708
11
4.2929921259842523
21
-2.6837165354330708
0
LINE
8
BLACK
6
CONTINUOUS
10
4.2929921259842523
20
-2.6837165354330708
11
4.2929921259842523
21
-2.6337165354330709
0
LINE
8
BLACK
6
CONTINUOUS
10
4.2929921259842523
20
-2.6337165354330709
11
4.317007874015748
21
-2.6337165354330709
0
LINE
8
BLACK
6
CONTINUOUS
10
4.317007874015748
20
-2.6337165354330709
11
4.317007874015748
21
-2.6837165354330708
0
LINE
8
BLACK
6
CONTINUOUS
10
4.3670078740157479
20
-2.6837165354330708
11
4.3429921259842521
21
-2.6837165354330708
0
LINE
8
BLACK
6
CONTINUOUS
10
4.3429921259842521
20
-2.6837165354330708
11
4.3429921259842521
21
-2.6337165354330709
0
LINE
8
BLACK
6
CONTINUOUS
10
4.3429921259842521
20
-2.6337165354330709
11
4.3670078740157479
21
-2.6337165354330709
0
LINE
8
BLACK
6
CONTINUOUS
10
4.3670078740157479
20
-2.6337165354330709
11
4.3670078740157479
21
-2.6837165354330708
0
LINE
8
BLACK
6
CONTINUOUS
10
3.2750078740157478
20
-2.5129999999999999
11
3.3009921259842518
21
-2.5129999999999999
0
LINE
8
BLACK
6
CONTINUOUS
10
3.3009921259842518
20
-2.5129999999999999
11
3.3009921259842518
21
-2.485047244094488
0
LINE
8
BLACK
6
CONTINUOUS
10
3.3009921259842518
20
-2.485047244094488
11
3.325007874015748
21
-2.485047244094488
0
LINE
8
BLACK
6
CONTINUOUS
10
3.325007874015748
20
-2.485047244094488
11
3.325007874015748
21
-2.5129999999999999
0
LINE
8
BLACK
6
CONTINUOUS
10
3.325007874015748
20
-2.5129999999999999
11
3.3509921259842521
21
-2.5129999999999999
0
LINE
8
BLACK
6
CONTINUOUS
10
3.3509921259842521
20
-2.5129999999999999
11
3.3509921259842521
21
-2.485047244094488
0
LINE
8
BLACK
6
CONTINUOUS
10
3.3509921259842521
20
-2.485047244094488
11
3.3750078740157479
21
-2.485047244094488
0
LINE
8
BLACK
6
CONTINUOUS
10
3.3750078740157479
20
-2.485047244094488
11
3.3750078740157479
21
-2.5129999999999999
0
LINE
8
BLACK
6
CONTINUOUS
10
3.3750078740157479
20
-2.5129999999999999
11
3.4009921259842519
21
-2.5129999999999999
0
LINE
8
BLACK
6
CONTINUOUS
10
3.4009921259842519
20
-2.5129999999999999
11
3.4009921259842519
21
-2.485047244094488
0
LINE
8
BLACK
6
CONTINUOUS
10
3.4009921259842519
20
-2.485047244094488
11
3.4250078740157481
21
-2.485047244094488
0
LINE
8
BLACK
6
CONTINUOUS
10
3.4250078740157481
20
-2.485047244094488
11
3.4250078740157481
21
-2.5252047244094489
0
LINE
8
BLACK
6
CONTINUOUS
10
3.4250078740157481
20
-2.5252047244094489
11
3.4149685039370077
21
-2.5252047244094489
0
LINE
8
BLACK
6
CONTINUOUS
10
3.4149685039370077
20
-2.5252047244094489
11
3.4149685039370077
21
-2.6629999999999998
0
LINE
8
BLACK
6
CONTINUOUS
10
3.4149685039370077
20
-2.6629999999999998
11
3.261031496062992
21
-2.6629999999999998
0
LINE
8
BLACK
6
CONTINUOUS
10
3.261031496062992
20
-2.6629999999999998
11
3.261031496062992
21
-2.5252047244094489
0
LINE
8
BLACK
6
CONTINUOUS
10
3.261031496062992
20
-2.5252047244094489
11
3.250992125984252
21
-2.5252047244094489
0
LINE
8
BLACK
6
CONTINUOUS
10
3.250992125984252
20
-2.5252047244094489
11
3.250992125984252
21
-2.485047244094488
0
LINE
8
BLACK
6
CONTINUOUS
10
3.250992125984252
20
-2.485047244094488
11
3.2750078740157478
21
-2.485047244094488
0
LINE
8
BLACK
6
CONTINUOUS
10
3.2750078740157478
20
-2.485047244094488
11
3.2750078740157478
21
-2.5129999999999999
0
LINE
8
BLACK
6
CONTINUOUS
10
7.9730078740157477
20
-2.4618346456692914
11
7.9989921259842518
21
-2.4618346456692914
0
LINE
8
BLACK
6
CONTINUOUS
10
7.9989921259842518
20
-2.4618346456692914
11
7.9989921259842518
21
-2.4338818897637795
0
LINE
8
BLACK
6
CONTINUOUS
10
7.9989921259842518
20
-2.4338818897637795
11
8.0230078740157484
21
-2.4338818897637795
0
LINE
8
BLACK
6
CONTINUOUS
10
8.0230078740157484
20
-2.4338818897637795
11
8.0230078740157484
21
-2.4618346456692914
0
LINE
8
BLACK
6
CONTINUOUS
10
8.0230078740157484
20
-2.4618346456692914
11
8.0489921259842525
21
-2.4618346456692914
0
LINE
8
BLACK
6
CONTINUOUS
10
8.0489921259842525
20
-2.4618346456692914
11
8.0489921259842525
21
-2.4338818897637795
0
LINE
8
BLACK
6
CONTINUOUS
10
8.0489921259842525
20
-2.4338818897637795
11
8.0730078740157474
21
-2.4338818897637795
0
LINE
8
BLACK
6
CONTINUOUS
10
8.0730078740157474
20
-2.4338818897637795
11
8.0730078740157474
21
-2.4618346456692914
0
LINE
8
BLACK
6
CONTINUOUS
10
8.0730078740157474
20
-2.4618346456692914
11
8.0989921259842514
21
-2.4618346456692914
0
LINE
8
BLACK
6
CONTINUOUS
10
8.0989921259842514
20
-2.4618346456692914
11
8.0989921259842514
21
-2.4338818897637795
0
LINE
8
BLACK
6
CONTINUOUS
10
8.0989921259842514
20
-2.4338818897637795
11
8.1230078740157481
21
-2.4338818897637795
0
LINE
8
BLACK
6
CONTINUOUS
10
8.1230078740157481
20
-2.4338818897637795
11
8.1230078740157481
21
-2.47403937007874
0
LINE
8
BLACK
6
CONTINUOUS
10
8.1230078740157481
20
-2.47403937007874
11
8.1129685039370081
21
-2.47403937007874
0
LINE
8
BLACK
6
CONTINUOUS
10
8.1129685039370081
20
-2.47403937007874
11
8.1129685039370081
21
-2.6118346456692914
0
LINE
8
BLACK
6
CONTINUOUS
10
8.1129685039370081
20
-2.6118346456692914
11
7.959031496062992
21
-2.6118346456692914
0
LINE
8
BLACK
6
CONTINUOUS
10
7.959031496062992
20
-2.6118346456692914
11
7.959031496062992
21
-2.47403937007874
0
LINE
8
BLACK
6
CONTINUOUS
10
7.959031496062992
20
-2.47403937007874
11
7.948992125984252
21
-2.47403937007874
0
LINE
8
BLACK
6
CONTINUOUS
10
7.948992125984252
20
-2.47403937007874
11
7.948992125984252
21
-2.4338818897637795
0
LINE
8
BLACK
6
CONTINUOUS
10
7.948992125984252
20
-2.4338818897637795
11
7.9730078740157477
21
-2.4338818897637795
0
LINE
8
BLACK
6
CONTINUOUS
10
7.9730078740157477
20
-2.4338818897637795
11
7.9730078740157477
21
-2.4618346456692914
0
LINE
8
BLACK
6
CONTINUOUS
10
7.6430078740157477
20
-2.4590000000000001
11
7.6689921259842517
21
-2.4590000000000001
0
LINE
8
BLACK
6
CONTINUOUS
10
7.6689921259842517
20
-2.4590000000000001
11
7.6689921259842517
21
-2.4310472440944881
0
LINE
8
BLACK
6
CONTINUOUS
10
7.6689921259842517
20
-2.4310472440944881
11
7.6930078740157475
21
-2.4310472440944881
0
LINE
8
BLACK
6
CONTINUOUS
10
7.6930078740157475
20
-2.4310472440944881
11
7.6930078740157475
21
-2.4590000000000001
0
LINE
8
BLACK
6
CONTINUOUS
10
7.6930078740157475
20
-2.4590000000000001
11
7.7189921259842516
21
-2.4590000000000001
0
LINE
8
BLACK
6
CONTINUOUS
10
7.7189921259842516
20
-2.4590000000000001
11
7.7189921259842516
21
-2.4310472440944881
0
LINE
8
BLACK
6
CONTINUOUS
10
7.7189921259842516
20
-2.4310472440944881
11
7.7430078740157482
21
-2.4310472440944881
0
LINE
8
BLACK
6
CONTINUOUS
10
7.7430078740157482
20
-2.4310472440944881
11
7.7430078740157482
21
-2.4590000000000001
0
LINE
8
BLACK
6
CONTINUOUS
10
7.7430078740157482
20
-2.4590000000000001
11
7.7689921259842514
21
-2.4590000000000001
0
LINE
8
BLACK
6
CONTINUOUS
10
7.7689921259842514
20
-2.4590000000000001
11
7.7689921259842514
21
-2.4310472440944881
0
LINE
8
BLACK
6
CONTINUOUS
10
7.7689921259842514
20
-2.4310472440944881
11
7.793007874015748
21
-2.4310472440944881
0
LINE
8
BLACK
6
CONTINUOUS
10
7.793007874015748
20
-2.4310472440944881
11
7.793007874015748
21
-2.4712047244094486
0
LINE
8
BLACK
6
CONTINUOUS
10
7.793007874015748
20
-2.4712047244094486
11
7.782968503937008
21
-2.4712047244094486
0
LINE
8
BLACK
6
CONTINUOUS
10
7.782968503937008
20
-2.4712047244094486
11
7.782968503937008
21
-2.609
0
LINE
8
BLACK
6
CONTINUOUS
10
7.782968503937008
20
-2.609
11
7.6290314960629919
21
-2.609
0
LINE
8
BLACK
6
CONTINUOUS
10
7.6290314960629919
20
-2.609
11
7.6290314960629919
21
-2.4712047244094486
0
LINE
8
BLACK
6
CONTINUOUS
10
7.6290314960629919
20
-2.4712047244094486
11
7.6189921259842519
21
-2.4712047244094486
0
LINE
8
BLACK
6
CONTINUOUS
10
7.6189921259842519
20
-2.4712047244094486
11
7.6189921259842519
21
-2.4310472440944881
0
LINE
8
BLACK
6
CONTINUOUS
10
7.6189921259842519
20
-2.4310472440944881
11
7.6430078740157477
21
-2.4310472440944881
0
LINE
8
BLACK
6
CONTINUOUS
10
7.6430078740157477
20
-2.4310472440944881
11
7.6430078740157477
21
-2.4590000000000001
0
LINE
8
BLACK
6
CONTINUOUS
10
3.5820078740157482
20
-2.5552165354330709
11
3.557992125984252
21
-2.5552165354330709
0
LINE
8
BLACK
6
CONTINUOUS
10
3.557992125984252
20
-2.5552165354330709
11
3.557992125984252
21
-2.5052165354330707
0
LINE
8
BLACK
6
CONTINUOUS
10
3.557992125984252
20
-2.5052165354330707
11
3.5820078740157482
21
-2.5052165354330707
0
LINE
8
BLACK
6
CONTINUOUS
10
3.5820078740157482
20
-2.5052165354330707
11
3.5820078740157482
21
-2.5552165354330709
0
LINE
8
BLACK
6
CONTINUOUS
10
3.632007874015748
20
-2.5552165354330709
11
3.6079921259842518
21
-2.5552165354330709
0
LINE
8
BLACK
6
CONTINUOUS
10
3.6079921259842518
20
-2.5552165354330709
11
3.6079921259842518
21
-2.5052165354330707
0
LINE
8
BLACK
6
CONTINUOUS
10
3.6079921259842518
20
-2.5052165354330707
11
3.632007874015748
21
-2.5052165354330707
0
LINE
8
BLACK
6
CONTINUOUS
10
3.632007874015748
20
-2.5052165354330707
11
3.632007874015748
21
-2.5552165354330709
0
LINE
8
BLACK
6
CONTINUOUS
10
3.6820078740157478
20
-2.5552165354330709
11
3.6579921259842521
21
-2.5552165354330709
0
LINE
8
BLACK
6
CONTINUOUS
10
3.6579921259842521
20
-2.5552165354330709
11
3.6579921259842521
21
-2.5052165354330707
0
LINE
8
BLACK
6
CONTINUOUS
10
3.6579921259842521
20
-2.5052165354330707
11
3.6820078740157478
21
-2.5052165354330707
0
LINE
8
BLACK
6
CONTINUOUS
10
3.6820078740157478
20
-2.5052165354330707
11
3.6820078740157478
21
-2.5552165354330709
0
LINE
8
BLACK
6
CONTINUOUS
10
3.7320078740157481
20
-2.5552165354330709
11
3.7079921259842519
21
-2.5552165354330709
0
LINE
8
BLACK
6
CONTINUOUS
10
3.7079921259842519
20
-2.5552165354330709
11
3.7079921259842519
21
-2.5052165354330707
0
LINE
8
BLACK
6
CONTINUOUS
10
3.7079921259842519
20
-2.5052165354330707
11
3.7320078740157481
21
-2.5052165354330707
0
LINE
8
BLACK
6
CONTINUOUS
10
3.7320078740157481
20
-2.5052165354330707
11
3.7320078740157481
21
-2.5552165354330709
0
LINE
8
BLACK
6
CONTINUOUS
10
5.4725275590551181
20
-2.547543307086614
11
5.4122913385826772
21
-2.547543307086614
0
LINE
8
BLACK
6
CONTINUOUS
10
5.4122913385826772
20
-2.547543307086614
11
5.4122913385826772
21
-2.440456692913386
0
LINE
8
BLACK
6
CONTINUOUS
10
5.4122913385826772
20
-2.440456692913386
11
5.4725275590551181
21
-2.440456692913386
0
LINE
8
BLACK
6
CONTINUOUS
10
5.4725275590551181
20
-2.440456692913386
11
5.4725275590551181
21
-2.547543307086614
0
LINE
8
BLACK
6
CONTINUOUS
10
5.5781181102362201
20
-2.547543307086614
11
5.5178818897637791
21
-2.547543307086614
0
LINE
8
BLACK
6
CONTINUOUS
10
5.5178818897637791
20
-2.547543307086614
11
5.5178818897637791
21
-2.440456692913386
0
LINE
8
BLACK
6
CONTINUOUS
10
5.5178818897637791
20
-2.440456692913386
11
5.5781181102362201
21
-2.440456692913386
0
LINE
8
BLACK
6
CONTINUOUS
10
5.5781181102362201
20
-2.440456692913386
11
5.5781181102362201
21
-2.547543307086614
0
LINE
8
BLACK
6
CONTINUOUS
10
5.7733228346456693
20
-2.547543307086614
11
5.7130866141732284
21
-2.547543307086614
0
LINE
8
BLACK
6
CONTINUOUS
10
5.7130866141732284
20
-2.547543307086614
11
5.7130866141732284
21
-2.440456692913386
0
LINE
8
BLACK
6
CONTINUOUS
10
5.7130866141732284
20
-2.440456692913386
11
5.7733228346456693
21
-2.440456692913386
0
LINE
8
BLACK
6
CONTINUOUS
10
5.7733228346456693
20
-2.440456692913386
11
5.7733228346456693
21
-2.547543307086614
0
LINE
8
BLACK
6
CONTINUOUS
10
5.8789133858267713
20
-2.547543307086614
11
5.8186771653543303
21
-2.547543307086614
0
LINE
8
BLACK
6
CONTINUOUS
10
5.8186771653543303
20
-2.547543307086614
11
5.8186771653543303
21
-2.440456692913386
0
LINE
8
BLACK
6
CONTINUOUS
10
5.8186771653543303
20
-2.440456692913386
11
5.8789133858267713
21
-2.440456692913386
0
LINE
8
BLACK
6
CONTINUOUS
10
5.8789133858267713
20
-2.440456692913386
11
5.8789133858267713
21
-2.547543307086614
0
LINE
8
BLACK
6
CONTINUOUS
10
8.3334645669291341
20
-2.5439448818897636
11
8.2665354330708656
21
-2.5439448818897636
0
LINE
8
BLACK
6
CONTINUOUS
10
8.2665354330708656
20
-2.5439448818897636
11
8.2665354330708656
21
-2.5162598425196849
0
LINE
8
BLACK
6
CONTINUOUS
10
8.2665354330708656
20
-2.5162598425196849
11
8.3334645669291341
21
-2.5162598425196849
0
LINE
8
BLACK
6
CONTINUOUS
10
8.3334645669291341
20
-2.5162598425196849
11
8.3334645669291341
21
-2.5439448818897636
0
LINE
8
BLACK
6
CONTINUOUS
10
6.3034999999999997
20
-2.4754999999999998
11
6.0925000000000002
21
-2.4754999999999998
0
LINE
8
BLACK
6
CONTINUOUS
10
6.0925000000000002
20
-2.4754999999999998
11
6.0925000000000002
21
-2.2364999999999999
0
LINE
8
BLACK
6
CONTINUOUS
10
6.0925000000000002
20
-2.2364999999999999
11
6.3034999999999997
21
-2.2364999999999999
0
LINE
8
BLACK
6
CONTINUOUS
10
6.3034999999999997
20
-2.2364999999999999
11
6.3034999999999997
21
-2.4754999999999998
0
LINE
8
BLACK
6
CONTINUOUS
10
8.3334645669291341
20
-2.423740157480315
11
8.2665354330708656
21
-2.423740157480315
0
LINE
8
BLACK
6
CONTINUOUS
10
8.2665354330708656
20
-2.423740157480315
11
8.2665354330708656
21
-2.3960551181102363
0
LINE
8
BLACK
6
CONTINUOUS
10
8.2665354330708656
20
-2.3960551181102363
11
8.3334645669291341
21
-2.3960551181102363
0
LINE
8
BLACK
6
CONTINUOUS
10
8.3334645669291341
20
-2.3960551181102363
11
8.3334645669291341
21
-2.423740157480315
0
LINE
8
BLACK
6
CONTINUOUS
10
5.4725275590551181
20
-2.3475433070866143
11
5.4122913385826772
21
-2.3475433070866143
0
LINE
8
BLACK
6
CONTINUOUS
10
5.4122913385826772
20
-2.3475433070866143
11
5.4122913385826772
21
-2.2404566929133858
0
LINE
8
BLACK
6
CONTINUOUS
10
5.4122913385826772
20
-2.2404566929133858
11
5.4725275590551181
21
-2.2404566929133858
0
LINE
8
BLACK
6
CONTINUOUS
10
5.4725275590551181
20
-2.2404566929133858
11
5.4725275590551181
21
-2.3475433070866143
0
LINE
8
BLACK
6
CONTINUOUS
10
5.5781181102362201
20
-2.3475433070866143
11
5.5178818897637791
21
-2.3475433070866143
0
LINE
8
BLACK
6
CONTINUOUS
10
5.5178818897637791
20
-2.3475433070866143
11
5.5178818897637791
21
-2.2404566929133858
0
LINE
8
BLACK
6
CONTINUOUS
10
5.5178818897637791
20
-2.2404566929133858
11
5.5781181102362201
21
-2.2404566929133858
0
LINE
8
BLACK
6
CONTINUOUS
10
5.5781181102362201
20
-2.2404566929133858
11
5.5781181102362201
21
-2.3475433070866143
0
LINE
8
BLACK
6
CONTINUOUS
10
5.7733228346456693
20
-2.3475433070866143
11
5.7130866141732284
21
-2.3475433070866143
0
LINE
8
BLACK
6
CONTINUOUS
10
5.7130866141732284
20
-2.3475433070866143
11
5.7130866141732284
21
-2.2404566929133858
0
LINE
8
BLACK
6
CONTINUOUS
10
5.7130866141732284
20
-2.2404566929133858
11
5.7733228346456693
21
-2.2404566929133858
0
LINE
8
BLACK
6
CONTINUOUS
10
5.7733228346456693
20
-2.2404566929133858
11
5.7733228346456693
21
-2.3475433070866143
0
LINE
8
BLACK
6
CONTINUOUS
10
5.8789133858267713
20
-2.3475433070866143
11
5.8186771653543303
21
-2.3475433070866143
0
LINE
8
BLACK
6
CONTINUOUS
10
5.8186771653543303
20
-2.3475433070866143
11
5.8186771653543303
21
-2.2404566929133858
0
LINE
8
BLACK
6
CONTINUOUS
10
5.8186771653543303
20
-2.2404566929133858
11
5.8789133858267713
21
-2.2404566929133858
0
LINE
8
BLACK
6
CONTINUOUS
10
5.8789133858267713
20
-2.2404566929133858
11
5.8789133858267713
21
-2.3475433070866143
0
LINE
8
BLACK
6
CONTINUOUS
10
7.8094999999999999
20
-2.2999999999999998
11
7.5984999999999996
21
-2.2999999999999998
0
LINE
8
BLACK
6
CONTINUOUS
10
7.5984999999999996
20
-2.2999999999999998
11
7.5984999999999996
21
-2.0609999999999999
0
LINE
8
BLACK
6
CONTINUOUS
10
7.5984999999999996
20
-2.0609999999999999
11
7.8094999999999999
21
-2.0609999999999999
0
LINE
8
BLACK
6
CONTINUOUS
10
7.8094999999999999
20
-2.0609999999999999
11
7.8094999999999999
21
-2.2999999999999998
0
LINE
8
BLACK
6
CONTINUOUS
10
5.4705275590551183
20
-2.1313858267716537
11
5.4102913385826774
21
-2.1313858267716537
0
LINE
8
BLACK
6
CONTINUOUS
10
5.4102913385826774
20
-2.1313858267716537
11
5.4102913385826774
21
-2.0242992125984252
0
LINE
8
BLACK
6
CONTINUOUS
10
5.4102913385826774
20
-2.0242992125984252
11
5.4705275590551183
21
-2.0242992125984252
0
LINE
8
BLACK
6
CONTINUOUS
10
5.4705275590551183
20
-2.0242992125984252
11
5.4705275590551183
21
-2.1313858267716537
0
LINE
8
BLACK
6
CONTINUOUS
10
5.5761181102362203
20
-2.1313858267716537
11
5.5158818897637794
21
-2.1313858267716537
0
LINE
8
BLACK
6
CONTINUOUS
10
5.5158818897637794
20
-2.1313858267716537
11
5.5158818897637794
21
-2.0242992125984252
0
LINE
8
BLACK
6
CONTINUOUS
10
5.5158818897637794
20
-2.0242992125984252
11
5.5761181102362203
21
-2.0242992125984252
0
LINE
8
BLACK
6
CONTINUOUS
10
5.5761181102362203
20
-2.0242992125984252
11
5.5761181102362203
21
-2.1313858267716537
0
LINE
8
BLACK
6
CONTINUOUS
10
5.7526299212598424
20
-2.1124488188976378
11
5.7190393700787396
21
-2.1124488188976378
0
LINE
8
BLACK
6
CONTINUOUS
10
5.7190393700787396
20
-2.1124488188976378
11
5.7190393700787396
21
-2.0435511811023623
0
LINE
8
BLACK
6
CONTINUOUS
10
5.7190393700787396
20
-2.0435511811023623
11
5.7526299212598424
21
-2.0435511811023623
0
LINE
8
BLACK
6
CONTINUOUS
10
5.7526299212598424
20
-2.0435511811023623
11
5.7526299212598424
21
-2.1124488188976378
0
LINE
8
BLACK
6
CONTINUOUS
10
5.86496062992126
20
-2.1124488188976378
11
5.8313700787401572
21
-2.1124488188976378
0
LINE
8
BLACK
6
CONTINUOUS
10
5.8313700787401572
20
-2.1124488188976378
11
5.8313700787401572
21
-2.0435511811023623
0
LINE
8
BLACK
6
CONTINUOUS
10
5.8313700787401572
20
-2.0435511811023623
11
5.86496062992126
21
-2.0435511811023623
0
LINE
8
BLACK
6
CONTINUOUS
10
5.86496062992126
20
-2.0435511811023623
11
5.86496062992126
21
-2.1124488188976378
0
LINE
8
BLACK
6
CONTINUOUS
10
5.4705275590551183
20
-1.9313858267716535
11
5.4102913385826774
21
-1.9313858267716535
0
LINE
8
BLACK
6
CONTINUOUS
10
5.4102913385826774
20
-1.9313858267716535
11
5.4102913385826774
21
-1.8242992125984252
0
LINE
8
BLACK
6
CONTINUOUS
10
5.4102913385826774
20
-1.8242992125984252
11
5.4705275590551183
21
-1.8242992125984252
0
LINE
8
BLACK
6
CONTINUOUS
10
5.4705275590551183
20
-1.8242992125984252
11
5.4705275590551183
21
-1.9313858267716535
0
LINE
8
BLACK
6
CONTINUOUS
10
5.5761181102362203
20
-1.9313858267716535
11
5.5158818897637794
21
-1.9313858267716535
0
LINE
8
BLACK
6
CONTINUOUS
10
5.5158818897637794
20
-1.9313858267716535
11
5.5158818897637794
21
-1.8242992125984252
0
LINE
8
BLACK
6
CONTINUOUS
10
5.5158818897637794
20
-1.8242992125984252
11
5.5761181102362203
21
-1.8242992125984252
0
LINE
8
BLACK
6
CONTINUOUS
10
5.5761181102362203
20
-1.8242992125984252
11
5.5761181102362203
21
-1.9313858267716535
0
LINE
8
BLACK
6
CONTINUOUS
10
7.6319999999999997
20
-1.911
11
7.5960000000000001
21
-1.911
0
LINE
8
BLACK
6
CONTINUOUS
10
7.5960000000000001
20
-1.911
11
7.5960000000000001
21
-1.8160000000000001
0
LINE
8
BLACK
6
CONTINUOUS
10
7.5960000000000001
20
-1.8160000000000001
11
7.6319999999999997
21
-1.8160000000000001
0
LINE
8
BLACK
6
CONTINUOUS
10
7.6319999999999997
20
-1.8160000000000001
11
7.6319999999999997
21
-1.911
0
LINE
8
BLACK
6
CONTINUOUS
10
7.8119999999999994
20
-1.911
11
7.7759999999999998
21
-1.911
0
LINE
8
BLACK
6
CONTINUOUS
10
7.7759999999999998
20
-1.911
11
7.7759999999999998
21
-1.8160000000000001
0
LINE
8
BLACK
6
CONTINUOUS
10
7.7759999999999998
20
-1.8160000000000001
11
7.8119999999999994
21
-1.8160000000000001
0
LINE
8
BLACK
6
CONTINUOUS
10
7.8119999999999994
20
-1.8160000000000001
11
7.8119999999999994
21
-1.911
0
LINE
8
BLACK
6
CONTINUOUS
10
8.28332283464567
20
-1.8715433070866141
11
8.2230866141732282
21
-1.8715433070866141
0
LINE
8
BLACK
6
CONTINUOUS
10
8.2230866141732282
20
-1.8715433070866141
11
8.2230866141732282
21
-1.7644566929133858
0
LINE
8
BLACK
6
CONTINUOUS
10
8.2230866141732282
20
-1.7644566929133858
11
8.28332283464567
21
-1.7644566929133858
0
LINE
8
BLACK
6
CONTINUOUS
10
8.28332283464567
20
-1.7644566929133858
11
8.28332283464567
21
-1.8715433070866141
0
LINE
8
BLACK
6
CONTINUOUS
10
8.3889133858267719
20
-1.8715433070866141
11
8.3286771653543301
21
-1.8715433070866141
0
LINE
8
BLACK
6
CONTINUOUS
10
8.3286771653543301
20
-1.8715433070866141
11
8.3286771653543301
21
-1.7644566929133858
0
LINE
8
BLACK
6
CONTINUOUS
10
8.3286771653543301
20
-1.7644566929133858
11
8.3889133858267719
21
-1.7644566929133858
0
LINE
8
BLACK
6
CONTINUOUS
10
8.3889133858267719
20
-1.7644566929133858
11
8.3889133858267719
21
-1.8715433070866141
0
LINE
8
BLACK
6
CONTINUOUS
10
5.1184645669291333
20
-1.7839448818897636
11
5.0515354330708657
21
-1.7839448818897636
0
LINE
8
BLACK
6
CONTINUOUS
10
5.0515354330708657
20
-1.7839448818897636
11
5.0515354330708657
21
-1.7562598425196849
0
LINE
8
BLACK
6
CONTINUOUS
10
5.0515354330708657
20
-1.7562598425196849
11
5.1184645669291333
21
-1.7562598425196849
0
LINE
8
BLACK
6
CONTINUOUS
10
5.1184645669291333
20
-1.7562598425196849
11
5.1184645669291333
21
-1.7839448818897636
0
LINE
8
BLACK
6
CONTINUOUS
10
5.4705275590551183
20
-1.7313858267716535
11
5.4102913385826774
21
-1.7313858267716535
0
LINE
8
BLACK
6
CONTINUOUS
10
5.4102913385826774
20
-1.7313858267716535
11
5.4102913385826774
21
-1.6242992125984252
0
LINE
8
BLACK
6
CONTINUOUS
10
5.4102913385826774
20
-1.6242992125984252
11
5.4705275590551183
21
-1.6242992125984252
0
LINE
8
BLACK
6
CONTINUOUS
10
5.4705275590551183
20
-1.6242992125984252
11
5.4705275590551183
21
-1.7313858267716535
0
LINE
8
BLACK
6
CONTINUOUS
10
5.5761181102362203
20
-1.7313858267716535
11
5.5158818897637794
21
-1.7313858267716535
0
LINE
8
BLACK
6
CONTINUOUS
10
5.5158818897637794
20
-1.7313858267716535
11
5.5158818897637794
21
-1.6242992125984252
0
LINE
8
BLACK
6
CONTINUOUS
10
5.5158818897637794
20
-1.6242992125984252
11
5.5761181102362203
21
-1.6242992125984252
0
LINE
8
BLACK
6
CONTINUOUS
10
5.5761181102362203
20
-1.6242992125984252
11
5.5761181102362203
21
-1.7313858267716535
0
LINE
8
BLACK
6
CONTINUOUS
10
5.1184645669291333
20
-1.663740157480315
11
5.0515354330708657
21
-1.663740157480315
0
LINE
8
BLACK
6
CONTINUOUS
10
5.0515354330708657
20
-1.663740157480315
11
5.0515354330708657
21
-1.6360551181102361
0
LINE
8
BLACK
6
CONTINUOUS
10
5.0515354330708657
20
-1.6360551181102361
11
5.1184645669291333
21
-1.6360551181102361
0
LINE
8
BLACK
6
CONTINUOUS
10
5.1184645669291333
20
-1.6360551181102361
11
5.1184645669291333
21
-1.663740157480315
0
LINE
8
BLACK
6
CONTINUOUS
10
7.2197401574803148
20
-1.5934645669291339
11
7.1920551181102361
21
-1.5934645669291339
0
LINE
8
BLACK
6
CONTINUOUS
10
7.1920551181102361
20
-1.5934645669291339
11
7.1920551181102361
21
-1.526535433070866
0
LINE
8
BLACK
6
CONTINUOUS
10
7.1920551181102361
20
-1.526535433070866
11
7.2197401574803148
21
-1.526535433070866
0
LINE
8
BLACK
6
CONTINUOUS
10
7.2197401574803148
20
-1.526535433070866
11
7.2197401574803148
21
-1.5934645669291339
0
LINE
8
BLACK
6
CONTINUOUS
10
7.3399448818897639
20
-1.5934645669291339
11
7.3122598425196852
21
-1.5934645669291339
0
LINE
8
BLACK
6
CONTINUOUS
10
7.3122598425196852
20
-1.5934645669291339
11
7.3122598425196852
21
-1.526535433070866
0
LINE
8
BLACK
6
CONTINUOUS
10
7.3122598425196852
20
-1.526535433070866
11
7.3399448818897639
21
-1.526535433070866
0
LINE
8
BLACK
6
CONTINUOUS
10
7.3399448818897639
20
-1.526535433070866
11
7.3399448818897639
21
-1.5934645669291339
0
LINE
8
BLACK
6
CONTINUOUS
10
5.4705275590551183
20
-1.5415433070866142
11
5.4102913385826774
21
-1.5415433070866142
0
LINE
8
BLACK
6
CONTINUOUS
10
5.4102913385826774
20
-1.5415433070866142
11
5.4102913385826774
21
-1.4344566929133857
0
LINE
8
BLACK
6
CONTINUOUS
10
5.4102913385826774
20
-1.4344566929133857
11
5.4705275590551183
21
-1.4344566929133857
0
LINE
8
BLACK
6
CONTINUOUS
10
5.4705275590551183
20
-1.4344566929133857
11
5.4705275590551183
21
-1.5415433070866142
0
LINE
8
BLACK
6
CONTINUOUS
10
5.5761181102362203
20
-1.5415433070866142
11
5.5158818897637794
21
-1.5415433070866142
0
LINE
8
BLACK
6
CONTINUOUS
10
5.5158818897637794
20
-1.5415433070866142
11
5.5158818897637794
21
-1.4344566929133857
0
LINE
8
BLACK
6
CONTINUOUS
10
5.5158818897637794
20
-1.4344566929133857
11
5.5761181102362203
21
-1.4344566929133857
0
LINE
8
BLACK
6
CONTINUOUS
10
5.5761181102362203
20
-1.4344566929133857
11
5.5761181102362203
21
-1.5415433070866142
  0
ENDSEC
  0
EOF
