%TF.GenerationSoftware,KiCad,Pcbnew,(6.0.10)*%
%TF.CreationDate,2023-12-09T12:58:45-08:00*%
%TF.ProjectId,windchargecontroller,77696e64-6368-4617-9267-65636f6e7472,rev?*%
%TF.SameCoordinates,Original*%
%TF.FileFunction,Legend,Top*%
%TF.FilePolarity,Positive*%
%FSLAX46Y46*%
G04 Gerber Fmt 4.6, Leading zero omitted, Abs format (unit mm)*
G04 Created by KiCad (PCBNEW (6.0.10)) date 2023-12-09 12:58:45*
%MOMM*%
%LPD*%
G01*
G04 APERTURE LIST*
%ADD10C,0.150000*%
%ADD11C,0.250000*%
%ADD12C,0.098425*%
%ADD13C,0.152400*%
%ADD14C,0.127000*%
%ADD15C,0.120000*%
%ADD16C,0.508000*%
%ADD17C,0.200000*%
G04 APERTURE END LIST*
D10*
X85363352Y-86213904D02*
X85363352Y-85413904D01*
X85668114Y-85413904D01*
X85744304Y-85452000D01*
X85782400Y-85490095D01*
X85820495Y-85566285D01*
X85820495Y-85680571D01*
X85782400Y-85756761D01*
X85744304Y-85794857D01*
X85668114Y-85832952D01*
X85363352Y-85832952D01*
X86163352Y-86213904D02*
X86163352Y-85413904D01*
X86163352Y-85794857D02*
X86620495Y-85794857D01*
X86620495Y-86213904D02*
X86620495Y-85413904D01*
X86963352Y-85985333D02*
X87344304Y-85985333D01*
X86887161Y-86213904D02*
X87153828Y-85413904D01*
X87420495Y-86213904D01*
X87649066Y-86175809D02*
X87763352Y-86213904D01*
X87953828Y-86213904D01*
X88030019Y-86175809D01*
X88068114Y-86137714D01*
X88106209Y-86061523D01*
X88106209Y-85985333D01*
X88068114Y-85909142D01*
X88030019Y-85871047D01*
X87953828Y-85832952D01*
X87801447Y-85794857D01*
X87725257Y-85756761D01*
X87687161Y-85718666D01*
X87649066Y-85642476D01*
X87649066Y-85566285D01*
X87687161Y-85490095D01*
X87725257Y-85452000D01*
X87801447Y-85413904D01*
X87991923Y-85413904D01*
X88106209Y-85452000D01*
X88449066Y-85794857D02*
X88715733Y-85794857D01*
X88830019Y-86213904D02*
X88449066Y-86213904D01*
X88449066Y-85413904D01*
X88830019Y-85413904D01*
X90239542Y-86137714D02*
X90201447Y-86175809D01*
X90087161Y-86213904D01*
X90010971Y-86213904D01*
X89896685Y-86175809D01*
X89820495Y-86099619D01*
X89782400Y-86023428D01*
X89744304Y-85871047D01*
X89744304Y-85756761D01*
X89782400Y-85604380D01*
X89820495Y-85528190D01*
X89896685Y-85452000D01*
X90010971Y-85413904D01*
X90087161Y-85413904D01*
X90201447Y-85452000D01*
X90239542Y-85490095D01*
X85312552Y-92157504D02*
X85312552Y-91357504D01*
X85617314Y-91357504D01*
X85693504Y-91395600D01*
X85731600Y-91433695D01*
X85769695Y-91509885D01*
X85769695Y-91624171D01*
X85731600Y-91700361D01*
X85693504Y-91738457D01*
X85617314Y-91776552D01*
X85312552Y-91776552D01*
X86112552Y-92157504D02*
X86112552Y-91357504D01*
X86112552Y-91738457D02*
X86569695Y-91738457D01*
X86569695Y-92157504D02*
X86569695Y-91357504D01*
X86912552Y-91928933D02*
X87293504Y-91928933D01*
X86836361Y-92157504D02*
X87103028Y-91357504D01*
X87369695Y-92157504D01*
X87598266Y-92119409D02*
X87712552Y-92157504D01*
X87903028Y-92157504D01*
X87979219Y-92119409D01*
X88017314Y-92081314D01*
X88055409Y-92005123D01*
X88055409Y-91928933D01*
X88017314Y-91852742D01*
X87979219Y-91814647D01*
X87903028Y-91776552D01*
X87750647Y-91738457D01*
X87674457Y-91700361D01*
X87636361Y-91662266D01*
X87598266Y-91586076D01*
X87598266Y-91509885D01*
X87636361Y-91433695D01*
X87674457Y-91395600D01*
X87750647Y-91357504D01*
X87941123Y-91357504D01*
X88055409Y-91395600D01*
X88398266Y-91738457D02*
X88664933Y-91738457D01*
X88779219Y-92157504D02*
X88398266Y-92157504D01*
X88398266Y-91357504D01*
X88779219Y-91357504D01*
X89998266Y-91738457D02*
X90112552Y-91776552D01*
X90150647Y-91814647D01*
X90188742Y-91890838D01*
X90188742Y-92005123D01*
X90150647Y-92081314D01*
X90112552Y-92119409D01*
X90036361Y-92157504D01*
X89731600Y-92157504D01*
X89731600Y-91357504D01*
X89998266Y-91357504D01*
X90074457Y-91395600D01*
X90112552Y-91433695D01*
X90150647Y-91509885D01*
X90150647Y-91586076D01*
X90112552Y-91662266D01*
X90074457Y-91700361D01*
X89998266Y-91738457D01*
X89731600Y-91738457D01*
X85420495Y-97593104D02*
X85420495Y-96793104D01*
X85725257Y-96793104D01*
X85801447Y-96831200D01*
X85839542Y-96869295D01*
X85877638Y-96945485D01*
X85877638Y-97059771D01*
X85839542Y-97135961D01*
X85801447Y-97174057D01*
X85725257Y-97212152D01*
X85420495Y-97212152D01*
X86220495Y-97593104D02*
X86220495Y-96793104D01*
X86220495Y-97174057D02*
X86677638Y-97174057D01*
X86677638Y-97593104D02*
X86677638Y-96793104D01*
X87020495Y-97364533D02*
X87401447Y-97364533D01*
X86944304Y-97593104D02*
X87210971Y-96793104D01*
X87477638Y-97593104D01*
X87706209Y-97555009D02*
X87820495Y-97593104D01*
X88010971Y-97593104D01*
X88087161Y-97555009D01*
X88125257Y-97516914D01*
X88163352Y-97440723D01*
X88163352Y-97364533D01*
X88125257Y-97288342D01*
X88087161Y-97250247D01*
X88010971Y-97212152D01*
X87858590Y-97174057D01*
X87782400Y-97135961D01*
X87744304Y-97097866D01*
X87706209Y-97021676D01*
X87706209Y-96945485D01*
X87744304Y-96869295D01*
X87782400Y-96831200D01*
X87858590Y-96793104D01*
X88049066Y-96793104D01*
X88163352Y-96831200D01*
X88506209Y-97174057D02*
X88772876Y-97174057D01*
X88887161Y-97593104D02*
X88506209Y-97593104D01*
X88506209Y-96793104D01*
X88887161Y-96793104D01*
X89801447Y-97364533D02*
X90182400Y-97364533D01*
X89725257Y-97593104D02*
X89991923Y-96793104D01*
X90258590Y-97593104D01*
X127247409Y-41840190D02*
X127133123Y-41802095D01*
X126942647Y-41802095D01*
X126866457Y-41840190D01*
X126828361Y-41878285D01*
X126790266Y-41954476D01*
X126790266Y-42030666D01*
X126828361Y-42106857D01*
X126866457Y-42144952D01*
X126942647Y-42183047D01*
X127095028Y-42221142D01*
X127171219Y-42259238D01*
X127209314Y-42297333D01*
X127247409Y-42373523D01*
X127247409Y-42449714D01*
X127209314Y-42525904D01*
X127171219Y-42564000D01*
X127095028Y-42602095D01*
X126904552Y-42602095D01*
X126790266Y-42564000D01*
X126447409Y-41802095D02*
X126447409Y-42602095D01*
X126104552Y-41802095D02*
X126104552Y-42221142D01*
X126142647Y-42297333D01*
X126218838Y-42335428D01*
X126333123Y-42335428D01*
X126409314Y-42297333D01*
X126447409Y-42259238D01*
X125380742Y-42335428D02*
X125380742Y-41802095D01*
X125723600Y-42335428D02*
X125723600Y-41916380D01*
X125685504Y-41840190D01*
X125609314Y-41802095D01*
X125495028Y-41802095D01*
X125418838Y-41840190D01*
X125380742Y-41878285D01*
X124999790Y-42335428D02*
X124999790Y-41802095D01*
X124999790Y-42259238D02*
X124961695Y-42297333D01*
X124885504Y-42335428D01*
X124771219Y-42335428D01*
X124695028Y-42297333D01*
X124656933Y-42221142D01*
X124656933Y-41802095D01*
X124390266Y-42335428D02*
X124085504Y-42335428D01*
X124275980Y-42602095D02*
X124275980Y-41916380D01*
X124237885Y-41840190D01*
X124161695Y-41802095D01*
X124085504Y-41802095D01*
X123399790Y-41802095D02*
X123856933Y-41802095D01*
X123628361Y-41802095D02*
X123628361Y-42602095D01*
X123704552Y-42487809D01*
X123780742Y-42411619D01*
X123856933Y-42373523D01*
X110781961Y-44748495D02*
X110781961Y-45548495D01*
X110591485Y-45548495D01*
X110477200Y-45510400D01*
X110401009Y-45434209D01*
X110362914Y-45358019D01*
X110324819Y-45205638D01*
X110324819Y-45091352D01*
X110362914Y-44938971D01*
X110401009Y-44862780D01*
X110477200Y-44786590D01*
X110591485Y-44748495D01*
X110781961Y-44748495D01*
X109524819Y-44824685D02*
X109562914Y-44786590D01*
X109677200Y-44748495D01*
X109753390Y-44748495D01*
X109867676Y-44786590D01*
X109943866Y-44862780D01*
X109981961Y-44938971D01*
X110020057Y-45091352D01*
X110020057Y-45205638D01*
X109981961Y-45358019D01*
X109943866Y-45434209D01*
X109867676Y-45510400D01*
X109753390Y-45548495D01*
X109677200Y-45548495D01*
X109562914Y-45510400D01*
X109524819Y-45472304D01*
X109181961Y-45053257D02*
X108572438Y-45053257D01*
X108877200Y-44748495D02*
X108877200Y-45358019D01*
X115061923Y-45408800D02*
X115138114Y-45446895D01*
X115252400Y-45446895D01*
X115366685Y-45408800D01*
X115442876Y-45332609D01*
X115480971Y-45256419D01*
X115519066Y-45104038D01*
X115519066Y-44989752D01*
X115480971Y-44837371D01*
X115442876Y-44761180D01*
X115366685Y-44684990D01*
X115252400Y-44646895D01*
X115176209Y-44646895D01*
X115061923Y-44684990D01*
X115023828Y-44723085D01*
X115023828Y-44989752D01*
X115176209Y-44989752D01*
X114680971Y-44646895D02*
X114680971Y-45446895D01*
X114223828Y-44646895D01*
X114223828Y-45446895D01*
X113842876Y-44646895D02*
X113842876Y-45446895D01*
X113652400Y-45446895D01*
X113538114Y-45408800D01*
X113461923Y-45332609D01*
X113423828Y-45256419D01*
X113385733Y-45104038D01*
X113385733Y-44989752D01*
X113423828Y-44837371D01*
X113461923Y-44761180D01*
X113538114Y-44684990D01*
X113652400Y-44646895D01*
X113842876Y-44646895D01*
X193287409Y-44735790D02*
X193173123Y-44697695D01*
X192982647Y-44697695D01*
X192906457Y-44735790D01*
X192868361Y-44773885D01*
X192830266Y-44850076D01*
X192830266Y-44926266D01*
X192868361Y-45002457D01*
X192906457Y-45040552D01*
X192982647Y-45078647D01*
X193135028Y-45116742D01*
X193211219Y-45154838D01*
X193249314Y-45192933D01*
X193287409Y-45269123D01*
X193287409Y-45345314D01*
X193249314Y-45421504D01*
X193211219Y-45459600D01*
X193135028Y-45497695D01*
X192944552Y-45497695D01*
X192830266Y-45459600D01*
X192487409Y-44697695D02*
X192487409Y-45497695D01*
X192144552Y-44697695D02*
X192144552Y-45116742D01*
X192182647Y-45192933D01*
X192258838Y-45231028D01*
X192373123Y-45231028D01*
X192449314Y-45192933D01*
X192487409Y-45154838D01*
X191420742Y-45231028D02*
X191420742Y-44697695D01*
X191763600Y-45231028D02*
X191763600Y-44811980D01*
X191725504Y-44735790D01*
X191649314Y-44697695D01*
X191535028Y-44697695D01*
X191458838Y-44735790D01*
X191420742Y-44773885D01*
X191039790Y-45231028D02*
X191039790Y-44697695D01*
X191039790Y-45154838D02*
X191001695Y-45192933D01*
X190925504Y-45231028D01*
X190811219Y-45231028D01*
X190735028Y-45192933D01*
X190696933Y-45116742D01*
X190696933Y-44697695D01*
X190430266Y-45231028D02*
X190125504Y-45231028D01*
X190315980Y-45497695D02*
X190315980Y-44811980D01*
X190277885Y-44735790D01*
X190201695Y-44697695D01*
X190125504Y-44697695D01*
X189515980Y-45231028D02*
X189515980Y-44697695D01*
X189706457Y-45535790D02*
X189896933Y-44964361D01*
X189401695Y-44964361D01*
X211695961Y-44850095D02*
X212076914Y-44850095D01*
X212076914Y-45650095D01*
X211315009Y-44850095D02*
X211391200Y-44888190D01*
X211429295Y-44926285D01*
X211467390Y-45002476D01*
X211467390Y-45231047D01*
X211429295Y-45307238D01*
X211391200Y-45345333D01*
X211315009Y-45383428D01*
X211200723Y-45383428D01*
X211124533Y-45345333D01*
X211086438Y-45307238D01*
X211048342Y-45231047D01*
X211048342Y-45002476D01*
X211086438Y-44926285D01*
X211124533Y-44888190D01*
X211200723Y-44850095D01*
X211315009Y-44850095D01*
X210362628Y-44850095D02*
X210362628Y-45269142D01*
X210400723Y-45345333D01*
X210476914Y-45383428D01*
X210629295Y-45383428D01*
X210705485Y-45345333D01*
X210362628Y-44888190D02*
X210438819Y-44850095D01*
X210629295Y-44850095D01*
X210705485Y-44888190D01*
X210743580Y-44964380D01*
X210743580Y-45040571D01*
X210705485Y-45116761D01*
X210629295Y-45154857D01*
X210438819Y-45154857D01*
X210362628Y-45192952D01*
X209638819Y-44850095D02*
X209638819Y-45650095D01*
X209638819Y-44888190D02*
X209715009Y-44850095D01*
X209867390Y-44850095D01*
X209943580Y-44888190D01*
X209981676Y-44926285D01*
X210019771Y-45002476D01*
X210019771Y-45231047D01*
X209981676Y-45307238D01*
X209943580Y-45345333D01*
X209867390Y-45383428D01*
X209715009Y-45383428D01*
X209638819Y-45345333D01*
X209295961Y-44888190D02*
X209219771Y-44850095D01*
X209067390Y-44850095D01*
X208991200Y-44888190D01*
X208953104Y-44964380D01*
X208953104Y-45002476D01*
X208991200Y-45078666D01*
X209067390Y-45116761D01*
X209181676Y-45116761D01*
X209257866Y-45154857D01*
X209295961Y-45231047D01*
X209295961Y-45269142D01*
X209257866Y-45345333D01*
X209181676Y-45383428D01*
X209067390Y-45383428D01*
X208991200Y-45345333D01*
X208686438Y-45383428D02*
X208534057Y-44850095D01*
X208381676Y-45231047D01*
X208229295Y-44850095D01*
X208076914Y-45383428D01*
X207772152Y-44850095D02*
X207772152Y-45383428D01*
X207772152Y-45650095D02*
X207810247Y-45612000D01*
X207772152Y-45573904D01*
X207734057Y-45612000D01*
X207772152Y-45650095D01*
X207772152Y-45573904D01*
X207505485Y-45383428D02*
X207200723Y-45383428D01*
X207391200Y-45650095D02*
X207391200Y-44964380D01*
X207353104Y-44888190D01*
X207276914Y-44850095D01*
X207200723Y-44850095D01*
X206591200Y-44888190D02*
X206667390Y-44850095D01*
X206819771Y-44850095D01*
X206895961Y-44888190D01*
X206934057Y-44926285D01*
X206972152Y-45002476D01*
X206972152Y-45231047D01*
X206934057Y-45307238D01*
X206895961Y-45345333D01*
X206819771Y-45383428D01*
X206667390Y-45383428D01*
X206591200Y-45345333D01*
X206248342Y-44850095D02*
X206248342Y-45650095D01*
X205905485Y-44850095D02*
X205905485Y-45269142D01*
X205943580Y-45345333D01*
X206019771Y-45383428D01*
X206134057Y-45383428D01*
X206210247Y-45345333D01*
X206248342Y-45307238D01*
X200558323Y-45662800D02*
X200634514Y-45700895D01*
X200748800Y-45700895D01*
X200863085Y-45662800D01*
X200939276Y-45586609D01*
X200977371Y-45510419D01*
X201015466Y-45358038D01*
X201015466Y-45243752D01*
X200977371Y-45091371D01*
X200939276Y-45015180D01*
X200863085Y-44938990D01*
X200748800Y-44900895D01*
X200672609Y-44900895D01*
X200558323Y-44938990D01*
X200520228Y-44977085D01*
X200520228Y-45243752D01*
X200672609Y-45243752D01*
X200177371Y-44900895D02*
X200177371Y-45700895D01*
X199720228Y-44900895D01*
X199720228Y-45700895D01*
X199339276Y-44900895D02*
X199339276Y-45700895D01*
X199148800Y-45700895D01*
X199034514Y-45662800D01*
X198958323Y-45586609D01*
X198920228Y-45510419D01*
X198882133Y-45358038D01*
X198882133Y-45243752D01*
X198920228Y-45091371D01*
X198958323Y-45015180D01*
X199034514Y-44938990D01*
X199148800Y-44900895D01*
X199339276Y-44900895D01*
X213163104Y-62185333D02*
X212363104Y-62185333D01*
X212363104Y-61880571D01*
X212401200Y-61804380D01*
X212439295Y-61766285D01*
X212515485Y-61728190D01*
X212629771Y-61728190D01*
X212705961Y-61766285D01*
X212744057Y-61804380D01*
X212782152Y-61880571D01*
X212782152Y-62185333D01*
X212439295Y-61423428D02*
X212401200Y-61385333D01*
X212363104Y-61309142D01*
X212363104Y-61118666D01*
X212401200Y-61042476D01*
X212439295Y-61004380D01*
X212515485Y-60966285D01*
X212591676Y-60966285D01*
X212705961Y-61004380D01*
X213163104Y-61461523D01*
X213163104Y-60966285D01*
X212363104Y-60471047D02*
X212363104Y-60318666D01*
X212401200Y-60242476D01*
X212477390Y-60166285D01*
X212629771Y-60128190D01*
X212896438Y-60128190D01*
X213048819Y-60166285D01*
X213125009Y-60242476D01*
X213163104Y-60318666D01*
X213163104Y-60471047D01*
X213125009Y-60547238D01*
X213048819Y-60623428D01*
X212896438Y-60661523D01*
X212629771Y-60661523D01*
X212477390Y-60623428D01*
X212401200Y-60547238D01*
X212363104Y-60471047D01*
X212363104Y-59785333D02*
X213010723Y-59785333D01*
X213086914Y-59747238D01*
X213125009Y-59709142D01*
X213163104Y-59632952D01*
X213163104Y-59480571D01*
X213125009Y-59404380D01*
X213086914Y-59366285D01*
X213010723Y-59328190D01*
X212363104Y-59328190D01*
X212363104Y-59061523D02*
X212363104Y-58604380D01*
X213163104Y-58832952D02*
X212363104Y-58832952D01*
X212350400Y-55676723D02*
X212312304Y-55752914D01*
X212312304Y-55867200D01*
X212350400Y-55981485D01*
X212426590Y-56057676D01*
X212502780Y-56095771D01*
X212655161Y-56133866D01*
X212769447Y-56133866D01*
X212921828Y-56095771D01*
X212998019Y-56057676D01*
X213074209Y-55981485D01*
X213112304Y-55867200D01*
X213112304Y-55791009D01*
X213074209Y-55676723D01*
X213036114Y-55638628D01*
X212769447Y-55638628D01*
X212769447Y-55791009D01*
X213112304Y-55295771D02*
X212312304Y-55295771D01*
X213112304Y-54838628D01*
X212312304Y-54838628D01*
X213112304Y-54457676D02*
X212312304Y-54457676D01*
X212312304Y-54267200D01*
X212350400Y-54152914D01*
X212426590Y-54076723D01*
X212502780Y-54038628D01*
X212655161Y-54000533D01*
X212769447Y-54000533D01*
X212921828Y-54038628D01*
X212998019Y-54076723D01*
X213074209Y-54152914D01*
X213112304Y-54267200D01*
X213112304Y-54457676D01*
X212248800Y-50545923D02*
X212210704Y-50622114D01*
X212210704Y-50736400D01*
X212248800Y-50850685D01*
X212324990Y-50926876D01*
X212401180Y-50964971D01*
X212553561Y-51003066D01*
X212667847Y-51003066D01*
X212820228Y-50964971D01*
X212896419Y-50926876D01*
X212972609Y-50850685D01*
X213010704Y-50736400D01*
X213010704Y-50660209D01*
X212972609Y-50545923D01*
X212934514Y-50507828D01*
X212667847Y-50507828D01*
X212667847Y-50660209D01*
X213010704Y-50164971D02*
X212210704Y-50164971D01*
X213010704Y-49707828D01*
X212210704Y-49707828D01*
X213010704Y-49326876D02*
X212210704Y-49326876D01*
X212210704Y-49136400D01*
X212248800Y-49022114D01*
X212324990Y-48945923D01*
X212401180Y-48907828D01*
X212553561Y-48869733D01*
X212667847Y-48869733D01*
X212820228Y-48907828D01*
X212896419Y-48945923D01*
X212972609Y-49022114D01*
X213010704Y-49136400D01*
X213010704Y-49326876D01*
X212350304Y-93884533D02*
X211550304Y-93884533D01*
X211550304Y-93579771D01*
X211588400Y-93503580D01*
X211626495Y-93465485D01*
X211702685Y-93427390D01*
X211816971Y-93427390D01*
X211893161Y-93465485D01*
X211931257Y-93503580D01*
X211969352Y-93579771D01*
X211969352Y-93884533D01*
X212350304Y-92665485D02*
X212350304Y-93122628D01*
X212350304Y-92894057D02*
X211550304Y-92894057D01*
X211664590Y-92970247D01*
X211740780Y-93046438D01*
X211778876Y-93122628D01*
X211550304Y-92170247D02*
X211550304Y-92017866D01*
X211588400Y-91941676D01*
X211664590Y-91865485D01*
X211816971Y-91827390D01*
X212083638Y-91827390D01*
X212236019Y-91865485D01*
X212312209Y-91941676D01*
X212350304Y-92017866D01*
X212350304Y-92170247D01*
X212312209Y-92246438D01*
X212236019Y-92322628D01*
X212083638Y-92360723D01*
X211816971Y-92360723D01*
X211664590Y-92322628D01*
X211588400Y-92246438D01*
X211550304Y-92170247D01*
X211550304Y-91484533D02*
X212197923Y-91484533D01*
X212274114Y-91446438D01*
X212312209Y-91408342D01*
X212350304Y-91332152D01*
X212350304Y-91179771D01*
X212312209Y-91103580D01*
X212274114Y-91065485D01*
X212197923Y-91027390D01*
X211550304Y-91027390D01*
X211550304Y-90760723D02*
X211550304Y-90303580D01*
X212350304Y-90532152D02*
X211550304Y-90532152D01*
X211639200Y-87629923D02*
X211601104Y-87706114D01*
X211601104Y-87820400D01*
X211639200Y-87934685D01*
X211715390Y-88010876D01*
X211791580Y-88048971D01*
X211943961Y-88087066D01*
X212058247Y-88087066D01*
X212210628Y-88048971D01*
X212286819Y-88010876D01*
X212363009Y-87934685D01*
X212401104Y-87820400D01*
X212401104Y-87744209D01*
X212363009Y-87629923D01*
X212324914Y-87591828D01*
X212058247Y-87591828D01*
X212058247Y-87744209D01*
X212401104Y-87248971D02*
X211601104Y-87248971D01*
X212401104Y-86791828D01*
X211601104Y-86791828D01*
X212401104Y-86410876D02*
X211601104Y-86410876D01*
X211601104Y-86220400D01*
X211639200Y-86106114D01*
X211715390Y-86029923D01*
X211791580Y-85991828D01*
X211943961Y-85953733D01*
X212058247Y-85953733D01*
X212210628Y-85991828D01*
X212286819Y-86029923D01*
X212363009Y-86106114D01*
X212401104Y-86220400D01*
X212401104Y-86410876D01*
X211639200Y-83159523D02*
X211601104Y-83235714D01*
X211601104Y-83350000D01*
X211639200Y-83464285D01*
X211715390Y-83540476D01*
X211791580Y-83578571D01*
X211943961Y-83616666D01*
X212058247Y-83616666D01*
X212210628Y-83578571D01*
X212286819Y-83540476D01*
X212363009Y-83464285D01*
X212401104Y-83350000D01*
X212401104Y-83273809D01*
X212363009Y-83159523D01*
X212324914Y-83121428D01*
X212058247Y-83121428D01*
X212058247Y-83273809D01*
X212401104Y-82778571D02*
X211601104Y-82778571D01*
X212401104Y-82321428D01*
X211601104Y-82321428D01*
X212401104Y-81940476D02*
X211601104Y-81940476D01*
X211601104Y-81750000D01*
X211639200Y-81635714D01*
X211715390Y-81559523D01*
X211791580Y-81521428D01*
X211943961Y-81483333D01*
X212058247Y-81483333D01*
X212210628Y-81521428D01*
X212286819Y-81559523D01*
X212363009Y-81635714D01*
X212401104Y-81750000D01*
X212401104Y-81940476D01*
X206092971Y-90309333D02*
X206626304Y-90309333D01*
X206092971Y-90652190D02*
X206512019Y-90652190D01*
X206588209Y-90614095D01*
X206626304Y-90537904D01*
X206626304Y-90423619D01*
X206588209Y-90347428D01*
X206550114Y-90309333D01*
X206588209Y-89966476D02*
X206626304Y-89890285D01*
X206626304Y-89737904D01*
X206588209Y-89661714D01*
X206512019Y-89623619D01*
X206473923Y-89623619D01*
X206397733Y-89661714D01*
X206359638Y-89737904D01*
X206359638Y-89852190D01*
X206321542Y-89928380D01*
X206245352Y-89966476D01*
X206207257Y-89966476D01*
X206131066Y-89928380D01*
X206092971Y-89852190D01*
X206092971Y-89737904D01*
X206131066Y-89661714D01*
X206588209Y-88976000D02*
X206626304Y-89052190D01*
X206626304Y-89204571D01*
X206588209Y-89280761D01*
X206512019Y-89318857D01*
X206207257Y-89318857D01*
X206131066Y-89280761D01*
X206092971Y-89204571D01*
X206092971Y-89052190D01*
X206131066Y-88976000D01*
X206207257Y-88937904D01*
X206283447Y-88937904D01*
X206359638Y-89318857D01*
X205826304Y-87756952D02*
X206397733Y-87756952D01*
X206512019Y-87795047D01*
X206588209Y-87871238D01*
X206626304Y-87985523D01*
X206626304Y-88061714D01*
X206092971Y-87033142D02*
X206626304Y-87033142D01*
X205788209Y-87223619D02*
X206359638Y-87414095D01*
X206359638Y-86918857D01*
X206092971Y-86118857D02*
X206092971Y-85814095D01*
X206626304Y-86004571D02*
X205940590Y-86004571D01*
X205864400Y-85966476D01*
X205826304Y-85890285D01*
X205826304Y-85814095D01*
X206626304Y-85433142D02*
X206588209Y-85509333D01*
X206550114Y-85547428D01*
X206473923Y-85585523D01*
X206245352Y-85585523D01*
X206169161Y-85547428D01*
X206131066Y-85509333D01*
X206092971Y-85433142D01*
X206092971Y-85318857D01*
X206131066Y-85242666D01*
X206169161Y-85204571D01*
X206245352Y-85166476D01*
X206473923Y-85166476D01*
X206550114Y-85204571D01*
X206588209Y-85242666D01*
X206626304Y-85318857D01*
X206626304Y-85433142D01*
X206626304Y-84823619D02*
X206092971Y-84823619D01*
X206245352Y-84823619D02*
X206169161Y-84785523D01*
X206131066Y-84747428D01*
X206092971Y-84671238D01*
X206092971Y-84595047D01*
X207380971Y-91280761D02*
X208180971Y-91280761D01*
X207419066Y-91280761D02*
X207380971Y-91204571D01*
X207380971Y-91052190D01*
X207419066Y-90976000D01*
X207457161Y-90937904D01*
X207533352Y-90899809D01*
X207761923Y-90899809D01*
X207838114Y-90937904D01*
X207876209Y-90976000D01*
X207914304Y-91052190D01*
X207914304Y-91204571D01*
X207876209Y-91280761D01*
X207914304Y-90442666D02*
X207876209Y-90518857D01*
X207838114Y-90556952D01*
X207761923Y-90595047D01*
X207533352Y-90595047D01*
X207457161Y-90556952D01*
X207419066Y-90518857D01*
X207380971Y-90442666D01*
X207380971Y-90328380D01*
X207419066Y-90252190D01*
X207457161Y-90214095D01*
X207533352Y-90176000D01*
X207761923Y-90176000D01*
X207838114Y-90214095D01*
X207876209Y-90252190D01*
X207914304Y-90328380D01*
X207914304Y-90442666D01*
X207380971Y-89909333D02*
X207914304Y-89756952D01*
X207533352Y-89604571D01*
X207914304Y-89452190D01*
X207380971Y-89299809D01*
X207876209Y-88690285D02*
X207914304Y-88766476D01*
X207914304Y-88918857D01*
X207876209Y-88995047D01*
X207800019Y-89033142D01*
X207495257Y-89033142D01*
X207419066Y-88995047D01*
X207380971Y-88918857D01*
X207380971Y-88766476D01*
X207419066Y-88690285D01*
X207495257Y-88652190D01*
X207571447Y-88652190D01*
X207647638Y-89033142D01*
X207914304Y-88309333D02*
X207380971Y-88309333D01*
X207533352Y-88309333D02*
X207457161Y-88271238D01*
X207419066Y-88233142D01*
X207380971Y-88156952D01*
X207380971Y-88080761D01*
X207380971Y-86861714D02*
X208028590Y-86861714D01*
X208104780Y-86899809D01*
X208142876Y-86937904D01*
X208180971Y-87014095D01*
X208180971Y-87128380D01*
X208142876Y-87204571D01*
X207876209Y-86861714D02*
X207914304Y-86937904D01*
X207914304Y-87090285D01*
X207876209Y-87166476D01*
X207838114Y-87204571D01*
X207761923Y-87242666D01*
X207533352Y-87242666D01*
X207457161Y-87204571D01*
X207419066Y-87166476D01*
X207380971Y-87090285D01*
X207380971Y-86937904D01*
X207419066Y-86861714D01*
X207914304Y-86480761D02*
X207380971Y-86480761D01*
X207533352Y-86480761D02*
X207457161Y-86442666D01*
X207419066Y-86404571D01*
X207380971Y-86328380D01*
X207380971Y-86252190D01*
X207914304Y-85871238D02*
X207876209Y-85947428D01*
X207838114Y-85985523D01*
X207761923Y-86023619D01*
X207533352Y-86023619D01*
X207457161Y-85985523D01*
X207419066Y-85947428D01*
X207380971Y-85871238D01*
X207380971Y-85756952D01*
X207419066Y-85680761D01*
X207457161Y-85642666D01*
X207533352Y-85604571D01*
X207761923Y-85604571D01*
X207838114Y-85642666D01*
X207876209Y-85680761D01*
X207914304Y-85756952D01*
X207914304Y-85871238D01*
X207380971Y-84918857D02*
X207914304Y-84918857D01*
X207380971Y-85261714D02*
X207800019Y-85261714D01*
X207876209Y-85223619D01*
X207914304Y-85147428D01*
X207914304Y-85033142D01*
X207876209Y-84956952D01*
X207838114Y-84918857D01*
X207380971Y-84537904D02*
X207914304Y-84537904D01*
X207457161Y-84537904D02*
X207419066Y-84499809D01*
X207380971Y-84423619D01*
X207380971Y-84309333D01*
X207419066Y-84233142D01*
X207495257Y-84195047D01*
X207914304Y-84195047D01*
X207914304Y-83471238D02*
X207114304Y-83471238D01*
X207876209Y-83471238D02*
X207914304Y-83547428D01*
X207914304Y-83699809D01*
X207876209Y-83776000D01*
X207838114Y-83814095D01*
X207761923Y-83852190D01*
X207533352Y-83852190D01*
X207457161Y-83814095D01*
X207419066Y-83776000D01*
X207380971Y-83699809D01*
X207380971Y-83547428D01*
X207419066Y-83471238D01*
X161956800Y-91287523D02*
X161918704Y-91363714D01*
X161918704Y-91478000D01*
X161956800Y-91592285D01*
X162032990Y-91668476D01*
X162109180Y-91706571D01*
X162261561Y-91744666D01*
X162375847Y-91744666D01*
X162528228Y-91706571D01*
X162604419Y-91668476D01*
X162680609Y-91592285D01*
X162718704Y-91478000D01*
X162718704Y-91401809D01*
X162680609Y-91287523D01*
X162642514Y-91249428D01*
X162375847Y-91249428D01*
X162375847Y-91401809D01*
X162718704Y-90906571D02*
X161918704Y-90906571D01*
X162718704Y-90449428D01*
X161918704Y-90449428D01*
X162718704Y-90068476D02*
X161918704Y-90068476D01*
X161918704Y-89878000D01*
X161956800Y-89763714D01*
X162032990Y-89687523D01*
X162109180Y-89649428D01*
X162261561Y-89611333D01*
X162375847Y-89611333D01*
X162528228Y-89649428D01*
X162604419Y-89687523D01*
X162680609Y-89763714D01*
X162718704Y-89878000D01*
X162718704Y-90068476D01*
X155149504Y-91090609D02*
X154349504Y-91090609D01*
X154349504Y-90785847D01*
X154387600Y-90709657D01*
X154425695Y-90671561D01*
X154501885Y-90633466D01*
X154616171Y-90633466D01*
X154692361Y-90671561D01*
X154730457Y-90709657D01*
X154768552Y-90785847D01*
X154768552Y-91090609D01*
X154349504Y-90366800D02*
X155149504Y-90176323D01*
X154578076Y-90023942D01*
X155149504Y-89871561D01*
X154349504Y-89681085D01*
X155149504Y-89376323D02*
X154349504Y-89376323D01*
X154920933Y-89109657D01*
X154349504Y-88842990D01*
X155149504Y-88842990D01*
X160039009Y-101542609D02*
X160077104Y-101428323D01*
X160077104Y-101237847D01*
X160039009Y-101161657D01*
X160000914Y-101123561D01*
X159924723Y-101085466D01*
X159848533Y-101085466D01*
X159772342Y-101123561D01*
X159734247Y-101161657D01*
X159696152Y-101237847D01*
X159658057Y-101390228D01*
X159619961Y-101466419D01*
X159581866Y-101504514D01*
X159505676Y-101542609D01*
X159429485Y-101542609D01*
X159353295Y-101504514D01*
X159315200Y-101466419D01*
X159277104Y-101390228D01*
X159277104Y-101199752D01*
X159315200Y-101085466D01*
X160077104Y-100742609D02*
X159277104Y-100742609D01*
X160077104Y-100399752D02*
X159658057Y-100399752D01*
X159581866Y-100437847D01*
X159543771Y-100514038D01*
X159543771Y-100628323D01*
X159581866Y-100704514D01*
X159619961Y-100742609D01*
X159543771Y-99675942D02*
X160077104Y-99675942D01*
X159543771Y-100018800D02*
X159962819Y-100018800D01*
X160039009Y-99980704D01*
X160077104Y-99904514D01*
X160077104Y-99790228D01*
X160039009Y-99714038D01*
X160000914Y-99675942D01*
X159543771Y-99294990D02*
X160077104Y-99294990D01*
X159619961Y-99294990D02*
X159581866Y-99256895D01*
X159543771Y-99180704D01*
X159543771Y-99066419D01*
X159581866Y-98990228D01*
X159658057Y-98952133D01*
X160077104Y-98952133D01*
X159543771Y-98685466D02*
X159543771Y-98380704D01*
X159277104Y-98571180D02*
X159962819Y-98571180D01*
X160039009Y-98533085D01*
X160077104Y-98456895D01*
X160077104Y-98380704D01*
X159277104Y-97733085D02*
X159277104Y-98114038D01*
X159658057Y-98152133D01*
X159619961Y-98114038D01*
X159581866Y-98037847D01*
X159581866Y-97847371D01*
X159619961Y-97771180D01*
X159658057Y-97733085D01*
X159734247Y-97694990D01*
X159924723Y-97694990D01*
X160000914Y-97733085D01*
X160039009Y-97771180D01*
X160077104Y-97847371D01*
X160077104Y-98037847D01*
X160039009Y-98114038D01*
X160000914Y-98152133D01*
X129609809Y-91027009D02*
X129647904Y-90912723D01*
X129647904Y-90722247D01*
X129609809Y-90646057D01*
X129571714Y-90607961D01*
X129495523Y-90569866D01*
X129419333Y-90569866D01*
X129343142Y-90607961D01*
X129305047Y-90646057D01*
X129266952Y-90722247D01*
X129228857Y-90874628D01*
X129190761Y-90950819D01*
X129152666Y-90988914D01*
X129076476Y-91027009D01*
X129000285Y-91027009D01*
X128924095Y-90988914D01*
X128886000Y-90950819D01*
X128847904Y-90874628D01*
X128847904Y-90684152D01*
X128886000Y-90569866D01*
X129647904Y-90227009D02*
X128847904Y-90227009D01*
X129647904Y-89884152D02*
X129228857Y-89884152D01*
X129152666Y-89922247D01*
X129114571Y-89998438D01*
X129114571Y-90112723D01*
X129152666Y-90188914D01*
X129190761Y-90227009D01*
X129114571Y-89160342D02*
X129647904Y-89160342D01*
X129114571Y-89503200D02*
X129533619Y-89503200D01*
X129609809Y-89465104D01*
X129647904Y-89388914D01*
X129647904Y-89274628D01*
X129609809Y-89198438D01*
X129571714Y-89160342D01*
X129114571Y-88779390D02*
X129647904Y-88779390D01*
X129190761Y-88779390D02*
X129152666Y-88741295D01*
X129114571Y-88665104D01*
X129114571Y-88550819D01*
X129152666Y-88474628D01*
X129228857Y-88436533D01*
X129647904Y-88436533D01*
X129114571Y-88169866D02*
X129114571Y-87865104D01*
X128847904Y-88055580D02*
X129533619Y-88055580D01*
X129609809Y-88017485D01*
X129647904Y-87941295D01*
X129647904Y-87865104D01*
X129647904Y-87179390D02*
X129647904Y-87636533D01*
X129647904Y-87407961D02*
X128847904Y-87407961D01*
X128962190Y-87484152D01*
X129038380Y-87560342D01*
X129076476Y-87636533D01*
X119233904Y-101758438D02*
X118433904Y-101758438D01*
X118433904Y-101453676D01*
X118472000Y-101377485D01*
X118510095Y-101339390D01*
X118586285Y-101301295D01*
X118700571Y-101301295D01*
X118776761Y-101339390D01*
X118814857Y-101377485D01*
X118852952Y-101453676D01*
X118852952Y-101758438D01*
X119233904Y-100958438D02*
X118433904Y-100958438D01*
X119233904Y-100615580D02*
X118814857Y-100615580D01*
X118738666Y-100653676D01*
X118700571Y-100729866D01*
X118700571Y-100844152D01*
X118738666Y-100920342D01*
X118776761Y-100958438D01*
X119233904Y-99891771D02*
X118814857Y-99891771D01*
X118738666Y-99929866D01*
X118700571Y-100006057D01*
X118700571Y-100158438D01*
X118738666Y-100234628D01*
X119195809Y-99891771D02*
X119233904Y-99967961D01*
X119233904Y-100158438D01*
X119195809Y-100234628D01*
X119119619Y-100272723D01*
X119043428Y-100272723D01*
X118967238Y-100234628D01*
X118929142Y-100158438D01*
X118929142Y-99967961D01*
X118891047Y-99891771D01*
X119195809Y-99548914D02*
X119233904Y-99472723D01*
X119233904Y-99320342D01*
X119195809Y-99244152D01*
X119119619Y-99206057D01*
X119081523Y-99206057D01*
X119005333Y-99244152D01*
X118967238Y-99320342D01*
X118967238Y-99434628D01*
X118929142Y-99510819D01*
X118852952Y-99548914D01*
X118814857Y-99548914D01*
X118738666Y-99510819D01*
X118700571Y-99434628D01*
X118700571Y-99320342D01*
X118738666Y-99244152D01*
X119195809Y-98558438D02*
X119233904Y-98634628D01*
X119233904Y-98787009D01*
X119195809Y-98863200D01*
X119119619Y-98901295D01*
X118814857Y-98901295D01*
X118738666Y-98863200D01*
X118700571Y-98787009D01*
X118700571Y-98634628D01*
X118738666Y-98558438D01*
X118814857Y-98520342D01*
X118891047Y-98520342D01*
X118967238Y-98901295D01*
X118814857Y-97910819D02*
X118852952Y-97796533D01*
X118891047Y-97758438D01*
X118967238Y-97720342D01*
X119081523Y-97720342D01*
X119157714Y-97758438D01*
X119195809Y-97796533D01*
X119233904Y-97872723D01*
X119233904Y-98177485D01*
X118433904Y-98177485D01*
X118433904Y-97910819D01*
X118472000Y-97834628D01*
X118510095Y-97796533D01*
X118586285Y-97758438D01*
X118662476Y-97758438D01*
X118738666Y-97796533D01*
X118776761Y-97834628D01*
X118814857Y-97910819D01*
X118814857Y-98177485D01*
X118929142Y-97377485D02*
X118929142Y-96767961D01*
X147326304Y-101352133D02*
X146526304Y-101352133D01*
X146526304Y-101047371D01*
X146564400Y-100971180D01*
X146602495Y-100933085D01*
X146678685Y-100894990D01*
X146792971Y-100894990D01*
X146869161Y-100933085D01*
X146907257Y-100971180D01*
X146945352Y-101047371D01*
X146945352Y-101352133D01*
X147402495Y-100742609D02*
X147402495Y-100133085D01*
X147288209Y-99980704D02*
X147326304Y-99866419D01*
X147326304Y-99675942D01*
X147288209Y-99599752D01*
X147250114Y-99561657D01*
X147173923Y-99523561D01*
X147097733Y-99523561D01*
X147021542Y-99561657D01*
X146983447Y-99599752D01*
X146945352Y-99675942D01*
X146907257Y-99828323D01*
X146869161Y-99904514D01*
X146831066Y-99942609D01*
X146754876Y-99980704D01*
X146678685Y-99980704D01*
X146602495Y-99942609D01*
X146564400Y-99904514D01*
X146526304Y-99828323D01*
X146526304Y-99637847D01*
X146564400Y-99523561D01*
X146526304Y-99256895D02*
X147326304Y-99066419D01*
X146754876Y-98914038D01*
X147326304Y-98761657D01*
X146526304Y-98571180D01*
X146602495Y-98304514D02*
X146564400Y-98266419D01*
X146526304Y-98190228D01*
X146526304Y-97999752D01*
X146564400Y-97923561D01*
X146602495Y-97885466D01*
X146678685Y-97847371D01*
X146754876Y-97847371D01*
X146869161Y-97885466D01*
X147326304Y-98342609D01*
X147326304Y-97847371D01*
X132099009Y-91027009D02*
X132137104Y-90912723D01*
X132137104Y-90722247D01*
X132099009Y-90646057D01*
X132060914Y-90607961D01*
X131984723Y-90569866D01*
X131908533Y-90569866D01*
X131832342Y-90607961D01*
X131794247Y-90646057D01*
X131756152Y-90722247D01*
X131718057Y-90874628D01*
X131679961Y-90950819D01*
X131641866Y-90988914D01*
X131565676Y-91027009D01*
X131489485Y-91027009D01*
X131413295Y-90988914D01*
X131375200Y-90950819D01*
X131337104Y-90874628D01*
X131337104Y-90684152D01*
X131375200Y-90569866D01*
X132137104Y-90227009D02*
X131337104Y-90227009D01*
X132137104Y-89884152D02*
X131718057Y-89884152D01*
X131641866Y-89922247D01*
X131603771Y-89998438D01*
X131603771Y-90112723D01*
X131641866Y-90188914D01*
X131679961Y-90227009D01*
X131603771Y-89160342D02*
X132137104Y-89160342D01*
X131603771Y-89503200D02*
X132022819Y-89503200D01*
X132099009Y-89465104D01*
X132137104Y-89388914D01*
X132137104Y-89274628D01*
X132099009Y-89198438D01*
X132060914Y-89160342D01*
X131603771Y-88779390D02*
X132137104Y-88779390D01*
X131679961Y-88779390D02*
X131641866Y-88741295D01*
X131603771Y-88665104D01*
X131603771Y-88550819D01*
X131641866Y-88474628D01*
X131718057Y-88436533D01*
X132137104Y-88436533D01*
X131603771Y-88169866D02*
X131603771Y-87865104D01*
X131337104Y-88055580D02*
X132022819Y-88055580D01*
X132099009Y-88017485D01*
X132137104Y-87941295D01*
X132137104Y-87865104D01*
X131413295Y-87636533D02*
X131375200Y-87598438D01*
X131337104Y-87522247D01*
X131337104Y-87331771D01*
X131375200Y-87255580D01*
X131413295Y-87217485D01*
X131489485Y-87179390D01*
X131565676Y-87179390D01*
X131679961Y-87217485D01*
X132137104Y-87674628D01*
X132137104Y-87179390D01*
X152114304Y-91731885D02*
X152914304Y-91465219D01*
X152114304Y-91198552D01*
X152914304Y-90589028D02*
X152114304Y-90589028D01*
X152876209Y-90589028D02*
X152914304Y-90665219D01*
X152914304Y-90817600D01*
X152876209Y-90893790D01*
X152838114Y-90931885D01*
X152761923Y-90969980D01*
X152533352Y-90969980D01*
X152457161Y-90931885D01*
X152419066Y-90893790D01*
X152380971Y-90817600D01*
X152380971Y-90665219D01*
X152419066Y-90589028D01*
X152914304Y-90208076D02*
X152380971Y-90208076D01*
X152533352Y-90208076D02*
X152457161Y-90169980D01*
X152419066Y-90131885D01*
X152380971Y-90055695D01*
X152380971Y-89979504D01*
X152914304Y-89712838D02*
X152380971Y-89712838D01*
X152114304Y-89712838D02*
X152152400Y-89750933D01*
X152190495Y-89712838D01*
X152152400Y-89674742D01*
X152114304Y-89712838D01*
X152190495Y-89712838D01*
X152380971Y-89408076D02*
X152914304Y-89217600D01*
X152380971Y-89027123D01*
X152876209Y-88417600D02*
X152914304Y-88493790D01*
X152914304Y-88646171D01*
X152876209Y-88722361D01*
X152800019Y-88760457D01*
X152495257Y-88760457D01*
X152419066Y-88722361D01*
X152380971Y-88646171D01*
X152380971Y-88493790D01*
X152419066Y-88417600D01*
X152495257Y-88379504D01*
X152571447Y-88379504D01*
X152647638Y-88760457D01*
X116693904Y-101758438D02*
X115893904Y-101758438D01*
X115893904Y-101453676D01*
X115932000Y-101377485D01*
X115970095Y-101339390D01*
X116046285Y-101301295D01*
X116160571Y-101301295D01*
X116236761Y-101339390D01*
X116274857Y-101377485D01*
X116312952Y-101453676D01*
X116312952Y-101758438D01*
X116693904Y-100958438D02*
X115893904Y-100958438D01*
X116693904Y-100615580D02*
X116274857Y-100615580D01*
X116198666Y-100653676D01*
X116160571Y-100729866D01*
X116160571Y-100844152D01*
X116198666Y-100920342D01*
X116236761Y-100958438D01*
X116693904Y-99891771D02*
X116274857Y-99891771D01*
X116198666Y-99929866D01*
X116160571Y-100006057D01*
X116160571Y-100158438D01*
X116198666Y-100234628D01*
X116655809Y-99891771D02*
X116693904Y-99967961D01*
X116693904Y-100158438D01*
X116655809Y-100234628D01*
X116579619Y-100272723D01*
X116503428Y-100272723D01*
X116427238Y-100234628D01*
X116389142Y-100158438D01*
X116389142Y-99967961D01*
X116351047Y-99891771D01*
X116655809Y-99548914D02*
X116693904Y-99472723D01*
X116693904Y-99320342D01*
X116655809Y-99244152D01*
X116579619Y-99206057D01*
X116541523Y-99206057D01*
X116465333Y-99244152D01*
X116427238Y-99320342D01*
X116427238Y-99434628D01*
X116389142Y-99510819D01*
X116312952Y-99548914D01*
X116274857Y-99548914D01*
X116198666Y-99510819D01*
X116160571Y-99434628D01*
X116160571Y-99320342D01*
X116198666Y-99244152D01*
X116655809Y-98558438D02*
X116693904Y-98634628D01*
X116693904Y-98787009D01*
X116655809Y-98863200D01*
X116579619Y-98901295D01*
X116274857Y-98901295D01*
X116198666Y-98863200D01*
X116160571Y-98787009D01*
X116160571Y-98634628D01*
X116198666Y-98558438D01*
X116274857Y-98520342D01*
X116351047Y-98520342D01*
X116427238Y-98901295D01*
X116617714Y-97720342D02*
X116655809Y-97758438D01*
X116693904Y-97872723D01*
X116693904Y-97948914D01*
X116655809Y-98063200D01*
X116579619Y-98139390D01*
X116503428Y-98177485D01*
X116351047Y-98215580D01*
X116236761Y-98215580D01*
X116084380Y-98177485D01*
X116008190Y-98139390D01*
X115932000Y-98063200D01*
X115893904Y-97948914D01*
X115893904Y-97872723D01*
X115932000Y-97758438D01*
X115970095Y-97720342D01*
X116389142Y-97377485D02*
X116389142Y-96767961D01*
X119437104Y-91668419D02*
X118637104Y-91668419D01*
X118941866Y-91668419D02*
X118903771Y-91592228D01*
X118903771Y-91439847D01*
X118941866Y-91363657D01*
X118979961Y-91325561D01*
X119056152Y-91287466D01*
X119284723Y-91287466D01*
X119360914Y-91325561D01*
X119399009Y-91363657D01*
X119437104Y-91439847D01*
X119437104Y-91592228D01*
X119399009Y-91668419D01*
X119437104Y-90944609D02*
X118903771Y-90944609D01*
X119056152Y-90944609D02*
X118979961Y-90906514D01*
X118941866Y-90868419D01*
X118903771Y-90792228D01*
X118903771Y-90716038D01*
X119437104Y-90106514D02*
X119018057Y-90106514D01*
X118941866Y-90144609D01*
X118903771Y-90220800D01*
X118903771Y-90373180D01*
X118941866Y-90449371D01*
X119399009Y-90106514D02*
X119437104Y-90182704D01*
X119437104Y-90373180D01*
X119399009Y-90449371D01*
X119322819Y-90487466D01*
X119246628Y-90487466D01*
X119170438Y-90449371D01*
X119132342Y-90373180D01*
X119132342Y-90182704D01*
X119094247Y-90106514D01*
X119437104Y-89725561D02*
X118637104Y-89725561D01*
X119132342Y-89649371D02*
X119437104Y-89420800D01*
X118903771Y-89420800D02*
X119208533Y-89725561D01*
X119399009Y-88773180D02*
X119437104Y-88849371D01*
X119437104Y-89001752D01*
X119399009Y-89077942D01*
X119322819Y-89116038D01*
X119018057Y-89116038D01*
X118941866Y-89077942D01*
X118903771Y-89001752D01*
X118903771Y-88849371D01*
X118941866Y-88773180D01*
X119018057Y-88735085D01*
X119094247Y-88735085D01*
X119170438Y-89116038D01*
X157841904Y-101168000D02*
X157041904Y-101168000D01*
X157041904Y-100863238D01*
X157080000Y-100787047D01*
X157118095Y-100748952D01*
X157194285Y-100710857D01*
X157308571Y-100710857D01*
X157384761Y-100748952D01*
X157422857Y-100787047D01*
X157460952Y-100863238D01*
X157460952Y-101168000D01*
X157841904Y-99948952D02*
X157841904Y-100406095D01*
X157841904Y-100177523D02*
X157041904Y-100177523D01*
X157156190Y-100253714D01*
X157232380Y-100329904D01*
X157270476Y-100406095D01*
X157041904Y-99453714D02*
X157041904Y-99301333D01*
X157080000Y-99225142D01*
X157156190Y-99148952D01*
X157308571Y-99110857D01*
X157575238Y-99110857D01*
X157727619Y-99148952D01*
X157803809Y-99225142D01*
X157841904Y-99301333D01*
X157841904Y-99453714D01*
X157803809Y-99529904D01*
X157727619Y-99606095D01*
X157575238Y-99644190D01*
X157308571Y-99644190D01*
X157156190Y-99606095D01*
X157080000Y-99529904D01*
X157041904Y-99453714D01*
X157308571Y-98425142D02*
X157841904Y-98425142D01*
X157308571Y-98768000D02*
X157727619Y-98768000D01*
X157803809Y-98729904D01*
X157841904Y-98653714D01*
X157841904Y-98539428D01*
X157803809Y-98463238D01*
X157765714Y-98425142D01*
X157308571Y-98158476D02*
X157308571Y-97853714D01*
X157041904Y-98044190D02*
X157727619Y-98044190D01*
X157803809Y-98006095D01*
X157841904Y-97929904D01*
X157841904Y-97853714D01*
X160242209Y-91738209D02*
X160280304Y-91623923D01*
X160280304Y-91433447D01*
X160242209Y-91357257D01*
X160204114Y-91319161D01*
X160127923Y-91281066D01*
X160051733Y-91281066D01*
X159975542Y-91319161D01*
X159937447Y-91357257D01*
X159899352Y-91433447D01*
X159861257Y-91585828D01*
X159823161Y-91662019D01*
X159785066Y-91700114D01*
X159708876Y-91738209D01*
X159632685Y-91738209D01*
X159556495Y-91700114D01*
X159518400Y-91662019D01*
X159480304Y-91585828D01*
X159480304Y-91395352D01*
X159518400Y-91281066D01*
X160280304Y-90938209D02*
X159480304Y-90938209D01*
X160280304Y-90595352D02*
X159861257Y-90595352D01*
X159785066Y-90633447D01*
X159746971Y-90709638D01*
X159746971Y-90823923D01*
X159785066Y-90900114D01*
X159823161Y-90938209D01*
X159746971Y-89871542D02*
X160280304Y-89871542D01*
X159746971Y-90214400D02*
X160166019Y-90214400D01*
X160242209Y-90176304D01*
X160280304Y-90100114D01*
X160280304Y-89985828D01*
X160242209Y-89909638D01*
X160204114Y-89871542D01*
X159746971Y-89490590D02*
X160280304Y-89490590D01*
X159823161Y-89490590D02*
X159785066Y-89452495D01*
X159746971Y-89376304D01*
X159746971Y-89262019D01*
X159785066Y-89185828D01*
X159861257Y-89147733D01*
X160280304Y-89147733D01*
X159746971Y-88881066D02*
X159746971Y-88576304D01*
X159480304Y-88766780D02*
X160166019Y-88766780D01*
X160242209Y-88728685D01*
X160280304Y-88652495D01*
X160280304Y-88576304D01*
X159746971Y-87966780D02*
X160280304Y-87966780D01*
X159442209Y-88157257D02*
X160013638Y-88347733D01*
X160013638Y-87852495D01*
X162007600Y-99415523D02*
X161969504Y-99491714D01*
X161969504Y-99606000D01*
X162007600Y-99720285D01*
X162083790Y-99796476D01*
X162159980Y-99834571D01*
X162312361Y-99872666D01*
X162426647Y-99872666D01*
X162579028Y-99834571D01*
X162655219Y-99796476D01*
X162731409Y-99720285D01*
X162769504Y-99606000D01*
X162769504Y-99529809D01*
X162731409Y-99415523D01*
X162693314Y-99377428D01*
X162426647Y-99377428D01*
X162426647Y-99529809D01*
X162769504Y-99034571D02*
X161969504Y-99034571D01*
X162769504Y-98577428D01*
X161969504Y-98577428D01*
X162769504Y-98196476D02*
X161969504Y-98196476D01*
X161969504Y-98006000D01*
X162007600Y-97891714D01*
X162083790Y-97815523D01*
X162159980Y-97777428D01*
X162312361Y-97739333D01*
X162426647Y-97739333D01*
X162579028Y-97777428D01*
X162655219Y-97815523D01*
X162731409Y-97891714D01*
X162769504Y-98006000D01*
X162769504Y-98196476D01*
D11*
X75866761Y-79452761D02*
X77866761Y-78976571D01*
X76438190Y-78595619D01*
X77866761Y-78214666D01*
X75866761Y-77738476D01*
X77676285Y-75833714D02*
X77771523Y-75928952D01*
X77866761Y-76214666D01*
X77866761Y-76405142D01*
X77771523Y-76690857D01*
X77581047Y-76881333D01*
X77390571Y-76976571D01*
X77009619Y-77071809D01*
X76723904Y-77071809D01*
X76342952Y-76976571D01*
X76152476Y-76881333D01*
X75962000Y-76690857D01*
X75866761Y-76405142D01*
X75866761Y-76214666D01*
X75962000Y-75928952D01*
X76057238Y-75833714D01*
X77676285Y-73833714D02*
X77771523Y-73928952D01*
X77866761Y-74214666D01*
X77866761Y-74405142D01*
X77771523Y-74690857D01*
X77581047Y-74881333D01*
X77390571Y-74976571D01*
X77009619Y-75071809D01*
X76723904Y-75071809D01*
X76342952Y-74976571D01*
X76152476Y-74881333D01*
X75962000Y-74690857D01*
X75866761Y-74405142D01*
X75866761Y-74214666D01*
X75962000Y-73928952D01*
X76057238Y-73833714D01*
X75866761Y-71738476D02*
X77866761Y-71071809D01*
X75866761Y-70405142D01*
X77676285Y-69738476D02*
X77771523Y-69643238D01*
X77866761Y-69738476D01*
X77771523Y-69833714D01*
X77676285Y-69738476D01*
X77866761Y-69738476D01*
X77866761Y-67738476D02*
X77866761Y-68881333D01*
X77866761Y-68309904D02*
X75866761Y-68309904D01*
X76152476Y-68500380D01*
X76342952Y-68690857D01*
X76438190Y-68881333D01*
X77676285Y-66881333D02*
X77771523Y-66786095D01*
X77866761Y-66881333D01*
X77771523Y-66976571D01*
X77676285Y-66881333D01*
X77866761Y-66881333D01*
X75866761Y-65548000D02*
X75866761Y-65357523D01*
X75962000Y-65167047D01*
X76057238Y-65071809D01*
X76247714Y-64976571D01*
X76628666Y-64881333D01*
X77104857Y-64881333D01*
X77485809Y-64976571D01*
X77676285Y-65071809D01*
X77771523Y-65167047D01*
X77866761Y-65357523D01*
X77866761Y-65548000D01*
X77771523Y-65738476D01*
X77676285Y-65833714D01*
X77485809Y-65928952D01*
X77104857Y-66024190D01*
X76628666Y-66024190D01*
X76247714Y-65928952D01*
X76057238Y-65833714D01*
X75962000Y-65738476D01*
X75866761Y-65548000D01*
X77866761Y-57928952D02*
X75866761Y-57928952D01*
X77866761Y-56786095D02*
X76723904Y-57643238D01*
X75866761Y-56786095D02*
X77009619Y-57928952D01*
X77676285Y-55928952D02*
X77771523Y-55833714D01*
X77866761Y-55928952D01*
X77771523Y-56024190D01*
X77676285Y-55928952D01*
X77866761Y-55928952D01*
X78057238Y-53643238D02*
X77962000Y-53833714D01*
X77771523Y-54024190D01*
X77485809Y-54309904D01*
X77390571Y-54500380D01*
X77390571Y-54690857D01*
X77866761Y-54595619D02*
X77771523Y-54786095D01*
X77581047Y-54976571D01*
X77200095Y-55071809D01*
X76533428Y-55071809D01*
X76152476Y-54976571D01*
X75962000Y-54786095D01*
X75866761Y-54595619D01*
X75866761Y-54214666D01*
X75962000Y-54024190D01*
X76152476Y-53833714D01*
X76533428Y-53738476D01*
X77200095Y-53738476D01*
X77581047Y-53833714D01*
X77771523Y-54024190D01*
X77866761Y-54214666D01*
X77866761Y-54595619D01*
D10*
X152660304Y-101066400D02*
X151860304Y-101066400D01*
X151860304Y-100761638D01*
X151898400Y-100685447D01*
X151936495Y-100647352D01*
X152012685Y-100609257D01*
X152126971Y-100609257D01*
X152203161Y-100647352D01*
X152241257Y-100685447D01*
X152279352Y-100761638D01*
X152279352Y-101066400D01*
X151936495Y-100304495D02*
X151898400Y-100266400D01*
X151860304Y-100190209D01*
X151860304Y-99999733D01*
X151898400Y-99923542D01*
X151936495Y-99885447D01*
X152012685Y-99847352D01*
X152088876Y-99847352D01*
X152203161Y-99885447D01*
X152660304Y-100342590D01*
X152660304Y-99847352D01*
X151860304Y-99352114D02*
X151860304Y-99199733D01*
X151898400Y-99123542D01*
X151974590Y-99047352D01*
X152126971Y-99009257D01*
X152393638Y-99009257D01*
X152546019Y-99047352D01*
X152622209Y-99123542D01*
X152660304Y-99199733D01*
X152660304Y-99352114D01*
X152622209Y-99428304D01*
X152546019Y-99504495D01*
X152393638Y-99542590D01*
X152126971Y-99542590D01*
X151974590Y-99504495D01*
X151898400Y-99428304D01*
X151860304Y-99352114D01*
X152126971Y-98323542D02*
X152660304Y-98323542D01*
X152126971Y-98666400D02*
X152546019Y-98666400D01*
X152622209Y-98628304D01*
X152660304Y-98552114D01*
X152660304Y-98437828D01*
X152622209Y-98361638D01*
X152584114Y-98323542D01*
X152126971Y-98056876D02*
X152126971Y-97752114D01*
X151860304Y-97942590D02*
X152546019Y-97942590D01*
X152622209Y-97904495D01*
X152660304Y-97828304D01*
X152660304Y-97752114D01*
X121926304Y-101701295D02*
X121126304Y-101701295D01*
X121126304Y-101396533D01*
X121164400Y-101320342D01*
X121202495Y-101282247D01*
X121278685Y-101244152D01*
X121392971Y-101244152D01*
X121469161Y-101282247D01*
X121507257Y-101320342D01*
X121545352Y-101396533D01*
X121545352Y-101701295D01*
X121926304Y-100901295D02*
X121126304Y-100901295D01*
X121926304Y-100558438D02*
X121507257Y-100558438D01*
X121431066Y-100596533D01*
X121392971Y-100672723D01*
X121392971Y-100787009D01*
X121431066Y-100863200D01*
X121469161Y-100901295D01*
X121926304Y-99834628D02*
X121507257Y-99834628D01*
X121431066Y-99872723D01*
X121392971Y-99948914D01*
X121392971Y-100101295D01*
X121431066Y-100177485D01*
X121888209Y-99834628D02*
X121926304Y-99910819D01*
X121926304Y-100101295D01*
X121888209Y-100177485D01*
X121812019Y-100215580D01*
X121735828Y-100215580D01*
X121659638Y-100177485D01*
X121621542Y-100101295D01*
X121621542Y-99910819D01*
X121583447Y-99834628D01*
X121888209Y-99491771D02*
X121926304Y-99415580D01*
X121926304Y-99263200D01*
X121888209Y-99187009D01*
X121812019Y-99148914D01*
X121773923Y-99148914D01*
X121697733Y-99187009D01*
X121659638Y-99263200D01*
X121659638Y-99377485D01*
X121621542Y-99453676D01*
X121545352Y-99491771D01*
X121507257Y-99491771D01*
X121431066Y-99453676D01*
X121392971Y-99377485D01*
X121392971Y-99263200D01*
X121431066Y-99187009D01*
X121888209Y-98501295D02*
X121926304Y-98577485D01*
X121926304Y-98729866D01*
X121888209Y-98806057D01*
X121812019Y-98844152D01*
X121507257Y-98844152D01*
X121431066Y-98806057D01*
X121392971Y-98729866D01*
X121392971Y-98577485D01*
X121431066Y-98501295D01*
X121507257Y-98463200D01*
X121583447Y-98463200D01*
X121659638Y-98844152D01*
X121697733Y-98158438D02*
X121697733Y-97777485D01*
X121926304Y-98234628D02*
X121126304Y-97967961D01*
X121926304Y-97701295D01*
X121621542Y-97434628D02*
X121621542Y-96825104D01*
X150018704Y-101402933D02*
X149218704Y-101402933D01*
X149218704Y-101098171D01*
X149256800Y-101021980D01*
X149294895Y-100983885D01*
X149371085Y-100945790D01*
X149485371Y-100945790D01*
X149561561Y-100983885D01*
X149599657Y-101021980D01*
X149637752Y-101098171D01*
X149637752Y-101402933D01*
X150094895Y-100793409D02*
X150094895Y-100183885D01*
X149980609Y-100031504D02*
X150018704Y-99917219D01*
X150018704Y-99726742D01*
X149980609Y-99650552D01*
X149942514Y-99612457D01*
X149866323Y-99574361D01*
X149790133Y-99574361D01*
X149713942Y-99612457D01*
X149675847Y-99650552D01*
X149637752Y-99726742D01*
X149599657Y-99879123D01*
X149561561Y-99955314D01*
X149523466Y-99993409D01*
X149447276Y-100031504D01*
X149371085Y-100031504D01*
X149294895Y-99993409D01*
X149256800Y-99955314D01*
X149218704Y-99879123D01*
X149218704Y-99688647D01*
X149256800Y-99574361D01*
X149218704Y-99307695D02*
X150018704Y-99117219D01*
X149447276Y-98964838D01*
X150018704Y-98812457D01*
X149218704Y-98621980D01*
X150018704Y-97898171D02*
X150018704Y-98355314D01*
X150018704Y-98126742D02*
X149218704Y-98126742D01*
X149332990Y-98202933D01*
X149409180Y-98279123D01*
X149447276Y-98355314D01*
X112122000Y-85699523D02*
X112083904Y-85775714D01*
X112083904Y-85890000D01*
X112122000Y-86004285D01*
X112198190Y-86080476D01*
X112274380Y-86118571D01*
X112426761Y-86156666D01*
X112541047Y-86156666D01*
X112693428Y-86118571D01*
X112769619Y-86080476D01*
X112845809Y-86004285D01*
X112883904Y-85890000D01*
X112883904Y-85813809D01*
X112845809Y-85699523D01*
X112807714Y-85661428D01*
X112541047Y-85661428D01*
X112541047Y-85813809D01*
X112883904Y-85318571D02*
X112083904Y-85318571D01*
X112883904Y-84861428D01*
X112083904Y-84861428D01*
X112883904Y-84480476D02*
X112083904Y-84480476D01*
X112083904Y-84290000D01*
X112122000Y-84175714D01*
X112198190Y-84099523D01*
X112274380Y-84061428D01*
X112426761Y-84023333D01*
X112541047Y-84023333D01*
X112693428Y-84061428D01*
X112769619Y-84099523D01*
X112845809Y-84175714D01*
X112883904Y-84290000D01*
X112883904Y-84480476D01*
X113595200Y-99364723D02*
X113557104Y-99440914D01*
X113557104Y-99555200D01*
X113595200Y-99669485D01*
X113671390Y-99745676D01*
X113747580Y-99783771D01*
X113899961Y-99821866D01*
X114014247Y-99821866D01*
X114166628Y-99783771D01*
X114242819Y-99745676D01*
X114319009Y-99669485D01*
X114357104Y-99555200D01*
X114357104Y-99479009D01*
X114319009Y-99364723D01*
X114280914Y-99326628D01*
X114014247Y-99326628D01*
X114014247Y-99479009D01*
X114357104Y-98983771D02*
X113557104Y-98983771D01*
X114357104Y-98526628D01*
X113557104Y-98526628D01*
X114357104Y-98145676D02*
X113557104Y-98145676D01*
X113557104Y-97955200D01*
X113595200Y-97840914D01*
X113671390Y-97764723D01*
X113747580Y-97726628D01*
X113899961Y-97688533D01*
X114014247Y-97688533D01*
X114166628Y-97726628D01*
X114242819Y-97764723D01*
X114319009Y-97840914D01*
X114357104Y-97955200D01*
X114357104Y-98145676D01*
X127209504Y-91103200D02*
X126409504Y-91103200D01*
X126409504Y-90798438D01*
X126447600Y-90722247D01*
X126485695Y-90684152D01*
X126561885Y-90646057D01*
X126676171Y-90646057D01*
X126752361Y-90684152D01*
X126790457Y-90722247D01*
X126828552Y-90798438D01*
X126828552Y-91103200D01*
X127209504Y-90303200D02*
X126409504Y-90303200D01*
X127209504Y-89960342D02*
X126790457Y-89960342D01*
X126714266Y-89998438D01*
X126676171Y-90074628D01*
X126676171Y-90188914D01*
X126714266Y-90265104D01*
X126752361Y-90303200D01*
X127209504Y-89236533D02*
X126790457Y-89236533D01*
X126714266Y-89274628D01*
X126676171Y-89350819D01*
X126676171Y-89503200D01*
X126714266Y-89579390D01*
X127171409Y-89236533D02*
X127209504Y-89312723D01*
X127209504Y-89503200D01*
X127171409Y-89579390D01*
X127095219Y-89617485D01*
X127019028Y-89617485D01*
X126942838Y-89579390D01*
X126904742Y-89503200D01*
X126904742Y-89312723D01*
X126866647Y-89236533D01*
X127171409Y-88893676D02*
X127209504Y-88817485D01*
X127209504Y-88665104D01*
X127171409Y-88588914D01*
X127095219Y-88550819D01*
X127057123Y-88550819D01*
X126980933Y-88588914D01*
X126942838Y-88665104D01*
X126942838Y-88779390D01*
X126904742Y-88855580D01*
X126828552Y-88893676D01*
X126790457Y-88893676D01*
X126714266Y-88855580D01*
X126676171Y-88779390D01*
X126676171Y-88665104D01*
X126714266Y-88588914D01*
X127171409Y-87903200D02*
X127209504Y-87979390D01*
X127209504Y-88131771D01*
X127171409Y-88207961D01*
X127095219Y-88246057D01*
X126790457Y-88246057D01*
X126714266Y-88207961D01*
X126676171Y-88131771D01*
X126676171Y-87979390D01*
X126714266Y-87903200D01*
X126790457Y-87865104D01*
X126866647Y-87865104D01*
X126942838Y-88246057D01*
X126790457Y-87255580D02*
X126828552Y-87141295D01*
X126866647Y-87103200D01*
X126942838Y-87065104D01*
X127057123Y-87065104D01*
X127133314Y-87103200D01*
X127171409Y-87141295D01*
X127209504Y-87217485D01*
X127209504Y-87522247D01*
X126409504Y-87522247D01*
X126409504Y-87255580D01*
X126447600Y-87179390D01*
X126485695Y-87141295D01*
X126561885Y-87103200D01*
X126638076Y-87103200D01*
X126714266Y-87141295D01*
X126752361Y-87179390D01*
X126790457Y-87255580D01*
X126790457Y-87522247D01*
X155111409Y-101593409D02*
X155149504Y-101479123D01*
X155149504Y-101288647D01*
X155111409Y-101212457D01*
X155073314Y-101174361D01*
X154997123Y-101136266D01*
X154920933Y-101136266D01*
X154844742Y-101174361D01*
X154806647Y-101212457D01*
X154768552Y-101288647D01*
X154730457Y-101441028D01*
X154692361Y-101517219D01*
X154654266Y-101555314D01*
X154578076Y-101593409D01*
X154501885Y-101593409D01*
X154425695Y-101555314D01*
X154387600Y-101517219D01*
X154349504Y-101441028D01*
X154349504Y-101250552D01*
X154387600Y-101136266D01*
X155149504Y-100793409D02*
X154349504Y-100793409D01*
X155149504Y-100450552D02*
X154730457Y-100450552D01*
X154654266Y-100488647D01*
X154616171Y-100564838D01*
X154616171Y-100679123D01*
X154654266Y-100755314D01*
X154692361Y-100793409D01*
X154616171Y-99726742D02*
X155149504Y-99726742D01*
X154616171Y-100069600D02*
X155035219Y-100069600D01*
X155111409Y-100031504D01*
X155149504Y-99955314D01*
X155149504Y-99841028D01*
X155111409Y-99764838D01*
X155073314Y-99726742D01*
X154616171Y-99345790D02*
X155149504Y-99345790D01*
X154692361Y-99345790D02*
X154654266Y-99307695D01*
X154616171Y-99231504D01*
X154616171Y-99117219D01*
X154654266Y-99041028D01*
X154730457Y-99002933D01*
X155149504Y-99002933D01*
X154616171Y-98736266D02*
X154616171Y-98431504D01*
X154349504Y-98621980D02*
X155035219Y-98621980D01*
X155111409Y-98583885D01*
X155149504Y-98507695D01*
X155149504Y-98431504D01*
X154349504Y-98241028D02*
X154349504Y-97707695D01*
X155149504Y-98050552D01*
X157549809Y-91789009D02*
X157587904Y-91674723D01*
X157587904Y-91484247D01*
X157549809Y-91408057D01*
X157511714Y-91369961D01*
X157435523Y-91331866D01*
X157359333Y-91331866D01*
X157283142Y-91369961D01*
X157245047Y-91408057D01*
X157206952Y-91484247D01*
X157168857Y-91636628D01*
X157130761Y-91712819D01*
X157092666Y-91750914D01*
X157016476Y-91789009D01*
X156940285Y-91789009D01*
X156864095Y-91750914D01*
X156826000Y-91712819D01*
X156787904Y-91636628D01*
X156787904Y-91446152D01*
X156826000Y-91331866D01*
X157587904Y-90989009D02*
X156787904Y-90989009D01*
X157587904Y-90646152D02*
X157168857Y-90646152D01*
X157092666Y-90684247D01*
X157054571Y-90760438D01*
X157054571Y-90874723D01*
X157092666Y-90950914D01*
X157130761Y-90989009D01*
X157054571Y-89922342D02*
X157587904Y-89922342D01*
X157054571Y-90265200D02*
X157473619Y-90265200D01*
X157549809Y-90227104D01*
X157587904Y-90150914D01*
X157587904Y-90036628D01*
X157549809Y-89960438D01*
X157511714Y-89922342D01*
X157054571Y-89541390D02*
X157587904Y-89541390D01*
X157130761Y-89541390D02*
X157092666Y-89503295D01*
X157054571Y-89427104D01*
X157054571Y-89312819D01*
X157092666Y-89236628D01*
X157168857Y-89198533D01*
X157587904Y-89198533D01*
X157054571Y-88931866D02*
X157054571Y-88627104D01*
X156787904Y-88817580D02*
X157473619Y-88817580D01*
X157549809Y-88779485D01*
X157587904Y-88703295D01*
X157587904Y-88627104D01*
X156787904Y-88436628D02*
X156787904Y-87941390D01*
X157092666Y-88208057D01*
X157092666Y-88093771D01*
X157130761Y-88017580D01*
X157168857Y-87979485D01*
X157245047Y-87941390D01*
X157435523Y-87941390D01*
X157511714Y-87979485D01*
X157549809Y-88017580D01*
X157587904Y-88093771D01*
X157587904Y-88322342D01*
X157549809Y-88398533D01*
X157511714Y-88436628D01*
X122129504Y-91046057D02*
X121329504Y-91046057D01*
X121329504Y-90741295D01*
X121367600Y-90665104D01*
X121405695Y-90627009D01*
X121481885Y-90588914D01*
X121596171Y-90588914D01*
X121672361Y-90627009D01*
X121710457Y-90665104D01*
X121748552Y-90741295D01*
X121748552Y-91046057D01*
X122129504Y-90246057D02*
X121329504Y-90246057D01*
X122129504Y-89903200D02*
X121710457Y-89903200D01*
X121634266Y-89941295D01*
X121596171Y-90017485D01*
X121596171Y-90131771D01*
X121634266Y-90207961D01*
X121672361Y-90246057D01*
X122129504Y-89179390D02*
X121710457Y-89179390D01*
X121634266Y-89217485D01*
X121596171Y-89293676D01*
X121596171Y-89446057D01*
X121634266Y-89522247D01*
X122091409Y-89179390D02*
X122129504Y-89255580D01*
X122129504Y-89446057D01*
X122091409Y-89522247D01*
X122015219Y-89560342D01*
X121939028Y-89560342D01*
X121862838Y-89522247D01*
X121824742Y-89446057D01*
X121824742Y-89255580D01*
X121786647Y-89179390D01*
X122091409Y-88836533D02*
X122129504Y-88760342D01*
X122129504Y-88607961D01*
X122091409Y-88531771D01*
X122015219Y-88493676D01*
X121977123Y-88493676D01*
X121900933Y-88531771D01*
X121862838Y-88607961D01*
X121862838Y-88722247D01*
X121824742Y-88798438D01*
X121748552Y-88836533D01*
X121710457Y-88836533D01*
X121634266Y-88798438D01*
X121596171Y-88722247D01*
X121596171Y-88607961D01*
X121634266Y-88531771D01*
X122091409Y-87846057D02*
X122129504Y-87922247D01*
X122129504Y-88074628D01*
X122091409Y-88150819D01*
X122015219Y-88188914D01*
X121710457Y-88188914D01*
X121634266Y-88150819D01*
X121596171Y-88074628D01*
X121596171Y-87922247D01*
X121634266Y-87846057D01*
X121710457Y-87807961D01*
X121786647Y-87807961D01*
X121862838Y-88188914D01*
X121900933Y-87503200D02*
X121900933Y-87122247D01*
X122129504Y-87579390D02*
X121329504Y-87312723D01*
X122129504Y-87046057D01*
X124669504Y-91103200D02*
X123869504Y-91103200D01*
X123869504Y-90798438D01*
X123907600Y-90722247D01*
X123945695Y-90684152D01*
X124021885Y-90646057D01*
X124136171Y-90646057D01*
X124212361Y-90684152D01*
X124250457Y-90722247D01*
X124288552Y-90798438D01*
X124288552Y-91103200D01*
X124669504Y-90303200D02*
X123869504Y-90303200D01*
X124669504Y-89960342D02*
X124250457Y-89960342D01*
X124174266Y-89998438D01*
X124136171Y-90074628D01*
X124136171Y-90188914D01*
X124174266Y-90265104D01*
X124212361Y-90303200D01*
X124669504Y-89236533D02*
X124250457Y-89236533D01*
X124174266Y-89274628D01*
X124136171Y-89350819D01*
X124136171Y-89503200D01*
X124174266Y-89579390D01*
X124631409Y-89236533D02*
X124669504Y-89312723D01*
X124669504Y-89503200D01*
X124631409Y-89579390D01*
X124555219Y-89617485D01*
X124479028Y-89617485D01*
X124402838Y-89579390D01*
X124364742Y-89503200D01*
X124364742Y-89312723D01*
X124326647Y-89236533D01*
X124631409Y-88893676D02*
X124669504Y-88817485D01*
X124669504Y-88665104D01*
X124631409Y-88588914D01*
X124555219Y-88550819D01*
X124517123Y-88550819D01*
X124440933Y-88588914D01*
X124402838Y-88665104D01*
X124402838Y-88779390D01*
X124364742Y-88855580D01*
X124288552Y-88893676D01*
X124250457Y-88893676D01*
X124174266Y-88855580D01*
X124136171Y-88779390D01*
X124136171Y-88665104D01*
X124174266Y-88588914D01*
X124631409Y-87903200D02*
X124669504Y-87979390D01*
X124669504Y-88131771D01*
X124631409Y-88207961D01*
X124555219Y-88246057D01*
X124250457Y-88246057D01*
X124174266Y-88207961D01*
X124136171Y-88131771D01*
X124136171Y-87979390D01*
X124174266Y-87903200D01*
X124250457Y-87865104D01*
X124326647Y-87865104D01*
X124402838Y-88246057D01*
X124593314Y-87065104D02*
X124631409Y-87103200D01*
X124669504Y-87217485D01*
X124669504Y-87293676D01*
X124631409Y-87407961D01*
X124555219Y-87484152D01*
X124479028Y-87522247D01*
X124326647Y-87560342D01*
X124212361Y-87560342D01*
X124059980Y-87522247D01*
X123983790Y-87484152D01*
X123907600Y-87407961D01*
X123869504Y-87293676D01*
X123869504Y-87217485D01*
X123907600Y-87103200D01*
X123945695Y-87065104D01*
%TO.C,C15*%
X149687942Y-49216057D02*
X149735561Y-49263676D01*
X149783180Y-49406533D01*
X149783180Y-49501771D01*
X149735561Y-49644628D01*
X149640323Y-49739866D01*
X149545085Y-49787485D01*
X149354609Y-49835104D01*
X149211752Y-49835104D01*
X149021276Y-49787485D01*
X148926038Y-49739866D01*
X148830800Y-49644628D01*
X148783180Y-49501771D01*
X148783180Y-49406533D01*
X148830800Y-49263676D01*
X148878419Y-49216057D01*
X149783180Y-48263676D02*
X149783180Y-48835104D01*
X149783180Y-48549390D02*
X148783180Y-48549390D01*
X148926038Y-48644628D01*
X149021276Y-48739866D01*
X149068895Y-48835104D01*
X148783180Y-47358914D02*
X148783180Y-47835104D01*
X149259371Y-47882723D01*
X149211752Y-47835104D01*
X149164133Y-47739866D01*
X149164133Y-47501771D01*
X149211752Y-47406533D01*
X149259371Y-47358914D01*
X149354609Y-47311295D01*
X149592704Y-47311295D01*
X149687942Y-47358914D01*
X149735561Y-47406533D01*
X149783180Y-47501771D01*
X149783180Y-47739866D01*
X149735561Y-47835104D01*
X149687942Y-47882723D01*
D12*
%TO.C,C9*%
X138351783Y-50967807D02*
X138333035Y-50986555D01*
X138276792Y-51005302D01*
X138239297Y-51005302D01*
X138183054Y-50986555D01*
X138145558Y-50949059D01*
X138126811Y-50911564D01*
X138108063Y-50836573D01*
X138108063Y-50780330D01*
X138126811Y-50705340D01*
X138145558Y-50667844D01*
X138183054Y-50630349D01*
X138239297Y-50611601D01*
X138276792Y-50611601D01*
X138333035Y-50630349D01*
X138351783Y-50649097D01*
X138539259Y-51005302D02*
X138614250Y-51005302D01*
X138651745Y-50986555D01*
X138670493Y-50967807D01*
X138707988Y-50911564D01*
X138726736Y-50836573D01*
X138726736Y-50686592D01*
X138707988Y-50649097D01*
X138689241Y-50630349D01*
X138651745Y-50611601D01*
X138576755Y-50611601D01*
X138539259Y-50630349D01*
X138520512Y-50649097D01*
X138501764Y-50686592D01*
X138501764Y-50780330D01*
X138520512Y-50817826D01*
X138539259Y-50836573D01*
X138576755Y-50855321D01*
X138651745Y-50855321D01*
X138689241Y-50836573D01*
X138707988Y-50817826D01*
X138726736Y-50780330D01*
D10*
%TO.C,Q10*%
X219290971Y-71260819D02*
X219195733Y-71213200D01*
X219100495Y-71117961D01*
X218957638Y-70975104D01*
X218862400Y-70927485D01*
X218767161Y-70927485D01*
X218814780Y-71165580D02*
X218719542Y-71117961D01*
X218624304Y-71022723D01*
X218576685Y-70832247D01*
X218576685Y-70498914D01*
X218624304Y-70308438D01*
X218719542Y-70213200D01*
X218814780Y-70165580D01*
X219005257Y-70165580D01*
X219100495Y-70213200D01*
X219195733Y-70308438D01*
X219243352Y-70498914D01*
X219243352Y-70832247D01*
X219195733Y-71022723D01*
X219100495Y-71117961D01*
X219005257Y-71165580D01*
X218814780Y-71165580D01*
X220195733Y-71165580D02*
X219624304Y-71165580D01*
X219910019Y-71165580D02*
X219910019Y-70165580D01*
X219814780Y-70308438D01*
X219719542Y-70403676D01*
X219624304Y-70451295D01*
X220814780Y-70165580D02*
X220910019Y-70165580D01*
X221005257Y-70213200D01*
X221052876Y-70260819D01*
X221100495Y-70356057D01*
X221148114Y-70546533D01*
X221148114Y-70784628D01*
X221100495Y-70975104D01*
X221052876Y-71070342D01*
X221005257Y-71117961D01*
X220910019Y-71165580D01*
X220814780Y-71165580D01*
X220719542Y-71117961D01*
X220671923Y-71070342D01*
X220624304Y-70975104D01*
X220576685Y-70784628D01*
X220576685Y-70546533D01*
X220624304Y-70356057D01*
X220671923Y-70260819D01*
X220719542Y-70213200D01*
X220814780Y-70165580D01*
%TO.C,C2*%
X111339333Y-48007542D02*
X111291714Y-48055161D01*
X111148857Y-48102780D01*
X111053619Y-48102780D01*
X110910761Y-48055161D01*
X110815523Y-47959923D01*
X110767904Y-47864685D01*
X110720285Y-47674209D01*
X110720285Y-47531352D01*
X110767904Y-47340876D01*
X110815523Y-47245638D01*
X110910761Y-47150400D01*
X111053619Y-47102780D01*
X111148857Y-47102780D01*
X111291714Y-47150400D01*
X111339333Y-47198019D01*
X111720285Y-47198019D02*
X111767904Y-47150400D01*
X111863142Y-47102780D01*
X112101238Y-47102780D01*
X112196476Y-47150400D01*
X112244095Y-47198019D01*
X112291714Y-47293257D01*
X112291714Y-47388495D01*
X112244095Y-47531352D01*
X111672666Y-48102780D01*
X112291714Y-48102780D01*
D12*
%TO.C,C8*%
X138351783Y-45887807D02*
X138333035Y-45906555D01*
X138276792Y-45925302D01*
X138239297Y-45925302D01*
X138183054Y-45906555D01*
X138145558Y-45869059D01*
X138126811Y-45831564D01*
X138108063Y-45756573D01*
X138108063Y-45700330D01*
X138126811Y-45625340D01*
X138145558Y-45587844D01*
X138183054Y-45550349D01*
X138239297Y-45531601D01*
X138276792Y-45531601D01*
X138333035Y-45550349D01*
X138351783Y-45569097D01*
X138576755Y-45700330D02*
X138539259Y-45681583D01*
X138520512Y-45662835D01*
X138501764Y-45625340D01*
X138501764Y-45606592D01*
X138520512Y-45569097D01*
X138539259Y-45550349D01*
X138576755Y-45531601D01*
X138651745Y-45531601D01*
X138689241Y-45550349D01*
X138707988Y-45569097D01*
X138726736Y-45606592D01*
X138726736Y-45625340D01*
X138707988Y-45662835D01*
X138689241Y-45681583D01*
X138651745Y-45700330D01*
X138576755Y-45700330D01*
X138539259Y-45719078D01*
X138520512Y-45737826D01*
X138501764Y-45775321D01*
X138501764Y-45850312D01*
X138520512Y-45887807D01*
X138539259Y-45906555D01*
X138576755Y-45925302D01*
X138651745Y-45925302D01*
X138689241Y-45906555D01*
X138707988Y-45887807D01*
X138726736Y-45850312D01*
X138726736Y-45775321D01*
X138707988Y-45737826D01*
X138689241Y-45719078D01*
X138651745Y-45700330D01*
D10*
%TO.C,R6*%
X125489860Y-62488615D02*
X125823194Y-62964805D01*
X126061289Y-62488615D02*
X126061289Y-63488615D01*
X125680336Y-63488615D01*
X125585098Y-63440996D01*
X125537479Y-63393376D01*
X125489860Y-63298138D01*
X125489860Y-63155281D01*
X125537479Y-63060043D01*
X125585098Y-63012424D01*
X125680336Y-62964805D01*
X126061289Y-62964805D01*
X124632717Y-63488615D02*
X124823194Y-63488615D01*
X124918432Y-63440996D01*
X124966051Y-63393376D01*
X125061289Y-63250519D01*
X125108908Y-63060043D01*
X125108908Y-62679091D01*
X125061289Y-62583853D01*
X125013670Y-62536234D01*
X124918432Y-62488615D01*
X124727955Y-62488615D01*
X124632717Y-62536234D01*
X124585098Y-62583853D01*
X124537479Y-62679091D01*
X124537479Y-62917186D01*
X124585098Y-63012424D01*
X124632717Y-63060043D01*
X124727955Y-63107662D01*
X124918432Y-63107662D01*
X125013670Y-63060043D01*
X125061289Y-63012424D01*
X125108908Y-62917186D01*
%TO.C,D4*%
X156691104Y-67939875D02*
X156691104Y-66939875D01*
X156929200Y-66939875D01*
X157072057Y-66987495D01*
X157167295Y-67082733D01*
X157214914Y-67177971D01*
X157262533Y-67368447D01*
X157262533Y-67511304D01*
X157214914Y-67701780D01*
X157167295Y-67797018D01*
X157072057Y-67892256D01*
X156929200Y-67939875D01*
X156691104Y-67939875D01*
X158119676Y-67273209D02*
X158119676Y-67939875D01*
X157881580Y-66892256D02*
X157643485Y-67606542D01*
X158262533Y-67606542D01*
X152222200Y-67346580D02*
X152222200Y-67584676D01*
X151984104Y-67489438D02*
X152222200Y-67584676D01*
X152460295Y-67489438D01*
X152079342Y-67775152D02*
X152222200Y-67584676D01*
X152365057Y-67775152D01*
X152222200Y-67346580D02*
X152222200Y-67584676D01*
X151984104Y-67489438D02*
X152222200Y-67584676D01*
X152460295Y-67489438D01*
X152079342Y-67775152D02*
X152222200Y-67584676D01*
X152365057Y-67775152D01*
%TO.C,D1*%
X95908904Y-91711192D02*
X95908904Y-90711192D01*
X96147000Y-90711192D01*
X96289857Y-90758812D01*
X96385095Y-90854050D01*
X96432714Y-90949288D01*
X96480333Y-91139764D01*
X96480333Y-91282621D01*
X96432714Y-91473097D01*
X96385095Y-91568335D01*
X96289857Y-91663573D01*
X96147000Y-91711192D01*
X95908904Y-91711192D01*
X97432714Y-91711192D02*
X96861285Y-91711192D01*
X97147000Y-91711192D02*
X97147000Y-90711192D01*
X97051761Y-90854050D01*
X96956523Y-90949288D01*
X96861285Y-90996907D01*
X91440000Y-90824680D02*
X91440000Y-91062776D01*
X91201904Y-90967538D02*
X91440000Y-91062776D01*
X91678095Y-90967538D01*
X91297142Y-91253252D02*
X91440000Y-91062776D01*
X91582857Y-91253252D01*
X91440000Y-90824680D02*
X91440000Y-91062776D01*
X91201904Y-90967538D02*
X91440000Y-91062776D01*
X91678095Y-90967538D01*
X91297142Y-91253252D02*
X91440000Y-91062776D01*
X91582857Y-91253252D01*
D12*
%TO.C,C5*%
X138402583Y-61538207D02*
X138383835Y-61556955D01*
X138327592Y-61575702D01*
X138290097Y-61575702D01*
X138233854Y-61556955D01*
X138196358Y-61519459D01*
X138177611Y-61481964D01*
X138158863Y-61406973D01*
X138158863Y-61350730D01*
X138177611Y-61275740D01*
X138196358Y-61238244D01*
X138233854Y-61200749D01*
X138290097Y-61182001D01*
X138327592Y-61182001D01*
X138383835Y-61200749D01*
X138402583Y-61219497D01*
X138758788Y-61182001D02*
X138571312Y-61182001D01*
X138552564Y-61369478D01*
X138571312Y-61350730D01*
X138608807Y-61331983D01*
X138702545Y-61331983D01*
X138740041Y-61350730D01*
X138758788Y-61369478D01*
X138777536Y-61406973D01*
X138777536Y-61500712D01*
X138758788Y-61538207D01*
X138740041Y-61556955D01*
X138702545Y-61575702D01*
X138608807Y-61575702D01*
X138571312Y-61556955D01*
X138552564Y-61538207D01*
D10*
%TO.C,J4*%
X222543619Y-45894666D02*
X221829333Y-45894666D01*
X221686476Y-45847047D01*
X221591238Y-45751809D01*
X221543619Y-45608952D01*
X221543619Y-45513714D01*
X222210285Y-46799428D02*
X221543619Y-46799428D01*
X222591238Y-46561333D02*
X221876952Y-46323238D01*
X221876952Y-46942285D01*
D12*
%TO.C,C12*%
X203273106Y-83978607D02*
X203254358Y-83997355D01*
X203198115Y-84016102D01*
X203160620Y-84016102D01*
X203104377Y-83997355D01*
X203066882Y-83959859D01*
X203048134Y-83922364D01*
X203029386Y-83847373D01*
X203029386Y-83791130D01*
X203048134Y-83716140D01*
X203066882Y-83678644D01*
X203104377Y-83641149D01*
X203160620Y-83622401D01*
X203198115Y-83622401D01*
X203254358Y-83641149D01*
X203273106Y-83659897D01*
X203648059Y-84016102D02*
X203423087Y-84016102D01*
X203535573Y-84016102D02*
X203535573Y-83622401D01*
X203498078Y-83678644D01*
X203460583Y-83716140D01*
X203423087Y-83734887D01*
X203798041Y-83659897D02*
X203816788Y-83641149D01*
X203854284Y-83622401D01*
X203948022Y-83622401D01*
X203985517Y-83641149D01*
X204004265Y-83659897D01*
X204023013Y-83697392D01*
X204023013Y-83734887D01*
X204004265Y-83791130D01*
X203779293Y-84016102D01*
X204023013Y-84016102D01*
D10*
%TO.C,D5*%
X196419695Y-47312319D02*
X196419695Y-48312319D01*
X196181600Y-48312319D01*
X196038742Y-48264700D01*
X195943504Y-48169461D01*
X195895885Y-48074223D01*
X195848266Y-47883747D01*
X195848266Y-47740890D01*
X195895885Y-47550414D01*
X195943504Y-47455176D01*
X196038742Y-47359938D01*
X196181600Y-47312319D01*
X196419695Y-47312319D01*
X194943504Y-48312319D02*
X195419695Y-48312319D01*
X195467314Y-47836128D01*
X195419695Y-47883747D01*
X195324457Y-47931366D01*
X195086361Y-47931366D01*
X194991123Y-47883747D01*
X194943504Y-47836128D01*
X194895885Y-47740890D01*
X194895885Y-47502795D01*
X194943504Y-47407557D01*
X194991123Y-47359938D01*
X195086361Y-47312319D01*
X195324457Y-47312319D01*
X195419695Y-47359938D01*
X195467314Y-47407557D01*
X200888600Y-47880519D02*
X200888600Y-47642423D01*
X201126695Y-47737661D02*
X200888600Y-47642423D01*
X200650504Y-47737661D01*
X201031457Y-47451947D02*
X200888600Y-47642423D01*
X200745742Y-47451947D01*
X200888600Y-46785280D02*
X200888600Y-47023376D01*
X200650504Y-46928138D02*
X200888600Y-47023376D01*
X201126695Y-46928138D01*
X200745742Y-47213852D02*
X200888600Y-47023376D01*
X201031457Y-47213852D01*
%TO.C,Q4*%
X186835219Y-80410038D02*
X186787600Y-80505276D01*
X186692361Y-80600514D01*
X186549504Y-80743371D01*
X186501885Y-80838609D01*
X186501885Y-80933847D01*
X186739980Y-80886228D02*
X186692361Y-80981466D01*
X186597123Y-81076704D01*
X186406647Y-81124323D01*
X186073314Y-81124323D01*
X185882838Y-81076704D01*
X185787600Y-80981466D01*
X185739980Y-80886228D01*
X185739980Y-80695752D01*
X185787600Y-80600514D01*
X185882838Y-80505276D01*
X186073314Y-80457657D01*
X186406647Y-80457657D01*
X186597123Y-80505276D01*
X186692361Y-80600514D01*
X186739980Y-80695752D01*
X186739980Y-80886228D01*
X186073314Y-79600514D02*
X186739980Y-79600514D01*
X185692361Y-79838609D02*
X186406647Y-80076704D01*
X186406647Y-79457657D01*
D12*
%TO.C,C13*%
X213176207Y-75307693D02*
X213194955Y-75326441D01*
X213213702Y-75382684D01*
X213213702Y-75420179D01*
X213194955Y-75476422D01*
X213157459Y-75513917D01*
X213119964Y-75532665D01*
X213044973Y-75551413D01*
X212988730Y-75551413D01*
X212913740Y-75532665D01*
X212876244Y-75513917D01*
X212838749Y-75476422D01*
X212820001Y-75420179D01*
X212820001Y-75382684D01*
X212838749Y-75326441D01*
X212857497Y-75307693D01*
X213213702Y-74932740D02*
X213213702Y-75157712D01*
X213213702Y-75045226D02*
X212820001Y-75045226D01*
X212876244Y-75082721D01*
X212913740Y-75120216D01*
X212932487Y-75157712D01*
X212820001Y-74801506D02*
X212820001Y-74557786D01*
X212969983Y-74689020D01*
X212969983Y-74632777D01*
X212988730Y-74595282D01*
X213007478Y-74576534D01*
X213044973Y-74557786D01*
X213138712Y-74557786D01*
X213176207Y-74576534D01*
X213194955Y-74595282D01*
X213213702Y-74632777D01*
X213213702Y-74745263D01*
X213194955Y-74782758D01*
X213176207Y-74801506D01*
D10*
%TO.C,Q7*%
X210008819Y-76663851D02*
X209961200Y-76759089D01*
X209865961Y-76854327D01*
X209723104Y-76997184D01*
X209675485Y-77092422D01*
X209675485Y-77187660D01*
X209913580Y-77140041D02*
X209865961Y-77235279D01*
X209770723Y-77330517D01*
X209580247Y-77378136D01*
X209246914Y-77378136D01*
X209056438Y-77330517D01*
X208961200Y-77235279D01*
X208913580Y-77140041D01*
X208913580Y-76949565D01*
X208961200Y-76854327D01*
X209056438Y-76759089D01*
X209246914Y-76711470D01*
X209580247Y-76711470D01*
X209770723Y-76759089D01*
X209865961Y-76854327D01*
X209913580Y-76949565D01*
X209913580Y-77140041D01*
X208913580Y-76378136D02*
X208913580Y-75711470D01*
X209913580Y-76140041D01*
%TO.C,Q1*%
X108187619Y-88686238D02*
X108140000Y-88781476D01*
X108044761Y-88876714D01*
X107901904Y-89019571D01*
X107854285Y-89114809D01*
X107854285Y-89210047D01*
X108092380Y-89162428D02*
X108044761Y-89257666D01*
X107949523Y-89352904D01*
X107759047Y-89400523D01*
X107425714Y-89400523D01*
X107235238Y-89352904D01*
X107140000Y-89257666D01*
X107092380Y-89162428D01*
X107092380Y-88971952D01*
X107140000Y-88876714D01*
X107235238Y-88781476D01*
X107425714Y-88733857D01*
X107759047Y-88733857D01*
X107949523Y-88781476D01*
X108044761Y-88876714D01*
X108092380Y-88971952D01*
X108092380Y-89162428D01*
X108092380Y-87781476D02*
X108092380Y-88352904D01*
X108092380Y-88067190D02*
X107092380Y-88067190D01*
X107235238Y-88162428D01*
X107330476Y-88257666D01*
X107378095Y-88352904D01*
%TO.C,J5*%
X124457434Y-44743618D02*
X124457434Y-44029332D01*
X124505053Y-43886475D01*
X124600291Y-43791237D01*
X124743148Y-43743618D01*
X124838386Y-43743618D01*
X123505053Y-44743618D02*
X123981243Y-44743618D01*
X124028862Y-44267427D01*
X123981243Y-44315046D01*
X123886005Y-44362665D01*
X123647910Y-44362665D01*
X123552672Y-44315046D01*
X123505053Y-44267427D01*
X123457434Y-44172189D01*
X123457434Y-43934094D01*
X123505053Y-43838856D01*
X123552672Y-43791237D01*
X123647910Y-43743618D01*
X123886005Y-43743618D01*
X123981243Y-43791237D01*
X124028862Y-43838856D01*
%TO.C,Q9*%
X219767161Y-77462819D02*
X219671923Y-77415200D01*
X219576685Y-77319961D01*
X219433828Y-77177104D01*
X219338590Y-77129485D01*
X219243352Y-77129485D01*
X219290971Y-77367580D02*
X219195733Y-77319961D01*
X219100495Y-77224723D01*
X219052876Y-77034247D01*
X219052876Y-76700914D01*
X219100495Y-76510438D01*
X219195733Y-76415200D01*
X219290971Y-76367580D01*
X219481447Y-76367580D01*
X219576685Y-76415200D01*
X219671923Y-76510438D01*
X219719542Y-76700914D01*
X219719542Y-77034247D01*
X219671923Y-77224723D01*
X219576685Y-77319961D01*
X219481447Y-77367580D01*
X219290971Y-77367580D01*
X220195733Y-77367580D02*
X220386209Y-77367580D01*
X220481447Y-77319961D01*
X220529066Y-77272342D01*
X220624304Y-77129485D01*
X220671923Y-76939009D01*
X220671923Y-76558057D01*
X220624304Y-76462819D01*
X220576685Y-76415200D01*
X220481447Y-76367580D01*
X220290971Y-76367580D01*
X220195733Y-76415200D01*
X220148114Y-76462819D01*
X220100495Y-76558057D01*
X220100495Y-76796152D01*
X220148114Y-76891390D01*
X220195733Y-76939009D01*
X220290971Y-76986628D01*
X220481447Y-76986628D01*
X220576685Y-76939009D01*
X220624304Y-76891390D01*
X220671923Y-76796152D01*
%TO.C,R10*%
X183913542Y-40076380D02*
X183580209Y-39600190D01*
X183342114Y-40076380D02*
X183342114Y-39076380D01*
X183723066Y-39076380D01*
X183818304Y-39124000D01*
X183865923Y-39171619D01*
X183913542Y-39266857D01*
X183913542Y-39409714D01*
X183865923Y-39504952D01*
X183818304Y-39552571D01*
X183723066Y-39600190D01*
X183342114Y-39600190D01*
X184865923Y-40076380D02*
X184294495Y-40076380D01*
X184580209Y-40076380D02*
X184580209Y-39076380D01*
X184484971Y-39219238D01*
X184389733Y-39314476D01*
X184294495Y-39362095D01*
X185484971Y-39076380D02*
X185580209Y-39076380D01*
X185675447Y-39124000D01*
X185723066Y-39171619D01*
X185770685Y-39266857D01*
X185818304Y-39457333D01*
X185818304Y-39695428D01*
X185770685Y-39885904D01*
X185723066Y-39981142D01*
X185675447Y-40028761D01*
X185580209Y-40076380D01*
X185484971Y-40076380D01*
X185389733Y-40028761D01*
X185342114Y-39981142D01*
X185294495Y-39885904D01*
X185246876Y-39695428D01*
X185246876Y-39457333D01*
X185294495Y-39266857D01*
X185342114Y-39171619D01*
X185389733Y-39124000D01*
X185484971Y-39076380D01*
D12*
%TO.C,C7*%
X138351783Y-40807807D02*
X138333035Y-40826555D01*
X138276792Y-40845302D01*
X138239297Y-40845302D01*
X138183054Y-40826555D01*
X138145558Y-40789059D01*
X138126811Y-40751564D01*
X138108063Y-40676573D01*
X138108063Y-40620330D01*
X138126811Y-40545340D01*
X138145558Y-40507844D01*
X138183054Y-40470349D01*
X138239297Y-40451601D01*
X138276792Y-40451601D01*
X138333035Y-40470349D01*
X138351783Y-40489097D01*
X138483016Y-40451601D02*
X138745484Y-40451601D01*
X138576755Y-40845302D01*
%TO.C,C10*%
X145855306Y-56458207D02*
X145836558Y-56476955D01*
X145780315Y-56495702D01*
X145742820Y-56495702D01*
X145686577Y-56476955D01*
X145649082Y-56439459D01*
X145630334Y-56401964D01*
X145611586Y-56326973D01*
X145611586Y-56270730D01*
X145630334Y-56195740D01*
X145649082Y-56158244D01*
X145686577Y-56120749D01*
X145742820Y-56102001D01*
X145780315Y-56102001D01*
X145836558Y-56120749D01*
X145855306Y-56139497D01*
X146230259Y-56495702D02*
X146005287Y-56495702D01*
X146117773Y-56495702D02*
X146117773Y-56102001D01*
X146080278Y-56158244D01*
X146042783Y-56195740D01*
X146005287Y-56214487D01*
X146473979Y-56102001D02*
X146511474Y-56102001D01*
X146548970Y-56120749D01*
X146567717Y-56139497D01*
X146586465Y-56176992D01*
X146605213Y-56251983D01*
X146605213Y-56345721D01*
X146586465Y-56420712D01*
X146567717Y-56458207D01*
X146548970Y-56476955D01*
X146511474Y-56495702D01*
X146473979Y-56495702D01*
X146436484Y-56476955D01*
X146417736Y-56458207D01*
X146398988Y-56420712D01*
X146380241Y-56345721D01*
X146380241Y-56251983D01*
X146398988Y-56176992D01*
X146417736Y-56139497D01*
X146436484Y-56120749D01*
X146473979Y-56102001D01*
D10*
%TO.C,Q5*%
X178707219Y-80410038D02*
X178659600Y-80505276D01*
X178564361Y-80600514D01*
X178421504Y-80743371D01*
X178373885Y-80838609D01*
X178373885Y-80933847D01*
X178611980Y-80886228D02*
X178564361Y-80981466D01*
X178469123Y-81076704D01*
X178278647Y-81124323D01*
X177945314Y-81124323D01*
X177754838Y-81076704D01*
X177659600Y-80981466D01*
X177611980Y-80886228D01*
X177611980Y-80695752D01*
X177659600Y-80600514D01*
X177754838Y-80505276D01*
X177945314Y-80457657D01*
X178278647Y-80457657D01*
X178469123Y-80505276D01*
X178564361Y-80600514D01*
X178611980Y-80695752D01*
X178611980Y-80886228D01*
X177611980Y-79552895D02*
X177611980Y-80029085D01*
X178088171Y-80076704D01*
X178040552Y-80029085D01*
X177992933Y-79933847D01*
X177992933Y-79695752D01*
X178040552Y-79600514D01*
X178088171Y-79552895D01*
X178183409Y-79505276D01*
X178421504Y-79505276D01*
X178516742Y-79552895D01*
X178564361Y-79600514D01*
X178611980Y-79695752D01*
X178611980Y-79933847D01*
X178564361Y-80029085D01*
X178516742Y-80076704D01*
%TO.C,Q8*%
X203552819Y-76649238D02*
X203505200Y-76744476D01*
X203409961Y-76839714D01*
X203267104Y-76982571D01*
X203219485Y-77077809D01*
X203219485Y-77173047D01*
X203457580Y-77125428D02*
X203409961Y-77220666D01*
X203314723Y-77315904D01*
X203124247Y-77363523D01*
X202790914Y-77363523D01*
X202600438Y-77315904D01*
X202505200Y-77220666D01*
X202457580Y-77125428D01*
X202457580Y-76934952D01*
X202505200Y-76839714D01*
X202600438Y-76744476D01*
X202790914Y-76696857D01*
X203124247Y-76696857D01*
X203314723Y-76744476D01*
X203409961Y-76839714D01*
X203457580Y-76934952D01*
X203457580Y-77125428D01*
X202886152Y-76125428D02*
X202838533Y-76220666D01*
X202790914Y-76268285D01*
X202695676Y-76315904D01*
X202648057Y-76315904D01*
X202552819Y-76268285D01*
X202505200Y-76220666D01*
X202457580Y-76125428D01*
X202457580Y-75934952D01*
X202505200Y-75839714D01*
X202552819Y-75792095D01*
X202648057Y-75744476D01*
X202695676Y-75744476D01*
X202790914Y-75792095D01*
X202838533Y-75839714D01*
X202886152Y-75934952D01*
X202886152Y-76125428D01*
X202933771Y-76220666D01*
X202981390Y-76268285D01*
X203076628Y-76315904D01*
X203267104Y-76315904D01*
X203362342Y-76268285D01*
X203409961Y-76220666D01*
X203457580Y-76125428D01*
X203457580Y-75934952D01*
X203409961Y-75839714D01*
X203362342Y-75792095D01*
X203267104Y-75744476D01*
X203076628Y-75744476D01*
X202981390Y-75792095D01*
X202933771Y-75839714D01*
X202886152Y-75934952D01*
%TO.C,J6*%
X210055434Y-43211618D02*
X210055434Y-42497332D01*
X210103053Y-42354475D01*
X210198291Y-42259237D01*
X210341148Y-42211618D01*
X210436386Y-42211618D01*
X209150672Y-43211618D02*
X209341148Y-43211618D01*
X209436386Y-43163999D01*
X209484005Y-43116379D01*
X209579243Y-42973522D01*
X209626862Y-42783046D01*
X209626862Y-42402094D01*
X209579243Y-42306856D01*
X209531624Y-42259237D01*
X209436386Y-42211618D01*
X209245910Y-42211618D01*
X209150672Y-42259237D01*
X209103053Y-42306856D01*
X209055434Y-42402094D01*
X209055434Y-42640189D01*
X209103053Y-42735427D01*
X209150672Y-42783046D01*
X209245910Y-42830665D01*
X209436386Y-42830665D01*
X209531624Y-42783046D01*
X209579243Y-42735427D01*
X209626862Y-42640189D01*
%TO.C,R5*%
X125489860Y-67200621D02*
X125823194Y-67676811D01*
X126061289Y-67200621D02*
X126061289Y-68200621D01*
X125680336Y-68200621D01*
X125585098Y-68153002D01*
X125537479Y-68105382D01*
X125489860Y-68010144D01*
X125489860Y-67867287D01*
X125537479Y-67772049D01*
X125585098Y-67724430D01*
X125680336Y-67676811D01*
X126061289Y-67676811D01*
X124585098Y-68200621D02*
X125061289Y-68200621D01*
X125108908Y-67724430D01*
X125061289Y-67772049D01*
X124966051Y-67819668D01*
X124727955Y-67819668D01*
X124632717Y-67772049D01*
X124585098Y-67724430D01*
X124537479Y-67629192D01*
X124537479Y-67391097D01*
X124585098Y-67295859D01*
X124632717Y-67248240D01*
X124727955Y-67200621D01*
X124966051Y-67200621D01*
X125061289Y-67248240D01*
X125108908Y-67295859D01*
%TO.C,Q2*%
X112759619Y-70296638D02*
X112712000Y-70391876D01*
X112616761Y-70487114D01*
X112473904Y-70629971D01*
X112426285Y-70725209D01*
X112426285Y-70820447D01*
X112664380Y-70772828D02*
X112616761Y-70868066D01*
X112521523Y-70963304D01*
X112331047Y-71010923D01*
X111997714Y-71010923D01*
X111807238Y-70963304D01*
X111712000Y-70868066D01*
X111664380Y-70772828D01*
X111664380Y-70582352D01*
X111712000Y-70487114D01*
X111807238Y-70391876D01*
X111997714Y-70344257D01*
X112331047Y-70344257D01*
X112521523Y-70391876D01*
X112616761Y-70487114D01*
X112664380Y-70582352D01*
X112664380Y-70772828D01*
X111759619Y-69963304D02*
X111712000Y-69915685D01*
X111664380Y-69820447D01*
X111664380Y-69582352D01*
X111712000Y-69487114D01*
X111759619Y-69439495D01*
X111854857Y-69391876D01*
X111950095Y-69391876D01*
X112092952Y-69439495D01*
X112664380Y-70010923D01*
X112664380Y-69391876D01*
%TO.C,R4*%
X125489860Y-72105576D02*
X125823194Y-72581766D01*
X126061289Y-72105576D02*
X126061289Y-73105576D01*
X125680336Y-73105576D01*
X125585098Y-73057957D01*
X125537479Y-73010337D01*
X125489860Y-72915099D01*
X125489860Y-72772242D01*
X125537479Y-72677004D01*
X125585098Y-72629385D01*
X125680336Y-72581766D01*
X126061289Y-72581766D01*
X124632717Y-72772242D02*
X124632717Y-72105576D01*
X124870813Y-73153195D02*
X125108908Y-72438909D01*
X124489860Y-72438909D01*
%TO.C,D6*%
X204801695Y-46946051D02*
X204801695Y-47946051D01*
X204563600Y-47946051D01*
X204420742Y-47898432D01*
X204325504Y-47803193D01*
X204277885Y-47707955D01*
X204230266Y-47517479D01*
X204230266Y-47374622D01*
X204277885Y-47184146D01*
X204325504Y-47088908D01*
X204420742Y-46993670D01*
X204563600Y-46946051D01*
X204801695Y-46946051D01*
X203373123Y-47946051D02*
X203563600Y-47946051D01*
X203658838Y-47898432D01*
X203706457Y-47850812D01*
X203801695Y-47707955D01*
X203849314Y-47517479D01*
X203849314Y-47136527D01*
X203801695Y-47041289D01*
X203754076Y-46993670D01*
X203658838Y-46946051D01*
X203468361Y-46946051D01*
X203373123Y-46993670D01*
X203325504Y-47041289D01*
X203277885Y-47136527D01*
X203277885Y-47374622D01*
X203325504Y-47469860D01*
X203373123Y-47517479D01*
X203468361Y-47565098D01*
X203658838Y-47565098D01*
X203754076Y-47517479D01*
X203801695Y-47469860D01*
X203849314Y-47374622D01*
X209270600Y-47855119D02*
X209270600Y-47617023D01*
X209508695Y-47712261D02*
X209270600Y-47617023D01*
X209032504Y-47712261D01*
X209413457Y-47426547D02*
X209270600Y-47617023D01*
X209127742Y-47426547D01*
X209270600Y-46759880D02*
X209270600Y-46997976D01*
X209032504Y-46902738D02*
X209270600Y-46997976D01*
X209508695Y-46902738D01*
X209127742Y-47188452D02*
X209270600Y-46997976D01*
X209413457Y-47188452D01*
%TO.C,J1*%
X73364636Y-91844959D02*
X74078922Y-91844959D01*
X74221779Y-91892578D01*
X74317017Y-91987816D01*
X74364636Y-92130673D01*
X74364636Y-92225911D01*
X74364636Y-90844959D02*
X74364636Y-91416387D01*
X74364636Y-91130673D02*
X73364636Y-91130673D01*
X73507494Y-91225911D01*
X73602732Y-91321149D01*
X73650351Y-91416387D01*
%TO.C,C14*%
X178571257Y-56567743D02*
X178523638Y-56520124D01*
X178476019Y-56377267D01*
X178476019Y-56282029D01*
X178523638Y-56139172D01*
X178618876Y-56043934D01*
X178714114Y-55996315D01*
X178904590Y-55948696D01*
X179047447Y-55948696D01*
X179237923Y-55996315D01*
X179333161Y-56043934D01*
X179428400Y-56139172D01*
X179476019Y-56282029D01*
X179476019Y-56377267D01*
X179428400Y-56520124D01*
X179380780Y-56567743D01*
X178476019Y-57520124D02*
X178476019Y-56948696D01*
X178476019Y-57234410D02*
X179476019Y-57234410D01*
X179333161Y-57139172D01*
X179237923Y-57043934D01*
X179190304Y-56948696D01*
X179142685Y-58377267D02*
X178476019Y-58377267D01*
X179523638Y-58139172D02*
X178809352Y-57901077D01*
X178809352Y-58520124D01*
%TO.C,R7*%
X128706619Y-43267333D02*
X129182809Y-42934000D01*
X128706619Y-42695904D02*
X129706619Y-42695904D01*
X129706619Y-43076857D01*
X129659000Y-43172095D01*
X129611380Y-43219714D01*
X129516142Y-43267333D01*
X129373285Y-43267333D01*
X129278047Y-43219714D01*
X129230428Y-43172095D01*
X129182809Y-43076857D01*
X129182809Y-42695904D01*
X129706619Y-43600666D02*
X129706619Y-44267333D01*
X128706619Y-43838761D01*
%TO.C,C16*%
X163444979Y-46748355D02*
X163444979Y-46815699D01*
X163377635Y-46950386D01*
X163310292Y-47017729D01*
X163175605Y-47085073D01*
X163040918Y-47085073D01*
X162939903Y-47051401D01*
X162771544Y-46950386D01*
X162670529Y-46849371D01*
X162569513Y-46681012D01*
X162535842Y-46579997D01*
X162535842Y-46445310D01*
X162603185Y-46310623D01*
X162670529Y-46243279D01*
X162805216Y-46175936D01*
X162872559Y-46175936D01*
X164185758Y-46142264D02*
X163781697Y-46546325D01*
X163983727Y-46344294D02*
X163276620Y-45637187D01*
X163310292Y-45805546D01*
X163310292Y-45940233D01*
X163276620Y-46041249D01*
X164084742Y-44829065D02*
X163950055Y-44963752D01*
X163916384Y-45064768D01*
X163916384Y-45132111D01*
X163950055Y-45300470D01*
X164051071Y-45468829D01*
X164320445Y-45738203D01*
X164421460Y-45771874D01*
X164488803Y-45771874D01*
X164589819Y-45738203D01*
X164724506Y-45603516D01*
X164758177Y-45502500D01*
X164758177Y-45435157D01*
X164724506Y-45334142D01*
X164556147Y-45165783D01*
X164455132Y-45132111D01*
X164387788Y-45132111D01*
X164286773Y-45165783D01*
X164152086Y-45300470D01*
X164118414Y-45401485D01*
X164118414Y-45468829D01*
X164152086Y-45569844D01*
%TO.C,R2*%
X95715733Y-76906380D02*
X95382400Y-76430190D01*
X95144304Y-76906380D02*
X95144304Y-75906380D01*
X95525257Y-75906380D01*
X95620495Y-75954000D01*
X95668114Y-76001619D01*
X95715733Y-76096857D01*
X95715733Y-76239714D01*
X95668114Y-76334952D01*
X95620495Y-76382571D01*
X95525257Y-76430190D01*
X95144304Y-76430190D01*
X96096685Y-76001619D02*
X96144304Y-75954000D01*
X96239542Y-75906380D01*
X96477638Y-75906380D01*
X96572876Y-75954000D01*
X96620495Y-76001619D01*
X96668114Y-76096857D01*
X96668114Y-76192095D01*
X96620495Y-76334952D01*
X96049066Y-76906380D01*
X96668114Y-76906380D01*
%TO.C,J3*%
X223559619Y-77898666D02*
X222845333Y-77898666D01*
X222702476Y-77851047D01*
X222607238Y-77755809D01*
X222559619Y-77612952D01*
X222559619Y-77517714D01*
X223559619Y-78279619D02*
X223559619Y-78898666D01*
X223178666Y-78565333D01*
X223178666Y-78708190D01*
X223131047Y-78803428D01*
X223083428Y-78851047D01*
X222988190Y-78898666D01*
X222750095Y-78898666D01*
X222654857Y-78851047D01*
X222607238Y-78803428D01*
X222559619Y-78708190D01*
X222559619Y-78422476D01*
X222607238Y-78327238D01*
X222654857Y-78279619D01*
%TO.C,J2*%
X165681066Y-94448380D02*
X165681066Y-95162666D01*
X165633447Y-95305523D01*
X165538209Y-95400761D01*
X165395352Y-95448380D01*
X165300114Y-95448380D01*
X166109638Y-94543619D02*
X166157257Y-94496000D01*
X166252495Y-94448380D01*
X166490590Y-94448380D01*
X166585828Y-94496000D01*
X166633447Y-94543619D01*
X166681066Y-94638857D01*
X166681066Y-94734095D01*
X166633447Y-94876952D01*
X166062019Y-95448380D01*
X166681066Y-95448380D01*
%TO.C,R1*%
X94813380Y-96940666D02*
X94337190Y-97274000D01*
X94813380Y-97512095D02*
X93813380Y-97512095D01*
X93813380Y-97131142D01*
X93861000Y-97035904D01*
X93908619Y-96988285D01*
X94003857Y-96940666D01*
X94146714Y-96940666D01*
X94241952Y-96988285D01*
X94289571Y-97035904D01*
X94337190Y-97131142D01*
X94337190Y-97512095D01*
X94813380Y-95988285D02*
X94813380Y-96559714D01*
X94813380Y-96274000D02*
X93813380Y-96274000D01*
X93956238Y-96369238D01*
X94051476Y-96464476D01*
X94099095Y-96559714D01*
%TO.C,R11*%
X194467219Y-75811142D02*
X194943409Y-75477809D01*
X194467219Y-75239714D02*
X195467219Y-75239714D01*
X195467219Y-75620666D01*
X195419600Y-75715904D01*
X195371980Y-75763523D01*
X195276742Y-75811142D01*
X195133885Y-75811142D01*
X195038647Y-75763523D01*
X194991028Y-75715904D01*
X194943409Y-75620666D01*
X194943409Y-75239714D01*
X194467219Y-76763523D02*
X194467219Y-76192095D01*
X194467219Y-76477809D02*
X195467219Y-76477809D01*
X195324361Y-76382571D01*
X195229123Y-76287333D01*
X195181504Y-76192095D01*
X194467219Y-77715904D02*
X194467219Y-77144476D01*
X194467219Y-77430190D02*
X195467219Y-77430190D01*
X195324361Y-77334952D01*
X195229123Y-77239714D01*
X195181504Y-77144476D01*
%TO.C,Q3*%
X96630619Y-67032738D02*
X96583000Y-67127976D01*
X96487761Y-67223214D01*
X96344904Y-67366071D01*
X96297285Y-67461309D01*
X96297285Y-67556547D01*
X96535380Y-67508928D02*
X96487761Y-67604166D01*
X96392523Y-67699404D01*
X96202047Y-67747023D01*
X95868714Y-67747023D01*
X95678238Y-67699404D01*
X95583000Y-67604166D01*
X95535380Y-67508928D01*
X95535380Y-67318452D01*
X95583000Y-67223214D01*
X95678238Y-67127976D01*
X95868714Y-67080357D01*
X96202047Y-67080357D01*
X96392523Y-67127976D01*
X96487761Y-67223214D01*
X96535380Y-67318452D01*
X96535380Y-67508928D01*
X95535380Y-66747023D02*
X95535380Y-66127976D01*
X95916333Y-66461309D01*
X95916333Y-66318452D01*
X95963952Y-66223214D01*
X96011571Y-66175595D01*
X96106809Y-66127976D01*
X96344904Y-66127976D01*
X96440142Y-66175595D01*
X96487761Y-66223214D01*
X96535380Y-66318452D01*
X96535380Y-66604166D01*
X96487761Y-66699404D01*
X96440142Y-66747023D01*
%TO.C,D3*%
X84605904Y-70194582D02*
X84605904Y-69194582D01*
X84844000Y-69194582D01*
X84986857Y-69242202D01*
X85082095Y-69337440D01*
X85129714Y-69432678D01*
X85177333Y-69623154D01*
X85177333Y-69766011D01*
X85129714Y-69956487D01*
X85082095Y-70051725D01*
X84986857Y-70146963D01*
X84844000Y-70194582D01*
X84605904Y-70194582D01*
X85510666Y-69194582D02*
X86129714Y-69194582D01*
X85796380Y-69575535D01*
X85939238Y-69575535D01*
X86034476Y-69623154D01*
X86082095Y-69670773D01*
X86129714Y-69766011D01*
X86129714Y-70004106D01*
X86082095Y-70099344D01*
X86034476Y-70146963D01*
X85939238Y-70194582D01*
X85653523Y-70194582D01*
X85558285Y-70146963D01*
X85510666Y-70099344D01*
X80264000Y-69353180D02*
X80264000Y-69591276D01*
X80025904Y-69496038D02*
X80264000Y-69591276D01*
X80502095Y-69496038D01*
X80121142Y-69781752D02*
X80264000Y-69591276D01*
X80406857Y-69781752D01*
X80264000Y-69353180D02*
X80264000Y-69591276D01*
X80025904Y-69496038D02*
X80264000Y-69591276D01*
X80502095Y-69496038D01*
X80121142Y-69781752D02*
X80264000Y-69591276D01*
X80406857Y-69781752D01*
%TO.C,R3*%
X83510380Y-75858666D02*
X83034190Y-76192000D01*
X83510380Y-76430095D02*
X82510380Y-76430095D01*
X82510380Y-76049142D01*
X82558000Y-75953904D01*
X82605619Y-75906285D01*
X82700857Y-75858666D01*
X82843714Y-75858666D01*
X82938952Y-75906285D01*
X82986571Y-75953904D01*
X83034190Y-76049142D01*
X83034190Y-76430095D01*
X82510380Y-75525333D02*
X82510380Y-74906285D01*
X82891333Y-75239619D01*
X82891333Y-75096761D01*
X82938952Y-75001523D01*
X82986571Y-74953904D01*
X83081809Y-74906285D01*
X83319904Y-74906285D01*
X83415142Y-74953904D01*
X83462761Y-75001523D01*
X83510380Y-75096761D01*
X83510380Y-75382476D01*
X83462761Y-75477714D01*
X83415142Y-75525333D01*
D12*
%TO.C,C4*%
X138402583Y-56458207D02*
X138383835Y-56476955D01*
X138327592Y-56495702D01*
X138290097Y-56495702D01*
X138233854Y-56476955D01*
X138196358Y-56439459D01*
X138177611Y-56401964D01*
X138158863Y-56326973D01*
X138158863Y-56270730D01*
X138177611Y-56195740D01*
X138196358Y-56158244D01*
X138233854Y-56120749D01*
X138290097Y-56102001D01*
X138327592Y-56102001D01*
X138383835Y-56120749D01*
X138402583Y-56139497D01*
X138740041Y-56233235D02*
X138740041Y-56495702D01*
X138646302Y-56083254D02*
X138552564Y-56364469D01*
X138796284Y-56364469D01*
D10*
%TO.C,R8*%
X169020819Y-80046533D02*
X169497009Y-79713200D01*
X169020819Y-79475104D02*
X170020819Y-79475104D01*
X170020819Y-79856057D01*
X169973200Y-79951295D01*
X169925580Y-79998914D01*
X169830342Y-80046533D01*
X169687485Y-80046533D01*
X169592247Y-79998914D01*
X169544628Y-79951295D01*
X169497009Y-79856057D01*
X169497009Y-79475104D01*
X169592247Y-80617961D02*
X169639866Y-80522723D01*
X169687485Y-80475104D01*
X169782723Y-80427485D01*
X169830342Y-80427485D01*
X169925580Y-80475104D01*
X169973200Y-80522723D01*
X170020819Y-80617961D01*
X170020819Y-80808438D01*
X169973200Y-80903676D01*
X169925580Y-80951295D01*
X169830342Y-80998914D01*
X169782723Y-80998914D01*
X169687485Y-80951295D01*
X169639866Y-80903676D01*
X169592247Y-80808438D01*
X169592247Y-80617961D01*
X169544628Y-80522723D01*
X169497009Y-80475104D01*
X169401771Y-80427485D01*
X169211295Y-80427485D01*
X169116057Y-80475104D01*
X169068438Y-80522723D01*
X169020819Y-80617961D01*
X169020819Y-80808438D01*
X169068438Y-80903676D01*
X169116057Y-80951295D01*
X169211295Y-80998914D01*
X169401771Y-80998914D01*
X169497009Y-80951295D01*
X169544628Y-80903676D01*
X169592247Y-80808438D01*
D12*
%TO.C,C1*%
X157792607Y-85722016D02*
X157811355Y-85740764D01*
X157830102Y-85797007D01*
X157830102Y-85834502D01*
X157811355Y-85890745D01*
X157773859Y-85928241D01*
X157736364Y-85946988D01*
X157661373Y-85965736D01*
X157605130Y-85965736D01*
X157530140Y-85946988D01*
X157492644Y-85928241D01*
X157455149Y-85890745D01*
X157436401Y-85834502D01*
X157436401Y-85797007D01*
X157455149Y-85740764D01*
X157473897Y-85722016D01*
X157830102Y-85347063D02*
X157830102Y-85572035D01*
X157830102Y-85459549D02*
X157436401Y-85459549D01*
X157492644Y-85497044D01*
X157530140Y-85534540D01*
X157548887Y-85572035D01*
%TO.C,C3*%
X171681583Y-86977407D02*
X171662835Y-86996155D01*
X171606592Y-87014902D01*
X171569097Y-87014902D01*
X171512854Y-86996155D01*
X171475358Y-86958659D01*
X171456611Y-86921164D01*
X171437863Y-86846173D01*
X171437863Y-86789930D01*
X171456611Y-86714940D01*
X171475358Y-86677444D01*
X171512854Y-86639949D01*
X171569097Y-86621201D01*
X171606592Y-86621201D01*
X171662835Y-86639949D01*
X171681583Y-86658697D01*
X171812816Y-86621201D02*
X172056536Y-86621201D01*
X171925302Y-86771183D01*
X171981545Y-86771183D01*
X172019041Y-86789930D01*
X172037788Y-86808678D01*
X172056536Y-86846173D01*
X172056536Y-86939912D01*
X172037788Y-86977407D01*
X172019041Y-86996155D01*
X171981545Y-87014902D01*
X171869059Y-87014902D01*
X171831564Y-86996155D01*
X171812816Y-86977407D01*
D10*
%TO.C,Q6*%
X139278761Y-79993619D02*
X139183523Y-79946000D01*
X139088285Y-79850761D01*
X138945428Y-79707904D01*
X138850190Y-79660285D01*
X138754952Y-79660285D01*
X138802571Y-79898380D02*
X138707333Y-79850761D01*
X138612095Y-79755523D01*
X138564476Y-79565047D01*
X138564476Y-79231714D01*
X138612095Y-79041238D01*
X138707333Y-78946000D01*
X138802571Y-78898380D01*
X138993047Y-78898380D01*
X139088285Y-78946000D01*
X139183523Y-79041238D01*
X139231142Y-79231714D01*
X139231142Y-79565047D01*
X139183523Y-79755523D01*
X139088285Y-79850761D01*
X138993047Y-79898380D01*
X138802571Y-79898380D01*
X140088285Y-78898380D02*
X139897809Y-78898380D01*
X139802571Y-78946000D01*
X139754952Y-78993619D01*
X139659714Y-79136476D01*
X139612095Y-79326952D01*
X139612095Y-79707904D01*
X139659714Y-79803142D01*
X139707333Y-79850761D01*
X139802571Y-79898380D01*
X139993047Y-79898380D01*
X140088285Y-79850761D01*
X140135904Y-79803142D01*
X140183523Y-79707904D01*
X140183523Y-79469809D01*
X140135904Y-79374571D01*
X140088285Y-79326952D01*
X139993047Y-79279333D01*
X139802571Y-79279333D01*
X139707333Y-79326952D01*
X139659714Y-79374571D01*
X139612095Y-79469809D01*
%TO.C,D2*%
X100226904Y-73376592D02*
X100226904Y-72376592D01*
X100465000Y-72376592D01*
X100607857Y-72424212D01*
X100703095Y-72519450D01*
X100750714Y-72614688D01*
X100798333Y-72805164D01*
X100798333Y-72948021D01*
X100750714Y-73138497D01*
X100703095Y-73233735D01*
X100607857Y-73328973D01*
X100465000Y-73376592D01*
X100226904Y-73376592D01*
X101179285Y-72471831D02*
X101226904Y-72424212D01*
X101322142Y-72376592D01*
X101560238Y-72376592D01*
X101655476Y-72424212D01*
X101703095Y-72471831D01*
X101750714Y-72567069D01*
X101750714Y-72662307D01*
X101703095Y-72805164D01*
X101131666Y-73376592D01*
X101750714Y-73376592D01*
X95758000Y-72490080D02*
X95758000Y-72728176D01*
X95519904Y-72632938D02*
X95758000Y-72728176D01*
X95996095Y-72632938D01*
X95615142Y-72918652D02*
X95758000Y-72728176D01*
X95900857Y-72918652D01*
X95758000Y-72490080D02*
X95758000Y-72728176D01*
X95519904Y-72632938D02*
X95758000Y-72728176D01*
X95996095Y-72632938D01*
X95615142Y-72918652D02*
X95758000Y-72728176D01*
X95900857Y-72918652D01*
%TO.C,FL1*%
X155782971Y-79884495D02*
X155782971Y-80217828D01*
X156306780Y-80217828D02*
X155306780Y-80217828D01*
X155306780Y-79741638D01*
X156306780Y-78884495D02*
X156306780Y-79360685D01*
X155306780Y-79360685D01*
X156306780Y-78027352D02*
X156306780Y-78598780D01*
X156306780Y-78313066D02*
X155306780Y-78313066D01*
X155449638Y-78408304D01*
X155544876Y-78503542D01*
X155592495Y-78598780D01*
D12*
%TO.C,C11*%
X145855306Y-61538207D02*
X145836558Y-61556955D01*
X145780315Y-61575702D01*
X145742820Y-61575702D01*
X145686577Y-61556955D01*
X145649082Y-61519459D01*
X145630334Y-61481964D01*
X145611586Y-61406973D01*
X145611586Y-61350730D01*
X145630334Y-61275740D01*
X145649082Y-61238244D01*
X145686577Y-61200749D01*
X145742820Y-61182001D01*
X145780315Y-61182001D01*
X145836558Y-61200749D01*
X145855306Y-61219497D01*
X146230259Y-61575702D02*
X146005287Y-61575702D01*
X146117773Y-61575702D02*
X146117773Y-61182001D01*
X146080278Y-61238244D01*
X146042783Y-61275740D01*
X146005287Y-61294487D01*
X146605213Y-61575702D02*
X146380241Y-61575702D01*
X146492727Y-61575702D02*
X146492727Y-61182001D01*
X146455231Y-61238244D01*
X146417736Y-61275740D01*
X146380241Y-61294487D01*
%TO.C,C6*%
X138351783Y-35985807D02*
X138333035Y-36004555D01*
X138276792Y-36023302D01*
X138239297Y-36023302D01*
X138183054Y-36004555D01*
X138145558Y-35967059D01*
X138126811Y-35929564D01*
X138108063Y-35854573D01*
X138108063Y-35798330D01*
X138126811Y-35723340D01*
X138145558Y-35685844D01*
X138183054Y-35648349D01*
X138239297Y-35629601D01*
X138276792Y-35629601D01*
X138333035Y-35648349D01*
X138351783Y-35667097D01*
X138689241Y-35629601D02*
X138614250Y-35629601D01*
X138576755Y-35648349D01*
X138558007Y-35667097D01*
X138520512Y-35723340D01*
X138501764Y-35798330D01*
X138501764Y-35948312D01*
X138520512Y-35985807D01*
X138539259Y-36004555D01*
X138576755Y-36023302D01*
X138651745Y-36023302D01*
X138689241Y-36004555D01*
X138707988Y-35985807D01*
X138726736Y-35948312D01*
X138726736Y-35854573D01*
X138707988Y-35817078D01*
X138689241Y-35798330D01*
X138651745Y-35779583D01*
X138576755Y-35779583D01*
X138539259Y-35798330D01*
X138520512Y-35817078D01*
X138501764Y-35854573D01*
D10*
%TO.C,Q11*%
X192780019Y-65625028D02*
X192732400Y-65720266D01*
X192637161Y-65815504D01*
X192494304Y-65958361D01*
X192446685Y-66053600D01*
X192446685Y-66148838D01*
X192684780Y-66101219D02*
X192637161Y-66196457D01*
X192541923Y-66291695D01*
X192351447Y-66339314D01*
X192018114Y-66339314D01*
X191827638Y-66291695D01*
X191732400Y-66196457D01*
X191684780Y-66101219D01*
X191684780Y-65910742D01*
X191732400Y-65815504D01*
X191827638Y-65720266D01*
X192018114Y-65672647D01*
X192351447Y-65672647D01*
X192541923Y-65720266D01*
X192637161Y-65815504D01*
X192684780Y-65910742D01*
X192684780Y-66101219D01*
X192684780Y-64720266D02*
X192684780Y-65291695D01*
X192684780Y-65005980D02*
X191684780Y-65005980D01*
X191827638Y-65101219D01*
X191922876Y-65196457D01*
X191970495Y-65291695D01*
X192684780Y-63767885D02*
X192684780Y-64339314D01*
X192684780Y-64053600D02*
X191684780Y-64053600D01*
X191827638Y-64148838D01*
X191922876Y-64244076D01*
X191970495Y-64339314D01*
%TO.C,Q12*%
X201162019Y-65697028D02*
X201114400Y-65792266D01*
X201019161Y-65887504D01*
X200876304Y-66030361D01*
X200828685Y-66125600D01*
X200828685Y-66220838D01*
X201066780Y-66173219D02*
X201019161Y-66268457D01*
X200923923Y-66363695D01*
X200733447Y-66411314D01*
X200400114Y-66411314D01*
X200209638Y-66363695D01*
X200114400Y-66268457D01*
X200066780Y-66173219D01*
X200066780Y-65982742D01*
X200114400Y-65887504D01*
X200209638Y-65792266D01*
X200400114Y-65744647D01*
X200733447Y-65744647D01*
X200923923Y-65792266D01*
X201019161Y-65887504D01*
X201066780Y-65982742D01*
X201066780Y-66173219D01*
X201066780Y-64792266D02*
X201066780Y-65363695D01*
X201066780Y-65077980D02*
X200066780Y-65077980D01*
X200209638Y-65173219D01*
X200304876Y-65268457D01*
X200352495Y-65363695D01*
X200162019Y-64411314D02*
X200114400Y-64363695D01*
X200066780Y-64268457D01*
X200066780Y-64030361D01*
X200114400Y-63935123D01*
X200162019Y-63887504D01*
X200257257Y-63839885D01*
X200352495Y-63839885D01*
X200495352Y-63887504D01*
X201066780Y-64458933D01*
X201066780Y-63839885D01*
%TO.C,R12*%
X211272380Y-63380857D02*
X210796190Y-63714190D01*
X211272380Y-63952285D02*
X210272380Y-63952285D01*
X210272380Y-63571333D01*
X210320000Y-63476095D01*
X210367619Y-63428476D01*
X210462857Y-63380857D01*
X210605714Y-63380857D01*
X210700952Y-63428476D01*
X210748571Y-63476095D01*
X210796190Y-63571333D01*
X210796190Y-63952285D01*
X211272380Y-62428476D02*
X211272380Y-62999904D01*
X211272380Y-62714190D02*
X210272380Y-62714190D01*
X210415238Y-62809428D01*
X210510476Y-62904666D01*
X210558095Y-62999904D01*
X210367619Y-62047523D02*
X210320000Y-61999904D01*
X210272380Y-61904666D01*
X210272380Y-61666571D01*
X210320000Y-61571333D01*
X210367619Y-61523714D01*
X210462857Y-61476095D01*
X210558095Y-61476095D01*
X210700952Y-61523714D01*
X211272380Y-62095142D01*
X211272380Y-61476095D01*
%TO.C,R9*%
X147283466Y-52328819D02*
X147616800Y-52805009D01*
X147854895Y-52328819D02*
X147854895Y-53328819D01*
X147473942Y-53328819D01*
X147378704Y-53281200D01*
X147331085Y-53233580D01*
X147283466Y-53138342D01*
X147283466Y-52995485D01*
X147331085Y-52900247D01*
X147378704Y-52852628D01*
X147473942Y-52805009D01*
X147854895Y-52805009D01*
X146807276Y-52328819D02*
X146616800Y-52328819D01*
X146521561Y-52376438D01*
X146473942Y-52424057D01*
X146378704Y-52566914D01*
X146331085Y-52757390D01*
X146331085Y-53138342D01*
X146378704Y-53233580D01*
X146426323Y-53281200D01*
X146521561Y-53328819D01*
X146712038Y-53328819D01*
X146807276Y-53281200D01*
X146854895Y-53233580D01*
X146902514Y-53138342D01*
X146902514Y-52900247D01*
X146854895Y-52805009D01*
X146807276Y-52757390D01*
X146712038Y-52709771D01*
X146521561Y-52709771D01*
X146426323Y-52757390D01*
X146378704Y-52805009D01*
X146331085Y-52900247D01*
D13*
%TO.C,C15*%
X153670000Y-53568600D02*
X153670000Y-52298600D01*
X153035000Y-52933600D02*
X154305000Y-52933600D01*
X160299400Y-45542200D02*
G75*
G03*
X160299400Y-45542200I-6629400J0D01*
G01*
D14*
%TO.C,C9*%
X139267400Y-54127200D02*
X139787400Y-54127200D01*
X139267400Y-51427200D02*
X139787400Y-51427200D01*
D15*
%TO.C,Q10*%
X221662400Y-65303200D02*
X218062400Y-65303200D01*
X219862400Y-69753201D02*
G75*
G03*
X221700878Y-65314722I0J2600001D01*
G01*
X218023922Y-65314722D02*
G75*
G03*
X219862400Y-69753200I1838478J-1838478D01*
G01*
D13*
%TO.C,C2*%
X111861600Y-50927000D02*
X111861600Y-52197000D01*
X111226600Y-51562000D02*
X112496600Y-51562000D01*
X125882400Y-51562000D02*
G75*
G03*
X125882400Y-51562000I-6629400J0D01*
G01*
D14*
%TO.C,C8*%
X139267400Y-46347200D02*
X139787400Y-46347200D01*
X139267400Y-49047200D02*
X139787400Y-49047200D01*
D13*
%TO.C,R6*%
X124780746Y-63867994D02*
X125865642Y-63867994D01*
X125865642Y-62013998D02*
X124780746Y-62013998D01*
%TO.C,D4*%
X155575000Y-65062100D02*
X155575000Y-66332100D01*
X154000200Y-64579500D02*
X156921200Y-64579500D01*
X154416760Y-58229500D02*
X154000200Y-58229500D01*
X160858200Y-64579500D02*
X160858200Y-58229500D01*
X156921200Y-64579500D02*
X156921200Y-65392300D01*
X159283400Y-65062100D02*
X159283400Y-66332100D01*
X160858200Y-58229500D02*
X160441640Y-58229500D01*
X156921200Y-65392300D02*
X157937200Y-65392300D01*
X157937200Y-65392300D02*
X157937200Y-64579500D01*
X154711400Y-65062100D02*
X154711400Y-66332100D01*
X154000200Y-58229500D02*
X154000200Y-64579500D01*
X157937200Y-64579500D02*
X160858200Y-64579500D01*
X160147000Y-65062100D02*
X160147000Y-66332100D01*
%TO.C,D1*%
X99364800Y-88540200D02*
X99364800Y-89810200D01*
X100076000Y-81707600D02*
X99659440Y-81707600D01*
X97155000Y-88870400D02*
X97155000Y-88057600D01*
X93929200Y-88540200D02*
X93929200Y-89810200D01*
X96139000Y-88870400D02*
X97155000Y-88870400D01*
X93218000Y-81707600D02*
X93218000Y-88057600D01*
X94792800Y-88540200D02*
X94792800Y-89810200D01*
X97155000Y-88057600D02*
X100076000Y-88057600D01*
X93634560Y-81707600D02*
X93218000Y-81707600D01*
X96139000Y-88057600D02*
X96139000Y-88870400D01*
X93218000Y-88057600D02*
X96139000Y-88057600D01*
X100076000Y-88057600D02*
X100076000Y-81707600D01*
X98501200Y-88540200D02*
X98501200Y-89810200D01*
D14*
%TO.C,C5*%
X139318200Y-64697600D02*
X139838200Y-64697600D01*
X139318200Y-61997600D02*
X139838200Y-61997600D01*
D13*
%TO.C,J4*%
X223829000Y-62833900D02*
X223829000Y-47579899D01*
X223829000Y-47579899D02*
X214575000Y-47579899D01*
X214575000Y-47579899D02*
X214575000Y-62833900D01*
X214575000Y-62833900D02*
X223829000Y-62833900D01*
D16*
X219582999Y-45801899D02*
G75*
G03*
X219582999Y-45801899I-381000J0D01*
G01*
D14*
%TO.C,C12*%
X202676200Y-80538000D02*
X202156200Y-80538000D01*
X202676200Y-83238000D02*
X202156200Y-83238000D01*
D13*
%TO.C,D5*%
X196189600Y-49834800D02*
X195173600Y-49834800D01*
X192252600Y-56997600D02*
X192669160Y-56997600D01*
X195173600Y-50647600D02*
X192252600Y-50647600D01*
X199110600Y-50647600D02*
X196189600Y-50647600D01*
X196189600Y-50647600D02*
X196189600Y-49834800D01*
X199110600Y-56997600D02*
X199110600Y-50647600D01*
X195173600Y-49834800D02*
X195173600Y-50647600D01*
X198399400Y-50165000D02*
X198399400Y-48895000D01*
X193827400Y-50165000D02*
X193827400Y-48895000D01*
X197535800Y-50165000D02*
X197535800Y-48895000D01*
X192252600Y-50647600D02*
X192252600Y-56997600D01*
X198694040Y-56997600D02*
X199110600Y-56997600D01*
X192963800Y-50165000D02*
X192963800Y-48895000D01*
D15*
%TO.C,Q4*%
X180877600Y-78514800D02*
X180877600Y-82114800D01*
X180889122Y-82153278D02*
G75*
G03*
X185327600Y-80314800I1838478J1838478D01*
G01*
X185327601Y-80314800D02*
G75*
G03*
X180889122Y-78476322I-2600001J0D01*
G01*
D14*
%TO.C,C13*%
X213635600Y-74204600D02*
X213635600Y-73684600D01*
X216335600Y-74204600D02*
X216335600Y-73684600D01*
D15*
%TO.C,Q7*%
X204051200Y-74768613D02*
X204051200Y-78368613D01*
X204062722Y-78407091D02*
G75*
G03*
X208501200Y-76568613I1838478J1838478D01*
G01*
X208501201Y-76568613D02*
G75*
G03*
X204062722Y-74730135I-2600001J0D01*
G01*
%TO.C,Q1*%
X106710000Y-85191000D02*
X106710000Y-91536000D01*
X101570000Y-85646000D02*
X101570000Y-91536000D01*
D13*
%TO.C,J5*%
X107092100Y-34489000D02*
X107092100Y-43743000D01*
X107092100Y-43743000D02*
X122346101Y-43743000D01*
X122346101Y-43743000D02*
X122346101Y-34489000D01*
X122346101Y-34489000D02*
X107092100Y-34489000D01*
D16*
X124505101Y-39115999D02*
G75*
G03*
X124505101Y-39115999I-381000J0D01*
G01*
D15*
%TO.C,Q9*%
X221662400Y-71505200D02*
X218062400Y-71505200D01*
X219862400Y-75955201D02*
G75*
G03*
X221700878Y-71516722I0J2600001D01*
G01*
X218023922Y-71516722D02*
G75*
G03*
X219862400Y-75955200I1838478J-1838478D01*
G01*
D13*
%TO.C,R10*%
X183688949Y-40601000D02*
X185423851Y-40601000D01*
X185423851Y-38647000D02*
X183688949Y-38647000D01*
D14*
%TO.C,C7*%
X139267400Y-43967200D02*
X139787400Y-43967200D01*
X139267400Y-41267200D02*
X139787400Y-41267200D01*
%TO.C,C10*%
X146958400Y-59617600D02*
X147478400Y-59617600D01*
X146958400Y-56917600D02*
X147478400Y-56917600D01*
D15*
%TO.C,Q5*%
X172749600Y-78514800D02*
X172749600Y-82114800D01*
X177199601Y-80314800D02*
G75*
G03*
X172761122Y-78476322I-2600001J0D01*
G01*
X172761122Y-82153278D02*
G75*
G03*
X177199600Y-80314800I1838478J1838478D01*
G01*
%TO.C,Q8*%
X197595200Y-74754000D02*
X197595200Y-78354000D01*
X202045201Y-76554000D02*
G75*
G03*
X197606722Y-74715522I-2600001J0D01*
G01*
X197606722Y-78392478D02*
G75*
G03*
X202045200Y-76554000I1838478J1838478D01*
G01*
D13*
%TO.C,J6*%
X207944101Y-44251000D02*
X207944101Y-34997000D01*
X192690100Y-44251000D02*
X207944101Y-44251000D01*
X192690100Y-34997000D02*
X192690100Y-44251000D01*
X207944101Y-34997000D02*
X192690100Y-34997000D01*
D16*
X210103101Y-39623999D02*
G75*
G03*
X210103101Y-39623999I-381000J0D01*
G01*
D13*
%TO.C,R5*%
X124780746Y-68580000D02*
X125865642Y-68580000D01*
X125865642Y-66726004D02*
X124780746Y-66726004D01*
D15*
%TO.C,Q2*%
X111282000Y-66801400D02*
X111282000Y-73146400D01*
X106142000Y-67256400D02*
X106142000Y-73146400D01*
D13*
%TO.C,R4*%
X124780746Y-73484955D02*
X125865642Y-73484955D01*
X125865642Y-71630959D02*
X124780746Y-71630959D01*
%TO.C,D6*%
X204571600Y-50622200D02*
X204571600Y-49809400D01*
X207492600Y-50622200D02*
X204571600Y-50622200D01*
X204571600Y-49809400D02*
X203555600Y-49809400D01*
X203555600Y-50622200D02*
X200634600Y-50622200D01*
X201345800Y-50139600D02*
X201345800Y-48869600D01*
X205917800Y-50139600D02*
X205917800Y-48869600D01*
X206781400Y-50139600D02*
X206781400Y-48869600D01*
X200634600Y-50622200D02*
X200634600Y-56972200D01*
X202209400Y-50139600D02*
X202209400Y-48869600D01*
X200634600Y-56972200D02*
X201051160Y-56972200D01*
X203555600Y-49809400D02*
X203555600Y-50622200D01*
X207076040Y-56972200D02*
X207492600Y-56972200D01*
X207492600Y-56972200D02*
X207492600Y-50622200D01*
%TO.C,J1*%
X84764000Y-99232101D02*
X84764000Y-83978100D01*
X75510000Y-83978100D02*
X75510000Y-99232101D01*
X84764000Y-83978100D02*
X75510000Y-83978100D01*
X75510000Y-99232101D02*
X84764000Y-99232101D01*
D16*
X80518001Y-101010101D02*
G75*
G03*
X80518001Y-101010101I-381000J0D01*
G01*
D13*
%TO.C,C14*%
X173278800Y-55549800D02*
X173278800Y-56819800D01*
X173913800Y-56184800D02*
X172643800Y-56184800D01*
X179908200Y-63576200D02*
G75*
G03*
X179908200Y-63576200I-6629400J0D01*
G01*
%TO.C,R7*%
X130136000Y-44301451D02*
X130136000Y-42566549D01*
X128182000Y-42566549D02*
X128182000Y-44301451D01*
%TO.C,C16*%
X167214929Y-49565045D02*
X168112955Y-50463071D01*
X167214929Y-50463071D02*
X168112955Y-49565045D01*
X179519851Y-44787549D02*
G75*
G03*
X179519851Y-44787549I-6629400J0D01*
G01*
%TO.C,R2*%
X95014949Y-77431000D02*
X96749851Y-77431000D01*
X96749851Y-75477000D02*
X95014949Y-75477000D01*
%TO.C,J3*%
X223829000Y-80091899D02*
X214575000Y-80091899D01*
X223829000Y-95345900D02*
X223829000Y-80091899D01*
X214575000Y-80091899D02*
X214575000Y-95345900D01*
X214575000Y-95345900D02*
X223829000Y-95345900D01*
D16*
X219582999Y-78313899D02*
G75*
G03*
X219582999Y-78313899I-381000J0D01*
G01*
D17*
%TO.C,J2*%
X112521000Y-92267000D02*
X163831000Y-92267000D01*
X112521000Y-97217000D02*
X112521000Y-92267000D01*
X163831000Y-92267000D02*
X163831000Y-97217000D01*
X163831000Y-97217000D02*
X112521000Y-97217000D01*
X111871000Y-93472000D02*
G75*
G03*
X111871000Y-93472000I-100000J0D01*
G01*
D13*
%TO.C,R1*%
X95338000Y-97641451D02*
X95338000Y-95906549D01*
X93384000Y-95906549D02*
X93384000Y-97641451D01*
%TO.C,R11*%
X193942600Y-75586549D02*
X193942600Y-77321451D01*
X195896600Y-77321451D02*
X195896600Y-75586549D01*
D15*
%TO.C,Q3*%
X95153000Y-63537500D02*
X95153000Y-69882500D01*
X90013000Y-63992500D02*
X90013000Y-69882500D01*
D13*
%TO.C,D3*%
X88061800Y-67068700D02*
X88061800Y-68338700D01*
X81915000Y-60236100D02*
X81915000Y-66586100D01*
X87198200Y-67068700D02*
X87198200Y-68338700D01*
X81915000Y-66586100D02*
X84836000Y-66586100D01*
X85852000Y-67398900D02*
X85852000Y-66586100D01*
X88773000Y-60236100D02*
X88356440Y-60236100D01*
X82331560Y-60236100D02*
X81915000Y-60236100D01*
X85852000Y-66586100D02*
X88773000Y-66586100D01*
X88773000Y-66586100D02*
X88773000Y-60236100D01*
X82626200Y-67068700D02*
X82626200Y-68338700D01*
X83489800Y-67068700D02*
X83489800Y-68338700D01*
X84836000Y-67398900D02*
X85852000Y-67398900D01*
X84836000Y-66586100D02*
X84836000Y-67398900D01*
%TO.C,R3*%
X82081000Y-74824549D02*
X82081000Y-76559451D01*
X84035000Y-76559451D02*
X84035000Y-74824549D01*
D14*
%TO.C,C4*%
X139318200Y-59617600D02*
X139838200Y-59617600D01*
X139318200Y-56917600D02*
X139838200Y-56917600D01*
D13*
%TO.C,R8*%
X170400198Y-80755648D02*
X170400198Y-79670752D01*
X168546202Y-79670752D02*
X168546202Y-80755648D01*
D14*
%TO.C,C1*%
X154352000Y-86506400D02*
X154352000Y-87026400D01*
X157052000Y-86506400D02*
X157052000Y-87026400D01*
%TO.C,C3*%
X170897200Y-83536800D02*
X170377200Y-83536800D01*
X170897200Y-86236800D02*
X170377200Y-86236800D01*
D15*
%TO.C,Q6*%
X142319000Y-73376000D02*
X136429000Y-73376000D01*
X142774000Y-78516000D02*
X136429000Y-78516000D01*
D13*
%TO.C,D2*%
X101473000Y-69723000D02*
X104394000Y-69723000D01*
X100457000Y-70535800D02*
X101473000Y-70535800D01*
X100457000Y-69723000D02*
X100457000Y-70535800D01*
X97952560Y-63373000D02*
X97536000Y-63373000D01*
X102819200Y-70205600D02*
X102819200Y-71475600D01*
X104394000Y-69723000D02*
X104394000Y-63373000D01*
X97536000Y-63373000D02*
X97536000Y-69723000D01*
X104394000Y-63373000D02*
X103977440Y-63373000D01*
X101473000Y-70535800D02*
X101473000Y-69723000D01*
X98247200Y-70205600D02*
X98247200Y-71475600D01*
X103682800Y-70205600D02*
X103682800Y-71475600D01*
X97536000Y-69723000D02*
X100457000Y-69723000D01*
X99110800Y-70205600D02*
X99110800Y-71475600D01*
%TO.C,FL1*%
X144221200Y-87769700D02*
X167487600Y-87769700D01*
X144221200Y-70523100D02*
X167487600Y-70523100D01*
X167487600Y-70523100D02*
X167487600Y-87769700D01*
X144221200Y-70523100D02*
X144221200Y-87769700D01*
X152180600Y-88531700D02*
G75*
G03*
X152180600Y-88531700I-76200J0D01*
G01*
D14*
%TO.C,C11*%
X146958400Y-61997600D02*
X147478400Y-61997600D01*
X146958400Y-64697600D02*
X147478400Y-64697600D01*
%TO.C,C6*%
X139267400Y-39145200D02*
X139787400Y-39145200D01*
X139267400Y-36445200D02*
X139787400Y-36445200D01*
D15*
%TO.C,Q11*%
X193162400Y-68453600D02*
X193162400Y-62108600D01*
X198302400Y-67998600D02*
X198302400Y-62108600D01*
%TO.C,Q12*%
X206684400Y-68070600D02*
X206684400Y-62180600D01*
X201544400Y-68525600D02*
X201544400Y-62180600D01*
D13*
%TO.C,R12*%
X211797000Y-63605451D02*
X211797000Y-61870549D01*
X209843000Y-61870549D02*
X209843000Y-63605451D01*
%TO.C,R9*%
X147809251Y-51779200D02*
X146424349Y-51779200D01*
X146424349Y-53783200D02*
X147809251Y-53783200D01*
%TD*%
M02*
