%TF.GenerationSoftware,KiCad,Pcbnew,(6.0.10)*%
%TF.CreationDate,2024-01-08T08:39:50-08:00*%
%TF.ProjectId,windchargecontroller,77696e64-6368-4617-9267-65636f6e7472,rev?*%
%TF.SameCoordinates,Original*%
%TF.FileFunction,Copper,L1,Top*%
%TF.FilePolarity,Positive*%
%FSLAX46Y46*%
G04 Gerber Fmt 4.6, Leading zero omitted, Abs format (unit mm)*
G04 Created by KiCad (PCBNEW (6.0.10)) date 2024-01-08 08:39:50*
%MOMM*%
%LPD*%
G01*
G04 APERTURE LIST*
G04 Aperture macros list*
%AMRotRect*
0 Rectangle, with rotation*
0 The origin of the aperture is its center*
0 $1 length*
0 $2 width*
0 $3 Rotation angle, in degrees counterclockwise*
0 Add horizontal line*
21,1,$1,$2,0,0,$3*%
G04 Aperture macros list end*
%TA.AperFunction,ComponentPad*%
%ADD10R,1.422400X1.422400*%
%TD*%
%TA.AperFunction,ComponentPad*%
%ADD11C,1.422400*%
%TD*%
%TA.AperFunction,SMDPad,CuDef*%
%ADD12R,1.530000X2.720000*%
%TD*%
%TA.AperFunction,ComponentPad*%
%ADD13R,1.050000X1.500000*%
%TD*%
%TA.AperFunction,ComponentPad*%
%ADD14O,1.050000X1.500000*%
%TD*%
%TA.AperFunction,SMDPad,CuDef*%
%ADD15R,0.914400X2.413000*%
%TD*%
%TA.AperFunction,SMDPad,CuDef*%
%ADD16R,5.359400X6.070600*%
%TD*%
%TA.AperFunction,SMDPad,CuDef*%
%ADD17R,0.610000X1.270000*%
%TD*%
%TA.AperFunction,SMDPad,CuDef*%
%ADD18R,0.610000X1.020000*%
%TD*%
%TA.AperFunction,SMDPad,CuDef*%
%ADD19R,3.910000X3.810000*%
%TD*%
%TA.AperFunction,ComponentPad*%
%ADD20C,1.803400*%
%TD*%
%TA.AperFunction,ComponentPad*%
%ADD21R,1.500000X1.050000*%
%TD*%
%TA.AperFunction,ComponentPad*%
%ADD22O,1.500000X1.050000*%
%TD*%
%TA.AperFunction,SMDPad,CuDef*%
%ADD23R,2.720000X1.530000*%
%TD*%
%TA.AperFunction,SMDPad,CuDef*%
%ADD24R,0.703200X1.700000*%
%TD*%
%TA.AperFunction,ComponentPad*%
%ADD25RotRect,1.397000X1.397000X45.000000*%
%TD*%
%TA.AperFunction,ComponentPad*%
%ADD26C,1.397000*%
%TD*%
%TA.AperFunction,SMDPad,CuDef*%
%ADD27R,1.700000X0.703200*%
%TD*%
%TA.AperFunction,ComponentPad*%
%ADD28RotRect,1.422400X1.422400X45.000000*%
%TD*%
%TA.AperFunction,ComponentPad*%
%ADD29R,1.397000X1.397000*%
%TD*%
%TA.AperFunction,ComponentPad*%
%ADD30R,1.530000X1.530000*%
%TD*%
%TA.AperFunction,ComponentPad*%
%ADD31C,1.530000*%
%TD*%
%TA.AperFunction,SMDPad,CuDef*%
%ADD32R,1.599997X1.105598*%
%TD*%
%TA.AperFunction,SMDPad,CuDef*%
%ADD33R,1.270000X0.610000*%
%TD*%
%TA.AperFunction,SMDPad,CuDef*%
%ADD34R,3.810000X3.910000*%
%TD*%
%TA.AperFunction,SMDPad,CuDef*%
%ADD35R,1.020000X0.610000*%
%TD*%
%TA.AperFunction,ComponentPad*%
%ADD36R,1.803400X1.803400*%
%TD*%
%TA.AperFunction,SMDPad,CuDef*%
%ADD37R,0.853200X1.750000*%
%TD*%
%TA.AperFunction,ViaPad*%
%ADD38C,5.000000*%
%TD*%
%TA.AperFunction,ViaPad*%
%ADD39C,3.500000*%
%TD*%
%TA.AperFunction,ViaPad*%
%ADD40C,0.800000*%
%TD*%
%TA.AperFunction,Conductor*%
%ADD41C,1.000000*%
%TD*%
%TA.AperFunction,Conductor*%
%ADD42C,3.500000*%
%TD*%
G04 APERTURE END LIST*
D10*
%TO.P,C14,1*%
%TO.N,GND*%
X153670000Y-48082200D03*
D11*
%TO.P,C14,2*%
%TO.N,Shunt3*%
X153670000Y-43002200D03*
%TD*%
D12*
%TO.P,C8,1*%
%TO.N,/FL1_con*%
X138186400Y-52777200D03*
%TO.P,C8,2*%
%TO.N,/R9_con*%
X140868400Y-52777200D03*
%TD*%
D13*
%TO.P,Q13,1,E*%
%TO.N,/Q12_drive*%
X221132400Y-67153200D03*
D14*
%TO.P,Q13,2,B*%
%TO.N,PowerSW2*%
X219862400Y-67153200D03*
%TO.P,Q13,3,C*%
%TO.N,GND*%
X218592400Y-67153200D03*
%TD*%
D10*
%TO.P,C1,1*%
%TO.N,GND*%
X116713000Y-51562000D03*
D11*
%TO.P,C1,2*%
%TO.N,Shunt2*%
X121793000Y-51562000D03*
%TD*%
D12*
%TO.P,C7,1*%
%TO.N,/FL1_con*%
X138186400Y-47697200D03*
%TO.P,C7,2*%
%TO.N,/R9_con*%
X140868400Y-47697200D03*
%TD*%
D15*
%TO.P,D1,1,ANODE*%
%TO.N,/D4_con*%
X155143200Y-67894200D03*
D16*
%TO.P,D1,2,BASE_CATHODE*%
%TO.N,Shunt3*%
X157429200Y-59842400D03*
D15*
%TO.P,D1,3,ANODE*%
%TO.N,/D4_con*%
X159715200Y-67894200D03*
%TD*%
D12*
%TO.P,C4,1*%
%TO.N,/FL1_con*%
X138237200Y-63347600D03*
%TO.P,C4,2*%
%TO.N,Net-(C10-Pad1)*%
X140919200Y-63347600D03*
%TD*%
D17*
%TO.P,Q3,1,S*%
%TO.N,PhaseC+*%
X82880200Y-69095200D03*
%TO.P,Q3,2,S*%
X84150200Y-69095200D03*
%TO.P,Q3,3,S*%
X85420200Y-69095200D03*
%TO.P,Q3,4,G*%
%TO.N,Brake_Q3*%
X86690200Y-69095200D03*
D18*
%TO.P,Q3,5,D*%
%TO.N,/DC+*%
X84150200Y-63630200D03*
X82880200Y-63630200D03*
D19*
X84785200Y-65735200D03*
D18*
X86690200Y-63630200D03*
X85420200Y-63630200D03*
%TD*%
D20*
%TO.P,J4,1,1*%
%TO.N,GND*%
X219201999Y-50206899D03*
%TO.P,J4,2,2*%
X219201999Y-55206899D03*
%TO.P,J4,3,3*%
%TO.N,Power2Out*%
X219201999Y-60206899D03*
%TD*%
D12*
%TO.P,C11,1*%
%TO.N,Vdrive*%
X203757200Y-81888000D03*
%TO.P,C11,2*%
%TO.N,GND*%
X201075200Y-81888000D03*
%TD*%
D15*
%TO.P,D2,1,ANODE*%
%TO.N,/Loadswitch*%
X197967600Y-47332900D03*
D16*
%TO.P,D2,2,BASE_CATHODE*%
%TO.N,/Q11_con*%
X195681600Y-55384700D03*
D15*
%TO.P,D2,3,ANODE*%
%TO.N,/Loadswitch*%
X193395600Y-47332900D03*
%TD*%
D21*
%TO.P,Q7,1,E*%
%TO.N,/Q6_drive*%
X182727600Y-79044800D03*
D22*
%TO.P,Q7,2,B*%
%TO.N,PWM_sig*%
X182727600Y-80314800D03*
%TO.P,Q7,3,C*%
%TO.N,Vdrive*%
X182727600Y-81584800D03*
%TD*%
D23*
%TO.P,C12,1*%
%TO.N,Vdrive*%
X214985600Y-75285600D03*
%TO.P,C12,2*%
%TO.N,GND*%
X214985600Y-72603600D03*
%TD*%
D21*
%TO.P,Q10,1,E*%
%TO.N,/Q11_drive*%
X205901200Y-75298613D03*
D22*
%TO.P,Q10,2,B*%
%TO.N,PowerSW1*%
X205901200Y-76568613D03*
%TO.P,Q10,3,C*%
%TO.N,Vdrive*%
X205901200Y-77838613D03*
%TD*%
D17*
%TO.P,Q4,1,S*%
%TO.N,GND*%
X107467400Y-85794000D03*
%TO.P,Q4,2,S*%
X106197400Y-85794000D03*
%TO.P,Q4,3,S*%
X104927400Y-85794000D03*
%TO.P,Q4,4,G*%
%TO.N,Brake_Q4*%
X103657400Y-85794000D03*
D19*
%TO.P,Q4,5,D*%
%TO.N,PhaseA+*%
X105562400Y-89154000D03*
D18*
X106197400Y-91259000D03*
X103657400Y-91259000D03*
X104927400Y-91259000D03*
X107467400Y-91259000D03*
%TD*%
D20*
%TO.P,J2,1,1*%
%TO.N,Shunt1*%
X119719101Y-39115999D03*
%TO.P,J2,2,2*%
%TO.N,GND*%
X114719101Y-39115999D03*
%TO.P,J2,3,3*%
%TO.N,/DC+*%
X109719101Y-39115999D03*
%TD*%
D13*
%TO.P,Q12,1,E*%
%TO.N,/Q12_drive*%
X221132400Y-73355200D03*
D14*
%TO.P,Q12,2,B*%
%TO.N,PowerSW2*%
X219862400Y-73355200D03*
%TO.P,Q12,3,C*%
%TO.N,Vdrive*%
X218592400Y-73355200D03*
%TD*%
D24*
%TO.P,R7,1*%
%TO.N,Shunt3*%
X183029800Y-39624000D03*
%TO.P,R7,2*%
%TO.N,Shunt4*%
X186083000Y-39624000D03*
%TD*%
D12*
%TO.P,C6,1*%
%TO.N,/FL1_con*%
X138186400Y-42617200D03*
%TO.P,C6,2*%
%TO.N,/R9_con*%
X140868400Y-42617200D03*
%TD*%
%TO.P,C9,1*%
%TO.N,Net-(C3-Pad2)*%
X145877400Y-58267600D03*
%TO.P,C9,2*%
%TO.N,/D4_con*%
X148559400Y-58267600D03*
%TD*%
D21*
%TO.P,Q8,1,E*%
%TO.N,/Q6_drive*%
X174599600Y-79044800D03*
D22*
%TO.P,Q8,2,B*%
%TO.N,PWM_sig*%
X174599600Y-80314800D03*
%TO.P,Q8,3,C*%
%TO.N,GND*%
X174599600Y-81584800D03*
%TD*%
D21*
%TO.P,Q11,1,E*%
%TO.N,/Q11_drive*%
X199445200Y-75284000D03*
D22*
%TO.P,Q11,2,B*%
%TO.N,PowerSW1*%
X199445200Y-76554000D03*
%TO.P,Q11,3,C*%
%TO.N,GND*%
X199445200Y-77824000D03*
%TD*%
D20*
%TO.P,J6,1,1*%
%TO.N,/Loadswitch*%
X205317101Y-39623999D03*
%TO.P,J6,2,2*%
%TO.N,GND*%
X200317101Y-39623999D03*
%TO.P,J6,3,3*%
%TO.N,Shunt4*%
X195317101Y-39623999D03*
%TD*%
D17*
%TO.P,Q5,1,S*%
%TO.N,GND*%
X110617000Y-67531400D03*
%TO.P,Q5,2,S*%
X109347000Y-67531400D03*
%TO.P,Q5,3,S*%
X108077000Y-67531400D03*
%TO.P,Q5,4,G*%
%TO.N,Brake_Q5*%
X106807000Y-67531400D03*
D18*
%TO.P,Q5,5,D*%
%TO.N,PhaseB+*%
X106807000Y-72996400D03*
X108077000Y-72996400D03*
X110617000Y-72996400D03*
X109347000Y-72996400D03*
D19*
X108712000Y-70891400D03*
%TD*%
D25*
%TO.P,Jumper2,1*%
%TO.N,GND*%
X115229098Y-86370703D03*
D26*
%TO.P,Jumper2,2*%
X122413303Y-79186498D03*
%TD*%
D20*
%TO.P,J1,1,1*%
%TO.N,PhaseA-*%
X80137001Y-96605101D03*
%TO.P,J1,2,2*%
%TO.N,PhaseB-*%
X80137001Y-91605101D03*
%TO.P,J1,3,3*%
%TO.N,PhaseC-*%
X80137001Y-86605101D03*
%TD*%
D10*
%TO.P,C13,1*%
%TO.N,GND*%
X173278800Y-61036200D03*
D11*
%TO.P,C13,2*%
%TO.N,Shunt3*%
X173278800Y-66116200D03*
%TD*%
D27*
%TO.P,R4,1*%
%TO.N,Shunt1*%
X129159000Y-41907400D03*
%TO.P,R4,2*%
%TO.N,Shunt2*%
X129159000Y-44960600D03*
%TD*%
D28*
%TO.P,C15,1*%
%TO.N,GND*%
X171094400Y-46583600D03*
D11*
%TO.P,C15,2*%
%TO.N,Shunt3*%
X174686502Y-42991498D03*
%TD*%
D24*
%TO.P,R2,1*%
%TO.N,PhaseB-*%
X94355800Y-76454000D03*
%TO.P,R2,2*%
%TO.N,PhaseB+*%
X97409000Y-76454000D03*
%TD*%
D20*
%TO.P,J3,1,1*%
%TO.N,GND*%
X219201999Y-82718899D03*
%TO.P,J3,2,2*%
X219201999Y-87718899D03*
%TO.P,J3,3,3*%
%TO.N,Power1Out*%
X219201999Y-92718899D03*
%TD*%
D29*
%TO.P,Jumper1,1*%
%TO.N,GND*%
X187401200Y-83820000D03*
D26*
%TO.P,Jumper1,2*%
X187401200Y-73660000D03*
%TD*%
D30*
%TO.P,J5,01,01*%
%TO.N,GND*%
X114046000Y-93472000D03*
D31*
%TO.P,J5,02,02*%
X114046000Y-96012000D03*
%TO.P,J5,03,03*%
%TO.N,unconnected-(J5-Pad03)*%
X116586000Y-93472000D03*
%TO.P,J5,04,04*%
%TO.N,PhaseC-*%
X116586000Y-96012000D03*
%TO.P,J5,05,05*%
%TO.N,unconnected-(J5-Pad05)*%
X119126000Y-93472000D03*
%TO.P,J5,06,06*%
%TO.N,PhaseB-*%
X119126000Y-96012000D03*
%TO.P,J5,07,07*%
%TO.N,PhaseA+*%
X121666000Y-93472000D03*
%TO.P,J5,08,08*%
%TO.N,PhaseA-*%
X121666000Y-96012000D03*
%TO.P,J5,09,09*%
%TO.N,PhaseC+*%
X124206000Y-93472000D03*
%TO.P,J5,10,10*%
%TO.N,unconnected-(J5-Pad10)*%
X124206000Y-96012000D03*
%TO.P,J5,11,11*%
%TO.N,PhaseB+*%
X126746000Y-93472000D03*
%TO.P,J5,12,12*%
%TO.N,unconnected-(J5-Pad12)*%
X126746000Y-96012000D03*
%TO.P,J5,13,13*%
%TO.N,Brake_Q4*%
X129286000Y-93472000D03*
%TO.P,J5,14,14*%
%TO.N,unconnected-(J5-Pad14)*%
X129286000Y-96012000D03*
%TO.P,J5,15,15*%
%TO.N,Brake_Q1*%
X131826000Y-93472000D03*
%TO.P,J5,16,16*%
%TO.N,unconnected-(J5-Pad16)*%
X131826000Y-96012000D03*
%TO.P,J5,17,17*%
%TO.N,Brake_Q3*%
X134366000Y-93472000D03*
%TO.P,J5,18,18*%
%TO.N,unconnected-(J5-Pad18)*%
X134366000Y-96012000D03*
%TO.P,J5,19,19*%
%TO.N,Brake_Q2*%
X136906000Y-93472000D03*
%TO.P,J5,20,20*%
%TO.N,unconnected-(J5-Pad20)*%
X136906000Y-96012000D03*
%TO.P,J5,21,21*%
%TO.N,Brake_Q5*%
X139446000Y-93472000D03*
%TO.P,J5,22,22*%
%TO.N,unconnected-(J5-Pad22)*%
X139446000Y-96012000D03*
%TO.P,J5,23,23*%
%TO.N,Brake_Q6*%
X141986000Y-93472000D03*
%TO.P,J5,24,24*%
%TO.N,unconnected-(J5-Pad24)*%
X141986000Y-96012000D03*
%TO.P,J5,25,25*%
%TO.N,Shunt1*%
X144526000Y-93472000D03*
%TO.P,J5,26,26*%
%TO.N,unconnected-(J5-Pad26)*%
X144526000Y-96012000D03*
%TO.P,J5,27,27*%
%TO.N,Shunt2*%
X147066000Y-93472000D03*
%TO.P,J5,28,28*%
%TO.N,PowerSW2*%
X147066000Y-96012000D03*
%TO.P,J5,29,29*%
%TO.N,unconnected-(J5-Pad29)*%
X149606000Y-93472000D03*
%TO.P,J5,30,30*%
%TO.N,PowerSW1*%
X149606000Y-96012000D03*
%TO.P,J5,31,31*%
%TO.N,Vdrive*%
X152146000Y-93472000D03*
%TO.P,J5,32,32*%
%TO.N,Power2Out*%
X152146000Y-96012000D03*
%TO.P,J5,33,33*%
%TO.N,PWM_sig*%
X154686000Y-93472000D03*
%TO.P,J5,34,34*%
%TO.N,Shunt7*%
X154686000Y-96012000D03*
%TO.P,J5,35,35*%
%TO.N,Shunt3*%
X157226000Y-93472000D03*
%TO.P,J5,36,36*%
%TO.N,Power1Out*%
X157226000Y-96012000D03*
%TO.P,J5,37,37*%
%TO.N,Shunt4*%
X159766000Y-93472000D03*
%TO.P,J5,38,38*%
%TO.N,Shunt5*%
X159766000Y-96012000D03*
%TO.P,J5,39,39*%
%TO.N,GND*%
X162306000Y-93472000D03*
%TO.P,J5,40,40*%
X162306000Y-96012000D03*
%TD*%
D27*
%TO.P,R1,1*%
%TO.N,PhaseA-*%
X94361000Y-98300600D03*
%TO.P,R1,2*%
%TO.N,PhaseA+*%
X94361000Y-95247400D03*
%TD*%
%TO.P,R8,1*%
%TO.N,Shunt5*%
X194919600Y-74927400D03*
%TO.P,R8,2*%
%TO.N,Power1Out*%
X194919600Y-77980600D03*
%TD*%
D17*
%TO.P,Q6,1,S*%
%TO.N,GND*%
X94488000Y-64267500D03*
%TO.P,Q6,2,S*%
X93218000Y-64267500D03*
%TO.P,Q6,3,S*%
X91948000Y-64267500D03*
%TO.P,Q6,4,G*%
%TO.N,Brake_Q6*%
X90678000Y-64267500D03*
D18*
%TO.P,Q6,5,D*%
%TO.N,PhaseC+*%
X94488000Y-69732500D03*
X90678000Y-69732500D03*
X91948000Y-69732500D03*
X93218000Y-69732500D03*
D19*
X92583000Y-67627500D03*
%TD*%
D27*
%TO.P,R3,1*%
%TO.N,PhaseC-*%
X83058000Y-77218600D03*
%TO.P,R3,2*%
%TO.N,PhaseC+*%
X83058000Y-74165400D03*
%TD*%
D12*
%TO.P,C3,1*%
%TO.N,/FL1_con*%
X138237200Y-58267600D03*
%TO.P,C3,2*%
%TO.N,Net-(C3-Pad2)*%
X140919200Y-58267600D03*
%TD*%
D32*
%TO.P,R5,1*%
%TO.N,/Q6_drive*%
X169473200Y-78810402D03*
%TO.P,R5,2*%
%TO.N,GND*%
X169473200Y-81615998D03*
%TD*%
D12*
%TO.P,C2,1*%
%TO.N,Vdrive*%
X171978200Y-84886800D03*
%TO.P,C2,2*%
%TO.N,GND*%
X169296200Y-84886800D03*
%TD*%
D17*
%TO.P,Q2,1,S*%
%TO.N,PhaseB+*%
X99110800Y-72244800D03*
%TO.P,Q2,2,S*%
X100380800Y-72244800D03*
%TO.P,Q2,3,S*%
X101650800Y-72244800D03*
%TO.P,Q2,4,G*%
%TO.N,Brake_Q2*%
X102920800Y-72244800D03*
D18*
%TO.P,Q2,5,D*%
%TO.N,/DC+*%
X99110800Y-66779800D03*
X101650800Y-66779800D03*
X100380800Y-66779800D03*
X102920800Y-66779800D03*
D19*
X101015800Y-68884800D03*
%TD*%
D33*
%TO.P,Q9,1,S*%
%TO.N,GND*%
X142044000Y-77851000D03*
%TO.P,Q9,2,S*%
X142044000Y-76581000D03*
%TO.P,Q9,3,S*%
X142044000Y-75311000D03*
%TO.P,Q9,4,G*%
%TO.N,/Q6_drive*%
X142044000Y-74041000D03*
D34*
%TO.P,Q9,5,D*%
%TO.N,/FL1_con*%
X138684000Y-75946000D03*
D35*
X136579000Y-74041000D03*
X136579000Y-75311000D03*
X136579000Y-76581000D03*
X136579000Y-77851000D03*
%TD*%
D36*
%TO.P,FL1,1,1*%
%TO.N,Shunt2*%
X152104400Y-84496401D03*
D20*
%TO.P,FL1,2,2*%
%TO.N,GND*%
X159604400Y-84496401D03*
%TO.P,FL1,3,3*%
%TO.N,/D4_con*%
X159604400Y-73796400D03*
%TO.P,FL1,4,4*%
%TO.N,/FL1_con*%
X152104400Y-73796400D03*
%TD*%
D12*
%TO.P,C10,1*%
%TO.N,Net-(C10-Pad1)*%
X145877400Y-63347600D03*
%TO.P,C10,2*%
%TO.N,/D4_con*%
X148559400Y-63347600D03*
%TD*%
%TO.P,C5,1*%
%TO.N,/FL1_con*%
X138186400Y-37795200D03*
%TO.P,C5,2*%
%TO.N,/R9_con*%
X140868400Y-37795200D03*
%TD*%
D17*
%TO.P,Q14,1,S*%
%TO.N,Shunt5*%
X193827400Y-67723600D03*
%TO.P,Q14,2,S*%
X195097400Y-67723600D03*
%TO.P,Q14,3,S*%
X196367400Y-67723600D03*
%TO.P,Q14,4,G*%
%TO.N,/Q11_drive*%
X197637400Y-67723600D03*
D18*
%TO.P,Q14,5,D*%
%TO.N,/Q11_con*%
X196367400Y-62258600D03*
X195097400Y-62258600D03*
X197637400Y-62258600D03*
X193827400Y-62258600D03*
D19*
X195732400Y-64363600D03*
%TD*%
D17*
%TO.P,Q1,1,S*%
%TO.N,PhaseA+*%
X94538800Y-87992800D03*
%TO.P,Q1,2,S*%
X95808800Y-87992800D03*
%TO.P,Q1,3,S*%
X97078800Y-87992800D03*
%TO.P,Q1,4,G*%
%TO.N,Brake_Q1*%
X98348800Y-87992800D03*
D18*
%TO.P,Q1,5,D*%
%TO.N,/DC+*%
X95808800Y-82527800D03*
X98348800Y-82527800D03*
X94538800Y-82527800D03*
D19*
X96443800Y-84632800D03*
D18*
X97078800Y-82527800D03*
%TD*%
D17*
%TO.P,Q15,1,S*%
%TO.N,Shunt7*%
X202209400Y-67795600D03*
%TO.P,Q15,2,S*%
X203479400Y-67795600D03*
%TO.P,Q15,3,S*%
X204749400Y-67795600D03*
%TO.P,Q15,4,G*%
%TO.N,/Q12_drive*%
X206019400Y-67795600D03*
D18*
%TO.P,Q15,5,D*%
%TO.N,Shunt2*%
X204749400Y-62330600D03*
X206019400Y-62330600D03*
D19*
X204114400Y-64435600D03*
D18*
X203479400Y-62330600D03*
X202209400Y-62330600D03*
%TD*%
D27*
%TO.P,R9,1*%
%TO.N,Shunt7*%
X210820000Y-64264600D03*
%TO.P,R9,2*%
%TO.N,Power2Out*%
X210820000Y-61211400D03*
%TD*%
D37*
%TO.P,R6,1*%
%TO.N,/D4_con*%
X148543400Y-52781200D03*
%TO.P,R6,2*%
%TO.N,/R9_con*%
X145690200Y-52781200D03*
%TD*%
D38*
%TO.N,GND*%
X186283600Y-95808800D03*
D39*
X110236000Y-64008000D03*
X93218000Y-61366400D03*
D38*
X94488000Y-51104800D03*
D39*
X110794800Y-84988400D03*
D38*
X186436000Y-47650400D03*
D39*
X164693600Y-84480400D03*
D38*
X102870000Y-96012000D03*
D39*
%TO.N,Shunt2*%
X204063600Y-58877200D03*
D40*
%TO.N,PhaseA+*%
X108915200Y-91643200D03*
%TO.N,PhaseB+*%
X99771200Y-76809600D03*
%TO.N,PhaseC+*%
X85191600Y-74218800D03*
%TO.N,Brake_Q3*%
X88290400Y-69189600D03*
X119481600Y-77216000D03*
%TO.N,Brake_Q6*%
X119126000Y-58420000D03*
X90271600Y-62280800D03*
%TO.N,Brake_Q2*%
X104749600Y-72237600D03*
X119380000Y-72237600D03*
%TO.N,Brake_Q5*%
X106172000Y-64643000D03*
X119400779Y-67667897D03*
%TD*%
D41*
%TO.N,GND*%
X201075200Y-81888000D02*
X201075200Y-79454000D01*
X219862400Y-64363600D02*
X221691200Y-64363600D01*
D42*
X114719101Y-39115999D02*
X114719101Y-49568101D01*
X164677599Y-84496401D02*
X164693600Y-84480400D01*
X155346400Y-80416400D02*
X146374400Y-80416400D01*
D41*
X169296200Y-84886800D02*
X169296200Y-81792998D01*
X165881602Y-81615998D02*
X164693600Y-82804000D01*
X221945200Y-57950100D02*
X219201999Y-55206899D01*
X102870000Y-96012000D02*
X114046000Y-96012000D01*
X218592400Y-67153200D02*
X218592400Y-71018400D01*
X114046000Y-96012000D02*
X114046000Y-92151200D01*
X174568402Y-81615998D02*
X174599600Y-81584800D01*
X169296200Y-81792998D02*
X169473200Y-81615998D01*
D42*
X160629600Y-80416400D02*
X155346400Y-80416400D01*
D41*
X203847699Y-87718899D02*
X219201999Y-87718899D01*
X169473200Y-81615998D02*
X165881602Y-81615998D01*
X221945200Y-64109600D02*
X221945200Y-57950100D01*
X201075200Y-79454000D02*
X199445200Y-77824000D01*
X164693600Y-82804000D02*
X164693600Y-84480400D01*
X218592400Y-71018400D02*
X217007200Y-72603600D01*
D42*
X114719101Y-49568101D02*
X116713000Y-51562000D01*
D41*
X221691200Y-64363600D02*
X221945200Y-64109600D01*
D42*
X146374400Y-80416400D02*
X142542200Y-76584200D01*
D41*
X169473200Y-81615998D02*
X174568402Y-81615998D01*
D42*
X164693600Y-84480400D02*
X160629600Y-80416400D01*
D41*
X218592400Y-65633600D02*
X219862400Y-64363600D01*
X201075200Y-81888000D02*
X201075200Y-84946400D01*
X110794800Y-88900000D02*
X110794800Y-84988400D01*
X114046000Y-92151200D02*
X110794800Y-88900000D01*
X217007200Y-72603600D02*
X214985600Y-72603600D01*
X218592400Y-67153200D02*
X218592400Y-65633600D01*
X201075200Y-84946400D02*
X203847699Y-87718899D01*
%TO.N,Vdrive*%
X203757200Y-81888000D02*
X203757200Y-79452800D01*
X152146000Y-91663400D02*
X155702000Y-88107400D01*
X203757200Y-79452800D02*
X205371387Y-77838613D01*
X155702000Y-88107400D02*
X171125000Y-88107400D01*
X173786800Y-84886800D02*
X171978200Y-84886800D01*
X152146000Y-93472000D02*
X152146000Y-91663400D01*
X177088800Y-81584800D02*
X173786800Y-84886800D01*
X205371387Y-77838613D02*
X205901200Y-77838613D01*
X182727600Y-81584800D02*
X177088800Y-81584800D01*
X171125000Y-88107400D02*
X171978200Y-87254200D01*
X218592400Y-73355200D02*
X216662000Y-75285600D01*
X216662000Y-75285600D02*
X214985600Y-75285600D01*
X171978200Y-87254200D02*
X171978200Y-84886800D01*
%TO.N,Shunt2*%
X148336000Y-90322400D02*
X149301200Y-90322400D01*
X150164800Y-89458800D02*
X150164800Y-85242400D01*
D42*
X131673600Y-78740000D02*
X131673600Y-48822801D01*
X121793000Y-51562000D02*
X123676601Y-51562000D01*
X123676601Y-51562000D02*
X128930400Y-46308201D01*
X152104400Y-84496401D02*
X149418801Y-84496401D01*
X131673600Y-48822801D02*
X129159000Y-46308201D01*
X149418801Y-84496401D02*
X137430001Y-84496401D01*
X137430001Y-84496401D02*
X131673600Y-78740000D01*
X204063600Y-58877200D02*
X204063600Y-64384800D01*
D41*
X147066000Y-93472000D02*
X147066000Y-91592400D01*
X149301200Y-90322400D02*
X150164800Y-89458800D01*
X150164800Y-85242400D02*
X149418801Y-84496401D01*
D42*
X204063600Y-64384800D02*
X204114400Y-64435600D01*
D41*
X147066000Y-91592400D02*
X148336000Y-90322400D01*
D42*
%TO.N,Shunt3*%
X181682199Y-39624000D02*
X163830000Y-39624000D01*
D41*
X187096400Y-87909400D02*
X189742400Y-85263400D01*
X175112562Y-90779600D02*
X177982762Y-87909400D01*
X185750200Y-66116200D02*
X176580800Y-66116200D01*
X189742400Y-85263400D02*
X189742400Y-70108400D01*
X189742400Y-70108400D02*
X185750200Y-66116200D01*
X177982762Y-87909400D02*
X187096400Y-87909400D01*
X157226000Y-93472000D02*
X159918400Y-90779600D01*
X159918400Y-90779600D02*
X175112562Y-90779600D01*
D42*
X163830000Y-39624000D02*
X163068000Y-40386000D01*
D41*
%TO.N,PhaseA+*%
X108915200Y-91643200D02*
X107851600Y-91643200D01*
X107851600Y-91643200D02*
X107467400Y-91259000D01*
%TO.N,PWM_sig*%
X158750000Y-89408000D02*
X174091600Y-89408000D01*
X182727600Y-80314800D02*
X174599600Y-80314800D01*
X185064400Y-84632800D02*
X185064400Y-80873600D01*
X154686000Y-93472000D02*
X158750000Y-89408000D01*
X176860200Y-86639400D02*
X183057800Y-86639400D01*
X185064400Y-80873600D02*
X184505600Y-80314800D01*
X183057800Y-86639400D02*
X185064400Y-84632800D01*
X174091600Y-89408000D02*
X176860200Y-86639400D01*
X184505600Y-80314800D02*
X182727600Y-80314800D01*
%TO.N,PowerSW1*%
X199445200Y-76554000D02*
X205886587Y-76554000D01*
X205886587Y-76554000D02*
X205901200Y-76568613D01*
%TO.N,Shunt1*%
X129220400Y-79756148D02*
X129220400Y-60894400D01*
X124968000Y-56642000D02*
X120294400Y-56642000D01*
X144526000Y-93472000D02*
X144526000Y-89692801D01*
X141782800Y-86949601D02*
X136413853Y-86949601D01*
X120294400Y-56642000D02*
X119227600Y-55575200D01*
X119227600Y-55575200D02*
X119227600Y-41859200D01*
X136413853Y-86949601D02*
X129220400Y-79756148D01*
X119227600Y-41859200D02*
X119719101Y-41367699D01*
X129220400Y-60894400D02*
X124968000Y-56642000D01*
X144526000Y-89692801D02*
X141782800Y-86949601D01*
D42*
%TO.N,Shunt4*%
X195317101Y-39623999D02*
X190906400Y-39624000D01*
D41*
X190942400Y-48349048D02*
X190945600Y-48352248D01*
X175610944Y-91982800D02*
X161255200Y-91982800D01*
X190906400Y-39624000D02*
X190945600Y-39663200D01*
D42*
X190906400Y-39624000D02*
X187430601Y-39624000D01*
D41*
X190942400Y-46316752D02*
X190942400Y-48349048D01*
X187620400Y-89112600D02*
X178481144Y-89112600D01*
X190945600Y-85787400D02*
X187620400Y-89112600D01*
X161255200Y-91982800D02*
X159766000Y-93472000D01*
X178481144Y-89112600D02*
X175610944Y-91982800D01*
X190945600Y-48352248D02*
X190945600Y-85787400D01*
X190945600Y-39663200D02*
X190945600Y-46313552D01*
X190945600Y-46313552D02*
X190942400Y-46316752D01*
%TO.N,PowerSW2*%
X219862400Y-67153200D02*
X219862400Y-73355200D01*
%TO.N,Shunt5*%
X194919600Y-73579799D02*
X193171001Y-73579799D01*
X179171600Y-90315800D02*
X171954600Y-97532800D01*
X159766000Y-96012000D02*
X161290000Y-97536000D01*
X192430400Y-74320400D02*
X192430400Y-86004182D01*
X161290000Y-97536000D02*
X171754800Y-97536000D01*
X188118782Y-90315800D02*
X179171600Y-90315800D01*
X192430400Y-86004182D02*
X188118782Y-90315800D01*
X171954600Y-97532800D02*
X171758000Y-97532800D01*
X193171001Y-73579799D02*
X192430400Y-74320400D01*
D42*
%TO.N,Power1Out*%
X219201999Y-92718899D02*
X197925699Y-92718899D01*
D41*
X188610673Y-91525491D02*
X190423364Y-89712800D01*
D42*
X194919600Y-89712800D02*
X194919600Y-79328201D01*
D41*
X190423364Y-89712800D02*
X194919600Y-89712800D01*
X157226000Y-96012000D02*
X159953200Y-98739200D01*
X172449782Y-98739200D02*
X179663491Y-91525491D01*
D42*
X197925699Y-92718899D02*
X194919600Y-89712800D01*
D41*
X159953200Y-98739200D02*
X172449782Y-98739200D01*
X179663491Y-91525491D02*
X188610673Y-91525491D01*
D42*
%TO.N,Shunt7*%
X208271200Y-70383800D02*
X208274400Y-70380600D01*
X203479400Y-70102000D02*
X203479400Y-68293800D01*
D41*
X217075218Y-99942400D02*
X158616400Y-99942400D01*
D42*
X203479400Y-70102000D02*
X203761200Y-70383800D01*
D41*
X158616400Y-99942400D02*
X154686000Y-96012000D01*
X219776800Y-85648800D02*
X222316800Y-88188800D01*
D42*
X203761200Y-70383800D02*
X208271200Y-70383800D01*
D41*
X208274400Y-85186000D02*
X208737200Y-85648800D01*
D42*
X208274400Y-70380600D02*
X210820000Y-67835000D01*
D41*
X222316800Y-94700818D02*
X217075218Y-99942400D01*
X208737200Y-85648800D02*
X219776800Y-85648800D01*
X222316800Y-88188800D02*
X222316800Y-94700818D01*
D42*
X210820000Y-67835000D02*
X210820000Y-65612201D01*
D41*
X208274400Y-70380600D02*
X208274400Y-85186000D01*
%TO.N,Power2Out*%
X212039200Y-76962000D02*
X212039200Y-71399400D01*
X223520000Y-95199200D02*
X223520000Y-81051400D01*
X214426800Y-60858400D02*
X213432199Y-59863799D01*
X212039200Y-71399400D02*
X214426800Y-69011800D01*
D42*
X218858899Y-59863799D02*
X219201999Y-60206899D01*
D41*
X221361000Y-78892400D02*
X213969600Y-78892400D01*
X223520000Y-81051400D02*
X221361000Y-78892400D01*
X157279600Y-101145600D02*
X217573600Y-101145600D01*
D42*
X213432199Y-59863799D02*
X218858899Y-59863799D01*
D41*
X152146000Y-96012000D02*
X157279600Y-101145600D01*
X217573600Y-101145600D02*
X223520000Y-95199200D01*
D42*
X213432199Y-59863799D02*
X210894326Y-59863799D01*
D41*
X214426800Y-69011800D02*
X214426800Y-60858400D01*
X213969600Y-78892400D02*
X212039200Y-76962000D01*
%TO.N,Brake_Q3*%
X134366000Y-93472000D02*
X134366000Y-91708076D01*
X86690200Y-69095200D02*
X88196000Y-69095200D01*
X124407600Y-81749676D02*
X124407600Y-78790800D01*
X123240800Y-77216000D02*
X119481600Y-77216000D01*
X124407600Y-78382800D02*
X123240800Y-77216000D01*
X125341962Y-82684038D02*
X124407600Y-81749676D01*
X134366000Y-91708076D02*
X125341962Y-82684038D01*
X124407600Y-78790800D02*
X124407600Y-78382800D01*
X88196000Y-69095200D02*
X88290400Y-69189600D01*
%TO.N,Brake_Q6*%
X141986000Y-93472000D02*
X141986000Y-90170000D01*
X90271600Y-62280800D02*
X90271600Y-63861100D01*
X135928661Y-88165991D02*
X128017200Y-80254530D01*
X90271600Y-63861100D02*
X90678000Y-64267500D01*
X125044418Y-58420000D02*
X119126000Y-58420000D01*
X128017200Y-61392782D02*
X125044418Y-58420000D01*
X139981991Y-88165991D02*
X135928661Y-88165991D01*
X141986000Y-90170000D02*
X139981991Y-88165991D01*
X128017200Y-80254530D02*
X128017200Y-61392782D01*
%TO.N,Brake_Q2*%
X124002800Y-72237600D02*
X119380000Y-72237600D01*
X125610800Y-73845600D02*
X124002800Y-72237600D01*
X136906000Y-93472000D02*
X136906000Y-91080391D01*
X104749600Y-72237600D02*
X102928000Y-72237600D01*
X102928000Y-72237600D02*
X102920800Y-72244800D01*
X134931897Y-90572391D02*
X125610800Y-81251294D01*
X136906000Y-91080391D02*
X136398000Y-90572391D01*
X136398000Y-90572391D02*
X134931897Y-90572391D01*
X125610800Y-81251294D02*
X125610800Y-73845600D01*
%TO.N,Brake_Q5*%
X126814000Y-70222800D02*
X126814000Y-80752912D01*
X119400779Y-67667897D02*
X124259097Y-67667897D01*
X135430279Y-89369191D02*
X138289591Y-89369191D01*
X124259097Y-67667897D02*
X126814000Y-70222800D01*
X106172000Y-66896400D02*
X106807000Y-67531400D01*
X106172000Y-64643000D02*
X106172000Y-66896400D01*
X126814000Y-80752912D02*
X135430279Y-89369191D01*
X139446000Y-90525600D02*
X139446000Y-93472000D01*
X138289591Y-89369191D02*
X139446000Y-90525600D01*
%TO.N,Brake_Q1*%
X101650800Y-83464400D02*
X101650800Y-86055200D01*
X131826000Y-93472000D02*
X131826000Y-90869658D01*
X99713200Y-87992800D02*
X98348800Y-87992800D01*
X121780342Y-80824000D02*
X104291200Y-80824000D01*
X104291200Y-80824000D02*
X101650800Y-83464400D01*
X101650800Y-86055200D02*
X99713200Y-87992800D01*
X131826000Y-90869658D02*
X121780342Y-80824000D01*
%TO.N,/R9_con*%
X140868400Y-37795200D02*
X140868400Y-52777200D01*
X140868400Y-52777200D02*
X145663600Y-52777200D01*
X145663600Y-52777200D02*
X145667600Y-52781200D01*
D42*
%TO.N,/D4_con*%
X161061400Y-72339400D02*
X161061400Y-69240400D01*
X155143200Y-67894200D02*
X152781000Y-67894200D01*
X152781000Y-67894200D02*
X149504400Y-64617600D01*
X149504400Y-64617600D02*
X149504400Y-57607200D01*
X155143200Y-67894200D02*
X159715200Y-67894200D01*
X161061400Y-69240400D02*
X159715200Y-67894200D01*
X159715200Y-67894200D02*
X152781000Y-67894200D01*
D41*
X148559400Y-58267600D02*
X148566000Y-58261000D01*
X148566000Y-58261000D02*
X148566000Y-52781200D01*
D42*
X159604400Y-73796400D02*
X161061400Y-72339400D01*
%TO.N,/DC+*%
X100965000Y-57023000D02*
X110261400Y-57023000D01*
X110261400Y-57023000D02*
X115189000Y-61950600D01*
X115189000Y-76327000D02*
X113944400Y-77571600D01*
X100965000Y-47870100D02*
X100965000Y-57023000D01*
X106883200Y-42011600D02*
X106823500Y-42011600D01*
X102395900Y-77571600D02*
X96647000Y-83320500D01*
X115189000Y-61950600D02*
X115189000Y-76327000D01*
X113944400Y-77571600D02*
X102395900Y-77571600D01*
X106823500Y-42011600D02*
X100965000Y-47870100D01*
%TO.N,/Loadswitch*%
X205317101Y-39623999D02*
X205317101Y-46275001D01*
X194453499Y-46275001D02*
X193395600Y-47332900D01*
X205317101Y-46275001D02*
X194453499Y-46275001D01*
%TO.N,/Q11_con*%
X195681600Y-64312800D02*
X195732400Y-64363600D01*
X195681600Y-55384700D02*
X195681600Y-64312800D01*
D41*
%TO.N,Brake_Q4*%
X104789582Y-82027200D02*
X121281960Y-82027200D01*
X103657400Y-85794000D02*
X103657400Y-83159382D01*
X121281960Y-82027200D02*
X129286000Y-90031240D01*
X103657400Y-83159382D02*
X104789582Y-82027200D01*
X129286000Y-90031240D02*
X129286000Y-93472000D01*
%TO.N,/Q6_drive*%
X142044000Y-74041000D02*
X146024600Y-74041000D01*
X167675598Y-77012800D02*
X169473200Y-78810402D01*
X148996400Y-77012800D02*
X167675598Y-77012800D01*
X169473200Y-78810402D02*
X182493202Y-78810402D01*
X182493202Y-78810402D02*
X182727600Y-79044800D01*
X146024600Y-74041000D02*
X148996400Y-77012800D01*
%TO.N,/Q11_drive*%
X199445200Y-75284000D02*
X205886587Y-75284000D01*
X199445200Y-69531400D02*
X199445200Y-75284000D01*
X197637400Y-67723600D02*
X199445200Y-69531400D01*
X205886587Y-75284000D02*
X205901200Y-75298613D01*
%TO.N,/Q12_drive*%
X221132400Y-67153200D02*
X221132400Y-73355200D01*
X222102000Y-67153200D02*
X223875600Y-65379600D01*
X207772000Y-56794400D02*
X207772000Y-66043000D01*
X207772000Y-66043000D02*
X206019400Y-67795600D01*
X221208600Y-53162200D02*
X211404200Y-53162200D01*
X223875600Y-65379600D02*
X223875600Y-55829200D01*
X221132400Y-67153200D02*
X222102000Y-67153200D01*
X223875600Y-55829200D02*
X221208600Y-53162200D01*
X211404200Y-53162200D02*
X207772000Y-56794400D01*
D42*
%TO.N,/FL1_con*%
X146913600Y-68884800D02*
X137363200Y-68884800D01*
D41*
X138451200Y-63561600D02*
X138237200Y-63347600D01*
D42*
X147192800Y-68884800D02*
X146913600Y-68884800D01*
X152104400Y-73796400D02*
X147192800Y-68884800D01*
%TD*%
%TA.AperFunction,Conductor*%
%TO.N,Shunt1*%
G36*
X129822930Y-35433388D02*
G01*
X130042768Y-35450689D01*
X130062294Y-35453782D01*
X130271888Y-35504101D01*
X130290683Y-35510208D01*
X130489835Y-35592699D01*
X130507433Y-35601666D01*
X130691227Y-35714296D01*
X130707214Y-35725911D01*
X130871120Y-35865900D01*
X130885098Y-35879878D01*
X131025089Y-36043786D01*
X131036704Y-36059773D01*
X131149334Y-36243567D01*
X131158301Y-36261165D01*
X131240790Y-36460312D01*
X131246900Y-36479116D01*
X131297218Y-36688705D01*
X131300311Y-36708233D01*
X131317612Y-36928070D01*
X131318000Y-36937956D01*
X131318000Y-41294044D01*
X131317612Y-41303930D01*
X131307046Y-41438194D01*
X131300311Y-41523767D01*
X131297218Y-41543295D01*
X131246900Y-41752884D01*
X131240792Y-41771683D01*
X131158301Y-41970835D01*
X131149334Y-41988433D01*
X131036706Y-42172224D01*
X131025089Y-42188214D01*
X130920659Y-42310486D01*
X130885100Y-42352120D01*
X130871122Y-42366098D01*
X130711732Y-42502230D01*
X130646944Y-42531260D01*
X130576744Y-42520655D01*
X130523422Y-42473780D01*
X130503906Y-42405519D01*
X130507320Y-42377272D01*
X130511105Y-42361352D01*
X130516631Y-42310486D01*
X130517000Y-42303672D01*
X130517000Y-42277115D01*
X130512525Y-42261876D01*
X130511135Y-42260671D01*
X130503452Y-42259000D01*
X127819116Y-42259000D01*
X127803877Y-42263475D01*
X127802672Y-42264865D01*
X127801001Y-42272548D01*
X127801001Y-42303669D01*
X127801371Y-42310490D01*
X127806895Y-42361352D01*
X127810521Y-42376604D01*
X127855676Y-42497054D01*
X127864214Y-42512648D01*
X127927758Y-42597435D01*
X127952606Y-42663941D01*
X127937553Y-42733324D01*
X127887379Y-42783554D01*
X127826932Y-42799000D01*
X119106956Y-42799000D01*
X119097070Y-42798612D01*
X119059565Y-42795660D01*
X118877232Y-42781311D01*
X118857705Y-42778218D01*
X118648112Y-42727899D01*
X118629317Y-42721792D01*
X118430165Y-42639301D01*
X118412567Y-42630334D01*
X118228773Y-42517704D01*
X118212786Y-42506089D01*
X118048878Y-42366098D01*
X118034900Y-42352120D01*
X117999341Y-42310486D01*
X117894911Y-42188214D01*
X117883294Y-42172224D01*
X117770666Y-41988433D01*
X117761699Y-41970835D01*
X117679208Y-41771683D01*
X117673100Y-41752884D01*
X117622782Y-41543295D01*
X117621893Y-41537685D01*
X127801000Y-41537685D01*
X127805475Y-41552924D01*
X127806865Y-41554129D01*
X127814548Y-41555800D01*
X128789285Y-41555800D01*
X128804524Y-41551325D01*
X128805729Y-41549935D01*
X128807400Y-41542252D01*
X128807400Y-41537685D01*
X129510600Y-41537685D01*
X129515075Y-41552924D01*
X129516465Y-41554129D01*
X129524148Y-41555800D01*
X130498884Y-41555800D01*
X130514123Y-41551325D01*
X130515328Y-41549935D01*
X130516999Y-41542252D01*
X130516999Y-41511131D01*
X130516629Y-41504310D01*
X130511105Y-41453448D01*
X130507479Y-41438196D01*
X130462324Y-41317746D01*
X130453786Y-41302151D01*
X130377285Y-41200076D01*
X130364724Y-41187515D01*
X130262649Y-41111014D01*
X130247054Y-41102476D01*
X130126606Y-41057322D01*
X130111351Y-41053695D01*
X130060486Y-41048169D01*
X130053672Y-41047800D01*
X129528715Y-41047800D01*
X129513476Y-41052275D01*
X129512271Y-41053665D01*
X129510600Y-41061348D01*
X129510600Y-41537685D01*
X128807400Y-41537685D01*
X128807400Y-41065916D01*
X128802925Y-41050677D01*
X128801535Y-41049472D01*
X128793852Y-41047801D01*
X128264331Y-41047801D01*
X128257510Y-41048171D01*
X128206648Y-41053695D01*
X128191396Y-41057321D01*
X128070946Y-41102476D01*
X128055351Y-41111014D01*
X127953276Y-41187515D01*
X127940715Y-41200076D01*
X127864214Y-41302151D01*
X127855676Y-41317746D01*
X127810522Y-41438194D01*
X127806895Y-41453449D01*
X127801369Y-41504314D01*
X127801000Y-41511128D01*
X127801000Y-41537685D01*
X117621893Y-41537685D01*
X117619689Y-41523767D01*
X117612955Y-41438194D01*
X117602388Y-41303930D01*
X117602000Y-41294044D01*
X117602000Y-40442099D01*
X119247149Y-40442099D01*
X119250024Y-40445940D01*
X119319628Y-40472519D01*
X119329526Y-40475395D01*
X119546553Y-40519549D01*
X119556782Y-40520768D01*
X119778104Y-40528885D01*
X119788390Y-40528418D01*
X120008068Y-40500276D01*
X120018154Y-40498133D01*
X120181225Y-40449209D01*
X120193043Y-40441515D01*
X120192653Y-40438906D01*
X120190734Y-40436160D01*
X119731913Y-39977339D01*
X119717969Y-39969725D01*
X119716136Y-39969856D01*
X119709521Y-39974107D01*
X119253909Y-40429719D01*
X119247149Y-40442099D01*
X117602000Y-40442099D01*
X117602000Y-39086595D01*
X118305289Y-39086595D01*
X118318038Y-39307695D01*
X118319474Y-39317916D01*
X118368161Y-39533954D01*
X118371245Y-39543795D01*
X118385087Y-39577883D01*
X118393859Y-39588926D01*
X118398894Y-39587678D01*
X118857761Y-39128811D01*
X118864139Y-39117131D01*
X120572827Y-39117131D01*
X120572958Y-39118964D01*
X120577209Y-39125579D01*
X121034083Y-39582453D01*
X121046463Y-39589213D01*
X121048667Y-39587563D01*
X121050087Y-39584759D01*
X121100184Y-39419868D01*
X121102361Y-39409798D01*
X121131506Y-39188421D01*
X121132025Y-39181746D01*
X121133550Y-39119363D01*
X121133356Y-39112645D01*
X121115062Y-38890120D01*
X121113379Y-38879958D01*
X121059426Y-38665160D01*
X121056104Y-38655401D01*
X121054880Y-38652586D01*
X121045841Y-38641761D01*
X121040368Y-38643260D01*
X120580441Y-39103187D01*
X120572827Y-39117131D01*
X118864139Y-39117131D01*
X118865375Y-39114867D01*
X118865244Y-39113034D01*
X118860993Y-39106419D01*
X118402337Y-38647763D01*
X118389957Y-38641003D01*
X118388404Y-38642165D01*
X118386383Y-38646281D01*
X118331007Y-38845959D01*
X118329076Y-38856079D01*
X118305541Y-39076306D01*
X118305289Y-39086595D01*
X117602000Y-39086595D01*
X117602000Y-37791517D01*
X119246388Y-37791517D01*
X119246982Y-37794915D01*
X119248089Y-37796459D01*
X119706289Y-38254659D01*
X119720233Y-38262273D01*
X119722066Y-38262142D01*
X119728681Y-38257891D01*
X120184112Y-37802460D01*
X120190872Y-37790080D01*
X120188320Y-37786671D01*
X120187934Y-37786464D01*
X120085312Y-37750123D01*
X120075341Y-37747489D01*
X119857309Y-37708652D01*
X119847056Y-37707683D01*
X119625597Y-37704977D01*
X119615314Y-37705697D01*
X119396398Y-37739195D01*
X119386371Y-37741584D01*
X119258014Y-37783537D01*
X119246388Y-37791517D01*
X117602000Y-37791517D01*
X117602000Y-36937956D01*
X117602388Y-36928070D01*
X117619689Y-36708233D01*
X117622782Y-36688705D01*
X117673100Y-36479116D01*
X117679210Y-36460312D01*
X117761699Y-36261165D01*
X117770666Y-36243567D01*
X117883296Y-36059773D01*
X117894911Y-36043786D01*
X118034902Y-35879878D01*
X118048880Y-35865900D01*
X118212786Y-35725911D01*
X118228773Y-35714296D01*
X118412567Y-35601666D01*
X118430165Y-35592699D01*
X118629317Y-35510208D01*
X118648112Y-35504101D01*
X118857706Y-35453782D01*
X118877232Y-35450689D01*
X119097070Y-35433388D01*
X119106956Y-35433000D01*
X129813044Y-35433000D01*
X129822930Y-35433388D01*
G37*
%TD.AperFunction*%
%TD*%
%TA.AperFunction,Conductor*%
%TO.N,PhaseB-*%
G36*
X94008930Y-74041388D02*
G01*
X94228768Y-74058689D01*
X94248294Y-74061782D01*
X94457888Y-74112101D01*
X94476683Y-74118208D01*
X94675835Y-74200699D01*
X94693433Y-74209666D01*
X94877227Y-74322296D01*
X94893214Y-74333911D01*
X95057120Y-74473900D01*
X95071098Y-74487878D01*
X95211089Y-74651786D01*
X95222704Y-74667773D01*
X95335334Y-74851567D01*
X95344301Y-74869165D01*
X95426790Y-75068312D01*
X95432899Y-75087112D01*
X95471591Y-75248276D01*
X95483218Y-75296705D01*
X95486311Y-75316233D01*
X95502262Y-75518914D01*
X95487666Y-75588394D01*
X95437823Y-75638954D01*
X95376650Y-75654800D01*
X95339195Y-75654800D01*
X95271074Y-75634798D01*
X95224581Y-75581142D01*
X95213932Y-75542405D01*
X95209505Y-75501648D01*
X95205879Y-75486396D01*
X95160724Y-75365946D01*
X95152186Y-75350351D01*
X95075685Y-75248276D01*
X95063124Y-75235715D01*
X94961049Y-75159214D01*
X94945454Y-75150676D01*
X94825006Y-75105522D01*
X94809751Y-75101895D01*
X94758886Y-75096369D01*
X94752072Y-75096000D01*
X94725515Y-75096000D01*
X94710276Y-75100475D01*
X94709071Y-75101865D01*
X94707400Y-75109548D01*
X94707400Y-77793884D01*
X94711875Y-77809123D01*
X94713265Y-77810328D01*
X94720948Y-77811999D01*
X94752069Y-77811999D01*
X94758890Y-77811629D01*
X94809752Y-77806105D01*
X94825004Y-77802479D01*
X94945454Y-77757324D01*
X94961049Y-77748786D01*
X95063124Y-77672285D01*
X95075685Y-77659724D01*
X95152186Y-77557649D01*
X95160724Y-77542054D01*
X95205878Y-77421606D01*
X95209506Y-77406351D01*
X95213933Y-77365593D01*
X95241175Y-77300031D01*
X95299537Y-77259604D01*
X95339196Y-77253200D01*
X95378000Y-77253200D01*
X95446121Y-77273202D01*
X95492614Y-77326858D01*
X95504000Y-77379200D01*
X95504000Y-78237622D01*
X95503208Y-78251730D01*
X95485529Y-78408634D01*
X95479250Y-78436141D01*
X95429454Y-78578449D01*
X95417212Y-78603870D01*
X95336995Y-78731535D01*
X95319403Y-78753594D01*
X95212794Y-78860203D01*
X95190735Y-78877795D01*
X95063070Y-78958012D01*
X95037649Y-78970254D01*
X94895341Y-79020050D01*
X94867834Y-79026329D01*
X94751805Y-79039402D01*
X94710929Y-79044008D01*
X94696822Y-79044800D01*
X93903800Y-79044800D01*
X91948000Y-81000600D01*
X91948000Y-92348044D01*
X91947612Y-92357930D01*
X91930311Y-92577767D01*
X91927218Y-92597295D01*
X91876900Y-92806884D01*
X91870792Y-92825683D01*
X91788301Y-93024835D01*
X91779334Y-93042433D01*
X91666706Y-93226224D01*
X91655089Y-93242214D01*
X91515100Y-93406120D01*
X91501122Y-93420098D01*
X91337214Y-93560089D01*
X91321227Y-93571704D01*
X91137433Y-93684334D01*
X91119835Y-93693301D01*
X90920683Y-93775792D01*
X90901888Y-93781899D01*
X90692295Y-93832218D01*
X90672768Y-93835311D01*
X90490435Y-93849660D01*
X90452930Y-93852612D01*
X90443044Y-93853000D01*
X79609956Y-93853000D01*
X79600070Y-93852612D01*
X79562565Y-93849660D01*
X79380232Y-93835311D01*
X79360705Y-93832218D01*
X79151112Y-93781899D01*
X79132317Y-93775792D01*
X78933165Y-93693301D01*
X78915567Y-93684334D01*
X78731773Y-93571704D01*
X78715786Y-93560089D01*
X78551878Y-93420098D01*
X78537900Y-93406120D01*
X78397911Y-93242214D01*
X78386294Y-93226224D01*
X78273666Y-93042433D01*
X78264699Y-93024835D01*
X78225915Y-92931201D01*
X79665049Y-92931201D01*
X79667924Y-92935042D01*
X79737528Y-92961621D01*
X79747426Y-92964497D01*
X79964453Y-93008651D01*
X79974682Y-93009870D01*
X80196004Y-93017987D01*
X80206290Y-93017520D01*
X80425968Y-92989378D01*
X80436054Y-92987235D01*
X80599125Y-92938311D01*
X80610943Y-92930617D01*
X80610553Y-92928008D01*
X80608634Y-92925262D01*
X80149813Y-92466441D01*
X80135869Y-92458827D01*
X80134036Y-92458958D01*
X80127421Y-92463209D01*
X79671809Y-92918821D01*
X79665049Y-92931201D01*
X78225915Y-92931201D01*
X78182208Y-92825683D01*
X78176100Y-92806884D01*
X78125782Y-92597295D01*
X78122689Y-92577767D01*
X78105388Y-92357930D01*
X78105000Y-92348044D01*
X78105000Y-91575697D01*
X78723189Y-91575697D01*
X78735938Y-91796797D01*
X78737374Y-91807018D01*
X78786061Y-92023056D01*
X78789145Y-92032897D01*
X78802987Y-92066985D01*
X78811759Y-92078028D01*
X78816794Y-92076780D01*
X79275661Y-91617913D01*
X79282039Y-91606233D01*
X80990727Y-91606233D01*
X80990858Y-91608066D01*
X80995109Y-91614681D01*
X81451983Y-92071555D01*
X81464363Y-92078315D01*
X81466567Y-92076665D01*
X81467987Y-92073861D01*
X81518084Y-91908970D01*
X81520261Y-91898900D01*
X81549406Y-91677523D01*
X81549925Y-91670848D01*
X81551450Y-91608465D01*
X81551256Y-91601747D01*
X81532962Y-91379222D01*
X81531279Y-91369060D01*
X81477326Y-91154262D01*
X81474004Y-91144503D01*
X81472780Y-91141688D01*
X81463741Y-91130863D01*
X81458268Y-91132362D01*
X80998341Y-91592289D01*
X80990727Y-91606233D01*
X79282039Y-91606233D01*
X79283275Y-91603969D01*
X79283144Y-91602136D01*
X79278893Y-91595521D01*
X78820237Y-91136865D01*
X78807857Y-91130105D01*
X78806304Y-91131267D01*
X78804283Y-91135383D01*
X78748907Y-91335061D01*
X78746976Y-91345181D01*
X78723441Y-91565408D01*
X78723189Y-91575697D01*
X78105000Y-91575697D01*
X78105000Y-91293956D01*
X78105388Y-91284070D01*
X78117327Y-91132362D01*
X78122689Y-91064232D01*
X78125782Y-91044705D01*
X78176100Y-90835116D01*
X78182210Y-90816312D01*
X78210923Y-90746993D01*
X78264699Y-90617165D01*
X78273666Y-90599567D01*
X78386296Y-90415773D01*
X78397911Y-90399786D01*
X78499689Y-90280619D01*
X79664288Y-90280619D01*
X79664882Y-90284017D01*
X79665989Y-90285561D01*
X80124189Y-90743761D01*
X80138133Y-90751375D01*
X80139966Y-90751244D01*
X80146581Y-90746993D01*
X80602012Y-90291562D01*
X80608772Y-90279182D01*
X80606220Y-90275773D01*
X80605834Y-90275566D01*
X80503212Y-90239225D01*
X80493241Y-90236591D01*
X80275209Y-90197754D01*
X80264956Y-90196785D01*
X80043497Y-90194079D01*
X80033214Y-90194799D01*
X79814298Y-90228297D01*
X79804271Y-90230686D01*
X79675914Y-90272639D01*
X79664288Y-90280619D01*
X78499689Y-90280619D01*
X78537902Y-90235878D01*
X78551880Y-90221900D01*
X78715786Y-90081911D01*
X78731773Y-90070296D01*
X78915567Y-89957666D01*
X78933165Y-89948699D01*
X79132317Y-89866208D01*
X79151112Y-89860101D01*
X79360706Y-89809782D01*
X79380232Y-89806689D01*
X79600070Y-89789388D01*
X79609956Y-89789000D01*
X85572600Y-89789000D01*
X87299800Y-88061800D01*
X87299800Y-77348669D01*
X93496201Y-77348669D01*
X93496571Y-77355490D01*
X93502095Y-77406352D01*
X93505721Y-77421604D01*
X93550876Y-77542054D01*
X93559414Y-77557649D01*
X93635915Y-77659724D01*
X93648476Y-77672285D01*
X93750551Y-77748786D01*
X93766146Y-77757324D01*
X93886594Y-77802478D01*
X93901849Y-77806105D01*
X93952714Y-77811631D01*
X93959528Y-77812000D01*
X93986085Y-77812000D01*
X94001324Y-77807525D01*
X94002529Y-77806135D01*
X94004200Y-77798452D01*
X94004200Y-76823715D01*
X93999725Y-76808476D01*
X93998335Y-76807271D01*
X93990652Y-76805600D01*
X93514316Y-76805600D01*
X93499077Y-76810075D01*
X93497872Y-76811465D01*
X93496201Y-76819148D01*
X93496201Y-77348669D01*
X87299800Y-77348669D01*
X87299800Y-76084285D01*
X93496200Y-76084285D01*
X93500675Y-76099524D01*
X93502065Y-76100729D01*
X93509748Y-76102400D01*
X93986085Y-76102400D01*
X94001324Y-76097925D01*
X94002529Y-76096535D01*
X94004200Y-76088852D01*
X94004200Y-75114116D01*
X93999725Y-75098877D01*
X93998335Y-75097672D01*
X93990652Y-75096001D01*
X93959531Y-75096001D01*
X93952710Y-75096371D01*
X93901848Y-75101895D01*
X93886596Y-75105521D01*
X93766146Y-75150676D01*
X93750551Y-75159214D01*
X93648476Y-75235715D01*
X93635915Y-75248276D01*
X93559414Y-75350351D01*
X93550876Y-75365946D01*
X93505722Y-75486394D01*
X93502095Y-75501649D01*
X93496569Y-75552514D01*
X93496200Y-75559328D01*
X93496200Y-76084285D01*
X87299800Y-76084285D01*
X87299800Y-75545956D01*
X87300188Y-75536070D01*
X87317489Y-75316233D01*
X87320582Y-75296705D01*
X87332209Y-75248276D01*
X87370901Y-75087112D01*
X87377010Y-75068312D01*
X87459499Y-74869165D01*
X87468466Y-74851567D01*
X87581096Y-74667773D01*
X87592711Y-74651786D01*
X87732702Y-74487878D01*
X87746680Y-74473900D01*
X87910586Y-74333911D01*
X87926573Y-74322296D01*
X88110367Y-74209666D01*
X88127965Y-74200699D01*
X88327117Y-74118208D01*
X88345912Y-74112101D01*
X88555506Y-74061782D01*
X88575032Y-74058689D01*
X88794870Y-74041388D01*
X88804756Y-74041000D01*
X93999044Y-74041000D01*
X94008930Y-74041388D01*
G37*
%TD.AperFunction*%
%TD*%
%TA.AperFunction,Conductor*%
%TO.N,GND*%
G36*
X94516930Y-59588788D02*
G01*
X94736768Y-59606089D01*
X94756294Y-59609182D01*
X94965888Y-59659501D01*
X94984683Y-59665608D01*
X95183835Y-59748099D01*
X95201433Y-59757066D01*
X95385227Y-59869696D01*
X95401214Y-59881311D01*
X95565120Y-60021300D01*
X95579098Y-60035278D01*
X95719089Y-60199186D01*
X95730704Y-60215173D01*
X95843334Y-60398967D01*
X95852301Y-60416565D01*
X95934790Y-60615712D01*
X95940900Y-60634516D01*
X95991218Y-60844105D01*
X95994311Y-60863633D01*
X96011612Y-61083470D01*
X96012000Y-61093356D01*
X96012000Y-63925444D01*
X96011612Y-63935330D01*
X95994311Y-64155167D01*
X95991218Y-64174695D01*
X95940900Y-64384284D01*
X95934792Y-64403083D01*
X95852301Y-64602235D01*
X95843334Y-64619833D01*
X95730706Y-64803624D01*
X95719089Y-64819614D01*
X95579100Y-64983520D01*
X95565122Y-64997498D01*
X95508829Y-65045577D01*
X95444042Y-65074607D01*
X95373841Y-65064002D01*
X95320519Y-65017128D01*
X95301000Y-64949765D01*
X95301000Y-64590615D01*
X95296525Y-64575376D01*
X95295135Y-64574171D01*
X95287452Y-64572500D01*
X91799772Y-64572500D01*
X91731651Y-64552498D01*
X91685158Y-64498842D01*
X91674509Y-64432892D01*
X91677748Y-64403083D01*
X91691324Y-64278111D01*
X91674087Y-64081087D01*
X91648003Y-63991305D01*
X91643000Y-63956152D01*
X91643000Y-63944385D01*
X92253000Y-63944385D01*
X92257475Y-63959624D01*
X92258865Y-63960829D01*
X92266548Y-63962500D01*
X92894885Y-63962500D01*
X92910124Y-63958025D01*
X92911329Y-63956635D01*
X92913000Y-63948952D01*
X92913000Y-63944385D01*
X93523000Y-63944385D01*
X93527475Y-63959624D01*
X93528865Y-63960829D01*
X93536548Y-63962500D01*
X94164885Y-63962500D01*
X94180124Y-63958025D01*
X94181329Y-63956635D01*
X94183000Y-63948952D01*
X94183000Y-63944385D01*
X94793000Y-63944385D01*
X94797475Y-63959624D01*
X94798865Y-63960829D01*
X94806548Y-63962500D01*
X95282884Y-63962500D01*
X95298123Y-63958025D01*
X95299328Y-63956635D01*
X95300999Y-63948952D01*
X95300999Y-63587831D01*
X95300629Y-63581010D01*
X95295105Y-63530148D01*
X95291479Y-63514896D01*
X95246324Y-63394446D01*
X95237786Y-63378851D01*
X95161285Y-63276776D01*
X95148724Y-63264215D01*
X95046649Y-63187714D01*
X95031054Y-63179176D01*
X94910606Y-63134022D01*
X94895351Y-63130395D01*
X94844486Y-63124869D01*
X94837672Y-63124500D01*
X94811115Y-63124500D01*
X94795876Y-63128975D01*
X94794671Y-63130365D01*
X94793000Y-63138048D01*
X94793000Y-63944385D01*
X94183000Y-63944385D01*
X94183000Y-63142616D01*
X94178525Y-63127377D01*
X94177135Y-63126172D01*
X94169452Y-63124501D01*
X94138331Y-63124501D01*
X94131510Y-63124871D01*
X94080648Y-63130395D01*
X94065396Y-63134021D01*
X93944946Y-63179176D01*
X93929353Y-63187713D01*
X93928562Y-63188306D01*
X93927643Y-63188649D01*
X93921483Y-63192022D01*
X93920996Y-63191132D01*
X93862054Y-63213151D01*
X93792672Y-63198096D01*
X93777438Y-63188306D01*
X93776647Y-63187713D01*
X93761054Y-63179176D01*
X93640606Y-63134022D01*
X93625351Y-63130395D01*
X93574486Y-63124869D01*
X93567672Y-63124500D01*
X93541115Y-63124500D01*
X93525876Y-63128975D01*
X93524671Y-63130365D01*
X93523000Y-63138048D01*
X93523000Y-63944385D01*
X92913000Y-63944385D01*
X92913000Y-63142616D01*
X92908525Y-63127377D01*
X92907135Y-63126172D01*
X92899452Y-63124501D01*
X92868331Y-63124501D01*
X92861510Y-63124871D01*
X92810648Y-63130395D01*
X92795396Y-63134021D01*
X92674946Y-63179176D01*
X92659353Y-63187713D01*
X92658562Y-63188306D01*
X92657643Y-63188649D01*
X92651483Y-63192022D01*
X92650996Y-63191132D01*
X92592054Y-63213151D01*
X92522672Y-63198096D01*
X92507438Y-63188306D01*
X92506647Y-63187713D01*
X92491054Y-63179176D01*
X92370606Y-63134022D01*
X92355351Y-63130395D01*
X92304486Y-63124869D01*
X92297672Y-63124500D01*
X92271115Y-63124500D01*
X92255876Y-63128975D01*
X92254671Y-63130365D01*
X92253000Y-63138048D01*
X92253000Y-63944385D01*
X91643000Y-63944385D01*
X91643000Y-63142616D01*
X91638525Y-63127377D01*
X91637135Y-63126172D01*
X91629452Y-63124501D01*
X91598331Y-63124501D01*
X91591510Y-63124871D01*
X91540648Y-63130395D01*
X91525394Y-63134022D01*
X91450329Y-63162162D01*
X91379522Y-63167345D01*
X91317153Y-63133424D01*
X91283024Y-63071169D01*
X91280100Y-63044180D01*
X91280100Y-62231031D01*
X91279414Y-62224027D01*
X91266281Y-62090101D01*
X91265680Y-62083967D01*
X91208516Y-61894631D01*
X91205624Y-61889192D01*
X91205622Y-61889187D01*
X91200748Y-61880020D01*
X91186000Y-61820868D01*
X91186000Y-61093356D01*
X91186388Y-61083470D01*
X91203689Y-60863633D01*
X91206782Y-60844105D01*
X91257100Y-60634516D01*
X91263210Y-60615712D01*
X91345699Y-60416565D01*
X91354666Y-60398967D01*
X91467296Y-60215173D01*
X91478911Y-60199186D01*
X91618902Y-60035278D01*
X91632880Y-60021300D01*
X91796786Y-59881311D01*
X91812773Y-59869696D01*
X91996567Y-59757066D01*
X92014165Y-59748099D01*
X92213317Y-59665608D01*
X92232112Y-59659501D01*
X92441706Y-59609182D01*
X92461232Y-59606089D01*
X92681070Y-59588788D01*
X92690956Y-59588400D01*
X94507044Y-59588400D01*
X94516930Y-59588788D01*
G37*
%TD.AperFunction*%
%TD*%
%TA.AperFunction,Conductor*%
%TO.N,GND*%
G36*
X165433730Y-78689588D02*
G01*
X165653568Y-78706889D01*
X165673094Y-78709982D01*
X165882688Y-78760301D01*
X165901483Y-78766408D01*
X166100635Y-78848899D01*
X166118233Y-78857866D01*
X166302027Y-78970496D01*
X166318014Y-78982111D01*
X166481920Y-79122100D01*
X166495898Y-79136078D01*
X166635889Y-79299986D01*
X166647504Y-79315973D01*
X166760134Y-79499767D01*
X166769101Y-79517365D01*
X166851590Y-79716512D01*
X166857700Y-79735316D01*
X166908018Y-79944905D01*
X166911111Y-79964433D01*
X166928412Y-80184270D01*
X166928800Y-80194156D01*
X166928800Y-85312244D01*
X166928412Y-85322130D01*
X166911111Y-85541967D01*
X166908018Y-85561495D01*
X166857700Y-85771084D01*
X166851592Y-85789883D01*
X166769101Y-85989035D01*
X166760134Y-86006633D01*
X166647506Y-86190424D01*
X166635889Y-86206414D01*
X166495900Y-86370320D01*
X166481922Y-86384298D01*
X166318014Y-86524289D01*
X166302027Y-86535904D01*
X166118233Y-86648534D01*
X166100635Y-86657501D01*
X165901483Y-86739992D01*
X165882688Y-86746099D01*
X165673095Y-86796418D01*
X165653568Y-86799511D01*
X165471235Y-86813860D01*
X165433730Y-86816812D01*
X165423844Y-86817200D01*
X159086556Y-86817200D01*
X159076670Y-86816812D01*
X159039165Y-86813860D01*
X158856832Y-86799511D01*
X158837305Y-86796418D01*
X158627712Y-86746099D01*
X158608917Y-86739992D01*
X158409765Y-86657501D01*
X158392167Y-86648534D01*
X158208373Y-86535904D01*
X158192386Y-86524289D01*
X158028478Y-86384298D01*
X158014500Y-86370320D01*
X157874511Y-86206414D01*
X157862894Y-86190424D01*
X157750266Y-86006633D01*
X157741299Y-85989035D01*
X157672319Y-85822501D01*
X159132448Y-85822501D01*
X159135323Y-85826342D01*
X159204927Y-85852921D01*
X159214825Y-85855797D01*
X159431852Y-85899951D01*
X159442081Y-85901170D01*
X159663403Y-85909287D01*
X159673689Y-85908820D01*
X159893367Y-85880678D01*
X159903453Y-85878535D01*
X160066524Y-85829611D01*
X160078342Y-85821917D01*
X160077952Y-85819308D01*
X160076033Y-85816562D01*
X159617212Y-85357741D01*
X159603268Y-85350127D01*
X159601435Y-85350258D01*
X159594820Y-85354509D01*
X159139208Y-85810121D01*
X159132448Y-85822501D01*
X157672319Y-85822501D01*
X157658808Y-85789883D01*
X157652700Y-85771084D01*
X157602382Y-85561495D01*
X157599289Y-85541967D01*
X157581988Y-85322130D01*
X157581600Y-85312244D01*
X157581600Y-84466997D01*
X158190588Y-84466997D01*
X158203337Y-84688097D01*
X158204773Y-84698318D01*
X158253460Y-84914356D01*
X158256544Y-84924197D01*
X158270386Y-84958285D01*
X158279158Y-84969328D01*
X158284193Y-84968080D01*
X158743060Y-84509213D01*
X158749438Y-84497533D01*
X160458126Y-84497533D01*
X160458257Y-84499366D01*
X160462508Y-84505981D01*
X160919382Y-84962855D01*
X160931762Y-84969615D01*
X160933966Y-84967965D01*
X160935386Y-84965161D01*
X160985483Y-84800270D01*
X160987660Y-84790200D01*
X161016805Y-84568823D01*
X161017324Y-84562148D01*
X161018849Y-84499765D01*
X161018655Y-84493047D01*
X161000361Y-84270522D01*
X160998678Y-84260360D01*
X160944725Y-84045562D01*
X160941403Y-84035803D01*
X160940179Y-84032988D01*
X160931140Y-84022163D01*
X160925667Y-84023662D01*
X160465740Y-84483589D01*
X160458126Y-84497533D01*
X158749438Y-84497533D01*
X158750674Y-84495269D01*
X158750543Y-84493436D01*
X158746292Y-84486821D01*
X158287636Y-84028165D01*
X158275256Y-84021405D01*
X158273703Y-84022567D01*
X158271682Y-84026683D01*
X158216306Y-84226361D01*
X158214375Y-84236481D01*
X158190840Y-84456708D01*
X158190588Y-84466997D01*
X157581600Y-84466997D01*
X157581600Y-83171919D01*
X159131687Y-83171919D01*
X159132281Y-83175317D01*
X159133388Y-83176861D01*
X159591588Y-83635061D01*
X159605532Y-83642675D01*
X159607365Y-83642544D01*
X159613980Y-83638293D01*
X160069411Y-83182862D01*
X160076171Y-83170482D01*
X160073619Y-83167073D01*
X160073233Y-83166866D01*
X159970611Y-83130525D01*
X159960640Y-83127891D01*
X159742608Y-83089054D01*
X159732355Y-83088085D01*
X159510896Y-83085379D01*
X159500613Y-83086099D01*
X159281697Y-83119597D01*
X159271670Y-83121986D01*
X159143313Y-83163939D01*
X159131687Y-83171919D01*
X157581600Y-83171919D01*
X157581600Y-80194156D01*
X157581988Y-80184270D01*
X157599289Y-79964433D01*
X157602382Y-79944905D01*
X157652700Y-79735316D01*
X157658810Y-79716512D01*
X157741299Y-79517365D01*
X157750266Y-79499767D01*
X157862896Y-79315973D01*
X157874511Y-79299986D01*
X158014502Y-79136078D01*
X158028480Y-79122100D01*
X158192386Y-78982111D01*
X158208373Y-78970496D01*
X158392167Y-78857866D01*
X158409765Y-78848899D01*
X158608917Y-78766408D01*
X158627712Y-78760301D01*
X158837306Y-78709982D01*
X158856832Y-78706889D01*
X159076670Y-78689588D01*
X159086556Y-78689200D01*
X165423844Y-78689200D01*
X165433730Y-78689588D01*
G37*
%TD.AperFunction*%
%TD*%
%TA.AperFunction,Conductor*%
%TO.N,Net-(C3-Pad2)*%
G36*
X145240730Y-55626388D02*
G01*
X145460568Y-55643689D01*
X145480094Y-55646782D01*
X145689688Y-55697101D01*
X145708483Y-55703208D01*
X145907635Y-55785699D01*
X145925233Y-55794666D01*
X146109027Y-55907296D01*
X146125014Y-55918911D01*
X146288920Y-56058900D01*
X146302898Y-56072878D01*
X146442888Y-56236785D01*
X146454503Y-56252773D01*
X146471297Y-56280178D01*
X146489836Y-56348711D01*
X146482070Y-56373206D01*
X146485907Y-56374041D01*
X146477400Y-56413148D01*
X146477400Y-58741600D01*
X146457398Y-58809721D01*
X146403742Y-58856214D01*
X146351400Y-58867600D01*
X144622516Y-58867600D01*
X144607277Y-58872075D01*
X144606072Y-58873465D01*
X144604401Y-58881148D01*
X144604401Y-59672269D01*
X144604771Y-59679090D01*
X144610295Y-59729952D01*
X144613921Y-59745204D01*
X144659076Y-59865654D01*
X144667614Y-59881249D01*
X144744115Y-59983324D01*
X144756676Y-59995885D01*
X144858751Y-60072386D01*
X144874346Y-60080924D01*
X144994794Y-60126078D01*
X145010049Y-60129705D01*
X145060914Y-60135231D01*
X145067728Y-60135600D01*
X145646863Y-60135599D01*
X145714984Y-60155601D01*
X145761477Y-60209257D01*
X145771581Y-60279530D01*
X145742088Y-60344111D01*
X145676278Y-60384117D01*
X145480096Y-60431217D01*
X145460568Y-60434311D01*
X145278235Y-60448660D01*
X145240730Y-60451612D01*
X145230844Y-60452000D01*
X141357356Y-60452000D01*
X141347470Y-60451612D01*
X141309965Y-60448660D01*
X141127632Y-60434311D01*
X141108105Y-60431218D01*
X141108101Y-60431217D01*
X140898512Y-60380899D01*
X140879717Y-60374792D01*
X140680565Y-60292301D01*
X140662962Y-60283331D01*
X140470722Y-60165525D01*
X140414473Y-60117484D01*
X141519200Y-60117484D01*
X141523675Y-60132723D01*
X141525065Y-60133928D01*
X141532748Y-60135599D01*
X141728869Y-60135599D01*
X141735690Y-60135229D01*
X141786552Y-60129705D01*
X141801804Y-60126079D01*
X141922254Y-60080924D01*
X141937849Y-60072386D01*
X142039924Y-59995885D01*
X142052485Y-59983324D01*
X142128986Y-59881249D01*
X142137524Y-59865654D01*
X142182678Y-59745206D01*
X142186305Y-59729951D01*
X142191831Y-59679086D01*
X142192200Y-59672272D01*
X142192200Y-58885715D01*
X142187725Y-58870476D01*
X142186335Y-58869271D01*
X142178652Y-58867600D01*
X141537315Y-58867600D01*
X141522076Y-58872075D01*
X141520871Y-58873465D01*
X141519200Y-58881148D01*
X141519200Y-60117484D01*
X140414473Y-60117484D01*
X140319200Y-60036113D01*
X140319200Y-57649485D01*
X141519200Y-57649485D01*
X141523675Y-57664724D01*
X141525065Y-57665929D01*
X141532748Y-57667600D01*
X142174084Y-57667600D01*
X142189323Y-57663125D01*
X142190528Y-57661735D01*
X142192199Y-57654052D01*
X142192199Y-57649485D01*
X144604400Y-57649485D01*
X144608875Y-57664724D01*
X144610265Y-57665929D01*
X144617948Y-57667600D01*
X145259285Y-57667600D01*
X145274524Y-57663125D01*
X145275729Y-57661735D01*
X145277400Y-57654052D01*
X145277400Y-56417716D01*
X145272925Y-56402477D01*
X145271535Y-56401272D01*
X145263852Y-56399601D01*
X145067731Y-56399601D01*
X145060910Y-56399971D01*
X145010048Y-56405495D01*
X144994796Y-56409121D01*
X144874346Y-56454276D01*
X144858751Y-56462814D01*
X144756676Y-56539315D01*
X144744115Y-56551876D01*
X144667614Y-56653951D01*
X144659076Y-56669546D01*
X144613922Y-56789994D01*
X144610295Y-56805249D01*
X144604769Y-56856114D01*
X144604400Y-56862928D01*
X144604400Y-57649485D01*
X142192199Y-57649485D01*
X142192199Y-56862931D01*
X142191829Y-56856110D01*
X142186305Y-56805248D01*
X142182679Y-56789996D01*
X142137524Y-56669546D01*
X142128986Y-56653951D01*
X142052485Y-56551876D01*
X142039924Y-56539315D01*
X141937849Y-56462814D01*
X141922254Y-56454276D01*
X141801806Y-56409122D01*
X141786551Y-56405495D01*
X141735686Y-56399969D01*
X141728872Y-56399600D01*
X141537315Y-56399600D01*
X141522076Y-56404075D01*
X141520871Y-56405465D01*
X141519200Y-56413148D01*
X141519200Y-57649485D01*
X140319200Y-57649485D01*
X140319200Y-56417716D01*
X140314725Y-56402477D01*
X140313335Y-56401272D01*
X140305652Y-56399601D01*
X140279569Y-56399601D01*
X140211448Y-56379599D01*
X140164955Y-56325943D01*
X140154851Y-56255669D01*
X140183757Y-56191772D01*
X140285302Y-56072878D01*
X140299280Y-56058900D01*
X140463186Y-55918911D01*
X140479173Y-55907296D01*
X140662967Y-55794666D01*
X140680565Y-55785699D01*
X140879717Y-55703208D01*
X140898512Y-55697101D01*
X141108106Y-55646782D01*
X141127632Y-55643689D01*
X141347470Y-55626388D01*
X141357356Y-55626000D01*
X145230844Y-55626000D01*
X145240730Y-55626388D01*
G37*
%TD.AperFunction*%
%TD*%
%TA.AperFunction,Conductor*%
%TO.N,PhaseC-*%
G36*
X81794053Y-76347002D02*
G01*
X81840546Y-76400658D01*
X81850650Y-76470932D01*
X81826758Y-76528565D01*
X81763214Y-76613352D01*
X81754676Y-76628946D01*
X81709522Y-76749394D01*
X81705895Y-76764649D01*
X81700369Y-76815514D01*
X81700000Y-76822328D01*
X81700000Y-76848885D01*
X81704475Y-76864124D01*
X81705865Y-76865329D01*
X81713548Y-76867000D01*
X84397884Y-76867000D01*
X84413123Y-76862525D01*
X84414328Y-76861135D01*
X84415999Y-76853452D01*
X84415999Y-76822331D01*
X84415629Y-76815510D01*
X84410105Y-76764648D01*
X84406479Y-76749396D01*
X84361324Y-76628946D01*
X84352786Y-76613352D01*
X84289242Y-76528565D01*
X84264394Y-76462059D01*
X84279447Y-76392676D01*
X84329621Y-76342446D01*
X84390068Y-76327000D01*
X84474044Y-76327000D01*
X84483930Y-76327388D01*
X84703768Y-76344689D01*
X84723294Y-76347782D01*
X84932888Y-76398101D01*
X84951683Y-76404208D01*
X85150835Y-76486699D01*
X85168433Y-76495666D01*
X85352227Y-76608296D01*
X85368214Y-76619911D01*
X85519819Y-76749394D01*
X85532120Y-76759900D01*
X85546098Y-76773878D01*
X85686089Y-76937786D01*
X85697704Y-76953773D01*
X85810334Y-77137567D01*
X85819301Y-77155165D01*
X85901790Y-77354312D01*
X85907900Y-77373116D01*
X85958218Y-77582705D01*
X85961311Y-77602232D01*
X85975660Y-77784565D01*
X85978612Y-77822070D01*
X85979000Y-77831956D01*
X85979000Y-86760044D01*
X85978612Y-86769930D01*
X85961311Y-86989767D01*
X85958218Y-87009294D01*
X85941717Y-87078028D01*
X85907900Y-87218884D01*
X85901792Y-87237683D01*
X85819301Y-87436835D01*
X85810334Y-87454433D01*
X85697706Y-87638224D01*
X85686089Y-87654214D01*
X85546100Y-87818120D01*
X85532122Y-87832098D01*
X85368214Y-87972089D01*
X85352227Y-87983704D01*
X85168433Y-88096334D01*
X85150835Y-88105301D01*
X84951683Y-88187792D01*
X84932888Y-88193899D01*
X84723295Y-88244218D01*
X84703768Y-88247311D01*
X84528352Y-88261116D01*
X84483930Y-88264612D01*
X84474044Y-88265000D01*
X80249613Y-88265000D01*
X80181492Y-88244998D01*
X80155089Y-88214527D01*
X80149860Y-88224947D01*
X80088767Y-88261116D01*
X80057723Y-88265000D01*
X79609956Y-88265000D01*
X79600070Y-88264612D01*
X79555648Y-88261116D01*
X79380232Y-88247311D01*
X79360705Y-88244218D01*
X79151112Y-88193899D01*
X79132317Y-88187792D01*
X78933165Y-88105301D01*
X78915567Y-88096334D01*
X78731773Y-87983704D01*
X78715786Y-87972089D01*
X78667912Y-87931201D01*
X79665049Y-87931201D01*
X79667924Y-87935042D01*
X79737528Y-87961621D01*
X79747426Y-87964497D01*
X79964453Y-88008651D01*
X79974682Y-88009870D01*
X80062340Y-88013085D01*
X80129682Y-88035570D01*
X80151534Y-88062739D01*
X80154389Y-88056488D01*
X80214115Y-88018104D01*
X80233603Y-88014021D01*
X80425968Y-87989378D01*
X80436054Y-87987235D01*
X80599125Y-87938311D01*
X80610943Y-87930617D01*
X80610553Y-87928008D01*
X80608634Y-87925262D01*
X80149813Y-87466441D01*
X80135869Y-87458827D01*
X80134036Y-87458958D01*
X80127421Y-87463209D01*
X79671809Y-87918821D01*
X79665049Y-87931201D01*
X78667912Y-87931201D01*
X78551878Y-87832098D01*
X78537900Y-87818120D01*
X78397911Y-87654214D01*
X78386294Y-87638224D01*
X78273666Y-87454433D01*
X78264699Y-87436835D01*
X78182208Y-87237683D01*
X78176100Y-87218884D01*
X78142284Y-87078028D01*
X78125782Y-87009294D01*
X78122689Y-86989767D01*
X78105388Y-86769930D01*
X78105000Y-86760044D01*
X78105000Y-86575697D01*
X78723189Y-86575697D01*
X78735938Y-86796797D01*
X78737374Y-86807018D01*
X78786061Y-87023056D01*
X78789145Y-87032897D01*
X78802987Y-87066985D01*
X78811759Y-87078028D01*
X78816794Y-87076780D01*
X79275661Y-86617913D01*
X79282039Y-86606233D01*
X80990727Y-86606233D01*
X80990858Y-86608066D01*
X80995109Y-86614681D01*
X81451983Y-87071555D01*
X81464363Y-87078315D01*
X81466567Y-87076665D01*
X81467987Y-87073861D01*
X81518084Y-86908970D01*
X81520261Y-86898900D01*
X81549406Y-86677523D01*
X81549925Y-86670848D01*
X81551450Y-86608465D01*
X81551256Y-86601747D01*
X81532962Y-86379222D01*
X81531279Y-86369060D01*
X81477326Y-86154262D01*
X81474004Y-86144503D01*
X81472780Y-86141688D01*
X81463741Y-86130863D01*
X81458268Y-86132362D01*
X80998341Y-86592289D01*
X80990727Y-86606233D01*
X79282039Y-86606233D01*
X79283275Y-86603969D01*
X79283144Y-86602136D01*
X79278893Y-86595521D01*
X78820237Y-86136865D01*
X78807857Y-86130105D01*
X78806304Y-86131267D01*
X78804283Y-86135383D01*
X78748907Y-86335061D01*
X78746976Y-86345181D01*
X78723441Y-86565408D01*
X78723189Y-86575697D01*
X78105000Y-86575697D01*
X78105000Y-85280619D01*
X79664288Y-85280619D01*
X79664882Y-85284017D01*
X79665989Y-85285561D01*
X80124189Y-85743761D01*
X80138133Y-85751375D01*
X80139966Y-85751244D01*
X80146581Y-85746993D01*
X80602012Y-85291562D01*
X80608772Y-85279182D01*
X80606220Y-85275773D01*
X80605834Y-85275566D01*
X80503212Y-85239225D01*
X80493241Y-85236591D01*
X80275209Y-85197754D01*
X80264956Y-85196785D01*
X80043497Y-85194079D01*
X80033214Y-85194799D01*
X79814298Y-85228297D01*
X79804271Y-85230686D01*
X79675914Y-85272639D01*
X79664288Y-85280619D01*
X78105000Y-85280619D01*
X78105000Y-77831956D01*
X78105388Y-77822070D01*
X78108340Y-77784565D01*
X78121695Y-77614869D01*
X81700001Y-77614869D01*
X81700371Y-77621690D01*
X81705895Y-77672552D01*
X81709521Y-77687804D01*
X81754676Y-77808254D01*
X81763214Y-77823849D01*
X81839715Y-77925924D01*
X81852276Y-77938485D01*
X81954351Y-78014986D01*
X81969946Y-78023524D01*
X82090394Y-78068678D01*
X82105649Y-78072305D01*
X82156514Y-78077831D01*
X82163328Y-78078200D01*
X82688285Y-78078200D01*
X82703524Y-78073725D01*
X82704729Y-78072335D01*
X82706400Y-78064652D01*
X82706400Y-78060084D01*
X83409600Y-78060084D01*
X83414075Y-78075323D01*
X83415465Y-78076528D01*
X83423148Y-78078199D01*
X83952669Y-78078199D01*
X83959490Y-78077829D01*
X84010352Y-78072305D01*
X84025604Y-78068679D01*
X84146054Y-78023524D01*
X84161649Y-78014986D01*
X84263724Y-77938485D01*
X84276285Y-77925924D01*
X84352786Y-77823849D01*
X84361324Y-77808254D01*
X84406478Y-77687806D01*
X84410105Y-77672551D01*
X84415631Y-77621686D01*
X84416000Y-77614872D01*
X84416000Y-77588315D01*
X84411525Y-77573076D01*
X84410135Y-77571871D01*
X84402452Y-77570200D01*
X83427715Y-77570200D01*
X83412476Y-77574675D01*
X83411271Y-77576065D01*
X83409600Y-77583748D01*
X83409600Y-78060084D01*
X82706400Y-78060084D01*
X82706400Y-77588315D01*
X82701925Y-77573076D01*
X82700535Y-77571871D01*
X82692852Y-77570200D01*
X81718116Y-77570200D01*
X81702877Y-77574675D01*
X81701672Y-77576065D01*
X81700001Y-77583748D01*
X81700001Y-77614869D01*
X78121695Y-77614869D01*
X78122689Y-77602232D01*
X78125782Y-77582705D01*
X78176100Y-77373116D01*
X78182210Y-77354312D01*
X78264699Y-77155165D01*
X78273666Y-77137567D01*
X78386296Y-76953773D01*
X78397911Y-76937786D01*
X78537902Y-76773878D01*
X78551880Y-76759900D01*
X78564181Y-76749394D01*
X78715786Y-76619911D01*
X78731773Y-76608296D01*
X78915567Y-76495666D01*
X78933165Y-76486699D01*
X79132317Y-76404208D01*
X79151112Y-76398101D01*
X79360706Y-76347782D01*
X79380232Y-76344689D01*
X79600070Y-76327388D01*
X79609956Y-76327000D01*
X81725932Y-76327000D01*
X81794053Y-76347002D01*
G37*
%TD.AperFunction*%
%TD*%
%TA.AperFunction,Conductor*%
%TO.N,/DC+*%
G36*
X110137930Y-35433388D02*
G01*
X110357768Y-35450689D01*
X110377294Y-35453782D01*
X110586888Y-35504101D01*
X110605683Y-35510208D01*
X110804835Y-35592699D01*
X110822433Y-35601666D01*
X111006227Y-35714296D01*
X111022214Y-35725911D01*
X111186120Y-35865900D01*
X111200098Y-35879878D01*
X111340089Y-36043786D01*
X111351704Y-36059773D01*
X111464334Y-36243567D01*
X111473301Y-36261165D01*
X111555790Y-36460312D01*
X111561900Y-36479116D01*
X111612218Y-36688705D01*
X111615311Y-36708233D01*
X111632612Y-36928070D01*
X111633000Y-36937956D01*
X111633000Y-54610000D01*
X111639639Y-55220781D01*
X111651948Y-56353276D01*
X111651949Y-56353293D01*
X111658400Y-56946800D01*
X112068069Y-57376311D01*
X112068078Y-57376321D01*
X113127067Y-58486600D01*
X113871521Y-59267111D01*
X113878435Y-59274993D01*
X114012147Y-59440868D01*
X114023901Y-59458229D01*
X114120183Y-59629616D01*
X114125673Y-59639389D01*
X114134387Y-59658462D01*
X114204708Y-59853999D01*
X114210137Y-59874253D01*
X114247054Y-60078733D01*
X114249050Y-60099606D01*
X114251546Y-60307387D01*
X114250052Y-60328298D01*
X114218116Y-60533222D01*
X114218055Y-60533614D01*
X114213113Y-60553992D01*
X114147511Y-60751151D01*
X114139260Y-60770425D01*
X114041859Y-60953993D01*
X114030530Y-60971624D01*
X113975658Y-61043144D01*
X113904040Y-61136490D01*
X113889940Y-61152003D01*
X113737856Y-61293612D01*
X113721388Y-61306564D01*
X113547929Y-61420988D01*
X113529534Y-61431034D01*
X113402834Y-61487088D01*
X113339505Y-61515105D01*
X113319690Y-61521963D01*
X113118348Y-61573357D01*
X113097672Y-61576834D01*
X112885351Y-61594563D01*
X112874867Y-61595000D01*
X105029000Y-61595000D01*
X105029000Y-67329044D01*
X105028612Y-67338930D01*
X105012517Y-67543449D01*
X105011311Y-67558767D01*
X105008218Y-67578294D01*
X104971802Y-67729979D01*
X104957900Y-67787884D01*
X104951792Y-67806683D01*
X104869301Y-68005835D01*
X104860334Y-68023433D01*
X104747706Y-68207224D01*
X104736089Y-68223214D01*
X104596100Y-68387120D01*
X104582122Y-68401098D01*
X104418214Y-68541089D01*
X104402227Y-68552704D01*
X104218433Y-68665334D01*
X104200835Y-68674301D01*
X104001683Y-68756792D01*
X103982888Y-68762899D01*
X103775615Y-68812661D01*
X103773295Y-68813218D01*
X103753768Y-68816311D01*
X103614684Y-68827257D01*
X103545205Y-68812661D01*
X103494645Y-68762818D01*
X103478799Y-68701645D01*
X103478799Y-67798100D01*
X103498801Y-67729979D01*
X103529234Y-67697274D01*
X103581524Y-67658085D01*
X103594085Y-67645524D01*
X103670586Y-67543449D01*
X103679124Y-67527854D01*
X103724278Y-67407406D01*
X103727905Y-67392151D01*
X103733431Y-67341286D01*
X103733800Y-67334472D01*
X103733800Y-67102915D01*
X103729325Y-67087676D01*
X103727935Y-67086471D01*
X103720252Y-67084800D01*
X98315916Y-67084800D01*
X98300677Y-67089275D01*
X98299472Y-67090665D01*
X98297801Y-67098348D01*
X98297801Y-67334469D01*
X98298171Y-67341290D01*
X98303695Y-67392152D01*
X98307321Y-67407404D01*
X98352476Y-67527854D01*
X98361014Y-67543449D01*
X98437515Y-67645524D01*
X98450075Y-67658084D01*
X98502364Y-67697272D01*
X98544880Y-67754131D01*
X98552800Y-67798099D01*
X98552800Y-68708000D01*
X98532798Y-68776121D01*
X98479142Y-68822614D01*
X98426800Y-68834000D01*
X98151956Y-68834000D01*
X98142070Y-68833612D01*
X98002323Y-68822614D01*
X97922232Y-68816311D01*
X97902705Y-68813218D01*
X97900385Y-68812661D01*
X97693112Y-68762899D01*
X97674317Y-68756792D01*
X97475165Y-68674301D01*
X97457567Y-68665334D01*
X97273773Y-68552704D01*
X97257786Y-68541089D01*
X97093878Y-68401098D01*
X97079900Y-68387120D01*
X96939911Y-68223214D01*
X96928294Y-68207224D01*
X96815666Y-68023433D01*
X96806699Y-68005835D01*
X96724208Y-67806683D01*
X96718100Y-67787884D01*
X96704199Y-67729979D01*
X96667782Y-67578294D01*
X96664689Y-67558767D01*
X96663484Y-67543449D01*
X96647388Y-67338930D01*
X96647000Y-67329044D01*
X96647000Y-66456685D01*
X98297800Y-66456685D01*
X98302275Y-66471924D01*
X98303665Y-66473129D01*
X98311348Y-66474800D01*
X98787685Y-66474800D01*
X98802924Y-66470325D01*
X98804129Y-66468935D01*
X98805800Y-66461252D01*
X98805800Y-66456685D01*
X99415800Y-66456685D01*
X99420275Y-66471924D01*
X99421665Y-66473129D01*
X99429348Y-66474800D01*
X100057685Y-66474800D01*
X100072924Y-66470325D01*
X100074129Y-66468935D01*
X100075800Y-66461252D01*
X100075800Y-66456685D01*
X100685800Y-66456685D01*
X100690275Y-66471924D01*
X100691665Y-66473129D01*
X100699348Y-66474800D01*
X101327685Y-66474800D01*
X101342924Y-66470325D01*
X101344129Y-66468935D01*
X101345800Y-66461252D01*
X101345800Y-66456685D01*
X101955800Y-66456685D01*
X101960275Y-66471924D01*
X101961665Y-66473129D01*
X101969348Y-66474800D01*
X102597685Y-66474800D01*
X102612924Y-66470325D01*
X102614129Y-66468935D01*
X102615800Y-66461252D01*
X102615800Y-66456685D01*
X103225800Y-66456685D01*
X103230275Y-66471924D01*
X103231665Y-66473129D01*
X103239348Y-66474800D01*
X103715684Y-66474800D01*
X103730923Y-66470325D01*
X103732128Y-66468935D01*
X103733799Y-66461252D01*
X103733799Y-66225131D01*
X103733429Y-66218310D01*
X103727905Y-66167448D01*
X103724279Y-66152196D01*
X103679124Y-66031746D01*
X103670586Y-66016151D01*
X103594085Y-65914076D01*
X103581524Y-65901515D01*
X103479449Y-65825014D01*
X103463854Y-65816476D01*
X103343406Y-65771322D01*
X103328151Y-65767695D01*
X103277286Y-65762169D01*
X103270472Y-65761800D01*
X103243915Y-65761800D01*
X103228676Y-65766275D01*
X103227471Y-65767665D01*
X103225800Y-65775348D01*
X103225800Y-66456685D01*
X102615800Y-66456685D01*
X102615800Y-65779916D01*
X102611325Y-65764677D01*
X102609935Y-65763472D01*
X102602252Y-65761801D01*
X102571131Y-65761801D01*
X102564310Y-65762171D01*
X102513448Y-65767695D01*
X102498196Y-65771321D01*
X102377746Y-65816476D01*
X102362153Y-65825013D01*
X102361362Y-65825606D01*
X102360443Y-65825949D01*
X102354283Y-65829322D01*
X102353796Y-65828432D01*
X102294854Y-65850451D01*
X102225472Y-65835396D01*
X102210238Y-65825606D01*
X102209447Y-65825013D01*
X102193854Y-65816476D01*
X102073406Y-65771322D01*
X102058151Y-65767695D01*
X102007286Y-65762169D01*
X102000472Y-65761800D01*
X101973915Y-65761800D01*
X101958676Y-65766275D01*
X101957471Y-65767665D01*
X101955800Y-65775348D01*
X101955800Y-66456685D01*
X101345800Y-66456685D01*
X101345800Y-65779916D01*
X101341325Y-65764677D01*
X101339935Y-65763472D01*
X101332252Y-65761801D01*
X101301131Y-65761801D01*
X101294310Y-65762171D01*
X101243448Y-65767695D01*
X101228196Y-65771321D01*
X101107746Y-65816476D01*
X101092153Y-65825013D01*
X101091362Y-65825606D01*
X101090443Y-65825949D01*
X101084283Y-65829322D01*
X101083796Y-65828432D01*
X101024854Y-65850451D01*
X100955472Y-65835396D01*
X100940238Y-65825606D01*
X100939447Y-65825013D01*
X100923854Y-65816476D01*
X100803406Y-65771322D01*
X100788151Y-65767695D01*
X100737286Y-65762169D01*
X100730472Y-65761800D01*
X100703915Y-65761800D01*
X100688676Y-65766275D01*
X100687471Y-65767665D01*
X100685800Y-65775348D01*
X100685800Y-66456685D01*
X100075800Y-66456685D01*
X100075800Y-65779916D01*
X100071325Y-65764677D01*
X100069935Y-65763472D01*
X100062252Y-65761801D01*
X100031131Y-65761801D01*
X100024310Y-65762171D01*
X99973448Y-65767695D01*
X99958196Y-65771321D01*
X99837746Y-65816476D01*
X99822153Y-65825013D01*
X99821362Y-65825606D01*
X99820443Y-65825949D01*
X99814283Y-65829322D01*
X99813796Y-65828432D01*
X99754854Y-65850451D01*
X99685472Y-65835396D01*
X99670238Y-65825606D01*
X99669447Y-65825013D01*
X99653854Y-65816476D01*
X99533406Y-65771322D01*
X99518151Y-65767695D01*
X99467286Y-65762169D01*
X99460472Y-65761800D01*
X99433915Y-65761800D01*
X99418676Y-65766275D01*
X99417471Y-65767665D01*
X99415800Y-65775348D01*
X99415800Y-66456685D01*
X98805800Y-66456685D01*
X98805800Y-65779916D01*
X98801325Y-65764677D01*
X98799935Y-65763472D01*
X98792252Y-65761801D01*
X98761131Y-65761801D01*
X98754310Y-65762171D01*
X98703448Y-65767695D01*
X98688196Y-65771321D01*
X98567746Y-65816476D01*
X98552151Y-65825014D01*
X98450076Y-65901515D01*
X98437515Y-65914076D01*
X98361014Y-66016151D01*
X98352476Y-66031746D01*
X98307322Y-66152194D01*
X98303695Y-66167449D01*
X98298169Y-66218314D01*
X98297800Y-66225128D01*
X98297800Y-66456685D01*
X96647000Y-66456685D01*
X96647000Y-58928000D01*
X89408000Y-58928000D01*
X89408000Y-61725847D01*
X89392415Y-61786547D01*
X89340167Y-61881587D01*
X89280365Y-62070106D01*
X89263100Y-62224027D01*
X89263100Y-63799257D01*
X89262363Y-63812864D01*
X89258276Y-63850488D01*
X89258813Y-63856623D01*
X89262650Y-63900488D01*
X89262979Y-63905314D01*
X89263100Y-63907786D01*
X89263100Y-63910869D01*
X89263401Y-63913937D01*
X89267290Y-63953606D01*
X89267412Y-63954919D01*
X89275513Y-64047513D01*
X89277000Y-64052632D01*
X89277520Y-64057933D01*
X89298458Y-64127284D01*
X89298998Y-64198277D01*
X89294244Y-64211916D01*
X89248304Y-64322827D01*
X89239334Y-64340433D01*
X89136351Y-64508485D01*
X89126706Y-64524224D01*
X89115089Y-64540214D01*
X89080785Y-64580379D01*
X88975100Y-64704120D01*
X88961122Y-64718098D01*
X88797214Y-64858089D01*
X88781227Y-64869704D01*
X88597433Y-64982334D01*
X88579835Y-64991301D01*
X88380683Y-65073792D01*
X88361888Y-65079899D01*
X88152295Y-65130218D01*
X88132768Y-65133311D01*
X88052677Y-65139614D01*
X87912930Y-65150612D01*
X87903044Y-65151000D01*
X87374199Y-65151000D01*
X87306078Y-65130998D01*
X87259585Y-65077342D01*
X87248199Y-65025000D01*
X87248199Y-64648500D01*
X87268201Y-64580379D01*
X87298634Y-64547674D01*
X87350924Y-64508485D01*
X87363485Y-64495924D01*
X87439986Y-64393849D01*
X87448524Y-64378254D01*
X87493678Y-64257806D01*
X87497305Y-64242551D01*
X87502831Y-64191686D01*
X87503200Y-64184872D01*
X87503200Y-63953315D01*
X87498725Y-63938076D01*
X87497335Y-63936871D01*
X87489652Y-63935200D01*
X82085316Y-63935200D01*
X82070077Y-63939675D01*
X82068872Y-63941065D01*
X82067201Y-63948748D01*
X82067201Y-64184869D01*
X82067571Y-64191690D01*
X82073095Y-64242552D01*
X82076721Y-64257804D01*
X82121876Y-64378254D01*
X82130414Y-64393849D01*
X82206915Y-64495924D01*
X82219475Y-64508484D01*
X82271764Y-64547672D01*
X82314280Y-64604531D01*
X82322200Y-64648499D01*
X82322200Y-65025000D01*
X82302198Y-65093121D01*
X82248542Y-65139614D01*
X82196200Y-65151000D01*
X79609956Y-65151000D01*
X79600070Y-65150612D01*
X79460323Y-65139614D01*
X79380232Y-65133311D01*
X79360705Y-65130218D01*
X79151112Y-65079899D01*
X79132317Y-65073792D01*
X78933165Y-64991301D01*
X78915567Y-64982334D01*
X78731773Y-64869704D01*
X78715786Y-64858089D01*
X78551878Y-64718098D01*
X78537900Y-64704120D01*
X78432215Y-64580379D01*
X78397911Y-64540214D01*
X78386294Y-64524224D01*
X78376649Y-64508485D01*
X78273666Y-64340433D01*
X78264699Y-64322835D01*
X78182208Y-64123683D01*
X78176100Y-64104884D01*
X78166244Y-64063828D01*
X78125782Y-63895294D01*
X78122689Y-63875767D01*
X78105388Y-63655930D01*
X78105000Y-63646044D01*
X78105000Y-63307085D01*
X82067200Y-63307085D01*
X82071675Y-63322324D01*
X82073065Y-63323529D01*
X82080748Y-63325200D01*
X82557085Y-63325200D01*
X82572324Y-63320725D01*
X82573529Y-63319335D01*
X82575200Y-63311652D01*
X82575200Y-63307085D01*
X83185200Y-63307085D01*
X83189675Y-63322324D01*
X83191065Y-63323529D01*
X83198748Y-63325200D01*
X83827085Y-63325200D01*
X83842324Y-63320725D01*
X83843529Y-63319335D01*
X83845200Y-63311652D01*
X83845200Y-63307085D01*
X84455200Y-63307085D01*
X84459675Y-63322324D01*
X84461065Y-63323529D01*
X84468748Y-63325200D01*
X85097085Y-63325200D01*
X85112324Y-63320725D01*
X85113529Y-63319335D01*
X85115200Y-63311652D01*
X85115200Y-63307085D01*
X85725200Y-63307085D01*
X85729675Y-63322324D01*
X85731065Y-63323529D01*
X85738748Y-63325200D01*
X86367085Y-63325200D01*
X86382324Y-63320725D01*
X86383529Y-63319335D01*
X86385200Y-63311652D01*
X86385200Y-63307085D01*
X86995200Y-63307085D01*
X86999675Y-63322324D01*
X87001065Y-63323529D01*
X87008748Y-63325200D01*
X87485084Y-63325200D01*
X87500323Y-63320725D01*
X87501528Y-63319335D01*
X87503199Y-63311652D01*
X87503199Y-63075531D01*
X87502829Y-63068710D01*
X87497305Y-63017848D01*
X87493679Y-63002596D01*
X87448524Y-62882146D01*
X87439986Y-62866551D01*
X87363485Y-62764476D01*
X87350924Y-62751915D01*
X87248849Y-62675414D01*
X87233254Y-62666876D01*
X87112806Y-62621722D01*
X87097551Y-62618095D01*
X87046686Y-62612569D01*
X87039872Y-62612200D01*
X87013315Y-62612200D01*
X86998076Y-62616675D01*
X86996871Y-62618065D01*
X86995200Y-62625748D01*
X86995200Y-63307085D01*
X86385200Y-63307085D01*
X86385200Y-62630316D01*
X86380725Y-62615077D01*
X86379335Y-62613872D01*
X86371652Y-62612201D01*
X86340531Y-62612201D01*
X86333710Y-62612571D01*
X86282848Y-62618095D01*
X86267596Y-62621721D01*
X86147146Y-62666876D01*
X86131553Y-62675413D01*
X86130762Y-62676006D01*
X86129843Y-62676349D01*
X86123683Y-62679722D01*
X86123196Y-62678832D01*
X86064254Y-62700851D01*
X85994872Y-62685796D01*
X85979638Y-62676006D01*
X85978847Y-62675413D01*
X85963254Y-62666876D01*
X85842806Y-62621722D01*
X85827551Y-62618095D01*
X85776686Y-62612569D01*
X85769872Y-62612200D01*
X85743315Y-62612200D01*
X85728076Y-62616675D01*
X85726871Y-62618065D01*
X85725200Y-62625748D01*
X85725200Y-63307085D01*
X85115200Y-63307085D01*
X85115200Y-62630316D01*
X85110725Y-62615077D01*
X85109335Y-62613872D01*
X85101652Y-62612201D01*
X85070531Y-62612201D01*
X85063710Y-62612571D01*
X85012848Y-62618095D01*
X84997596Y-62621721D01*
X84877146Y-62666876D01*
X84861553Y-62675413D01*
X84860762Y-62676006D01*
X84859843Y-62676349D01*
X84853683Y-62679722D01*
X84853196Y-62678832D01*
X84794254Y-62700851D01*
X84724872Y-62685796D01*
X84709638Y-62676006D01*
X84708847Y-62675413D01*
X84693254Y-62666876D01*
X84572806Y-62621722D01*
X84557551Y-62618095D01*
X84506686Y-62612569D01*
X84499872Y-62612200D01*
X84473315Y-62612200D01*
X84458076Y-62616675D01*
X84456871Y-62618065D01*
X84455200Y-62625748D01*
X84455200Y-63307085D01*
X83845200Y-63307085D01*
X83845200Y-62630316D01*
X83840725Y-62615077D01*
X83839335Y-62613872D01*
X83831652Y-62612201D01*
X83800531Y-62612201D01*
X83793710Y-62612571D01*
X83742848Y-62618095D01*
X83727596Y-62621721D01*
X83607146Y-62666876D01*
X83591553Y-62675413D01*
X83590762Y-62676006D01*
X83589843Y-62676349D01*
X83583683Y-62679722D01*
X83583196Y-62678832D01*
X83524254Y-62700851D01*
X83454872Y-62685796D01*
X83439638Y-62676006D01*
X83438847Y-62675413D01*
X83423254Y-62666876D01*
X83302806Y-62621722D01*
X83287551Y-62618095D01*
X83236686Y-62612569D01*
X83229872Y-62612200D01*
X83203315Y-62612200D01*
X83188076Y-62616675D01*
X83186871Y-62618065D01*
X83185200Y-62625748D01*
X83185200Y-63307085D01*
X82575200Y-63307085D01*
X82575200Y-62630316D01*
X82570725Y-62615077D01*
X82569335Y-62613872D01*
X82561652Y-62612201D01*
X82530531Y-62612201D01*
X82523710Y-62612571D01*
X82472848Y-62618095D01*
X82457596Y-62621721D01*
X82337146Y-62666876D01*
X82321551Y-62675414D01*
X82219476Y-62751915D01*
X82206915Y-62764476D01*
X82130414Y-62866551D01*
X82121876Y-62882146D01*
X82076722Y-63002594D01*
X82073095Y-63017849D01*
X82067569Y-63068714D01*
X82067200Y-63075528D01*
X82067200Y-63307085D01*
X78105000Y-63307085D01*
X78105000Y-56114956D01*
X78105388Y-56105070D01*
X78122689Y-55885233D01*
X78125782Y-55865705D01*
X78176100Y-55656116D01*
X78182210Y-55637312D01*
X78264699Y-55438165D01*
X78273666Y-55420567D01*
X78386296Y-55236773D01*
X78397911Y-55220786D01*
X78537902Y-55056878D01*
X78551880Y-55042900D01*
X78715786Y-54902911D01*
X78731773Y-54891296D01*
X78915567Y-54778666D01*
X78933165Y-54769699D01*
X79132317Y-54687208D01*
X79151112Y-54681101D01*
X79360706Y-54630782D01*
X79380232Y-54627689D01*
X79600070Y-54610388D01*
X79609956Y-54610000D01*
X85852000Y-54610000D01*
X89451859Y-51010141D01*
X91475888Y-51010141D01*
X91475983Y-51013771D01*
X91475983Y-51013772D01*
X91478367Y-51104800D01*
X91484970Y-51356971D01*
X91533856Y-51700460D01*
X91621897Y-52036053D01*
X91747927Y-52359303D01*
X91749624Y-52362508D01*
X91883113Y-52614625D01*
X91910275Y-52665926D01*
X91912325Y-52668909D01*
X91912327Y-52668912D01*
X92104733Y-52948864D01*
X92104739Y-52948871D01*
X92106790Y-52951856D01*
X92334866Y-53213305D01*
X92337551Y-53215748D01*
X92547268Y-53406575D01*
X92591481Y-53446806D01*
X92873233Y-53649266D01*
X93176388Y-53818000D01*
X93496928Y-53950772D01*
X93500422Y-53951767D01*
X93500424Y-53951768D01*
X93827103Y-54044825D01*
X93827108Y-54044826D01*
X93830604Y-54045822D01*
X94027304Y-54078033D01*
X94169412Y-54101304D01*
X94169419Y-54101305D01*
X94172993Y-54101890D01*
X94346275Y-54110062D01*
X94515931Y-54118063D01*
X94515932Y-54118063D01*
X94519558Y-54118234D01*
X94528415Y-54117630D01*
X94862073Y-54094884D01*
X94862081Y-54094883D01*
X94865704Y-54094636D01*
X94869279Y-54093973D01*
X94869282Y-54093973D01*
X95203279Y-54032070D01*
X95203283Y-54032069D01*
X95206844Y-54031409D01*
X95538456Y-53929392D01*
X95856145Y-53789936D01*
X96100511Y-53647141D01*
X96152560Y-53616726D01*
X96152562Y-53616725D01*
X96155700Y-53614891D01*
X96305729Y-53502246D01*
X96430244Y-53408758D01*
X96430248Y-53408755D01*
X96433151Y-53406575D01*
X96684819Y-53167750D01*
X96907370Y-52901583D01*
X97097853Y-52611599D01*
X97226446Y-52355921D01*
X97252117Y-52304880D01*
X97252120Y-52304872D01*
X97253744Y-52301644D01*
X97372977Y-51975826D01*
X97373822Y-51972304D01*
X97373825Y-51972296D01*
X97453124Y-51641991D01*
X97453125Y-51641987D01*
X97453971Y-51638462D01*
X97488035Y-51356971D01*
X97495316Y-51296804D01*
X97495316Y-51296797D01*
X97495652Y-51294025D01*
X97499068Y-51185349D01*
X97501511Y-51107597D01*
X97501599Y-51104800D01*
X97501438Y-51102004D01*
X97481836Y-50762046D01*
X97481835Y-50762041D01*
X97481627Y-50758426D01*
X97438335Y-50510375D01*
X97422600Y-50420215D01*
X97422598Y-50420208D01*
X97421976Y-50416642D01*
X97398372Y-50336954D01*
X97346423Y-50161581D01*
X97323437Y-50083980D01*
X97251915Y-49916299D01*
X97188740Y-49768186D01*
X97188738Y-49768183D01*
X97187316Y-49764848D01*
X97169127Y-49732958D01*
X97017208Y-49466616D01*
X97015417Y-49463476D01*
X96810018Y-49183860D01*
X96573842Y-48929704D01*
X96310019Y-48704378D01*
X96022047Y-48510869D01*
X95713741Y-48351740D01*
X95389189Y-48229102D01*
X95385668Y-48228218D01*
X95385663Y-48228216D01*
X95204048Y-48182598D01*
X95052692Y-48144580D01*
X95030476Y-48141655D01*
X94712315Y-48099768D01*
X94712307Y-48099767D01*
X94708711Y-48099294D01*
X94564045Y-48097021D01*
X94365446Y-48093901D01*
X94365442Y-48093901D01*
X94361804Y-48093844D01*
X94358190Y-48094205D01*
X94358184Y-48094205D01*
X94114843Y-48118494D01*
X94016569Y-48128303D01*
X93677583Y-48202214D01*
X93674156Y-48203387D01*
X93674150Y-48203389D01*
X93595296Y-48230387D01*
X93349339Y-48314597D01*
X93036188Y-48463963D01*
X92742279Y-48648332D01*
X92739443Y-48650604D01*
X92739436Y-48650609D01*
X92512128Y-48832717D01*
X92471509Y-48865259D01*
X92227466Y-49111871D01*
X92225225Y-49114729D01*
X92168732Y-49186778D01*
X92013386Y-49384898D01*
X92011493Y-49387987D01*
X92011491Y-49387990D01*
X91965233Y-49463476D01*
X91832105Y-49680721D01*
X91830580Y-49684006D01*
X91830578Y-49684010D01*
X91791505Y-49768186D01*
X91686027Y-49995420D01*
X91577087Y-50324823D01*
X91576351Y-50328378D01*
X91576350Y-50328381D01*
X91507465Y-50661014D01*
X91506730Y-50664564D01*
X91499731Y-50742983D01*
X91477844Y-50988229D01*
X91475888Y-51010141D01*
X89451859Y-51010141D01*
X100019901Y-40442099D01*
X109247149Y-40442099D01*
X109250024Y-40445940D01*
X109319628Y-40472519D01*
X109329526Y-40475395D01*
X109546553Y-40519549D01*
X109556782Y-40520768D01*
X109778104Y-40528885D01*
X109788390Y-40528418D01*
X110008068Y-40500276D01*
X110018154Y-40498133D01*
X110181225Y-40449209D01*
X110193043Y-40441515D01*
X110192653Y-40438906D01*
X110190734Y-40436160D01*
X109731913Y-39977339D01*
X109717969Y-39969725D01*
X109716136Y-39969856D01*
X109709521Y-39974107D01*
X109253909Y-40429719D01*
X109247149Y-40442099D01*
X100019901Y-40442099D01*
X101375405Y-39086595D01*
X108305289Y-39086595D01*
X108318038Y-39307695D01*
X108319474Y-39317916D01*
X108368161Y-39533954D01*
X108371245Y-39543795D01*
X108385087Y-39577883D01*
X108393859Y-39588926D01*
X108398894Y-39587678D01*
X108857761Y-39128811D01*
X108864139Y-39117131D01*
X110572827Y-39117131D01*
X110572958Y-39118964D01*
X110577209Y-39125579D01*
X111034083Y-39582453D01*
X111046463Y-39589213D01*
X111048667Y-39587563D01*
X111050087Y-39584759D01*
X111100184Y-39419868D01*
X111102361Y-39409798D01*
X111131506Y-39188421D01*
X111132025Y-39181746D01*
X111133550Y-39119363D01*
X111133356Y-39112645D01*
X111115062Y-38890120D01*
X111113379Y-38879958D01*
X111059426Y-38665160D01*
X111056104Y-38655401D01*
X111054880Y-38652586D01*
X111045841Y-38641761D01*
X111040368Y-38643260D01*
X110580441Y-39103187D01*
X110572827Y-39117131D01*
X108864139Y-39117131D01*
X108865375Y-39114867D01*
X108865244Y-39113034D01*
X108860993Y-39106419D01*
X108402337Y-38647763D01*
X108389957Y-38641003D01*
X108388404Y-38642165D01*
X108386383Y-38646281D01*
X108331007Y-38845959D01*
X108329076Y-38856079D01*
X108305541Y-39076306D01*
X108305289Y-39086595D01*
X101375405Y-39086595D01*
X102670483Y-37791517D01*
X109246388Y-37791517D01*
X109246982Y-37794915D01*
X109248089Y-37796459D01*
X109706289Y-38254659D01*
X109720233Y-38262273D01*
X109722066Y-38262142D01*
X109728681Y-38257891D01*
X110184112Y-37802460D01*
X110190872Y-37790080D01*
X110188320Y-37786671D01*
X110187934Y-37786464D01*
X110085312Y-37750123D01*
X110075341Y-37747489D01*
X109857309Y-37708652D01*
X109847056Y-37707683D01*
X109625597Y-37704977D01*
X109615314Y-37705697D01*
X109396398Y-37739195D01*
X109386371Y-37741584D01*
X109258014Y-37783537D01*
X109246388Y-37791517D01*
X102670483Y-37791517D01*
X104586157Y-35875843D01*
X104593410Y-35869138D01*
X104761105Y-35725912D01*
X104777093Y-35714296D01*
X104960887Y-35601667D01*
X104978492Y-35592697D01*
X105177637Y-35510208D01*
X105196431Y-35504101D01*
X105406027Y-35453782D01*
X105425553Y-35450689D01*
X105645390Y-35433388D01*
X105655276Y-35433000D01*
X110128044Y-35433000D01*
X110137930Y-35433388D01*
G37*
%TD.AperFunction*%
%TD*%
%TA.AperFunction,Conductor*%
%TO.N,GND*%
G36*
X113353121Y-83055702D02*
G01*
X113399614Y-83109358D01*
X113411000Y-83161700D01*
X113411000Y-85363044D01*
X113410612Y-85372930D01*
X113393311Y-85592767D01*
X113390218Y-85612295D01*
X113339900Y-85821884D01*
X113333792Y-85840683D01*
X113251301Y-86039835D01*
X113242334Y-86057433D01*
X113129706Y-86241224D01*
X113118089Y-86257214D01*
X112978100Y-86421120D01*
X112964122Y-86435098D01*
X112800214Y-86575089D01*
X112784227Y-86586704D01*
X112600433Y-86699334D01*
X112582835Y-86708301D01*
X112383683Y-86790792D01*
X112364888Y-86796899D01*
X112155295Y-86847218D01*
X112135768Y-86850311D01*
X111953435Y-86864660D01*
X111915930Y-86867612D01*
X111906044Y-86868000D01*
X108328340Y-86868000D01*
X108260219Y-86847998D01*
X108213726Y-86794342D01*
X108203622Y-86724068D01*
X108217821Y-86681489D01*
X108225723Y-86667056D01*
X108270878Y-86546606D01*
X108274505Y-86531351D01*
X108280031Y-86480486D01*
X108280400Y-86473672D01*
X108280400Y-86117115D01*
X108275925Y-86101876D01*
X108274535Y-86100671D01*
X108266852Y-86099000D01*
X104778980Y-86099000D01*
X104710859Y-86078998D01*
X104664366Y-86025342D01*
X104653765Y-85958956D01*
X104665900Y-85850773D01*
X104665900Y-85470885D01*
X105232400Y-85470885D01*
X105236875Y-85486124D01*
X105238265Y-85487329D01*
X105245948Y-85489000D01*
X105874285Y-85489000D01*
X105889524Y-85484525D01*
X105890729Y-85483135D01*
X105892400Y-85475452D01*
X105892400Y-85470885D01*
X106502400Y-85470885D01*
X106506875Y-85486124D01*
X106508265Y-85487329D01*
X106515948Y-85489000D01*
X107144285Y-85489000D01*
X107159524Y-85484525D01*
X107160729Y-85483135D01*
X107162400Y-85475452D01*
X107162400Y-85470885D01*
X107772400Y-85470885D01*
X107776875Y-85486124D01*
X107778265Y-85487329D01*
X107785948Y-85489000D01*
X108262284Y-85489000D01*
X108277523Y-85484525D01*
X108278728Y-85483135D01*
X108280399Y-85475452D01*
X108280399Y-85114331D01*
X108280029Y-85107510D01*
X108274505Y-85056648D01*
X108270879Y-85041396D01*
X108225724Y-84920946D01*
X108217186Y-84905351D01*
X108140685Y-84803276D01*
X108128124Y-84790715D01*
X108026049Y-84714214D01*
X108010454Y-84705676D01*
X107890006Y-84660522D01*
X107874751Y-84656895D01*
X107823886Y-84651369D01*
X107817072Y-84651000D01*
X107790515Y-84651000D01*
X107775276Y-84655475D01*
X107774071Y-84656865D01*
X107772400Y-84664548D01*
X107772400Y-85470885D01*
X107162400Y-85470885D01*
X107162400Y-84669116D01*
X107157925Y-84653877D01*
X107156535Y-84652672D01*
X107148852Y-84651001D01*
X107117731Y-84651001D01*
X107110910Y-84651371D01*
X107060048Y-84656895D01*
X107044796Y-84660521D01*
X106924346Y-84705676D01*
X106908753Y-84714213D01*
X106907962Y-84714806D01*
X106907043Y-84715149D01*
X106900883Y-84718522D01*
X106900396Y-84717632D01*
X106841454Y-84739651D01*
X106772072Y-84724596D01*
X106756838Y-84714806D01*
X106756047Y-84714213D01*
X106740454Y-84705676D01*
X106620006Y-84660522D01*
X106604751Y-84656895D01*
X106553886Y-84651369D01*
X106547072Y-84651000D01*
X106520515Y-84651000D01*
X106505276Y-84655475D01*
X106504071Y-84656865D01*
X106502400Y-84664548D01*
X106502400Y-85470885D01*
X105892400Y-85470885D01*
X105892400Y-84669116D01*
X105887925Y-84653877D01*
X105886535Y-84652672D01*
X105878852Y-84651001D01*
X105847731Y-84651001D01*
X105840910Y-84651371D01*
X105790048Y-84656895D01*
X105774796Y-84660521D01*
X105654346Y-84705676D01*
X105638753Y-84714213D01*
X105637962Y-84714806D01*
X105637043Y-84715149D01*
X105630883Y-84718522D01*
X105630396Y-84717632D01*
X105571454Y-84739651D01*
X105502072Y-84724596D01*
X105486838Y-84714806D01*
X105486047Y-84714213D01*
X105470454Y-84705676D01*
X105350006Y-84660522D01*
X105334751Y-84656895D01*
X105283886Y-84651369D01*
X105277072Y-84651000D01*
X105250515Y-84651000D01*
X105235276Y-84655475D01*
X105234071Y-84656865D01*
X105232400Y-84664548D01*
X105232400Y-85470885D01*
X104665900Y-85470885D01*
X104665900Y-83629308D01*
X104685902Y-83561187D01*
X104702804Y-83540213D01*
X105170411Y-83072605D01*
X105232724Y-83038580D01*
X105259507Y-83035700D01*
X113285000Y-83035700D01*
X113353121Y-83055702D01*
G37*
%TD.AperFunction*%
%TD*%
%TA.AperFunction,Conductor*%
%TO.N,Shunt5*%
G36*
X192956521Y-67050602D02*
G01*
X193003014Y-67104258D01*
X193014400Y-67156600D01*
X193014400Y-67451485D01*
X193018875Y-67466724D01*
X193020265Y-67467929D01*
X193027948Y-67469600D01*
X196495400Y-67469600D01*
X196563521Y-67489602D01*
X196610014Y-67543258D01*
X196621400Y-67595600D01*
X196621400Y-68848484D01*
X196625875Y-68863723D01*
X196627265Y-68864928D01*
X196634948Y-68866599D01*
X196717069Y-68866599D01*
X196723890Y-68866229D01*
X196774752Y-68860705D01*
X196790003Y-68857079D01*
X196908370Y-68812705D01*
X196979177Y-68807522D01*
X197041546Y-68841443D01*
X197075676Y-68903698D01*
X197078600Y-68930687D01*
X197078600Y-75591400D01*
X197058598Y-75659521D01*
X197004942Y-75706014D01*
X196952600Y-75717400D01*
X196325869Y-75717400D01*
X196257748Y-75697398D01*
X196211255Y-75643742D01*
X196201151Y-75573468D01*
X196215349Y-75530891D01*
X196222923Y-75517058D01*
X196268078Y-75396606D01*
X196271705Y-75381351D01*
X196277231Y-75330486D01*
X196277600Y-75323672D01*
X196277600Y-75199515D01*
X196273125Y-75184276D01*
X196271735Y-75183071D01*
X196264052Y-75181400D01*
X193579716Y-75181400D01*
X193564477Y-75185875D01*
X193563272Y-75187265D01*
X193561601Y-75194948D01*
X193561601Y-75323669D01*
X193561971Y-75330490D01*
X193567495Y-75381352D01*
X193571121Y-75396604D01*
X193616277Y-75517058D01*
X193623851Y-75530891D01*
X193639020Y-75600248D01*
X193614284Y-75666796D01*
X193557495Y-75709406D01*
X193513331Y-75717400D01*
X192886600Y-75717400D01*
X192818479Y-75697398D01*
X192771986Y-75643742D01*
X192760600Y-75591400D01*
X192760600Y-74655285D01*
X193561600Y-74655285D01*
X193566075Y-74670524D01*
X193567465Y-74671729D01*
X193575148Y-74673400D01*
X194647485Y-74673400D01*
X194662724Y-74668925D01*
X194663929Y-74667535D01*
X194665600Y-74659852D01*
X194665600Y-74655285D01*
X195173600Y-74655285D01*
X195178075Y-74670524D01*
X195179465Y-74671729D01*
X195187148Y-74673400D01*
X196259484Y-74673400D01*
X196274723Y-74668925D01*
X196275928Y-74667535D01*
X196277599Y-74659852D01*
X196277599Y-74531131D01*
X196277229Y-74524310D01*
X196271705Y-74473448D01*
X196268079Y-74458196D01*
X196222924Y-74337746D01*
X196214386Y-74322151D01*
X196137885Y-74220076D01*
X196125324Y-74207515D01*
X196023249Y-74131014D01*
X196007654Y-74122476D01*
X195887206Y-74077322D01*
X195871951Y-74073695D01*
X195821086Y-74068169D01*
X195814272Y-74067800D01*
X195191715Y-74067800D01*
X195176476Y-74072275D01*
X195175271Y-74073665D01*
X195173600Y-74081348D01*
X195173600Y-74655285D01*
X194665600Y-74655285D01*
X194665600Y-74085916D01*
X194661125Y-74070677D01*
X194659735Y-74069472D01*
X194652052Y-74067801D01*
X194024931Y-74067801D01*
X194018110Y-74068171D01*
X193967248Y-74073695D01*
X193951996Y-74077321D01*
X193831546Y-74122476D01*
X193815951Y-74131014D01*
X193713876Y-74207515D01*
X193701315Y-74220076D01*
X193624814Y-74322151D01*
X193616276Y-74337746D01*
X193571122Y-74458194D01*
X193567495Y-74473449D01*
X193561969Y-74524314D01*
X193561600Y-74531128D01*
X193561600Y-74655285D01*
X192760600Y-74655285D01*
X192760600Y-68403269D01*
X193014401Y-68403269D01*
X193014771Y-68410090D01*
X193020295Y-68460952D01*
X193023921Y-68476204D01*
X193069076Y-68596654D01*
X193077614Y-68612249D01*
X193154115Y-68714324D01*
X193166676Y-68726885D01*
X193268751Y-68803386D01*
X193284346Y-68811924D01*
X193404794Y-68857078D01*
X193420049Y-68860705D01*
X193470914Y-68866231D01*
X193477728Y-68866600D01*
X193555285Y-68866600D01*
X193570524Y-68862125D01*
X193571729Y-68860735D01*
X193573400Y-68853052D01*
X193573400Y-68848484D01*
X194081400Y-68848484D01*
X194085875Y-68863723D01*
X194087265Y-68864928D01*
X194094948Y-68866599D01*
X194177069Y-68866599D01*
X194183890Y-68866229D01*
X194234752Y-68860705D01*
X194250004Y-68857079D01*
X194370454Y-68811924D01*
X194386047Y-68803387D01*
X194386838Y-68802794D01*
X194387757Y-68802451D01*
X194393917Y-68799078D01*
X194394404Y-68799968D01*
X194453346Y-68777949D01*
X194522728Y-68793004D01*
X194537962Y-68802794D01*
X194538753Y-68803387D01*
X194554346Y-68811924D01*
X194674794Y-68857078D01*
X194690049Y-68860705D01*
X194740914Y-68866231D01*
X194747728Y-68866600D01*
X194825285Y-68866600D01*
X194840524Y-68862125D01*
X194841729Y-68860735D01*
X194843400Y-68853052D01*
X194843400Y-68848484D01*
X195351400Y-68848484D01*
X195355875Y-68863723D01*
X195357265Y-68864928D01*
X195364948Y-68866599D01*
X195447069Y-68866599D01*
X195453890Y-68866229D01*
X195504752Y-68860705D01*
X195520004Y-68857079D01*
X195640454Y-68811924D01*
X195656047Y-68803387D01*
X195656838Y-68802794D01*
X195657757Y-68802451D01*
X195663917Y-68799078D01*
X195664404Y-68799968D01*
X195723346Y-68777949D01*
X195792728Y-68793004D01*
X195807962Y-68802794D01*
X195808753Y-68803387D01*
X195824346Y-68811924D01*
X195944794Y-68857078D01*
X195960049Y-68860705D01*
X196010914Y-68866231D01*
X196017728Y-68866600D01*
X196095285Y-68866600D01*
X196110524Y-68862125D01*
X196111729Y-68860735D01*
X196113400Y-68853052D01*
X196113400Y-67995715D01*
X196108925Y-67980476D01*
X196107535Y-67979271D01*
X196099852Y-67977600D01*
X195369515Y-67977600D01*
X195354276Y-67982075D01*
X195353071Y-67983465D01*
X195351400Y-67991148D01*
X195351400Y-68848484D01*
X194843400Y-68848484D01*
X194843400Y-67995715D01*
X194838925Y-67980476D01*
X194837535Y-67979271D01*
X194829852Y-67977600D01*
X194099515Y-67977600D01*
X194084276Y-67982075D01*
X194083071Y-67983465D01*
X194081400Y-67991148D01*
X194081400Y-68848484D01*
X193573400Y-68848484D01*
X193573400Y-67995715D01*
X193568925Y-67980476D01*
X193567535Y-67979271D01*
X193559852Y-67977600D01*
X193032516Y-67977600D01*
X193017277Y-67982075D01*
X193016072Y-67983465D01*
X193014401Y-67991148D01*
X193014401Y-68403269D01*
X192760600Y-68403269D01*
X192760600Y-67156600D01*
X192780602Y-67088479D01*
X192834258Y-67041986D01*
X192886600Y-67030600D01*
X192888400Y-67030600D01*
X192956521Y-67050602D01*
G37*
%TD.AperFunction*%
%TD*%
%TA.AperFunction,Conductor*%
%TO.N,PhaseA+*%
G36*
X97341435Y-87761458D02*
G01*
X97352131Y-87826969D01*
X97335445Y-87985725D01*
X97353370Y-88182688D01*
X97355110Y-88188598D01*
X97355110Y-88188601D01*
X97378674Y-88268665D01*
X97383800Y-88304239D01*
X97383800Y-89117684D01*
X97388275Y-89132923D01*
X97389665Y-89134128D01*
X97397348Y-89135799D01*
X97428469Y-89135799D01*
X97435290Y-89135429D01*
X97486152Y-89129905D01*
X97501404Y-89126279D01*
X97621854Y-89081124D01*
X97637444Y-89072588D01*
X97637817Y-89072309D01*
X97638250Y-89072147D01*
X97645317Y-89068278D01*
X97645876Y-89069298D01*
X97704323Y-89047461D01*
X97773706Y-89062513D01*
X97788949Y-89072310D01*
X97789319Y-89072587D01*
X97797095Y-89078415D01*
X97933484Y-89129545D01*
X97995666Y-89136300D01*
X98701934Y-89136300D01*
X98764116Y-89129545D01*
X98900505Y-89078415D01*
X98908282Y-89072587D01*
X98969810Y-89026474D01*
X99036317Y-89001626D01*
X99045375Y-89001300D01*
X99651357Y-89001300D01*
X99664964Y-89002037D01*
X99696462Y-89005459D01*
X99696467Y-89005459D01*
X99702588Y-89006124D01*
X99728838Y-89003827D01*
X99752588Y-89001750D01*
X99757414Y-89001421D01*
X99759886Y-89001300D01*
X99762969Y-89001300D01*
X99774938Y-89000126D01*
X99805706Y-88997110D01*
X99807019Y-88996988D01*
X99851284Y-88993115D01*
X99899613Y-88988887D01*
X99904732Y-88987400D01*
X99910033Y-88986880D01*
X99999034Y-88960009D01*
X100000167Y-88959674D01*
X100083614Y-88935430D01*
X100083618Y-88935428D01*
X100089536Y-88933709D01*
X100094268Y-88931256D01*
X100099369Y-88929716D01*
X100104812Y-88926822D01*
X100181460Y-88886069D01*
X100182626Y-88885457D01*
X100259653Y-88845529D01*
X100265126Y-88842692D01*
X100269289Y-88839369D01*
X100273996Y-88836866D01*
X100346118Y-88778045D01*
X100346974Y-88777354D01*
X100386173Y-88746062D01*
X100388677Y-88743558D01*
X100389395Y-88742916D01*
X100393728Y-88739215D01*
X100427262Y-88711865D01*
X100456488Y-88676537D01*
X100464477Y-88667758D01*
X101338330Y-87793905D01*
X101400642Y-87759879D01*
X101427425Y-87757000D01*
X102973400Y-87757000D01*
X103041521Y-87777002D01*
X103088014Y-87830658D01*
X103099400Y-87883000D01*
X103099400Y-88535885D01*
X103103875Y-88551124D01*
X103105265Y-88552329D01*
X103112948Y-88554000D01*
X106036400Y-88554000D01*
X106104521Y-88574002D01*
X106151014Y-88627658D01*
X106162400Y-88680000D01*
X106162400Y-89628000D01*
X106142398Y-89696121D01*
X106088742Y-89742614D01*
X106036400Y-89754000D01*
X103117516Y-89754000D01*
X103102277Y-89758475D01*
X103101072Y-89759865D01*
X103099401Y-89767548D01*
X103099401Y-90240700D01*
X103079399Y-90308821D01*
X103048966Y-90341526D01*
X102996676Y-90380715D01*
X102984115Y-90393276D01*
X102907614Y-90495351D01*
X102899076Y-90510946D01*
X102853922Y-90631394D01*
X102850295Y-90646649D01*
X102844769Y-90697514D01*
X102844400Y-90704328D01*
X102844400Y-90935885D01*
X102848875Y-90951124D01*
X102850265Y-90952329D01*
X102857948Y-90954000D01*
X107646400Y-90954000D01*
X107714521Y-90974002D01*
X107761014Y-91027658D01*
X107772400Y-91080000D01*
X107772400Y-92258884D01*
X107776875Y-92274123D01*
X107779512Y-92276408D01*
X107817896Y-92336134D01*
X107823000Y-92371633D01*
X107823000Y-94634044D01*
X107822612Y-94643930D01*
X107805311Y-94863767D01*
X107802217Y-94883298D01*
X107796546Y-94906917D01*
X107761193Y-94968485D01*
X107698165Y-95001166D01*
X107674028Y-95003500D01*
X105793932Y-95003500D01*
X105725811Y-94983498D01*
X105678034Y-94926934D01*
X105570740Y-94675386D01*
X105570738Y-94675383D01*
X105569316Y-94672048D01*
X105561159Y-94657746D01*
X105399208Y-94373816D01*
X105397417Y-94370676D01*
X105192018Y-94091060D01*
X104955842Y-93836904D01*
X104692019Y-93611578D01*
X104404047Y-93418069D01*
X104095741Y-93258940D01*
X103771189Y-93136302D01*
X103767668Y-93135418D01*
X103767663Y-93135416D01*
X103606378Y-93094904D01*
X103434692Y-93051780D01*
X103412476Y-93048855D01*
X103094315Y-93006968D01*
X103094307Y-93006967D01*
X103090711Y-93006494D01*
X102946045Y-93004221D01*
X102747446Y-93001101D01*
X102747442Y-93001101D01*
X102743804Y-93001044D01*
X102740190Y-93001405D01*
X102740184Y-93001405D01*
X102496843Y-93025694D01*
X102398569Y-93035503D01*
X102059583Y-93109414D01*
X102056156Y-93110587D01*
X102056150Y-93110589D01*
X101977296Y-93137587D01*
X101731339Y-93221797D01*
X101418188Y-93371163D01*
X101124279Y-93555532D01*
X101121443Y-93557804D01*
X101121436Y-93557809D01*
X100877384Y-93753332D01*
X100853509Y-93772459D01*
X100609466Y-94019071D01*
X100607225Y-94021929D01*
X100550732Y-94093978D01*
X100395386Y-94292098D01*
X100393493Y-94295187D01*
X100393491Y-94295190D01*
X100347233Y-94370676D01*
X100214105Y-94587921D01*
X100212580Y-94591206D01*
X100212578Y-94591210D01*
X100118703Y-94793448D01*
X100068027Y-94902620D01*
X99959087Y-95232023D01*
X99958351Y-95235578D01*
X99958350Y-95235581D01*
X99889465Y-95568214D01*
X99888730Y-95571764D01*
X99857888Y-95917341D01*
X99857983Y-95920971D01*
X99857983Y-95920973D01*
X99860306Y-96009702D01*
X99842093Y-96078323D01*
X99789673Y-96126205D01*
X99734349Y-96139000D01*
X95693068Y-96139000D01*
X95624947Y-96118998D01*
X95578454Y-96065342D01*
X95568350Y-95995068D01*
X95592242Y-95937435D01*
X95655786Y-95852648D01*
X95664324Y-95837054D01*
X95709478Y-95716606D01*
X95713105Y-95701351D01*
X95718631Y-95650486D01*
X95719000Y-95643672D01*
X95719000Y-95617115D01*
X95714525Y-95601876D01*
X95713135Y-95600671D01*
X95705452Y-95599000D01*
X94135400Y-95599000D01*
X94067279Y-95578998D01*
X94020786Y-95525342D01*
X94009400Y-95473000D01*
X94009400Y-94877685D01*
X94712600Y-94877685D01*
X94717075Y-94892924D01*
X94718465Y-94894129D01*
X94726148Y-94895800D01*
X95700884Y-94895800D01*
X95716123Y-94891325D01*
X95717328Y-94889935D01*
X95718999Y-94882252D01*
X95718999Y-94851131D01*
X95718629Y-94844310D01*
X95713105Y-94793448D01*
X95709479Y-94778196D01*
X95664324Y-94657746D01*
X95655786Y-94642151D01*
X95579285Y-94540076D01*
X95566724Y-94527515D01*
X95464649Y-94451014D01*
X95449054Y-94442476D01*
X95328606Y-94397322D01*
X95313351Y-94393695D01*
X95262486Y-94388169D01*
X95255672Y-94387800D01*
X94730715Y-94387800D01*
X94715476Y-94392275D01*
X94714271Y-94393665D01*
X94712600Y-94401348D01*
X94712600Y-94877685D01*
X94009400Y-94877685D01*
X94009400Y-94405916D01*
X94004925Y-94390677D01*
X94003535Y-94389472D01*
X93995852Y-94387801D01*
X93466331Y-94387801D01*
X93459510Y-94388171D01*
X93408648Y-94393695D01*
X93393396Y-94397321D01*
X93272946Y-94442476D01*
X93257351Y-94451014D01*
X93165565Y-94519804D01*
X93099058Y-94544652D01*
X93029676Y-94529599D01*
X92979446Y-94479425D01*
X92964000Y-94418978D01*
X92964000Y-91813669D01*
X102844401Y-91813669D01*
X102844771Y-91820490D01*
X102850295Y-91871352D01*
X102853921Y-91886604D01*
X102899076Y-92007054D01*
X102907614Y-92022649D01*
X102984115Y-92124724D01*
X102996676Y-92137285D01*
X103098751Y-92213786D01*
X103114346Y-92222324D01*
X103234794Y-92267478D01*
X103250049Y-92271105D01*
X103300914Y-92276631D01*
X103307728Y-92277000D01*
X103334285Y-92277000D01*
X103349524Y-92272525D01*
X103350729Y-92271135D01*
X103352400Y-92263452D01*
X103352400Y-92258884D01*
X103962400Y-92258884D01*
X103966875Y-92274123D01*
X103968265Y-92275328D01*
X103975948Y-92276999D01*
X104007069Y-92276999D01*
X104013890Y-92276629D01*
X104064752Y-92271105D01*
X104080004Y-92267479D01*
X104200454Y-92222324D01*
X104216047Y-92213787D01*
X104216838Y-92213194D01*
X104217757Y-92212851D01*
X104223917Y-92209478D01*
X104224404Y-92210368D01*
X104283346Y-92188349D01*
X104352728Y-92203404D01*
X104367962Y-92213194D01*
X104368753Y-92213787D01*
X104384346Y-92222324D01*
X104504794Y-92267478D01*
X104520049Y-92271105D01*
X104570914Y-92276631D01*
X104577728Y-92277000D01*
X104604285Y-92277000D01*
X104619524Y-92272525D01*
X104620729Y-92271135D01*
X104622400Y-92263452D01*
X104622400Y-92258884D01*
X105232400Y-92258884D01*
X105236875Y-92274123D01*
X105238265Y-92275328D01*
X105245948Y-92276999D01*
X105277069Y-92276999D01*
X105283890Y-92276629D01*
X105334752Y-92271105D01*
X105350004Y-92267479D01*
X105470454Y-92222324D01*
X105486047Y-92213787D01*
X105486838Y-92213194D01*
X105487757Y-92212851D01*
X105493917Y-92209478D01*
X105494404Y-92210368D01*
X105553346Y-92188349D01*
X105622728Y-92203404D01*
X105637962Y-92213194D01*
X105638753Y-92213787D01*
X105654346Y-92222324D01*
X105774794Y-92267478D01*
X105790049Y-92271105D01*
X105840914Y-92276631D01*
X105847728Y-92277000D01*
X105874285Y-92277000D01*
X105889524Y-92272525D01*
X105890729Y-92271135D01*
X105892400Y-92263452D01*
X105892400Y-92258884D01*
X106502400Y-92258884D01*
X106506875Y-92274123D01*
X106508265Y-92275328D01*
X106515948Y-92276999D01*
X106547069Y-92276999D01*
X106553890Y-92276629D01*
X106604752Y-92271105D01*
X106620004Y-92267479D01*
X106740454Y-92222324D01*
X106756047Y-92213787D01*
X106756838Y-92213194D01*
X106757757Y-92212851D01*
X106763917Y-92209478D01*
X106764404Y-92210368D01*
X106823346Y-92188349D01*
X106892728Y-92203404D01*
X106907962Y-92213194D01*
X106908753Y-92213787D01*
X106924346Y-92222324D01*
X107044794Y-92267478D01*
X107060049Y-92271105D01*
X107110914Y-92276631D01*
X107117728Y-92277000D01*
X107144285Y-92277000D01*
X107159524Y-92272525D01*
X107160729Y-92271135D01*
X107162400Y-92263452D01*
X107162400Y-91582115D01*
X107157925Y-91566876D01*
X107156535Y-91565671D01*
X107148852Y-91564000D01*
X106520515Y-91564000D01*
X106505276Y-91568475D01*
X106504071Y-91569865D01*
X106502400Y-91577548D01*
X106502400Y-92258884D01*
X105892400Y-92258884D01*
X105892400Y-91582115D01*
X105887925Y-91566876D01*
X105886535Y-91565671D01*
X105878852Y-91564000D01*
X105250515Y-91564000D01*
X105235276Y-91568475D01*
X105234071Y-91569865D01*
X105232400Y-91577548D01*
X105232400Y-92258884D01*
X104622400Y-92258884D01*
X104622400Y-91582115D01*
X104617925Y-91566876D01*
X104616535Y-91565671D01*
X104608852Y-91564000D01*
X103980515Y-91564000D01*
X103965276Y-91568475D01*
X103964071Y-91569865D01*
X103962400Y-91577548D01*
X103962400Y-92258884D01*
X103352400Y-92258884D01*
X103352400Y-91582115D01*
X103347925Y-91566876D01*
X103346535Y-91565671D01*
X103338852Y-91564000D01*
X102862516Y-91564000D01*
X102847277Y-91568475D01*
X102846072Y-91569865D01*
X102844401Y-91577548D01*
X102844401Y-91813669D01*
X92964000Y-91813669D01*
X92964000Y-89261956D01*
X92964388Y-89252070D01*
X92973891Y-89131325D01*
X92981689Y-89032232D01*
X92984782Y-89012705D01*
X92990372Y-88989423D01*
X93035101Y-88803112D01*
X93041210Y-88784312D01*
X93044129Y-88777265D01*
X93123699Y-88585165D01*
X93132666Y-88567567D01*
X93245296Y-88383773D01*
X93256911Y-88367786D01*
X93396902Y-88203878D01*
X93410880Y-88189900D01*
X93412401Y-88188601D01*
X93517973Y-88098434D01*
X93582758Y-88069405D01*
X93652958Y-88080010D01*
X93706281Y-88126884D01*
X93725800Y-88194247D01*
X93725801Y-88672469D01*
X93726171Y-88679290D01*
X93731695Y-88730152D01*
X93735321Y-88745404D01*
X93780476Y-88865854D01*
X93789014Y-88881449D01*
X93865515Y-88983524D01*
X93878076Y-88996085D01*
X93980151Y-89072586D01*
X93995746Y-89081124D01*
X94116194Y-89126278D01*
X94131449Y-89129905D01*
X94182314Y-89135431D01*
X94189128Y-89135800D01*
X94215685Y-89135800D01*
X94230924Y-89131325D01*
X94232129Y-89129935D01*
X94233800Y-89122252D01*
X94233800Y-89117684D01*
X94843800Y-89117684D01*
X94848275Y-89132923D01*
X94849665Y-89134128D01*
X94857348Y-89135799D01*
X94888469Y-89135799D01*
X94895290Y-89135429D01*
X94946152Y-89129905D01*
X94961404Y-89126279D01*
X95081854Y-89081124D01*
X95097447Y-89072587D01*
X95098238Y-89071994D01*
X95099157Y-89071651D01*
X95105317Y-89068278D01*
X95105804Y-89069168D01*
X95164746Y-89047149D01*
X95234128Y-89062204D01*
X95249362Y-89071994D01*
X95250153Y-89072587D01*
X95265746Y-89081124D01*
X95386194Y-89126278D01*
X95401449Y-89129905D01*
X95452314Y-89135431D01*
X95459128Y-89135800D01*
X95485685Y-89135800D01*
X95500924Y-89131325D01*
X95502129Y-89129935D01*
X95503800Y-89122252D01*
X95503800Y-89117684D01*
X96113800Y-89117684D01*
X96118275Y-89132923D01*
X96119665Y-89134128D01*
X96127348Y-89135799D01*
X96158469Y-89135799D01*
X96165290Y-89135429D01*
X96216152Y-89129905D01*
X96231404Y-89126279D01*
X96351854Y-89081124D01*
X96367447Y-89072587D01*
X96368238Y-89071994D01*
X96369157Y-89071651D01*
X96375317Y-89068278D01*
X96375804Y-89069168D01*
X96434746Y-89047149D01*
X96504128Y-89062204D01*
X96519362Y-89071994D01*
X96520153Y-89072587D01*
X96535746Y-89081124D01*
X96656194Y-89126278D01*
X96671449Y-89129905D01*
X96722314Y-89135431D01*
X96729128Y-89135800D01*
X96755685Y-89135800D01*
X96770924Y-89131325D01*
X96772129Y-89129935D01*
X96773800Y-89122252D01*
X96773800Y-88315915D01*
X96769325Y-88300676D01*
X96767935Y-88299471D01*
X96760252Y-88297800D01*
X96131915Y-88297800D01*
X96116676Y-88302275D01*
X96115471Y-88303665D01*
X96113800Y-88311348D01*
X96113800Y-89117684D01*
X95503800Y-89117684D01*
X95503800Y-88315915D01*
X95499325Y-88300676D01*
X95497935Y-88299471D01*
X95490252Y-88297800D01*
X94861915Y-88297800D01*
X94846676Y-88302275D01*
X94845471Y-88303665D01*
X94843800Y-88311348D01*
X94843800Y-89117684D01*
X94233800Y-89117684D01*
X94233800Y-87813800D01*
X94245427Y-87774202D01*
X94464000Y-87757000D01*
X97337572Y-87757000D01*
X97341435Y-87761458D01*
G37*
%TD.AperFunction*%
%TD*%
%TA.AperFunction,Conductor*%
%TO.N,Shunt3*%
G36*
X177524130Y-38557588D02*
G01*
X177743968Y-38574889D01*
X177763494Y-38577982D01*
X177973088Y-38628301D01*
X177991883Y-38634408D01*
X178191035Y-38716899D01*
X178208633Y-38725866D01*
X178392427Y-38838496D01*
X178408414Y-38850111D01*
X178572320Y-38990100D01*
X178586298Y-39004078D01*
X178726289Y-39167986D01*
X178737904Y-39183973D01*
X178850534Y-39367767D01*
X178859501Y-39385365D01*
X178941990Y-39584512D01*
X178948100Y-39603316D01*
X178998418Y-39812905D01*
X179001511Y-39832433D01*
X179018812Y-40052270D01*
X179019200Y-40062156D01*
X179019200Y-67481444D01*
X179018812Y-67491330D01*
X179001511Y-67711167D01*
X178998418Y-67730695D01*
X178948100Y-67940284D01*
X178941992Y-67959083D01*
X178859501Y-68158235D01*
X178850534Y-68175833D01*
X178737906Y-68359624D01*
X178726289Y-68375614D01*
X178586300Y-68539520D01*
X178572322Y-68553498D01*
X178408414Y-68693489D01*
X178392427Y-68705104D01*
X178208633Y-68817734D01*
X178191035Y-68826701D01*
X177991883Y-68909192D01*
X177973088Y-68915299D01*
X177763495Y-68965618D01*
X177743968Y-68968711D01*
X177561635Y-68983060D01*
X177524130Y-68986012D01*
X177514244Y-68986400D01*
X172599356Y-68986400D01*
X172589470Y-68986012D01*
X172551965Y-68983060D01*
X172369632Y-68968711D01*
X172350105Y-68965618D01*
X172140512Y-68915299D01*
X172121717Y-68909192D01*
X171922565Y-68826701D01*
X171904967Y-68817734D01*
X171721173Y-68705104D01*
X171705186Y-68693489D01*
X171541278Y-68553498D01*
X171527300Y-68539520D01*
X171387311Y-68375614D01*
X171375694Y-68359624D01*
X171263066Y-68175833D01*
X171254099Y-68158235D01*
X171171608Y-67959083D01*
X171165500Y-67940284D01*
X171115182Y-67730695D01*
X171112089Y-67711167D01*
X171094788Y-67491330D01*
X171094400Y-67481444D01*
X171094400Y-67290556D01*
X172958592Y-67290556D01*
X172959581Y-67291877D01*
X172964161Y-67294102D01*
X173060964Y-67320040D01*
X173071759Y-67321943D01*
X173273325Y-67339578D01*
X173284275Y-67339578D01*
X173485841Y-67321943D01*
X173496636Y-67320040D01*
X173587562Y-67295677D01*
X173599603Y-67288337D01*
X173599407Y-67286700D01*
X173596549Y-67282477D01*
X173291612Y-66977540D01*
X173277668Y-66969926D01*
X173275835Y-66970057D01*
X173269220Y-66974308D01*
X172965352Y-67278176D01*
X172958592Y-67290556D01*
X171094400Y-67290556D01*
X171094400Y-66121675D01*
X172055422Y-66121675D01*
X172073057Y-66323241D01*
X172074960Y-66334036D01*
X172099323Y-66424962D01*
X172106663Y-66437003D01*
X172108300Y-66436807D01*
X172112523Y-66433949D01*
X172417460Y-66129012D01*
X172423838Y-66117332D01*
X174132526Y-66117332D01*
X174132657Y-66119165D01*
X174136908Y-66125780D01*
X174440776Y-66429648D01*
X174453156Y-66436408D01*
X174454477Y-66435419D01*
X174456702Y-66430839D01*
X174482640Y-66334036D01*
X174484543Y-66323241D01*
X174502178Y-66121675D01*
X174502178Y-66110725D01*
X174484543Y-65909159D01*
X174482640Y-65898364D01*
X174458277Y-65807438D01*
X174450937Y-65795397D01*
X174449300Y-65795593D01*
X174445077Y-65798451D01*
X174140140Y-66103388D01*
X174132526Y-66117332D01*
X172423838Y-66117332D01*
X172425074Y-66115068D01*
X172424943Y-66113235D01*
X172420692Y-66106620D01*
X172116824Y-65802752D01*
X172104444Y-65795992D01*
X172103123Y-65796981D01*
X172100898Y-65801561D01*
X172074960Y-65898364D01*
X172073057Y-65909159D01*
X172055422Y-66110725D01*
X172055422Y-66121675D01*
X171094400Y-66121675D01*
X171094400Y-64944063D01*
X172957997Y-64944063D01*
X172958193Y-64945700D01*
X172961051Y-64949923D01*
X173265988Y-65254860D01*
X173279932Y-65262474D01*
X173281765Y-65262343D01*
X173288380Y-65258092D01*
X173592248Y-64954224D01*
X173599008Y-64941844D01*
X173598019Y-64940523D01*
X173593439Y-64938298D01*
X173496636Y-64912360D01*
X173485841Y-64910457D01*
X173284275Y-64892822D01*
X173273325Y-64892822D01*
X173071759Y-64910457D01*
X173060964Y-64912360D01*
X172970038Y-64936723D01*
X172957997Y-64944063D01*
X171094400Y-64944063D01*
X171094400Y-63246000D01*
X160695195Y-63246000D01*
X160627074Y-63225998D01*
X160580581Y-63172342D01*
X160570477Y-63102068D01*
X160577213Y-63075770D01*
X160607378Y-62995305D01*
X160611005Y-62980051D01*
X160616531Y-62929186D01*
X160616900Y-62922372D01*
X160616900Y-61795534D01*
X172059100Y-61795534D01*
X172065855Y-61857716D01*
X172116985Y-61994105D01*
X172204339Y-62110661D01*
X172320895Y-62198015D01*
X172457284Y-62249145D01*
X172519466Y-62255900D01*
X174038134Y-62255900D01*
X174100316Y-62249145D01*
X174236705Y-62198015D01*
X174353261Y-62110661D01*
X174440615Y-61994105D01*
X174491745Y-61857716D01*
X174498500Y-61795534D01*
X174498500Y-60276866D01*
X174491745Y-60214684D01*
X174440615Y-60078295D01*
X174353261Y-59961739D01*
X174236705Y-59874385D01*
X174100316Y-59823255D01*
X174038134Y-59816500D01*
X172519466Y-59816500D01*
X172457284Y-59823255D01*
X172320895Y-59874385D01*
X172204339Y-59961739D01*
X172116985Y-60078295D01*
X172065855Y-60214684D01*
X172059100Y-60276866D01*
X172059100Y-61795534D01*
X160616900Y-61795534D01*
X160616900Y-60460515D01*
X160612425Y-60445276D01*
X160611035Y-60444071D01*
X160603352Y-60442400D01*
X154259616Y-60442400D01*
X154244377Y-60446875D01*
X154243172Y-60448265D01*
X154241501Y-60455948D01*
X154241501Y-62922369D01*
X154241871Y-62929190D01*
X154247395Y-62980052D01*
X154251021Y-62995303D01*
X154281187Y-63075770D01*
X154286370Y-63146577D01*
X154252450Y-63208946D01*
X154190194Y-63243075D01*
X154163205Y-63246000D01*
X154057356Y-63246000D01*
X154047470Y-63245612D01*
X154009965Y-63242660D01*
X153827632Y-63228311D01*
X153808105Y-63225218D01*
X153598512Y-63174899D01*
X153579717Y-63168792D01*
X153380565Y-63086301D01*
X153362967Y-63077334D01*
X153179173Y-62964704D01*
X153163186Y-62953089D01*
X152999278Y-62813098D01*
X152985300Y-62799120D01*
X152845311Y-62635214D01*
X152833694Y-62619224D01*
X152721066Y-62435433D01*
X152712099Y-62417835D01*
X152629608Y-62218683D01*
X152623500Y-62199884D01*
X152621759Y-62192629D01*
X152573182Y-61990294D01*
X152570089Y-61970767D01*
X152552788Y-61750930D01*
X152552400Y-61741044D01*
X152552400Y-59224285D01*
X154241500Y-59224285D01*
X154245975Y-59239524D01*
X154247365Y-59240729D01*
X154255048Y-59242400D01*
X156811085Y-59242400D01*
X156826324Y-59237925D01*
X156827529Y-59236535D01*
X156829200Y-59228852D01*
X156829200Y-59224285D01*
X158029200Y-59224285D01*
X158033675Y-59239524D01*
X158035065Y-59240729D01*
X158042748Y-59242400D01*
X160598784Y-59242400D01*
X160614023Y-59237925D01*
X160615228Y-59236535D01*
X160616899Y-59228852D01*
X160616899Y-56762431D01*
X160616529Y-56755610D01*
X160611005Y-56704748D01*
X160607379Y-56689496D01*
X160562224Y-56569046D01*
X160553686Y-56553451D01*
X160477185Y-56451376D01*
X160464624Y-56438815D01*
X160362549Y-56362314D01*
X160346954Y-56353776D01*
X160226506Y-56308622D01*
X160211251Y-56304995D01*
X160160386Y-56299469D01*
X160153572Y-56299100D01*
X158047315Y-56299100D01*
X158032076Y-56303575D01*
X158030871Y-56304965D01*
X158029200Y-56312648D01*
X158029200Y-59224285D01*
X156829200Y-59224285D01*
X156829200Y-56317216D01*
X156824725Y-56301977D01*
X156823335Y-56300772D01*
X156815652Y-56299101D01*
X154704831Y-56299101D01*
X154698010Y-56299471D01*
X154647148Y-56304995D01*
X154631896Y-56308621D01*
X154511446Y-56353776D01*
X154495851Y-56362314D01*
X154393776Y-56438815D01*
X154381215Y-56451376D01*
X154304714Y-56553451D01*
X154296176Y-56569046D01*
X154251022Y-56689494D01*
X154247395Y-56704749D01*
X154241869Y-56755614D01*
X154241500Y-56762428D01*
X154241500Y-59224285D01*
X152552400Y-59224285D01*
X152552400Y-50622200D01*
X151993600Y-50622200D01*
X151865418Y-50605324D01*
X151833647Y-50596811D01*
X151729524Y-50553682D01*
X151701038Y-50537235D01*
X151611629Y-50468629D01*
X151588371Y-50445371D01*
X151519765Y-50355962D01*
X151503318Y-50327476D01*
X151460189Y-50223353D01*
X151451676Y-50191582D01*
X151435878Y-50071588D01*
X151434800Y-50055141D01*
X151434800Y-48841534D01*
X152450300Y-48841534D01*
X152457055Y-48903716D01*
X152508185Y-49040105D01*
X152595539Y-49156661D01*
X152712095Y-49244015D01*
X152848484Y-49295145D01*
X152910666Y-49301900D01*
X154429334Y-49301900D01*
X154491516Y-49295145D01*
X154627905Y-49244015D01*
X154744461Y-49156661D01*
X154831815Y-49040105D01*
X154882945Y-48903716D01*
X154889700Y-48841534D01*
X154889700Y-47322866D01*
X154882945Y-47260684D01*
X154831815Y-47124295D01*
X154744461Y-47007739D01*
X154627905Y-46920385D01*
X154491516Y-46869255D01*
X154429334Y-46862500D01*
X152910666Y-46862500D01*
X152848484Y-46869255D01*
X152712095Y-46920385D01*
X152595539Y-47007739D01*
X152508185Y-47124295D01*
X152457055Y-47260684D01*
X152450300Y-47322866D01*
X152450300Y-48841534D01*
X151434800Y-48841534D01*
X151434800Y-46583600D01*
X169574883Y-46583600D01*
X169595532Y-46727786D01*
X169655819Y-46860382D01*
X169660766Y-46866535D01*
X169660768Y-46866538D01*
X169662267Y-46868402D01*
X169695012Y-46909128D01*
X170768872Y-47982988D01*
X170771534Y-47985128D01*
X170811462Y-48017232D01*
X170811465Y-48017234D01*
X170817618Y-48022181D01*
X170950214Y-48082468D01*
X170959097Y-48083740D01*
X170959100Y-48083741D01*
X171085511Y-48101844D01*
X171094400Y-48103117D01*
X171103289Y-48101844D01*
X171229700Y-48083741D01*
X171229703Y-48083740D01*
X171238586Y-48082468D01*
X171371182Y-48022181D01*
X171377335Y-48017234D01*
X171377338Y-48017232D01*
X171417266Y-47985128D01*
X171419928Y-47982988D01*
X172493788Y-46909128D01*
X172526533Y-46868402D01*
X172528032Y-46866538D01*
X172528034Y-46866535D01*
X172532981Y-46860382D01*
X172593268Y-46727786D01*
X172613917Y-46583600D01*
X172593268Y-46439414D01*
X172532981Y-46306818D01*
X172528034Y-46300665D01*
X172528032Y-46300662D01*
X172495928Y-46260734D01*
X172493788Y-46258072D01*
X171419928Y-45184212D01*
X171403192Y-45170756D01*
X171377338Y-45149968D01*
X171377335Y-45149966D01*
X171371182Y-45145019D01*
X171238586Y-45084732D01*
X171229703Y-45083460D01*
X171229700Y-45083459D01*
X171103289Y-45065356D01*
X171094400Y-45064083D01*
X171085511Y-45065356D01*
X170959100Y-45083459D01*
X170959097Y-45083460D01*
X170950214Y-45084732D01*
X170817618Y-45145019D01*
X170811465Y-45149966D01*
X170811462Y-45149968D01*
X170785608Y-45170756D01*
X170768872Y-45184212D01*
X169695012Y-46258072D01*
X169692872Y-46260734D01*
X169660768Y-46300662D01*
X169660766Y-46300665D01*
X169655819Y-46306818D01*
X169595532Y-46439414D01*
X169574883Y-46583600D01*
X151434800Y-46583600D01*
X151434800Y-44176556D01*
X153349792Y-44176556D01*
X153350781Y-44177877D01*
X153355361Y-44180102D01*
X153452164Y-44206040D01*
X153462959Y-44207943D01*
X153664525Y-44225578D01*
X153675475Y-44225578D01*
X153877041Y-44207943D01*
X153887836Y-44206040D01*
X153978762Y-44181677D01*
X153990803Y-44174337D01*
X153990607Y-44172700D01*
X153987749Y-44168477D01*
X153682812Y-43863540D01*
X153668868Y-43855926D01*
X153667035Y-43856057D01*
X153660420Y-43860308D01*
X153356552Y-44164176D01*
X153349792Y-44176556D01*
X151434800Y-44176556D01*
X151434800Y-43599715D01*
X173625023Y-43599715D01*
X173629771Y-43607939D01*
X173745814Y-43773666D01*
X173752868Y-43782073D01*
X173895925Y-43925130D01*
X173904333Y-43932186D01*
X174070069Y-44048235D01*
X174072555Y-44049670D01*
X174084026Y-44051413D01*
X174086502Y-44047627D01*
X174086502Y-44038837D01*
X175286502Y-44038837D01*
X175290475Y-44052368D01*
X175294720Y-44052978D01*
X175302935Y-44048235D01*
X175468671Y-43932186D01*
X175477079Y-43925130D01*
X175620136Y-43782073D01*
X175627190Y-43773666D01*
X175743233Y-43607939D01*
X175744675Y-43605441D01*
X175746417Y-43593975D01*
X175742628Y-43591498D01*
X175304617Y-43591498D01*
X175289378Y-43595973D01*
X175288173Y-43597363D01*
X175286502Y-43605046D01*
X175286502Y-44038837D01*
X174086502Y-44038837D01*
X174086502Y-43609613D01*
X174082027Y-43594374D01*
X174080637Y-43593169D01*
X174072954Y-43591498D01*
X173639164Y-43591498D01*
X173625633Y-43595471D01*
X173625023Y-43599715D01*
X151434800Y-43599715D01*
X151434800Y-43007675D01*
X152446622Y-43007675D01*
X152464257Y-43209241D01*
X152466160Y-43220036D01*
X152490523Y-43310962D01*
X152497863Y-43323003D01*
X152499500Y-43322807D01*
X152503723Y-43319949D01*
X152808660Y-43015012D01*
X152815038Y-43003332D01*
X154523726Y-43003332D01*
X154523857Y-43005165D01*
X154528108Y-43011780D01*
X154831976Y-43315648D01*
X154844356Y-43322408D01*
X154845677Y-43321419D01*
X154847902Y-43316839D01*
X154873840Y-43220036D01*
X154875743Y-43209241D01*
X154893378Y-43007675D01*
X154893378Y-42996725D01*
X154875743Y-42795159D01*
X154873840Y-42784364D01*
X154849477Y-42693438D01*
X154842137Y-42681397D01*
X154840500Y-42681593D01*
X154836277Y-42684451D01*
X154531340Y-42989388D01*
X154523726Y-43003332D01*
X152815038Y-43003332D01*
X152816274Y-43001068D01*
X152816143Y-42999235D01*
X152811892Y-42992620D01*
X152508024Y-42688752D01*
X152495644Y-42681992D01*
X152494323Y-42682981D01*
X152492098Y-42687561D01*
X152466160Y-42784364D01*
X152464257Y-42795159D01*
X152446622Y-42996725D01*
X152446622Y-43007675D01*
X151434800Y-43007675D01*
X151434800Y-42389021D01*
X173626587Y-42389021D01*
X173630376Y-42391498D01*
X174068387Y-42391498D01*
X174083626Y-42387023D01*
X174084831Y-42385633D01*
X174086502Y-42377950D01*
X174086502Y-42373383D01*
X175286502Y-42373383D01*
X175290977Y-42388622D01*
X175292367Y-42389827D01*
X175300050Y-42391498D01*
X175733840Y-42391498D01*
X175747371Y-42387525D01*
X175747981Y-42383281D01*
X175743233Y-42375057D01*
X175627190Y-42209330D01*
X175620136Y-42200923D01*
X175477079Y-42057866D01*
X175468671Y-42050810D01*
X175302935Y-41934761D01*
X175300449Y-41933326D01*
X175288978Y-41931583D01*
X175286502Y-41935369D01*
X175286502Y-42373383D01*
X174086502Y-42373383D01*
X174086502Y-41944160D01*
X174082529Y-41930629D01*
X174078285Y-41930019D01*
X174070061Y-41934767D01*
X173904334Y-42050810D01*
X173895927Y-42057864D01*
X173752868Y-42200923D01*
X173745814Y-42209330D01*
X173629771Y-42375057D01*
X173628329Y-42377555D01*
X173626587Y-42389021D01*
X151434800Y-42389021D01*
X151434800Y-41830063D01*
X153349197Y-41830063D01*
X153349393Y-41831700D01*
X153352251Y-41835923D01*
X153657188Y-42140860D01*
X153671132Y-42148474D01*
X153672965Y-42148343D01*
X153679580Y-42144092D01*
X153983448Y-41840224D01*
X153990208Y-41827844D01*
X153989219Y-41826523D01*
X153984639Y-41824298D01*
X153887836Y-41798360D01*
X153877041Y-41796457D01*
X153675475Y-41778822D01*
X153664525Y-41778822D01*
X153462959Y-41796457D01*
X153452164Y-41798360D01*
X153361238Y-41822723D01*
X153349197Y-41830063D01*
X151434800Y-41830063D01*
X151434800Y-40062156D01*
X151435188Y-40052270D01*
X151452489Y-39832433D01*
X151455582Y-39812905D01*
X151505900Y-39603316D01*
X151512010Y-39584512D01*
X151594499Y-39385365D01*
X151603466Y-39367767D01*
X151716096Y-39183973D01*
X151727711Y-39167986D01*
X151867702Y-39004078D01*
X151881680Y-38990100D01*
X152045586Y-38850111D01*
X152061573Y-38838496D01*
X152245367Y-38725866D01*
X152262965Y-38716899D01*
X152462117Y-38634408D01*
X152480912Y-38628301D01*
X152690506Y-38577982D01*
X152710032Y-38574889D01*
X152929870Y-38557588D01*
X152939756Y-38557200D01*
X177514244Y-38557200D01*
X177524130Y-38557588D01*
G37*
%TD.AperFunction*%
%TD*%
%TA.AperFunction,Conductor*%
%TO.N,/FL1_con*%
G36*
X137595330Y-35357188D02*
G01*
X137815168Y-35374489D01*
X137834694Y-35377582D01*
X138044288Y-35427901D01*
X138063083Y-35434008D01*
X138262235Y-35516499D01*
X138279833Y-35525466D01*
X138463627Y-35638096D01*
X138479618Y-35649715D01*
X138643516Y-35789697D01*
X138657497Y-35803677D01*
X138777188Y-35943817D01*
X138786400Y-35986903D01*
X138786400Y-39645084D01*
X138790875Y-39660323D01*
X138792265Y-39661528D01*
X138799948Y-39663199D01*
X138964400Y-39663199D01*
X139032521Y-39683201D01*
X139079014Y-39736857D01*
X139090400Y-39789199D01*
X139090400Y-40623200D01*
X139070398Y-40691321D01*
X139016742Y-40737814D01*
X138964400Y-40749200D01*
X138804515Y-40749200D01*
X138789276Y-40753675D01*
X138788071Y-40755065D01*
X138786400Y-40762748D01*
X138786400Y-44467084D01*
X138790875Y-44482323D01*
X138792265Y-44483528D01*
X138799948Y-44485199D01*
X138964400Y-44485199D01*
X139032521Y-44505201D01*
X139079014Y-44558857D01*
X139090400Y-44611199D01*
X139090400Y-45703200D01*
X139070398Y-45771321D01*
X139016742Y-45817814D01*
X138964400Y-45829200D01*
X138804515Y-45829200D01*
X138789276Y-45833675D01*
X138788071Y-45835065D01*
X138786400Y-45842748D01*
X138786400Y-49547084D01*
X138790875Y-49562323D01*
X138792265Y-49563528D01*
X138799948Y-49565199D01*
X138964400Y-49565199D01*
X139032521Y-49585201D01*
X139079014Y-49638857D01*
X139090400Y-49691199D01*
X139090400Y-50783200D01*
X139070398Y-50851321D01*
X139016742Y-50897814D01*
X138964400Y-50909200D01*
X138804515Y-50909200D01*
X138789276Y-50913675D01*
X138788071Y-50915065D01*
X138786400Y-50922748D01*
X138786400Y-54627084D01*
X138790875Y-54642323D01*
X138792265Y-54643528D01*
X138799948Y-54645199D01*
X138964400Y-54645199D01*
X139032521Y-54665201D01*
X139079014Y-54718857D01*
X139090400Y-54771199D01*
X139090400Y-56273600D01*
X139070398Y-56341721D01*
X139016742Y-56388214D01*
X138964400Y-56399600D01*
X138855315Y-56399600D01*
X138840076Y-56404075D01*
X138838871Y-56405465D01*
X138837200Y-56413148D01*
X138837200Y-60117484D01*
X138841675Y-60132723D01*
X138843065Y-60133928D01*
X138850748Y-60135599D01*
X138964400Y-60135599D01*
X139032521Y-60155601D01*
X139079014Y-60209257D01*
X139090400Y-60261599D01*
X139090400Y-61353600D01*
X139070398Y-61421721D01*
X139016742Y-61468214D01*
X138964400Y-61479600D01*
X138855315Y-61479600D01*
X138840076Y-61484075D01*
X138838871Y-61485465D01*
X138837200Y-61493148D01*
X138837200Y-65197484D01*
X138841675Y-65212723D01*
X138843065Y-65213928D01*
X138850748Y-65215599D01*
X138964400Y-65215599D01*
X139032521Y-65235601D01*
X139079014Y-65289257D01*
X139090400Y-65341599D01*
X139090400Y-77951200D01*
X139071933Y-78185852D01*
X139016985Y-78414725D01*
X138930701Y-78623035D01*
X138921734Y-78640633D01*
X138809106Y-78824424D01*
X138797489Y-78840414D01*
X138657500Y-79004320D01*
X138643522Y-79018298D01*
X138479614Y-79158289D01*
X138463627Y-79169904D01*
X138279833Y-79282534D01*
X138262235Y-79291501D01*
X138063083Y-79373992D01*
X138044288Y-79380099D01*
X137834695Y-79430418D01*
X137815168Y-79433511D01*
X137632835Y-79447860D01*
X137595330Y-79450812D01*
X137585444Y-79451200D01*
X135820156Y-79451200D01*
X135810270Y-79450812D01*
X135604946Y-79434653D01*
X135538605Y-79409368D01*
X135525737Y-79398136D01*
X134368264Y-78240663D01*
X134346425Y-78200669D01*
X135561001Y-78200669D01*
X135561371Y-78207490D01*
X135566895Y-78258352D01*
X135570521Y-78273604D01*
X135615676Y-78394054D01*
X135624214Y-78409649D01*
X135700715Y-78511724D01*
X135713276Y-78524285D01*
X135815351Y-78600786D01*
X135830946Y-78609324D01*
X135951394Y-78654478D01*
X135966649Y-78658105D01*
X136017514Y-78663631D01*
X136024328Y-78664000D01*
X136255885Y-78664000D01*
X136271124Y-78659525D01*
X136272329Y-78658135D01*
X136274000Y-78650452D01*
X136274000Y-78645884D01*
X136884000Y-78645884D01*
X136888475Y-78661123D01*
X136889865Y-78662328D01*
X136897548Y-78663999D01*
X137133669Y-78663999D01*
X137140490Y-78663629D01*
X137191352Y-78658105D01*
X137206604Y-78654479D01*
X137327054Y-78609324D01*
X137342649Y-78600786D01*
X137444724Y-78524285D01*
X137457284Y-78511725D01*
X137496472Y-78459436D01*
X137553331Y-78416920D01*
X137597299Y-78409000D01*
X138065885Y-78409000D01*
X138081124Y-78404525D01*
X138082329Y-78403135D01*
X138084000Y-78395452D01*
X138084000Y-73501116D01*
X138079525Y-73485877D01*
X138078135Y-73484672D01*
X138070452Y-73483001D01*
X137597300Y-73483001D01*
X137529179Y-73462999D01*
X137496474Y-73432566D01*
X137457285Y-73380276D01*
X137444724Y-73367715D01*
X137342649Y-73291214D01*
X137327054Y-73282676D01*
X137206606Y-73237522D01*
X137191351Y-73233895D01*
X137140486Y-73228369D01*
X137133672Y-73228000D01*
X136902115Y-73228000D01*
X136886876Y-73232475D01*
X136885671Y-73233865D01*
X136884000Y-73241548D01*
X136884000Y-78645884D01*
X136274000Y-78645884D01*
X136274000Y-78174115D01*
X136269525Y-78158876D01*
X136268135Y-78157671D01*
X136260452Y-78156000D01*
X135579116Y-78156000D01*
X135563877Y-78160475D01*
X135562672Y-78161865D01*
X135561001Y-78169548D01*
X135561001Y-78200669D01*
X134346425Y-78200669D01*
X134334238Y-78178351D01*
X134331747Y-78161454D01*
X134315588Y-77956130D01*
X134315200Y-77946244D01*
X134315200Y-77527885D01*
X135561000Y-77527885D01*
X135565475Y-77543124D01*
X135566865Y-77544329D01*
X135574548Y-77546000D01*
X136255885Y-77546000D01*
X136271124Y-77541525D01*
X136272329Y-77540135D01*
X136274000Y-77532452D01*
X136274000Y-76904115D01*
X136269525Y-76888876D01*
X136268135Y-76887671D01*
X136260452Y-76886000D01*
X135579116Y-76886000D01*
X135563877Y-76890475D01*
X135562672Y-76891865D01*
X135561001Y-76899548D01*
X135561001Y-76930669D01*
X135561371Y-76937490D01*
X135566895Y-76988352D01*
X135570521Y-77003604D01*
X135615676Y-77124054D01*
X135624213Y-77139647D01*
X135624806Y-77140438D01*
X135625149Y-77141357D01*
X135628522Y-77147517D01*
X135627632Y-77148004D01*
X135649651Y-77206946D01*
X135634596Y-77276328D01*
X135624806Y-77291562D01*
X135624213Y-77292353D01*
X135615676Y-77307946D01*
X135570522Y-77428394D01*
X135566895Y-77443649D01*
X135561369Y-77494514D01*
X135561000Y-77501328D01*
X135561000Y-77527885D01*
X134315200Y-77527885D01*
X134315200Y-76257885D01*
X135561000Y-76257885D01*
X135565475Y-76273124D01*
X135566865Y-76274329D01*
X135574548Y-76276000D01*
X136255885Y-76276000D01*
X136271124Y-76271525D01*
X136272329Y-76270135D01*
X136274000Y-76262452D01*
X136274000Y-75634115D01*
X136269525Y-75618876D01*
X136268135Y-75617671D01*
X136260452Y-75616000D01*
X135579116Y-75616000D01*
X135563877Y-75620475D01*
X135562672Y-75621865D01*
X135561001Y-75629548D01*
X135561001Y-75660669D01*
X135561371Y-75667490D01*
X135566895Y-75718352D01*
X135570521Y-75733604D01*
X135615676Y-75854054D01*
X135624213Y-75869647D01*
X135624806Y-75870438D01*
X135625149Y-75871357D01*
X135628522Y-75877517D01*
X135627632Y-75878004D01*
X135649651Y-75936946D01*
X135634596Y-76006328D01*
X135624806Y-76021562D01*
X135624213Y-76022353D01*
X135615676Y-76037946D01*
X135570522Y-76158394D01*
X135566895Y-76173649D01*
X135561369Y-76224514D01*
X135561000Y-76231328D01*
X135561000Y-76257885D01*
X134315200Y-76257885D01*
X134315200Y-74987885D01*
X135561000Y-74987885D01*
X135565475Y-75003124D01*
X135566865Y-75004329D01*
X135574548Y-75006000D01*
X136255885Y-75006000D01*
X136271124Y-75001525D01*
X136272329Y-75000135D01*
X136274000Y-74992452D01*
X136274000Y-74364115D01*
X136269525Y-74348876D01*
X136268135Y-74347671D01*
X136260452Y-74346000D01*
X135579116Y-74346000D01*
X135563877Y-74350475D01*
X135562672Y-74351865D01*
X135561001Y-74359548D01*
X135561001Y-74390669D01*
X135561371Y-74397490D01*
X135566895Y-74448352D01*
X135570521Y-74463604D01*
X135615676Y-74584054D01*
X135624213Y-74599647D01*
X135624806Y-74600438D01*
X135625149Y-74601357D01*
X135628522Y-74607517D01*
X135627632Y-74608004D01*
X135649651Y-74666946D01*
X135634596Y-74736328D01*
X135624806Y-74751562D01*
X135624213Y-74752353D01*
X135615676Y-74767946D01*
X135570522Y-74888394D01*
X135566895Y-74903649D01*
X135561369Y-74954514D01*
X135561000Y-74961328D01*
X135561000Y-74987885D01*
X134315200Y-74987885D01*
X134315200Y-73717885D01*
X135561000Y-73717885D01*
X135565475Y-73733124D01*
X135566865Y-73734329D01*
X135574548Y-73736000D01*
X136255885Y-73736000D01*
X136271124Y-73731525D01*
X136272329Y-73730135D01*
X136274000Y-73722452D01*
X136274000Y-73246116D01*
X136269525Y-73230877D01*
X136268135Y-73229672D01*
X136260452Y-73228001D01*
X136024331Y-73228001D01*
X136017510Y-73228371D01*
X135966648Y-73233895D01*
X135951396Y-73237521D01*
X135830946Y-73282676D01*
X135815351Y-73291214D01*
X135713276Y-73367715D01*
X135700715Y-73380276D01*
X135624214Y-73482351D01*
X135615676Y-73497946D01*
X135570522Y-73618394D01*
X135566895Y-73633649D01*
X135561369Y-73684514D01*
X135561000Y-73691328D01*
X135561000Y-73717885D01*
X134315200Y-73717885D01*
X134315200Y-64752269D01*
X136964201Y-64752269D01*
X136964571Y-64759090D01*
X136970095Y-64809952D01*
X136973721Y-64825204D01*
X137018876Y-64945654D01*
X137027414Y-64961249D01*
X137103915Y-65063324D01*
X137116476Y-65075885D01*
X137218551Y-65152386D01*
X137234146Y-65160924D01*
X137354594Y-65206078D01*
X137369849Y-65209705D01*
X137420714Y-65215231D01*
X137427528Y-65215600D01*
X137619085Y-65215600D01*
X137634324Y-65211125D01*
X137635529Y-65209735D01*
X137637200Y-65202052D01*
X137637200Y-63965715D01*
X137632725Y-63950476D01*
X137631335Y-63949271D01*
X137623652Y-63947600D01*
X136982316Y-63947600D01*
X136967077Y-63952075D01*
X136965872Y-63953465D01*
X136964201Y-63961148D01*
X136964201Y-64752269D01*
X134315200Y-64752269D01*
X134315200Y-62729485D01*
X136964200Y-62729485D01*
X136968675Y-62744724D01*
X136970065Y-62745929D01*
X136977748Y-62747600D01*
X137619085Y-62747600D01*
X137634324Y-62743125D01*
X137635529Y-62741735D01*
X137637200Y-62734052D01*
X137637200Y-61497716D01*
X137632725Y-61482477D01*
X137631335Y-61481272D01*
X137623652Y-61479601D01*
X137427531Y-61479601D01*
X137420710Y-61479971D01*
X137369848Y-61485495D01*
X137354596Y-61489121D01*
X137234146Y-61534276D01*
X137218551Y-61542814D01*
X137116476Y-61619315D01*
X137103915Y-61631876D01*
X137027414Y-61733951D01*
X137018876Y-61749546D01*
X136973722Y-61869994D01*
X136970095Y-61885249D01*
X136964569Y-61936114D01*
X136964200Y-61942928D01*
X136964200Y-62729485D01*
X134315200Y-62729485D01*
X134315200Y-59672269D01*
X136964201Y-59672269D01*
X136964571Y-59679090D01*
X136970095Y-59729952D01*
X136973721Y-59745204D01*
X137018876Y-59865654D01*
X137027414Y-59881249D01*
X137103915Y-59983324D01*
X137116476Y-59995885D01*
X137218551Y-60072386D01*
X137234146Y-60080924D01*
X137354594Y-60126078D01*
X137369849Y-60129705D01*
X137420714Y-60135231D01*
X137427528Y-60135600D01*
X137619085Y-60135600D01*
X137634324Y-60131125D01*
X137635529Y-60129735D01*
X137637200Y-60122052D01*
X137637200Y-58885715D01*
X137632725Y-58870476D01*
X137631335Y-58869271D01*
X137623652Y-58867600D01*
X136982316Y-58867600D01*
X136967077Y-58872075D01*
X136965872Y-58873465D01*
X136964201Y-58881148D01*
X136964201Y-59672269D01*
X134315200Y-59672269D01*
X134315200Y-57649485D01*
X136964200Y-57649485D01*
X136968675Y-57664724D01*
X136970065Y-57665929D01*
X136977748Y-57667600D01*
X137619085Y-57667600D01*
X137634324Y-57663125D01*
X137635529Y-57661735D01*
X137637200Y-57654052D01*
X137637200Y-56417716D01*
X137632725Y-56402477D01*
X137631335Y-56401272D01*
X137623652Y-56399601D01*
X137427531Y-56399601D01*
X137420710Y-56399971D01*
X137369848Y-56405495D01*
X137354596Y-56409121D01*
X137234146Y-56454276D01*
X137218551Y-56462814D01*
X137116476Y-56539315D01*
X137103915Y-56551876D01*
X137027414Y-56653951D01*
X137018876Y-56669546D01*
X136973722Y-56789994D01*
X136970095Y-56805249D01*
X136964569Y-56856114D01*
X136964200Y-56862928D01*
X136964200Y-57649485D01*
X134315200Y-57649485D01*
X134315200Y-54181869D01*
X136913401Y-54181869D01*
X136913771Y-54188690D01*
X136919295Y-54239552D01*
X136922921Y-54254804D01*
X136968076Y-54375254D01*
X136976614Y-54390849D01*
X137053115Y-54492924D01*
X137065676Y-54505485D01*
X137167751Y-54581986D01*
X137183346Y-54590524D01*
X137303794Y-54635678D01*
X137319049Y-54639305D01*
X137369914Y-54644831D01*
X137376728Y-54645200D01*
X137568285Y-54645200D01*
X137583524Y-54640725D01*
X137584729Y-54639335D01*
X137586400Y-54631652D01*
X137586400Y-53395315D01*
X137581925Y-53380076D01*
X137580535Y-53378871D01*
X137572852Y-53377200D01*
X136931516Y-53377200D01*
X136916277Y-53381675D01*
X136915072Y-53383065D01*
X136913401Y-53390748D01*
X136913401Y-54181869D01*
X134315200Y-54181869D01*
X134315200Y-52159085D01*
X136913400Y-52159085D01*
X136917875Y-52174324D01*
X136919265Y-52175529D01*
X136926948Y-52177200D01*
X137568285Y-52177200D01*
X137583524Y-52172725D01*
X137584729Y-52171335D01*
X137586400Y-52163652D01*
X137586400Y-50927316D01*
X137581925Y-50912077D01*
X137580535Y-50910872D01*
X137572852Y-50909201D01*
X137376731Y-50909201D01*
X137369910Y-50909571D01*
X137319048Y-50915095D01*
X137303796Y-50918721D01*
X137183346Y-50963876D01*
X137167751Y-50972414D01*
X137065676Y-51048915D01*
X137053115Y-51061476D01*
X136976614Y-51163551D01*
X136968076Y-51179146D01*
X136922922Y-51299594D01*
X136919295Y-51314849D01*
X136913769Y-51365714D01*
X136913400Y-51372528D01*
X136913400Y-52159085D01*
X134315200Y-52159085D01*
X134315200Y-49101869D01*
X136913401Y-49101869D01*
X136913771Y-49108690D01*
X136919295Y-49159552D01*
X136922921Y-49174804D01*
X136968076Y-49295254D01*
X136976614Y-49310849D01*
X137053115Y-49412924D01*
X137065676Y-49425485D01*
X137167751Y-49501986D01*
X137183346Y-49510524D01*
X137303794Y-49555678D01*
X137319049Y-49559305D01*
X137369914Y-49564831D01*
X137376728Y-49565200D01*
X137568285Y-49565200D01*
X137583524Y-49560725D01*
X137584729Y-49559335D01*
X137586400Y-49551652D01*
X137586400Y-48315315D01*
X137581925Y-48300076D01*
X137580535Y-48298871D01*
X137572852Y-48297200D01*
X136931516Y-48297200D01*
X136916277Y-48301675D01*
X136915072Y-48303065D01*
X136913401Y-48310748D01*
X136913401Y-49101869D01*
X134315200Y-49101869D01*
X134315200Y-47079085D01*
X136913400Y-47079085D01*
X136917875Y-47094324D01*
X136919265Y-47095529D01*
X136926948Y-47097200D01*
X137568285Y-47097200D01*
X137583524Y-47092725D01*
X137584729Y-47091335D01*
X137586400Y-47083652D01*
X137586400Y-45847316D01*
X137581925Y-45832077D01*
X137580535Y-45830872D01*
X137572852Y-45829201D01*
X137376731Y-45829201D01*
X137369910Y-45829571D01*
X137319048Y-45835095D01*
X137303796Y-45838721D01*
X137183346Y-45883876D01*
X137167751Y-45892414D01*
X137065676Y-45968915D01*
X137053115Y-45981476D01*
X136976614Y-46083551D01*
X136968076Y-46099146D01*
X136922922Y-46219594D01*
X136919295Y-46234849D01*
X136913769Y-46285714D01*
X136913400Y-46292528D01*
X136913400Y-47079085D01*
X134315200Y-47079085D01*
X134315200Y-44021869D01*
X136913401Y-44021869D01*
X136913771Y-44028690D01*
X136919295Y-44079552D01*
X136922921Y-44094804D01*
X136968076Y-44215254D01*
X136976614Y-44230849D01*
X137053115Y-44332924D01*
X137065676Y-44345485D01*
X137167751Y-44421986D01*
X137183346Y-44430524D01*
X137303794Y-44475678D01*
X137319049Y-44479305D01*
X137369914Y-44484831D01*
X137376728Y-44485200D01*
X137568285Y-44485200D01*
X137583524Y-44480725D01*
X137584729Y-44479335D01*
X137586400Y-44471652D01*
X137586400Y-43235315D01*
X137581925Y-43220076D01*
X137580535Y-43218871D01*
X137572852Y-43217200D01*
X136931516Y-43217200D01*
X136916277Y-43221675D01*
X136915072Y-43223065D01*
X136913401Y-43230748D01*
X136913401Y-44021869D01*
X134315200Y-44021869D01*
X134315200Y-41999085D01*
X136913400Y-41999085D01*
X136917875Y-42014324D01*
X136919265Y-42015529D01*
X136926948Y-42017200D01*
X137568285Y-42017200D01*
X137583524Y-42012725D01*
X137584729Y-42011335D01*
X137586400Y-42003652D01*
X137586400Y-40767316D01*
X137581925Y-40752077D01*
X137580535Y-40750872D01*
X137572852Y-40749201D01*
X137376731Y-40749201D01*
X137369910Y-40749571D01*
X137319048Y-40755095D01*
X137303796Y-40758721D01*
X137183346Y-40803876D01*
X137167751Y-40812414D01*
X137065676Y-40888915D01*
X137053115Y-40901476D01*
X136976614Y-41003551D01*
X136968076Y-41019146D01*
X136922922Y-41139594D01*
X136919295Y-41154849D01*
X136913769Y-41205714D01*
X136913400Y-41212528D01*
X136913400Y-41999085D01*
X134315200Y-41999085D01*
X134315200Y-39199869D01*
X136913401Y-39199869D01*
X136913771Y-39206690D01*
X136919295Y-39257552D01*
X136922921Y-39272804D01*
X136968076Y-39393254D01*
X136976614Y-39408849D01*
X137053115Y-39510924D01*
X137065676Y-39523485D01*
X137167751Y-39599986D01*
X137183346Y-39608524D01*
X137303794Y-39653678D01*
X137319049Y-39657305D01*
X137369914Y-39662831D01*
X137376728Y-39663200D01*
X137568285Y-39663200D01*
X137583524Y-39658725D01*
X137584729Y-39657335D01*
X137586400Y-39649652D01*
X137586400Y-38413315D01*
X137581925Y-38398076D01*
X137580535Y-38396871D01*
X137572852Y-38395200D01*
X136931516Y-38395200D01*
X136916277Y-38399675D01*
X136915072Y-38401065D01*
X136913401Y-38408748D01*
X136913401Y-39199869D01*
X134315200Y-39199869D01*
X134315200Y-37177085D01*
X136913400Y-37177085D01*
X136917875Y-37192324D01*
X136919265Y-37193529D01*
X136926948Y-37195200D01*
X137568285Y-37195200D01*
X137583524Y-37190725D01*
X137584729Y-37189335D01*
X137586400Y-37181652D01*
X137586400Y-35945316D01*
X137581925Y-35930077D01*
X137580535Y-35928872D01*
X137572852Y-35927201D01*
X137376731Y-35927201D01*
X137369910Y-35927571D01*
X137319048Y-35933095D01*
X137303796Y-35936721D01*
X137183346Y-35981876D01*
X137167751Y-35990414D01*
X137065676Y-36066915D01*
X137053115Y-36079476D01*
X136976614Y-36181551D01*
X136968076Y-36197146D01*
X136922922Y-36317594D01*
X136919295Y-36332849D01*
X136913769Y-36383714D01*
X136913400Y-36390528D01*
X136913400Y-37177085D01*
X134315200Y-37177085D01*
X134315200Y-36861756D01*
X134315588Y-36851870D01*
X134332889Y-36632033D01*
X134335982Y-36612505D01*
X134386300Y-36402916D01*
X134392410Y-36384112D01*
X134413644Y-36332849D01*
X134474899Y-36184965D01*
X134483866Y-36167367D01*
X134596496Y-35983573D01*
X134608111Y-35967586D01*
X134748103Y-35803677D01*
X134762080Y-35789700D01*
X134762084Y-35789697D01*
X134925986Y-35649711D01*
X134941973Y-35638096D01*
X135125767Y-35525466D01*
X135143365Y-35516499D01*
X135342517Y-35434008D01*
X135361312Y-35427901D01*
X135570906Y-35377582D01*
X135590432Y-35374489D01*
X135810270Y-35357188D01*
X135820156Y-35356800D01*
X137585444Y-35356800D01*
X137595330Y-35357188D01*
G37*
%TD.AperFunction*%
%TD*%
%TA.AperFunction,Conductor*%
%TO.N,PhaseA-*%
G36*
X90683474Y-94869479D02*
G01*
X90731516Y-94873682D01*
X90887555Y-94887334D01*
X90909178Y-94891146D01*
X91059625Y-94931458D01*
X91101718Y-94942737D01*
X91122358Y-94950249D01*
X91303015Y-95034492D01*
X91322026Y-95045468D01*
X91463489Y-95144522D01*
X91485314Y-95159804D01*
X91502138Y-95173922D01*
X91643078Y-95314862D01*
X91657196Y-95331686D01*
X91771532Y-95494974D01*
X91782508Y-95513985D01*
X91856102Y-95671807D01*
X91866751Y-95694643D01*
X91874263Y-95715282D01*
X91925853Y-95907818D01*
X91929667Y-95929448D01*
X91947684Y-96135383D01*
X91948000Y-96139000D01*
X91948000Y-97409000D01*
X93088510Y-97409000D01*
X93117327Y-97420272D01*
X93158967Y-97477776D01*
X93162907Y-97548663D01*
X93141053Y-97595494D01*
X93066214Y-97695352D01*
X93057676Y-97710946D01*
X93012522Y-97831394D01*
X93008895Y-97846649D01*
X93003369Y-97897514D01*
X93003000Y-97904328D01*
X93003000Y-97930885D01*
X93007475Y-97946124D01*
X93008865Y-97947329D01*
X93016548Y-97949000D01*
X95700884Y-97949000D01*
X95716123Y-97944525D01*
X95717328Y-97943135D01*
X95718999Y-97935452D01*
X95718999Y-97904331D01*
X95718629Y-97897510D01*
X95713105Y-97846648D01*
X95709479Y-97831396D01*
X95664324Y-97710946D01*
X95655786Y-97695352D01*
X95592242Y-97610565D01*
X95567394Y-97544059D01*
X95582447Y-97474676D01*
X95632621Y-97424446D01*
X95693068Y-97409000D01*
X100129516Y-97409000D01*
X100197637Y-97429002D01*
X100240870Y-97476041D01*
X100290573Y-97569914D01*
X100290584Y-97569932D01*
X100292275Y-97573126D01*
X100294325Y-97576109D01*
X100294327Y-97576112D01*
X100486733Y-97856064D01*
X100486739Y-97856071D01*
X100488790Y-97859056D01*
X100716866Y-98120505D01*
X100719551Y-98122948D01*
X100929268Y-98313775D01*
X100973481Y-98354006D01*
X101255233Y-98556466D01*
X101558388Y-98725200D01*
X101878928Y-98857972D01*
X101882422Y-98858967D01*
X101882424Y-98858968D01*
X102209103Y-98952025D01*
X102209108Y-98952026D01*
X102212604Y-98953022D01*
X102409304Y-98985233D01*
X102551412Y-99008504D01*
X102551419Y-99008505D01*
X102554993Y-99009090D01*
X102728275Y-99017262D01*
X102897931Y-99025263D01*
X102897932Y-99025263D01*
X102901558Y-99025434D01*
X102910415Y-99024830D01*
X103244073Y-99002084D01*
X103244081Y-99002083D01*
X103247704Y-99001836D01*
X103251279Y-99001173D01*
X103251282Y-99001173D01*
X103585279Y-98939270D01*
X103585283Y-98939269D01*
X103588844Y-98938609D01*
X103920456Y-98836592D01*
X104238145Y-98697136D01*
X104291860Y-98665748D01*
X104534560Y-98523926D01*
X104534562Y-98523925D01*
X104537700Y-98522091D01*
X104540609Y-98519907D01*
X104812244Y-98315958D01*
X104812248Y-98315955D01*
X104815151Y-98313775D01*
X105066819Y-98074950D01*
X105289370Y-97808783D01*
X105359572Y-97701911D01*
X105441185Y-97577666D01*
X105479853Y-97518799D01*
X105496245Y-97486208D01*
X105500180Y-97478385D01*
X105548657Y-97426516D01*
X105612744Y-97409000D01*
X106318044Y-97409000D01*
X106327930Y-97409388D01*
X106547768Y-97426689D01*
X106567294Y-97429782D01*
X106776888Y-97480101D01*
X106795683Y-97486208D01*
X106994835Y-97568699D01*
X107012433Y-97577666D01*
X107196227Y-97690296D01*
X107212214Y-97701911D01*
X107363819Y-97831394D01*
X107376120Y-97841900D01*
X107390098Y-97855878D01*
X107530089Y-98019786D01*
X107541704Y-98035773D01*
X107654334Y-98219567D01*
X107663301Y-98237165D01*
X107710686Y-98351563D01*
X107745790Y-98436312D01*
X107751900Y-98455116D01*
X107802218Y-98664705D01*
X107805311Y-98684232D01*
X107817186Y-98835128D01*
X107822612Y-98904070D01*
X107823000Y-98913956D01*
X107823000Y-100095044D01*
X107822612Y-100104930D01*
X107805311Y-100324767D01*
X107802218Y-100344295D01*
X107751900Y-100553884D01*
X107745792Y-100572683D01*
X107663301Y-100771835D01*
X107654334Y-100789433D01*
X107541706Y-100973224D01*
X107530089Y-100989214D01*
X107390100Y-101153120D01*
X107376122Y-101167098D01*
X107212214Y-101307089D01*
X107196227Y-101318704D01*
X107012433Y-101431334D01*
X106994835Y-101440301D01*
X106795683Y-101522792D01*
X106776888Y-101528899D01*
X106567295Y-101579218D01*
X106547768Y-101582311D01*
X106347165Y-101598098D01*
X106337287Y-101598486D01*
X89232115Y-101597888D01*
X79578823Y-101597550D01*
X79568942Y-101597162D01*
X79380234Y-101582311D01*
X79360705Y-101579218D01*
X79151112Y-101528899D01*
X79132317Y-101522792D01*
X78933165Y-101440301D01*
X78915567Y-101431334D01*
X78731773Y-101318704D01*
X78715786Y-101307089D01*
X78551878Y-101167098D01*
X78537900Y-101153120D01*
X78397911Y-100989214D01*
X78386294Y-100973224D01*
X78273666Y-100789433D01*
X78264699Y-100771835D01*
X78182208Y-100572683D01*
X78176100Y-100553884D01*
X78125782Y-100344295D01*
X78122689Y-100324767D01*
X78105388Y-100104930D01*
X78105000Y-100095044D01*
X78105000Y-98696869D01*
X93003001Y-98696869D01*
X93003371Y-98703690D01*
X93008895Y-98754552D01*
X93012521Y-98769804D01*
X93057676Y-98890254D01*
X93066214Y-98905849D01*
X93142715Y-99007924D01*
X93155276Y-99020485D01*
X93257351Y-99096986D01*
X93272946Y-99105524D01*
X93393394Y-99150678D01*
X93408649Y-99154305D01*
X93459514Y-99159831D01*
X93466328Y-99160200D01*
X93991285Y-99160200D01*
X94006524Y-99155725D01*
X94007729Y-99154335D01*
X94009400Y-99146652D01*
X94009400Y-99142084D01*
X94712600Y-99142084D01*
X94717075Y-99157323D01*
X94718465Y-99158528D01*
X94726148Y-99160199D01*
X95255669Y-99160199D01*
X95262490Y-99159829D01*
X95313352Y-99154305D01*
X95328604Y-99150679D01*
X95449054Y-99105524D01*
X95464649Y-99096986D01*
X95566724Y-99020485D01*
X95579285Y-99007924D01*
X95655786Y-98905849D01*
X95664324Y-98890254D01*
X95709478Y-98769806D01*
X95713105Y-98754551D01*
X95718631Y-98703686D01*
X95719000Y-98696872D01*
X95719000Y-98670315D01*
X95714525Y-98655076D01*
X95713135Y-98653871D01*
X95705452Y-98652200D01*
X94730715Y-98652200D01*
X94715476Y-98656675D01*
X94714271Y-98658065D01*
X94712600Y-98665748D01*
X94712600Y-99142084D01*
X94009400Y-99142084D01*
X94009400Y-98670315D01*
X94004925Y-98655076D01*
X94003535Y-98653871D01*
X93995852Y-98652200D01*
X93021116Y-98652200D01*
X93005877Y-98656675D01*
X93004672Y-98658065D01*
X93003001Y-98665748D01*
X93003001Y-98696869D01*
X78105000Y-98696869D01*
X78105000Y-97931201D01*
X79665049Y-97931201D01*
X79667924Y-97935042D01*
X79737528Y-97961621D01*
X79747426Y-97964497D01*
X79964453Y-98008651D01*
X79974682Y-98009870D01*
X80196004Y-98017987D01*
X80206290Y-98017520D01*
X80425968Y-97989378D01*
X80436054Y-97987235D01*
X80599125Y-97938311D01*
X80610943Y-97930617D01*
X80610553Y-97928008D01*
X80608634Y-97925262D01*
X80149813Y-97466441D01*
X80135869Y-97458827D01*
X80134036Y-97458958D01*
X80127421Y-97463209D01*
X79671809Y-97918821D01*
X79665049Y-97931201D01*
X78105000Y-97931201D01*
X78105000Y-96575697D01*
X78723189Y-96575697D01*
X78735938Y-96796797D01*
X78737374Y-96807018D01*
X78786061Y-97023056D01*
X78789145Y-97032897D01*
X78802987Y-97066985D01*
X78811759Y-97078028D01*
X78816794Y-97076780D01*
X79275661Y-96617913D01*
X79282039Y-96606233D01*
X80990727Y-96606233D01*
X80990858Y-96608066D01*
X80995109Y-96614681D01*
X81451983Y-97071555D01*
X81464363Y-97078315D01*
X81466567Y-97076665D01*
X81467987Y-97073861D01*
X81518084Y-96908970D01*
X81520261Y-96898900D01*
X81549406Y-96677523D01*
X81549925Y-96670848D01*
X81551450Y-96608465D01*
X81551256Y-96601747D01*
X81532962Y-96379222D01*
X81531279Y-96369060D01*
X81477326Y-96154262D01*
X81474004Y-96144503D01*
X81472780Y-96141688D01*
X81463741Y-96130863D01*
X81458268Y-96132362D01*
X80998341Y-96592289D01*
X80990727Y-96606233D01*
X79282039Y-96606233D01*
X79283275Y-96603969D01*
X79283144Y-96602136D01*
X79278893Y-96595521D01*
X78820237Y-96136865D01*
X78807857Y-96130105D01*
X78806304Y-96131267D01*
X78804283Y-96135383D01*
X78748907Y-96335061D01*
X78746976Y-96345181D01*
X78723441Y-96565408D01*
X78723189Y-96575697D01*
X78105000Y-96575697D01*
X78105000Y-96373956D01*
X78105388Y-96364070D01*
X78122689Y-96144233D01*
X78125782Y-96124705D01*
X78176101Y-95915112D01*
X78182210Y-95896312D01*
X78244060Y-95746993D01*
X78264699Y-95697165D01*
X78273666Y-95679567D01*
X78386296Y-95495773D01*
X78397911Y-95479786D01*
X78537902Y-95315878D01*
X78551880Y-95301900D01*
X78576797Y-95280619D01*
X79664288Y-95280619D01*
X79664882Y-95284017D01*
X79665989Y-95285561D01*
X80124189Y-95743761D01*
X80138133Y-95751375D01*
X80139966Y-95751244D01*
X80146581Y-95746993D01*
X80602012Y-95291562D01*
X80608772Y-95279182D01*
X80606220Y-95275773D01*
X80605834Y-95275566D01*
X80503212Y-95239225D01*
X80493241Y-95236591D01*
X80275209Y-95197754D01*
X80264956Y-95196785D01*
X80043497Y-95194079D01*
X80033214Y-95194799D01*
X79814298Y-95228297D01*
X79804271Y-95230686D01*
X79675914Y-95272639D01*
X79664288Y-95280619D01*
X78576797Y-95280619D01*
X78715786Y-95161911D01*
X78731773Y-95150296D01*
X78915567Y-95037666D01*
X78933165Y-95028699D01*
X79132317Y-94946208D01*
X79151112Y-94940101D01*
X79360706Y-94889782D01*
X79380232Y-94886689D01*
X79600070Y-94869388D01*
X79609956Y-94869000D01*
X90672493Y-94869000D01*
X90683474Y-94869479D01*
G37*
%TD.AperFunction*%
%TD*%
%TA.AperFunction,Conductor*%
%TO.N,PhaseB+*%
G36*
X98494421Y-70505002D02*
G01*
X98540914Y-70558658D01*
X98552300Y-70611000D01*
X98552300Y-70837934D01*
X98559055Y-70900116D01*
X98561827Y-70907512D01*
X98561829Y-70907518D01*
X98601927Y-71014479D01*
X98607110Y-71085286D01*
X98573189Y-71147655D01*
X98558579Y-71158615D01*
X98559338Y-71159628D01*
X98450076Y-71241515D01*
X98437515Y-71254076D01*
X98361014Y-71356151D01*
X98352476Y-71371746D01*
X98307322Y-71492194D01*
X98303695Y-71507449D01*
X98298169Y-71558314D01*
X98297800Y-71565128D01*
X98297800Y-71921685D01*
X98302275Y-71936924D01*
X98303665Y-71938129D01*
X98311348Y-71939800D01*
X101798601Y-71939800D01*
X101866722Y-71959802D01*
X101913215Y-72013458D01*
X101923956Y-72078534D01*
X101908291Y-72232751D01*
X101907426Y-72241262D01*
X101919154Y-72365325D01*
X101925227Y-72429567D01*
X101926039Y-72438162D01*
X101927799Y-72444065D01*
X101950549Y-72520380D01*
X101955800Y-72556376D01*
X101955800Y-73369684D01*
X101960275Y-73384923D01*
X101961665Y-73386128D01*
X101969348Y-73387799D01*
X102000469Y-73387799D01*
X102007290Y-73387429D01*
X102058152Y-73381905D01*
X102073404Y-73378279D01*
X102193854Y-73333124D01*
X102209444Y-73324588D01*
X102209817Y-73324309D01*
X102210250Y-73324147D01*
X102217317Y-73320278D01*
X102217876Y-73321298D01*
X102276323Y-73299461D01*
X102345706Y-73314513D01*
X102360949Y-73324310D01*
X102361319Y-73324587D01*
X102369095Y-73330415D01*
X102505484Y-73381545D01*
X102567666Y-73388300D01*
X103273934Y-73388300D01*
X103336116Y-73381545D01*
X103472505Y-73330415D01*
X103551417Y-73271274D01*
X103617922Y-73246426D01*
X103626981Y-73246100D01*
X104799369Y-73246100D01*
X104802425Y-73245800D01*
X104802432Y-73245800D01*
X104860940Y-73240063D01*
X104946433Y-73231680D01*
X104952334Y-73229898D01*
X104952336Y-73229898D01*
X105025653Y-73207762D01*
X105135769Y-73174516D01*
X105310396Y-73081666D01*
X105432412Y-72982152D01*
X105458887Y-72960560D01*
X105458890Y-72960557D01*
X105463662Y-72956665D01*
X105484654Y-72931290D01*
X105585801Y-72809025D01*
X105585803Y-72809021D01*
X105589730Y-72804275D01*
X105683798Y-72630301D01*
X105742282Y-72441368D01*
X105742926Y-72435241D01*
X105744166Y-72429201D01*
X105745948Y-72429567D01*
X105753887Y-72410271D01*
X105983022Y-72410271D01*
X105991944Y-72427989D01*
X105994000Y-72450656D01*
X105994000Y-72673285D01*
X105998475Y-72688524D01*
X105999865Y-72689729D01*
X106007548Y-72691400D01*
X111411884Y-72691400D01*
X111427123Y-72686925D01*
X111428328Y-72685535D01*
X111429999Y-72677852D01*
X111429999Y-72441731D01*
X111429629Y-72434910D01*
X111424105Y-72384048D01*
X111420479Y-72368796D01*
X111375324Y-72248346D01*
X111366786Y-72232751D01*
X111290285Y-72130676D01*
X111277725Y-72118116D01*
X111225436Y-72078928D01*
X111182920Y-72022069D01*
X111175000Y-71978101D01*
X111175000Y-71509515D01*
X111170525Y-71494276D01*
X111169135Y-71493071D01*
X111161452Y-71491400D01*
X106267116Y-71491400D01*
X106251877Y-71495875D01*
X106250672Y-71497265D01*
X106249001Y-71504948D01*
X106249001Y-71978100D01*
X106228999Y-72046221D01*
X106198566Y-72078926D01*
X106146276Y-72118115D01*
X106133715Y-72130676D01*
X106057214Y-72232751D01*
X106048676Y-72248346D01*
X106003522Y-72368794D01*
X106001243Y-72378378D01*
X105983022Y-72410271D01*
X105753887Y-72410271D01*
X105763638Y-72386571D01*
X105752831Y-72355802D01*
X105753350Y-72336062D01*
X105762311Y-72250804D01*
X105762311Y-72250802D01*
X105762955Y-72244675D01*
X105745030Y-72047712D01*
X105724543Y-71978100D01*
X105690930Y-71863894D01*
X105689190Y-71857981D01*
X105597560Y-71682710D01*
X105473632Y-71528575D01*
X105322126Y-71401446D01*
X105316728Y-71398479D01*
X105316723Y-71398475D01*
X105154208Y-71309133D01*
X105154209Y-71309133D01*
X105148813Y-71306167D01*
X105142946Y-71304306D01*
X105142944Y-71304305D01*
X104966164Y-71248227D01*
X104966163Y-71248227D01*
X104960294Y-71246365D01*
X104806373Y-71229100D01*
X103607768Y-71229100D01*
X103539647Y-71209098D01*
X103532203Y-71203926D01*
X103472505Y-71159185D01*
X103474776Y-71156155D01*
X103437220Y-71118567D01*
X103422159Y-71049186D01*
X103429852Y-71014001D01*
X103469771Y-70907518D01*
X103469773Y-70907512D01*
X103472545Y-70900116D01*
X103479300Y-70837934D01*
X103479300Y-70611000D01*
X103499302Y-70542879D01*
X103552958Y-70496386D01*
X103605300Y-70485000D01*
X112160044Y-70485000D01*
X112169930Y-70485388D01*
X112389768Y-70502689D01*
X112409294Y-70505782D01*
X112618888Y-70556101D01*
X112637683Y-70562208D01*
X112755477Y-70611000D01*
X112836824Y-70644695D01*
X112854442Y-70653672D01*
X112870336Y-70663412D01*
X112917967Y-70716060D01*
X112930500Y-70770844D01*
X112930500Y-75187100D01*
X112910498Y-75255221D01*
X112856842Y-75301714D01*
X112804500Y-75313100D01*
X102439759Y-75313100D01*
X102435362Y-75313023D01*
X102324799Y-75309162D01*
X102212772Y-75320146D01*
X102208833Y-75320470D01*
X102096530Y-75327929D01*
X102092433Y-75328755D01*
X102092426Y-75328756D01*
X102067893Y-75333703D01*
X102055286Y-75335588D01*
X102030349Y-75338033D01*
X102030344Y-75338034D01*
X102026202Y-75338440D01*
X102022148Y-75339391D01*
X102022141Y-75339392D01*
X101916631Y-75364139D01*
X101912766Y-75364982D01*
X101802420Y-75387232D01*
X101774778Y-75396750D01*
X101762546Y-75400280D01*
X101734101Y-75406952D01*
X101730206Y-75408432D01*
X101730198Y-75408434D01*
X101628907Y-75446911D01*
X101625186Y-75448258D01*
X101589323Y-75460607D01*
X101518737Y-75484912D01*
X101492600Y-75498001D01*
X101480945Y-75503118D01*
X101453626Y-75513495D01*
X101449953Y-75515481D01*
X101354634Y-75567019D01*
X101351124Y-75568846D01*
X101303058Y-75592916D01*
X101250465Y-75619253D01*
X101247009Y-75621602D01*
X101226295Y-75635679D01*
X101215399Y-75642303D01*
X101189705Y-75656196D01*
X101129092Y-75700233D01*
X101098648Y-75722352D01*
X101095414Y-75724625D01*
X101002316Y-75787894D01*
X100999203Y-75790678D01*
X100999201Y-75790679D01*
X100980537Y-75807367D01*
X100970613Y-75815375D01*
X100946976Y-75832548D01*
X100877614Y-75895885D01*
X100846999Y-75926500D01*
X100841887Y-75931335D01*
X100778652Y-75987874D01*
X100775935Y-75991044D01*
X100775934Y-75991045D01*
X100739970Y-76033005D01*
X100733397Y-76040102D01*
X97946588Y-78826911D01*
X97884276Y-78860937D01*
X97847610Y-78863428D01*
X97668232Y-78849311D01*
X97648705Y-78846218D01*
X97439112Y-78795899D01*
X97420317Y-78789792D01*
X97221165Y-78707301D01*
X97203567Y-78698334D01*
X97019773Y-78585704D01*
X97003786Y-78574089D01*
X96839878Y-78434098D01*
X96825900Y-78420120D01*
X96685911Y-78256214D01*
X96674294Y-78240224D01*
X96561666Y-78056433D01*
X96552699Y-78038835D01*
X96470208Y-77839683D01*
X96464100Y-77820884D01*
X96461968Y-77812000D01*
X96443468Y-77734945D01*
X96447015Y-77664038D01*
X96488335Y-77606304D01*
X96554308Y-77580074D01*
X96623990Y-77593676D01*
X96666813Y-77629967D01*
X96689114Y-77659723D01*
X96701676Y-77672285D01*
X96803751Y-77748786D01*
X96819346Y-77757324D01*
X96939794Y-77802478D01*
X96955049Y-77806105D01*
X97005914Y-77811631D01*
X97012728Y-77812000D01*
X97039285Y-77812000D01*
X97054524Y-77807525D01*
X97055729Y-77806135D01*
X97057400Y-77798452D01*
X97057400Y-77793884D01*
X97760600Y-77793884D01*
X97765075Y-77809123D01*
X97766465Y-77810328D01*
X97774148Y-77811999D01*
X97805269Y-77811999D01*
X97812090Y-77811629D01*
X97862952Y-77806105D01*
X97878204Y-77802479D01*
X97998654Y-77757324D01*
X98014249Y-77748786D01*
X98116324Y-77672285D01*
X98128885Y-77659724D01*
X98205386Y-77557649D01*
X98213924Y-77542054D01*
X98259078Y-77421606D01*
X98262705Y-77406351D01*
X98268231Y-77355486D01*
X98268600Y-77348672D01*
X98268600Y-76823715D01*
X98264125Y-76808476D01*
X98262735Y-76807271D01*
X98255052Y-76805600D01*
X97778715Y-76805600D01*
X97763476Y-76810075D01*
X97762271Y-76811465D01*
X97760600Y-76819148D01*
X97760600Y-77793884D01*
X97057400Y-77793884D01*
X97057400Y-76084285D01*
X97760600Y-76084285D01*
X97765075Y-76099524D01*
X97766465Y-76100729D01*
X97774148Y-76102400D01*
X98250484Y-76102400D01*
X98265723Y-76097925D01*
X98266928Y-76096535D01*
X98268599Y-76088852D01*
X98268599Y-75559331D01*
X98268229Y-75552510D01*
X98262705Y-75501648D01*
X98259079Y-75486396D01*
X98213924Y-75365946D01*
X98205386Y-75350351D01*
X98128885Y-75248276D01*
X98116324Y-75235715D01*
X98014249Y-75159214D01*
X97998654Y-75150676D01*
X97878206Y-75105522D01*
X97862951Y-75101895D01*
X97812086Y-75096369D01*
X97805272Y-75096000D01*
X97778715Y-75096000D01*
X97763476Y-75100475D01*
X97762271Y-75101865D01*
X97760600Y-75109548D01*
X97760600Y-76084285D01*
X97057400Y-76084285D01*
X97057400Y-75114116D01*
X97052925Y-75098877D01*
X97051535Y-75097672D01*
X97043852Y-75096001D01*
X97012731Y-75096001D01*
X97005910Y-75096371D01*
X96955048Y-75101895D01*
X96939796Y-75105521D01*
X96819346Y-75150676D01*
X96803751Y-75159214D01*
X96701676Y-75235715D01*
X96689115Y-75248276D01*
X96619826Y-75340728D01*
X96562967Y-75383243D01*
X96492148Y-75388269D01*
X96429855Y-75354209D01*
X96395865Y-75291878D01*
X96393000Y-75265163D01*
X96393000Y-73551069D01*
X105994001Y-73551069D01*
X105994371Y-73557890D01*
X105999895Y-73608752D01*
X106003521Y-73624004D01*
X106048676Y-73744454D01*
X106057214Y-73760049D01*
X106133715Y-73862124D01*
X106146276Y-73874685D01*
X106248351Y-73951186D01*
X106263946Y-73959724D01*
X106384394Y-74004878D01*
X106399649Y-74008505D01*
X106450514Y-74014031D01*
X106457328Y-74014400D01*
X106483885Y-74014400D01*
X106499124Y-74009925D01*
X106500329Y-74008535D01*
X106502000Y-74000852D01*
X106502000Y-73996284D01*
X107112000Y-73996284D01*
X107116475Y-74011523D01*
X107117865Y-74012728D01*
X107125548Y-74014399D01*
X107156669Y-74014399D01*
X107163490Y-74014029D01*
X107214352Y-74008505D01*
X107229604Y-74004879D01*
X107350054Y-73959724D01*
X107365647Y-73951187D01*
X107366438Y-73950594D01*
X107367357Y-73950251D01*
X107373517Y-73946878D01*
X107374004Y-73947768D01*
X107432946Y-73925749D01*
X107502328Y-73940804D01*
X107517562Y-73950594D01*
X107518353Y-73951187D01*
X107533946Y-73959724D01*
X107654394Y-74004878D01*
X107669649Y-74008505D01*
X107720514Y-74014031D01*
X107727328Y-74014400D01*
X107753885Y-74014400D01*
X107769124Y-74009925D01*
X107770329Y-74008535D01*
X107772000Y-74000852D01*
X107772000Y-73996284D01*
X108382000Y-73996284D01*
X108386475Y-74011523D01*
X108387865Y-74012728D01*
X108395548Y-74014399D01*
X108426669Y-74014399D01*
X108433490Y-74014029D01*
X108484352Y-74008505D01*
X108499604Y-74004879D01*
X108620054Y-73959724D01*
X108635647Y-73951187D01*
X108636438Y-73950594D01*
X108637357Y-73950251D01*
X108643517Y-73946878D01*
X108644004Y-73947768D01*
X108702946Y-73925749D01*
X108772328Y-73940804D01*
X108787562Y-73950594D01*
X108788353Y-73951187D01*
X108803946Y-73959724D01*
X108924394Y-74004878D01*
X108939649Y-74008505D01*
X108990514Y-74014031D01*
X108997328Y-74014400D01*
X109023885Y-74014400D01*
X109039124Y-74009925D01*
X109040329Y-74008535D01*
X109042000Y-74000852D01*
X109042000Y-73996284D01*
X109652000Y-73996284D01*
X109656475Y-74011523D01*
X109657865Y-74012728D01*
X109665548Y-74014399D01*
X109696669Y-74014399D01*
X109703490Y-74014029D01*
X109754352Y-74008505D01*
X109769604Y-74004879D01*
X109890054Y-73959724D01*
X109905647Y-73951187D01*
X109906438Y-73950594D01*
X109907357Y-73950251D01*
X109913517Y-73946878D01*
X109914004Y-73947768D01*
X109972946Y-73925749D01*
X110042328Y-73940804D01*
X110057562Y-73950594D01*
X110058353Y-73951187D01*
X110073946Y-73959724D01*
X110194394Y-74004878D01*
X110209649Y-74008505D01*
X110260514Y-74014031D01*
X110267328Y-74014400D01*
X110293885Y-74014400D01*
X110309124Y-74009925D01*
X110310329Y-74008535D01*
X110312000Y-74000852D01*
X110312000Y-73996284D01*
X110922000Y-73996284D01*
X110926475Y-74011523D01*
X110927865Y-74012728D01*
X110935548Y-74014399D01*
X110966669Y-74014399D01*
X110973490Y-74014029D01*
X111024352Y-74008505D01*
X111039604Y-74004879D01*
X111160054Y-73959724D01*
X111175649Y-73951186D01*
X111277724Y-73874685D01*
X111290285Y-73862124D01*
X111366786Y-73760049D01*
X111375324Y-73744454D01*
X111420478Y-73624006D01*
X111424105Y-73608751D01*
X111429631Y-73557886D01*
X111430000Y-73551072D01*
X111430000Y-73319515D01*
X111425525Y-73304276D01*
X111424135Y-73303071D01*
X111416452Y-73301400D01*
X110940115Y-73301400D01*
X110924876Y-73305875D01*
X110923671Y-73307265D01*
X110922000Y-73314948D01*
X110922000Y-73996284D01*
X110312000Y-73996284D01*
X110312000Y-73319515D01*
X110307525Y-73304276D01*
X110306135Y-73303071D01*
X110298452Y-73301400D01*
X109670115Y-73301400D01*
X109654876Y-73305875D01*
X109653671Y-73307265D01*
X109652000Y-73314948D01*
X109652000Y-73996284D01*
X109042000Y-73996284D01*
X109042000Y-73319515D01*
X109037525Y-73304276D01*
X109036135Y-73303071D01*
X109028452Y-73301400D01*
X108400115Y-73301400D01*
X108384876Y-73305875D01*
X108383671Y-73307265D01*
X108382000Y-73314948D01*
X108382000Y-73996284D01*
X107772000Y-73996284D01*
X107772000Y-73319515D01*
X107767525Y-73304276D01*
X107766135Y-73303071D01*
X107758452Y-73301400D01*
X107130115Y-73301400D01*
X107114876Y-73305875D01*
X107113671Y-73307265D01*
X107112000Y-73314948D01*
X107112000Y-73996284D01*
X106502000Y-73996284D01*
X106502000Y-73319515D01*
X106497525Y-73304276D01*
X106496135Y-73303071D01*
X106488452Y-73301400D01*
X106012116Y-73301400D01*
X105996877Y-73305875D01*
X105995672Y-73307265D01*
X105994001Y-73314948D01*
X105994001Y-73551069D01*
X96393000Y-73551069D01*
X96393000Y-72924469D01*
X98297801Y-72924469D01*
X98298171Y-72931290D01*
X98303695Y-72982152D01*
X98307321Y-72997404D01*
X98352476Y-73117854D01*
X98361014Y-73133449D01*
X98437515Y-73235524D01*
X98450076Y-73248085D01*
X98552151Y-73324586D01*
X98567746Y-73333124D01*
X98688194Y-73378278D01*
X98703449Y-73381905D01*
X98754314Y-73387431D01*
X98761128Y-73387800D01*
X98787685Y-73387800D01*
X98802924Y-73383325D01*
X98804129Y-73381935D01*
X98805800Y-73374252D01*
X98805800Y-73369684D01*
X99415800Y-73369684D01*
X99420275Y-73384923D01*
X99421665Y-73386128D01*
X99429348Y-73387799D01*
X99460469Y-73387799D01*
X99467290Y-73387429D01*
X99518152Y-73381905D01*
X99533404Y-73378279D01*
X99653854Y-73333124D01*
X99669447Y-73324587D01*
X99670238Y-73323994D01*
X99671157Y-73323651D01*
X99677317Y-73320278D01*
X99677804Y-73321168D01*
X99736746Y-73299149D01*
X99806128Y-73314204D01*
X99821362Y-73323994D01*
X99822153Y-73324587D01*
X99837746Y-73333124D01*
X99958194Y-73378278D01*
X99973449Y-73381905D01*
X100024314Y-73387431D01*
X100031128Y-73387800D01*
X100057685Y-73387800D01*
X100072924Y-73383325D01*
X100074129Y-73381935D01*
X100075800Y-73374252D01*
X100075800Y-73369684D01*
X100685800Y-73369684D01*
X100690275Y-73384923D01*
X100691665Y-73386128D01*
X100699348Y-73387799D01*
X100730469Y-73387799D01*
X100737290Y-73387429D01*
X100788152Y-73381905D01*
X100803404Y-73378279D01*
X100923854Y-73333124D01*
X100939447Y-73324587D01*
X100940238Y-73323994D01*
X100941157Y-73323651D01*
X100947317Y-73320278D01*
X100947804Y-73321168D01*
X101006746Y-73299149D01*
X101076128Y-73314204D01*
X101091362Y-73323994D01*
X101092153Y-73324587D01*
X101107746Y-73333124D01*
X101228194Y-73378278D01*
X101243449Y-73381905D01*
X101294314Y-73387431D01*
X101301128Y-73387800D01*
X101327685Y-73387800D01*
X101342924Y-73383325D01*
X101344129Y-73381935D01*
X101345800Y-73374252D01*
X101345800Y-72567915D01*
X101341325Y-72552676D01*
X101339935Y-72551471D01*
X101332252Y-72549800D01*
X100703915Y-72549800D01*
X100688676Y-72554275D01*
X100687471Y-72555665D01*
X100685800Y-72563348D01*
X100685800Y-73369684D01*
X100075800Y-73369684D01*
X100075800Y-72567915D01*
X100071325Y-72552676D01*
X100069935Y-72551471D01*
X100062252Y-72549800D01*
X99433915Y-72549800D01*
X99418676Y-72554275D01*
X99417471Y-72555665D01*
X99415800Y-72563348D01*
X99415800Y-73369684D01*
X98805800Y-73369684D01*
X98805800Y-72567915D01*
X98801325Y-72552676D01*
X98799935Y-72551471D01*
X98792252Y-72549800D01*
X98315916Y-72549800D01*
X98300677Y-72554275D01*
X98299472Y-72555665D01*
X98297801Y-72563348D01*
X98297801Y-72924469D01*
X96393000Y-72924469D01*
X96393000Y-71989956D01*
X96393388Y-71980070D01*
X96410689Y-71760233D01*
X96413782Y-71740705D01*
X96428859Y-71677906D01*
X96464101Y-71531112D01*
X96470210Y-71512312D01*
X96471369Y-71509515D01*
X96552699Y-71313165D01*
X96561666Y-71295567D01*
X96674296Y-71111773D01*
X96685911Y-71095786D01*
X96825902Y-70931878D01*
X96839880Y-70917900D01*
X96937509Y-70834517D01*
X97003786Y-70777911D01*
X97019773Y-70766296D01*
X97203567Y-70653666D01*
X97221165Y-70644699D01*
X97420317Y-70562208D01*
X97439112Y-70556101D01*
X97648706Y-70505782D01*
X97668232Y-70502689D01*
X97888070Y-70485388D01*
X97897956Y-70485000D01*
X98426300Y-70485000D01*
X98494421Y-70505002D01*
G37*
%TD.AperFunction*%
%TD*%
%TA.AperFunction,Conductor*%
%TO.N,PhaseC+*%
G36*
X82263821Y-67203002D02*
G01*
X82310314Y-67256658D01*
X82321700Y-67309000D01*
X82321700Y-67688334D01*
X82328455Y-67750516D01*
X82331227Y-67757912D01*
X82331229Y-67757918D01*
X82371327Y-67864879D01*
X82376510Y-67935686D01*
X82342589Y-67998055D01*
X82327979Y-68009015D01*
X82328738Y-68010028D01*
X82219476Y-68091915D01*
X82206915Y-68104476D01*
X82130414Y-68206551D01*
X82121876Y-68222146D01*
X82076722Y-68342594D01*
X82073095Y-68357849D01*
X82067569Y-68408714D01*
X82067200Y-68415528D01*
X82067200Y-68772085D01*
X82071675Y-68787324D01*
X82073065Y-68788529D01*
X82080748Y-68790200D01*
X85568221Y-68790200D01*
X85636342Y-68810202D01*
X85682835Y-68863858D01*
X85693531Y-68929369D01*
X85676845Y-69088125D01*
X85694770Y-69285088D01*
X85696510Y-69290998D01*
X85696510Y-69291001D01*
X85720074Y-69371065D01*
X85725200Y-69406639D01*
X85725200Y-70220084D01*
X85729675Y-70235323D01*
X85731065Y-70236528D01*
X85738748Y-70238199D01*
X85769869Y-70238199D01*
X85776690Y-70237829D01*
X85827552Y-70232305D01*
X85842804Y-70228679D01*
X85963254Y-70183524D01*
X85978844Y-70174988D01*
X85979217Y-70174709D01*
X85979650Y-70174547D01*
X85986717Y-70170678D01*
X85987276Y-70171698D01*
X86045723Y-70149861D01*
X86115106Y-70164913D01*
X86130349Y-70174710D01*
X86130719Y-70174987D01*
X86138495Y-70180815D01*
X86274884Y-70231945D01*
X86337066Y-70238700D01*
X87043334Y-70238700D01*
X87105516Y-70231945D01*
X87241905Y-70180815D01*
X87249682Y-70174987D01*
X87311210Y-70128874D01*
X87377717Y-70104026D01*
X87386775Y-70103700D01*
X87829286Y-70103700D01*
X87888830Y-70118657D01*
X87900963Y-70125163D01*
X87981746Y-70149861D01*
X88084200Y-70181185D01*
X88084202Y-70181185D01*
X88090098Y-70182988D01*
X88109326Y-70184941D01*
X88280735Y-70202352D01*
X88280739Y-70202352D01*
X88286863Y-70202974D01*
X88483762Y-70184362D01*
X88489657Y-70182605D01*
X88489660Y-70182604D01*
X88667392Y-70129619D01*
X88667391Y-70129619D01*
X88673296Y-70127859D01*
X88848247Y-70035618D01*
X88920752Y-69976905D01*
X88997158Y-69915032D01*
X88997159Y-69915031D01*
X89001948Y-69911153D01*
X89013506Y-69897280D01*
X89124606Y-69763935D01*
X89124609Y-69763930D01*
X89128547Y-69759204D01*
X89223222Y-69585559D01*
X89233269Y-69553500D01*
X89280522Y-69402714D01*
X89280523Y-69402711D01*
X89282365Y-69396832D01*
X89285165Y-69371065D01*
X89303059Y-69206337D01*
X89303059Y-69206333D01*
X89303724Y-69200212D01*
X89286487Y-69003187D01*
X89284768Y-68997270D01*
X89284767Y-68997265D01*
X89233027Y-68819178D01*
X89231309Y-68813264D01*
X89140292Y-68637674D01*
X89127562Y-68621728D01*
X89045860Y-68519381D01*
X89045857Y-68519378D01*
X89043662Y-68516628D01*
X88952855Y-68425821D01*
X88943753Y-68415678D01*
X88923897Y-68390982D01*
X88920032Y-68386175D01*
X88881578Y-68353908D01*
X88877931Y-68350728D01*
X88876119Y-68349085D01*
X88873925Y-68346891D01*
X88840651Y-68319558D01*
X88839853Y-68318896D01*
X88768526Y-68259046D01*
X88763856Y-68256478D01*
X88759739Y-68253097D01*
X88701855Y-68222060D01*
X88677914Y-68209223D01*
X88676755Y-68208594D01*
X88600619Y-68166738D01*
X88600611Y-68166735D01*
X88595213Y-68163767D01*
X88590131Y-68162155D01*
X88585437Y-68159638D01*
X88496469Y-68132438D01*
X88495441Y-68132118D01*
X88406694Y-68103965D01*
X88401398Y-68103371D01*
X88396302Y-68101813D01*
X88303743Y-68092410D01*
X88302607Y-68092289D01*
X88268992Y-68088519D01*
X88256270Y-68087092D01*
X88256266Y-68087092D01*
X88252773Y-68086700D01*
X88249246Y-68086700D01*
X88248261Y-68086645D01*
X88242581Y-68086198D01*
X88213175Y-68083211D01*
X88205663Y-68082448D01*
X88205661Y-68082448D01*
X88199538Y-68081826D01*
X88157259Y-68085823D01*
X88153891Y-68086141D01*
X88142033Y-68086700D01*
X87386775Y-68086700D01*
X87318654Y-68066698D01*
X87311210Y-68061526D01*
X87241905Y-68009585D01*
X87244176Y-68006555D01*
X87206620Y-67968967D01*
X87191559Y-67899586D01*
X87199252Y-67864401D01*
X87239171Y-67757918D01*
X87239173Y-67757912D01*
X87241945Y-67750516D01*
X87248700Y-67688334D01*
X87248700Y-67309000D01*
X87268702Y-67240879D01*
X87322358Y-67194386D01*
X87374700Y-67183000D01*
X93183000Y-67183000D01*
X93183000Y-68101500D01*
X93162998Y-68169621D01*
X93109342Y-68216114D01*
X93057000Y-68227500D01*
X90138116Y-68227500D01*
X90122877Y-68231975D01*
X90121672Y-68233365D01*
X90120001Y-68241048D01*
X90120001Y-68714200D01*
X90099999Y-68782321D01*
X90069566Y-68815026D01*
X90017276Y-68854215D01*
X90004715Y-68866776D01*
X89928214Y-68968851D01*
X89919676Y-68984446D01*
X89874522Y-69104894D01*
X89870895Y-69120149D01*
X89865369Y-69171014D01*
X89865000Y-69177828D01*
X89865000Y-69409385D01*
X89869475Y-69424624D01*
X89870865Y-69425829D01*
X89878548Y-69427500D01*
X94667000Y-69427500D01*
X94735121Y-69447502D01*
X94781614Y-69501158D01*
X94793000Y-69553500D01*
X94793000Y-70732384D01*
X94797475Y-70747623D01*
X94798865Y-70748828D01*
X94806548Y-70750499D01*
X94837669Y-70750499D01*
X94844490Y-70750129D01*
X94895352Y-70744605D01*
X94910604Y-70740979D01*
X95031054Y-70695824D01*
X95046649Y-70687286D01*
X95148724Y-70610785D01*
X95161285Y-70598224D01*
X95237786Y-70496149D01*
X95246324Y-70480554D01*
X95260018Y-70444026D01*
X95302660Y-70387262D01*
X95369222Y-70362562D01*
X95438570Y-70377770D01*
X95488688Y-70428056D01*
X95504000Y-70488256D01*
X95504000Y-71647044D01*
X95503612Y-71656930D01*
X95486311Y-71876767D01*
X95483218Y-71896295D01*
X95432900Y-72105884D01*
X95426792Y-72124683D01*
X95344301Y-72323835D01*
X95335334Y-72341433D01*
X95222706Y-72525224D01*
X95211089Y-72541214D01*
X95071100Y-72705120D01*
X95057122Y-72719098D01*
X94893214Y-72859089D01*
X94877227Y-72870704D01*
X94693433Y-72983334D01*
X94675835Y-72992301D01*
X94476683Y-73074792D01*
X94457888Y-73080899D01*
X94248295Y-73131218D01*
X94228768Y-73134311D01*
X94046435Y-73148660D01*
X94008930Y-73151612D01*
X93999044Y-73152000D01*
X85979000Y-73152000D01*
X85979000Y-74231499D01*
X85959474Y-74429750D01*
X85954657Y-74453971D01*
X85900428Y-74632740D01*
X85890980Y-74655548D01*
X85837793Y-74755054D01*
X85802922Y-74820292D01*
X85789199Y-74840829D01*
X85670694Y-74985228D01*
X85653228Y-75002694D01*
X85508829Y-75121199D01*
X85488294Y-75134921D01*
X85394603Y-75185000D01*
X85323550Y-75222979D01*
X85300740Y-75232428D01*
X85121971Y-75286657D01*
X85097750Y-75291474D01*
X84905663Y-75310393D01*
X84893313Y-75311000D01*
X83983200Y-75311000D01*
X83915079Y-75290998D01*
X83868586Y-75237342D01*
X83857200Y-75185000D01*
X83857200Y-75148795D01*
X83877202Y-75080674D01*
X83930858Y-75034181D01*
X83969595Y-75023532D01*
X84010352Y-75019105D01*
X84025604Y-75015479D01*
X84146054Y-74970324D01*
X84161649Y-74961786D01*
X84263724Y-74885285D01*
X84276285Y-74872724D01*
X84352786Y-74770649D01*
X84361324Y-74755054D01*
X84406478Y-74634606D01*
X84410105Y-74619351D01*
X84415631Y-74568486D01*
X84416000Y-74561672D01*
X84416000Y-74535115D01*
X84411525Y-74519876D01*
X84410135Y-74518671D01*
X84402452Y-74517000D01*
X81718116Y-74517000D01*
X81702877Y-74521475D01*
X81701672Y-74522865D01*
X81700001Y-74530548D01*
X81700001Y-74561669D01*
X81700371Y-74568490D01*
X81705895Y-74619352D01*
X81709521Y-74634604D01*
X81754676Y-74755054D01*
X81763214Y-74770649D01*
X81839715Y-74872724D01*
X81852276Y-74885285D01*
X81954351Y-74961786D01*
X81969946Y-74970324D01*
X82090394Y-75015478D01*
X82105649Y-75019106D01*
X82146407Y-75023533D01*
X82211969Y-75050775D01*
X82252396Y-75109137D01*
X82258800Y-75148796D01*
X82258800Y-75185000D01*
X82238798Y-75253121D01*
X82185142Y-75299614D01*
X82132800Y-75311000D01*
X79609956Y-75311000D01*
X79600070Y-75310612D01*
X79460323Y-75299614D01*
X79380232Y-75293311D01*
X79360705Y-75290218D01*
X79151112Y-75239899D01*
X79132317Y-75233792D01*
X78933165Y-75151301D01*
X78915567Y-75142334D01*
X78731773Y-75029704D01*
X78715786Y-75018089D01*
X78551878Y-74878098D01*
X78537900Y-74864120D01*
X78509816Y-74831238D01*
X78397911Y-74700214D01*
X78386294Y-74684224D01*
X78273666Y-74500433D01*
X78264699Y-74482835D01*
X78182208Y-74283683D01*
X78176100Y-74264884D01*
X78168086Y-74231500D01*
X78125782Y-74055294D01*
X78122689Y-74035767D01*
X78105388Y-73815930D01*
X78105000Y-73806044D01*
X78105000Y-73795685D01*
X81700000Y-73795685D01*
X81704475Y-73810924D01*
X81705865Y-73812129D01*
X81713548Y-73813800D01*
X82688285Y-73813800D01*
X82703524Y-73809325D01*
X82704729Y-73807935D01*
X82706400Y-73800252D01*
X82706400Y-73795685D01*
X83409600Y-73795685D01*
X83414075Y-73810924D01*
X83415465Y-73812129D01*
X83423148Y-73813800D01*
X84397884Y-73813800D01*
X84413123Y-73809325D01*
X84414328Y-73807935D01*
X84415999Y-73800252D01*
X84415999Y-73769131D01*
X84415629Y-73762310D01*
X84410105Y-73711448D01*
X84406479Y-73696196D01*
X84361324Y-73575746D01*
X84352786Y-73560151D01*
X84276285Y-73458076D01*
X84263724Y-73445515D01*
X84161649Y-73369014D01*
X84146054Y-73360476D01*
X84025606Y-73315322D01*
X84010351Y-73311695D01*
X83959486Y-73306169D01*
X83952672Y-73305800D01*
X83427715Y-73305800D01*
X83412476Y-73310275D01*
X83411271Y-73311665D01*
X83409600Y-73319348D01*
X83409600Y-73795685D01*
X82706400Y-73795685D01*
X82706400Y-73323916D01*
X82701925Y-73308677D01*
X82700535Y-73307472D01*
X82692852Y-73305801D01*
X82163331Y-73305801D01*
X82156510Y-73306171D01*
X82105648Y-73311695D01*
X82090396Y-73315321D01*
X81969946Y-73360476D01*
X81954351Y-73369014D01*
X81852276Y-73445515D01*
X81839715Y-73458076D01*
X81763214Y-73560151D01*
X81754676Y-73575746D01*
X81709522Y-73696194D01*
X81705895Y-73711449D01*
X81700369Y-73762314D01*
X81700000Y-73769128D01*
X81700000Y-73795685D01*
X78105000Y-73795685D01*
X78105000Y-70287169D01*
X89865001Y-70287169D01*
X89865371Y-70293990D01*
X89870895Y-70344852D01*
X89874521Y-70360104D01*
X89919676Y-70480554D01*
X89928214Y-70496149D01*
X90004715Y-70598224D01*
X90017276Y-70610785D01*
X90119351Y-70687286D01*
X90134946Y-70695824D01*
X90255394Y-70740978D01*
X90270649Y-70744605D01*
X90321514Y-70750131D01*
X90328328Y-70750500D01*
X90354885Y-70750500D01*
X90370124Y-70746025D01*
X90371329Y-70744635D01*
X90373000Y-70736952D01*
X90373000Y-70732384D01*
X90983000Y-70732384D01*
X90987475Y-70747623D01*
X90988865Y-70748828D01*
X90996548Y-70750499D01*
X91027669Y-70750499D01*
X91034490Y-70750129D01*
X91085352Y-70744605D01*
X91100604Y-70740979D01*
X91221054Y-70695824D01*
X91236647Y-70687287D01*
X91237438Y-70686694D01*
X91238357Y-70686351D01*
X91244517Y-70682978D01*
X91245004Y-70683868D01*
X91303946Y-70661849D01*
X91373328Y-70676904D01*
X91388562Y-70686694D01*
X91389353Y-70687287D01*
X91404946Y-70695824D01*
X91525394Y-70740978D01*
X91540649Y-70744605D01*
X91591514Y-70750131D01*
X91598328Y-70750500D01*
X91624885Y-70750500D01*
X91640124Y-70746025D01*
X91641329Y-70744635D01*
X91643000Y-70736952D01*
X91643000Y-70732384D01*
X92253000Y-70732384D01*
X92257475Y-70747623D01*
X92258865Y-70748828D01*
X92266548Y-70750499D01*
X92297669Y-70750499D01*
X92304490Y-70750129D01*
X92355352Y-70744605D01*
X92370604Y-70740979D01*
X92491054Y-70695824D01*
X92506647Y-70687287D01*
X92507438Y-70686694D01*
X92508357Y-70686351D01*
X92514517Y-70682978D01*
X92515004Y-70683868D01*
X92573946Y-70661849D01*
X92643328Y-70676904D01*
X92658562Y-70686694D01*
X92659353Y-70687287D01*
X92674946Y-70695824D01*
X92795394Y-70740978D01*
X92810649Y-70744605D01*
X92861514Y-70750131D01*
X92868328Y-70750500D01*
X92894885Y-70750500D01*
X92910124Y-70746025D01*
X92911329Y-70744635D01*
X92913000Y-70736952D01*
X92913000Y-70732384D01*
X93523000Y-70732384D01*
X93527475Y-70747623D01*
X93528865Y-70748828D01*
X93536548Y-70750499D01*
X93567669Y-70750499D01*
X93574490Y-70750129D01*
X93625352Y-70744605D01*
X93640604Y-70740979D01*
X93761054Y-70695824D01*
X93776647Y-70687287D01*
X93777438Y-70686694D01*
X93778357Y-70686351D01*
X93784517Y-70682978D01*
X93785004Y-70683868D01*
X93843946Y-70661849D01*
X93913328Y-70676904D01*
X93928562Y-70686694D01*
X93929353Y-70687287D01*
X93944946Y-70695824D01*
X94065394Y-70740978D01*
X94080649Y-70744605D01*
X94131514Y-70750131D01*
X94138328Y-70750500D01*
X94164885Y-70750500D01*
X94180124Y-70746025D01*
X94181329Y-70744635D01*
X94183000Y-70736952D01*
X94183000Y-70055615D01*
X94178525Y-70040376D01*
X94177135Y-70039171D01*
X94169452Y-70037500D01*
X93541115Y-70037500D01*
X93525876Y-70041975D01*
X93524671Y-70043365D01*
X93523000Y-70051048D01*
X93523000Y-70732384D01*
X92913000Y-70732384D01*
X92913000Y-70055615D01*
X92908525Y-70040376D01*
X92907135Y-70039171D01*
X92899452Y-70037500D01*
X92271115Y-70037500D01*
X92255876Y-70041975D01*
X92254671Y-70043365D01*
X92253000Y-70051048D01*
X92253000Y-70732384D01*
X91643000Y-70732384D01*
X91643000Y-70055615D01*
X91638525Y-70040376D01*
X91637135Y-70039171D01*
X91629452Y-70037500D01*
X91001115Y-70037500D01*
X90985876Y-70041975D01*
X90984671Y-70043365D01*
X90983000Y-70051048D01*
X90983000Y-70732384D01*
X90373000Y-70732384D01*
X90373000Y-70055615D01*
X90368525Y-70040376D01*
X90367135Y-70039171D01*
X90359452Y-70037500D01*
X89883116Y-70037500D01*
X89867877Y-70041975D01*
X89866672Y-70043365D01*
X89865001Y-70051048D01*
X89865001Y-70287169D01*
X78105000Y-70287169D01*
X78105000Y-69774869D01*
X82067201Y-69774869D01*
X82067571Y-69781690D01*
X82073095Y-69832552D01*
X82076721Y-69847804D01*
X82121876Y-69968254D01*
X82130414Y-69983849D01*
X82206915Y-70085924D01*
X82219476Y-70098485D01*
X82321551Y-70174986D01*
X82337146Y-70183524D01*
X82457594Y-70228678D01*
X82472849Y-70232305D01*
X82523714Y-70237831D01*
X82530528Y-70238200D01*
X82557085Y-70238200D01*
X82572324Y-70233725D01*
X82573529Y-70232335D01*
X82575200Y-70224652D01*
X82575200Y-70220084D01*
X83185200Y-70220084D01*
X83189675Y-70235323D01*
X83191065Y-70236528D01*
X83198748Y-70238199D01*
X83229869Y-70238199D01*
X83236690Y-70237829D01*
X83287552Y-70232305D01*
X83302804Y-70228679D01*
X83423254Y-70183524D01*
X83438847Y-70174987D01*
X83439638Y-70174394D01*
X83440557Y-70174051D01*
X83446717Y-70170678D01*
X83447204Y-70171568D01*
X83506146Y-70149549D01*
X83575528Y-70164604D01*
X83590762Y-70174394D01*
X83591553Y-70174987D01*
X83607146Y-70183524D01*
X83727594Y-70228678D01*
X83742849Y-70232305D01*
X83793714Y-70237831D01*
X83800528Y-70238200D01*
X83827085Y-70238200D01*
X83842324Y-70233725D01*
X83843529Y-70232335D01*
X83845200Y-70224652D01*
X83845200Y-70220084D01*
X84455200Y-70220084D01*
X84459675Y-70235323D01*
X84461065Y-70236528D01*
X84468748Y-70238199D01*
X84499869Y-70238199D01*
X84506690Y-70237829D01*
X84557552Y-70232305D01*
X84572804Y-70228679D01*
X84693254Y-70183524D01*
X84708847Y-70174987D01*
X84709638Y-70174394D01*
X84710557Y-70174051D01*
X84716717Y-70170678D01*
X84717204Y-70171568D01*
X84776146Y-70149549D01*
X84845528Y-70164604D01*
X84860762Y-70174394D01*
X84861553Y-70174987D01*
X84877146Y-70183524D01*
X84997594Y-70228678D01*
X85012849Y-70232305D01*
X85063714Y-70237831D01*
X85070528Y-70238200D01*
X85097085Y-70238200D01*
X85112324Y-70233725D01*
X85113529Y-70232335D01*
X85115200Y-70224652D01*
X85115200Y-69418315D01*
X85110725Y-69403076D01*
X85109335Y-69401871D01*
X85101652Y-69400200D01*
X84473315Y-69400200D01*
X84458076Y-69404675D01*
X84456871Y-69406065D01*
X84455200Y-69413748D01*
X84455200Y-70220084D01*
X83845200Y-70220084D01*
X83845200Y-69418315D01*
X83840725Y-69403076D01*
X83839335Y-69401871D01*
X83831652Y-69400200D01*
X83203315Y-69400200D01*
X83188076Y-69404675D01*
X83186871Y-69406065D01*
X83185200Y-69413748D01*
X83185200Y-70220084D01*
X82575200Y-70220084D01*
X82575200Y-69418315D01*
X82570725Y-69403076D01*
X82569335Y-69401871D01*
X82561652Y-69400200D01*
X82085316Y-69400200D01*
X82070077Y-69404675D01*
X82068872Y-69406065D01*
X82067201Y-69413748D01*
X82067201Y-69774869D01*
X78105000Y-69774869D01*
X78105000Y-68687956D01*
X78105388Y-68678070D01*
X78122689Y-68458233D01*
X78125782Y-68438705D01*
X78146140Y-68353909D01*
X78176101Y-68229112D01*
X78182210Y-68210312D01*
X78264699Y-68011165D01*
X78273666Y-67993567D01*
X78386296Y-67809773D01*
X78397911Y-67793786D01*
X78537902Y-67629878D01*
X78551880Y-67615900D01*
X78715786Y-67475911D01*
X78731773Y-67464296D01*
X78915567Y-67351666D01*
X78933165Y-67342699D01*
X79132317Y-67260208D01*
X79151112Y-67254101D01*
X79360706Y-67203782D01*
X79380232Y-67200689D01*
X79600070Y-67183388D01*
X79609956Y-67183000D01*
X82195700Y-67183000D01*
X82263821Y-67203002D01*
G37*
%TD.AperFunction*%
%TD*%
%TA.AperFunction,Conductor*%
%TO.N,Net-(C10-Pad1)*%
G36*
X145570930Y-61163588D02*
G01*
X145790768Y-61180889D01*
X145810294Y-61183982D01*
X146019888Y-61234301D01*
X146038683Y-61240408D01*
X146237835Y-61322899D01*
X146255438Y-61331869D01*
X146417236Y-61431020D01*
X146464866Y-61483666D01*
X146477400Y-61538451D01*
X146477400Y-65197484D01*
X146481875Y-65212723D01*
X146483265Y-65213928D01*
X146496942Y-65216903D01*
X146559254Y-65250928D01*
X146593279Y-65313240D01*
X146588215Y-65384056D01*
X146551989Y-65435835D01*
X146455218Y-65518485D01*
X146439227Y-65530104D01*
X146255433Y-65642734D01*
X146237835Y-65651701D01*
X146038683Y-65734192D01*
X146019888Y-65740299D01*
X145810295Y-65790618D01*
X145790768Y-65793711D01*
X145608435Y-65808060D01*
X145570930Y-65811012D01*
X145561044Y-65811400D01*
X141408156Y-65811400D01*
X141398270Y-65811012D01*
X141360765Y-65808060D01*
X141178432Y-65793711D01*
X141158905Y-65790618D01*
X140949312Y-65740299D01*
X140930517Y-65734192D01*
X140731365Y-65651701D01*
X140713767Y-65642734D01*
X140529973Y-65530104D01*
X140513986Y-65518489D01*
X140350078Y-65378498D01*
X140336109Y-65364530D01*
X140335109Y-65363359D01*
X140330709Y-65358208D01*
X140301672Y-65293424D01*
X140312269Y-65223222D01*
X140315771Y-65217814D01*
X140319200Y-65202052D01*
X140319200Y-65197484D01*
X141519200Y-65197484D01*
X141523675Y-65212723D01*
X141525065Y-65213928D01*
X141532748Y-65215599D01*
X141728869Y-65215599D01*
X141735690Y-65215229D01*
X141786552Y-65209705D01*
X141801804Y-65206079D01*
X141922254Y-65160924D01*
X141937849Y-65152386D01*
X142039924Y-65075885D01*
X142052485Y-65063324D01*
X142128986Y-64961249D01*
X142137524Y-64945654D01*
X142182678Y-64825206D01*
X142186305Y-64809951D01*
X142191831Y-64759086D01*
X142192200Y-64752272D01*
X142192200Y-64752269D01*
X144604401Y-64752269D01*
X144604771Y-64759090D01*
X144610295Y-64809952D01*
X144613921Y-64825204D01*
X144659076Y-64945654D01*
X144667614Y-64961249D01*
X144744115Y-65063324D01*
X144756676Y-65075885D01*
X144858751Y-65152386D01*
X144874346Y-65160924D01*
X144994794Y-65206078D01*
X145010049Y-65209705D01*
X145060914Y-65215231D01*
X145067728Y-65215600D01*
X145259285Y-65215600D01*
X145274524Y-65211125D01*
X145275729Y-65209735D01*
X145277400Y-65202052D01*
X145277400Y-63965715D01*
X145272925Y-63950476D01*
X145271535Y-63949271D01*
X145263852Y-63947600D01*
X144622516Y-63947600D01*
X144607277Y-63952075D01*
X144606072Y-63953465D01*
X144604401Y-63961148D01*
X144604401Y-64752269D01*
X142192200Y-64752269D01*
X142192200Y-63965715D01*
X142187725Y-63950476D01*
X142186335Y-63949271D01*
X142178652Y-63947600D01*
X141537315Y-63947600D01*
X141522076Y-63952075D01*
X141520871Y-63953465D01*
X141519200Y-63961148D01*
X141519200Y-65197484D01*
X140319200Y-65197484D01*
X140319200Y-62729485D01*
X141519200Y-62729485D01*
X141523675Y-62744724D01*
X141525065Y-62745929D01*
X141532748Y-62747600D01*
X142174084Y-62747600D01*
X142189323Y-62743125D01*
X142190528Y-62741735D01*
X142192199Y-62734052D01*
X142192199Y-62729485D01*
X144604400Y-62729485D01*
X144608875Y-62744724D01*
X144610265Y-62745929D01*
X144617948Y-62747600D01*
X145259285Y-62747600D01*
X145274524Y-62743125D01*
X145275729Y-62741735D01*
X145277400Y-62734052D01*
X145277400Y-61497716D01*
X145272925Y-61482477D01*
X145271535Y-61481272D01*
X145263852Y-61479601D01*
X145067731Y-61479601D01*
X145060910Y-61479971D01*
X145010048Y-61485495D01*
X144994796Y-61489121D01*
X144874346Y-61534276D01*
X144858751Y-61542814D01*
X144756676Y-61619315D01*
X144744115Y-61631876D01*
X144667614Y-61733951D01*
X144659076Y-61749546D01*
X144613922Y-61869994D01*
X144610295Y-61885249D01*
X144604769Y-61936114D01*
X144604400Y-61942928D01*
X144604400Y-62729485D01*
X142192199Y-62729485D01*
X142192199Y-61942931D01*
X142191829Y-61936110D01*
X142186305Y-61885248D01*
X142182679Y-61869996D01*
X142137524Y-61749546D01*
X142128986Y-61733951D01*
X142052485Y-61631876D01*
X142039924Y-61619315D01*
X141937849Y-61542814D01*
X141922254Y-61534276D01*
X141801806Y-61489122D01*
X141786551Y-61485495D01*
X141735686Y-61479969D01*
X141728872Y-61479600D01*
X141537315Y-61479600D01*
X141522076Y-61484075D01*
X141520871Y-61485465D01*
X141519200Y-61493148D01*
X141519200Y-62729485D01*
X140319200Y-62729485D01*
X140319200Y-61629868D01*
X140342540Y-61602540D01*
X140521522Y-61449675D01*
X140713762Y-61331869D01*
X140731365Y-61322899D01*
X140930517Y-61240408D01*
X140949312Y-61234301D01*
X141158906Y-61183982D01*
X141178432Y-61180889D01*
X141398270Y-61163588D01*
X141408156Y-61163200D01*
X145561044Y-61163200D01*
X145570930Y-61163588D01*
G37*
%TD.AperFunction*%
%TD*%
%TA.AperFunction,Conductor*%
%TO.N,GND*%
G36*
X111407930Y-62103388D02*
G01*
X111627768Y-62120689D01*
X111647294Y-62123782D01*
X111856888Y-62174101D01*
X111875683Y-62180208D01*
X112074835Y-62262699D01*
X112092433Y-62271666D01*
X112276227Y-62384296D01*
X112292214Y-62395911D01*
X112456120Y-62535900D01*
X112470098Y-62549878D01*
X112610089Y-62713786D01*
X112621704Y-62729773D01*
X112734334Y-62913567D01*
X112743301Y-62931165D01*
X112825790Y-63130312D01*
X112831900Y-63149116D01*
X112882218Y-63358705D01*
X112885311Y-63378233D01*
X112902612Y-63598070D01*
X112903000Y-63607956D01*
X112903000Y-66948044D01*
X112902612Y-66957930D01*
X112885311Y-67177767D01*
X112882218Y-67197294D01*
X112845289Y-67351117D01*
X112831900Y-67406884D01*
X112825792Y-67425683D01*
X112743301Y-67624835D01*
X112734334Y-67642433D01*
X112660608Y-67762742D01*
X112621706Y-67826224D01*
X112610089Y-67842214D01*
X112599583Y-67854515D01*
X112470100Y-68006120D01*
X112456122Y-68020098D01*
X112292214Y-68160089D01*
X112276227Y-68171704D01*
X112092433Y-68284334D01*
X112074835Y-68293301D01*
X111875683Y-68375792D01*
X111856888Y-68381899D01*
X111670487Y-68426650D01*
X111647295Y-68432218D01*
X111627768Y-68435311D01*
X111552356Y-68441246D01*
X111482877Y-68426650D01*
X111432317Y-68376808D01*
X111416731Y-68307543D01*
X111419889Y-68286487D01*
X111424105Y-68268757D01*
X111429631Y-68217886D01*
X111430000Y-68211072D01*
X111430000Y-67854515D01*
X111425525Y-67839276D01*
X111424135Y-67838071D01*
X111416452Y-67836400D01*
X107928773Y-67836400D01*
X107860652Y-67816398D01*
X107814159Y-67762742D01*
X107803510Y-67696792D01*
X107819660Y-67548136D01*
X107819660Y-67548133D01*
X107820325Y-67542012D01*
X107803087Y-67344987D01*
X107777003Y-67255205D01*
X107772000Y-67220052D01*
X107772000Y-67208285D01*
X108382000Y-67208285D01*
X108386475Y-67223524D01*
X108387865Y-67224729D01*
X108395548Y-67226400D01*
X109023885Y-67226400D01*
X109039124Y-67221925D01*
X109040329Y-67220535D01*
X109042000Y-67212852D01*
X109042000Y-67208285D01*
X109652000Y-67208285D01*
X109656475Y-67223524D01*
X109657865Y-67224729D01*
X109665548Y-67226400D01*
X110293885Y-67226400D01*
X110309124Y-67221925D01*
X110310329Y-67220535D01*
X110312000Y-67212852D01*
X110312000Y-67208285D01*
X110922000Y-67208285D01*
X110926475Y-67223524D01*
X110927865Y-67224729D01*
X110935548Y-67226400D01*
X111411884Y-67226400D01*
X111427123Y-67221925D01*
X111428328Y-67220535D01*
X111429999Y-67212852D01*
X111429999Y-66851731D01*
X111429629Y-66844910D01*
X111424105Y-66794048D01*
X111420479Y-66778796D01*
X111375324Y-66658346D01*
X111366786Y-66642751D01*
X111290285Y-66540676D01*
X111277724Y-66528115D01*
X111175649Y-66451614D01*
X111160054Y-66443076D01*
X111039606Y-66397922D01*
X111024351Y-66394295D01*
X110973486Y-66388769D01*
X110966672Y-66388400D01*
X110940115Y-66388400D01*
X110924876Y-66392875D01*
X110923671Y-66394265D01*
X110922000Y-66401948D01*
X110922000Y-67208285D01*
X110312000Y-67208285D01*
X110312000Y-66406516D01*
X110307525Y-66391277D01*
X110306135Y-66390072D01*
X110298452Y-66388401D01*
X110267331Y-66388401D01*
X110260510Y-66388771D01*
X110209648Y-66394295D01*
X110194396Y-66397921D01*
X110073946Y-66443076D01*
X110058353Y-66451613D01*
X110057562Y-66452206D01*
X110056643Y-66452549D01*
X110050483Y-66455922D01*
X110049996Y-66455032D01*
X109991054Y-66477051D01*
X109921672Y-66461996D01*
X109906438Y-66452206D01*
X109905647Y-66451613D01*
X109890054Y-66443076D01*
X109769606Y-66397922D01*
X109754351Y-66394295D01*
X109703486Y-66388769D01*
X109696672Y-66388400D01*
X109670115Y-66388400D01*
X109654876Y-66392875D01*
X109653671Y-66394265D01*
X109652000Y-66401948D01*
X109652000Y-67208285D01*
X109042000Y-67208285D01*
X109042000Y-66406516D01*
X109037525Y-66391277D01*
X109036135Y-66390072D01*
X109028452Y-66388401D01*
X108997331Y-66388401D01*
X108990510Y-66388771D01*
X108939648Y-66394295D01*
X108924396Y-66397921D01*
X108803946Y-66443076D01*
X108788353Y-66451613D01*
X108787562Y-66452206D01*
X108786643Y-66452549D01*
X108780483Y-66455922D01*
X108779996Y-66455032D01*
X108721054Y-66477051D01*
X108651672Y-66461996D01*
X108636438Y-66452206D01*
X108635647Y-66451613D01*
X108620054Y-66443076D01*
X108499606Y-66397922D01*
X108484351Y-66394295D01*
X108433486Y-66388769D01*
X108426672Y-66388400D01*
X108400115Y-66388400D01*
X108384876Y-66392875D01*
X108383671Y-66394265D01*
X108382000Y-66401948D01*
X108382000Y-67208285D01*
X107772000Y-67208285D01*
X107772000Y-66406516D01*
X107767525Y-66391277D01*
X107766135Y-66390072D01*
X107758452Y-66388401D01*
X107727331Y-66388401D01*
X107720510Y-66388771D01*
X107669648Y-66394295D01*
X107654393Y-66397922D01*
X107612229Y-66413728D01*
X107541422Y-66418911D01*
X107479053Y-66384990D01*
X107444924Y-66322734D01*
X107442000Y-66295746D01*
X107442000Y-63607956D01*
X107442388Y-63598070D01*
X107459689Y-63378233D01*
X107462782Y-63358705D01*
X107513100Y-63149116D01*
X107519210Y-63130312D01*
X107601699Y-62931165D01*
X107610666Y-62913567D01*
X107723296Y-62729773D01*
X107734911Y-62713786D01*
X107874902Y-62549878D01*
X107888880Y-62535900D01*
X108052786Y-62395911D01*
X108068773Y-62384296D01*
X108252567Y-62271666D01*
X108270165Y-62262699D01*
X108469317Y-62180208D01*
X108488112Y-62174101D01*
X108697706Y-62123782D01*
X108717232Y-62120689D01*
X108937070Y-62103388D01*
X108946956Y-62103000D01*
X111398044Y-62103000D01*
X111407930Y-62103388D01*
G37*
%TD.AperFunction*%
%TD*%
M02*
