%TF.GenerationSoftware,KiCad,Pcbnew,(6.0.10)*%
%TF.CreationDate,2023-12-09T12:58:45-08:00*%
%TF.ProjectId,windchargecontroller,77696e64-6368-4617-9267-65636f6e7472,rev?*%
%TF.SameCoordinates,Original*%
%TF.FileFunction,Copper,L2,Bot*%
%TF.FilePolarity,Positive*%
%FSLAX46Y46*%
G04 Gerber Fmt 4.6, Leading zero omitted, Abs format (unit mm)*
G04 Created by KiCad (PCBNEW (6.0.10)) date 2023-12-09 12:58:45*
%MOMM*%
%LPD*%
G01*
G04 APERTURE LIST*
G04 Aperture macros list*
%AMRotRect*
0 Rectangle, with rotation*
0 The origin of the aperture is its center*
0 $1 length*
0 $2 width*
0 $3 Rotation angle, in degrees counterclockwise*
0 Add horizontal line*
21,1,$1,$2,0,0,$3*%
G04 Aperture macros list end*
%TA.AperFunction,ComponentPad*%
%ADD10R,1.422400X1.422400*%
%TD*%
%TA.AperFunction,ComponentPad*%
%ADD11C,1.422400*%
%TD*%
%TA.AperFunction,ComponentPad*%
%ADD12R,1.050000X1.500000*%
%TD*%
%TA.AperFunction,ComponentPad*%
%ADD13O,1.050000X1.500000*%
%TD*%
%TA.AperFunction,ComponentPad*%
%ADD14C,1.803400*%
%TD*%
%TA.AperFunction,ComponentPad*%
%ADD15R,1.500000X1.050000*%
%TD*%
%TA.AperFunction,ComponentPad*%
%ADD16O,1.500000X1.050000*%
%TD*%
%TA.AperFunction,ComponentPad*%
%ADD17RotRect,1.422400X1.422400X45.000000*%
%TD*%
%TA.AperFunction,ComponentPad*%
%ADD18R,1.530000X1.530000*%
%TD*%
%TA.AperFunction,ComponentPad*%
%ADD19C,1.530000*%
%TD*%
%TA.AperFunction,ComponentPad*%
%ADD20R,1.803400X1.803400*%
%TD*%
%TA.AperFunction,ViaPad*%
%ADD21C,0.800000*%
%TD*%
%TA.AperFunction,ViaPad*%
%ADD22C,5.000000*%
%TD*%
%TA.AperFunction,ViaPad*%
%ADD23C,3.500000*%
%TD*%
%TA.AperFunction,Conductor*%
%ADD24C,1.000000*%
%TD*%
G04 APERTURE END LIST*
D10*
%TO.P,C15,1*%
%TO.N,GND*%
X153670000Y-48082200D03*
D11*
%TO.P,C15,2*%
%TO.N,Shunt3*%
X153670000Y-43002200D03*
%TD*%
D12*
%TO.P,Q10,1,E*%
%TO.N,/Q12_drive*%
X221132400Y-67153200D03*
D13*
%TO.P,Q10,2,B*%
%TO.N,PowerSW2*%
X219862400Y-67153200D03*
%TO.P,Q10,3,C*%
%TO.N,GND*%
X218592400Y-67153200D03*
%TD*%
D10*
%TO.P,C2,1*%
%TO.N,GND*%
X116713000Y-51562000D03*
D11*
%TO.P,C2,2*%
%TO.N,Shunt2*%
X121793000Y-51562000D03*
%TD*%
D14*
%TO.P,J4,1,1*%
%TO.N,GND*%
X219201999Y-50206899D03*
%TO.P,J4,2,2*%
X219201999Y-55206899D03*
%TO.P,J4,3,3*%
%TO.N,Power2Out*%
X219201999Y-60206899D03*
%TD*%
D15*
%TO.P,Q4,1,E*%
%TO.N,/Q6_drive*%
X182727600Y-79044800D03*
D16*
%TO.P,Q4,2,B*%
%TO.N,PWM_sig*%
X182727600Y-80314800D03*
%TO.P,Q4,3,C*%
%TO.N,Vdrive*%
X182727600Y-81584800D03*
%TD*%
D15*
%TO.P,Q7,1,E*%
%TO.N,/Q11_drive*%
X205901200Y-75298613D03*
D16*
%TO.P,Q7,2,B*%
%TO.N,PowerSW1*%
X205901200Y-76568613D03*
%TO.P,Q7,3,C*%
%TO.N,Vdrive*%
X205901200Y-77838613D03*
%TD*%
D14*
%TO.P,J5,1,1*%
%TO.N,Shunt1*%
X119719101Y-39115999D03*
%TO.P,J5,2,2*%
%TO.N,GND*%
X114719101Y-39115999D03*
%TO.P,J5,3,3*%
%TO.N,/DC+*%
X109719101Y-39115999D03*
%TD*%
D12*
%TO.P,Q9,1,E*%
%TO.N,/Q12_drive*%
X221132400Y-73355200D03*
D13*
%TO.P,Q9,2,B*%
%TO.N,PowerSW2*%
X219862400Y-73355200D03*
%TO.P,Q9,3,C*%
%TO.N,Vdrive*%
X218592400Y-73355200D03*
%TD*%
D15*
%TO.P,Q5,1,E*%
%TO.N,/Q6_drive*%
X174599600Y-79044800D03*
D16*
%TO.P,Q5,2,B*%
%TO.N,PWM_sig*%
X174599600Y-80314800D03*
%TO.P,Q5,3,C*%
%TO.N,GND*%
X174599600Y-81584800D03*
%TD*%
D15*
%TO.P,Q8,1,E*%
%TO.N,/Q11_drive*%
X199445200Y-75284000D03*
D16*
%TO.P,Q8,2,B*%
%TO.N,PowerSW1*%
X199445200Y-76554000D03*
%TO.P,Q8,3,C*%
%TO.N,GND*%
X199445200Y-77824000D03*
%TD*%
D14*
%TO.P,J6,1,1*%
%TO.N,/Loadswitch*%
X205317101Y-39623999D03*
%TO.P,J6,2,2*%
%TO.N,GND*%
X200317101Y-39623999D03*
%TO.P,J6,3,3*%
%TO.N,Shunt4*%
X195317101Y-39623999D03*
%TD*%
%TO.P,J1,1,1*%
%TO.N,PhaseA-*%
X80137001Y-96605101D03*
%TO.P,J1,2,2*%
%TO.N,PhaseB-*%
X80137001Y-91605101D03*
%TO.P,J1,3,3*%
%TO.N,PhaseC-*%
X80137001Y-86605101D03*
%TD*%
D10*
%TO.P,C14,1*%
%TO.N,GND*%
X173278800Y-61036200D03*
D11*
%TO.P,C14,2*%
%TO.N,Shunt3*%
X173278800Y-66116200D03*
%TD*%
D17*
%TO.P,C16,1*%
%TO.N,GND*%
X171094400Y-46583600D03*
D11*
%TO.P,C16,2*%
%TO.N,Shunt3*%
X174686502Y-42991498D03*
%TD*%
D14*
%TO.P,J3,1,1*%
%TO.N,GND*%
X219201999Y-82718899D03*
%TO.P,J3,2,2*%
X219201999Y-87718899D03*
%TO.P,J3,3,3*%
%TO.N,Power1Out*%
X219201999Y-92718899D03*
%TD*%
D18*
%TO.P,J2,01,01*%
%TO.N,GND*%
X114046000Y-93472000D03*
D19*
%TO.P,J2,02,02*%
X114046000Y-96012000D03*
%TO.P,J2,03,03*%
%TO.N,unconnected-(J2-Pad03)*%
X116586000Y-93472000D03*
%TO.P,J2,04,04*%
%TO.N,PhaseC-*%
X116586000Y-96012000D03*
%TO.P,J2,05,05*%
%TO.N,Brake_sig*%
X119126000Y-93472000D03*
%TO.P,J2,06,06*%
%TO.N,PhaseB-*%
X119126000Y-96012000D03*
%TO.P,J2,07,07*%
%TO.N,PhaseA+*%
X121666000Y-93472000D03*
%TO.P,J2,08,08*%
%TO.N,PhaseA-*%
X121666000Y-96012000D03*
%TO.P,J2,09,09*%
%TO.N,PhaseC+*%
X124206000Y-93472000D03*
%TO.P,J2,10,10*%
%TO.N,unconnected-(J2-Pad10)*%
X124206000Y-96012000D03*
%TO.P,J2,11,11*%
%TO.N,PhaseB+*%
X126746000Y-93472000D03*
%TO.P,J2,12,12*%
%TO.N,unconnected-(J2-Pad12)*%
X126746000Y-96012000D03*
%TO.P,J2,13,13*%
%TO.N,Shunt1*%
X129286000Y-93472000D03*
%TO.P,J2,14,14*%
%TO.N,unconnected-(J2-Pad14)*%
X129286000Y-96012000D03*
%TO.P,J2,15,15*%
%TO.N,Shunt2*%
X131826000Y-93472000D03*
%TO.P,J2,16,16*%
%TO.N,unconnected-(J2-Pad16)*%
X131826000Y-96012000D03*
%TO.P,J2,17,17*%
%TO.N,unconnected-(J2-Pad17)*%
X134366000Y-93472000D03*
%TO.P,J2,18,18*%
%TO.N,unconnected-(J2-Pad18)*%
X134366000Y-96012000D03*
%TO.P,J2,19,19*%
%TO.N,unconnected-(J2-Pad19)*%
X136906000Y-93472000D03*
%TO.P,J2,20,20*%
%TO.N,unconnected-(J2-Pad20)*%
X136906000Y-96012000D03*
%TO.P,J2,21,21*%
%TO.N,unconnected-(J2-Pad21)*%
X139446000Y-93472000D03*
%TO.P,J2,22,22*%
%TO.N,unconnected-(J2-Pad22)*%
X139446000Y-96012000D03*
%TO.P,J2,23,23*%
%TO.N,unconnected-(J2-Pad23)*%
X141986000Y-93472000D03*
%TO.P,J2,24,24*%
%TO.N,unconnected-(J2-Pad24)*%
X141986000Y-96012000D03*
%TO.P,J2,25,25*%
%TO.N,unconnected-(J2-Pad25)*%
X144526000Y-93472000D03*
%TO.P,J2,26,26*%
%TO.N,unconnected-(J2-Pad26)*%
X144526000Y-96012000D03*
%TO.P,J2,27,27*%
%TO.N,unconnected-(J2-Pad27)*%
X147066000Y-93472000D03*
%TO.P,J2,28,28*%
%TO.N,PowerSW2*%
X147066000Y-96012000D03*
%TO.P,J2,29,29*%
%TO.N,unconnected-(J2-Pad29)*%
X149606000Y-93472000D03*
%TO.P,J2,30,30*%
%TO.N,PowerSW1*%
X149606000Y-96012000D03*
%TO.P,J2,31,31*%
%TO.N,Vdrive*%
X152146000Y-93472000D03*
%TO.P,J2,32,32*%
%TO.N,Power2Out*%
X152146000Y-96012000D03*
%TO.P,J2,33,33*%
%TO.N,PWM_sig*%
X154686000Y-93472000D03*
%TO.P,J2,34,34*%
%TO.N,Shunt7*%
X154686000Y-96012000D03*
%TO.P,J2,35,35*%
%TO.N,Shunt3*%
X157226000Y-93472000D03*
%TO.P,J2,36,36*%
%TO.N,Power1Out*%
X157226000Y-96012000D03*
%TO.P,J2,37,37*%
%TO.N,Shunt4*%
X159766000Y-93472000D03*
%TO.P,J2,38,38*%
%TO.N,Shunt5*%
X159766000Y-96012000D03*
%TO.P,J2,39,39*%
%TO.N,GND*%
X162306000Y-93472000D03*
%TO.P,J2,40,40*%
X162306000Y-96012000D03*
%TD*%
D20*
%TO.P,FL1,1,1*%
%TO.N,Shunt2*%
X152104400Y-84496401D03*
D14*
%TO.P,FL1,2,2*%
%TO.N,GND*%
X159604400Y-84496401D03*
%TO.P,FL1,3,3*%
%TO.N,/D4_con*%
X159604400Y-73796400D03*
%TO.P,FL1,4,4*%
%TO.N,/FL1_con*%
X152104400Y-73796400D03*
%TD*%
D21*
%TO.N,PhaseA+*%
X108915200Y-91643200D03*
%TO.N,PhaseC+*%
X89357200Y-71882000D03*
%TO.N,PhaseB+*%
X105105200Y-74777600D03*
D22*
%TO.N,GND*%
X186283600Y-95808800D03*
D23*
X110236000Y-64008000D03*
X93218000Y-61366400D03*
D22*
X94488000Y-51104800D03*
D23*
X109474000Y-84582000D03*
D22*
X186436000Y-47650400D03*
D23*
X164693600Y-84480400D03*
D22*
X102870000Y-96012000D03*
D21*
%TO.N,/R5_con*%
X106172000Y-64643000D03*
X119400779Y-67667897D03*
%TO.N,/R6_con*%
X119380000Y-62971710D03*
X90271600Y-62280800D03*
%TD*%
D24*
%TO.N,PowerSW2*%
X219862400Y-77165200D02*
X219862400Y-73355200D01*
X202887425Y-82809800D02*
X206658612Y-79038613D01*
X206658612Y-79038613D02*
X217988987Y-79038613D01*
X217988987Y-79038613D02*
X219862400Y-77165200D01*
X182366200Y-82809800D02*
X202887425Y-82809800D01*
X147066000Y-96012000D02*
X150399600Y-99345600D01*
X150399600Y-99345600D02*
X165830400Y-99345600D01*
X165830400Y-99345600D02*
X182366200Y-82809800D01*
%TO.N,PhaseB-*%
X115926000Y-99212000D02*
X119126000Y-96012000D01*
X97383200Y-99212000D02*
X115926000Y-99212000D01*
X89776301Y-91605101D02*
X97383200Y-99212000D01*
X80137001Y-91605101D02*
X89776301Y-91605101D01*
%TO.N,PhaseA-*%
X84573100Y-101041200D02*
X80137001Y-96605101D01*
X116636800Y-101041200D02*
X84573100Y-101041200D01*
X121666000Y-96012000D02*
X116636800Y-101041200D01*
%TO.N,PhaseC-*%
X112416484Y-97477000D02*
X101544585Y-86605101D01*
X115121000Y-97477000D02*
X112416484Y-97477000D01*
X116586000Y-96012000D02*
X115121000Y-97477000D01*
X101544585Y-86605101D02*
X80137001Y-86605101D01*
%TO.N,PhaseB+*%
X108051600Y-74777600D02*
X126746000Y-93472000D01*
X105105200Y-74777600D02*
X108051600Y-74777600D01*
%TO.N,PhaseC+*%
X107797600Y-90322400D02*
X121056400Y-90322400D01*
X121056400Y-90322400D02*
X124206000Y-93472000D01*
X89357200Y-71882000D02*
X107797600Y-90322400D01*
%TO.N,PhaseA+*%
X119837200Y-91643200D02*
X121666000Y-93472000D01*
X108915200Y-91643200D02*
X119837200Y-91643200D01*
%TO.N,PowerSW1*%
X177698400Y-78435200D02*
X179579600Y-76554000D01*
X177698400Y-85699600D02*
X177698400Y-78435200D01*
X165252400Y-98145600D02*
X177698400Y-85699600D01*
X179579600Y-76554000D02*
X199445200Y-76554000D01*
X151739600Y-98145600D02*
X165252400Y-98145600D01*
X149606000Y-96012000D02*
X151739600Y-98145600D01*
%TO.N,GND*%
X162306000Y-96012000D02*
X162306000Y-89560400D01*
%TO.N,Vdrive*%
X205901200Y-77838613D02*
X214108987Y-77838613D01*
X182727600Y-81584800D02*
X202155013Y-81584800D01*
X214108987Y-77838613D02*
X218592400Y-73355200D01*
X202155013Y-81584800D02*
X205901200Y-77838613D01*
%TO.N,/R5_con*%
X119400779Y-67667897D02*
X107291897Y-67667897D01*
X106172000Y-66548000D02*
X106172000Y-64643000D01*
X107291897Y-67667897D02*
X106172000Y-66548000D01*
%TO.N,/R6_con*%
X90170000Y-62179200D02*
X90271600Y-62280800D01*
X119380000Y-62971710D02*
X114828290Y-58420000D01*
X114828290Y-58420000D02*
X90170000Y-58420000D01*
X90170000Y-58420000D02*
X90170000Y-62179200D01*
%TD*%
%TA.AperFunction,Conductor*%
%TO.N,GND*%
G36*
X108728313Y-37256402D02*
G01*
X108774806Y-37310058D01*
X108784910Y-37380332D01*
X108755416Y-37444912D01*
X108721763Y-37471461D01*
X108722035Y-37471906D01*
X108718291Y-37474200D01*
X108718271Y-37474216D01*
X108714284Y-37476287D01*
X108710669Y-37478870D01*
X108710663Y-37478874D01*
X108496892Y-37631637D01*
X108496888Y-37631640D01*
X108493271Y-37634225D01*
X108490051Y-37637297D01*
X108336752Y-37783537D01*
X108296716Y-37821729D01*
X108293960Y-37825225D01*
X108293959Y-37825226D01*
X108258160Y-37870637D01*
X108128542Y-38035056D01*
X108099213Y-38085550D01*
X107994338Y-38266105D01*
X107994335Y-38266111D01*
X107992104Y-38269952D01*
X107990434Y-38274075D01*
X107975697Y-38310460D01*
X107890124Y-38521728D01*
X107854495Y-38665160D01*
X107826478Y-38777952D01*
X107824637Y-38785362D01*
X107796950Y-39055593D01*
X107807615Y-39327029D01*
X107856419Y-39594255D01*
X107942388Y-39851938D01*
X107980328Y-39927868D01*
X108025501Y-40018272D01*
X108063808Y-40094937D01*
X108218255Y-40318403D01*
X108260336Y-40363926D01*
X108336149Y-40445940D01*
X108402648Y-40517879D01*
X108406102Y-40520691D01*
X108609851Y-40686569D01*
X108609855Y-40686572D01*
X108613308Y-40689383D01*
X108846032Y-40829494D01*
X109096175Y-40935416D01*
X109100468Y-40936554D01*
X109100473Y-40936556D01*
X109354448Y-41003896D01*
X109358748Y-41005036D01*
X109363165Y-41005559D01*
X109363166Y-41005559D01*
X109493629Y-41021000D01*
X109628511Y-41036964D01*
X109900081Y-41030564D01*
X109904475Y-41029833D01*
X109904482Y-41029832D01*
X110163638Y-40986697D01*
X110163642Y-40986696D01*
X110168040Y-40985964D01*
X110427041Y-40904052D01*
X110431052Y-40902126D01*
X110431057Y-40902124D01*
X110667899Y-40788394D01*
X110667900Y-40788393D01*
X110671918Y-40786464D01*
X110675624Y-40783988D01*
X110894075Y-40638024D01*
X110894079Y-40638021D01*
X110897783Y-40635546D01*
X110901100Y-40632575D01*
X110901104Y-40632572D01*
X111096812Y-40457281D01*
X111096813Y-40457280D01*
X111100130Y-40454309D01*
X111110394Y-40442099D01*
X114247149Y-40442099D01*
X114250024Y-40445940D01*
X114319628Y-40472519D01*
X114329526Y-40475395D01*
X114546553Y-40519549D01*
X114556782Y-40520768D01*
X114778104Y-40528885D01*
X114788390Y-40528418D01*
X115008068Y-40500276D01*
X115018154Y-40498133D01*
X115181225Y-40449209D01*
X115193043Y-40441515D01*
X115192653Y-40438906D01*
X115190734Y-40436160D01*
X114731913Y-39977339D01*
X114717969Y-39969725D01*
X114716136Y-39969856D01*
X114709521Y-39974107D01*
X114253909Y-40429719D01*
X114247149Y-40442099D01*
X111110394Y-40442099D01*
X111110885Y-40441515D01*
X111272057Y-40249777D01*
X111274922Y-40246369D01*
X111418671Y-40015875D01*
X111437137Y-39974107D01*
X111502651Y-39825916D01*
X111528509Y-39767426D01*
X111602244Y-39505979D01*
X111621304Y-39364079D01*
X111637979Y-39239933D01*
X111637980Y-39239925D01*
X111638406Y-39236751D01*
X111641164Y-39149003D01*
X111642100Y-39119221D01*
X111642100Y-39119216D01*
X111642201Y-39115999D01*
X111640119Y-39086595D01*
X113305289Y-39086595D01*
X113318038Y-39307695D01*
X113319474Y-39317916D01*
X113368161Y-39533954D01*
X113371245Y-39543795D01*
X113385087Y-39577883D01*
X113393859Y-39588926D01*
X113398894Y-39587678D01*
X113857761Y-39128811D01*
X113864139Y-39117131D01*
X115572827Y-39117131D01*
X115572958Y-39118964D01*
X115577209Y-39125579D01*
X116034083Y-39582453D01*
X116046463Y-39589213D01*
X116048667Y-39587563D01*
X116050087Y-39584759D01*
X116100184Y-39419868D01*
X116102361Y-39409798D01*
X116131506Y-39188421D01*
X116132025Y-39181746D01*
X116133550Y-39119363D01*
X116133356Y-39112645D01*
X116115062Y-38890120D01*
X116113379Y-38879958D01*
X116059426Y-38665160D01*
X116056104Y-38655401D01*
X116054880Y-38652586D01*
X116045841Y-38641761D01*
X116040368Y-38643260D01*
X115580441Y-39103187D01*
X115572827Y-39117131D01*
X113864139Y-39117131D01*
X113865375Y-39114867D01*
X113865244Y-39113034D01*
X113860993Y-39106419D01*
X113402337Y-38647763D01*
X113389957Y-38641003D01*
X113388404Y-38642165D01*
X113386383Y-38646281D01*
X113331007Y-38845959D01*
X113329076Y-38856079D01*
X113305541Y-39076306D01*
X113305289Y-39086595D01*
X111640119Y-39086595D01*
X111623015Y-38845032D01*
X111619499Y-38828698D01*
X111566778Y-38583818D01*
X111566778Y-38583816D01*
X111565842Y-38579471D01*
X111471821Y-38324616D01*
X111342828Y-38085550D01*
X111181438Y-37867045D01*
X111175607Y-37861121D01*
X111107087Y-37791517D01*
X114246388Y-37791517D01*
X114246982Y-37794915D01*
X114248089Y-37796459D01*
X114706289Y-38254659D01*
X114720233Y-38262273D01*
X114722066Y-38262142D01*
X114728681Y-38257891D01*
X115184112Y-37802460D01*
X115190872Y-37790080D01*
X115188320Y-37786671D01*
X115187934Y-37786464D01*
X115085312Y-37750123D01*
X115075341Y-37747489D01*
X114857309Y-37708652D01*
X114847056Y-37707683D01*
X114625597Y-37704977D01*
X114615314Y-37705697D01*
X114396398Y-37739195D01*
X114386371Y-37741584D01*
X114258014Y-37783537D01*
X114246388Y-37791517D01*
X111107087Y-37791517D01*
X111057932Y-37741584D01*
X110990870Y-37673460D01*
X110774927Y-37508658D01*
X110721744Y-37478874D01*
X110710066Y-37472334D01*
X110660404Y-37421597D01*
X110646057Y-37352066D01*
X110671578Y-37285815D01*
X110728867Y-37243879D01*
X110771632Y-37236400D01*
X118660192Y-37236400D01*
X118728313Y-37256402D01*
X118774806Y-37310058D01*
X118784910Y-37380332D01*
X118755416Y-37444912D01*
X118721763Y-37471461D01*
X118722035Y-37471906D01*
X118718291Y-37474200D01*
X118718271Y-37474216D01*
X118714284Y-37476287D01*
X118710669Y-37478870D01*
X118710663Y-37478874D01*
X118496892Y-37631637D01*
X118496888Y-37631640D01*
X118493271Y-37634225D01*
X118490051Y-37637297D01*
X118336752Y-37783537D01*
X118296716Y-37821729D01*
X118293960Y-37825225D01*
X118293959Y-37825226D01*
X118258160Y-37870637D01*
X118128542Y-38035056D01*
X118099213Y-38085550D01*
X117994338Y-38266105D01*
X117994335Y-38266111D01*
X117992104Y-38269952D01*
X117990434Y-38274075D01*
X117975697Y-38310460D01*
X117890124Y-38521728D01*
X117854495Y-38665160D01*
X117826478Y-38777952D01*
X117824637Y-38785362D01*
X117796950Y-39055593D01*
X117807615Y-39327029D01*
X117856419Y-39594255D01*
X117942388Y-39851938D01*
X117980328Y-39927868D01*
X118025501Y-40018272D01*
X118063808Y-40094937D01*
X118218255Y-40318403D01*
X118260336Y-40363926D01*
X118336149Y-40445940D01*
X118402648Y-40517879D01*
X118406102Y-40520691D01*
X118609851Y-40686569D01*
X118609855Y-40686572D01*
X118613308Y-40689383D01*
X118846032Y-40829494D01*
X119096175Y-40935416D01*
X119100468Y-40936554D01*
X119100473Y-40936556D01*
X119354448Y-41003896D01*
X119358748Y-41005036D01*
X119363165Y-41005559D01*
X119363166Y-41005559D01*
X119493629Y-41021000D01*
X119628511Y-41036964D01*
X119900081Y-41030564D01*
X119904475Y-41029833D01*
X119904482Y-41029832D01*
X120163638Y-40986697D01*
X120163642Y-40986696D01*
X120168040Y-40985964D01*
X120427041Y-40904052D01*
X120431052Y-40902126D01*
X120431057Y-40902124D01*
X120667899Y-40788394D01*
X120667900Y-40788393D01*
X120671918Y-40786464D01*
X120675624Y-40783988D01*
X120894075Y-40638024D01*
X120894079Y-40638021D01*
X120897783Y-40635546D01*
X120901100Y-40632575D01*
X120901104Y-40632572D01*
X121096812Y-40457281D01*
X121096813Y-40457280D01*
X121100130Y-40454309D01*
X121110885Y-40441515D01*
X121272057Y-40249777D01*
X121274922Y-40246369D01*
X121418671Y-40015875D01*
X121437137Y-39974107D01*
X121502651Y-39825916D01*
X121528509Y-39767426D01*
X121585995Y-39563593D01*
X193394950Y-39563593D01*
X193405615Y-39835029D01*
X193420731Y-39917798D01*
X193439333Y-40019649D01*
X193454419Y-40102255D01*
X193540388Y-40359938D01*
X193661808Y-40602937D01*
X193816255Y-40826403D01*
X193888033Y-40904052D01*
X193934149Y-40953940D01*
X194000648Y-41025879D01*
X194004102Y-41028691D01*
X194207851Y-41194569D01*
X194207855Y-41194572D01*
X194211308Y-41197383D01*
X194444032Y-41337494D01*
X194448127Y-41339228D01*
X194448129Y-41339229D01*
X194586629Y-41397876D01*
X194694175Y-41443416D01*
X194698468Y-41444554D01*
X194698473Y-41444556D01*
X194942993Y-41509389D01*
X194956748Y-41513036D01*
X194961165Y-41513559D01*
X194961166Y-41513559D01*
X195091630Y-41529000D01*
X195226511Y-41544964D01*
X195498081Y-41538564D01*
X195502475Y-41537833D01*
X195502482Y-41537832D01*
X195761638Y-41494697D01*
X195761642Y-41494696D01*
X195766040Y-41493964D01*
X196025041Y-41412052D01*
X196029052Y-41410126D01*
X196029057Y-41410124D01*
X196265899Y-41296394D01*
X196265900Y-41296393D01*
X196269918Y-41294464D01*
X196273624Y-41291988D01*
X196492075Y-41146024D01*
X196492079Y-41146021D01*
X196495783Y-41143546D01*
X196499100Y-41140575D01*
X196499104Y-41140572D01*
X196694812Y-40965281D01*
X196694813Y-40965280D01*
X196698130Y-40962309D01*
X196708394Y-40950099D01*
X199845149Y-40950099D01*
X199848024Y-40953940D01*
X199917628Y-40980519D01*
X199927526Y-40983395D01*
X200144553Y-41027549D01*
X200154782Y-41028768D01*
X200376104Y-41036885D01*
X200386390Y-41036418D01*
X200606068Y-41008276D01*
X200616154Y-41006133D01*
X200779225Y-40957209D01*
X200791043Y-40949515D01*
X200790653Y-40946906D01*
X200788734Y-40944160D01*
X200329913Y-40485339D01*
X200315969Y-40477725D01*
X200314136Y-40477856D01*
X200307521Y-40482107D01*
X199851909Y-40937719D01*
X199845149Y-40950099D01*
X196708394Y-40950099D01*
X196708885Y-40949515D01*
X196845943Y-40786464D01*
X196872922Y-40754369D01*
X197016671Y-40523875D01*
X197028052Y-40498133D01*
X197124709Y-40279497D01*
X197126509Y-40275426D01*
X197200244Y-40013979D01*
X197205600Y-39974107D01*
X197235979Y-39747933D01*
X197235980Y-39747925D01*
X197236406Y-39744751D01*
X197238135Y-39689746D01*
X197240100Y-39627221D01*
X197240100Y-39627216D01*
X197240201Y-39623999D01*
X197238119Y-39594595D01*
X198903289Y-39594595D01*
X198916038Y-39815695D01*
X198917474Y-39825916D01*
X198966161Y-40041954D01*
X198969245Y-40051795D01*
X198983087Y-40085883D01*
X198991859Y-40096926D01*
X198996894Y-40095678D01*
X199455761Y-39636811D01*
X199462139Y-39625131D01*
X201170827Y-39625131D01*
X201170958Y-39626964D01*
X201175209Y-39633579D01*
X201632083Y-40090453D01*
X201644463Y-40097213D01*
X201646667Y-40095563D01*
X201648087Y-40092759D01*
X201698184Y-39927868D01*
X201700361Y-39917798D01*
X201729506Y-39696421D01*
X201730025Y-39689746D01*
X201731550Y-39627363D01*
X201731356Y-39620645D01*
X201726666Y-39563593D01*
X203394950Y-39563593D01*
X203405615Y-39835029D01*
X203420731Y-39917798D01*
X203439333Y-40019649D01*
X203454419Y-40102255D01*
X203540388Y-40359938D01*
X203661808Y-40602937D01*
X203816255Y-40826403D01*
X203888033Y-40904052D01*
X203934149Y-40953940D01*
X204000648Y-41025879D01*
X204004102Y-41028691D01*
X204207851Y-41194569D01*
X204207855Y-41194572D01*
X204211308Y-41197383D01*
X204444032Y-41337494D01*
X204448127Y-41339228D01*
X204448129Y-41339229D01*
X204586629Y-41397876D01*
X204694175Y-41443416D01*
X204698468Y-41444554D01*
X204698473Y-41444556D01*
X204942993Y-41509389D01*
X204956748Y-41513036D01*
X204961165Y-41513559D01*
X204961166Y-41513559D01*
X205091630Y-41529000D01*
X205226511Y-41544964D01*
X205498081Y-41538564D01*
X205502475Y-41537833D01*
X205502482Y-41537832D01*
X205761638Y-41494697D01*
X205761642Y-41494696D01*
X205766040Y-41493964D01*
X206025041Y-41412052D01*
X206029052Y-41410126D01*
X206029057Y-41410124D01*
X206265899Y-41296394D01*
X206265900Y-41296393D01*
X206269918Y-41294464D01*
X206273624Y-41291988D01*
X206492075Y-41146024D01*
X206492079Y-41146021D01*
X206495783Y-41143546D01*
X206499100Y-41140575D01*
X206499104Y-41140572D01*
X206694812Y-40965281D01*
X206694813Y-40965280D01*
X206698130Y-40962309D01*
X206708885Y-40949515D01*
X206845943Y-40786464D01*
X206872922Y-40754369D01*
X207016671Y-40523875D01*
X207028052Y-40498133D01*
X207124709Y-40279497D01*
X207126509Y-40275426D01*
X207200244Y-40013979D01*
X207205600Y-39974107D01*
X207235979Y-39747933D01*
X207235980Y-39747925D01*
X207236406Y-39744751D01*
X207238135Y-39689746D01*
X207240100Y-39627221D01*
X207240100Y-39627216D01*
X207240201Y-39623999D01*
X207221015Y-39353032D01*
X207211255Y-39307695D01*
X207164778Y-39091818D01*
X207164778Y-39091816D01*
X207163842Y-39087471D01*
X207076044Y-38849484D01*
X207071362Y-38836793D01*
X207069821Y-38832616D01*
X207042551Y-38782075D01*
X206942941Y-38597466D01*
X206940828Y-38593550D01*
X206779438Y-38375045D01*
X206703673Y-38298080D01*
X206672196Y-38266105D01*
X206588870Y-38181460D01*
X206372927Y-38016658D01*
X206319744Y-37986874D01*
X206139808Y-37886105D01*
X206139807Y-37886105D01*
X206135917Y-37883926D01*
X206101567Y-37870637D01*
X205886725Y-37787520D01*
X205886719Y-37787518D01*
X205882570Y-37785913D01*
X205878238Y-37784909D01*
X205878235Y-37784908D01*
X205716795Y-37747489D01*
X205617940Y-37724576D01*
X205347308Y-37701136D01*
X205342873Y-37701380D01*
X205342869Y-37701380D01*
X205232403Y-37707460D01*
X205076073Y-37716063D01*
X204809647Y-37769059D01*
X204668412Y-37818657D01*
X204557554Y-37857587D01*
X204557551Y-37857588D01*
X204553346Y-37859065D01*
X204549393Y-37861118D01*
X204549387Y-37861121D01*
X204413221Y-37931854D01*
X204312284Y-37984287D01*
X204308669Y-37986870D01*
X204308663Y-37986874D01*
X204094892Y-38139637D01*
X204094888Y-38139640D01*
X204091271Y-38142225D01*
X204088051Y-38145297D01*
X203934752Y-38291537D01*
X203894716Y-38329729D01*
X203891960Y-38333225D01*
X203891959Y-38333226D01*
X203856160Y-38378637D01*
X203726542Y-38543056D01*
X203697213Y-38593550D01*
X203592338Y-38774105D01*
X203592335Y-38774111D01*
X203590104Y-38777952D01*
X203488124Y-39029728D01*
X203422637Y-39293362D01*
X203394950Y-39563593D01*
X201726666Y-39563593D01*
X201713062Y-39398120D01*
X201711379Y-39387958D01*
X201657426Y-39173160D01*
X201654104Y-39163401D01*
X201652880Y-39160586D01*
X201643841Y-39149761D01*
X201638368Y-39151260D01*
X201178441Y-39611187D01*
X201170827Y-39625131D01*
X199462139Y-39625131D01*
X199463375Y-39622867D01*
X199463244Y-39621034D01*
X199458993Y-39614419D01*
X199000337Y-39155763D01*
X198987957Y-39149003D01*
X198986404Y-39150165D01*
X198984383Y-39154281D01*
X198929007Y-39353959D01*
X198927076Y-39364079D01*
X198903541Y-39584306D01*
X198903289Y-39594595D01*
X197238119Y-39594595D01*
X197221015Y-39353032D01*
X197211255Y-39307695D01*
X197164778Y-39091818D01*
X197164778Y-39091816D01*
X197163842Y-39087471D01*
X197076044Y-38849484D01*
X197071362Y-38836793D01*
X197069821Y-38832616D01*
X197042551Y-38782075D01*
X196942941Y-38597466D01*
X196940828Y-38593550D01*
X196779438Y-38375045D01*
X196705088Y-38299517D01*
X199844388Y-38299517D01*
X199844982Y-38302915D01*
X199846089Y-38304459D01*
X200304289Y-38762659D01*
X200318233Y-38770273D01*
X200320066Y-38770142D01*
X200326681Y-38765891D01*
X200782112Y-38310460D01*
X200788872Y-38298080D01*
X200786320Y-38294671D01*
X200785934Y-38294464D01*
X200683312Y-38258123D01*
X200673341Y-38255489D01*
X200455309Y-38216652D01*
X200445056Y-38215683D01*
X200223597Y-38212977D01*
X200213314Y-38213697D01*
X199994398Y-38247195D01*
X199984371Y-38249584D01*
X199856014Y-38291537D01*
X199844388Y-38299517D01*
X196705088Y-38299517D01*
X196703673Y-38298080D01*
X196672196Y-38266105D01*
X196588870Y-38181460D01*
X196372927Y-38016658D01*
X196319744Y-37986874D01*
X196139808Y-37886105D01*
X196139807Y-37886105D01*
X196135917Y-37883926D01*
X196101567Y-37870637D01*
X195886725Y-37787520D01*
X195886719Y-37787518D01*
X195882570Y-37785913D01*
X195878238Y-37784909D01*
X195878235Y-37784908D01*
X195716795Y-37747489D01*
X195617940Y-37724576D01*
X195347308Y-37701136D01*
X195342873Y-37701380D01*
X195342869Y-37701380D01*
X195232403Y-37707460D01*
X195076073Y-37716063D01*
X194809647Y-37769059D01*
X194668412Y-37818657D01*
X194557554Y-37857587D01*
X194557551Y-37857588D01*
X194553346Y-37859065D01*
X194549393Y-37861118D01*
X194549387Y-37861121D01*
X194413221Y-37931854D01*
X194312284Y-37984287D01*
X194308669Y-37986870D01*
X194308663Y-37986874D01*
X194094892Y-38139637D01*
X194094888Y-38139640D01*
X194091271Y-38142225D01*
X194088051Y-38145297D01*
X193934752Y-38291537D01*
X193894716Y-38329729D01*
X193891960Y-38333225D01*
X193891959Y-38333226D01*
X193856160Y-38378637D01*
X193726542Y-38543056D01*
X193697213Y-38593550D01*
X193592338Y-38774105D01*
X193592335Y-38774111D01*
X193590104Y-38777952D01*
X193488124Y-39029728D01*
X193422637Y-39293362D01*
X193394950Y-39563593D01*
X121585995Y-39563593D01*
X121602244Y-39505979D01*
X121621304Y-39364079D01*
X121637979Y-39239933D01*
X121637980Y-39239925D01*
X121638406Y-39236751D01*
X121641164Y-39149003D01*
X121642100Y-39119221D01*
X121642100Y-39119216D01*
X121642201Y-39115999D01*
X121623015Y-38845032D01*
X121619499Y-38828698D01*
X121566778Y-38583818D01*
X121566778Y-38583816D01*
X121565842Y-38579471D01*
X121471821Y-38324616D01*
X121342828Y-38085550D01*
X121181438Y-37867045D01*
X121175607Y-37861121D01*
X121057932Y-37741584D01*
X120990870Y-37673460D01*
X120774927Y-37508658D01*
X120721744Y-37478874D01*
X120710066Y-37472334D01*
X120660404Y-37421597D01*
X120646057Y-37352066D01*
X120671578Y-37285815D01*
X120728867Y-37243879D01*
X120771632Y-37236400D01*
X211231003Y-37236400D01*
X211299124Y-37256402D01*
X211312448Y-37266261D01*
X222865845Y-47053855D01*
X222904893Y-47113149D01*
X222910400Y-47149994D01*
X222910400Y-52374800D01*
X123321851Y-52374800D01*
X123347497Y-52317869D01*
X123421060Y-52154565D01*
X123456358Y-52029408D01*
X123489494Y-51911918D01*
X123489495Y-51911915D01*
X123490764Y-51907414D01*
X123523171Y-51652674D01*
X123525545Y-51562000D01*
X123523390Y-51532999D01*
X218730047Y-51532999D01*
X218732922Y-51536840D01*
X218802526Y-51563419D01*
X218812424Y-51566295D01*
X219029451Y-51610449D01*
X219039680Y-51611668D01*
X219261002Y-51619785D01*
X219271288Y-51619318D01*
X219490966Y-51591176D01*
X219501052Y-51589033D01*
X219664123Y-51540109D01*
X219675941Y-51532415D01*
X219675551Y-51529806D01*
X219673632Y-51527060D01*
X219214811Y-51068239D01*
X219200867Y-51060625D01*
X219199034Y-51060756D01*
X219192419Y-51065007D01*
X218736807Y-51520619D01*
X218730047Y-51532999D01*
X123523390Y-51532999D01*
X123506514Y-51305914D01*
X123449841Y-51055453D01*
X123431367Y-51007946D01*
X123358463Y-50820473D01*
X123358462Y-50820471D01*
X123356770Y-50816120D01*
X123229345Y-50593173D01*
X123096977Y-50425266D01*
X123073258Y-50395178D01*
X123073255Y-50395175D01*
X123070366Y-50391510D01*
X122944010Y-50272646D01*
X122886727Y-50218759D01*
X122886724Y-50218757D01*
X122883326Y-50215560D01*
X122828455Y-50177495D01*
X217788187Y-50177495D01*
X217800936Y-50398595D01*
X217802372Y-50408816D01*
X217851059Y-50624854D01*
X217854143Y-50634695D01*
X217867985Y-50668783D01*
X217876757Y-50679826D01*
X217881792Y-50678578D01*
X218340659Y-50219711D01*
X218347037Y-50208031D01*
X220055725Y-50208031D01*
X220055856Y-50209864D01*
X220060107Y-50216479D01*
X220516981Y-50673353D01*
X220529361Y-50680113D01*
X220531565Y-50678463D01*
X220532985Y-50675659D01*
X220583082Y-50510768D01*
X220585259Y-50500698D01*
X220614404Y-50279321D01*
X220614923Y-50272646D01*
X220616448Y-50210263D01*
X220616254Y-50203545D01*
X220597960Y-49981020D01*
X220596277Y-49970858D01*
X220542324Y-49756060D01*
X220539002Y-49746301D01*
X220537778Y-49743486D01*
X220528739Y-49732661D01*
X220523266Y-49734160D01*
X220063339Y-50194087D01*
X220055725Y-50208031D01*
X218347037Y-50208031D01*
X218348273Y-50205767D01*
X218348142Y-50203934D01*
X218343891Y-50197319D01*
X217885235Y-49738663D01*
X217872855Y-49731903D01*
X217871302Y-49733065D01*
X217869281Y-49737181D01*
X217813905Y-49936859D01*
X217811974Y-49946979D01*
X217788439Y-50167206D01*
X217788187Y-50177495D01*
X122828455Y-50177495D01*
X122728619Y-50108236D01*
X122676165Y-50071847D01*
X122676162Y-50071845D01*
X122672333Y-50069189D01*
X122626694Y-50046682D01*
X122446209Y-49957676D01*
X122446205Y-49957675D01*
X122442023Y-49955612D01*
X122197455Y-49877325D01*
X122058307Y-49854664D01*
X121948613Y-49836799D01*
X121948612Y-49836799D01*
X121944001Y-49836048D01*
X121815616Y-49834368D01*
X121691908Y-49832748D01*
X121691905Y-49832748D01*
X121687231Y-49832687D01*
X121432784Y-49867315D01*
X121186250Y-49939173D01*
X121181997Y-49941133D01*
X121181996Y-49941134D01*
X121160272Y-49951149D01*
X120953046Y-50046682D01*
X120949137Y-50049245D01*
X120742206Y-50184914D01*
X120742201Y-50184918D01*
X120738293Y-50187480D01*
X120713214Y-50209864D01*
X120553603Y-50352322D01*
X120546711Y-50358473D01*
X120382508Y-50555906D01*
X120334698Y-50634695D01*
X120265671Y-50748448D01*
X120249291Y-50775441D01*
X120149987Y-51012255D01*
X120086776Y-51261147D01*
X120061049Y-51516647D01*
X120061273Y-51521314D01*
X120061273Y-51521319D01*
X120064526Y-51589033D01*
X120073369Y-51773144D01*
X120123467Y-52025003D01*
X120125046Y-52029401D01*
X120125048Y-52029408D01*
X120208658Y-52262281D01*
X120210241Y-52266690D01*
X120264308Y-52367312D01*
X120268331Y-52374800D01*
X117926387Y-52374800D01*
X117931831Y-52324686D01*
X117932200Y-52317872D01*
X117932200Y-52180115D01*
X117927725Y-52164876D01*
X117926335Y-52163671D01*
X117918652Y-52162000D01*
X115511916Y-52162000D01*
X115496677Y-52166475D01*
X115495472Y-52167865D01*
X115493801Y-52175548D01*
X115493801Y-52317869D01*
X115494171Y-52324690D01*
X115499613Y-52374800D01*
X91287600Y-52374800D01*
X91294987Y-52367312D01*
X91294988Y-52367312D01*
X92699308Y-50943885D01*
X115493800Y-50943885D01*
X115498275Y-50959124D01*
X115499665Y-50960329D01*
X115507348Y-50962000D01*
X116094885Y-50962000D01*
X116110124Y-50957525D01*
X116111329Y-50956135D01*
X116113000Y-50948452D01*
X116113000Y-50943885D01*
X117313000Y-50943885D01*
X117317475Y-50959124D01*
X117318865Y-50960329D01*
X117326548Y-50962000D01*
X117914084Y-50962000D01*
X117929323Y-50957525D01*
X117930528Y-50956135D01*
X117932199Y-50948452D01*
X117932199Y-50806131D01*
X117931829Y-50799310D01*
X117926305Y-50748448D01*
X117922679Y-50733196D01*
X117877524Y-50612746D01*
X117868986Y-50597151D01*
X117792485Y-50495076D01*
X117779924Y-50482515D01*
X117677849Y-50406014D01*
X117662254Y-50397476D01*
X117541806Y-50352322D01*
X117526551Y-50348695D01*
X117475686Y-50343169D01*
X117468872Y-50342800D01*
X117331115Y-50342800D01*
X117315876Y-50347275D01*
X117314671Y-50348665D01*
X117313000Y-50356348D01*
X117313000Y-50943885D01*
X116113000Y-50943885D01*
X116113000Y-50360916D01*
X116108525Y-50345677D01*
X116107135Y-50344472D01*
X116099452Y-50342801D01*
X115957131Y-50342801D01*
X115950310Y-50343171D01*
X115899448Y-50348695D01*
X115884196Y-50352321D01*
X115763746Y-50397476D01*
X115748151Y-50406014D01*
X115646076Y-50482515D01*
X115633515Y-50495076D01*
X115557014Y-50597151D01*
X115548476Y-50612746D01*
X115503322Y-50733194D01*
X115499695Y-50748449D01*
X115494169Y-50799314D01*
X115493800Y-50806128D01*
X115493800Y-50943885D01*
X92699308Y-50943885D01*
X94776858Y-48838069D01*
X152450801Y-48838069D01*
X152451171Y-48844890D01*
X152456695Y-48895752D01*
X152460321Y-48911004D01*
X152505476Y-49031454D01*
X152514014Y-49047049D01*
X152590515Y-49149124D01*
X152603076Y-49161685D01*
X152705151Y-49238186D01*
X152720746Y-49246724D01*
X152841194Y-49291878D01*
X152856449Y-49295505D01*
X152907314Y-49301031D01*
X152914128Y-49301400D01*
X153051885Y-49301400D01*
X153067124Y-49296925D01*
X153068329Y-49295535D01*
X153070000Y-49287852D01*
X153070000Y-49283284D01*
X154270000Y-49283284D01*
X154274475Y-49298523D01*
X154275865Y-49299728D01*
X154283548Y-49301399D01*
X154425869Y-49301399D01*
X154432690Y-49301029D01*
X154483552Y-49295505D01*
X154498804Y-49291879D01*
X154619254Y-49246724D01*
X154634849Y-49238186D01*
X154736924Y-49161685D01*
X154749485Y-49149124D01*
X154825986Y-49047049D01*
X154834524Y-49031454D01*
X154879678Y-48911006D01*
X154883305Y-48895751D01*
X154884754Y-48882417D01*
X218729286Y-48882417D01*
X218729880Y-48885815D01*
X218730987Y-48887359D01*
X219189187Y-49345559D01*
X219203131Y-49353173D01*
X219204964Y-49353042D01*
X219211579Y-49348791D01*
X219667010Y-48893360D01*
X219673770Y-48880980D01*
X219671218Y-48877571D01*
X219670832Y-48877364D01*
X219568210Y-48841023D01*
X219558239Y-48838389D01*
X219340207Y-48799552D01*
X219329954Y-48798583D01*
X219108495Y-48795877D01*
X219098212Y-48796597D01*
X218879296Y-48830095D01*
X218869269Y-48832484D01*
X218740912Y-48874437D01*
X218729286Y-48882417D01*
X154884754Y-48882417D01*
X154888831Y-48844886D01*
X154889200Y-48838072D01*
X154889200Y-48700315D01*
X154884725Y-48685076D01*
X154883335Y-48683871D01*
X154875652Y-48682200D01*
X154288115Y-48682200D01*
X154272876Y-48686675D01*
X154271671Y-48688065D01*
X154270000Y-48695748D01*
X154270000Y-49283284D01*
X153070000Y-49283284D01*
X153070000Y-48700315D01*
X153065525Y-48685076D01*
X153064135Y-48683871D01*
X153056452Y-48682200D01*
X152468916Y-48682200D01*
X152453677Y-48686675D01*
X152452472Y-48688065D01*
X152450801Y-48695748D01*
X152450801Y-48838069D01*
X94776858Y-48838069D01*
X95730847Y-47871100D01*
X170661758Y-47871100D01*
X170661889Y-47872933D01*
X170666140Y-47879548D01*
X170766774Y-47980182D01*
X170771856Y-47984743D01*
X170811730Y-48016803D01*
X170825083Y-48025026D01*
X170942186Y-48078269D01*
X170959241Y-48083256D01*
X171085511Y-48101339D01*
X171103289Y-48101339D01*
X171229559Y-48083256D01*
X171246614Y-48078269D01*
X171363723Y-48025023D01*
X171377067Y-48016806D01*
X171416952Y-47984737D01*
X171422011Y-47980198D01*
X171519432Y-47882776D01*
X171527042Y-47868840D01*
X171526911Y-47867003D01*
X171522659Y-47860387D01*
X171107212Y-47444940D01*
X171093268Y-47437326D01*
X171091435Y-47437457D01*
X171084820Y-47441708D01*
X170669372Y-47857156D01*
X170661758Y-47871100D01*
X95730847Y-47871100D01*
X96132399Y-47464085D01*
X152450800Y-47464085D01*
X152455275Y-47479324D01*
X152456665Y-47480529D01*
X152464348Y-47482200D01*
X153051885Y-47482200D01*
X153067124Y-47477725D01*
X153068329Y-47476335D01*
X153070000Y-47468652D01*
X153070000Y-47464085D01*
X154270000Y-47464085D01*
X154274475Y-47479324D01*
X154275865Y-47480529D01*
X154283548Y-47482200D01*
X154871084Y-47482200D01*
X154886323Y-47477725D01*
X154887528Y-47476335D01*
X154889199Y-47468652D01*
X154889199Y-47326331D01*
X154888829Y-47319510D01*
X154883305Y-47268648D01*
X154879679Y-47253396D01*
X154834524Y-47132946D01*
X154825986Y-47117351D01*
X154749485Y-47015276D01*
X154736924Y-47002715D01*
X154634849Y-46926214D01*
X154619254Y-46917676D01*
X154498806Y-46872522D01*
X154483551Y-46868895D01*
X154432686Y-46863369D01*
X154425872Y-46863000D01*
X154288115Y-46863000D01*
X154272876Y-46867475D01*
X154271671Y-46868865D01*
X154270000Y-46876548D01*
X154270000Y-47464085D01*
X153070000Y-47464085D01*
X153070000Y-46881116D01*
X153065525Y-46865877D01*
X153064135Y-46864672D01*
X153056452Y-46863001D01*
X152914131Y-46863001D01*
X152907310Y-46863371D01*
X152856448Y-46868895D01*
X152841196Y-46872521D01*
X152720746Y-46917676D01*
X152705151Y-46926214D01*
X152603076Y-47002715D01*
X152590515Y-47015276D01*
X152514014Y-47117351D01*
X152505476Y-47132946D01*
X152460322Y-47253394D01*
X152456695Y-47268649D01*
X152451169Y-47319514D01*
X152450800Y-47326328D01*
X152450800Y-47464085D01*
X96132399Y-47464085D01*
X96992296Y-46592489D01*
X169576661Y-46592489D01*
X169594744Y-46718759D01*
X169599731Y-46735814D01*
X169652977Y-46852923D01*
X169661194Y-46866267D01*
X169693263Y-46906152D01*
X169697802Y-46911211D01*
X169795224Y-47008632D01*
X169809160Y-47016242D01*
X169810997Y-47016111D01*
X169817613Y-47011859D01*
X170233060Y-46596412D01*
X170239438Y-46584732D01*
X171948126Y-46584732D01*
X171948257Y-46586565D01*
X171952508Y-46593180D01*
X172367956Y-47008628D01*
X172381900Y-47016242D01*
X172383733Y-47016111D01*
X172390348Y-47011860D01*
X172490982Y-46911226D01*
X172495543Y-46906144D01*
X172527603Y-46866270D01*
X172535826Y-46852917D01*
X172589069Y-46735814D01*
X172594056Y-46718759D01*
X172612139Y-46592489D01*
X172612139Y-46574711D01*
X172594056Y-46448441D01*
X172589069Y-46431386D01*
X172535823Y-46314277D01*
X172527606Y-46300933D01*
X172495537Y-46261048D01*
X172490998Y-46255989D01*
X172393576Y-46158568D01*
X172379640Y-46150958D01*
X172377803Y-46151089D01*
X172371187Y-46155341D01*
X171955740Y-46570788D01*
X171948126Y-46584732D01*
X170239438Y-46584732D01*
X170240674Y-46582468D01*
X170240543Y-46580635D01*
X170236292Y-46574020D01*
X169820844Y-46158572D01*
X169806900Y-46150958D01*
X169805067Y-46151089D01*
X169798452Y-46155340D01*
X169697818Y-46255974D01*
X169693257Y-46261056D01*
X169661197Y-46300930D01*
X169652974Y-46314283D01*
X169599731Y-46431386D01*
X169594744Y-46448441D01*
X169576661Y-46574711D01*
X169576661Y-46592489D01*
X96992296Y-46592489D01*
X98269054Y-45298360D01*
X170661758Y-45298360D01*
X170661889Y-45300197D01*
X170666141Y-45306813D01*
X171081588Y-45722260D01*
X171095532Y-45729874D01*
X171097365Y-45729743D01*
X171103980Y-45725492D01*
X171519428Y-45310044D01*
X171527042Y-45296100D01*
X171526911Y-45294267D01*
X171522660Y-45287652D01*
X171422026Y-45187018D01*
X171416944Y-45182457D01*
X171377070Y-45150397D01*
X171363717Y-45142174D01*
X171246614Y-45088931D01*
X171229559Y-45083944D01*
X171103289Y-45065861D01*
X171085511Y-45065861D01*
X170959241Y-45083944D01*
X170942186Y-45088931D01*
X170825077Y-45142177D01*
X170811733Y-45150394D01*
X170771848Y-45182463D01*
X170766789Y-45187002D01*
X170669368Y-45284424D01*
X170661758Y-45298360D01*
X98269054Y-45298360D01*
X100073259Y-43469608D01*
X100579137Y-42956847D01*
X151938049Y-42956847D01*
X151950369Y-43213344D01*
X151951282Y-43217932D01*
X151997426Y-43449913D01*
X152000467Y-43465203D01*
X152002046Y-43469601D01*
X152002048Y-43469608D01*
X152046984Y-43594765D01*
X152087241Y-43706890D01*
X152208786Y-43933096D01*
X152211581Y-43936839D01*
X152211583Y-43936842D01*
X152359640Y-44135114D01*
X152359645Y-44135120D01*
X152362432Y-44138852D01*
X152365741Y-44142132D01*
X152365746Y-44142138D01*
X152530689Y-44305648D01*
X152544802Y-44319638D01*
X152548564Y-44322396D01*
X152548567Y-44322399D01*
X152648422Y-44395615D01*
X152751891Y-44471481D01*
X152756026Y-44473657D01*
X152756030Y-44473659D01*
X152975006Y-44588869D01*
X152975014Y-44588873D01*
X152979149Y-44591048D01*
X153084405Y-44627805D01*
X153186523Y-44663466D01*
X153221584Y-44675710D01*
X153226177Y-44676582D01*
X153469281Y-44722737D01*
X153469284Y-44722737D01*
X153473870Y-44723608D01*
X153602167Y-44728649D01*
X153725797Y-44733507D01*
X153725803Y-44733507D01*
X153730465Y-44733690D01*
X153985731Y-44705733D01*
X153990242Y-44704545D01*
X153990244Y-44704545D01*
X154229538Y-44641544D01*
X154229540Y-44641543D01*
X154234061Y-44640353D01*
X154258971Y-44629651D01*
X154465706Y-44540831D01*
X154465708Y-44540830D01*
X154470000Y-44538986D01*
X154600849Y-44458014D01*
X154684391Y-44406317D01*
X154684395Y-44406314D01*
X154688364Y-44403858D01*
X154704571Y-44390138D01*
X154880791Y-44240957D01*
X154880792Y-44240956D01*
X154884357Y-44237938D01*
X154968372Y-44142138D01*
X155050590Y-44048387D01*
X155050594Y-44048382D01*
X155053672Y-44044872D01*
X155123159Y-43936842D01*
X155190062Y-43832830D01*
X155190065Y-43832825D01*
X155192590Y-43828899D01*
X155298060Y-43594765D01*
X155333358Y-43469608D01*
X155366494Y-43352118D01*
X155366495Y-43352115D01*
X155367764Y-43347614D01*
X155400171Y-43092874D01*
X155400370Y-43085303D01*
X155402462Y-43005360D01*
X155402545Y-43002200D01*
X155398829Y-42952190D01*
X155398380Y-42946145D01*
X172954551Y-42946145D01*
X172966871Y-43202642D01*
X173016969Y-43454501D01*
X173018548Y-43458899D01*
X173018550Y-43458906D01*
X173102160Y-43691779D01*
X173103743Y-43696188D01*
X173225288Y-43922394D01*
X173228083Y-43926137D01*
X173228085Y-43926140D01*
X173376142Y-44124412D01*
X173376147Y-44124418D01*
X173378934Y-44128150D01*
X173382243Y-44131430D01*
X173382248Y-44131436D01*
X173486142Y-44234427D01*
X173561304Y-44308936D01*
X173565066Y-44311694D01*
X173565069Y-44311697D01*
X173579665Y-44322399D01*
X173768393Y-44460779D01*
X173772528Y-44462955D01*
X173772532Y-44462957D01*
X173991508Y-44578167D01*
X173991516Y-44578171D01*
X173995651Y-44580346D01*
X174238086Y-44665008D01*
X174242679Y-44665880D01*
X174485783Y-44712035D01*
X174485786Y-44712035D01*
X174490372Y-44712906D01*
X174618670Y-44717947D01*
X174742299Y-44722805D01*
X174742305Y-44722805D01*
X174746967Y-44722988D01*
X175002233Y-44695031D01*
X175006744Y-44693843D01*
X175006746Y-44693843D01*
X175246040Y-44630842D01*
X175246042Y-44630841D01*
X175250563Y-44629651D01*
X175336823Y-44592591D01*
X175482208Y-44530129D01*
X175482210Y-44530128D01*
X175486502Y-44528284D01*
X175600057Y-44458014D01*
X175700893Y-44395615D01*
X175700897Y-44395612D01*
X175704866Y-44393156D01*
X175795593Y-44316350D01*
X175897293Y-44230255D01*
X175897294Y-44230254D01*
X175900859Y-44227236D01*
X175984874Y-44131436D01*
X176067092Y-44037685D01*
X176067096Y-44037680D01*
X176070174Y-44034170D01*
X176072704Y-44030237D01*
X176206564Y-43822128D01*
X176206567Y-43822123D01*
X176209092Y-43818197D01*
X176314562Y-43584063D01*
X176349860Y-43458906D01*
X176382996Y-43341416D01*
X176382997Y-43341413D01*
X176384266Y-43336912D01*
X176401942Y-43197970D01*
X176416275Y-43085303D01*
X176416275Y-43085297D01*
X176416673Y-43082172D01*
X176419047Y-42991498D01*
X176401157Y-42750766D01*
X176400362Y-42740064D01*
X176400361Y-42740060D01*
X176400016Y-42735412D01*
X176343343Y-42484951D01*
X176330706Y-42452455D01*
X176251965Y-42249971D01*
X176251964Y-42249969D01*
X176250272Y-42245618D01*
X176122847Y-42022671D01*
X176043358Y-41921840D01*
X175966760Y-41824676D01*
X175966757Y-41824673D01*
X175963868Y-41821008D01*
X175776828Y-41645058D01*
X175623469Y-41538669D01*
X175569667Y-41501345D01*
X175569664Y-41501343D01*
X175565835Y-41498687D01*
X175556258Y-41493964D01*
X175339711Y-41387174D01*
X175339707Y-41387173D01*
X175335525Y-41385110D01*
X175090957Y-41306823D01*
X174882579Y-41272887D01*
X174842115Y-41266297D01*
X174842114Y-41266297D01*
X174837503Y-41265546D01*
X174709118Y-41263866D01*
X174585410Y-41262246D01*
X174585407Y-41262246D01*
X174580733Y-41262185D01*
X174326286Y-41296813D01*
X174079752Y-41368671D01*
X174075499Y-41370631D01*
X174075498Y-41370632D01*
X174052284Y-41381334D01*
X173846548Y-41476180D01*
X173821476Y-41492618D01*
X173635708Y-41614412D01*
X173635703Y-41614416D01*
X173631795Y-41616978D01*
X173440213Y-41787971D01*
X173276010Y-41985404D01*
X173142793Y-42204939D01*
X173043489Y-42441753D01*
X172980278Y-42690645D01*
X172954551Y-42946145D01*
X155398380Y-42946145D01*
X155383860Y-42750766D01*
X155383859Y-42750762D01*
X155383514Y-42746114D01*
X155326841Y-42495653D01*
X155325148Y-42491299D01*
X155235463Y-42260673D01*
X155235462Y-42260671D01*
X155233770Y-42256320D01*
X155106345Y-42033373D01*
X154947366Y-41831710D01*
X154760326Y-41655760D01*
X154700723Y-41614412D01*
X154553165Y-41512047D01*
X154553162Y-41512045D01*
X154549333Y-41509389D01*
X154545148Y-41507325D01*
X154323209Y-41397876D01*
X154323205Y-41397875D01*
X154319023Y-41395812D01*
X154074455Y-41317525D01*
X153917650Y-41291988D01*
X153825613Y-41276999D01*
X153825612Y-41276999D01*
X153821001Y-41276248D01*
X153692616Y-41274567D01*
X153568908Y-41272948D01*
X153568905Y-41272948D01*
X153564231Y-41272887D01*
X153309784Y-41307515D01*
X153063250Y-41379373D01*
X153058997Y-41381333D01*
X153058996Y-41381334D01*
X153046328Y-41387174D01*
X152830046Y-41486882D01*
X152789357Y-41513559D01*
X152619206Y-41625114D01*
X152619201Y-41625118D01*
X152615293Y-41627680D01*
X152586811Y-41653101D01*
X152435702Y-41787971D01*
X152423711Y-41798673D01*
X152259508Y-41996106D01*
X152192900Y-42105873D01*
X152135211Y-42200942D01*
X152126291Y-42215641D01*
X152026987Y-42452455D01*
X151963776Y-42701347D01*
X151938049Y-42956847D01*
X100579137Y-42956847D01*
X106185795Y-37273908D01*
X106247875Y-37239463D01*
X106275489Y-37236400D01*
X108660192Y-37236400D01*
X108728313Y-37256402D01*
G37*
%TD.AperFunction*%
%TD*%
%TA.AperFunction,Conductor*%
%TO.N,GND*%
G36*
X222903457Y-90424001D02*
G01*
X222903457Y-100582983D01*
X222883455Y-100651104D01*
X222829799Y-100697597D01*
X222777457Y-100708983D01*
X201719945Y-100708983D01*
X180662432Y-100708982D01*
X180594311Y-100688980D01*
X180547818Y-100635324D01*
X180536432Y-100582982D01*
X180536432Y-92658493D01*
X217279848Y-92658493D01*
X217290513Y-92929929D01*
X217339317Y-93197155D01*
X217425286Y-93454838D01*
X217546706Y-93697837D01*
X217701153Y-93921303D01*
X217885546Y-94120779D01*
X217889000Y-94123591D01*
X218092749Y-94289469D01*
X218092753Y-94289472D01*
X218096206Y-94292283D01*
X218328930Y-94432394D01*
X218579073Y-94538316D01*
X218583366Y-94539454D01*
X218583371Y-94539456D01*
X218837346Y-94606796D01*
X218841646Y-94607936D01*
X218846063Y-94608459D01*
X218846064Y-94608459D01*
X218976528Y-94623900D01*
X219111409Y-94639864D01*
X219382979Y-94633464D01*
X219387373Y-94632733D01*
X219387380Y-94632732D01*
X219646536Y-94589597D01*
X219646540Y-94589596D01*
X219650938Y-94588864D01*
X219909939Y-94506952D01*
X219913950Y-94505026D01*
X219913955Y-94505024D01*
X220150797Y-94391294D01*
X220150798Y-94391293D01*
X220154816Y-94389364D01*
X220158522Y-94386888D01*
X220376973Y-94240924D01*
X220376977Y-94240921D01*
X220380681Y-94238446D01*
X220383998Y-94235475D01*
X220384002Y-94235472D01*
X220579710Y-94060181D01*
X220579711Y-94060180D01*
X220583028Y-94057209D01*
X220757820Y-93849269D01*
X220901569Y-93618775D01*
X221011407Y-93370326D01*
X221085142Y-93108879D01*
X221121304Y-92839651D01*
X221125099Y-92718899D01*
X221105913Y-92447932D01*
X221092136Y-92383937D01*
X221049676Y-92186718D01*
X221049676Y-92186716D01*
X221048740Y-92182371D01*
X220954719Y-91927516D01*
X220825726Y-91688450D01*
X220664336Y-91469945D01*
X220473768Y-91276360D01*
X220257825Y-91111558D01*
X220204642Y-91081774D01*
X220024706Y-90981005D01*
X220024705Y-90981005D01*
X220020815Y-90978826D01*
X219952733Y-90952487D01*
X219771623Y-90882420D01*
X219771617Y-90882418D01*
X219767468Y-90880813D01*
X219763136Y-90879809D01*
X219763133Y-90879808D01*
X219653599Y-90854420D01*
X219502838Y-90819476D01*
X219232206Y-90796036D01*
X219227771Y-90796280D01*
X219227767Y-90796280D01*
X219117301Y-90802360D01*
X218960971Y-90810963D01*
X218694545Y-90863959D01*
X218524698Y-90923605D01*
X218442452Y-90952487D01*
X218442449Y-90952488D01*
X218438244Y-90953965D01*
X218434291Y-90956018D01*
X218434285Y-90956021D01*
X218298119Y-91026754D01*
X218197182Y-91079187D01*
X218193567Y-91081770D01*
X218193561Y-91081774D01*
X217979790Y-91234537D01*
X217979786Y-91234540D01*
X217976169Y-91237125D01*
X217779614Y-91424629D01*
X217776858Y-91428125D01*
X217776857Y-91428126D01*
X217741058Y-91473537D01*
X217611440Y-91637956D01*
X217582111Y-91688450D01*
X217477236Y-91869005D01*
X217477233Y-91869011D01*
X217475002Y-91872852D01*
X217373022Y-92124628D01*
X217307535Y-92388262D01*
X217279848Y-92658493D01*
X180536432Y-92658493D01*
X180536432Y-90424000D01*
X222903457Y-90424001D01*
G37*
%TD.AperFunction*%
%TD*%
%TA.AperFunction,Conductor*%
%TO.N,GND*%
G36*
X115499695Y-52375552D02*
G01*
X115503321Y-52390804D01*
X115548476Y-52511254D01*
X115557014Y-52526849D01*
X115633515Y-52628924D01*
X115646076Y-52641485D01*
X115748151Y-52717986D01*
X115763746Y-52726524D01*
X115884194Y-52771678D01*
X115899449Y-52775305D01*
X115950314Y-52780831D01*
X115957128Y-52781200D01*
X116094885Y-52781200D01*
X116110124Y-52776725D01*
X116111329Y-52775335D01*
X116113000Y-52767652D01*
X116113000Y-52374800D01*
X117313000Y-52374800D01*
X117313000Y-52763084D01*
X117317475Y-52778323D01*
X117318865Y-52779528D01*
X117326548Y-52781199D01*
X117468869Y-52781199D01*
X117475690Y-52780829D01*
X117526552Y-52775305D01*
X117541804Y-52771679D01*
X117662254Y-52726524D01*
X117677849Y-52717986D01*
X117779924Y-52641485D01*
X117792485Y-52628924D01*
X117868986Y-52526849D01*
X117877524Y-52511254D01*
X117922678Y-52390806D01*
X117926305Y-52375551D01*
X117926387Y-52374800D01*
X120562596Y-52374800D01*
X120572405Y-52390806D01*
X120599707Y-52435359D01*
X120758372Y-52618527D01*
X120944823Y-52773322D01*
X121154053Y-52895586D01*
X121158873Y-52897426D01*
X121158878Y-52897429D01*
X121267220Y-52938800D01*
X121380442Y-52982035D01*
X121385510Y-52983066D01*
X121385513Y-52983067D01*
X121502780Y-53006925D01*
X121617910Y-53030349D01*
X121623085Y-53030539D01*
X121623087Y-53030539D01*
X121854917Y-53039040D01*
X121854921Y-53039040D01*
X121860081Y-53039229D01*
X121865201Y-53038573D01*
X121865203Y-53038573D01*
X121940315Y-53028951D01*
X122100450Y-53008437D01*
X122105401Y-53006952D01*
X122105404Y-53006951D01*
X122327612Y-52940285D01*
X122327611Y-52940285D01*
X122332562Y-52938800D01*
X122434602Y-52888811D01*
X122545533Y-52834467D01*
X122545538Y-52834464D01*
X122550184Y-52832188D01*
X122554394Y-52829185D01*
X122554399Y-52829182D01*
X122743259Y-52694469D01*
X122743264Y-52694465D01*
X122747471Y-52691464D01*
X122919126Y-52520408D01*
X122980240Y-52435359D01*
X123023756Y-52374800D01*
X222910400Y-52374800D01*
X222910400Y-90348800D01*
X222890398Y-90416921D01*
X222836742Y-90463414D01*
X222784400Y-90474800D01*
X176790835Y-90474800D01*
X176722714Y-90454798D01*
X176676221Y-90401142D01*
X176666117Y-90330868D01*
X176695611Y-90266288D01*
X176701740Y-90259705D01*
X177916446Y-89044999D01*
X218730047Y-89044999D01*
X218732922Y-89048840D01*
X218802526Y-89075419D01*
X218812424Y-89078295D01*
X219029451Y-89122449D01*
X219039680Y-89123668D01*
X219261002Y-89131785D01*
X219271288Y-89131318D01*
X219490966Y-89103176D01*
X219501052Y-89101033D01*
X219664123Y-89052109D01*
X219675941Y-89044415D01*
X219675551Y-89041806D01*
X219673632Y-89039060D01*
X219214811Y-88580239D01*
X219200867Y-88572625D01*
X219199034Y-88572756D01*
X219192419Y-88577007D01*
X218736807Y-89032619D01*
X218730047Y-89044999D01*
X177916446Y-89044999D01*
X179271950Y-87689495D01*
X217788187Y-87689495D01*
X217800936Y-87910595D01*
X217802372Y-87920816D01*
X217851059Y-88136854D01*
X217854143Y-88146695D01*
X217867985Y-88180783D01*
X217876757Y-88191826D01*
X217881792Y-88190578D01*
X218340659Y-87731711D01*
X218347037Y-87720031D01*
X220055725Y-87720031D01*
X220055856Y-87721864D01*
X220060107Y-87728479D01*
X220516981Y-88185353D01*
X220529361Y-88192113D01*
X220531565Y-88190463D01*
X220532985Y-88187659D01*
X220583082Y-88022768D01*
X220585259Y-88012698D01*
X220614404Y-87791321D01*
X220614923Y-87784646D01*
X220616448Y-87722263D01*
X220616254Y-87715545D01*
X220597960Y-87493020D01*
X220596277Y-87482858D01*
X220542324Y-87268060D01*
X220539002Y-87258301D01*
X220537778Y-87255486D01*
X220528739Y-87244661D01*
X220523266Y-87246160D01*
X220063339Y-87706087D01*
X220055725Y-87720031D01*
X218347037Y-87720031D01*
X218348273Y-87717767D01*
X218348142Y-87715934D01*
X218343891Y-87709319D01*
X217885235Y-87250663D01*
X217872855Y-87243903D01*
X217871302Y-87245065D01*
X217869281Y-87249181D01*
X217813905Y-87448859D01*
X217811974Y-87458979D01*
X217788439Y-87679206D01*
X217788187Y-87689495D01*
X179271950Y-87689495D01*
X180567028Y-86394417D01*
X218729286Y-86394417D01*
X218729880Y-86397815D01*
X218730987Y-86399359D01*
X219189187Y-86857559D01*
X219203131Y-86865173D01*
X219204964Y-86865042D01*
X219211579Y-86860791D01*
X219667010Y-86405360D01*
X219673770Y-86392980D01*
X219671218Y-86389571D01*
X219670832Y-86389364D01*
X219568210Y-86353023D01*
X219558239Y-86350389D01*
X219340207Y-86311552D01*
X219329954Y-86310583D01*
X219108495Y-86307877D01*
X219098212Y-86308597D01*
X218879296Y-86342095D01*
X218869269Y-86344484D01*
X218740912Y-86386437D01*
X218729286Y-86394417D01*
X180567028Y-86394417D01*
X182852240Y-84109205D01*
X182914552Y-84075179D01*
X182941335Y-84072300D01*
X202795770Y-84072300D01*
X202812215Y-84073378D01*
X202834343Y-84076291D01*
X202839943Y-84076027D01*
X202839944Y-84076027D01*
X202916004Y-84072440D01*
X202921939Y-84072300D01*
X202944602Y-84072300D01*
X202947386Y-84072051D01*
X202947397Y-84072051D01*
X202970690Y-84069972D01*
X202975954Y-84069613D01*
X203031299Y-84067003D01*
X203059458Y-84065675D01*
X203077034Y-84061650D01*
X203093955Y-84058970D01*
X203096826Y-84058714D01*
X203106301Y-84057869D01*
X203106306Y-84057868D01*
X203111898Y-84057369D01*
X203157116Y-84044999D01*
X218730047Y-84044999D01*
X218732922Y-84048840D01*
X218802526Y-84075419D01*
X218812424Y-84078295D01*
X219029451Y-84122449D01*
X219039680Y-84123668D01*
X219261002Y-84131785D01*
X219271288Y-84131318D01*
X219490966Y-84103176D01*
X219501052Y-84101033D01*
X219664123Y-84052109D01*
X219675941Y-84044415D01*
X219675551Y-84041806D01*
X219673632Y-84039060D01*
X219214811Y-83580239D01*
X219200867Y-83572625D01*
X219199034Y-83572756D01*
X219192419Y-83577007D01*
X218736807Y-84032619D01*
X218730047Y-84044999D01*
X203157116Y-84044999D01*
X203192522Y-84035313D01*
X203197612Y-84034035D01*
X203256608Y-84020523D01*
X203279136Y-84015363D01*
X203295724Y-84008287D01*
X203311898Y-84002655D01*
X203329276Y-83997901D01*
X203334334Y-83995489D01*
X203334338Y-83995487D01*
X203404723Y-83961915D01*
X203409532Y-83959744D01*
X203481264Y-83929147D01*
X203486431Y-83926943D01*
X203491128Y-83923857D01*
X203491131Y-83923856D01*
X203501493Y-83917050D01*
X203516426Y-83908635D01*
X203527628Y-83903292D01*
X203532687Y-83900879D01*
X203571403Y-83873059D01*
X203600584Y-83852090D01*
X203604933Y-83849101D01*
X203674793Y-83803212D01*
X203678233Y-83800148D01*
X203678245Y-83800138D01*
X203695665Y-83784617D01*
X203705940Y-83776385D01*
X203715703Y-83769369D01*
X203790298Y-83692393D01*
X203791687Y-83690983D01*
X204793175Y-82689495D01*
X217788187Y-82689495D01*
X217800936Y-82910595D01*
X217802372Y-82920816D01*
X217851059Y-83136854D01*
X217854143Y-83146695D01*
X217867985Y-83180783D01*
X217876757Y-83191826D01*
X217881792Y-83190578D01*
X218340659Y-82731711D01*
X218347037Y-82720031D01*
X220055725Y-82720031D01*
X220055856Y-82721864D01*
X220060107Y-82728479D01*
X220516981Y-83185353D01*
X220529361Y-83192113D01*
X220531565Y-83190463D01*
X220532985Y-83187659D01*
X220583082Y-83022768D01*
X220585259Y-83012698D01*
X220614404Y-82791321D01*
X220614923Y-82784646D01*
X220616448Y-82722263D01*
X220616254Y-82715545D01*
X220597960Y-82493020D01*
X220596277Y-82482858D01*
X220542324Y-82268060D01*
X220539002Y-82258301D01*
X220537778Y-82255486D01*
X220528739Y-82244661D01*
X220523266Y-82246160D01*
X220063339Y-82706087D01*
X220055725Y-82720031D01*
X218347037Y-82720031D01*
X218348273Y-82717767D01*
X218348142Y-82715934D01*
X218343891Y-82709319D01*
X217885235Y-82250663D01*
X217872855Y-82243903D01*
X217871302Y-82245065D01*
X217869281Y-82249181D01*
X217813905Y-82448859D01*
X217811974Y-82458979D01*
X217788439Y-82679206D01*
X217788187Y-82689495D01*
X204793175Y-82689495D01*
X206088253Y-81394417D01*
X218729286Y-81394417D01*
X218729880Y-81397815D01*
X218730987Y-81399359D01*
X219189187Y-81857559D01*
X219203131Y-81865173D01*
X219204964Y-81865042D01*
X219211579Y-81860791D01*
X219667010Y-81405360D01*
X219673770Y-81392980D01*
X219671218Y-81389571D01*
X219670832Y-81389364D01*
X219568210Y-81353023D01*
X219558239Y-81350389D01*
X219340207Y-81311552D01*
X219329954Y-81310583D01*
X219108495Y-81307877D01*
X219098212Y-81308597D01*
X218879296Y-81342095D01*
X218869269Y-81344484D01*
X218740912Y-81386437D01*
X218729286Y-81394417D01*
X206088253Y-81394417D01*
X207144652Y-80338018D01*
X207206964Y-80303992D01*
X207233747Y-80301113D01*
X217897332Y-80301113D01*
X217913777Y-80302191D01*
X217935905Y-80305104D01*
X217941505Y-80304840D01*
X217941506Y-80304840D01*
X218017566Y-80301253D01*
X218023501Y-80301113D01*
X218046164Y-80301113D01*
X218048948Y-80300864D01*
X218048959Y-80300864D01*
X218072252Y-80298785D01*
X218077516Y-80298426D01*
X218132861Y-80295816D01*
X218161020Y-80294488D01*
X218178596Y-80290463D01*
X218195517Y-80287783D01*
X218198388Y-80287527D01*
X218207863Y-80286682D01*
X218207868Y-80286681D01*
X218213460Y-80286182D01*
X218294084Y-80264126D01*
X218299174Y-80262848D01*
X218358170Y-80249336D01*
X218380698Y-80244176D01*
X218397286Y-80237100D01*
X218413460Y-80231468D01*
X218430838Y-80226714D01*
X218435896Y-80224302D01*
X218435900Y-80224300D01*
X218506285Y-80190728D01*
X218511094Y-80188557D01*
X218582826Y-80157960D01*
X218587993Y-80155756D01*
X218592690Y-80152670D01*
X218592693Y-80152669D01*
X218603055Y-80145863D01*
X218617988Y-80137448D01*
X218629190Y-80132105D01*
X218634249Y-80129692D01*
X218681339Y-80095854D01*
X218702146Y-80080903D01*
X218706495Y-80077914D01*
X218776355Y-80032025D01*
X218779795Y-80028961D01*
X218779807Y-80028951D01*
X218797227Y-80013430D01*
X218807502Y-80005198D01*
X218817265Y-79998182D01*
X218891860Y-79921206D01*
X218893249Y-79919796D01*
X220690311Y-78122734D01*
X220702694Y-78111873D01*
X220720410Y-78098279D01*
X220724181Y-78094134D01*
X220724185Y-78094131D01*
X220775440Y-78037802D01*
X220779538Y-78033507D01*
X220795553Y-78017492D01*
X220799843Y-78012362D01*
X220803218Y-78008324D01*
X220812370Y-77997380D01*
X220815828Y-77993416D01*
X220817815Y-77991233D01*
X220872084Y-77931592D01*
X220881665Y-77916317D01*
X220891737Y-77902457D01*
X220899690Y-77892946D01*
X220899696Y-77892938D01*
X220903291Y-77888638D01*
X220919786Y-77859720D01*
X220944695Y-77816048D01*
X220947406Y-77811517D01*
X220991843Y-77740680D01*
X220993939Y-77735467D01*
X220998571Y-77723946D01*
X221006028Y-77708520D01*
X221006636Y-77707454D01*
X221014950Y-77692878D01*
X221042846Y-77614103D01*
X221044711Y-77609167D01*
X221073808Y-77536785D01*
X221073809Y-77536783D01*
X221075901Y-77531578D01*
X221079556Y-77513929D01*
X221084164Y-77497423D01*
X221088307Y-77485724D01*
X221088307Y-77485722D01*
X221090178Y-77480440D01*
X221103688Y-77397940D01*
X221104650Y-77392753D01*
X221106308Y-77384750D01*
X221121602Y-77310895D01*
X221123211Y-77282995D01*
X221124658Y-77269891D01*
X221125692Y-77263578D01*
X221125692Y-77263575D01*
X221126599Y-77258037D01*
X221124916Y-77150905D01*
X221124900Y-77148926D01*
X221124900Y-74993700D01*
X221144902Y-74925579D01*
X221198558Y-74879086D01*
X221250900Y-74867700D01*
X221708066Y-74867700D01*
X221711312Y-74867363D01*
X221711316Y-74867363D01*
X221807532Y-74857380D01*
X221807536Y-74857379D01*
X221814390Y-74856668D01*
X221820926Y-74854487D01*
X221820928Y-74854487D01*
X221976106Y-74802715D01*
X221983054Y-74800397D01*
X222134250Y-74706834D01*
X222259866Y-74580999D01*
X222353164Y-74429640D01*
X222373562Y-74368144D01*
X222406975Y-74267409D01*
X222406976Y-74267407D01*
X222409141Y-74260878D01*
X222419900Y-74155866D01*
X222419900Y-72554534D01*
X222414517Y-72502654D01*
X222409580Y-72455068D01*
X222409579Y-72455064D01*
X222408868Y-72448210D01*
X222352597Y-72279546D01*
X222259034Y-72128350D01*
X222133199Y-72002734D01*
X222115033Y-71991536D01*
X222076621Y-71967859D01*
X221981840Y-71909436D01*
X221946826Y-71897822D01*
X221819609Y-71855625D01*
X221819607Y-71855624D01*
X221813078Y-71853459D01*
X221708066Y-71842700D01*
X220556734Y-71842700D01*
X220553488Y-71843037D01*
X220553484Y-71843037D01*
X220523364Y-71846162D01*
X220450410Y-71853732D01*
X220443870Y-71855914D01*
X220318258Y-71897822D01*
X220245771Y-71900006D01*
X220167387Y-71879003D01*
X220092141Y-71858841D01*
X220092139Y-71858841D01*
X220086826Y-71857417D01*
X219862400Y-71837782D01*
X219637974Y-71857417D01*
X219632660Y-71858841D01*
X219632659Y-71858841D01*
X219425677Y-71914301D01*
X219425675Y-71914302D01*
X219420367Y-71915724D01*
X219415386Y-71918046D01*
X219415385Y-71918047D01*
X219280650Y-71980875D01*
X219210458Y-71991536D01*
X219174150Y-71980875D01*
X219039415Y-71918047D01*
X219039414Y-71918046D01*
X219034433Y-71915724D01*
X219029125Y-71914302D01*
X219029123Y-71914301D01*
X218822141Y-71858841D01*
X218822140Y-71858841D01*
X218816826Y-71857417D01*
X218592400Y-71837782D01*
X218367974Y-71857417D01*
X218362660Y-71858841D01*
X218362659Y-71858841D01*
X218155677Y-71914301D01*
X218155675Y-71914302D01*
X218150367Y-71915724D01*
X218145386Y-71918046D01*
X218145385Y-71918047D01*
X217951178Y-72008607D01*
X217951173Y-72008610D01*
X217946191Y-72010933D01*
X217941684Y-72014089D01*
X217941682Y-72014090D01*
X217766161Y-72136991D01*
X217766158Y-72136993D01*
X217761650Y-72140150D01*
X217602350Y-72299450D01*
X217599193Y-72303958D01*
X217599191Y-72303961D01*
X217502765Y-72441672D01*
X217473133Y-72483991D01*
X217470810Y-72488973D01*
X217470807Y-72488978D01*
X217386894Y-72668930D01*
X217377924Y-72688167D01*
X217376502Y-72693475D01*
X217376501Y-72693477D01*
X217351500Y-72786784D01*
X217318888Y-72843268D01*
X213622947Y-76539208D01*
X213560635Y-76573234D01*
X213533852Y-76576113D01*
X207534732Y-76576113D01*
X207466611Y-76556111D01*
X207420118Y-76502455D01*
X207409211Y-76461094D01*
X207399463Y-76349668D01*
X207399462Y-76349663D01*
X207398983Y-76344187D01*
X207356437Y-76185398D01*
X207358551Y-76113120D01*
X207400775Y-75985822D01*
X207400776Y-75985820D01*
X207402941Y-75979291D01*
X207413700Y-75874279D01*
X207413700Y-74722947D01*
X207411847Y-74705084D01*
X207403380Y-74623481D01*
X207403379Y-74623477D01*
X207402668Y-74616623D01*
X207398231Y-74603322D01*
X207348715Y-74454907D01*
X207346397Y-74447959D01*
X207252834Y-74296763D01*
X207126999Y-74171147D01*
X207120155Y-74166928D01*
X207051302Y-74124487D01*
X206975640Y-74077849D01*
X206943170Y-74067079D01*
X206813409Y-74024038D01*
X206813407Y-74024037D01*
X206806878Y-74021872D01*
X206701866Y-74011113D01*
X205100534Y-74011113D01*
X205097288Y-74011450D01*
X205097284Y-74011450D01*
X205001068Y-74021433D01*
X205001064Y-74021434D01*
X204994210Y-74022145D01*
X204987674Y-74024326D01*
X204987672Y-74024326D01*
X204877955Y-74060931D01*
X204825546Y-74078416D01*
X204674350Y-74171979D01*
X204548734Y-74297814D01*
X204455436Y-74449173D01*
X204453131Y-74456121D01*
X204453131Y-74456122D01*
X204402036Y-74610167D01*
X204399459Y-74617935D01*
X204388700Y-74722947D01*
X204388700Y-75874279D01*
X204399732Y-75980603D01*
X204419547Y-76039995D01*
X204443822Y-76112755D01*
X204446006Y-76185243D01*
X204407333Y-76329574D01*
X204403417Y-76344187D01*
X204383782Y-76568613D01*
X204403417Y-76793039D01*
X204404841Y-76798353D01*
X204404841Y-76798354D01*
X204457809Y-76996033D01*
X204461724Y-77010646D01*
X204464046Y-77015627D01*
X204464047Y-77015628D01*
X204526875Y-77150363D01*
X204537536Y-77220555D01*
X204526875Y-77256863D01*
X204499569Y-77315422D01*
X204461724Y-77396580D01*
X204460302Y-77401888D01*
X204460301Y-77401890D01*
X204435300Y-77495196D01*
X204402688Y-77551680D01*
X201668973Y-80285395D01*
X201606661Y-80319421D01*
X201579878Y-80322300D01*
X184361132Y-80322300D01*
X184293011Y-80302298D01*
X184246518Y-80248642D01*
X184235611Y-80207281D01*
X184225863Y-80095855D01*
X184225862Y-80095850D01*
X184225383Y-80090374D01*
X184208925Y-80028951D01*
X184182837Y-79931585D01*
X184184951Y-79859307D01*
X184227175Y-79732009D01*
X184227176Y-79732007D01*
X184229341Y-79725478D01*
X184240100Y-79620466D01*
X184240100Y-78469134D01*
X184238168Y-78450513D01*
X184229780Y-78369668D01*
X184229779Y-78369664D01*
X184229068Y-78362810D01*
X184226418Y-78354865D01*
X184175115Y-78201094D01*
X184172797Y-78194146D01*
X184079234Y-78042950D01*
X184074052Y-78037777D01*
X184074049Y-78037773D01*
X184067939Y-78031674D01*
X184033858Y-77969392D01*
X184038860Y-77898572D01*
X184081357Y-77841699D01*
X184147855Y-77816829D01*
X184156955Y-77816500D01*
X198067151Y-77816500D01*
X198135272Y-77836502D01*
X198181765Y-77890158D01*
X198192632Y-77931080D01*
X198200029Y-78012362D01*
X198202327Y-78024411D01*
X198256046Y-78206932D01*
X198260639Y-78218300D01*
X198348786Y-78386911D01*
X198355502Y-78397173D01*
X198474715Y-78545443D01*
X198483303Y-78554213D01*
X198629038Y-78676499D01*
X198639169Y-78683437D01*
X198805892Y-78775094D01*
X198817162Y-78779924D01*
X198902930Y-78807131D01*
X198917031Y-78807435D01*
X198920200Y-78800875D01*
X198920200Y-78794410D01*
X199970200Y-78794410D01*
X199974173Y-78807941D01*
X199981767Y-78809033D01*
X200059851Y-78785458D01*
X200071193Y-78780783D01*
X200239177Y-78691465D01*
X200249393Y-78684678D01*
X200396834Y-78564428D01*
X200405538Y-78555784D01*
X200526810Y-78409191D01*
X200533670Y-78399020D01*
X200552100Y-78364935D01*
X200555040Y-78351144D01*
X200552968Y-78349606D01*
X200549569Y-78349000D01*
X199988315Y-78349000D01*
X199973076Y-78353475D01*
X199971871Y-78354865D01*
X199970200Y-78362548D01*
X199970200Y-78794410D01*
X198920200Y-78794410D01*
X198920200Y-77957677D01*
X198940202Y-77889556D01*
X198993858Y-77843063D01*
X199057181Y-77832156D01*
X199161262Y-77841262D01*
X199161273Y-77841262D01*
X199163988Y-77841500D01*
X199726412Y-77841500D01*
X199729129Y-77841262D01*
X199729136Y-77841262D01*
X199796424Y-77835375D01*
X199894626Y-77826783D01*
X199899940Y-77825359D01*
X199899941Y-77825359D01*
X200106923Y-77769899D01*
X200106925Y-77769898D01*
X200112233Y-77768476D01*
X200117215Y-77766153D01*
X200311422Y-77675593D01*
X200311427Y-77675590D01*
X200316409Y-77673267D01*
X200322777Y-77668808D01*
X200496439Y-77547209D01*
X200496442Y-77547207D01*
X200500950Y-77544050D01*
X200660250Y-77384750D01*
X200748976Y-77258037D01*
X200786310Y-77204718D01*
X200786311Y-77204716D01*
X200789467Y-77200209D01*
X200791790Y-77195227D01*
X200791793Y-77195222D01*
X200882353Y-77001015D01*
X200882354Y-77001014D01*
X200884676Y-76996033D01*
X200937644Y-76798354D01*
X200941559Y-76783741D01*
X200941559Y-76783740D01*
X200942983Y-76778426D01*
X200962618Y-76554000D01*
X200942983Y-76329574D01*
X200904352Y-76185398D01*
X200900437Y-76170785D01*
X200902551Y-76098507D01*
X200944775Y-75971209D01*
X200944776Y-75971207D01*
X200946941Y-75964678D01*
X200957700Y-75859666D01*
X200957700Y-74708334D01*
X200956506Y-74696827D01*
X200947380Y-74608868D01*
X200947379Y-74608864D01*
X200946668Y-74602010D01*
X200937580Y-74574768D01*
X200892715Y-74440294D01*
X200890397Y-74433346D01*
X200796834Y-74282150D01*
X200670999Y-74156534D01*
X200664697Y-74152649D01*
X200549581Y-74081692D01*
X200519640Y-74063236D01*
X200512691Y-74060931D01*
X200357409Y-74009425D01*
X200357407Y-74009424D01*
X200350878Y-74007259D01*
X200245866Y-73996500D01*
X198644534Y-73996500D01*
X198641288Y-73996837D01*
X198641284Y-73996837D01*
X198545068Y-74006820D01*
X198545064Y-74006821D01*
X198538210Y-74007532D01*
X198531674Y-74009713D01*
X198531672Y-74009713D01*
X198487872Y-74024326D01*
X198369546Y-74063803D01*
X198218350Y-74157366D01*
X198092734Y-74283201D01*
X198088894Y-74289431D01*
X198088893Y-74289432D01*
X198080535Y-74302991D01*
X197999436Y-74434560D01*
X197997131Y-74441508D01*
X197997131Y-74441509D01*
X197945674Y-74596645D01*
X197943459Y-74603322D01*
X197932700Y-74708334D01*
X197932700Y-75165500D01*
X197912698Y-75233621D01*
X197859042Y-75280114D01*
X197806700Y-75291500D01*
X179671255Y-75291500D01*
X179654809Y-75290422D01*
X179632682Y-75287509D01*
X179627082Y-75287773D01*
X179627081Y-75287773D01*
X179551013Y-75291360D01*
X179545078Y-75291500D01*
X179522423Y-75291500D01*
X179507768Y-75292808D01*
X179496354Y-75293826D01*
X179491092Y-75294185D01*
X179474598Y-75294963D01*
X179407567Y-75298124D01*
X179402102Y-75299376D01*
X179402099Y-75299376D01*
X179389991Y-75302149D01*
X179373072Y-75304829D01*
X179370691Y-75305042D01*
X179355127Y-75306431D01*
X179349719Y-75307910D01*
X179349716Y-75307911D01*
X179326677Y-75314214D01*
X179274523Y-75328482D01*
X179269415Y-75329765D01*
X179193358Y-75347184D01*
X179193354Y-75347185D01*
X179187889Y-75348437D01*
X179171301Y-75355513D01*
X179155127Y-75361145D01*
X179137749Y-75365899D01*
X179132691Y-75368311D01*
X179132687Y-75368313D01*
X179062302Y-75401885D01*
X179057493Y-75404056D01*
X179011031Y-75423874D01*
X178980594Y-75436857D01*
X178975905Y-75439937D01*
X178975903Y-75439938D01*
X178965530Y-75446751D01*
X178950603Y-75455162D01*
X178939407Y-75460502D01*
X178939397Y-75460508D01*
X178934338Y-75462921D01*
X178929782Y-75466195D01*
X178866453Y-75511702D01*
X178862103Y-75514692D01*
X178792232Y-75560587D01*
X178788782Y-75563661D01*
X178771365Y-75579178D01*
X178761079Y-75587419D01*
X178755879Y-75591156D01*
X178755876Y-75591158D01*
X178751322Y-75594431D01*
X178747420Y-75598458D01*
X178676727Y-75671407D01*
X178675338Y-75672817D01*
X176870489Y-77477666D01*
X176858106Y-77488527D01*
X176840390Y-77502121D01*
X176836619Y-77506266D01*
X176836615Y-77506269D01*
X176785360Y-77562598D01*
X176781262Y-77566893D01*
X176765247Y-77582908D01*
X176748430Y-77603020D01*
X176744981Y-77606974D01*
X176688716Y-77668808D01*
X176679135Y-77684083D01*
X176669063Y-77697943D01*
X176661110Y-77707454D01*
X176661104Y-77707462D01*
X176657509Y-77711762D01*
X176654730Y-77716634D01*
X176654728Y-77716637D01*
X176616105Y-77784352D01*
X176613402Y-77788869D01*
X176568957Y-77859720D01*
X176566863Y-77864930D01*
X176566861Y-77864933D01*
X176562229Y-77876454D01*
X176554773Y-77891877D01*
X176545850Y-77907522D01*
X176542081Y-77918166D01*
X176517954Y-77986297D01*
X176516089Y-77991233D01*
X176515212Y-77993416D01*
X176484899Y-78068822D01*
X176483761Y-78074319D01*
X176481245Y-78086468D01*
X176476636Y-78102977D01*
X176470622Y-78119960D01*
X176469716Y-78125493D01*
X176457112Y-78202458D01*
X176456152Y-78207638D01*
X176439198Y-78289505D01*
X176438932Y-78294119D01*
X176437589Y-78317404D01*
X176436142Y-78330508D01*
X176434201Y-78342363D01*
X176434289Y-78347976D01*
X176434289Y-78347979D01*
X176435884Y-78449495D01*
X176435900Y-78451474D01*
X176435900Y-85124465D01*
X176415898Y-85192586D01*
X176398995Y-85213560D01*
X171174660Y-90437895D01*
X171112348Y-90471921D01*
X171085565Y-90474800D01*
X125586435Y-90474800D01*
X125518314Y-90454798D01*
X125497340Y-90437895D01*
X120508212Y-85448767D01*
X150440200Y-85448767D01*
X150440537Y-85452013D01*
X150440537Y-85452017D01*
X150450386Y-85546934D01*
X150451232Y-85555091D01*
X150507503Y-85723755D01*
X150601066Y-85874951D01*
X150726901Y-86000567D01*
X150878260Y-86093865D01*
X150885208Y-86096170D01*
X150885209Y-86096170D01*
X151040491Y-86147676D01*
X151040493Y-86147677D01*
X151047022Y-86149842D01*
X151152034Y-86160601D01*
X153056766Y-86160601D01*
X153060012Y-86160264D01*
X153060016Y-86160264D01*
X153156232Y-86150281D01*
X153156236Y-86150280D01*
X153163090Y-86149569D01*
X153169626Y-86147388D01*
X153169628Y-86147388D01*
X153301377Y-86103433D01*
X153331754Y-86093298D01*
X153482950Y-85999735D01*
X153608566Y-85873900D01*
X153621498Y-85852921D01*
X153640248Y-85822501D01*
X159132448Y-85822501D01*
X159135323Y-85826342D01*
X159204927Y-85852921D01*
X159214825Y-85855797D01*
X159431852Y-85899951D01*
X159442081Y-85901170D01*
X159663403Y-85909287D01*
X159673689Y-85908820D01*
X159893367Y-85880678D01*
X159903453Y-85878535D01*
X160066524Y-85829611D01*
X160078342Y-85821917D01*
X160077952Y-85819308D01*
X160076033Y-85816562D01*
X159617212Y-85357741D01*
X159603268Y-85350127D01*
X159601435Y-85350258D01*
X159594820Y-85354509D01*
X159139208Y-85810121D01*
X159132448Y-85822501D01*
X153640248Y-85822501D01*
X153643909Y-85816562D01*
X153701864Y-85722541D01*
X153757841Y-85553779D01*
X153768600Y-85448767D01*
X153768600Y-84466997D01*
X158190588Y-84466997D01*
X158203337Y-84688097D01*
X158204773Y-84698318D01*
X158253460Y-84914356D01*
X158256544Y-84924197D01*
X158270386Y-84958285D01*
X158279158Y-84969328D01*
X158284193Y-84968080D01*
X158743060Y-84509213D01*
X158749438Y-84497533D01*
X160458126Y-84497533D01*
X160458257Y-84499366D01*
X160462508Y-84505981D01*
X160919382Y-84962855D01*
X160931762Y-84969615D01*
X160933966Y-84967965D01*
X160935386Y-84965161D01*
X160985483Y-84800270D01*
X160987660Y-84790200D01*
X161016805Y-84568823D01*
X161017324Y-84562148D01*
X161018849Y-84499765D01*
X161018655Y-84493047D01*
X161000361Y-84270522D01*
X160998678Y-84260360D01*
X160944725Y-84045562D01*
X160941403Y-84035803D01*
X160940179Y-84032988D01*
X160931140Y-84022163D01*
X160925667Y-84023662D01*
X160465740Y-84483589D01*
X160458126Y-84497533D01*
X158749438Y-84497533D01*
X158750674Y-84495269D01*
X158750543Y-84493436D01*
X158746292Y-84486821D01*
X158287636Y-84028165D01*
X158275256Y-84021405D01*
X158273703Y-84022567D01*
X158271682Y-84026683D01*
X158216306Y-84226361D01*
X158214375Y-84236481D01*
X158190840Y-84456708D01*
X158190588Y-84466997D01*
X153768600Y-84466997D01*
X153768600Y-83544035D01*
X153768263Y-83540785D01*
X153758280Y-83444569D01*
X153758279Y-83444565D01*
X153757568Y-83437711D01*
X153701297Y-83269047D01*
X153641192Y-83171919D01*
X159131687Y-83171919D01*
X159132281Y-83175317D01*
X159133388Y-83176861D01*
X159591588Y-83635061D01*
X159605532Y-83642675D01*
X159607365Y-83642544D01*
X159613980Y-83638293D01*
X160069411Y-83182862D01*
X160076171Y-83170482D01*
X160073619Y-83167073D01*
X160073233Y-83166866D01*
X159970611Y-83130525D01*
X159960640Y-83127891D01*
X159742608Y-83089054D01*
X159732355Y-83088085D01*
X159510896Y-83085379D01*
X159500613Y-83086099D01*
X159281697Y-83119597D01*
X159271670Y-83121986D01*
X159143313Y-83163939D01*
X159131687Y-83171919D01*
X153641192Y-83171919D01*
X153607734Y-83117851D01*
X153481899Y-82992235D01*
X153330540Y-82898937D01*
X153323591Y-82896632D01*
X153168309Y-82845126D01*
X153168307Y-82845125D01*
X153161778Y-82842960D01*
X153056766Y-82832201D01*
X151152034Y-82832201D01*
X151148788Y-82832538D01*
X151148784Y-82832538D01*
X151052568Y-82842521D01*
X151052564Y-82842522D01*
X151045710Y-82843233D01*
X151039174Y-82845414D01*
X151039172Y-82845414D01*
X150907423Y-82889369D01*
X150877046Y-82899504D01*
X150725850Y-82993067D01*
X150600234Y-83118902D01*
X150596394Y-83125132D01*
X150596393Y-83125133D01*
X150589168Y-83136854D01*
X150506936Y-83270261D01*
X150450959Y-83439023D01*
X150440200Y-83544035D01*
X150440200Y-85448767D01*
X120508212Y-85448767D01*
X117176230Y-82116785D01*
X173487518Y-82116785D01*
X173488325Y-82119284D01*
X173503186Y-82147711D01*
X173509902Y-82157973D01*
X173629115Y-82306243D01*
X173637703Y-82315013D01*
X173783438Y-82437299D01*
X173793569Y-82444237D01*
X173960292Y-82535894D01*
X173971562Y-82540724D01*
X174057330Y-82567931D01*
X174071431Y-82568235D01*
X174074600Y-82561675D01*
X174074600Y-82555210D01*
X175124600Y-82555210D01*
X175128573Y-82568741D01*
X175136167Y-82569833D01*
X175214251Y-82546258D01*
X175225593Y-82541583D01*
X175393577Y-82452265D01*
X175403793Y-82445478D01*
X175551234Y-82325228D01*
X175559938Y-82316584D01*
X175681210Y-82169991D01*
X175688070Y-82159820D01*
X175706500Y-82125735D01*
X175709440Y-82111944D01*
X175707368Y-82110406D01*
X175703969Y-82109800D01*
X175142715Y-82109800D01*
X175127476Y-82114275D01*
X175126271Y-82115665D01*
X175124600Y-82123348D01*
X175124600Y-82555210D01*
X174074600Y-82555210D01*
X174074600Y-82127915D01*
X174070125Y-82112676D01*
X174068735Y-82111471D01*
X174061052Y-82109800D01*
X173501482Y-82109800D01*
X173487951Y-82113773D01*
X173487518Y-82116785D01*
X117176230Y-82116785D01*
X115374245Y-80314800D01*
X173082182Y-80314800D01*
X173101817Y-80539226D01*
X173160124Y-80756833D01*
X173162446Y-80761814D01*
X173162447Y-80761815D01*
X173253007Y-80956022D01*
X173253010Y-80956027D01*
X173255333Y-80961009D01*
X173384550Y-81145550D01*
X173543850Y-81304850D01*
X173548358Y-81308007D01*
X173548361Y-81308009D01*
X173687393Y-81405360D01*
X173728391Y-81434067D01*
X173733373Y-81436390D01*
X173733378Y-81436393D01*
X173927585Y-81526953D01*
X173932567Y-81529276D01*
X173937875Y-81530698D01*
X173937877Y-81530699D01*
X174144859Y-81586159D01*
X174144860Y-81586159D01*
X174150174Y-81587583D01*
X174248376Y-81596175D01*
X174315664Y-81602062D01*
X174315671Y-81602062D01*
X174318388Y-81602300D01*
X174880812Y-81602300D01*
X174883529Y-81602062D01*
X174883536Y-81602062D01*
X174950824Y-81596175D01*
X175049026Y-81587583D01*
X175054340Y-81586159D01*
X175054341Y-81586159D01*
X175261323Y-81530699D01*
X175261325Y-81530698D01*
X175266633Y-81529276D01*
X175271615Y-81526953D01*
X175465822Y-81436393D01*
X175465827Y-81436390D01*
X175470809Y-81434067D01*
X175511807Y-81405360D01*
X175650839Y-81308009D01*
X175650842Y-81308007D01*
X175655350Y-81304850D01*
X175814650Y-81145550D01*
X175943867Y-80961009D01*
X175946190Y-80956027D01*
X175946193Y-80956022D01*
X176036753Y-80761815D01*
X176036754Y-80761814D01*
X176039076Y-80756833D01*
X176097383Y-80539226D01*
X176117018Y-80314800D01*
X176097383Y-80090374D01*
X176080925Y-80028951D01*
X176054837Y-79931585D01*
X176056951Y-79859307D01*
X176099175Y-79732009D01*
X176099176Y-79732007D01*
X176101341Y-79725478D01*
X176112100Y-79620466D01*
X176112100Y-78469134D01*
X176110168Y-78450513D01*
X176101780Y-78369668D01*
X176101779Y-78369664D01*
X176101068Y-78362810D01*
X176098418Y-78354865D01*
X176047115Y-78201094D01*
X176044797Y-78194146D01*
X175951234Y-78042950D01*
X175825399Y-77917334D01*
X175674040Y-77824036D01*
X175651320Y-77816500D01*
X175511809Y-77770225D01*
X175511807Y-77770224D01*
X175505278Y-77768059D01*
X175400266Y-77757300D01*
X173798934Y-77757300D01*
X173795688Y-77757637D01*
X173795684Y-77757637D01*
X173699468Y-77767620D01*
X173699464Y-77767621D01*
X173692610Y-77768332D01*
X173686074Y-77770513D01*
X173686072Y-77770513D01*
X173631011Y-77788883D01*
X173523946Y-77824603D01*
X173372750Y-77918166D01*
X173247134Y-78044001D01*
X173153836Y-78195360D01*
X173151531Y-78202308D01*
X173151531Y-78202309D01*
X173101391Y-78353475D01*
X173097859Y-78364122D01*
X173087100Y-78469134D01*
X173087100Y-79620466D01*
X173098132Y-79726790D01*
X173100314Y-79733330D01*
X173142222Y-79858942D01*
X173144406Y-79931430D01*
X173117452Y-80032025D01*
X173101817Y-80090374D01*
X173082182Y-80314800D01*
X115374245Y-80314800D01*
X109009134Y-73949689D01*
X108998273Y-73937306D01*
X108984679Y-73919590D01*
X108980534Y-73915819D01*
X108980531Y-73915815D01*
X108924202Y-73864560D01*
X108919907Y-73860462D01*
X108903892Y-73844447D01*
X108883780Y-73827630D01*
X108879816Y-73824172D01*
X108877499Y-73822063D01*
X108817992Y-73767916D01*
X108802717Y-73758335D01*
X108794982Y-73752714D01*
X150436106Y-73752714D01*
X150436330Y-73757381D01*
X150436330Y-73757386D01*
X150438053Y-73793251D01*
X150447973Y-73999784D01*
X150448885Y-74004369D01*
X150450292Y-74011441D01*
X150496230Y-74242385D01*
X150497808Y-74246780D01*
X150565700Y-74435874D01*
X150579815Y-74475189D01*
X150696893Y-74693081D01*
X150844891Y-74891275D01*
X150848200Y-74894555D01*
X150848205Y-74894561D01*
X150996078Y-75041149D01*
X151020558Y-75065416D01*
X151024320Y-75068174D01*
X151024323Y-75068177D01*
X151216269Y-75208917D01*
X151220036Y-75211679D01*
X151224167Y-75213853D01*
X151224168Y-75213853D01*
X151434806Y-75324675D01*
X151434812Y-75324677D01*
X151438941Y-75326850D01*
X151443349Y-75328389D01*
X151443355Y-75328392D01*
X151668050Y-75406859D01*
X151672466Y-75408401D01*
X151677059Y-75409273D01*
X151910890Y-75453667D01*
X151910893Y-75453667D01*
X151915479Y-75454538D01*
X152032988Y-75459155D01*
X152157975Y-75464066D01*
X152157980Y-75464066D01*
X152162643Y-75464249D01*
X152276089Y-75451825D01*
X152403874Y-75437831D01*
X152403880Y-75437830D01*
X152408527Y-75437321D01*
X152418646Y-75434657D01*
X152643207Y-75375535D01*
X152643209Y-75375534D01*
X152647730Y-75374344D01*
X152652027Y-75372498D01*
X152870703Y-75278547D01*
X152870705Y-75278546D01*
X152874997Y-75276702D01*
X152980073Y-75211679D01*
X153081362Y-75149000D01*
X153081366Y-75148997D01*
X153085335Y-75146541D01*
X153274124Y-74986719D01*
X153354945Y-74894561D01*
X153434134Y-74804264D01*
X153434138Y-74804259D01*
X153437216Y-74800749D01*
X153487260Y-74722947D01*
X153568500Y-74596645D01*
X153568503Y-74596640D01*
X153571028Y-74592714D01*
X153672621Y-74367186D01*
X153739763Y-74129118D01*
X153755633Y-74004369D01*
X153770581Y-73886873D01*
X153770581Y-73886867D01*
X153770979Y-73883742D01*
X153771534Y-73862570D01*
X153772594Y-73822063D01*
X153773266Y-73796400D01*
X153770019Y-73752714D01*
X157936106Y-73752714D01*
X157936330Y-73757381D01*
X157936330Y-73757386D01*
X157938053Y-73793251D01*
X157947973Y-73999784D01*
X157948885Y-74004369D01*
X157950292Y-74011441D01*
X157996230Y-74242385D01*
X157997808Y-74246780D01*
X158065700Y-74435874D01*
X158079815Y-74475189D01*
X158196893Y-74693081D01*
X158344891Y-74891275D01*
X158348200Y-74894555D01*
X158348205Y-74894561D01*
X158496078Y-75041149D01*
X158520558Y-75065416D01*
X158524320Y-75068174D01*
X158524323Y-75068177D01*
X158716269Y-75208917D01*
X158720036Y-75211679D01*
X158724167Y-75213853D01*
X158724168Y-75213853D01*
X158934806Y-75324675D01*
X158934812Y-75324677D01*
X158938941Y-75326850D01*
X158943349Y-75328389D01*
X158943355Y-75328392D01*
X159168050Y-75406859D01*
X159172466Y-75408401D01*
X159177059Y-75409273D01*
X159410890Y-75453667D01*
X159410893Y-75453667D01*
X159415479Y-75454538D01*
X159532988Y-75459155D01*
X159657975Y-75464066D01*
X159657980Y-75464066D01*
X159662643Y-75464249D01*
X159776089Y-75451825D01*
X159903874Y-75437831D01*
X159903880Y-75437830D01*
X159908527Y-75437321D01*
X159918646Y-75434657D01*
X160143207Y-75375535D01*
X160143209Y-75375534D01*
X160147730Y-75374344D01*
X160152027Y-75372498D01*
X160370703Y-75278547D01*
X160370705Y-75278546D01*
X160374997Y-75276702D01*
X160480073Y-75211679D01*
X160581362Y-75149000D01*
X160581366Y-75148997D01*
X160585335Y-75146541D01*
X160774124Y-74986719D01*
X160854945Y-74894561D01*
X160934134Y-74804264D01*
X160934138Y-74804259D01*
X160937216Y-74800749D01*
X160987260Y-74722947D01*
X161068500Y-74596645D01*
X161068503Y-74596640D01*
X161071028Y-74592714D01*
X161172621Y-74367186D01*
X161239763Y-74129118D01*
X161255633Y-74004369D01*
X161270581Y-73886873D01*
X161270581Y-73886867D01*
X161270979Y-73883742D01*
X161271534Y-73862570D01*
X161272594Y-73822063D01*
X161273266Y-73796400D01*
X161264921Y-73684107D01*
X161255281Y-73554378D01*
X161255280Y-73554374D01*
X161254935Y-73549726D01*
X161250479Y-73530031D01*
X161201375Y-73313028D01*
X161200344Y-73308471D01*
X161198651Y-73304117D01*
X161112387Y-73082288D01*
X161112386Y-73082285D01*
X161110694Y-73077935D01*
X161108376Y-73073879D01*
X160990272Y-72867239D01*
X160990270Y-72867237D01*
X160987953Y-72863182D01*
X160834817Y-72668930D01*
X160654651Y-72499448D01*
X160632370Y-72483991D01*
X160455256Y-72361121D01*
X160455253Y-72361119D01*
X160451414Y-72358456D01*
X160447224Y-72356390D01*
X160447221Y-72356388D01*
X160233756Y-72251119D01*
X160233753Y-72251118D01*
X160229568Y-72249054D01*
X160186223Y-72235179D01*
X159998434Y-72175068D01*
X159998436Y-72175068D01*
X159993989Y-72173645D01*
X159768923Y-72136991D01*
X159754463Y-72134636D01*
X159754462Y-72134636D01*
X159749851Y-72133885D01*
X159626185Y-72132266D01*
X159507195Y-72130708D01*
X159507192Y-72130708D01*
X159502518Y-72130647D01*
X159405045Y-72143913D01*
X159262063Y-72163371D01*
X159262056Y-72163372D01*
X159257423Y-72164003D01*
X159252933Y-72165312D01*
X159252927Y-72165313D01*
X159152181Y-72194678D01*
X159019951Y-72233220D01*
X159015704Y-72235178D01*
X159015701Y-72235179D01*
X158988691Y-72247631D01*
X158795318Y-72336777D01*
X158791409Y-72339340D01*
X158592369Y-72469836D01*
X158592365Y-72469839D01*
X158588459Y-72472400D01*
X158584976Y-72475509D01*
X158584973Y-72475511D01*
X158561144Y-72496779D01*
X158403918Y-72637108D01*
X158245750Y-72827285D01*
X158117430Y-73038751D01*
X158115621Y-73043065D01*
X158115620Y-73043067D01*
X158102700Y-73073879D01*
X158021775Y-73266861D01*
X157960888Y-73506604D01*
X157936106Y-73752714D01*
X153770019Y-73752714D01*
X153764921Y-73684107D01*
X153755281Y-73554378D01*
X153755280Y-73554374D01*
X153754935Y-73549726D01*
X153750479Y-73530031D01*
X153701375Y-73313028D01*
X153700344Y-73308471D01*
X153698651Y-73304117D01*
X153612387Y-73082288D01*
X153612386Y-73082285D01*
X153610694Y-73077935D01*
X153608376Y-73073879D01*
X153490272Y-72867239D01*
X153490270Y-72867237D01*
X153487953Y-72863182D01*
X153334817Y-72668930D01*
X153154651Y-72499448D01*
X153132370Y-72483991D01*
X152955256Y-72361121D01*
X152955253Y-72361119D01*
X152951414Y-72358456D01*
X152947224Y-72356390D01*
X152947221Y-72356388D01*
X152733756Y-72251119D01*
X152733753Y-72251118D01*
X152729568Y-72249054D01*
X152686223Y-72235179D01*
X152498434Y-72175068D01*
X152498436Y-72175068D01*
X152493989Y-72173645D01*
X152268923Y-72136991D01*
X152254463Y-72134636D01*
X152254462Y-72134636D01*
X152249851Y-72133885D01*
X152126185Y-72132266D01*
X152007195Y-72130708D01*
X152007192Y-72130708D01*
X152002518Y-72130647D01*
X151905045Y-72143913D01*
X151762063Y-72163371D01*
X151762056Y-72163372D01*
X151757423Y-72164003D01*
X151752933Y-72165312D01*
X151752927Y-72165313D01*
X151652181Y-72194678D01*
X151519951Y-72233220D01*
X151515704Y-72235178D01*
X151515701Y-72235179D01*
X151488691Y-72247631D01*
X151295318Y-72336777D01*
X151291409Y-72339340D01*
X151092369Y-72469836D01*
X151092365Y-72469839D01*
X151088459Y-72472400D01*
X151084976Y-72475509D01*
X151084973Y-72475511D01*
X151061144Y-72496779D01*
X150903918Y-72637108D01*
X150745750Y-72827285D01*
X150617430Y-73038751D01*
X150615621Y-73043065D01*
X150615620Y-73043067D01*
X150602700Y-73073879D01*
X150521775Y-73266861D01*
X150460888Y-73506604D01*
X150436106Y-73752714D01*
X108794982Y-73752714D01*
X108788857Y-73748263D01*
X108779346Y-73740310D01*
X108779338Y-73740304D01*
X108775038Y-73736709D01*
X108770166Y-73733930D01*
X108770163Y-73733928D01*
X108702448Y-73695305D01*
X108697931Y-73692602D01*
X108627080Y-73648157D01*
X108621870Y-73646063D01*
X108621867Y-73646061D01*
X108610346Y-73641429D01*
X108594920Y-73633972D01*
X108579278Y-73625050D01*
X108500503Y-73597154D01*
X108495567Y-73595289D01*
X108423185Y-73566192D01*
X108423183Y-73566191D01*
X108417978Y-73564099D01*
X108400329Y-73560444D01*
X108383823Y-73555836D01*
X108372124Y-73551693D01*
X108372122Y-73551693D01*
X108366840Y-73549822D01*
X108284340Y-73536312D01*
X108279162Y-73535352D01*
X108251060Y-73529532D01*
X108201822Y-73519335D01*
X108201816Y-73519334D01*
X108197295Y-73518398D01*
X108169395Y-73516789D01*
X108156291Y-73515342D01*
X108149978Y-73514308D01*
X108149975Y-73514308D01*
X108144437Y-73513401D01*
X108138824Y-73513489D01*
X108138821Y-73513489D01*
X108037305Y-73515084D01*
X108035326Y-73515100D01*
X105048023Y-73515100D01*
X105045236Y-73515349D01*
X105045230Y-73515349D01*
X104975466Y-73521576D01*
X104880727Y-73530031D01*
X104663349Y-73589499D01*
X104658291Y-73591911D01*
X104658287Y-73591913D01*
X104582986Y-73627830D01*
X104459938Y-73686521D01*
X104276922Y-73818031D01*
X104233761Y-73862570D01*
X104154997Y-73943848D01*
X104120087Y-73979872D01*
X104100228Y-74009425D01*
X103997517Y-74162275D01*
X103997514Y-74162281D01*
X103994391Y-74166928D01*
X103903806Y-74373286D01*
X103851195Y-74592425D01*
X103846174Y-74679497D01*
X103839070Y-74802715D01*
X103838222Y-74817416D01*
X103865297Y-75041149D01*
X103931564Y-75256552D01*
X104034927Y-75456816D01*
X104172121Y-75635610D01*
X104176266Y-75639381D01*
X104176269Y-75639385D01*
X104322818Y-75772734D01*
X104338808Y-75787284D01*
X104343564Y-75790267D01*
X104343566Y-75790269D01*
X104524964Y-75904060D01*
X104524968Y-75904062D01*
X104529720Y-75907043D01*
X104738822Y-75991101D01*
X104959505Y-76036802D01*
X104964118Y-76037068D01*
X105014878Y-76039995D01*
X105014882Y-76039995D01*
X105016701Y-76040100D01*
X107476465Y-76040100D01*
X107544586Y-76060102D01*
X107565560Y-76077005D01*
X120333360Y-88844805D01*
X120367386Y-88907117D01*
X120362321Y-88977932D01*
X120319774Y-89034768D01*
X120253254Y-89059579D01*
X120244265Y-89059900D01*
X108372735Y-89059900D01*
X108304614Y-89039898D01*
X108283640Y-89022995D01*
X90209492Y-70948847D01*
X90104928Y-70861418D01*
X90084946Y-70844711D01*
X90080638Y-70841109D01*
X89884878Y-70729450D01*
X89879601Y-70727581D01*
X89879596Y-70727579D01*
X89677725Y-70656093D01*
X89677720Y-70656092D01*
X89672440Y-70654222D01*
X89450037Y-70617801D01*
X89444424Y-70617889D01*
X89444422Y-70617889D01*
X89328718Y-70619707D01*
X89224699Y-70621341D01*
X89219194Y-70622421D01*
X89009058Y-70663648D01*
X89009054Y-70663649D01*
X89003550Y-70664729D01*
X88998324Y-70666767D01*
X88998319Y-70666768D01*
X88854993Y-70722649D01*
X88793579Y-70746593D01*
X88601423Y-70864346D01*
X88433157Y-71014265D01*
X88294099Y-71191613D01*
X88188644Y-71390784D01*
X88120124Y-71605481D01*
X88090709Y-71828918D01*
X88090973Y-71834518D01*
X88090973Y-71834519D01*
X88094803Y-71915724D01*
X88101325Y-72054033D01*
X88151637Y-72273711D01*
X88153840Y-72278875D01*
X88153840Y-72278876D01*
X88236386Y-72472400D01*
X88240057Y-72481006D01*
X88243139Y-72485697D01*
X88243139Y-72485698D01*
X88340557Y-72634002D01*
X88363788Y-72669368D01*
X88366855Y-72672811D01*
X88366857Y-72672813D01*
X88400693Y-72710791D01*
X88400703Y-72710801D01*
X88401899Y-72712144D01*
X100817261Y-85127506D01*
X100851287Y-85189818D01*
X100846222Y-85260633D01*
X100803675Y-85317469D01*
X100737155Y-85342280D01*
X100728166Y-85342601D01*
X82320400Y-85342601D01*
X82252279Y-85322599D01*
X82205786Y-85268943D01*
X82194400Y-85216601D01*
X82194400Y-66494918D01*
X104905509Y-66494918D01*
X104905773Y-66500518D01*
X104905773Y-66500519D01*
X104909360Y-66576579D01*
X104909500Y-66582514D01*
X104909500Y-66605177D01*
X104909749Y-66607961D01*
X104909749Y-66607972D01*
X104911828Y-66631265D01*
X104912187Y-66636529D01*
X104914797Y-66691874D01*
X104916125Y-66720033D01*
X104920150Y-66737609D01*
X104922830Y-66754530D01*
X104924431Y-66772473D01*
X104946487Y-66853097D01*
X104947765Y-66858187D01*
X104966437Y-66939711D01*
X104973513Y-66956299D01*
X104979145Y-66972473D01*
X104983899Y-66989851D01*
X104986311Y-66994909D01*
X104986313Y-66994913D01*
X105019885Y-67065298D01*
X105022056Y-67070107D01*
X105054857Y-67147006D01*
X105057943Y-67151703D01*
X105057944Y-67151706D01*
X105064750Y-67162068D01*
X105073165Y-67177000D01*
X105080921Y-67193262D01*
X105084191Y-67197812D01*
X105129710Y-67261159D01*
X105132699Y-67265508D01*
X105178588Y-67335368D01*
X105181652Y-67338808D01*
X105181662Y-67338820D01*
X105197183Y-67356240D01*
X105205415Y-67366515D01*
X105212431Y-67376278D01*
X105235864Y-67398986D01*
X105289407Y-67450873D01*
X105290817Y-67452262D01*
X106334363Y-68495808D01*
X106345224Y-68508191D01*
X106358818Y-68525907D01*
X106362963Y-68529678D01*
X106362966Y-68529682D01*
X106419295Y-68580937D01*
X106423590Y-68585035D01*
X106439605Y-68601050D01*
X106459717Y-68617867D01*
X106463671Y-68621316D01*
X106501394Y-68655642D01*
X106512088Y-68665372D01*
X106525505Y-68677581D01*
X106540780Y-68687162D01*
X106554640Y-68697234D01*
X106564151Y-68705187D01*
X106564159Y-68705193D01*
X106568459Y-68708788D01*
X106573331Y-68711567D01*
X106573334Y-68711569D01*
X106641049Y-68750192D01*
X106645566Y-68752895D01*
X106716417Y-68797340D01*
X106721627Y-68799434D01*
X106721630Y-68799436D01*
X106733151Y-68804068D01*
X106748574Y-68811524D01*
X106764219Y-68820447D01*
X106843036Y-68848358D01*
X106847930Y-68850208D01*
X106925519Y-68881398D01*
X106943171Y-68885053D01*
X106959664Y-68889659D01*
X106976657Y-68895676D01*
X107059178Y-68909190D01*
X107064340Y-68910147D01*
X107099080Y-68917341D01*
X107141675Y-68926162D01*
X107141681Y-68926163D01*
X107146202Y-68927099D01*
X107173759Y-68928688D01*
X107174101Y-68928708D01*
X107187207Y-68930155D01*
X107193520Y-68931189D01*
X107193523Y-68931189D01*
X107199061Y-68932096D01*
X107204674Y-68932008D01*
X107204677Y-68932008D01*
X107306193Y-68930413D01*
X107308172Y-68930397D01*
X119457956Y-68930397D01*
X119460743Y-68930148D01*
X119460749Y-68930148D01*
X119530513Y-68923921D01*
X119625252Y-68915466D01*
X119842630Y-68855998D01*
X119847688Y-68853586D01*
X119847692Y-68853584D01*
X119971863Y-68794357D01*
X120046041Y-68758976D01*
X120229057Y-68627466D01*
X120294142Y-68560304D01*
X120381989Y-68469653D01*
X120381991Y-68469650D01*
X120385892Y-68465625D01*
X120453944Y-68364353D01*
X120508462Y-68283222D01*
X120508465Y-68283216D01*
X120511588Y-68278569D01*
X120584032Y-68113538D01*
X120599916Y-68077353D01*
X120599917Y-68077351D01*
X120602173Y-68072211D01*
X120654784Y-67853072D01*
X120664200Y-67689767D01*
X217607367Y-67689767D01*
X217630942Y-67767851D01*
X217635617Y-67779193D01*
X217724935Y-67947177D01*
X217731722Y-67957393D01*
X217851972Y-68104834D01*
X217860616Y-68113538D01*
X218007209Y-68234810D01*
X218017380Y-68241670D01*
X218051465Y-68260100D01*
X218065256Y-68263040D01*
X218066794Y-68260968D01*
X218067400Y-68257569D01*
X218067400Y-67696315D01*
X218062925Y-67681076D01*
X218061535Y-67679871D01*
X218053852Y-67678200D01*
X217621990Y-67678200D01*
X217608459Y-67682173D01*
X217607367Y-67689767D01*
X120664200Y-67689767D01*
X120667757Y-67628081D01*
X120640682Y-67404348D01*
X120574415Y-67188945D01*
X120471052Y-66988681D01*
X120333858Y-66809887D01*
X120329713Y-66806116D01*
X120329710Y-66806112D01*
X120171324Y-66661992D01*
X120167171Y-66658213D01*
X120132604Y-66636529D01*
X119981015Y-66541437D01*
X119981011Y-66541435D01*
X119976259Y-66538454D01*
X119767157Y-66454396D01*
X119546474Y-66408695D01*
X119541861Y-66408429D01*
X119491101Y-66405502D01*
X119491097Y-66405502D01*
X119489278Y-66405397D01*
X107867032Y-66405397D01*
X107798911Y-66385395D01*
X107777937Y-66368492D01*
X107489516Y-66080071D01*
X171800490Y-66080071D01*
X171800787Y-66085223D01*
X171800787Y-66085227D01*
X171806545Y-66185085D01*
X171814440Y-66322002D01*
X171815577Y-66327048D01*
X171815578Y-66327054D01*
X171846576Y-66464602D01*
X171867716Y-66558407D01*
X171869658Y-66563189D01*
X171869659Y-66563193D01*
X171956944Y-66778149D01*
X171958888Y-66782936D01*
X172085507Y-66989559D01*
X172244172Y-67172727D01*
X172248147Y-67176027D01*
X172248150Y-67176030D01*
X172268906Y-67193262D01*
X172430623Y-67327522D01*
X172639853Y-67449786D01*
X172644673Y-67451626D01*
X172644678Y-67451629D01*
X172753020Y-67493000D01*
X172866242Y-67536235D01*
X172871310Y-67537266D01*
X172871313Y-67537267D01*
X172988580Y-67561125D01*
X173103710Y-67584549D01*
X173108885Y-67584739D01*
X173108887Y-67584739D01*
X173340717Y-67593240D01*
X173340721Y-67593240D01*
X173345881Y-67593429D01*
X173351001Y-67592773D01*
X173351003Y-67592773D01*
X173426115Y-67583151D01*
X173586250Y-67562637D01*
X173591201Y-67561152D01*
X173591204Y-67561151D01*
X173813412Y-67494485D01*
X173813411Y-67494485D01*
X173818362Y-67493000D01*
X173937955Y-67434412D01*
X218574900Y-67434412D01*
X218575138Y-67437129D01*
X218575138Y-67437136D01*
X218579827Y-67490724D01*
X218589617Y-67602626D01*
X218591041Y-67607940D01*
X218591041Y-67607941D01*
X218614721Y-67696315D01*
X218647924Y-67820233D01*
X218650246Y-67825214D01*
X218650247Y-67825215D01*
X218740807Y-68019422D01*
X218740810Y-68019427D01*
X218743133Y-68024409D01*
X218746289Y-68028916D01*
X218746290Y-68028918D01*
X218771842Y-68065409D01*
X218872350Y-68208950D01*
X219031650Y-68368250D01*
X219036158Y-68371407D01*
X219036161Y-68371409D01*
X219164069Y-68460971D01*
X219216191Y-68497467D01*
X219221173Y-68499790D01*
X219221178Y-68499793D01*
X219415385Y-68590353D01*
X219420367Y-68592676D01*
X219425675Y-68594098D01*
X219425677Y-68594099D01*
X219632659Y-68649559D01*
X219632660Y-68649559D01*
X219637974Y-68650983D01*
X219862400Y-68670618D01*
X220086826Y-68650983D01*
X220112943Y-68643985D01*
X220245615Y-68608437D01*
X220317893Y-68610551D01*
X220445191Y-68652775D01*
X220445193Y-68652776D01*
X220451722Y-68654941D01*
X220556734Y-68665700D01*
X221708066Y-68665700D01*
X221711312Y-68665363D01*
X221711316Y-68665363D01*
X221807532Y-68655380D01*
X221807536Y-68655379D01*
X221814390Y-68654668D01*
X221820926Y-68652487D01*
X221820928Y-68652487D01*
X221976106Y-68600715D01*
X221983054Y-68598397D01*
X222134250Y-68504834D01*
X222259866Y-68378999D01*
X222264545Y-68371409D01*
X222331343Y-68263040D01*
X222353164Y-68227640D01*
X222409141Y-68058878D01*
X222419900Y-67953866D01*
X222419900Y-66352534D01*
X222419563Y-66349284D01*
X222409580Y-66253068D01*
X222409579Y-66253064D01*
X222408868Y-66246210D01*
X222390550Y-66191303D01*
X222354915Y-66084494D01*
X222352597Y-66077546D01*
X222259034Y-65926350D01*
X222133199Y-65800734D01*
X221981840Y-65707436D01*
X221946826Y-65695822D01*
X221819609Y-65653625D01*
X221819607Y-65653624D01*
X221813078Y-65651459D01*
X221708066Y-65640700D01*
X220556734Y-65640700D01*
X220553488Y-65641037D01*
X220553484Y-65641037D01*
X220523364Y-65644162D01*
X220450410Y-65651732D01*
X220443870Y-65653914D01*
X220318258Y-65695822D01*
X220245771Y-65698006D01*
X220167387Y-65677003D01*
X220092141Y-65656841D01*
X220092139Y-65656841D01*
X220086826Y-65655417D01*
X219862400Y-65635782D01*
X219637974Y-65655417D01*
X219632660Y-65656841D01*
X219632659Y-65656841D01*
X219425677Y-65712301D01*
X219425675Y-65712302D01*
X219420367Y-65713724D01*
X219415386Y-65716046D01*
X219415385Y-65716047D01*
X219221178Y-65806607D01*
X219221173Y-65806610D01*
X219216191Y-65808933D01*
X219211684Y-65812089D01*
X219211682Y-65812090D01*
X219036161Y-65934991D01*
X219036158Y-65934993D01*
X219031650Y-65938150D01*
X218872350Y-66097450D01*
X218869193Y-66101958D01*
X218869191Y-66101961D01*
X218810987Y-66185085D01*
X218743133Y-66281991D01*
X218740810Y-66286973D01*
X218740807Y-66286978D01*
X218663270Y-66453257D01*
X218647924Y-66486167D01*
X218646502Y-66491475D01*
X218646501Y-66491477D01*
X218608342Y-66633891D01*
X218589617Y-66703774D01*
X218574900Y-66871988D01*
X218574900Y-67434412D01*
X173937955Y-67434412D01*
X173943548Y-67431672D01*
X174031333Y-67388667D01*
X174031338Y-67388664D01*
X174035984Y-67386388D01*
X174040194Y-67383385D01*
X174040199Y-67383382D01*
X174229059Y-67248669D01*
X174229064Y-67248665D01*
X174233271Y-67245664D01*
X174404926Y-67074608D01*
X174462193Y-66994913D01*
X174543319Y-66882013D01*
X174546337Y-66877813D01*
X174577709Y-66814338D01*
X174632353Y-66703774D01*
X174653708Y-66660565D01*
X174664504Y-66625031D01*
X217608965Y-66625031D01*
X217615525Y-66628200D01*
X218049285Y-66628200D01*
X218064524Y-66623725D01*
X218065729Y-66622335D01*
X218067400Y-66614652D01*
X218067400Y-66055082D01*
X218063427Y-66041551D01*
X218060415Y-66041118D01*
X218057916Y-66041925D01*
X218029489Y-66056786D01*
X218019227Y-66063502D01*
X217870957Y-66182715D01*
X217862187Y-66191303D01*
X217739901Y-66337038D01*
X217732963Y-66347169D01*
X217641306Y-66513892D01*
X217636476Y-66525162D01*
X217609269Y-66610930D01*
X217608965Y-66625031D01*
X174664504Y-66625031D01*
X174690808Y-66538454D01*
X174722651Y-66433649D01*
X174722652Y-66433643D01*
X174724155Y-66428697D01*
X174755786Y-66188437D01*
X174757551Y-66116200D01*
X174737695Y-65874682D01*
X174678659Y-65639649D01*
X174582028Y-65417415D01*
X174450399Y-65213947D01*
X174287306Y-65034710D01*
X174097128Y-64884517D01*
X173884974Y-64767401D01*
X173749462Y-64719414D01*
X173661413Y-64688234D01*
X173661410Y-64688233D01*
X173656541Y-64686509D01*
X173651452Y-64685602D01*
X173651450Y-64685602D01*
X173578194Y-64672553D01*
X173417963Y-64644012D01*
X173327435Y-64642906D01*
X173180818Y-64641114D01*
X173180816Y-64641114D01*
X173175648Y-64641051D01*
X172936103Y-64677707D01*
X172705761Y-64752994D01*
X172490809Y-64864891D01*
X172486676Y-64867994D01*
X172486673Y-64867996D01*
X172301153Y-65007288D01*
X172297018Y-65010393D01*
X172129595Y-65185592D01*
X172126681Y-65189864D01*
X172126680Y-65189865D01*
X172107292Y-65218287D01*
X171993034Y-65385783D01*
X171891003Y-65605590D01*
X171889621Y-65610572D01*
X171889621Y-65610573D01*
X171836885Y-65800734D01*
X171826242Y-65839110D01*
X171825693Y-65844247D01*
X171801426Y-66071315D01*
X171800490Y-66080071D01*
X107489516Y-66080071D01*
X107471405Y-66061960D01*
X107437379Y-65999648D01*
X107434500Y-65972865D01*
X107434500Y-64585823D01*
X107431868Y-64556325D01*
X107420068Y-64424122D01*
X107419569Y-64418527D01*
X107360101Y-64201149D01*
X107354298Y-64188981D01*
X107265493Y-64002800D01*
X107263079Y-63997738D01*
X107131569Y-63814722D01*
X107019899Y-63706506D01*
X106973756Y-63661790D01*
X106973753Y-63661788D01*
X106969728Y-63657887D01*
X106848086Y-63576147D01*
X106787325Y-63535317D01*
X106787319Y-63535314D01*
X106782672Y-63532191D01*
X106576314Y-63441606D01*
X106458329Y-63413280D01*
X106362632Y-63390305D01*
X106362631Y-63390305D01*
X106357175Y-63388995D01*
X106270103Y-63383974D01*
X106137791Y-63376345D01*
X106137788Y-63376345D01*
X106132184Y-63376022D01*
X105908451Y-63403097D01*
X105693048Y-63469364D01*
X105492784Y-63572727D01*
X105313990Y-63709921D01*
X105310219Y-63714066D01*
X105310215Y-63714069D01*
X105176866Y-63860618D01*
X105162316Y-63876608D01*
X105159333Y-63881364D01*
X105159331Y-63881366D01*
X105075264Y-64015381D01*
X105042557Y-64067520D01*
X104958499Y-64276622D01*
X104912798Y-64497305D01*
X104909500Y-64554501D01*
X104909500Y-66456345D01*
X104908422Y-66472790D01*
X104905509Y-66494918D01*
X82194400Y-66494918D01*
X82194400Y-58459816D01*
X88903022Y-58459816D01*
X88903697Y-58465392D01*
X88906587Y-58489274D01*
X88907500Y-58504412D01*
X88907500Y-62087545D01*
X88906422Y-62103990D01*
X88903509Y-62126118D01*
X88903773Y-62131718D01*
X88903773Y-62131719D01*
X88907360Y-62207779D01*
X88907500Y-62213714D01*
X88907500Y-62236377D01*
X88907749Y-62239161D01*
X88907749Y-62239172D01*
X88909828Y-62262465D01*
X88910187Y-62267729D01*
X88914125Y-62351233D01*
X88918150Y-62368809D01*
X88920830Y-62385730D01*
X88922431Y-62403673D01*
X88944487Y-62484297D01*
X88945765Y-62489387D01*
X88964437Y-62570911D01*
X88971513Y-62587499D01*
X88977145Y-62603673D01*
X88981899Y-62621051D01*
X88984311Y-62626109D01*
X88984313Y-62626113D01*
X89017885Y-62696498D01*
X89020056Y-62701307D01*
X89052857Y-62778206D01*
X89055943Y-62782903D01*
X89055944Y-62782906D01*
X89062750Y-62793268D01*
X89071165Y-62808200D01*
X89078921Y-62824462D01*
X89082191Y-62829012D01*
X89127710Y-62892359D01*
X89130699Y-62896708D01*
X89176588Y-62966568D01*
X89179652Y-62970008D01*
X89179662Y-62970020D01*
X89195183Y-62987440D01*
X89203415Y-62997715D01*
X89210431Y-63007478D01*
X89287419Y-63082084D01*
X89288829Y-63083473D01*
X89419308Y-63213952D01*
X89548162Y-63321691D01*
X89743921Y-63433350D01*
X89749206Y-63435221D01*
X89749207Y-63435222D01*
X89841448Y-63467886D01*
X89956360Y-63508578D01*
X90178763Y-63544999D01*
X90184376Y-63544911D01*
X90184378Y-63544911D01*
X90300082Y-63543093D01*
X90404101Y-63541459D01*
X90435407Y-63535317D01*
X90619742Y-63499152D01*
X90619746Y-63499151D01*
X90625250Y-63498071D01*
X90630476Y-63496033D01*
X90630481Y-63496032D01*
X90830001Y-63418242D01*
X90835221Y-63416207D01*
X91027377Y-63298454D01*
X91195643Y-63148535D01*
X91309813Y-63002928D01*
X91331234Y-62975608D01*
X91331235Y-62975606D01*
X91334701Y-62971186D01*
X91440156Y-62772016D01*
X91462723Y-62701307D01*
X91506969Y-62562665D01*
X91506969Y-62562664D01*
X91508675Y-62557319D01*
X91538091Y-62333882D01*
X91527475Y-62108767D01*
X91477163Y-61889089D01*
X91474962Y-61883928D01*
X91474960Y-61883923D01*
X91442603Y-61808065D01*
X91432500Y-61758630D01*
X91432500Y-59808500D01*
X91452502Y-59740379D01*
X91506158Y-59693886D01*
X91558500Y-59682500D01*
X114253155Y-59682500D01*
X114321276Y-59702502D01*
X114342250Y-59719405D01*
X118527708Y-63904863D01*
X118529866Y-63906668D01*
X118529870Y-63906671D01*
X118633341Y-63993185D01*
X118656562Y-64012601D01*
X118852322Y-64124260D01*
X118857599Y-64126129D01*
X118857604Y-64126131D01*
X119059475Y-64197617D01*
X119059480Y-64197618D01*
X119064760Y-64199488D01*
X119070291Y-64200394D01*
X119070292Y-64200394D01*
X119107945Y-64206560D01*
X119287163Y-64235909D01*
X119292776Y-64235821D01*
X119292778Y-64235821D01*
X119408482Y-64234003D01*
X119512501Y-64232369D01*
X119518006Y-64231289D01*
X119728142Y-64190062D01*
X119728146Y-64190061D01*
X119733650Y-64188981D01*
X119738876Y-64186943D01*
X119738881Y-64186942D01*
X119938401Y-64109152D01*
X119943621Y-64107117D01*
X120135777Y-63989364D01*
X120304043Y-63839445D01*
X120319854Y-63819281D01*
X120439638Y-63666514D01*
X120439640Y-63666511D01*
X120443101Y-63662097D01*
X120525376Y-63506705D01*
X120545930Y-63467886D01*
X120545931Y-63467884D01*
X120548556Y-63462926D01*
X120617076Y-63248229D01*
X120621589Y-63213952D01*
X120645759Y-63030351D01*
X120646491Y-63024792D01*
X120635875Y-62799677D01*
X120585563Y-62579999D01*
X120497143Y-62372704D01*
X120471642Y-62333882D01*
X120375946Y-62188199D01*
X120375943Y-62188195D01*
X120373412Y-62184342D01*
X120370343Y-62180897D01*
X120336507Y-62142919D01*
X120336497Y-62142909D01*
X120335301Y-62141566D01*
X119985804Y-61792069D01*
X172059601Y-61792069D01*
X172059971Y-61798890D01*
X172065495Y-61849752D01*
X172069121Y-61865004D01*
X172114276Y-61985454D01*
X172122814Y-62001049D01*
X172199315Y-62103124D01*
X172211876Y-62115685D01*
X172313951Y-62192186D01*
X172329546Y-62200724D01*
X172449994Y-62245878D01*
X172465249Y-62249505D01*
X172516114Y-62255031D01*
X172522928Y-62255400D01*
X172660685Y-62255400D01*
X172675924Y-62250925D01*
X172677129Y-62249535D01*
X172678800Y-62241852D01*
X172678800Y-62237284D01*
X173878800Y-62237284D01*
X173883275Y-62252523D01*
X173884665Y-62253728D01*
X173892348Y-62255399D01*
X174034669Y-62255399D01*
X174041490Y-62255029D01*
X174092352Y-62249505D01*
X174107604Y-62245879D01*
X174228054Y-62200724D01*
X174243649Y-62192186D01*
X174345724Y-62115685D01*
X174358285Y-62103124D01*
X174434786Y-62001049D01*
X174443324Y-61985454D01*
X174488478Y-61865006D01*
X174492105Y-61849751D01*
X174497631Y-61798886D01*
X174498000Y-61792072D01*
X174498000Y-61654315D01*
X174493525Y-61639076D01*
X174492135Y-61637871D01*
X174484452Y-61636200D01*
X173896915Y-61636200D01*
X173881676Y-61640675D01*
X173880471Y-61642065D01*
X173878800Y-61649748D01*
X173878800Y-62237284D01*
X172678800Y-62237284D01*
X172678800Y-61654315D01*
X172674325Y-61639076D01*
X172672935Y-61637871D01*
X172665252Y-61636200D01*
X172077716Y-61636200D01*
X172062477Y-61640675D01*
X172061272Y-61642065D01*
X172059601Y-61649748D01*
X172059601Y-61792069D01*
X119985804Y-61792069D01*
X118611820Y-60418085D01*
X172059600Y-60418085D01*
X172064075Y-60433324D01*
X172065465Y-60434529D01*
X172073148Y-60436200D01*
X172660685Y-60436200D01*
X172675924Y-60431725D01*
X172677129Y-60430335D01*
X172678800Y-60422652D01*
X172678800Y-60418085D01*
X173878800Y-60418085D01*
X173883275Y-60433324D01*
X173884665Y-60434529D01*
X173892348Y-60436200D01*
X174479884Y-60436200D01*
X174495123Y-60431725D01*
X174496328Y-60430335D01*
X174497999Y-60422652D01*
X174497999Y-60280331D01*
X174497629Y-60273510D01*
X174492105Y-60222648D01*
X174488479Y-60207396D01*
X174471915Y-60163213D01*
X217533705Y-60163213D01*
X217533929Y-60167880D01*
X217533929Y-60167885D01*
X217536560Y-60222649D01*
X217545572Y-60410283D01*
X217593829Y-60652884D01*
X217677414Y-60885688D01*
X217794492Y-61103580D01*
X217942490Y-61301774D01*
X217945799Y-61305054D01*
X217945804Y-61305060D01*
X218114840Y-61472627D01*
X218118157Y-61475915D01*
X218121919Y-61478673D01*
X218121922Y-61478676D01*
X218232151Y-61559499D01*
X218317635Y-61622178D01*
X218321766Y-61624352D01*
X218321767Y-61624352D01*
X218532405Y-61735174D01*
X218532411Y-61735176D01*
X218536540Y-61737349D01*
X218540948Y-61738888D01*
X218540954Y-61738891D01*
X218712765Y-61798890D01*
X218770065Y-61818900D01*
X218774658Y-61819772D01*
X219008489Y-61864166D01*
X219008492Y-61864166D01*
X219013078Y-61865037D01*
X219130587Y-61869654D01*
X219255574Y-61874565D01*
X219255579Y-61874565D01*
X219260242Y-61874748D01*
X219356868Y-61864166D01*
X219501473Y-61848330D01*
X219501479Y-61848329D01*
X219506126Y-61847820D01*
X219691975Y-61798890D01*
X219740806Y-61786034D01*
X219740808Y-61786033D01*
X219745329Y-61784843D01*
X219749626Y-61782997D01*
X219968302Y-61689046D01*
X219968304Y-61689045D01*
X219972596Y-61687201D01*
X220077672Y-61622178D01*
X220178961Y-61559499D01*
X220178965Y-61559496D01*
X220182934Y-61557040D01*
X220371723Y-61397218D01*
X220452544Y-61305060D01*
X220531733Y-61214763D01*
X220531737Y-61214758D01*
X220534815Y-61211248D01*
X220668627Y-61003213D01*
X220770220Y-60777685D01*
X220837362Y-60539617D01*
X220853232Y-60414868D01*
X220868180Y-60297372D01*
X220868180Y-60297366D01*
X220868578Y-60294241D01*
X220868943Y-60280328D01*
X220869862Y-60245205D01*
X220870865Y-60206899D01*
X220852534Y-59960225D01*
X220843831Y-59921761D01*
X220798974Y-59723527D01*
X220797943Y-59718970D01*
X220791539Y-59702502D01*
X220709986Y-59492787D01*
X220709985Y-59492784D01*
X220708293Y-59488434D01*
X220705975Y-59484378D01*
X220587871Y-59277738D01*
X220587869Y-59277736D01*
X220585552Y-59273681D01*
X220432416Y-59079429D01*
X220252250Y-58909947D01*
X220248403Y-58907278D01*
X220052855Y-58771620D01*
X220052852Y-58771618D01*
X220049013Y-58768955D01*
X220044823Y-58766889D01*
X220044820Y-58766887D01*
X219831355Y-58661618D01*
X219831352Y-58661617D01*
X219827167Y-58659553D01*
X219783822Y-58645678D01*
X219596033Y-58585567D01*
X219596035Y-58585567D01*
X219591588Y-58584144D01*
X219457934Y-58562377D01*
X219352062Y-58545135D01*
X219352061Y-58545135D01*
X219347450Y-58544384D01*
X219223783Y-58542765D01*
X219104794Y-58541207D01*
X219104791Y-58541207D01*
X219100117Y-58541146D01*
X219002644Y-58554412D01*
X218859662Y-58573870D01*
X218859655Y-58573871D01*
X218855022Y-58574502D01*
X218850532Y-58575811D01*
X218850526Y-58575812D01*
X218749780Y-58605177D01*
X218617550Y-58643719D01*
X218613303Y-58645677D01*
X218613300Y-58645678D01*
X218586290Y-58658130D01*
X218392917Y-58747276D01*
X218389008Y-58749839D01*
X218189968Y-58880335D01*
X218189964Y-58880338D01*
X218186058Y-58882899D01*
X218001517Y-59047607D01*
X217843349Y-59237784D01*
X217715029Y-59449250D01*
X217713220Y-59453564D01*
X217713219Y-59453566D01*
X217700299Y-59484378D01*
X217619374Y-59677360D01*
X217618223Y-59681892D01*
X217618222Y-59681895D01*
X217615177Y-59693886D01*
X217558487Y-59917103D01*
X217533705Y-60163213D01*
X174471915Y-60163213D01*
X174443324Y-60086946D01*
X174434786Y-60071351D01*
X174358285Y-59969276D01*
X174345724Y-59956715D01*
X174243649Y-59880214D01*
X174228054Y-59871676D01*
X174107606Y-59826522D01*
X174092351Y-59822895D01*
X174041486Y-59817369D01*
X174034672Y-59817000D01*
X173896915Y-59817000D01*
X173881676Y-59821475D01*
X173880471Y-59822865D01*
X173878800Y-59830548D01*
X173878800Y-60418085D01*
X172678800Y-60418085D01*
X172678800Y-59835116D01*
X172674325Y-59819877D01*
X172672935Y-59818672D01*
X172665252Y-59817001D01*
X172522931Y-59817001D01*
X172516110Y-59817371D01*
X172465248Y-59822895D01*
X172449996Y-59826521D01*
X172329546Y-59871676D01*
X172313951Y-59880214D01*
X172211876Y-59956715D01*
X172199315Y-59969276D01*
X172122814Y-60071351D01*
X172114276Y-60086946D01*
X172069122Y-60207394D01*
X172065495Y-60222649D01*
X172059969Y-60273514D01*
X172059600Y-60280328D01*
X172059600Y-60418085D01*
X118611820Y-60418085D01*
X115785824Y-57592089D01*
X115774963Y-57579706D01*
X115761369Y-57561990D01*
X115757224Y-57558219D01*
X115757221Y-57558215D01*
X115700892Y-57506960D01*
X115696597Y-57502862D01*
X115680582Y-57486847D01*
X115676587Y-57483506D01*
X115666134Y-57474767D01*
X115660470Y-57470030D01*
X115656506Y-57466572D01*
X115649758Y-57460431D01*
X115594682Y-57410316D01*
X115579407Y-57400735D01*
X115565547Y-57390663D01*
X115556036Y-57382710D01*
X115556028Y-57382704D01*
X115551728Y-57379109D01*
X115546856Y-57376330D01*
X115546853Y-57376328D01*
X115479138Y-57337705D01*
X115474621Y-57335002D01*
X115403770Y-57290557D01*
X115398560Y-57288463D01*
X115398557Y-57288461D01*
X115387036Y-57283829D01*
X115371610Y-57276372D01*
X115355968Y-57267450D01*
X115277193Y-57239554D01*
X115272257Y-57237689D01*
X115199875Y-57208592D01*
X115199873Y-57208591D01*
X115194668Y-57206499D01*
X115177019Y-57202844D01*
X115160513Y-57198236D01*
X115148814Y-57194093D01*
X115148812Y-57194093D01*
X115143530Y-57192222D01*
X115061030Y-57178712D01*
X115055852Y-57177752D01*
X115027750Y-57171932D01*
X114978512Y-57161735D01*
X114978506Y-57161734D01*
X114973985Y-57160798D01*
X114946085Y-57159189D01*
X114932981Y-57157742D01*
X114926668Y-57156708D01*
X114926665Y-57156708D01*
X114921127Y-57155801D01*
X114915514Y-57155889D01*
X114915511Y-57155889D01*
X114813995Y-57157484D01*
X114812016Y-57157500D01*
X90211474Y-57157500D01*
X90204221Y-57157291D01*
X90135791Y-57153345D01*
X90135788Y-57153345D01*
X90130184Y-57153022D01*
X90039943Y-57163943D01*
X90036040Y-57164353D01*
X90000758Y-57167502D01*
X89951114Y-57171932D01*
X89951110Y-57171933D01*
X89945527Y-57172431D01*
X89940115Y-57173911D01*
X89940112Y-57173912D01*
X89935194Y-57175257D01*
X89917085Y-57178810D01*
X89912026Y-57179422D01*
X89912023Y-57179423D01*
X89906451Y-57180097D01*
X89819548Y-57206832D01*
X89815781Y-57207926D01*
X89728149Y-57231899D01*
X89723083Y-57234316D01*
X89723079Y-57234317D01*
X89718484Y-57236509D01*
X89701290Y-57243213D01*
X89696413Y-57244713D01*
X89696407Y-57244716D01*
X89691048Y-57246364D01*
X89686061Y-57248938D01*
X89686056Y-57248940D01*
X89610283Y-57288049D01*
X89606738Y-57289809D01*
X89524738Y-57328921D01*
X89520185Y-57332193D01*
X89520183Y-57332194D01*
X89516043Y-57335169D01*
X89500313Y-57344808D01*
X89495775Y-57347151D01*
X89490784Y-57349727D01*
X89486330Y-57353144D01*
X89486331Y-57353144D01*
X89418695Y-57405043D01*
X89415517Y-57407404D01*
X89380358Y-57432669D01*
X89341722Y-57460431D01*
X89334269Y-57468122D01*
X89320489Y-57480400D01*
X89311990Y-57486921D01*
X89308211Y-57491074D01*
X89308210Y-57491075D01*
X89250831Y-57554133D01*
X89248126Y-57557014D01*
X89184887Y-57622272D01*
X89181762Y-57626922D01*
X89181760Y-57626925D01*
X89178914Y-57631161D01*
X89167528Y-57645682D01*
X89160316Y-57653608D01*
X89157335Y-57658360D01*
X89157329Y-57658368D01*
X89112015Y-57730605D01*
X89109890Y-57733878D01*
X89059191Y-57809328D01*
X89056940Y-57814456D01*
X89056936Y-57814463D01*
X89054882Y-57819142D01*
X89046253Y-57835440D01*
X89040557Y-57844520D01*
X89006658Y-57928847D01*
X89005141Y-57932456D01*
X88968606Y-58015686D01*
X88967298Y-58021136D01*
X88967296Y-58021141D01*
X88966106Y-58026100D01*
X88960496Y-58043679D01*
X88956499Y-58053622D01*
X88955361Y-58059117D01*
X88938075Y-58142587D01*
X88937212Y-58146449D01*
X88915995Y-58234825D01*
X88915672Y-58240430D01*
X88915379Y-58245513D01*
X88912969Y-58263818D01*
X88911735Y-58269776D01*
X88911733Y-58269789D01*
X88910798Y-58274305D01*
X88907500Y-58331501D01*
X88907500Y-58378526D01*
X88907291Y-58385778D01*
X88903022Y-58459816D01*
X82194400Y-58459816D01*
X82194400Y-56532999D01*
X218730047Y-56532999D01*
X218732922Y-56536840D01*
X218802526Y-56563419D01*
X218812424Y-56566295D01*
X219029451Y-56610449D01*
X219039680Y-56611668D01*
X219261002Y-56619785D01*
X219271288Y-56619318D01*
X219490966Y-56591176D01*
X219501052Y-56589033D01*
X219664123Y-56540109D01*
X219675941Y-56532415D01*
X219675551Y-56529806D01*
X219673632Y-56527060D01*
X219214811Y-56068239D01*
X219200867Y-56060625D01*
X219199034Y-56060756D01*
X219192419Y-56065007D01*
X218736807Y-56520619D01*
X218730047Y-56532999D01*
X82194400Y-56532999D01*
X82194400Y-55177495D01*
X217788187Y-55177495D01*
X217800936Y-55398595D01*
X217802372Y-55408816D01*
X217851059Y-55624854D01*
X217854143Y-55634695D01*
X217867985Y-55668783D01*
X217876757Y-55679826D01*
X217881792Y-55678578D01*
X218340659Y-55219711D01*
X218347037Y-55208031D01*
X220055725Y-55208031D01*
X220055856Y-55209864D01*
X220060107Y-55216479D01*
X220516981Y-55673353D01*
X220529361Y-55680113D01*
X220531565Y-55678463D01*
X220532985Y-55675659D01*
X220583082Y-55510768D01*
X220585259Y-55500698D01*
X220614404Y-55279321D01*
X220614923Y-55272646D01*
X220616448Y-55210263D01*
X220616254Y-55203545D01*
X220597960Y-54981020D01*
X220596277Y-54970858D01*
X220542324Y-54756060D01*
X220539002Y-54746301D01*
X220537778Y-54743486D01*
X220528739Y-54732661D01*
X220523266Y-54734160D01*
X220063339Y-55194087D01*
X220055725Y-55208031D01*
X218347037Y-55208031D01*
X218348273Y-55205767D01*
X218348142Y-55203934D01*
X218343891Y-55197319D01*
X217885235Y-54738663D01*
X217872855Y-54731903D01*
X217871302Y-54733065D01*
X217869281Y-54737181D01*
X217813905Y-54936859D01*
X217811974Y-54946979D01*
X217788439Y-55167206D01*
X217788187Y-55177495D01*
X82194400Y-55177495D01*
X82194400Y-53882417D01*
X218729286Y-53882417D01*
X218729880Y-53885815D01*
X218730987Y-53887359D01*
X219189187Y-54345559D01*
X219203131Y-54353173D01*
X219204964Y-54353042D01*
X219211579Y-54348791D01*
X219667010Y-53893360D01*
X219673770Y-53880980D01*
X219671218Y-53877571D01*
X219670832Y-53877364D01*
X219568210Y-53841023D01*
X219558239Y-53838389D01*
X219340207Y-53799552D01*
X219329954Y-53798583D01*
X219108495Y-53795877D01*
X219098212Y-53796597D01*
X218879296Y-53830095D01*
X218869269Y-53832484D01*
X218740912Y-53874437D01*
X218729286Y-53882417D01*
X82194400Y-53882417D01*
X82194400Y-52500800D01*
X82214402Y-52432679D01*
X82268058Y-52386186D01*
X82320400Y-52374800D01*
X115499613Y-52374800D01*
X115499695Y-52375552D01*
G37*
%TD.AperFunction*%
%TD*%
M02*
