%TF.GenerationSoftware,KiCad,Pcbnew,7.0.10*%
%TF.CreationDate,2024-02-12T14:11:10-08:00*%
%TF.ProjectId,prototypemeasurement,70726f74-6f74-4797-9065-6d6561737572,rev?*%
%TF.SameCoordinates,Original*%
%TF.FileFunction,Soldermask,Top*%
%TF.FilePolarity,Negative*%
%FSLAX46Y46*%
G04 Gerber Fmt 4.6, Leading zero omitted, Abs format (unit mm)*
G04 Created by KiCad (PCBNEW 7.0.10) date 2024-02-12 14:11:10*
%MOMM*%
%LPD*%
G01*
G04 APERTURE LIST*
G04 Aperture macros list*
%AMRoundRect*
0 Rectangle with rounded corners*
0 $1 Rounding radius*
0 $2 $3 $4 $5 $6 $7 $8 $9 X,Y pos of 4 corners*
0 Add a 4 corners polygon primitive as box body*
4,1,4,$2,$3,$4,$5,$6,$7,$8,$9,$2,$3,0*
0 Add four circle primitives for the rounded corners*
1,1,$1+$1,$2,$3*
1,1,$1+$1,$4,$5*
1,1,$1+$1,$6,$7*
1,1,$1+$1,$8,$9*
0 Add four rect primitives between the rounded corners*
20,1,$1+$1,$2,$3,$4,$5,0*
20,1,$1+$1,$4,$5,$6,$7,0*
20,1,$1+$1,$6,$7,$8,$9,0*
20,1,$1+$1,$8,$9,$2,$3,0*%
G04 Aperture macros list end*
%ADD10R,0.279400X1.333500*%
%ADD11RoundRect,0.102000X0.765000X0.765000X-0.765000X0.765000X-0.765000X-0.765000X0.765000X-0.765000X0*%
%ADD12C,1.734000*%
G04 APERTURE END LIST*
D10*
%TO.C,U2*%
X136937496Y-50406300D03*
X137437622Y-50406300D03*
X137937748Y-50406300D03*
X138437874Y-50406300D03*
X138938000Y-50406300D03*
X138938000Y-45974000D03*
X138437874Y-45974000D03*
X137937748Y-45974000D03*
X137437622Y-45974000D03*
X136937496Y-45974000D03*
%TD*%
D11*
%TO.C,J1*%
X111760000Y-58420000D03*
D12*
X111760000Y-60960000D03*
X114300000Y-58420000D03*
X114300000Y-60960000D03*
X116840000Y-58420000D03*
X116840000Y-60960000D03*
X119380000Y-58420000D03*
X119380000Y-60960000D03*
X121920000Y-58420000D03*
X121920000Y-60960000D03*
X124460000Y-58420000D03*
X124460000Y-60960000D03*
X127000000Y-58420000D03*
X127000000Y-60960000D03*
X129540000Y-58420000D03*
X129540000Y-60960000D03*
X132080000Y-58420000D03*
X132080000Y-60960000D03*
X134620000Y-58420000D03*
X134620000Y-60960000D03*
X137160000Y-58420000D03*
X137160000Y-60960000D03*
X139700000Y-58420000D03*
X139700000Y-60960000D03*
X142240000Y-58420000D03*
X142240000Y-60960000D03*
X144780000Y-58420000D03*
X144780000Y-60960000D03*
X147320000Y-58420000D03*
X147320000Y-60960000D03*
X149860000Y-58420000D03*
X149860000Y-60960000D03*
X152400000Y-58420000D03*
X152400000Y-60960000D03*
X154940000Y-58420000D03*
X154940000Y-60960000D03*
X157480000Y-58420000D03*
X157480000Y-60960000D03*
X160020000Y-58420000D03*
X160020000Y-60960000D03*
%TD*%
D10*
%TO.C,U1*%
X128508252Y-45789850D03*
X128008126Y-45789850D03*
X127508000Y-45789850D03*
X127007874Y-45789850D03*
X126507748Y-45789850D03*
X126507748Y-50222150D03*
X127007874Y-50222150D03*
X127508000Y-50222150D03*
X128008126Y-50222150D03*
X128508252Y-50222150D03*
%TD*%
M02*
