M48
; DRILL file {KiCad 7.0.10} date Mon Feb  5 13:04:50 2024
; FORMAT={-:-/ absolute / inch / decimal}
; #@! TF.CreationDate,2024-02-05T13:04:50-08:00
; #@! TF.GenerationSoftware,Kicad,Pcbnew,7.0.10
; #@! TF.FileFunction,Plated,1,2,PTH
FMAT,2
INCH
; #@! TA.AperFunction,Plated,PTH,ComponentDrill
T1C0.0402
%
G90
G05
T1
X4.4Y-2.3
X4.4Y-2.4
X4.5Y-2.3
X4.5Y-2.4
X4.6Y-2.3
X4.6Y-2.4
X4.7Y-2.3
X4.7Y-2.4
X4.8Y-2.3
X4.8Y-2.4
X4.9Y-2.3
X4.9Y-2.4
X5.0Y-2.3
X5.0Y-2.4
X5.1Y-2.3
X5.1Y-2.4
X5.2Y-2.3
X5.2Y-2.4
X5.3Y-2.3
X5.3Y-2.4
X5.4Y-2.3
X5.4Y-2.4
X5.5Y-2.3
X5.5Y-2.4
X5.6Y-2.3
X5.6Y-2.4
X5.7Y-2.3
X5.7Y-2.4
X5.8Y-2.3
X5.8Y-2.4
X5.9Y-2.3
X5.9Y-2.4
X6.0Y-2.3
X6.0Y-2.4
X6.1Y-2.3
X6.1Y-2.4
X6.2Y-2.3
X6.2Y-2.4
X6.3Y-2.3
X6.3Y-2.4
M30
