%TF.GenerationSoftware,KiCad,Pcbnew,7.0.10*%
%TF.CreationDate,2024-02-12T14:11:09-08:00*%
%TF.ProjectId,prototypemeasurement,70726f74-6f74-4797-9065-6d6561737572,rev?*%
%TF.SameCoordinates,Original*%
%TF.FileFunction,Legend,Top*%
%TF.FilePolarity,Positive*%
%FSLAX46Y46*%
G04 Gerber Fmt 4.6, Leading zero omitted, Abs format (unit mm)*
G04 Created by KiCad (PCBNEW 7.0.10) date 2024-02-12 14:11:09*
%MOMM*%
%LPD*%
G01*
G04 APERTURE LIST*
%ADD10C,0.150000*%
%ADD11C,0.152400*%
%ADD12C,0.200000*%
G04 APERTURE END LIST*
D10*
X137392567Y-48952054D02*
X138202090Y-48952054D01*
X138202090Y-48952054D02*
X138297328Y-48904435D01*
X138297328Y-48904435D02*
X138344948Y-48856816D01*
X138344948Y-48856816D02*
X138392567Y-48761578D01*
X138392567Y-48761578D02*
X138392567Y-48571102D01*
X138392567Y-48571102D02*
X138344948Y-48475864D01*
X138344948Y-48475864D02*
X138297328Y-48428245D01*
X138297328Y-48428245D02*
X138202090Y-48380626D01*
X138202090Y-48380626D02*
X137392567Y-48380626D01*
X137487805Y-47952054D02*
X137440186Y-47904435D01*
X137440186Y-47904435D02*
X137392567Y-47809197D01*
X137392567Y-47809197D02*
X137392567Y-47571102D01*
X137392567Y-47571102D02*
X137440186Y-47475864D01*
X137440186Y-47475864D02*
X137487805Y-47428245D01*
X137487805Y-47428245D02*
X137583043Y-47380626D01*
X137583043Y-47380626D02*
X137678281Y-47380626D01*
X137678281Y-47380626D02*
X137821138Y-47428245D01*
X137821138Y-47428245D02*
X138392567Y-47999673D01*
X138392567Y-47999673D02*
X138392567Y-47380626D01*
X141170819Y-54823523D02*
X140170819Y-54823523D01*
X141170819Y-54347333D02*
X140170819Y-54347333D01*
X140170819Y-54347333D02*
X141170819Y-53775905D01*
X141170819Y-53775905D02*
X140170819Y-53775905D01*
X140885104Y-53347333D02*
X140885104Y-52871143D01*
X141170819Y-53442571D02*
X140170819Y-53109238D01*
X140170819Y-53109238D02*
X141170819Y-52775905D01*
X140266057Y-52490190D02*
X140218438Y-52442571D01*
X140218438Y-52442571D02*
X140170819Y-52347333D01*
X140170819Y-52347333D02*
X140170819Y-52109238D01*
X140170819Y-52109238D02*
X140218438Y-52014000D01*
X140218438Y-52014000D02*
X140266057Y-51966381D01*
X140266057Y-51966381D02*
X140361295Y-51918762D01*
X140361295Y-51918762D02*
X140456533Y-51918762D01*
X140456533Y-51918762D02*
X140599390Y-51966381D01*
X140599390Y-51966381D02*
X141170819Y-52537809D01*
X141170819Y-52537809D02*
X141170819Y-51918762D01*
X140266057Y-51537809D02*
X140218438Y-51490190D01*
X140218438Y-51490190D02*
X140170819Y-51394952D01*
X140170819Y-51394952D02*
X140170819Y-51156857D01*
X140170819Y-51156857D02*
X140218438Y-51061619D01*
X140218438Y-51061619D02*
X140266057Y-51014000D01*
X140266057Y-51014000D02*
X140361295Y-50966381D01*
X140361295Y-50966381D02*
X140456533Y-50966381D01*
X140456533Y-50966381D02*
X140599390Y-51014000D01*
X140599390Y-51014000D02*
X141170819Y-51585428D01*
X141170819Y-51585428D02*
X141170819Y-50966381D01*
X141170819Y-50490190D02*
X141170819Y-50299714D01*
X141170819Y-50299714D02*
X141123200Y-50204476D01*
X141123200Y-50204476D02*
X141075580Y-50156857D01*
X141075580Y-50156857D02*
X140932723Y-50061619D01*
X140932723Y-50061619D02*
X140742247Y-50014000D01*
X140742247Y-50014000D02*
X140361295Y-50014000D01*
X140361295Y-50014000D02*
X140266057Y-50061619D01*
X140266057Y-50061619D02*
X140218438Y-50109238D01*
X140218438Y-50109238D02*
X140170819Y-50204476D01*
X140170819Y-50204476D02*
X140170819Y-50394952D01*
X140170819Y-50394952D02*
X140218438Y-50490190D01*
X140218438Y-50490190D02*
X140266057Y-50537809D01*
X140266057Y-50537809D02*
X140361295Y-50585428D01*
X140361295Y-50585428D02*
X140599390Y-50585428D01*
X140599390Y-50585428D02*
X140694628Y-50537809D01*
X140694628Y-50537809D02*
X140742247Y-50490190D01*
X140742247Y-50490190D02*
X140789866Y-50394952D01*
X140789866Y-50394952D02*
X140789866Y-50204476D01*
X140789866Y-50204476D02*
X140742247Y-50109238D01*
X140742247Y-50109238D02*
X140694628Y-50061619D01*
X140694628Y-50061619D02*
X140599390Y-50014000D01*
X140885104Y-49633047D02*
X140885104Y-49156857D01*
X141170819Y-49728285D02*
X140170819Y-49394952D01*
X140170819Y-49394952D02*
X141170819Y-49061619D01*
X141266057Y-48061619D02*
X141218438Y-48156857D01*
X141218438Y-48156857D02*
X141123200Y-48252095D01*
X141123200Y-48252095D02*
X140980342Y-48394952D01*
X140980342Y-48394952D02*
X140932723Y-48490190D01*
X140932723Y-48490190D02*
X140932723Y-48585428D01*
X141170819Y-48537809D02*
X141123200Y-48633047D01*
X141123200Y-48633047D02*
X141027961Y-48728285D01*
X141027961Y-48728285D02*
X140837485Y-48775904D01*
X140837485Y-48775904D02*
X140504152Y-48775904D01*
X140504152Y-48775904D02*
X140313676Y-48728285D01*
X140313676Y-48728285D02*
X140218438Y-48633047D01*
X140218438Y-48633047D02*
X140170819Y-48537809D01*
X140170819Y-48537809D02*
X140170819Y-48347333D01*
X140170819Y-48347333D02*
X140218438Y-48252095D01*
X140218438Y-48252095D02*
X140313676Y-48156857D01*
X140313676Y-48156857D02*
X140504152Y-48109238D01*
X140504152Y-48109238D02*
X140837485Y-48109238D01*
X140837485Y-48109238D02*
X141027961Y-48156857D01*
X141027961Y-48156857D02*
X141123200Y-48252095D01*
X141123200Y-48252095D02*
X141170819Y-48347333D01*
X141170819Y-48347333D02*
X141170819Y-48537809D01*
X141170819Y-47680666D02*
X140170819Y-47680666D01*
X140170819Y-47680666D02*
X140170819Y-47442571D01*
X140170819Y-47442571D02*
X140218438Y-47299714D01*
X140218438Y-47299714D02*
X140313676Y-47204476D01*
X140313676Y-47204476D02*
X140408914Y-47156857D01*
X140408914Y-47156857D02*
X140599390Y-47109238D01*
X140599390Y-47109238D02*
X140742247Y-47109238D01*
X140742247Y-47109238D02*
X140932723Y-47156857D01*
X140932723Y-47156857D02*
X141027961Y-47204476D01*
X141027961Y-47204476D02*
X141123200Y-47299714D01*
X141123200Y-47299714D02*
X141170819Y-47442571D01*
X141170819Y-47442571D02*
X141170819Y-47680666D01*
X140218438Y-46156857D02*
X140170819Y-46252095D01*
X140170819Y-46252095D02*
X140170819Y-46394952D01*
X140170819Y-46394952D02*
X140218438Y-46537809D01*
X140218438Y-46537809D02*
X140313676Y-46633047D01*
X140313676Y-46633047D02*
X140408914Y-46680666D01*
X140408914Y-46680666D02*
X140599390Y-46728285D01*
X140599390Y-46728285D02*
X140742247Y-46728285D01*
X140742247Y-46728285D02*
X140932723Y-46680666D01*
X140932723Y-46680666D02*
X141027961Y-46633047D01*
X141027961Y-46633047D02*
X141123200Y-46537809D01*
X141123200Y-46537809D02*
X141170819Y-46394952D01*
X141170819Y-46394952D02*
X141170819Y-46299714D01*
X141170819Y-46299714D02*
X141123200Y-46156857D01*
X141123200Y-46156857D02*
X141075580Y-46109238D01*
X141075580Y-46109238D02*
X140742247Y-46109238D01*
X140742247Y-46109238D02*
X140742247Y-46299714D01*
X141123200Y-45728285D02*
X141170819Y-45585428D01*
X141170819Y-45585428D02*
X141170819Y-45347333D01*
X141170819Y-45347333D02*
X141123200Y-45252095D01*
X141123200Y-45252095D02*
X141075580Y-45204476D01*
X141075580Y-45204476D02*
X140980342Y-45156857D01*
X140980342Y-45156857D02*
X140885104Y-45156857D01*
X140885104Y-45156857D02*
X140789866Y-45204476D01*
X140789866Y-45204476D02*
X140742247Y-45252095D01*
X140742247Y-45252095D02*
X140694628Y-45347333D01*
X140694628Y-45347333D02*
X140647009Y-45537809D01*
X140647009Y-45537809D02*
X140599390Y-45633047D01*
X140599390Y-45633047D02*
X140551771Y-45680666D01*
X140551771Y-45680666D02*
X140456533Y-45728285D01*
X140456533Y-45728285D02*
X140361295Y-45728285D01*
X140361295Y-45728285D02*
X140266057Y-45680666D01*
X140266057Y-45680666D02*
X140218438Y-45633047D01*
X140218438Y-45633047D02*
X140170819Y-45537809D01*
X140170819Y-45537809D02*
X140170819Y-45299714D01*
X140170819Y-45299714D02*
X140218438Y-45156857D01*
X141170819Y-44156857D02*
X140694628Y-44490190D01*
X141170819Y-44728285D02*
X140170819Y-44728285D01*
X140170819Y-44728285D02*
X140170819Y-44347333D01*
X140170819Y-44347333D02*
X140218438Y-44252095D01*
X140218438Y-44252095D02*
X140266057Y-44204476D01*
X140266057Y-44204476D02*
X140361295Y-44156857D01*
X140361295Y-44156857D02*
X140504152Y-44156857D01*
X140504152Y-44156857D02*
X140599390Y-44204476D01*
X140599390Y-44204476D02*
X140647009Y-44252095D01*
X140647009Y-44252095D02*
X140694628Y-44347333D01*
X140694628Y-44347333D02*
X140694628Y-44728285D01*
X141266057Y-43061619D02*
X141218438Y-43156857D01*
X141218438Y-43156857D02*
X141123200Y-43252095D01*
X141123200Y-43252095D02*
X140980342Y-43394952D01*
X140980342Y-43394952D02*
X140932723Y-43490190D01*
X140932723Y-43490190D02*
X140932723Y-43585428D01*
X141170819Y-43537809D02*
X141123200Y-43633047D01*
X141123200Y-43633047D02*
X141027961Y-43728285D01*
X141027961Y-43728285D02*
X140837485Y-43775904D01*
X140837485Y-43775904D02*
X140504152Y-43775904D01*
X140504152Y-43775904D02*
X140313676Y-43728285D01*
X140313676Y-43728285D02*
X140218438Y-43633047D01*
X140218438Y-43633047D02*
X140170819Y-43537809D01*
X140170819Y-43537809D02*
X140170819Y-43347333D01*
X140170819Y-43347333D02*
X140218438Y-43252095D01*
X140218438Y-43252095D02*
X140313676Y-43156857D01*
X140313676Y-43156857D02*
X140504152Y-43109238D01*
X140504152Y-43109238D02*
X140837485Y-43109238D01*
X140837485Y-43109238D02*
X141027961Y-43156857D01*
X141027961Y-43156857D02*
X141123200Y-43252095D01*
X141123200Y-43252095D02*
X141170819Y-43347333D01*
X141170819Y-43347333D02*
X141170819Y-43537809D01*
X141170819Y-42156857D02*
X141170819Y-42728285D01*
X141170819Y-42442571D02*
X140170819Y-42442571D01*
X140170819Y-42442571D02*
X140313676Y-42537809D01*
X140313676Y-42537809D02*
X140408914Y-42633047D01*
X140408914Y-42633047D02*
X140456533Y-42728285D01*
X134969915Y-50660299D02*
X135208010Y-50660299D01*
X135112772Y-50898394D02*
X135208010Y-50660299D01*
X135208010Y-50660299D02*
X135112772Y-50422204D01*
X135398486Y-50803156D02*
X135208010Y-50660299D01*
X135208010Y-50660299D02*
X135398486Y-50517442D01*
X158286666Y-63504819D02*
X158286666Y-64219104D01*
X158286666Y-64219104D02*
X158239047Y-64361961D01*
X158239047Y-64361961D02*
X158143809Y-64457200D01*
X158143809Y-64457200D02*
X158000952Y-64504819D01*
X158000952Y-64504819D02*
X157905714Y-64504819D01*
X159286666Y-64504819D02*
X158715238Y-64504819D01*
X159000952Y-64504819D02*
X159000952Y-63504819D01*
X159000952Y-63504819D02*
X158905714Y-63647676D01*
X158905714Y-63647676D02*
X158810476Y-63742914D01*
X158810476Y-63742914D02*
X158715238Y-63790533D01*
X126962819Y-48767904D02*
X127772342Y-48767904D01*
X127772342Y-48767904D02*
X127867580Y-48720285D01*
X127867580Y-48720285D02*
X127915200Y-48672666D01*
X127915200Y-48672666D02*
X127962819Y-48577428D01*
X127962819Y-48577428D02*
X127962819Y-48386952D01*
X127962819Y-48386952D02*
X127915200Y-48291714D01*
X127915200Y-48291714D02*
X127867580Y-48244095D01*
X127867580Y-48244095D02*
X127772342Y-48196476D01*
X127772342Y-48196476D02*
X126962819Y-48196476D01*
X127962819Y-47196476D02*
X127962819Y-47767904D01*
X127962819Y-47482190D02*
X126962819Y-47482190D01*
X126962819Y-47482190D02*
X127105676Y-47577428D01*
X127105676Y-47577428D02*
X127200914Y-47672666D01*
X127200914Y-47672666D02*
X127248533Y-47767904D01*
X125422819Y-54569523D02*
X124422819Y-54569523D01*
X125422819Y-54093333D02*
X124422819Y-54093333D01*
X124422819Y-54093333D02*
X125422819Y-53521905D01*
X125422819Y-53521905D02*
X124422819Y-53521905D01*
X125137104Y-53093333D02*
X125137104Y-52617143D01*
X125422819Y-53188571D02*
X124422819Y-52855238D01*
X124422819Y-52855238D02*
X125422819Y-52521905D01*
X124518057Y-52236190D02*
X124470438Y-52188571D01*
X124470438Y-52188571D02*
X124422819Y-52093333D01*
X124422819Y-52093333D02*
X124422819Y-51855238D01*
X124422819Y-51855238D02*
X124470438Y-51760000D01*
X124470438Y-51760000D02*
X124518057Y-51712381D01*
X124518057Y-51712381D02*
X124613295Y-51664762D01*
X124613295Y-51664762D02*
X124708533Y-51664762D01*
X124708533Y-51664762D02*
X124851390Y-51712381D01*
X124851390Y-51712381D02*
X125422819Y-52283809D01*
X125422819Y-52283809D02*
X125422819Y-51664762D01*
X124518057Y-51283809D02*
X124470438Y-51236190D01*
X124470438Y-51236190D02*
X124422819Y-51140952D01*
X124422819Y-51140952D02*
X124422819Y-50902857D01*
X124422819Y-50902857D02*
X124470438Y-50807619D01*
X124470438Y-50807619D02*
X124518057Y-50760000D01*
X124518057Y-50760000D02*
X124613295Y-50712381D01*
X124613295Y-50712381D02*
X124708533Y-50712381D01*
X124708533Y-50712381D02*
X124851390Y-50760000D01*
X124851390Y-50760000D02*
X125422819Y-51331428D01*
X125422819Y-51331428D02*
X125422819Y-50712381D01*
X125422819Y-50236190D02*
X125422819Y-50045714D01*
X125422819Y-50045714D02*
X125375200Y-49950476D01*
X125375200Y-49950476D02*
X125327580Y-49902857D01*
X125327580Y-49902857D02*
X125184723Y-49807619D01*
X125184723Y-49807619D02*
X124994247Y-49760000D01*
X124994247Y-49760000D02*
X124613295Y-49760000D01*
X124613295Y-49760000D02*
X124518057Y-49807619D01*
X124518057Y-49807619D02*
X124470438Y-49855238D01*
X124470438Y-49855238D02*
X124422819Y-49950476D01*
X124422819Y-49950476D02*
X124422819Y-50140952D01*
X124422819Y-50140952D02*
X124470438Y-50236190D01*
X124470438Y-50236190D02*
X124518057Y-50283809D01*
X124518057Y-50283809D02*
X124613295Y-50331428D01*
X124613295Y-50331428D02*
X124851390Y-50331428D01*
X124851390Y-50331428D02*
X124946628Y-50283809D01*
X124946628Y-50283809D02*
X124994247Y-50236190D01*
X124994247Y-50236190D02*
X125041866Y-50140952D01*
X125041866Y-50140952D02*
X125041866Y-49950476D01*
X125041866Y-49950476D02*
X124994247Y-49855238D01*
X124994247Y-49855238D02*
X124946628Y-49807619D01*
X124946628Y-49807619D02*
X124851390Y-49760000D01*
X125137104Y-49379047D02*
X125137104Y-48902857D01*
X125422819Y-49474285D02*
X124422819Y-49140952D01*
X124422819Y-49140952D02*
X125422819Y-48807619D01*
X125518057Y-47807619D02*
X125470438Y-47902857D01*
X125470438Y-47902857D02*
X125375200Y-47998095D01*
X125375200Y-47998095D02*
X125232342Y-48140952D01*
X125232342Y-48140952D02*
X125184723Y-48236190D01*
X125184723Y-48236190D02*
X125184723Y-48331428D01*
X125422819Y-48283809D02*
X125375200Y-48379047D01*
X125375200Y-48379047D02*
X125279961Y-48474285D01*
X125279961Y-48474285D02*
X125089485Y-48521904D01*
X125089485Y-48521904D02*
X124756152Y-48521904D01*
X124756152Y-48521904D02*
X124565676Y-48474285D01*
X124565676Y-48474285D02*
X124470438Y-48379047D01*
X124470438Y-48379047D02*
X124422819Y-48283809D01*
X124422819Y-48283809D02*
X124422819Y-48093333D01*
X124422819Y-48093333D02*
X124470438Y-47998095D01*
X124470438Y-47998095D02*
X124565676Y-47902857D01*
X124565676Y-47902857D02*
X124756152Y-47855238D01*
X124756152Y-47855238D02*
X125089485Y-47855238D01*
X125089485Y-47855238D02*
X125279961Y-47902857D01*
X125279961Y-47902857D02*
X125375200Y-47998095D01*
X125375200Y-47998095D02*
X125422819Y-48093333D01*
X125422819Y-48093333D02*
X125422819Y-48283809D01*
X125422819Y-47426666D02*
X124422819Y-47426666D01*
X124422819Y-47426666D02*
X124422819Y-47188571D01*
X124422819Y-47188571D02*
X124470438Y-47045714D01*
X124470438Y-47045714D02*
X124565676Y-46950476D01*
X124565676Y-46950476D02*
X124660914Y-46902857D01*
X124660914Y-46902857D02*
X124851390Y-46855238D01*
X124851390Y-46855238D02*
X124994247Y-46855238D01*
X124994247Y-46855238D02*
X125184723Y-46902857D01*
X125184723Y-46902857D02*
X125279961Y-46950476D01*
X125279961Y-46950476D02*
X125375200Y-47045714D01*
X125375200Y-47045714D02*
X125422819Y-47188571D01*
X125422819Y-47188571D02*
X125422819Y-47426666D01*
X124470438Y-45902857D02*
X124422819Y-45998095D01*
X124422819Y-45998095D02*
X124422819Y-46140952D01*
X124422819Y-46140952D02*
X124470438Y-46283809D01*
X124470438Y-46283809D02*
X124565676Y-46379047D01*
X124565676Y-46379047D02*
X124660914Y-46426666D01*
X124660914Y-46426666D02*
X124851390Y-46474285D01*
X124851390Y-46474285D02*
X124994247Y-46474285D01*
X124994247Y-46474285D02*
X125184723Y-46426666D01*
X125184723Y-46426666D02*
X125279961Y-46379047D01*
X125279961Y-46379047D02*
X125375200Y-46283809D01*
X125375200Y-46283809D02*
X125422819Y-46140952D01*
X125422819Y-46140952D02*
X125422819Y-46045714D01*
X125422819Y-46045714D02*
X125375200Y-45902857D01*
X125375200Y-45902857D02*
X125327580Y-45855238D01*
X125327580Y-45855238D02*
X124994247Y-45855238D01*
X124994247Y-45855238D02*
X124994247Y-46045714D01*
X125375200Y-45474285D02*
X125422819Y-45331428D01*
X125422819Y-45331428D02*
X125422819Y-45093333D01*
X125422819Y-45093333D02*
X125375200Y-44998095D01*
X125375200Y-44998095D02*
X125327580Y-44950476D01*
X125327580Y-44950476D02*
X125232342Y-44902857D01*
X125232342Y-44902857D02*
X125137104Y-44902857D01*
X125137104Y-44902857D02*
X125041866Y-44950476D01*
X125041866Y-44950476D02*
X124994247Y-44998095D01*
X124994247Y-44998095D02*
X124946628Y-45093333D01*
X124946628Y-45093333D02*
X124899009Y-45283809D01*
X124899009Y-45283809D02*
X124851390Y-45379047D01*
X124851390Y-45379047D02*
X124803771Y-45426666D01*
X124803771Y-45426666D02*
X124708533Y-45474285D01*
X124708533Y-45474285D02*
X124613295Y-45474285D01*
X124613295Y-45474285D02*
X124518057Y-45426666D01*
X124518057Y-45426666D02*
X124470438Y-45379047D01*
X124470438Y-45379047D02*
X124422819Y-45283809D01*
X124422819Y-45283809D02*
X124422819Y-45045714D01*
X124422819Y-45045714D02*
X124470438Y-44902857D01*
X125422819Y-43902857D02*
X124946628Y-44236190D01*
X125422819Y-44474285D02*
X124422819Y-44474285D01*
X124422819Y-44474285D02*
X124422819Y-44093333D01*
X124422819Y-44093333D02*
X124470438Y-43998095D01*
X124470438Y-43998095D02*
X124518057Y-43950476D01*
X124518057Y-43950476D02*
X124613295Y-43902857D01*
X124613295Y-43902857D02*
X124756152Y-43902857D01*
X124756152Y-43902857D02*
X124851390Y-43950476D01*
X124851390Y-43950476D02*
X124899009Y-43998095D01*
X124899009Y-43998095D02*
X124946628Y-44093333D01*
X124946628Y-44093333D02*
X124946628Y-44474285D01*
X125518057Y-42807619D02*
X125470438Y-42902857D01*
X125470438Y-42902857D02*
X125375200Y-42998095D01*
X125375200Y-42998095D02*
X125232342Y-43140952D01*
X125232342Y-43140952D02*
X125184723Y-43236190D01*
X125184723Y-43236190D02*
X125184723Y-43331428D01*
X125422819Y-43283809D02*
X125375200Y-43379047D01*
X125375200Y-43379047D02*
X125279961Y-43474285D01*
X125279961Y-43474285D02*
X125089485Y-43521904D01*
X125089485Y-43521904D02*
X124756152Y-43521904D01*
X124756152Y-43521904D02*
X124565676Y-43474285D01*
X124565676Y-43474285D02*
X124470438Y-43379047D01*
X124470438Y-43379047D02*
X124422819Y-43283809D01*
X124422819Y-43283809D02*
X124422819Y-43093333D01*
X124422819Y-43093333D02*
X124470438Y-42998095D01*
X124470438Y-42998095D02*
X124565676Y-42902857D01*
X124565676Y-42902857D02*
X124756152Y-42855238D01*
X124756152Y-42855238D02*
X125089485Y-42855238D01*
X125089485Y-42855238D02*
X125279961Y-42902857D01*
X125279961Y-42902857D02*
X125375200Y-42998095D01*
X125375200Y-42998095D02*
X125422819Y-43093333D01*
X125422819Y-43093333D02*
X125422819Y-43283809D01*
X125422819Y-41902857D02*
X125422819Y-42474285D01*
X125422819Y-42188571D02*
X124422819Y-42188571D01*
X124422819Y-42188571D02*
X124565676Y-42283809D01*
X124565676Y-42283809D02*
X124660914Y-42379047D01*
X124660914Y-42379047D02*
X124708533Y-42474285D01*
X129385471Y-45535849D02*
X129623566Y-45535849D01*
X129528328Y-45773944D02*
X129623566Y-45535849D01*
X129623566Y-45535849D02*
X129528328Y-45297754D01*
X129814042Y-45678706D02*
X129623566Y-45535849D01*
X129623566Y-45535849D02*
X129814042Y-45392992D01*
D11*
%TO.C,U2*%
X136261348Y-49866550D02*
X136465056Y-49866550D01*
X139410440Y-49866550D02*
X139614148Y-49866550D01*
X139614148Y-49866550D02*
X139614148Y-46513750D01*
X136261348Y-46513750D02*
X136261348Y-49866550D01*
X136465056Y-46513750D02*
X136261348Y-46513750D01*
X139614148Y-46513750D02*
X139410440Y-46513750D01*
D12*
%TO.C,J1*%
X161545000Y-62165000D02*
X110235000Y-62165000D01*
X161545000Y-57215000D02*
X161545000Y-62165000D01*
X110235000Y-62165000D02*
X110235000Y-57215000D01*
X110235000Y-57215000D02*
X161545000Y-57215000D01*
X109585000Y-58420000D02*
G75*
G03*
X109385000Y-58420000I-100000J0D01*
G01*
X109385000Y-58420000D02*
G75*
G03*
X109585000Y-58420000I100000J0D01*
G01*
D11*
%TO.C,U1*%
X129184400Y-46329600D02*
X128980692Y-46329600D01*
X126035308Y-46329600D02*
X125831600Y-46329600D01*
X125831600Y-46329600D02*
X125831600Y-49682400D01*
X129184400Y-49682400D02*
X129184400Y-46329600D01*
X128980692Y-49682400D02*
X129184400Y-49682400D01*
X125831600Y-49682400D02*
X126035308Y-49682400D01*
%TD*%
M02*
